PLUGIN.Name = "TENSHI"
PLUGIN.DefaultOn = false
PLUGIN.Description = ""
PLUGIN.Trigger = true

function PLUGIN:Load()
GUNSTRUMENTAL_CH1 = "1"
GUNSTRUMENTAL_CH2 = "2"
GUNSTRUMENTAL_DELAYBASE = 120
GUNSTRUMENTAL_NODELAYFILTER = true
GUNSTRUMENTAL_TAB =  [[MFile 1 2 960
MTrk
3840 On ch=1 n=70 v=95
3840 Tempo 454545
3840 KeySig 255 major
4296 Off ch=1 n=70 v=100
4320 On ch=1 n=72 v=95
4776 Off ch=1 n=72 v=100
4800 On ch=1 n=77 v=95
5256 Off ch=1 n=77 v=100
5280 On ch=1 n=70 v=95
5736 Off ch=1 n=70 v=100
5760 On ch=1 n=72 v=95
6216 Off ch=1 n=72 v=100
6240 On ch=1 n=77 v=95
6468 Off ch=1 n=77 v=100
6480 On ch=1 n=70 v=95
7620 Off ch=1 n=70 v=100
7680 On ch=1 n=69 v=95
7680 KeySig 2 major
8136 Off ch=1 n=69 v=100
8160 On ch=1 n=73 v=95
8616 Off ch=1 n=73 v=100
8640 On ch=1 n=76 v=95
9096 Off ch=1 n=76 v=100
9120 On ch=1 n=69 v=95
9576 Off ch=1 n=69 v=100
9600 On ch=1 n=73 v=95
10056 Off ch=1 n=73 v=100
10080 On ch=1 n=76 v=95
10308 Off ch=1 n=76 v=100
10320 On ch=1 n=69 v=95
11460 Off ch=1 n=69 v=100
11520 On ch=1 n=70 v=95
11520 KeySig 255 major
11976 Off ch=1 n=70 v=100
12000 On ch=1 n=72 v=95
12456 Off ch=1 n=72 v=100
12480 On ch=1 n=77 v=95
12936 Off ch=1 n=77 v=100
12960 On ch=1 n=70 v=95
13416 Off ch=1 n=70 v=100
13440 On ch=1 n=72 v=95
13896 Off ch=1 n=72 v=100
13920 On ch=1 n=77 v=95
14148 Off ch=1 n=77 v=100
14160 On ch=1 n=70 v=95
15300 Off ch=1 n=70 v=100
15360 On ch=1 n=71 v=95
15360 KeySig 250 major
15816 Off ch=1 n=71 v=100
15840 On ch=1 n=75 v=95
16296 Off ch=1 n=75 v=100
16320 On ch=1 n=78 v=95
16776 Off ch=1 n=78 v=100
16800 On ch=1 n=71 v=95
17256 Off ch=1 n=71 v=100
17280 On ch=1 n=75 v=95
17736 Off ch=1 n=75 v=100
17760 On ch=1 n=78 v=95
17988 Off ch=1 n=78 v=100
18000 On ch=1 n=71 v=95
19140 Off ch=1 n=71 v=100
19200 On ch=1 n=70 v=95
19200 KeySig 255 major
19656 Off ch=1 n=70 v=100
19680 On ch=1 n=72 v=95
20136 Off ch=1 n=72 v=100
20160 On ch=1 n=77 v=95
20616 Off ch=1 n=77 v=100
20640 On ch=1 n=70 v=95
21096 Off ch=1 n=70 v=100
21120 On ch=1 n=72 v=95
21576 Off ch=1 n=72 v=100
21600 On ch=1 n=77 v=95
21828 Off ch=1 n=77 v=100
21840 On ch=1 n=70 v=95
22980 Off ch=1 n=70 v=100
23040 On ch=1 n=69 v=95
23040 KeySig 2 major
23496 Off ch=1 n=69 v=100
23520 On ch=1 n=73 v=95
23976 Off ch=1 n=73 v=100
24000 On ch=1 n=76 v=95
24456 Off ch=1 n=76 v=100
24480 On ch=1 n=69 v=95
24936 Off ch=1 n=69 v=100
24960 On ch=1 n=73 v=95
25416 Off ch=1 n=73 v=100
25440 On ch=1 n=76 v=95
25668 Off ch=1 n=76 v=100
25680 On ch=1 n=69 v=95
26820 Off ch=1 n=69 v=100
26880 On ch=1 n=70 v=95
26880 KeySig 255 major
27336 Off ch=1 n=70 v=100
27360 On ch=1 n=72 v=95
27816 Off ch=1 n=72 v=100
27840 On ch=1 n=77 v=95
28296 Off ch=1 n=77 v=100
28320 On ch=1 n=70 v=95
28776 Off ch=1 n=70 v=100
28800 On ch=1 n=72 v=95
29256 Off ch=1 n=72 v=100
29280 On ch=1 n=77 v=95
29508 Off ch=1 n=77 v=100
29520 On ch=1 n=70 v=95
30660 Off ch=1 n=70 v=100
30720 On ch=1 n=71 v=95
30720 KeySig 250 major
31176 Off ch=1 n=71 v=100
31200 On ch=1 n=75 v=95
31656 Off ch=1 n=75 v=100
31680 On ch=1 n=80 v=95
32136 Off ch=1 n=80 v=100
32160 On ch=1 n=71 v=95
32616 Off ch=1 n=71 v=100
32640 On ch=1 n=71 v=95
32868 Off ch=1 n=71 v=100
32880 On ch=1 n=75 v=95
33108 Off ch=1 n=75 v=100
33120 On ch=1 n=80 v=95
33348 Off ch=1 n=80 v=100
33360 On ch=1 n=71 v=95
33588 Off ch=1 n=71 v=100
33600 On ch=1 n=75 v=95
33828 Off ch=1 n=75 v=100
33840 On ch=1 n=80 v=95
34068 Off ch=1 n=80 v=100
34080 On ch=1 n=71 v=95
34536 Off ch=1 n=71 v=100
34560 On ch=1 n=81 v=95
34560 KeySig 2 major
34788 Off ch=1 n=81 v=100
34800 On ch=1 n=76 v=95
35028 Off ch=1 n=76 v=100
35040 On ch=1 n=73 v=95
35268 Off ch=1 n=73 v=100
35280 On ch=1 n=81 v=95
35508 Off ch=1 n=81 v=100
35520 On ch=1 n=76 v=95
35748 Off ch=1 n=76 v=100
35760 On ch=1 n=73 v=95
35988 Off ch=1 n=73 v=100
36000 On ch=1 n=81 v=95
36228 Off ch=1 n=81 v=100
36240 On ch=1 n=76 v=95
36468 Off ch=1 n=76 v=100
36480 On ch=1 n=73 v=95
36708 Off ch=1 n=73 v=100
36720 On ch=1 n=81 v=95
36948 Off ch=1 n=81 v=100
36960 On ch=1 n=76 v=95
37188 Off ch=1 n=76 v=100
37200 On ch=1 n=73 v=95
37428 Off ch=1 n=73 v=100
37920 On ch=1 n=81 v=95
38148 Off ch=1 n=81 v=100
38160 On ch=1 n=79 v=95
38388 Off ch=1 n=79 v=100
38400 On ch=1 n=77 v=95
38628 Off ch=1 n=77 v=100
38640 On ch=1 n=76 v=95
38868 Off ch=1 n=76 v=100
39360 On ch=1 n=74 v=95
39588 Off ch=1 n=74 v=100
39840 On ch=1 n=73 v=95
40068 Off ch=1 n=73 v=100
40320 On ch=1 n=69 v=95
40548 Off ch=1 n=69 v=100
40800 On ch=1 n=64 v=95
41028 Off ch=1 n=64 v=100
44160 On ch=1 n=69 v=100
44160 On ch=1 n=64 v=100
45072 Off ch=1 n=69 v=100
45072 Off ch=1 n=64 v=100
45120 On ch=1 n=73 v=100
45120 On ch=1 n=69 v=100
46032 Off ch=1 n=73 v=100
46032 Off ch=1 n=69 v=100
46080 On ch=1 n=74 v=95
46080 KeySig 255 major
46536 Off ch=1 n=74 v=100
46560 On ch=1 n=79 v=95
47016 Off ch=1 n=79 v=100
47040 On ch=1 n=81 v=95
47496 Off ch=1 n=81 v=100
47520 On ch=1 n=74 v=95
47976 Off ch=1 n=74 v=100
48000 On ch=1 n=79 v=95
48456 Off ch=1 n=79 v=100
48480 On ch=1 n=81 v=95
48936 Off ch=1 n=81 v=100
48960 On ch=1 n=74 v=95
49416 Off ch=1 n=74 v=100
49920 On ch=1 n=72 v=95
51288 Off ch=1 n=72 v=100
51360 On ch=1 n=69 v=95
52728 Off ch=1 n=69 v=100
52800 On ch=1 n=74 v=95
53712 Off ch=1 n=74 v=100
53760 On ch=1 n=74 v=95
54216 Off ch=1 n=74 v=100
54240 On ch=1 n=77 v=95
54696 Off ch=1 n=77 v=100
54720 On ch=1 n=79 v=95
55176 Off ch=1 n=79 v=100
55200 On ch=1 n=81 v=95
55656 Off ch=1 n=81 v=100
55680 On ch=1 n=79 v=95
56136 Off ch=1 n=79 v=100
56640 On ch=1 n=72 v=95
57096 Off ch=1 n=72 v=100
57120 On ch=1 n=74 v=95
61224 Off ch=1 n=74 v=100
61440 On ch=1 n=74 v=95
61896 Off ch=1 n=74 v=100
61920 On ch=1 n=79 v=95
62376 Off ch=1 n=79 v=100
62400 On ch=1 n=81 v=95
62856 Off ch=1 n=81 v=100
62880 On ch=1 n=74 v=95
63336 Off ch=1 n=74 v=100
63360 On ch=1 n=79 v=95
63816 Off ch=1 n=79 v=100
63840 On ch=1 n=81 v=95
64296 Off ch=1 n=81 v=100
64320 On ch=1 n=74 v=95
64776 Off ch=1 n=74 v=100
65280 On ch=1 n=72 v=95
66648 Off ch=1 n=72 v=100
66720 On ch=1 n=69 v=95
68088 Off ch=1 n=69 v=100
68160 On ch=1 n=76 v=95
69072 Off ch=1 n=76 v=100
69120 On ch=1 n=74 v=95
69576 Off ch=1 n=74 v=100
69600 On ch=1 n=77 v=95
70056 Off ch=1 n=77 v=100
70080 On ch=1 n=79 v=95
70536 Off ch=1 n=79 v=100
70560 On ch=1 n=81 v=95
71016 Off ch=1 n=81 v=100
71040 On ch=1 n=84 v=95
71496 Off ch=1 n=84 v=100
72000 On ch=1 n=76 v=95
72456 Off ch=1 n=76 v=100
72480 On ch=1 n=74 v=95
76584 Off ch=1 n=74 v=100
76800 On ch=1 n=74 v=95
77256 Off ch=1 n=74 v=100
77280 On ch=1 n=79 v=95
77736 Off ch=1 n=79 v=100
77760 On ch=1 n=81 v=95
78216 Off ch=1 n=81 v=100
78240 On ch=1 n=74 v=95
78696 Off ch=1 n=74 v=100
78720 On ch=1 n=79 v=95
79176 Off ch=1 n=79 v=100
79200 On ch=1 n=81 v=95
79656 Off ch=1 n=81 v=100
79680 On ch=1 n=74 v=95
80136 Off ch=1 n=74 v=100
80640 On ch=1 n=72 v=95
82008 Off ch=1 n=72 v=100
82080 On ch=1 n=69 v=95
83448 Off ch=1 n=69 v=100
83520 On ch=1 n=74 v=95
84432 Off ch=1 n=74 v=100
84480 On ch=1 n=74 v=95
84936 Off ch=1 n=74 v=100
84960 On ch=1 n=77 v=95
85416 Off ch=1 n=77 v=100
85440 On ch=1 n=79 v=95
85896 Off ch=1 n=79 v=100
85920 On ch=1 n=81 v=95
86376 Off ch=1 n=81 v=100
86400 On ch=1 n=79 v=95
86856 Off ch=1 n=79 v=100
87360 On ch=1 n=72 v=95
87816 Off ch=1 n=72 v=100
87840 On ch=1 n=74 v=95
91944 Off ch=1 n=74 v=100
92160 On ch=1 n=74 v=95
92616 Off ch=1 n=74 v=100
92640 On ch=1 n=79 v=95
93096 Off ch=1 n=79 v=100
93120 On ch=1 n=81 v=95
93576 Off ch=1 n=81 v=100
93600 On ch=1 n=74 v=95
94056 Off ch=1 n=74 v=100
94080 On ch=1 n=79 v=95
94536 Off ch=1 n=79 v=100
94560 On ch=1 n=81 v=95
95016 Off ch=1 n=81 v=100
95040 On ch=1 n=74 v=95
95496 Off ch=1 n=74 v=100
96000 On ch=1 n=72 v=95
97368 Off ch=1 n=72 v=100
97440 On ch=1 n=69 v=95
98808 Off ch=1 n=69 v=100
98880 On ch=1 n=76 v=95
99792 Off ch=1 n=76 v=100
99840 On ch=1 n=74 v=95
100296 Off ch=1 n=74 v=100
100320 On ch=1 n=77 v=95
100776 Off ch=1 n=77 v=100
100800 On ch=1 n=79 v=95
101256 Off ch=1 n=79 v=100
101280 On ch=1 n=81 v=95
101736 Off ch=1 n=81 v=100
101760 On ch=1 n=84 v=95
102216 Off ch=1 n=84 v=100
102720 On ch=1 n=76 v=95
103176 Off ch=1 n=76 v=100
103200 On ch=1 n=74 v=95
103680 KeySig 2 major
107304 Off ch=1 n=74 v=100
107520 On ch=1 n=71 v=95
107976 Off ch=1 n=71 v=100
108000 On ch=1 n=76 v=95
108456 Off ch=1 n=76 v=100
108480 On ch=1 n=78 v=95
108936 Off ch=1 n=78 v=100
108960 On ch=1 n=71 v=95
109416 Off ch=1 n=71 v=100
109440 On ch=1 n=76 v=95
109896 Off ch=1 n=76 v=100
109920 On ch=1 n=78 v=95
110376 Off ch=1 n=78 v=100
110400 On ch=1 n=71 v=95
110856 Off ch=1 n=71 v=100
111360 On ch=1 n=69 v=95
112728 Off ch=1 n=69 v=100
112800 On ch=1 n=66 v=95
114168 Off ch=1 n=66 v=100
114240 On ch=1 n=71 v=95
115152 Off ch=1 n=71 v=100
115200 On ch=1 n=71 v=95
115656 Off ch=1 n=71 v=100
115680 On ch=1 n=74 v=95
116136 Off ch=1 n=74 v=100
116160 On ch=1 n=76 v=95
116616 Off ch=1 n=76 v=100
116640 On ch=1 n=78 v=95
117096 Off ch=1 n=78 v=100
117120 On ch=1 n=76 v=95
117576 Off ch=1 n=76 v=100
118080 On ch=1 n=69 v=95
118536 Off ch=1 n=69 v=100
118560 On ch=1 n=71 v=95
122664 Off ch=1 n=71 v=100
122880 On ch=1 n=71 v=95
123336 Off ch=1 n=71 v=100
123360 On ch=1 n=76 v=95
123816 Off ch=1 n=76 v=100
123840 On ch=1 n=78 v=95
124296 Off ch=1 n=78 v=100
124320 On ch=1 n=71 v=95
124776 Off ch=1 n=71 v=100
124800 On ch=1 n=76 v=95
125256 Off ch=1 n=76 v=100
125280 On ch=1 n=78 v=95
125736 Off ch=1 n=78 v=100
125760 On ch=1 n=71 v=95
126216 Off ch=1 n=71 v=100
126720 On ch=1 n=69 v=95
128088 Off ch=1 n=69 v=100
128160 On ch=1 n=66 v=95
129528 Off ch=1 n=66 v=100
129600 On ch=1 n=73 v=95
130512 Off ch=1 n=73 v=100
130560 On ch=1 n=71 v=95
131016 Off ch=1 n=71 v=100
131040 On ch=1 n=74 v=95
131496 Off ch=1 n=74 v=100
131520 On ch=1 n=76 v=95
131976 Off ch=1 n=76 v=100
132000 On ch=1 n=78 v=95
132456 Off ch=1 n=78 v=100
132480 On ch=1 n=81 v=95
132936 Off ch=1 n=81 v=100
133440 On ch=1 n=73 v=95
133896 Off ch=1 n=73 v=100
133920 On ch=1 n=71 v=95
134832 Off ch=1 n=71 v=100
134880 On ch=1 n=62 v=90
135336 Off ch=1 n=62 v=100
135360 On ch=1 n=64 v=90
135816 Off ch=1 n=64 v=100
135840 On ch=1 n=66 v=90
136296 Off ch=1 n=66 v=100
136320 On ch=1 n=71 v=90
136776 Off ch=1 n=71 v=100
136800 On ch=1 n=74 v=90
137256 Off ch=1 n=74 v=100
137280 On ch=1 n=76 v=90
137736 Off ch=1 n=76 v=100
137760 On ch=1 n=78 v=90
138216 Off ch=1 n=78 v=100
138240 On ch=1 n=72 v=95
138240 KeySig 1 major
139152 Off ch=1 n=72 v=100
139200 On ch=1 n=76 v=95
140112 Off ch=1 n=76 v=100
140160 On ch=1 n=78 v=95
141072 Off ch=1 n=78 v=100
141120 On ch=1 n=79 v=95
142032 Off ch=1 n=79 v=100
142080 On ch=1 n=72 v=95
143904 Off ch=1 n=72 v=100
144000 On ch=1 n=72 v=95
144456 Off ch=1 n=72 v=100
144480 On ch=1 n=76 v=95
144936 Off ch=1 n=76 v=100
144960 On ch=1 n=78 v=95
145416 Off ch=1 n=78 v=100
145440 On ch=1 n=79 v=95
145896 Off ch=1 n=79 v=100
145920 On ch=1 n=71 v=95
146832 Off ch=1 n=71 v=100
146880 On ch=1 n=76 v=95
147792 Off ch=1 n=76 v=100
147840 On ch=1 n=78 v=95
148752 Off ch=1 n=78 v=100
148800 On ch=1 n=79 v=95
149712 Off ch=1 n=79 v=100
149760 On ch=1 n=71 v=95
151584 Off ch=1 n=71 v=100
151680 On ch=1 n=71 v=95
152136 Off ch=1 n=71 v=100
152160 On ch=1 n=76 v=95
152616 Off ch=1 n=76 v=100
152640 On ch=1 n=78 v=95
153096 Off ch=1 n=78 v=100
153120 On ch=1 n=79 v=95
153576 Off ch=1 n=79 v=100
153600 On ch=1 n=72 v=95
154512 Off ch=1 n=72 v=100
154560 On ch=1 n=76 v=95
155472 Off ch=1 n=76 v=100
155520 On ch=1 n=78 v=95
156432 Off ch=1 n=78 v=100
156480 On ch=1 n=79 v=95
157392 Off ch=1 n=79 v=100
157440 On ch=1 n=81 v=90
157440 On ch=1 n=78 v=90
159264 Off ch=1 n=81 v=100
159264 Off ch=1 n=78 v=100
159360 On ch=1 n=78 v=95
160272 Off ch=1 n=78 v=100
160320 On ch=1 n=81 v=90
160320 On ch=1 n=78 v=90
161232 Off ch=1 n=81 v=100
161232 Off ch=1 n=78 v=100
161280 On ch=1 n=83 v=95
164016 Off ch=1 n=83 v=100
164160 On ch=1 n=88 v=95
165072 Off ch=1 n=88 v=100
165120 On ch=1 n=85 v=95
165120 KeySig 2 major
166944 Off ch=1 n=85 v=100
167040 On ch=1 n=83 v=90
167040 On ch=1 n=79 v=90
167952 Off ch=1 n=83 v=100
167952 Off ch=1 n=79 v=100
168000 On ch=1 n=85 v=90
168000 On ch=1 n=81 v=90
168912 Off ch=1 n=85 v=100
168912 Off ch=1 n=81 v=100
168960 On ch=1 n=86 v=90
168960 On ch=1 n=81 v=90
168960 KeySig 254 major
170784 Off ch=1 n=86 v=100
170784 Off ch=1 n=81 v=100
170880 On ch=1 n=91 v=85
172704 Off ch=1 n=91 v=100
172800 On ch=1 n=88 v=95
172800 KeySig 255 major
175536 Off ch=1 n=88 v=100
175680 On ch=1 n=84 v=90
175680 On ch=1 n=81 v=90
176592 Off ch=1 n=84 v=100
176592 Off ch=1 n=81 v=100
176640 On ch=1 n=86 v=90
176640 On ch=1 n=81 v=90
176640 KeySig 1 major
183936 Off ch=1 n=86 v=100
183936 Off ch=1 n=81 v=100
184320 On ch=1 n=74 v=100
184320 KeySig 254 major
187056 Off ch=1 n=74 v=100
187200 On ch=1 n=72 v=95
187656 Off ch=1 n=72 v=100
187680 On ch=1 n=74 v=95
188136 Off ch=1 n=74 v=100
188160 On ch=1 n=67 v=95
189984 Off ch=1 n=67 v=100
190080 On ch=1 n=67 v=95
190536 Off ch=1 n=67 v=100
190560 On ch=1 n=69 v=95
191016 Off ch=1 n=69 v=100
191040 On ch=1 n=70 v=95
191496 Off ch=1 n=70 v=100
191520 On ch=1 n=72 v=95
191976 Off ch=1 n=72 v=100
192000 On ch=1 n=74 v=95
193824 Off ch=1 n=74 v=100
193920 On ch=1 n=81 v=85
193920 On ch=1 n=72 v=85
195744 Off ch=1 n=81 v=100
195744 Off ch=1 n=72 v=100
195840 On ch=1 n=79 v=85
195840 On ch=1 n=82 v=85
196524 Off ch=1 n=79 v=100
196524 Off ch=1 n=82 v=100
196560 On ch=1 n=81 v=85
197244 Off ch=1 n=81 v=100
197280 On ch=1 n=79 v=85
197736 Off ch=1 n=79 v=100
197760 On ch=1 n=74 v=85
198216 Off ch=1 n=74 v=100
198240 On ch=1 n=72 v=85
198696 Off ch=1 n=72 v=100
198720 On ch=1 n=74 v=85
198720 On ch=1 n=70 v=85
199176 Off ch=1 n=70 v=100
199200 On ch=1 n=69 v=85
199632 Off ch=1 n=74 v=100
199656 Off ch=1 n=69 v=100
199680 On ch=1 n=74 v=95
202872 Off ch=1 n=74 v=100
203040 On ch=1 n=79 v=85
203496 Off ch=1 n=79 v=100
203520 On ch=1 n=81 v=95
204432 Off ch=1 n=81 v=100
204480 On ch=1 n=82 v=95
205392 Off ch=1 n=82 v=100
205440 On ch=1 n=81 v=95
206352 Off ch=1 n=81 v=100
206400 On ch=1 n=77 v=95
207312 Off ch=1 n=77 v=100
207360 On ch=1 n=72 v=95
208728 Off ch=1 n=72 v=100
208800 On ch=1 n=70 v=95
210168 Off ch=1 n=70 v=100
210240 On ch=1 n=70 v=95
211152 Off ch=1 n=70 v=100
211200 On ch=1 n=79 v=85
213120 On ch=1 n=70 v=95
213576 Off ch=1 n=70 v=100
213600 On ch=1 n=72 v=95
214056 Off ch=1 n=72 v=100
214080 On ch=1 n=74 v=95
214536 Off ch=1 n=74 v=100
214560 On ch=1 n=77 v=95
214848 Off ch=1 n=79 v=100
215016 Off ch=1 n=77 v=100
215040 On ch=1 n=74 v=95
218688 Off ch=1 n=74 v=100
218880 On ch=1 n=72 v=95
220704 Off ch=1 n=72 v=100
220800 On ch=1 n=77 v=95
222624 Off ch=1 n=77 v=100
222720 On ch=1 n=78 v=95
222720 KeySig 1 major
224088 Off ch=1 n=78 v=100
224160 On ch=1 n=79 v=95
225528 Off ch=1 n=79 v=100
225600 On ch=1 n=81 v=95
226512 Off ch=1 n=81 v=100
226560 On ch=1 n=81 v=95
226560 KeySig 254 major
227928 Off ch=1 n=81 v=100
228000 On ch=1 n=82 v=95
228456 Off ch=1 n=82 v=100
228480 On ch=1 n=82 v=95
229392 Off ch=1 n=82 v=100
229440 On ch=1 n=82 v=95
229896 Off ch=1 n=82 v=100
229920 On ch=1 n=84 v=95
230376 Off ch=1 n=84 v=100
230400 On ch=1 n=86 v=95
231768 Off ch=1 n=86 v=100
231840 On ch=1 n=79 v=95
233208 Off ch=1 n=79 v=100
233280 On ch=1 n=86 v=95
234192 Off ch=1 n=86 v=100
234240 On ch=1 n=84 v=85
234240 On ch=1 n=81 v=85
235152 Off ch=1 n=84 v=100
235152 Off ch=1 n=81 v=100
235200 On ch=1 n=82 v=85
235200 On ch=1 n=79 v=85
236112 Off ch=1 n=82 v=100
236112 Off ch=1 n=79 v=100
236160 On ch=1 n=81 v=85
236160 On ch=1 n=77 v=85
237072 Off ch=1 n=81 v=100
237072 Off ch=1 n=77 v=100
237120 On ch=1 n=77 v=85
237120 On ch=1 n=72 v=85
238032 Off ch=1 n=77 v=100
238032 Off ch=1 n=72 v=100
238080 On ch=1 n=79 v=85
238080 On ch=1 n=71 v=85
238080 KeySig 0 major
241272 Off ch=1 n=79 v=100
241272 Off ch=1 n=71 v=100
241440 On ch=1 n=79 v=85
241668 Off ch=1 n=79 v=100
241680 On ch=1 n=81 v=85
241908 Off ch=1 n=81 v=100
241920 On ch=1 n=83 v=85
242376 Off ch=1 n=83 v=100
242400 On ch=1 n=74 v=85
242856 Off ch=1 n=74 v=100
242880 On ch=1 n=83 v=85
243336 Off ch=1 n=83 v=100
243360 On ch=1 n=79 v=85
243816 Off ch=1 n=79 v=100
243840 On ch=1 n=74 v=85
244296 Off ch=1 n=74 v=100
244320 On ch=1 n=72 v=85
244776 Off ch=1 n=72 v=100
244800 On ch=1 n=71 v=85
245256 Off ch=1 n=71 v=100
245280 On ch=1 n=74 v=85
245736 Off ch=1 n=74 v=100
245760 On ch=1 n=74 v=100
245760 KeySig 254 major
248496 Off ch=1 n=74 v=100
248640 On ch=1 n=72 v=95
249096 Off ch=1 n=72 v=100
249120 On ch=1 n=74 v=95
249576 Off ch=1 n=74 v=100
249600 On ch=1 n=67 v=95
251424 Off ch=1 n=67 v=100
251520 On ch=1 n=67 v=95
251976 Off ch=1 n=67 v=100
252000 On ch=1 n=69 v=95
252456 Off ch=1 n=69 v=100
252480 On ch=1 n=70 v=95
252936 Off ch=1 n=70 v=100
252960 On ch=1 n=72 v=95
253416 Off ch=1 n=72 v=100
253440 On ch=1 n=74 v=95
255264 Off ch=1 n=74 v=100
255360 On ch=1 n=81 v=85
255360 On ch=1 n=72 v=85
257184 Off ch=1 n=81 v=100
257184 Off ch=1 n=72 v=100
257280 On ch=1 n=79 v=85
257280 On ch=1 n=70 v=85
260016 Off ch=1 n=79 v=100
260016 Off ch=1 n=70 v=100
260160 On ch=1 n=74 v=95
261072 Off ch=1 n=74 v=100
261120 On ch=1 n=74 v=95
264312 Off ch=1 n=74 v=100
264480 On ch=1 n=79 v=85
264936 Off ch=1 n=79 v=100
264960 On ch=1 n=81 v=95
265872 Off ch=1 n=81 v=100
265920 On ch=1 n=82 v=95
266832 Off ch=1 n=82 v=100
266880 On ch=1 n=81 v=95
267792 Off ch=1 n=81 v=100
267840 On ch=1 n=77 v=95
268752 Off ch=1 n=77 v=100
268800 On ch=1 n=72 v=95
270168 Off ch=1 n=72 v=100
270240 On ch=1 n=70 v=95
271608 Off ch=1 n=70 v=100
271680 On ch=1 n=70 v=95
272592 Off ch=1 n=70 v=100
272640 On ch=1 n=79 v=85
276288 Off ch=1 n=79 v=100
276480 On ch=1 n=74 v=100
280128 Off ch=1 n=74 v=100
280320 On ch=1 n=72 v=95
282144 Off ch=1 n=72 v=100
282240 On ch=1 n=77 v=95
284064 Off ch=1 n=77 v=100
284160 On ch=1 n=78 v=95
284160 KeySig 1 major
285528 Off ch=1 n=78 v=100
285600 On ch=1 n=79 v=95
286968 Off ch=1 n=79 v=100
287040 On ch=1 n=81 v=95
287952 Off ch=1 n=81 v=100
288000 On ch=1 n=81 v=95
288000 KeySig 254 major
289368 Off ch=1 n=81 v=100
289440 On ch=1 n=82 v=95
289896 Off ch=1 n=82 v=100
289920 On ch=1 n=82 v=95
290832 Off ch=1 n=82 v=100
290880 On ch=1 n=82 v=95
291336 Off ch=1 n=82 v=100
291360 On ch=1 n=84 v=95
291816 Off ch=1 n=84 v=100
291840 On ch=1 n=86 v=95
293208 Off ch=1 n=86 v=100
293280 On ch=1 n=79 v=95
294648 Off ch=1 n=79 v=100
294720 On ch=1 n=86 v=95
295632 Off ch=1 n=86 v=100
295680 On ch=1 n=84 v=90
295680 On ch=1 n=81 v=90
296592 Off ch=1 n=84 v=100
296592 Off ch=1 n=81 v=100
296640 On ch=1 n=82 v=90
296640 On ch=1 n=79 v=90
297552 Off ch=1 n=82 v=100
297552 Off ch=1 n=79 v=100
297600 On ch=1 n=81 v=90
297600 On ch=1 n=77 v=90
298512 Off ch=1 n=81 v=100
298512 Off ch=1 n=77 v=100
298560 On ch=1 n=77 v=90
298560 On ch=1 n=72 v=90
299472 Off ch=1 n=77 v=100
299472 Off ch=1 n=72 v=100
299520 On ch=1 n=79 v=95
299520 On ch=1 n=71 v=95
299520 On ch=1 n=74 v=95
299520 KeySig 2 major
310464 Off ch=1 n=79 v=100
310464 Off ch=1 n=71 v=100
310464 Off ch=1 n=74 v=100
311040 Meta TrkEnd
TrkEnd
MTrk
3840 On ch=1 n=50 v=90
3840 On ch=2 n=46 v=90
7488 Off ch=1 n=50 v=100
7488 Off ch=2 n=46 v=100
7680 On ch=2 n=49 v=90
7680 On ch=2 n=45 v=90
11328 Off ch=2 n=49 v=100
11328 Off ch=2 n=45 v=100
11520 On ch=2 n=50 v=90
11520 On ch=2 n=46 v=90
15168 Off ch=2 n=50 v=100
15168 Off ch=2 n=46 v=100
15360 On ch=2 n=51 v=90
15360 On ch=2 n=47 v=90
19008 Off ch=2 n=51 v=100
19008 Off ch=2 n=47 v=100
19200 On ch=1 n=50 v=90
19200 On ch=2 n=46 v=90
22848 Off ch=1 n=50 v=100
22848 Off ch=2 n=46 v=100
23040 On ch=2 n=49 v=90
23040 On ch=2 n=45 v=90
26688 Off ch=2 n=49 v=100
26688 Off ch=2 n=45 v=100
26880 On ch=2 n=50 v=90
26880 On ch=2 n=46 v=90
30528 Off ch=2 n=50 v=100
30528 Off ch=2 n=46 v=100
30720 On ch=2 n=51 v=90
30720 On ch=2 n=47 v=90
34368 Off ch=2 n=51 v=100
34368 Off ch=2 n=47 v=100
34560 On ch=2 n=49 v=90
34560 On ch=2 n=52 v=90
41856 Off ch=2 n=49 v=100
41856 Off ch=2 n=52 v=100
46080 On ch=2 n=50 v=90
46536 Off ch=2 n=50 v=100
46560 On ch=2 n=57 v=90
47016 Off ch=2 n=57 v=100
47040 On ch=2 n=50 v=90
47496 Off ch=2 n=50 v=100
47520 On ch=2 n=57 v=90
47976 Off ch=2 n=57 v=100
48000 On ch=2 n=50 v=90
48456 Off ch=2 n=50 v=100
48480 On ch=2 n=57 v=90
48936 Off ch=2 n=57 v=100
48960 On ch=2 n=50 v=90
49416 Off ch=2 n=50 v=100
49440 On ch=2 n=57 v=90
49896 Off ch=2 n=57 v=100
49920 On ch=2 n=50 v=90
50376 Off ch=2 n=50 v=100
50400 On ch=2 n=57 v=90
50856 Off ch=2 n=57 v=100
50880 On ch=2 n=50 v=90
51336 Off ch=2 n=50 v=100
51360 On ch=2 n=57 v=90
51816 Off ch=2 n=57 v=100
51840 On ch=2 n=50 v=90
52296 Off ch=2 n=50 v=100
52320 On ch=2 n=57 v=90
52776 Off ch=2 n=57 v=100
52800 On ch=2 n=50 v=90
53256 Off ch=2 n=50 v=100
53280 On ch=2 n=48 v=90
53736 Off ch=2 n=48 v=100
53760 On ch=2 n=46 v=90
54216 Off ch=2 n=46 v=100
54240 On ch=2 n=53 v=90
54696 Off ch=2 n=53 v=100
54720 On ch=2 n=46 v=90
55176 Off ch=2 n=46 v=100
55200 On ch=2 n=53 v=90
55656 Off ch=2 n=53 v=100
55680 On ch=2 n=48 v=90
56136 Off ch=2 n=48 v=100
56160 On ch=2 n=55 v=90
56616 Off ch=2 n=55 v=100
56640 On ch=2 n=48 v=90
57096 Off ch=2 n=48 v=100
57120 On ch=2 n=55 v=90
57576 Off ch=2 n=55 v=100
57600 On ch=2 n=50 v=90
58056 Off ch=2 n=50 v=100
58080 On ch=2 n=53 v=85
58080 On ch=2 n=57 v=85
58536 Off ch=2 n=53 v=100
58536 Off ch=2 n=57 v=100
58560 On ch=2 n=50 v=90
59016 Off ch=2 n=50 v=100
59040 On ch=2 n=53 v=85
59040 On ch=2 n=57 v=85
59496 Off ch=2 n=53 v=100
59496 Off ch=2 n=57 v=100
59520 On ch=2 n=50 v=90
59976 Off ch=2 n=50 v=100
60000 On ch=2 n=53 v=85
60000 On ch=2 n=57 v=85
60456 Off ch=2 n=53 v=100
60456 Off ch=2 n=57 v=100
60480 On ch=2 n=50 v=90
60936 Off ch=2 n=50 v=100
60960 On ch=2 n=53 v=85
60960 On ch=2 n=57 v=85
61416 Off ch=2 n=53 v=100
61416 Off ch=2 n=57 v=100
61440 On ch=2 n=50 v=90
61896 Off ch=2 n=50 v=100
61920 On ch=2 n=57 v=90
62376 Off ch=2 n=57 v=100
62400 On ch=2 n=50 v=90
62856 Off ch=2 n=50 v=100
62880 On ch=2 n=57 v=90
63336 Off ch=2 n=57 v=100
63360 On ch=2 n=50 v=90
63816 Off ch=2 n=50 v=100
63840 On ch=2 n=57 v=90
64296 Off ch=2 n=57 v=100
64320 On ch=2 n=50 v=90
64776 Off ch=2 n=50 v=100
64800 On ch=2 n=57 v=90
65256 Off ch=2 n=57 v=100
65280 On ch=2 n=50 v=90
65736 Off ch=2 n=50 v=100
65760 On ch=2 n=57 v=90
66216 Off ch=2 n=57 v=100
66240 On ch=2 n=50 v=90
66696 Off ch=2 n=50 v=100
66720 On ch=2 n=57 v=90
67176 Off ch=2 n=57 v=100
67200 On ch=2 n=50 v=90
67656 Off ch=2 n=50 v=100
67680 On ch=2 n=57 v=90
68136 Off ch=2 n=57 v=100
68160 On ch=2 n=50 v=90
68616 Off ch=2 n=50 v=100
68640 On ch=2 n=48 v=90
69096 Off ch=2 n=48 v=100
69120 On ch=2 n=46 v=90
69576 Off ch=2 n=46 v=100
69600 On ch=2 n=53 v=90
70056 Off ch=2 n=53 v=100
70080 On ch=2 n=46 v=90
70536 Off ch=2 n=46 v=100
70560 On ch=2 n=53 v=90
71016 Off ch=2 n=53 v=100
71040 On ch=2 n=48 v=90
71496 Off ch=2 n=48 v=100
71520 On ch=2 n=55 v=90
71976 Off ch=2 n=55 v=100
72000 On ch=2 n=48 v=90
72456 Off ch=2 n=48 v=100
72480 On ch=2 n=55 v=90
72936 Off ch=2 n=55 v=100
72960 On ch=2 n=50 v=90
73416 Off ch=2 n=50 v=100
73440 On ch=2 n=57 v=85
73440 On ch=2 n=53 v=85
73896 Off ch=2 n=57 v=100
73896 Off ch=2 n=53 v=100
73920 On ch=2 n=50 v=90
74376 Off ch=2 n=50 v=100
74400 On ch=2 n=53 v=85
74400 On ch=2 n=57 v=85
74856 Off ch=2 n=53 v=100
74856 Off ch=2 n=57 v=100
74880 On ch=2 n=50 v=90
75336 Off ch=2 n=50 v=100
75360 On ch=2 n=53 v=85
75360 On ch=2 n=57 v=85
75816 Off ch=2 n=53 v=100
75816 Off ch=2 n=57 v=100
75840 On ch=2 n=50 v=90
76296 Off ch=2 n=50 v=100
76320 On ch=2 n=53 v=85
76320 On ch=2 n=57 v=85
76776 Off ch=2 n=53 v=100
76776 Off ch=2 n=57 v=100
76800 On ch=2 n=50 v=90
77256 Off ch=2 n=50 v=100
77280 On ch=2 n=57 v=90
77736 Off ch=2 n=57 v=100
77760 On ch=2 n=50 v=90
78216 Off ch=2 n=50 v=100
78240 On ch=2 n=57 v=90
78696 Off ch=2 n=57 v=100
78720 On ch=2 n=50 v=90
79176 Off ch=2 n=50 v=100
79200 On ch=2 n=57 v=90
79656 Off ch=2 n=57 v=100
79680 On ch=2 n=50 v=90
80136 Off ch=2 n=50 v=100
80160 On ch=2 n=57 v=90
80616 Off ch=2 n=57 v=100
80640 On ch=2 n=50 v=90
81096 Off ch=2 n=50 v=100
81120 On ch=2 n=57 v=90
81576 Off ch=2 n=57 v=100
81600 On ch=2 n=50 v=90
82056 Off ch=2 n=50 v=100
82080 On ch=2 n=57 v=90
82536 Off ch=2 n=57 v=100
82560 On ch=2 n=50 v=90
83016 Off ch=2 n=50 v=100
83040 On ch=2 n=57 v=90
83496 Off ch=2 n=57 v=100
83520 On ch=2 n=50 v=90
83976 Off ch=2 n=50 v=100
84000 On ch=2 n=48 v=90
84456 Off ch=2 n=48 v=100
84480 On ch=2 n=46 v=90
84936 Off ch=2 n=46 v=100
84960 On ch=2 n=53 v=90
85416 Off ch=2 n=53 v=100
85440 On ch=2 n=46 v=90
85896 Off ch=2 n=46 v=100
85920 On ch=2 n=53 v=90
86376 Off ch=2 n=53 v=100
86400 On ch=2 n=48 v=90
86856 Off ch=2 n=48 v=100
86880 On ch=2 n=55 v=90
87336 Off ch=2 n=55 v=100
87360 On ch=2 n=48 v=90
87816 Off ch=2 n=48 v=100
87840 On ch=2 n=55 v=90
88296 Off ch=2 n=55 v=100
88320 On ch=2 n=50 v=90
88776 Off ch=2 n=50 v=100
88800 On ch=2 n=53 v=85
88800 On ch=2 n=57 v=85
89256 Off ch=2 n=53 v=100
89256 Off ch=2 n=57 v=100
89280 On ch=2 n=50 v=90
89736 Off ch=2 n=50 v=100
89760 On ch=2 n=53 v=85
89760 On ch=2 n=57 v=85
90216 Off ch=2 n=53 v=100
90216 Off ch=2 n=57 v=100
90240 On ch=2 n=50 v=90
90696 Off ch=2 n=50 v=100
90720 On ch=2 n=53 v=85
90720 On ch=2 n=57 v=85
91176 Off ch=2 n=53 v=100
91176 Off ch=2 n=57 v=100
91200 On ch=2 n=50 v=90
91656 Off ch=2 n=50 v=100
91680 On ch=2 n=53 v=85
91680 On ch=2 n=57 v=85
92136 Off ch=2 n=53 v=100
92136 Off ch=2 n=57 v=100
92160 On ch=2 n=50 v=90
92616 Off ch=2 n=50 v=100
92640 On ch=2 n=57 v=90
93096 Off ch=2 n=57 v=100
93120 On ch=2 n=50 v=90
93576 Off ch=2 n=50 v=100
93600 On ch=2 n=57 v=90
94056 Off ch=2 n=57 v=100
94080 On ch=2 n=50 v=90
94536 Off ch=2 n=50 v=100
94560 On ch=2 n=57 v=90
95016 Off ch=2 n=57 v=100
95040 On ch=2 n=50 v=90
95496 Off ch=2 n=50 v=100
95520 On ch=2 n=57 v=90
95976 Off ch=2 n=57 v=100
96000 On ch=2 n=50 v=90
96456 Off ch=2 n=50 v=100
96480 On ch=2 n=57 v=90
96936 Off ch=2 n=57 v=100
96960 On ch=2 n=50 v=90
97416 Off ch=2 n=50 v=100
97440 On ch=2 n=57 v=90
97896 Off ch=2 n=57 v=100
97920 On ch=2 n=50 v=90
98376 Off ch=2 n=50 v=100
98400 On ch=2 n=57 v=90
98856 Off ch=2 n=57 v=100
98880 On ch=2 n=50 v=90
99336 Off ch=2 n=50 v=100
99360 On ch=2 n=48 v=90
99816 Off ch=2 n=48 v=100
99840 On ch=2 n=46 v=90
100296 Off ch=2 n=46 v=100
100320 On ch=2 n=53 v=90
100776 Off ch=2 n=53 v=100
100800 On ch=2 n=46 v=90
101256 Off ch=2 n=46 v=100
101280 On ch=2 n=53 v=90
101736 Off ch=2 n=53 v=100
101760 On ch=2 n=48 v=90
102216 Off ch=2 n=48 v=100
102240 On ch=2 n=55 v=90
102696 Off ch=2 n=55 v=100
102720 On ch=2 n=48 v=90
103176 Off ch=2 n=48 v=100
103200 On ch=2 n=55 v=90
103656 Off ch=2 n=55 v=100
103680 On ch=2 n=47 v=90
104136 Off ch=2 n=47 v=100
104160 On ch=2 n=52 v=90
104616 Off ch=2 n=52 v=100
104640 On ch=2 n=54 v=90
105096 Off ch=2 n=54 v=100
105120 On ch=2 n=47 v=90
106032 Off ch=2 n=47 v=100
106080 On ch=2 n=52 v=90
106536 Off ch=2 n=52 v=100
106560 On ch=2 n=54 v=90
107016 Off ch=2 n=54 v=100
107040 On ch=2 n=57 v=90
107496 Off ch=2 n=57 v=100
107520 On ch=2 n=47 v=90
107976 Off ch=2 n=47 v=100
108000 On ch=2 n=54 v=90
108456 Off ch=2 n=54 v=100
108480 On ch=2 n=47 v=90
108936 Off ch=2 n=47 v=100
108960 On ch=2 n=54 v=90
109416 Off ch=2 n=54 v=100
109440 On ch=2 n=47 v=90
109896 Off ch=2 n=47 v=100
109920 On ch=2 n=54 v=90
110376 Off ch=2 n=54 v=100
110400 On ch=2 n=47 v=90
110856 Off ch=2 n=47 v=100
110880 On ch=2 n=54 v=90
111336 Off ch=2 n=54 v=100
111360 On ch=2 n=47 v=90
111816 Off ch=2 n=47 v=100
111840 On ch=2 n=54 v=90
112296 Off ch=2 n=54 v=100
112320 On ch=2 n=47 v=90
112776 Off ch=2 n=47 v=100
112800 On ch=2 n=54 v=90
113256 Off ch=2 n=54 v=100
113280 On ch=2 n=47 v=90
113736 Off ch=2 n=47 v=100
113760 On ch=2 n=54 v=90
114216 Off ch=2 n=54 v=100
114240 On ch=2 n=47 v=90
114696 Off ch=2 n=47 v=100
114720 On ch=2 n=45 v=90
115176 Off ch=2 n=45 v=100
115200 On ch=2 n=43 v=90
115656 Off ch=2 n=43 v=100
115680 On ch=2 n=50 v=90
116136 Off ch=2 n=50 v=100
116160 On ch=2 n=43 v=90
116616 Off ch=2 n=43 v=100
116640 On ch=2 n=50 v=90
117096 Off ch=2 n=50 v=100
117120 On ch=2 n=45 v=90
117576 Off ch=2 n=45 v=100
117600 On ch=2 n=52 v=90
118056 Off ch=2 n=52 v=100
118080 On ch=2 n=45 v=90
118536 Off ch=2 n=45 v=100
118560 On ch=2 n=52 v=90
119016 Off ch=2 n=52 v=100
119040 On ch=2 n=47 v=90
119496 Off ch=2 n=47 v=100
119520 On ch=2 n=54 v=85
119520 On ch=2 n=50 v=85
119976 Off ch=2 n=54 v=100
119976 Off ch=2 n=50 v=100
120000 On ch=2 n=47 v=90
120456 Off ch=2 n=47 v=100
120480 On ch=2 n=54 v=85
120480 On ch=2 n=50 v=85
120936 Off ch=2 n=54 v=100
120936 Off ch=2 n=50 v=100
120960 On ch=2 n=47 v=90
121416 Off ch=2 n=47 v=100
121440 On ch=2 n=54 v=85
121440 On ch=2 n=50 v=85
121896 Off ch=2 n=54 v=100
121896 Off ch=2 n=50 v=100
121920 On ch=2 n=47 v=90
122376 Off ch=2 n=47 v=100
122400 On ch=2 n=54 v=85
122400 On ch=2 n=50 v=85
122856 Off ch=2 n=54 v=100
122856 Off ch=2 n=50 v=100
122880 On ch=2 n=47 v=90
123336 Off ch=2 n=47 v=100
123360 On ch=2 n=54 v=90
123816 Off ch=2 n=54 v=100
123840 On ch=2 n=47 v=90
124296 Off ch=2 n=47 v=100
124320 On ch=2 n=54 v=90
124776 Off ch=2 n=54 v=100
124800 On ch=2 n=47 v=90
125256 Off ch=2 n=47 v=100
125280 On ch=2 n=54 v=90
125736 Off ch=2 n=54 v=100
125760 On ch=2 n=47 v=90
126216 Off ch=2 n=47 v=100
126240 On ch=2 n=54 v=90
126696 Off ch=2 n=54 v=100
126720 On ch=2 n=47 v=90
127176 Off ch=2 n=47 v=100
127200 On ch=2 n=54 v=90
127656 Off ch=2 n=54 v=100
127680 On ch=2 n=47 v=90
128136 Off ch=2 n=47 v=100
128160 On ch=2 n=54 v=90
128616 Off ch=2 n=54 v=100
128640 On ch=2 n=47 v=90
129096 Off ch=2 n=47 v=100
129120 On ch=2 n=54 v=90
129576 Off ch=2 n=54 v=100
129600 On ch=2 n=47 v=90
130056 Off ch=2 n=47 v=100
130080 On ch=2 n=45 v=90
130536 Off ch=2 n=45 v=100
130560 On ch=2 n=43 v=90
131016 Off ch=2 n=43 v=100
131040 On ch=2 n=50 v=90
131496 Off ch=2 n=50 v=100
131520 On ch=2 n=43 v=90
131976 Off ch=2 n=43 v=100
132000 On ch=2 n=50 v=90
132456 Off ch=2 n=50 v=100
132480 On ch=2 n=45 v=90
132936 Off ch=2 n=45 v=100
132960 On ch=2 n=52 v=90
133416 Off ch=2 n=52 v=100
133440 On ch=2 n=45 v=90
133896 Off ch=2 n=45 v=100
133920 On ch=2 n=52 v=90
134376 Off ch=2 n=52 v=100
134400 On ch=2 n=47 v=90
134856 Off ch=2 n=47 v=100
134880 On ch=2 n=54 v=85
134880 On ch=2 n=50 v=85
135336 Off ch=2 n=54 v=100
135336 Off ch=2 n=50 v=100
135360 On ch=2 n=47 v=90
135816 Off ch=2 n=47 v=100
135840 On ch=2 n=54 v=85
135840 On ch=2 n=50 v=85
136296 Off ch=2 n=54 v=100
136296 Off ch=2 n=50 v=100
136320 On ch=2 n=47 v=90
136776 Off ch=2 n=47 v=100
136800 On ch=2 n=54 v=85
136800 On ch=2 n=50 v=85
137256 Off ch=2 n=54 v=100
137256 Off ch=2 n=50 v=100
137280 On ch=2 n=47 v=90
137736 Off ch=2 n=47 v=100
137760 On ch=2 n=54 v=85
137760 On ch=2 n=50 v=85
138216 Off ch=2 n=54 v=100
138216 Off ch=2 n=50 v=100
138240 On ch=2 n=48 v=90
138696 Off ch=2 n=48 v=100
138720 On ch=2 n=55 v=90
139176 Off ch=2 n=55 v=100
139200 On ch=2 n=52 v=90
139656 Off ch=2 n=52 v=100
139680 On ch=2 n=55 v=90
140136 Off ch=2 n=55 v=100
140160 On ch=2 n=48 v=90
140616 Off ch=2 n=48 v=100
140640 On ch=2 n=55 v=90
141096 Off ch=2 n=55 v=100
141120 On ch=2 n=52 v=90
141576 Off ch=2 n=52 v=100
141600 On ch=2 n=55 v=90
142056 Off ch=2 n=55 v=100
142080 On ch=2 n=48 v=90
142536 Off ch=2 n=48 v=100
142560 On ch=2 n=55 v=90
143016 Off ch=2 n=55 v=100
143040 On ch=2 n=52 v=90
143496 Off ch=2 n=52 v=100
143520 On ch=2 n=55 v=90
143976 Off ch=2 n=55 v=100
144000 On ch=2 n=48 v=90
144456 Off ch=2 n=48 v=100
144480 On ch=2 n=55 v=90
144936 Off ch=2 n=55 v=100
144960 On ch=2 n=52 v=90
145416 Off ch=2 n=52 v=100
145440 On ch=2 n=55 v=90
145896 Off ch=2 n=55 v=100
145920 On ch=2 n=47 v=90
146376 Off ch=2 n=47 v=100
146400 On ch=2 n=55 v=90
146856 Off ch=2 n=55 v=100
146880 On ch=2 n=52 v=90
147336 Off ch=2 n=52 v=100
147360 On ch=2 n=55 v=90
147816 Off ch=2 n=55 v=100
147840 On ch=2 n=47 v=90
148296 Off ch=2 n=47 v=100
148320 On ch=2 n=55 v=90
148776 Off ch=2 n=55 v=100
148800 On ch=2 n=52 v=90
149256 Off ch=2 n=52 v=100
149280 On ch=2 n=55 v=90
149736 Off ch=2 n=55 v=100
149760 On ch=2 n=47 v=90
150216 Off ch=2 n=47 v=100
150240 On ch=2 n=55 v=90
150696 Off ch=2 n=55 v=100
150720 On ch=2 n=52 v=90
151176 Off ch=2 n=52 v=100
151200 On ch=2 n=55 v=90
151656 Off ch=2 n=55 v=100
151680 On ch=2 n=47 v=90
152136 Off ch=2 n=47 v=100
152160 On ch=2 n=55 v=90
152616 Off ch=2 n=55 v=100
152640 On ch=2 n=52 v=90
153096 Off ch=2 n=52 v=100
153120 On ch=2 n=55 v=90
153576 Off ch=2 n=55 v=100
153600 On ch=2 n=48 v=90
154056 Off ch=2 n=48 v=100
154080 On ch=2 n=55 v=90
154536 Off ch=2 n=55 v=100
154560 On ch=2 n=52 v=90
155016 Off ch=2 n=52 v=100
155040 On ch=2 n=55 v=90
155496 Off ch=2 n=55 v=100
155520 On ch=2 n=48 v=90
155976 Off ch=2 n=48 v=100
156000 On ch=2 n=55 v=90
156456 Off ch=2 n=55 v=100
156480 On ch=2 n=52 v=90
156936 Off ch=2 n=52 v=100
156960 On ch=2 n=55 v=90
157416 Off ch=2 n=55 v=100
157440 On ch=2 n=45 v=95
157896 Off ch=2 n=45 v=100
157920 On ch=2 n=50 v=90
158376 Off ch=2 n=50 v=100
158400 On ch=2 n=54 v=90
158856 Off ch=2 n=54 v=100
158880 On ch=2 n=57 v=85
159336 Off ch=2 n=57 v=100
159360 On ch=2 n=45 v=95
159816 Off ch=2 n=45 v=100
159840 On ch=2 n=50 v=90
160296 Off ch=2 n=50 v=100
160320 On ch=2 n=54 v=90
160776 Off ch=2 n=54 v=100
160800 On ch=2 n=57 v=85
161256 Off ch=2 n=57 v=100
161280 On ch=2 n=47 v=95
161736 Off ch=2 n=47 v=100
161760 On ch=2 n=50 v=90
162216 Off ch=2 n=50 v=100
162240 On ch=2 n=55 v=90
162696 Off ch=2 n=55 v=100
162720 On ch=2 n=59 v=85
163176 Off ch=2 n=59 v=100
163200 On ch=2 n=47 v=95
163656 Off ch=2 n=47 v=100
163680 On ch=2 n=50 v=90
164136 Off ch=2 n=50 v=100
164160 On ch=2 n=55 v=90
164616 Off ch=2 n=55 v=100
164640 On ch=2 n=59 v=85
165096 Off ch=2 n=59 v=100
165120 On ch=2 n=45 v=95
165576 Off ch=2 n=45 v=100
165600 On ch=2 n=49 v=90
166056 Off ch=2 n=49 v=100
166080 On ch=2 n=52 v=90
166536 Off ch=2 n=52 v=100
166560 On ch=2 n=57 v=85
167016 Off ch=2 n=57 v=100
167040 On ch=2 n=45 v=95
167496 Off ch=2 n=45 v=100
167520 On ch=2 n=49 v=90
167976 Off ch=2 n=49 v=100
168000 On ch=2 n=52 v=90
168456 Off ch=2 n=52 v=100
168480 On ch=2 n=57 v=85
168936 Off ch=2 n=57 v=100
168960 On ch=2 n=46 v=95
169416 Off ch=2 n=46 v=100
169440 On ch=2 n=50 v=90
169896 Off ch=2 n=50 v=100
169920 On ch=2 n=53 v=90
170376 Off ch=2 n=53 v=100
170400 On ch=2 n=58 v=85
170856 Off ch=2 n=58 v=100
170880 On ch=2 n=46 v=95
171336 Off ch=2 n=46 v=100
171360 On ch=2 n=50 v=90
171816 Off ch=2 n=50 v=100
171840 On ch=2 n=53 v=90
172296 Off ch=2 n=53 v=100
172320 On ch=2 n=58 v=85
172776 Off ch=2 n=58 v=100
172800 On ch=2 n=48 v=95
173256 Off ch=2 n=48 v=100
173280 On ch=2 n=52 v=90
173736 Off ch=2 n=52 v=100
173760 On ch=2 n=55 v=90
174216 Off ch=2 n=55 v=100
174240 On ch=2 n=60 v=85
174696 Off ch=2 n=60 v=100
174720 On ch=2 n=48 v=95
175176 Off ch=2 n=48 v=100
175200 On ch=2 n=52 v=90
175656 Off ch=2 n=52 v=100
175680 On ch=2 n=55 v=90
176136 Off ch=2 n=55 v=100
176160 On ch=2 n=60 v=85
176616 Off ch=2 n=60 v=100
176640 On ch=2 n=45 v=90
177096 Off ch=2 n=45 v=100
177120 On ch=2 n=54 v=85
177120 On ch=2 n=50 v=85
177576 Off ch=2 n=54 v=100
177576 Off ch=2 n=50 v=100
177600 On ch=2 n=45 v=90
178056 Off ch=2 n=45 v=100
178080 On ch=2 n=54 v=85
178080 On ch=2 n=50 v=85
178536 Off ch=2 n=54 v=100
178536 Off ch=2 n=50 v=100
178560 On ch=2 n=45 v=90
179016 Off ch=2 n=45 v=100
179040 On ch=2 n=54 v=85
179040 On ch=2 n=50 v=85
179496 Off ch=2 n=54 v=100
179496 Off ch=2 n=50 v=100
179520 On ch=2 n=45 v=90
179976 Off ch=2 n=45 v=100
180000 On ch=2 n=54 v=85
180000 On ch=2 n=50 v=85
180456 Off ch=2 n=54 v=100
180456 Off ch=2 n=50 v=100
180480 On ch=2 n=45 v=90
180936 Off ch=2 n=45 v=100
180960 On ch=2 n=54 v=90
181416 Off ch=2 n=54 v=100
181440 On ch=2 n=50 v=90
181896 Off ch=2 n=50 v=100
181920 On ch=2 n=54 v=90
182376 Off ch=2 n=54 v=100
182400 On ch=2 n=45 v=90
182856 Off ch=2 n=45 v=100
182880 On ch=2 n=54 v=90
183336 Off ch=2 n=54 v=100
183360 On ch=2 n=50 v=90
183816 Off ch=2 n=50 v=100
183840 On ch=2 n=54 v=90
184296 Off ch=2 n=54 v=100
184320 On ch=2 n=51 v=90
184320 On ch=2 n=46 v=90
187968 Off ch=2 n=51 v=100
187968 Off ch=2 n=46 v=100
188160 On ch=2 n=48 v=90
188160 On ch=2 n=53 v=90
191808 Off ch=2 n=48 v=100
191808 Off ch=2 n=53 v=100
192000 On ch=2 n=50 v=90
192000 On ch=2 n=55 v=90
199296 Off ch=2 n=50 v=100
199296 Off ch=2 n=55 v=100
199680 On ch=2 n=51 v=90
199680 On ch=2 n=46 v=90
203328 Off ch=2 n=51 v=100
203328 Off ch=2 n=46 v=100
203520 On ch=2 n=48 v=90
203520 On ch=2 n=53 v=90
207168 Off ch=2 n=48 v=100
207168 Off ch=2 n=53 v=100
207360 On ch=2 n=50 v=90
207360 On ch=2 n=54 v=90
211008 Off ch=2 n=50 v=100
211008 Off ch=2 n=54 v=100
211200 On ch=2 n=55 v=90
211200 On ch=2 n=50 v=90
214848 Off ch=2 n=55 v=100
214848 Off ch=2 n=50 v=100
215040 On ch=2 n=51 v=90
215040 On ch=2 n=46 v=90
218688 Off ch=2 n=51 v=100
218688 Off ch=2 n=46 v=100
218880 On ch=2 n=48 v=90
218880 On ch=2 n=53 v=90
222528 Off ch=2 n=48 v=100
222528 Off ch=2 n=53 v=100
222720 On ch=2 n=50 v=90
222720 On ch=2 n=54 v=90
226368 Off ch=2 n=50 v=100
226368 Off ch=2 n=54 v=100
226560 On ch=2 n=55 v=90
226560 On ch=2 n=50 v=90
230208 Off ch=2 n=55 v=100
230208 Off ch=2 n=50 v=100
230400 On ch=2 n=51 v=90
230400 On ch=2 n=46 v=90
234048 Off ch=2 n=51 v=100
234048 Off ch=2 n=46 v=100
234240 On ch=2 n=48 v=90
234240 On ch=2 n=53 v=90
237888 Off ch=2 n=48 v=100
237888 Off ch=2 n=53 v=100
238080 On ch=2 n=50 v=90
238080 On ch=2 n=55 v=90
245376 Off ch=2 n=50 v=100
245376 Off ch=2 n=55 v=100
245760 On ch=2 n=39 v=90
246216 Off ch=2 n=39 v=100
246240 On ch=2 n=43 v=90
246696 Off ch=2 n=43 v=100
246720 On ch=2 n=46 v=90
247176 Off ch=2 n=46 v=100
247200 On ch=2 n=43 v=90
247656 Off ch=2 n=43 v=100
247680 On ch=2 n=39 v=90
248136 Off ch=2 n=39 v=100
248160 On ch=2 n=43 v=90
248616 Off ch=2 n=43 v=100
248640 On ch=2 n=46 v=90
249096 Off ch=2 n=46 v=100
249120 On ch=2 n=43 v=90
249576 Off ch=2 n=43 v=100
249600 On ch=2 n=41 v=90
250056 Off ch=2 n=41 v=100
250080 On ch=2 n=45 v=90
250536 Off ch=2 n=45 v=100
250560 On ch=2 n=48 v=90
251016 Off ch=2 n=48 v=100
251040 On ch=2 n=45 v=90
251496 Off ch=2 n=45 v=100
251520 On ch=2 n=41 v=90
251976 Off ch=2 n=41 v=100
252000 On ch=2 n=45 v=90
252456 Off ch=2 n=45 v=100
252480 On ch=2 n=48 v=90
252936 Off ch=2 n=48 v=100
252960 On ch=2 n=45 v=90
253416 Off ch=2 n=45 v=100
253440 On ch=2 n=43 v=90
253896 Off ch=2 n=43 v=100
253920 On ch=2 n=46 v=90
254376 Off ch=2 n=46 v=100
254400 On ch=2 n=50 v=90
254856 Off ch=2 n=50 v=100
254880 On ch=2 n=55 v=90
255336 Off ch=2 n=55 v=100
255360 On ch=2 n=43 v=90
255816 Off ch=2 n=43 v=100
255840 On ch=2 n=46 v=90
256296 Off ch=2 n=46 v=100
256320 On ch=2 n=50 v=90
256776 Off ch=2 n=50 v=100
256800 On ch=2 n=55 v=90
257256 Off ch=2 n=55 v=100
257280 On ch=2 n=43 v=90
257736 Off ch=2 n=43 v=100
257760 On ch=2 n=46 v=90
258216 Off ch=2 n=46 v=100
258240 On ch=2 n=50 v=90
258696 Off ch=2 n=50 v=100
258720 On ch=2 n=46 v=90
259176 Off ch=2 n=46 v=100
259200 On ch=2 n=43 v=90
259656 Off ch=2 n=43 v=100
259680 On ch=2 n=46 v=90
260136 Off ch=2 n=46 v=100
260160 On ch=2 n=50 v=90
260616 Off ch=2 n=50 v=100
260640 On ch=2 n=46 v=90
261096 Off ch=2 n=46 v=100
261120 On ch=2 n=39 v=90
261576 Off ch=2 n=39 v=100
261600 On ch=2 n=43 v=90
262056 Off ch=2 n=43 v=100
262080 On ch=2 n=46 v=90
262536 Off ch=2 n=46 v=100
262560 On ch=2 n=43 v=90
263016 Off ch=2 n=43 v=100
263040 On ch=2 n=39 v=90
263496 Off ch=2 n=39 v=100
263520 On ch=2 n=43 v=90
263976 Off ch=2 n=43 v=100
264000 On ch=2 n=46 v=90
264456 Off ch=2 n=46 v=100
264480 On ch=2 n=43 v=90
264936 Off ch=2 n=43 v=100
264960 On ch=2 n=41 v=90
265416 Off ch=2 n=41 v=100
265440 On ch=2 n=45 v=90
265896 Off ch=2 n=45 v=100
265920 On ch=2 n=48 v=90
266376 Off ch=2 n=48 v=100
266400 On ch=2 n=45 v=90
266856 Off ch=2 n=45 v=100
266880 On ch=2 n=41 v=90
267336 Off ch=2 n=41 v=100
267360 On ch=2 n=45 v=90
267816 Off ch=2 n=45 v=100
267840 On ch=2 n=48 v=90
268296 Off ch=2 n=48 v=100
268320 On ch=2 n=45 v=90
268776 Off ch=2 n=45 v=100
268800 On ch=2 n=43 v=90
269256 Off ch=2 n=43 v=100
269280 On ch=2 n=46 v=90
269736 Off ch=2 n=46 v=100
269760 On ch=2 n=50 v=90
270216 Off ch=2 n=50 v=100
270240 On ch=2 n=46 v=90
270696 Off ch=2 n=46 v=100
270720 On ch=2 n=43 v=90
271176 Off ch=2 n=43 v=100
271200 On ch=2 n=46 v=90
271656 Off ch=2 n=46 v=100
271680 On ch=2 n=50 v=90
272136 Off ch=2 n=50 v=100
272160 On ch=2 n=46 v=90
272616 Off ch=2 n=46 v=100
272640 On ch=2 n=43 v=90
273096 Off ch=2 n=43 v=100
273120 On ch=2 n=46 v=90
273576 Off ch=2 n=46 v=100
273600 On ch=2 n=50 v=90
274056 Off ch=2 n=50 v=100
274080 On ch=2 n=46 v=90
274536 Off ch=2 n=46 v=100
274560 On ch=2 n=43 v=90
275016 Off ch=2 n=43 v=100
275040 On ch=2 n=46 v=90
275496 Off ch=2 n=46 v=100
275520 On ch=2 n=50 v=90
275976 Off ch=2 n=50 v=100
276000 On ch=2 n=46 v=90
276456 Off ch=2 n=46 v=100
276480 On ch=2 n=39 v=90
276936 Off ch=2 n=39 v=100
276960 On ch=2 n=43 v=90
277416 Off ch=2 n=43 v=100
277440 On ch=2 n=46 v=90
277896 Off ch=2 n=46 v=100
277920 On ch=2 n=43 v=90
278376 Off ch=2 n=43 v=100
278400 On ch=2 n=39 v=90
278856 Off ch=2 n=39 v=100
278880 On ch=2 n=43 v=90
279336 Off ch=2 n=43 v=100
279360 On ch=2 n=46 v=90
279816 Off ch=2 n=46 v=100
279840 On ch=2 n=43 v=90
280296 Off ch=2 n=43 v=100
280320 On ch=2 n=41 v=90
280776 Off ch=2 n=41 v=100
280800 On ch=2 n=45 v=90
281256 Off ch=2 n=45 v=100
281280 On ch=2 n=48 v=90
281736 Off ch=2 n=48 v=100
281760 On ch=2 n=45 v=90
282216 Off ch=2 n=45 v=100
282240 On ch=2 n=41 v=90
282696 Off ch=2 n=41 v=100
282720 On ch=2 n=45 v=90
283176 Off ch=2 n=45 v=100
283200 On ch=2 n=48 v=90
283656 Off ch=2 n=48 v=100
283680 On ch=2 n=45 v=90
284136 Off ch=2 n=45 v=100
284160 On ch=2 n=42 v=90
284616 Off ch=2 n=42 v=100
284640 On ch=2 n=45 v=90
285096 Off ch=2 n=45 v=100
285120 On ch=2 n=48 v=90
285576 Off ch=2 n=48 v=100
285600 On ch=2 n=45 v=90
286056 Off ch=2 n=45 v=100
286080 On ch=2 n=42 v=90
286536 Off ch=2 n=42 v=100
286560 On ch=2 n=45 v=90
287016 Off ch=2 n=45 v=100
287040 On ch=2 n=48 v=90
287496 Off ch=2 n=48 v=100
287520 On ch=2 n=45 v=90
287976 Off ch=2 n=45 v=100
288000 On ch=2 n=43 v=90
288456 Off ch=2 n=43 v=100
288480 On ch=2 n=46 v=90
288936 Off ch=2 n=46 v=100
288960 On ch=2 n=50 v=90
289416 Off ch=2 n=50 v=100
289440 On ch=2 n=46 v=90
289896 Off ch=2 n=46 v=100
289920 On ch=2 n=43 v=90
290376 Off ch=2 n=43 v=100
290400 On ch=2 n=46 v=90
290856 Off ch=2 n=46 v=100
290880 On ch=2 n=50 v=90
291336 Off ch=2 n=50 v=100
291360 On ch=2 n=46 v=90
291816 Off ch=2 n=46 v=100
291840 On ch=2 n=39 v=90
292296 Off ch=2 n=39 v=100
292320 On ch=2 n=43 v=90
292776 Off ch=2 n=43 v=100
292800 On ch=2 n=46 v=90
293256 Off ch=2 n=46 v=100
293280 On ch=2 n=43 v=90
293736 Off ch=2 n=43 v=100
293760 On ch=2 n=39 v=90
294216 Off ch=2 n=39 v=100
294240 On ch=2 n=43 v=90
294696 Off ch=2 n=43 v=100
294720 On ch=2 n=46 v=90
295176 Off ch=2 n=46 v=100
295200 On ch=2 n=43 v=90
295656 Off ch=2 n=43 v=100
295680 On ch=2 n=41 v=90
296136 Off ch=2 n=41 v=100
296160 On ch=2 n=45 v=90
296616 Off ch=2 n=45 v=100
296640 On ch=2 n=48 v=90
297096 Off ch=2 n=48 v=100
297120 On ch=2 n=45 v=90
297576 Off ch=2 n=45 v=100
297600 On ch=2 n=41 v=90
298056 Off ch=2 n=41 v=100
298080 On ch=2 n=45 v=90
298536 Off ch=2 n=45 v=100
298560 On ch=2 n=48 v=90
299016 Off ch=2 n=48 v=100
299040 On ch=2 n=45 v=90
299496 Off ch=2 n=45 v=100
299520 On ch=2 n=43 v=90
299520 On ch=2 n=50 v=90
310464 Off ch=2 n=43 v=100
310464 Off ch=2 n=50 v=100
311040 Meta TrkEnd
TrkEnd
]]

end