PLUGIN.Name = "GSTAB_PATTERN"
PLUGIN.DefaultOn = false
PLUGIN.Description = ""
PLUGIN.Trigger = true

function PLUGIN:Load()
GUNSTRUMENTAL_CH1 = {"7"} 
GUNSTRUMENTAL_CH2 = {"8", "12", "13", "11", "5"} 
GUNSTRUMENTAL_DELAYBASE = 120
GUNSTRUMENTAL_NODELAYFILTER = true
GUNSTRUMENTAL_TAB =  [[
156456 Par ch=1 c=11 v=111
156480 On ch=1 n=82 v=88
156740 Off ch=1 n=82 v=64
156786 Par ch=1 c=11 v=112
156906 Par ch=1 c=11 v=113
156960 On ch=1 n=85 v=88
156996 Par ch=1 c=11 v=114
157086 Par ch=1 c=11 v=115
157176 Par ch=1 c=11 v=116
157220 Off ch=1 n=85 v=64
157236 Par ch=1 c=11 v=117
157296 Par ch=1 c=11 v=118
157356 Par ch=1 c=11 v=119
157416 Par ch=1 c=11 v=120
157440 On ch=1 n=85 v=88
157440 Par ch=1 c=11 v=116
157920 On ch=1 n=87 v=88
157940 Off ch=1 n=85 v=64
157980 Par ch=1 c=11 v=116
158160 Par ch=1 c=11 v=115
158180 Off ch=1 n=87 v=64
158340 Par ch=1 c=11 v=114
158400 On ch=1 n=82 v=88
158460 Par ch=1 c=11 v=113
158580 Par ch=1 c=11 v=112
158660 Off ch=1 n=82 v=64
158700 Par ch=1 c=11 v=111
158820 Par ch=1 c=11 v=110
158860 Par ch=1 c=11 v=109
158880 On ch=1 n=80 v=88
158940 Par ch=1 c=11 v=109
159140 Off ch=1 n=80 v=64
159180 Par ch=1 c=11 v=110
159260 Par ch=1 c=11 v=111
159340 Par ch=1 c=11 v=114
159360 On ch=1 n=82 v=88
159520 Par ch=1 c=11 v=113
159580 Par ch=1 c=11 v=112
159640 Par ch=1 c=11 v=111
159700 Par ch=1 c=11 v=110
159760 Par ch=1 c=11 v=108
159820 Par ch=1 c=11 v=106
159880 Par ch=1 c=11 v=104
159940 Par ch=1 c=11 v=101
160000 Par ch=1 c=11 v=98
160060 Par ch=1 c=11 v=95
160120 Par ch=1 c=11 v=92
160140 Off ch=1 n=82 v=64
160180 Par ch=1 c=11 v=88
160280 Par ch=1 c=11 v=112
160320 On ch=1 n=80 v=88
160580 Par ch=1 c=11 v=111
160640 Par ch=1 c=11 v=110
160700 Par ch=1 c=11 v=109
160740 Par ch=1 c=11 v=110
160800 On ch=1 n=82 v=88
160860 Off ch=1 n=80 v=64
160860 Par ch=1 c=11 v=111
160980 Par ch=1 c=11 v=112
161060 Off ch=1 n=82 v=64
161100 Par ch=1 c=11 v=113
161140 Par ch=1 c=11 v=114
161260 Par ch=1 c=11 v=117
161280 On ch=1 n=85 v=88
161760 On ch=1 n=87 v=88
161800 Off ch=1 n=85 v=64
161980 Par ch=1 c=11 v=116
162020 Off ch=1 n=87 v=64
162220 Par ch=1 c=11 v=115
162240 On ch=1 n=82 v=88
162460 Par ch=1 c=11 v=114
162500 Off ch=1 n=82 v=64
162640 Par ch=1 c=11 v=113
162720 On ch=1 n=80 v=88
162760 Par ch=1 c=11 v=112
162880 Par ch=1 c=11 v=111
162980 Off ch=1 n=80 v=64
162980 Par ch=1 c=11 v=109
163200 On ch=1 n=82 v=88
163220 Par ch=1 c=11 v=102
163280 Par ch=1 c=11 v=101
163340 Par ch=1 c=11 v=100
163360 Par ch=1 c=11 v=99
163460 Par ch=1 c=11 v=99
163580 Par ch=1 c=11 v=100
163700 Par ch=1 c=11 v=101
163760 Par ch=1 c=11 v=102
163880 Par ch=1 c=11 v=103
163940 Par ch=1 c=11 v=104
164000 Par ch=1 c=11 v=105
164060 Par ch=1 c=11 v=106
164120 Par ch=1 c=11 v=107
164140 Par ch=1 c=11 v=108
164160 On ch=1 n=80 v=88
164220 Off ch=1 n=82 v=64
164420 Off ch=1 n=80 v=64
164640 On ch=1 n=82 v=88
164900 Off ch=1 n=82 v=64
165080 Par ch=1 c=11 v=110
165120 On ch=1 n=80 v=88
165600 On ch=1 n=78 v=88
165620 Off ch=1 n=80 v=64
165740 Par ch=1 c=11 v=109
165880 Off ch=1 n=78 v=64
165980 Par ch=1 c=11 v=108
166080 On ch=1 n=77 v=88
166220 Par ch=1 c=11 v=107
166320 Off ch=1 n=77 v=64
166340 Par ch=1 c=11 v=106
166520 Par ch=1 c=11 v=105
166560 On ch=1 n=73 v=88
166620 Par ch=1 c=11 v=104
166740 Par ch=1 c=11 v=106
166900 Off ch=1 n=73 v=64
166920 Par ch=1 c=11 v=107
166980 Par ch=1 c=11 v=109
167000 Par ch=1 c=11 v=110
167040 On ch=1 n=75 v=88
167060 Par ch=1 c=11 v=109
167240 Par ch=1 c=11 v=108
167300 Par ch=1 c=11 v=107
167360 Par ch=1 c=11 v=106
167420 Par ch=1 c=11 v=104
167480 Par ch=1 c=11 v=102
167540 Par ch=1 c=11 v=100
167592 Par ch=1 c=11 v=97
167622 Par ch=1 c=11 v=98
167682 Par ch=1 c=11 v=99
167742 Par ch=1 c=11 v=100
167862 Par ch=1 c=11 v=101
167896 Off ch=1 n=75 v=64
167952 Par ch=1 c=11 v=103
168000 On ch=1 n=73 v=88
168282 Par ch=1 c=11 v=104
168402 Par ch=1 c=11 v=105
168480 On ch=1 n=75 v=88
168500 Off ch=1 n=73 v=64
168522 Par ch=1 c=11 v=106
168612 Par ch=1 c=11 v=107
168672 Par ch=1 c=11 v=108
168732 Par ch=1 c=11 v=109
168740 Off ch=1 n=75 v=64
168792 Par ch=1 c=11 v=110
168940 Par ch=1 c=11 v=108
168960 On ch=1 n=77 v=88
169180 Par ch=1 c=11 v=106
169440 On ch=1 n=78 v=88
169500 Off ch=1 n=77 v=64
169700 Off ch=1 n=78 v=64
169920 On ch=1 n=80 v=88
170020 Par ch=1 c=11 v=105
170140 Off ch=1 n=80 v=64
170320 Par ch=1 c=11 v=104
170400 On ch=1 n=82 v=88
170560 Par ch=1 c=11 v=103
170620 Off ch=1 n=82 v=64
170800 Par ch=1 c=11 v=102
170880 On ch=1 n=75 v=88
170940 Par ch=1 c=11 v=101
171020 Par ch=1 c=11 v=100
171200 Par ch=1 c=11 v=99
171260 Par ch=1 c=11 v=98
171320 Par ch=1 c=11 v=96
171380 Par ch=1 c=11 v=94
171440 Par ch=1 c=11 v=91
171500 Par ch=1 c=11 v=89
171560 Par ch=1 c=11 v=86
171600 Off ch=1 n=75 v=64
171620 Par ch=1 c=11 v=82
171680 Par ch=1 c=11 v=78
171720 Par ch=1 c=11 v=75
171840 On ch=1 n=82 v=88
171840 Par ch=1 c=11 v=104
172056 Par ch=1 c=11 v=105
172100 Off ch=1 n=82 v=64
172266 Par ch=1 c=11 v=106
172320 On ch=1 n=85 v=88
172356 Par ch=1 c=11 v=107
172416 Par ch=1 c=11 v=108
172476 Par ch=1 c=11 v=109
172506 Par ch=1 c=11 v=110
172566 Par ch=1 c=11 v=111
172580 Off ch=1 n=85 v=64
172596 Par ch=1 c=11 v=112
172626 Par ch=1 c=11 v=113
172686 Par ch=1 c=11 v=114
172716 Par ch=1 c=11 v=115
172746 Par ch=1 c=11 v=116
172752 Par ch=1 c=11 v=117
172800 On ch=1 n=85 v=88
172800 Par ch=1 c=11 v=116
173280 On ch=1 n=87 v=88
173300 Off ch=1 n=85 v=64
173340 Par ch=1 c=11 v=116
173520 Par ch=1 c=11 v=115
173540 Off ch=1 n=87 v=64
173700 Par ch=1 c=11 v=114
173760 On ch=1 n=82 v=88
173820 Par ch=1 c=11 v=113
173940 Par ch=1 c=11 v=112
174020 Off ch=1 n=82 v=64
174060 Par ch=1 c=11 v=111
174180 Par ch=1 c=11 v=110
174220 Par ch=1 c=11 v=109
174240 On ch=1 n=80 v=88
174300 Par ch=1 c=11 v=109
174500 Off ch=1 n=80 v=64
174540 Par ch=1 c=11 v=110
174620 Par ch=1 c=11 v=111
174700 Par ch=1 c=11 v=114
174720 On ch=1 n=82 v=88
174880 Par ch=1 c=11 v=113
174940 Par ch=1 c=11 v=112
175000 Par ch=1 c=11 v=111
175060 Par ch=1 c=11 v=110
175120 Par ch=1 c=11 v=108
175180 Par ch=1 c=11 v=106
175240 Par ch=1 c=11 v=104
175300 Par ch=1 c=11 v=101
175360 Par ch=1 c=11 v=98
175420 Par ch=1 c=11 v=95
175480 Par ch=1 c=11 v=92
175500 Off ch=1 n=82 v=64
175540 Par ch=1 c=11 v=88
175640 Par ch=1 c=11 v=112
175680 On ch=1 n=80 v=88
175940 Par ch=1 c=11 v=111
176000 Par ch=1 c=11 v=110
176060 Par ch=1 c=11 v=109
176100 Par ch=1 c=11 v=110
176160 On ch=1 n=82 v=88
176220 Off ch=1 n=80 v=64
176220 Par ch=1 c=11 v=111
176340 Par ch=1 c=11 v=112
176420 Off ch=1 n=82 v=64
176460 Par ch=1 c=11 v=113
176500 Par ch=1 c=11 v=114
176620 Par ch=1 c=11 v=117
176640 On ch=1 n=85 v=88
176928 Par ch=1 c=11 v=118
177120 On ch=1 n=87 v=88
177160 Off ch=1 n=85 v=64
177380 Off ch=1 n=87 v=64
177600 On ch=1 n=82 v=88
177798 Par ch=1 c=11 v=119
177860 Off ch=1 n=82 v=64
178080 On ch=1 n=80 v=88
178158 Par ch=1 c=11 v=120
178340 Off ch=1 n=80 v=64
178428 Par ch=1 c=11 v=121
178560 On ch=1 n=82 v=88
178668 Par ch=1 c=11 v=122
178848 Par ch=1 c=11 v=123
179058 Par ch=1 c=11 v=124
179208 Par ch=1 c=11 v=125
179358 Par ch=1 c=11 v=126
179508 Par ch=1 c=11 v=127
179520 On ch=1 n=87 v=88
179580 Off ch=1 n=82 v=64
179658 Par ch=1 c=11 v=127
179778 Par ch=1 c=11 v=127
179780 Off ch=1 n=87 v=64
179928 Par ch=1 c=11 v=127
180000 On ch=1 n=89 v=88
180048 Par ch=1 c=11 v=127
180168 Par ch=1 c=11 v=127
180258 Par ch=1 c=11 v=127
180260 Off ch=1 n=89 v=64
180360 Par ch=1 c=11 v=127
180390 Par ch=1 c=11 v=127
180456 Par ch=1 c=11 v=127
180480 On ch=1 n=90 v=88
180480 Par ch=1 c=11 v=127
180960 On ch=1 n=89 v=88
180980 Off ch=1 n=90 v=64
180990 Par ch=1 c=11 v=127
181230 Par ch=1 c=11 v=127
181240 Off ch=1 n=89 v=64
181380 Par ch=1 c=11 v=127
181440 On ch=1 n=87 v=88
181500 Par ch=1 c=11 v=127
181650 Par ch=1 c=11 v=127
181680 Off ch=1 n=87 v=64
181740 Par ch=1 c=11 v=127
181830 Par ch=1 c=11 v=127
181920 On ch=1 n=85 v=88
181950 Par ch=1 c=11 v=126
182010 Par ch=1 c=11 v=125
182100 Par ch=1 c=11 v=124
182190 Par ch=1 c=11 v=123
182250 Par ch=1 c=11 v=122
182260 Off ch=1 n=85 v=64
182340 Par ch=1 c=11 v=121
182400 On ch=1 n=82 v=88
182400 Par ch=1 c=11 v=120
182460 Par ch=1 c=11 v=119
182520 Par ch=1 c=11 v=118
183192 Par ch=1 c=11 v=119
183328 Off ch=1 n=82 v=64
183360 On ch=1 n=80 v=88
183840 On ch=1 n=82 v=88
183860 Off ch=1 n=80 v=64
184002 Par ch=1 c=11 v=120
184100 Off ch=1 n=82 v=64
184320 On ch=1 n=80 v=88
184320 Par ch=1 c=11 v=122
184800 On ch=1 n=78 v=88
184860 Off ch=1 n=80 v=64
184890 Par ch=1 c=11 v=121
185060 Off ch=1 n=78 v=64
185130 Par ch=1 c=11 v=120
185280 On ch=1 n=77 v=88
185310 Par ch=1 c=11 v=119
185460 Par ch=1 c=11 v=118
185500 Off ch=1 n=77 v=64
185580 Par ch=1 c=11 v=117
185700 Par ch=1 c=11 v=116
185760 On ch=1 n=73 v=88
185820 Par ch=1 c=11 v=115
185910 Par ch=1 c=11 v=114
185980 Off ch=1 n=73 v=64
186000 Par ch=1 c=11 v=113
186090 Par ch=1 c=11 v=112
186180 Par ch=1 c=11 v=111
186240 On ch=1 n=75 v=88
186270 Par ch=1 c=11 v=110
186360 Par ch=1 c=11 v=109
186408 Par ch=1 c=11 v=108
186576 Par ch=1 c=11 v=107
186726 Par ch=1 c=11 v=106
186786 Par ch=1 c=11 v=105
186816 Par ch=1 c=11 v=104
186846 Par ch=1 c=11 v=103
186876 Par ch=1 c=11 v=102
186906 Par ch=1 c=11 v=101
186936 Par ch=1 c=11 v=100
186966 Par ch=1 c=11 v=99
186996 Par ch=1 c=11 v=97
187026 Par ch=1 c=11 v=96
187048 Off ch=1 n=75 v=64
187056 Par ch=1 c=11 v=94
187086 Par ch=1 c=11 v=92
187116 Par ch=1 c=11 v=90
187146 Par ch=1 c=11 v=88
187176 Par ch=1 c=11 v=86
187200 Par ch=1 c=11 v=84
280320 Par ch=1 c=7 v=100
307200 On ch=1 n=89 v=119
307200 Par ch=1 c=11 v=127
307440 Off ch=1 n=89 v=64
308160 On ch=1 n=90 v=119
308400 Off ch=1 n=90 v=64
309120 On ch=1 n=92 v=119
309360 Off ch=1 n=92 v=64
310080 On ch=1 n=94 v=119
310320 Off ch=1 n=94 v=64
311040 On ch=1 n=85 v=88
311520 On ch=1 n=87 v=88
311540 Off ch=1 n=85 v=64
311580 Par ch=1 c=11 v=126
311760 Par ch=1 c=11 v=125
311780 Off ch=1 n=87 v=64
311940 Par ch=1 c=11 v=124
312000 On ch=1 n=82 v=88
312060 Par ch=1 c=11 v=123
312180 Par ch=1 c=11 v=122
312260 Off ch=1 n=82 v=64
312300 Par ch=1 c=11 v=121
312420 Par ch=1 c=11 v=120
312460 Par ch=1 c=11 v=119
312480 On ch=1 n=80 v=88
312540 Par ch=1 c=11 v=119
312740 Off ch=1 n=80 v=64
312780 Par ch=1 c=11 v=120
312860 Par ch=1 c=11 v=121
312940 Par ch=1 c=11 v=124
312960 On ch=1 n=82 v=88
313120 Par ch=1 c=11 v=123
313180 Par ch=1 c=11 v=122
313240 Par ch=1 c=11 v=121
313300 Par ch=1 c=11 v=120
313360 Par ch=1 c=11 v=118
313420 Par ch=1 c=11 v=116
313480 Par ch=1 c=11 v=114
313540 Par ch=1 c=11 v=111
313600 Par ch=1 c=11 v=108
313660 Par ch=1 c=11 v=105
313720 Par ch=1 c=11 v=102
313740 Off ch=1 n=82 v=64
313780 Par ch=1 c=11 v=98
313880 Par ch=1 c=11 v=122
313920 On ch=1 n=80 v=88
314180 Par ch=1 c=11 v=121
314240 Par ch=1 c=11 v=120
314300 Par ch=1 c=11 v=119
314340 Par ch=1 c=11 v=120
314400 On ch=1 n=82 v=88
314460 Off ch=1 n=80 v=64
314460 Par ch=1 c=11 v=121
314580 Par ch=1 c=11 v=122
314660 Off ch=1 n=82 v=64
314700 Par ch=1 c=11 v=123
314740 Par ch=1 c=11 v=124
314860 Par ch=1 c=11 v=127
314880 On ch=1 n=85 v=88
315360 On ch=1 n=87 v=88
315400 Off ch=1 n=85 v=64
315580 Par ch=1 c=11 v=126
315620 Off ch=1 n=87 v=64
315820 Par ch=1 c=11 v=125
315840 On ch=1 n=82 v=88
316060 Par ch=1 c=11 v=124
316100 Off ch=1 n=82 v=64
316240 Par ch=1 c=11 v=123
316320 On ch=1 n=80 v=88
316360 Par ch=1 c=11 v=122
316480 Par ch=1 c=11 v=121
316580 Off ch=1 n=80 v=64
316580 Par ch=1 c=11 v=119
316800 On ch=1 n=82 v=88
316820 Par ch=1 c=11 v=112
316880 Par ch=1 c=11 v=111
316940 Par ch=1 c=11 v=110
316960 Par ch=1 c=11 v=109
317060 Par ch=1 c=11 v=109
317180 Par ch=1 c=11 v=110
317300 Par ch=1 c=11 v=111
317360 Par ch=1 c=11 v=112
317480 Par ch=1 c=11 v=113
317540 Par ch=1 c=11 v=114
317600 Par ch=1 c=11 v=115
317660 Par ch=1 c=11 v=116
317720 Par ch=1 c=11 v=117
317740 Par ch=1 c=11 v=118
317760 On ch=1 n=80 v=88
317820 Off ch=1 n=82 v=64
318020 Off ch=1 n=80 v=64
318240 On ch=1 n=82 v=88
318500 Off ch=1 n=82 v=64
318680 Par ch=1 c=11 v=120
318720 On ch=1 n=80 v=88
319200 On ch=1 n=78 v=88
319220 Off ch=1 n=80 v=64
319340 Par ch=1 c=11 v=119
319480 Off ch=1 n=78 v=64
319580 Par ch=1 c=11 v=118
319680 On ch=1 n=77 v=88
319820 Par ch=1 c=11 v=117
319920 Off ch=1 n=77 v=64
319940 Par ch=1 c=11 v=116
320120 Par ch=1 c=11 v=115
320160 On ch=1 n=73 v=88
320220 Par ch=1 c=11 v=114
320340 Par ch=1 c=11 v=116
320500 Off ch=1 n=73 v=64
320520 Par ch=1 c=11 v=117
320580 Par ch=1 c=11 v=119
320600 Par ch=1 c=11 v=120
320640 On ch=1 n=75 v=88
320660 Par ch=1 c=11 v=119
320840 Par ch=1 c=11 v=118
320900 Par ch=1 c=11 v=117
320960 Par ch=1 c=11 v=116
321020 Par ch=1 c=11 v=114
321080 Par ch=1 c=11 v=112
321120 Par ch=1 c=11 v=112
321150 Par ch=1 c=11 v=111
321210 Par ch=1 c=11 v=110
321330 Par ch=1 c=11 v=109
321496 Off ch=1 n=75 v=64
321576 Par ch=1 c=11 v=110
321600 On ch=1 n=73 v=88
321906 Par ch=1 c=11 v=111
322026 Par ch=1 c=11 v=112
322080 On ch=1 n=75 v=88
322100 Off ch=1 n=73 v=64
322146 Par ch=1 c=11 v=113
322236 Par ch=1 c=11 v=114
322296 Par ch=1 c=11 v=115
322340 Off ch=1 n=75 v=64
322356 Par ch=1 c=11 v=116
322416 Par ch=1 c=11 v=117
322540 Par ch=1 c=11 v=118
322560 On ch=1 n=77 v=88
322780 Par ch=1 c=11 v=116
323040 On ch=1 n=78 v=88
323100 Off ch=1 n=77 v=64
323300 Off ch=1 n=78 v=64
323520 On ch=1 n=80 v=88
323620 Par ch=1 c=11 v=115
323740 Off ch=1 n=80 v=64
323920 Par ch=1 c=11 v=114
324000 On ch=1 n=82 v=88
324160 Par ch=1 c=11 v=113
324220 Off ch=1 n=82 v=64
324400 Par ch=1 c=11 v=112
324480 On ch=1 n=75 v=88
324540 Par ch=1 c=11 v=111
324620 Par ch=1 c=11 v=110
324800 Par ch=1 c=11 v=109
324860 Par ch=1 c=11 v=108
324920 Par ch=1 c=11 v=106
324980 Par ch=1 c=11 v=104
325040 Par ch=1 c=11 v=101
325100 Par ch=1 c=11 v=99
325160 Par ch=1 c=11 v=96
325200 Off ch=1 n=75 v=64
325220 Par ch=1 c=11 v=92
325280 Par ch=1 c=11 v=88
325320 Par ch=1 c=11 v=85
325392 Par ch=1 c=11 v=123
325440 On ch=1 n=82 v=88
325700 Off ch=1 n=82 v=64
325752 Par ch=1 c=11 v=124
325872 Par ch=1 c=11 v=125
325920 On ch=1 n=85 v=88
325992 Par ch=1 c=11 v=126
326082 Par ch=1 c=11 v=127
326142 Par ch=1 c=11 v=127
326180 Off ch=1 n=85 v=64
326232 Par ch=1 c=11 v=127
326292 Par ch=1 c=11 v=127
326328 Par ch=1 c=11 v=127
326400 On ch=1 n=85 v=88
326400 Par ch=1 c=11 v=127
326880 On ch=1 n=87 v=88
326900 Off ch=1 n=85 v=64
326940 Par ch=1 c=11 v=127
327120 Par ch=1 c=11 v=126
327140 Off ch=1 n=87 v=64
327300 Par ch=1 c=11 v=125
327360 On ch=1 n=82 v=88
327420 Par ch=1 c=11 v=124
327540 Par ch=1 c=11 v=123
327620 Off ch=1 n=82 v=64
327660 Par ch=1 c=11 v=122
327780 Par ch=1 c=11 v=121
327820 Par ch=1 c=11 v=120
327840 On ch=1 n=80 v=88
327900 Par ch=1 c=11 v=120
328100 Off ch=1 n=80 v=64
328140 Par ch=1 c=11 v=121
328220 Par ch=1 c=11 v=122
328300 Par ch=1 c=11 v=125
328320 On ch=1 n=82 v=88
328480 Par ch=1 c=11 v=124
328540 Par ch=1 c=11 v=123
328600 Par ch=1 c=11 v=122
328660 Par ch=1 c=11 v=121
328720 Par ch=1 c=11 v=119
328780 Par ch=1 c=11 v=117
328840 Par ch=1 c=11 v=115
328900 Par ch=1 c=11 v=112
328960 Par ch=1 c=11 v=109
329020 Par ch=1 c=11 v=106
329080 Par ch=1 c=11 v=103
329100 Off ch=1 n=82 v=64
329140 Par ch=1 c=11 v=99
329240 Par ch=1 c=11 v=123
329280 On ch=1 n=80 v=88
329540 Par ch=1 c=11 v=122
329600 Par ch=1 c=11 v=121
329660 Par ch=1 c=11 v=120
329700 Par ch=1 c=11 v=121
329760 On ch=1 n=82 v=88
329820 Off ch=1 n=80 v=64
329820 Par ch=1 c=11 v=122
329940 Par ch=1 c=11 v=123
330020 Off ch=1 n=82 v=64
330060 Par ch=1 c=11 v=124
330100 Par ch=1 c=11 v=125
330220 Par ch=1 c=11 v=127
330240 On ch=1 n=85 v=88
330720 On ch=1 n=87 v=88
330760 Off ch=1 n=85 v=64
330940 Par ch=1 c=11 v=127
330980 Off ch=1 n=87 v=64
331180 Par ch=1 c=11 v=126
331200 On ch=1 n=82 v=88
331420 Par ch=1 c=11 v=125
331460 Off ch=1 n=82 v=64
331600 Par ch=1 c=11 v=124
331680 On ch=1 n=80 v=88
331720 Par ch=1 c=11 v=123
331840 Par ch=1 c=11 v=122
331940 Off ch=1 n=80 v=64
331940 Par ch=1 c=11 v=120
332160 On ch=1 n=82 v=88
332180 Par ch=1 c=11 v=113
332240 Par ch=1 c=11 v=112
332300 Par ch=1 c=11 v=111
332320 Par ch=1 c=11 v=110
332420 Par ch=1 c=11 v=110
332540 Par ch=1 c=11 v=111
332660 Par ch=1 c=11 v=112
332720 Par ch=1 c=11 v=113
332840 Par ch=1 c=11 v=114
332900 Par ch=1 c=11 v=115
332960 Par ch=1 c=11 v=116
333020 Par ch=1 c=11 v=117
333080 Par ch=1 c=11 v=118
333100 Par ch=1 c=11 v=119
333120 On ch=1 n=80 v=88
333180 Off ch=1 n=82 v=64
333380 Off ch=1 n=80 v=64
333600 On ch=1 n=82 v=88
333860 Off ch=1 n=82 v=64
334040 Par ch=1 c=11 v=121
334080 On ch=1 n=80 v=88
334560 On ch=1 n=78 v=88
334580 Off ch=1 n=80 v=64
334700 Par ch=1 c=11 v=120
334840 Off ch=1 n=78 v=64
334940 Par ch=1 c=11 v=119
335040 On ch=1 n=77 v=88
335180 Par ch=1 c=11 v=118
335280 Off ch=1 n=77 v=64
335300 Par ch=1 c=11 v=117
335480 Par ch=1 c=11 v=116
335520 On ch=1 n=73 v=88
335580 Par ch=1 c=11 v=115
335700 Par ch=1 c=11 v=117
335860 Off ch=1 n=73 v=64
335880 Par ch=1 c=11 v=118
335940 Par ch=1 c=11 v=120
335960 Par ch=1 c=11 v=121
336000 On ch=1 n=75 v=88
336020 Par ch=1 c=11 v=120
336200 Par ch=1 c=11 v=119
336260 Par ch=1 c=11 v=118
336320 Par ch=1 c=11 v=117
336380 Par ch=1 c=11 v=115
336440 Par ch=1 c=11 v=113
336480 Par ch=1 c=11 v=113
336510 Par ch=1 c=11 v=112
336570 Par ch=1 c=11 v=111
336690 Par ch=1 c=11 v=110
336856 Off ch=1 n=75 v=64
336936 Par ch=1 c=11 v=111
336960 On ch=1 n=73 v=88
337266 Par ch=1 c=11 v=112
337386 Par ch=1 c=11 v=113
337440 On ch=1 n=75 v=88
337460 Off ch=1 n=73 v=64
337506 Par ch=1 c=11 v=114
337596 Par ch=1 c=11 v=115
337656 Par ch=1 c=11 v=116
337700 Off ch=1 n=75 v=64
337716 Par ch=1 c=11 v=117
337776 Par ch=1 c=11 v=118
337900 Par ch=1 c=11 v=119
337920 On ch=1 n=77 v=88
337920 Par ch=1 c=11 v=121
338140 Par ch=1 c=11 v=120
338400 On ch=1 n=78 v=88
338460 Off ch=1 n=77 v=64
338660 Off ch=1 n=78 v=64
338880 On ch=1 n=80 v=88
338980 Par ch=1 c=11 v=119
339100 Off ch=1 n=80 v=64
339280 Par ch=1 c=11 v=118
339360 On ch=1 n=82 v=88
339520 Par ch=1 c=11 v=117
339580 Off ch=1 n=82 v=64
339760 Par ch=1 c=11 v=116
339840 On ch=1 n=75 v=88
339900 Par ch=1 c=11 v=115
339980 Par ch=1 c=11 v=114
340160 Par ch=1 c=11 v=113
340220 Par ch=1 c=11 v=112
340280 Par ch=1 c=11 v=110
340340 Par ch=1 c=11 v=108
340400 Par ch=1 c=11 v=105
340460 Par ch=1 c=11 v=103
340520 Par ch=1 c=11 v=100
340560 Off ch=1 n=75 v=64
340580 Par ch=1 c=11 v=96
340640 Par ch=1 c=11 v=92
340680 Par ch=1 c=11 v=89
340776 Par ch=1 c=11 v=120
341106 Par ch=1 c=11 v=121
341226 Par ch=1 c=11 v=122
341316 Par ch=1 c=11 v=123
341406 Par ch=1 c=11 v=124
341496 Par ch=1 c=11 v=125
341556 Par ch=1 c=11 v=126
341616 Par ch=1 c=11 v=127
341676 Par ch=1 c=11 v=127
341736 Par ch=1 c=11 v=127
342720 On ch=1 n=82 v=88
342980 Off ch=1 n=82 v=64
343200 On ch=1 n=85 v=88
343460 Off ch=1 n=85 v=64
343680 On ch=1 n=85 v=88
344160 On ch=1 n=87 v=88
344180 Off ch=1 n=85 v=64
344420 Off ch=1 n=87 v=64
344640 On ch=1 n=82 v=88
344900 Off ch=1 n=82 v=64
345120 On ch=1 n=80 v=88
345380 Off ch=1 n=80 v=64
345600 On ch=1 n=82 v=88
346380 Off ch=1 n=82 v=64
346560 On ch=1 n=80 v=88
347040 On ch=1 n=82 v=88
347100 Off ch=1 n=80 v=64
347300 Off ch=1 n=82 v=64
347520 On ch=1 n=85 v=88
348000 On ch=1 n=87 v=88
348040 Off ch=1 n=85 v=64
348260 Off ch=1 n=87 v=64
348480 On ch=1 n=82 v=88
348740 Off ch=1 n=82 v=64
348960 On ch=1 n=80 v=88
349220 Off ch=1 n=80 v=64
349440 On ch=1 n=82 v=88
350400 On ch=1 n=80 v=88
350460 Off ch=1 n=82 v=64
350660 Off ch=1 n=80 v=64
350880 On ch=1 n=82 v=88
351140 Off ch=1 n=82 v=64
351360 On ch=1 n=80 v=88
351840 On ch=1 n=78 v=88
351860 Off ch=1 n=80 v=64
352120 Off ch=1 n=78 v=64
352320 On ch=1 n=77 v=88
352560 Off ch=1 n=77 v=64
352800 On ch=1 n=73 v=88
353140 Off ch=1 n=73 v=64
353280 On ch=1 n=75 v=88
354136 Off ch=1 n=75 v=64
354240 On ch=1 n=73 v=88
354720 On ch=1 n=75 v=88
354740 Off ch=1 n=73 v=64
354980 Off ch=1 n=75 v=64
355200 On ch=1 n=77 v=88
355680 On ch=1 n=78 v=88
355740 Off ch=1 n=77 v=64
355940 Off ch=1 n=78 v=64
356160 On ch=1 n=80 v=88
356380 Off ch=1 n=80 v=64
356640 On ch=1 n=82 v=88
356860 Off ch=1 n=82 v=64
357120 On ch=1 n=78 v=88
357840 Off ch=1 n=78 v=64
358080 On ch=1 n=82 v=88
358340 Off ch=1 n=82 v=64
358560 On ch=1 n=85 v=88
358820 Off ch=1 n=85 v=64
359040 On ch=1 n=85 v=88
359520 On ch=1 n=87 v=88
359540 Off ch=1 n=85 v=64
359780 Off ch=1 n=87 v=64
360000 On ch=1 n=82 v=88
360260 Off ch=1 n=82 v=64
360480 On ch=1 n=80 v=88
360740 Off ch=1 n=80 v=64
360960 On ch=1 n=82 v=88
361740 Off ch=1 n=82 v=64
361920 On ch=1 n=80 v=88
362400 On ch=1 n=82 v=88
362460 Off ch=1 n=80 v=64
362660 Off ch=1 n=82 v=64
362880 On ch=1 n=85 v=88
363360 On ch=1 n=87 v=88
363400 Off ch=1 n=85 v=64
363620 Off ch=1 n=87 v=64
363840 On ch=1 n=87 v=88
364100 Off ch=1 n=87 v=64
364320 On ch=1 n=89 v=88
364580 Off ch=1 n=89 v=64
364800 On ch=1 n=90 v=88
365280 On ch=1 n=89 v=88
365300 Off ch=1 n=90 v=64
365560 Off ch=1 n=89 v=64
365760 On ch=1 n=87 v=88
366000 Off ch=1 n=87 v=64
366240 On ch=1 n=85 v=88
366580 Off ch=1 n=85 v=64
366720 On ch=1 n=82 v=88
367648 Off ch=1 n=82 v=64
367680 On ch=1 n=80 v=88
368160 On ch=1 n=82 v=88
368180 Off ch=1 n=80 v=64
368420 Off ch=1 n=82 v=64
368640 On ch=1 n=80 v=88
369120 On ch=1 n=78 v=88
369180 Off ch=1 n=80 v=64
369380 Off ch=1 n=78 v=64
369600 On ch=1 n=77 v=88
369820 Off ch=1 n=77 v=64
370080 On ch=1 n=73 v=88
370300 Off ch=1 n=73 v=64
370560 On ch=1 n=75 v=88
370960 Off ch=1 n=75 v=64
449312 Par ch=1 c=11 v=127
456000 On ch=1 n=88 v=88
456260 Off ch=1 n=88 v=64
456480 On ch=1 n=90 v=88
456740 Off ch=1 n=90 v=64
456960 On ch=1 n=91 v=88
457440 On ch=1 n=90 v=88
457460 Off ch=1 n=91 v=64
457720 Off ch=1 n=90 v=64
457920 On ch=1 n=88 v=88
458160 Off ch=1 n=88 v=64
458400 On ch=1 n=86 v=88
458620 Off ch=1 n=86 v=64
458880 On ch=1 n=83 v=88
459808 Off ch=1 n=83 v=64
459840 On ch=1 n=81 v=88
460320 On ch=1 n=83 v=88
460340 Off ch=1 n=81 v=64
460580 Off ch=1 n=83 v=64
460800 On ch=1 n=81 v=88
461280 On ch=1 n=79 v=88
461340 Off ch=1 n=81 v=64
461540 Off ch=1 n=79 v=64
461760 On ch=1 n=78 v=88
461980 Off ch=1 n=78 v=64
462240 On ch=1 n=74 v=88
462460 Off ch=1 n=74 v=64
462720 On ch=1 n=76 v=88
462936 Off ch=1 n=76 v=64
462936 Meta TrkEnd
TrkEnd
MTrk
0 SeqSpec 43 00 01 ff
0 Meta TrkName "Flute"
1920 PrCh ch=2 p=1
1930 Par ch=2 c=7 v=90
1940 Par ch=2 c=10 v=64
1950 Par ch=2 c=11 v=127
1960 Par ch=2 c=20 v=127
1970 Par ch=2 c=91 v=0
1980 Par ch=2 c=93 v=0
1990 Par ch=2 c=94 v=0
2000 Par ch=2 c=101 v=0
2010 Par ch=2 c=100 v=0
2020 Par ch=2 c=6 v=2
2030 Par ch=2 c=101 v=127
2040 Par ch=2 c=100 v=127
92160 Par ch=2 c=11 v=99
92160 On ch=2 n=65 v=88
92160 On ch=2 n=77 v=88
92400 Off ch=2 n=77 v=64
92400 Off ch=2 n=65 v=64
93120 On ch=2 n=66 v=88
93120 On ch=2 n=78 v=88
93180 Par ch=2 c=11 v=100
93360 Off ch=2 n=78 v=64
93360 Off ch=2 n=66 v=64
93600 Par ch=2 c=11 v=101
93930 Par ch=2 c=11 v=102
94080 On ch=2 n=68 v=88
94080 On ch=2 n=80 v=88
94200 Par ch=2 c=11 v=103
94320 Off ch=2 n=80 v=64
94320 Off ch=2 n=68 v=64
94440 Par ch=2 c=11 v=104
94650 Par ch=2 c=11 v=105
94860 Par ch=2 c=11 v=106
95040 Par ch=2 c=11 v=107
95040 On ch=2 n=70 v=88
95040 On ch=2 n=82 v=88
95190 Par ch=2 c=11 v=108
95280 Off ch=2 n=82 v=64
95280 Off ch=2 n=70 v=64
95370 Par ch=2 c=11 v=109
95520 Par ch=2 c=11 v=110
95670 Par ch=2 c=11 v=111
95820 Par ch=2 c=11 v=112
95936 Par ch=2 c=11 v=113
96000 Par ch=2 c=11 v=53
96000 On ch=2 n=75 v=100
96000 On ch=2 n=87 v=100
97410 Par ch=2 c=11 v=54
97980 Par ch=2 c=11 v=55
98430 Par ch=2 c=11 v=56
98790 Par ch=2 c=11 v=57
99120 Par ch=2 c=11 v=58
99420 Par ch=2 c=11 v=59
99690 Par ch=2 c=11 v=60
99930 Par ch=2 c=11 v=61
100170 Par ch=2 c=11 v=62
100410 Par ch=2 c=11 v=63
100620 Par ch=2 c=11 v=64
100830 Par ch=2 c=11 v=65
101010 Par ch=2 c=11 v=66
101220 Par ch=2 c=11 v=67
101376 Par ch=2 c=11 v=68
101760 Par ch=2 c=11 v=68
102270 Par ch=2 c=11 v=67
102480 Par ch=2 c=11 v=66
102630 Par ch=2 c=11 v=65
102780 Par ch=2 c=11 v=64
102870 Par ch=2 c=11 v=63
102990 Par ch=2 c=11 v=62
103080 Par ch=2 c=11 v=61
103170 Par ch=2 c=11 v=60
103260 Par ch=2 c=11 v=59
103350 Par ch=2 c=11 v=58
103410 Par ch=2 c=11 v=57
103500 Par ch=2 c=11 v=56
103560 Par ch=2 c=11 v=55
103616 Par ch=2 c=11 v=54
103680 Off ch=2 n=87 v=100
103680 Off ch=2 n=75 v=100
103680 Par ch=2 c=11 v=57
103680 On ch=2 n=75 v=100
103680 On ch=2 n=87 v=100
104880 Par ch=2 c=11 v=58
105360 Par ch=2 c=11 v=59
105750 Par ch=2 c=11 v=60
106080 Par ch=2 c=11 v=61
106336 Par ch=2 c=11 v=62
107520 Off ch=2 n=87 v=100
107520 Off ch=2 n=75 v=100
107520 Par ch=2 c=11 v=54
107520 On ch=2 n=77 v=100
107520 On ch=2 n=89 v=100
108000 Par ch=2 c=11 v=55
108210 Par ch=2 c=11 v=56
108360 Par ch=2 c=11 v=57
108480 Par ch=2 c=11 v=58
108600 Par ch=2 c=11 v=59
108720 Par ch=2 c=11 v=60
108810 Par ch=2 c=11 v=61
108900 Par ch=2 c=11 v=62
108960 Par ch=2 c=11 v=63
109050 Par ch=2 c=11 v=64
109110 Par ch=2 c=11 v=65
109200 Par ch=2 c=11 v=66
109248 Par ch=2 c=11 v=67
109440 Off ch=2 n=89 v=100
109440 Off ch=2 n=77 v=100
109440 On ch=2 n=74 v=100
109440 On ch=2 n=86 v=100
109664 Par ch=2 c=11 v=65
110024 Par ch=2 c=11 v=64
110174 Par ch=2 c=11 v=63
110294 Par ch=2 c=11 v=62
110384 Par ch=2 c=11 v=61
110474 Par ch=2 c=11 v=60
110534 Par ch=2 c=11 v=59
110594 Par ch=2 c=11 v=58
110654 Par ch=2 c=11 v=57
110714 Par ch=2 c=11 v=56
110774 Par ch=2 c=11 v=55
110834 Par ch=2 c=11 v=54
110894 Par ch=2 c=11 v=53
110924 Par ch=2 c=11 v=52
110984 Par ch=2 c=11 v=51
111044 Par ch=2 c=11 v=50
111074 Par ch=2 c=11 v=49
111104 Par ch=2 c=11 v=48
111360 Off ch=2 n=86 v=100
111360 Off ch=2 n=74 v=100
111360 On ch=2 n=75 v=100
111360 Par ch=2 c=11 v=53
111360 On ch=2 n=87 v=100
112770 Par ch=2 c=11 v=54
113340 Par ch=2 c=11 v=55
113790 Par ch=2 c=11 v=56
114150 Par ch=2 c=11 v=57
114480 Par ch=2 c=11 v=58
114780 Par ch=2 c=11 v=59
115050 Par ch=2 c=11 v=60
115290 Par ch=2 c=11 v=61
115530 Par ch=2 c=11 v=62
115770 Par ch=2 c=11 v=63
115980 Par ch=2 c=11 v=64
116190 Par ch=2 c=11 v=65
116370 Par ch=2 c=11 v=66
116580 Par ch=2 c=11 v=67
116736 Par ch=2 c=11 v=68
117120 Par ch=2 c=11 v=68
117630 Par ch=2 c=11 v=67
117840 Par ch=2 c=11 v=66
117990 Par ch=2 c=11 v=65
118140 Par ch=2 c=11 v=64
118230 Par ch=2 c=11 v=63
118350 Par ch=2 c=11 v=62
118440 Par ch=2 c=11 v=61
118530 Par ch=2 c=11 v=60
118620 Par ch=2 c=11 v=59
118710 Par ch=2 c=11 v=58
118770 Par ch=2 c=11 v=57
118860 Par ch=2 c=11 v=56
118920 Par ch=2 c=11 v=55
118976 Par ch=2 c=11 v=54
119040 Off ch=2 n=87 v=100
119040 Off ch=2 n=75 v=100
119040 On ch=2 n=75 v=100
119040 Par ch=2 c=11 v=57
119040 On ch=2 n=87 v=100
120240 Par ch=2 c=11 v=58
120720 Par ch=2 c=11 v=59
121110 Par ch=2 c=11 v=60
121440 Par ch=2 c=11 v=61
121696 Par ch=2 c=11 v=62
122880 Off ch=2 n=87 v=100
122880 Off ch=2 n=75 v=100
122880 On ch=2 n=77 v=100
122880 Par ch=2 c=11 v=54
122880 On ch=2 n=89 v=100
123360 Par ch=2 c=11 v=55
123570 Par ch=2 c=11 v=56
123720 Par ch=2 c=11 v=57
123840 Par ch=2 c=11 v=58
123960 Par ch=2 c=11 v=59
124080 Par ch=2 c=11 v=60
124170 Par ch=2 c=11 v=61
124260 Par ch=2 c=11 v=62
124320 Par ch=2 c=11 v=63
124410 Par ch=2 c=11 v=64
124470 Par ch=2 c=11 v=65
124560 Par ch=2 c=11 v=66
124608 Par ch=2 c=11 v=67
124800 Off ch=2 n=89 v=100
124800 Off ch=2 n=77 v=100
124800 On ch=2 n=74 v=100
124800 On ch=2 n=86 v=100
125024 Par ch=2 c=11 v=65
125384 Par ch=2 c=11 v=64
125534 Par ch=2 c=11 v=63
125654 Par ch=2 c=11 v=62
125744 Par ch=2 c=11 v=61
125834 Par ch=2 c=11 v=60
125894 Par ch=2 c=11 v=59
125954 Par ch=2 c=11 v=58
126014 Par ch=2 c=11 v=57
126074 Par ch=2 c=11 v=56
126134 Par ch=2 c=11 v=55
126194 Par ch=2 c=11 v=54
126254 Par ch=2 c=11 v=53
126284 Par ch=2 c=11 v=52
126344 Par ch=2 c=11 v=51
126404 Par ch=2 c=11 v=50
126434 Par ch=2 c=11 v=49
126464 Par ch=2 c=11 v=48
126720 Off ch=2 n=86 v=100
126720 Off ch=2 n=74 v=100
126720 On ch=2 n=85 v=88
126720 Par ch=2 c=11 v=87
126720 On ch=2 n=73 v=88
127200 On ch=2 n=87 v=88
127200 On ch=2 n=75 v=88
127220 Off ch=2 n=73 v=64
127220 Off ch=2 n=85 v=64
127260 Par ch=2 c=11 v=86
127440 Par ch=2 c=11 v=85
127460 Off ch=2 n=75 v=64
127460 Off ch=2 n=87 v=64
127620 Par ch=2 c=11 v=84
127680 On ch=2 n=82 v=88
127680 On ch=2 n=70 v=88
127740 Par ch=2 c=11 v=83
127860 Par ch=2 c=11 v=82
127940 Off ch=2 n=70 v=64
127940 Off ch=2 n=82 v=64
127980 Par ch=2 c=11 v=81
128100 Par ch=2 c=11 v=80
128140 Par ch=2 c=11 v=79
128160 On ch=2 n=80 v=88
128160 On ch=2 n=68 v=88
128220 Par ch=2 c=11 v=79
128420 Off ch=2 n=68 v=64
128420 Off ch=2 n=80 v=64
128460 Par ch=2 c=11 v=80
128540 Par ch=2 c=11 v=81
128620 Par ch=2 c=11 v=84
128640 On ch=2 n=82 v=88
128640 On ch=2 n=70 v=88
128800 Par ch=2 c=11 v=83
128860 Par ch=2 c=11 v=82
128920 Par ch=2 c=11 v=81
128980 Par ch=2 c=11 v=80
129040 Par ch=2 c=11 v=78
129100 Par ch=2 c=11 v=76
129160 Par ch=2 c=11 v=74
129220 Par ch=2 c=11 v=71
129280 Par ch=2 c=11 v=68
129340 Par ch=2 c=11 v=65
129400 Par ch=2 c=11 v=62
129420 Off ch=2 n=70 v=64
129420 Off ch=2 n=82 v=64
129460 Par ch=2 c=11 v=58
129560 Par ch=2 c=11 v=82
129600 On ch=2 n=80 v=88
129600 On ch=2 n=68 v=88
129860 Par ch=2 c=11 v=81
129920 Par ch=2 c=11 v=80
129980 Par ch=2 c=11 v=79
130020 Par ch=2 c=11 v=80
130080 On ch=2 n=82 v=88
130080 On ch=2 n=70 v=88
130140 Off ch=2 n=68 v=64
130140 Off ch=2 n=80 v=64
130140 Par ch=2 c=11 v=81
130260 Par ch=2 c=11 v=82
130340 Off ch=2 n=70 v=64
130340 Off ch=2 n=82 v=64
130380 Par ch=2 c=11 v=83
130420 Par ch=2 c=11 v=84
130540 Par ch=2 c=11 v=87
130560 On ch=2 n=85 v=88
130560 On ch=2 n=73 v=88
131040 On ch=2 n=87 v=88
131040 On ch=2 n=75 v=88
131080 Off ch=2 n=73 v=64
131080 Off ch=2 n=85 v=64
131260 Par ch=2 c=11 v=86
131300 Off ch=2 n=75 v=64
131300 Off ch=2 n=87 v=64
131500 Par ch=2 c=11 v=85
131520 On ch=2 n=82 v=88
131520 On ch=2 n=70 v=88
131740 Par ch=2 c=11 v=84
131780 Off ch=2 n=70 v=64
131780 Off ch=2 n=82 v=64
131920 Par ch=2 c=11 v=83
132000 On ch=2 n=80 v=88
132000 On ch=2 n=68 v=88
132040 Par ch=2 c=11 v=82
132160 Par ch=2 c=11 v=81
132260 Off ch=2 n=68 v=64
132260 Off ch=2 n=80 v=64
132260 Par ch=2 c=11 v=79
132480 On ch=2 n=82 v=88
132480 On ch=2 n=70 v=88
132500 Par ch=2 c=11 v=72
132560 Par ch=2 c=11 v=71
132620 Par ch=2 c=11 v=70
132640 Par ch=2 c=11 v=69
132740 Par ch=2 c=11 v=69
132860 Par ch=2 c=11 v=70
132980 Par ch=2 c=11 v=71
133040 Par ch=2 c=11 v=72
133160 Par ch=2 c=11 v=73
133220 Par ch=2 c=11 v=74
133280 Par ch=2 c=11 v=75
133340 Par ch=2 c=11 v=76
133400 Par ch=2 c=11 v=77
133420 Par ch=2 c=11 v=78
133440 On ch=2 n=80 v=88
133440 On ch=2 n=68 v=88
133500 Off ch=2 n=70 v=64
133500 Off ch=2 n=82 v=64
133700 Off ch=2 n=68 v=64
133700 Off ch=2 n=80 v=64
133920 On ch=2 n=82 v=88
133920 On ch=2 n=70 v=88
134180 Off ch=2 n=70 v=64
134180 Off ch=2 n=82 v=64
134360 Par ch=2 c=11 v=80
134400 On ch=2 n=80 v=88
134400 On ch=2 n=68 v=88
134880 On ch=2 n=78 v=88
134880 On ch=2 n=66 v=88
134900 Off ch=2 n=68 v=64
134900 Off ch=2 n=80 v=64
135020 Par ch=2 c=11 v=79
135160 Off ch=2 n=66 v=64
135160 Off ch=2 n=78 v=64
135260 Par ch=2 c=11 v=78
135360 On ch=2 n=77 v=88
135360 On ch=2 n=65 v=88
135500 Par ch=2 c=11 v=77
135600 Off ch=2 n=65 v=64
135600 Off ch=2 n=77 v=64
135620 Par ch=2 c=11 v=76
135800 Par ch=2 c=11 v=75
135840 On ch=2 n=73 v=88
135840 On ch=2 n=61 v=88
135900 Par ch=2 c=11 v=74
136020 Par ch=2 c=11 v=76
136180 Off ch=2 n=61 v=64
136180 Off ch=2 n=73 v=64
136200 Par ch=2 c=11 v=77
136260 Par ch=2 c=11 v=79
136280 Par ch=2 c=11 v=80
136320 On ch=2 n=75 v=88
136320 On ch=2 n=63 v=88
136340 Par ch=2 c=11 v=79
136520 Par ch=2 c=11 v=78
136580 Par ch=2 c=11 v=77
136640 Par ch=2 c=11 v=76
136700 Par ch=2 c=11 v=74
136760 Par ch=2 c=11 v=72
136800 Par ch=2 c=11 v=72
136830 Par ch=2 c=11 v=71
136890 Par ch=2 c=11 v=70
137010 Par ch=2 c=11 v=69
137176 Off ch=2 n=63 v=64
137176 Off ch=2 n=75 v=64
137256 Par ch=2 c=11 v=70
137280 On ch=2 n=73 v=88
137280 On ch=2 n=61 v=88
137586 Par ch=2 c=11 v=71
137706 Par ch=2 c=11 v=72
137760 On ch=2 n=75 v=88
137760 On ch=2 n=63 v=88
137780 Off ch=2 n=61 v=64
137780 Off ch=2 n=73 v=64
137826 Par ch=2 c=11 v=73
137916 Par ch=2 c=11 v=74
137976 Par ch=2 c=11 v=75
138020 Off ch=2 n=63 v=64
138020 Off ch=2 n=75 v=64
138036 Par ch=2 c=11 v=76
138096 Par ch=2 c=11 v=77
138220 Par ch=2 c=11 v=78
138240 On ch=2 n=77 v=88
138240 On ch=2 n=65 v=88
138460 Par ch=2 c=11 v=76
138720 On ch=2 n=78 v=88
138720 On ch=2 n=66 v=88
138780 Off ch=2 n=65 v=64
138780 Off ch=2 n=77 v=64
138980 Off ch=2 n=66 v=64
138980 Off ch=2 n=78 v=64
139200 On ch=2 n=80 v=88
139200 On ch=2 n=68 v=88
139300 Par ch=2 c=11 v=75
139420 Off ch=2 n=68 v=64
139420 Off ch=2 n=80 v=64
139600 Par ch=2 c=11 v=74
139680 On ch=2 n=82 v=88
139680 On ch=2 n=70 v=88
139840 Par ch=2 c=11 v=73
139900 Off ch=2 n=70 v=64
139900 Off ch=2 n=82 v=64
140080 Par ch=2 c=11 v=72
140160 On ch=2 n=75 v=88
140160 On ch=2 n=63 v=88
140220 Par ch=2 c=11 v=71
140300 Par ch=2 c=11 v=70
140480 Par ch=2 c=11 v=69
140540 Par ch=2 c=11 v=68
140600 Par ch=2 c=11 v=66
140660 Par ch=2 c=11 v=64
140720 Par ch=2 c=11 v=61
140780 Par ch=2 c=11 v=59
140840 Par ch=2 c=11 v=56
140880 Off ch=2 n=63 v=64
140880 Off ch=2 n=75 v=64
140900 Par ch=2 c=11 v=52
140960 Par ch=2 c=11 v=48
141000 Par ch=2 c=11 v=45
141072 Par ch=2 c=11 v=83
141120 On ch=2 n=82 v=88
141120 On ch=2 n=70 v=88
141380 Off ch=2 n=70 v=64
141380 Off ch=2 n=82 v=64
141432 Par ch=2 c=11 v=84
141552 Par ch=2 c=11 v=85
141600 On ch=2 n=85 v=88
141600 On ch=2 n=73 v=88
141672 Par ch=2 c=11 v=86
141762 Par ch=2 c=11 v=87
141822 Par ch=2 c=11 v=88
141860 Off ch=2 n=73 v=64
141860 Off ch=2 n=85 v=64
141912 Par ch=2 c=11 v=89
141972 Par ch=2 c=11 v=90
142008 Par ch=2 c=11 v=91
142080 On ch=2 n=73 v=88
142080 On ch=2 n=85 v=88
142080 Par ch=2 c=11 v=88
142560 On ch=2 n=75 v=88
142560 On ch=2 n=87 v=88
142580 Off ch=2 n=85 v=64
142580 Off ch=2 n=73 v=64
142620 Par ch=2 c=11 v=87
142800 Par ch=2 c=11 v=86
142820 Off ch=2 n=87 v=64
142820 Off ch=2 n=75 v=64
142980 Par ch=2 c=11 v=85
143040 On ch=2 n=70 v=88
143040 On ch=2 n=82 v=88
143100 Par ch=2 c=11 v=84
143220 Par ch=2 c=11 v=83
143300 Off ch=2 n=82 v=64
143300 Off ch=2 n=70 v=64
143340 Par ch=2 c=11 v=82
143460 Par ch=2 c=11 v=81
143500 Par ch=2 c=11 v=80
143520 On ch=2 n=68 v=88
143520 On ch=2 n=80 v=88
143580 Par ch=2 c=11 v=80
143780 Off ch=2 n=80 v=64
143780 Off ch=2 n=68 v=64
143820 Par ch=2 c=11 v=81
143900 Par ch=2 c=11 v=82
143980 Par ch=2 c=11 v=85
144000 On ch=2 n=70 v=88
144000 On ch=2 n=82 v=88
144160 Par ch=2 c=11 v=84
144220 Par ch=2 c=11 v=83
144280 Par ch=2 c=11 v=82
144340 Par ch=2 c=11 v=81
144400 Par ch=2 c=11 v=79
144460 Par ch=2 c=11 v=77
144520 Par ch=2 c=11 v=75
144580 Par ch=2 c=11 v=72
144640 Par ch=2 c=11 v=69
144700 Par ch=2 c=11 v=66
144760 Par ch=2 c=11 v=63
144780 Off ch=2 n=82 v=64
144780 Off ch=2 n=70 v=64
144820 Par ch=2 c=11 v=59
144920 Par ch=2 c=11 v=83
144960 On ch=2 n=68 v=88
144960 On ch=2 n=80 v=88
145220 Par ch=2 c=11 v=82
145280 Par ch=2 c=11 v=81
145340 Par ch=2 c=11 v=80
145380 Par ch=2 c=11 v=81
145440 On ch=2 n=70 v=88
145440 On ch=2 n=82 v=88
145500 Off ch=2 n=80 v=64
145500 Off ch=2 n=68 v=64
145500 Par ch=2 c=11 v=82
145620 Par ch=2 c=11 v=83
145700 Off ch=2 n=82 v=64
145700 Off ch=2 n=70 v=64
145740 Par ch=2 c=11 v=84
145780 Par ch=2 c=11 v=85
145900 Par ch=2 c=11 v=88
145920 On ch=2 n=73 v=88
145920 On ch=2 n=85 v=88
146400 On ch=2 n=75 v=88
146400 On ch=2 n=87 v=88
146440 Off ch=2 n=85 v=64
146440 Off ch=2 n=73 v=64
146620 Par ch=2 c=11 v=87
146660 Off ch=2 n=87 v=64
146660 Off ch=2 n=75 v=64
146860 Par ch=2 c=11 v=86
146880 On ch=2 n=70 v=88
146880 On ch=2 n=82 v=88
147100 Par ch=2 c=11 v=85
147140 Off ch=2 n=82 v=64
147140 Off ch=2 n=70 v=64
147280 Par ch=2 c=11 v=84
147360 On ch=2 n=68 v=88
147360 On ch=2 n=80 v=88
147400 Par ch=2 c=11 v=83
147520 Par ch=2 c=11 v=82
147620 Off ch=2 n=80 v=64
147620 Off ch=2 n=68 v=64
147620 Par ch=2 c=11 v=80
147840 On ch=2 n=70 v=88
147840 On ch=2 n=82 v=88
147860 Par ch=2 c=11 v=73
147920 Par ch=2 c=11 v=72
147980 Par ch=2 c=11 v=71
148000 Par ch=2 c=11 v=70
148100 Par ch=2 c=11 v=70
148220 Par ch=2 c=11 v=71
148340 Par ch=2 c=11 v=72
148400 Par ch=2 c=11 v=73
148520 Par ch=2 c=11 v=74
148580 Par ch=2 c=11 v=75
148640 Par ch=2 c=11 v=76
148700 Par ch=2 c=11 v=77
148760 Par ch=2 c=11 v=78
148780 Par ch=2 c=11 v=79
148800 On ch=2 n=68 v=88
148800 On ch=2 n=80 v=88
148860 Off ch=2 n=82 v=64
148860 Off ch=2 n=70 v=64
149060 Off ch=2 n=80 v=64
149060 Off ch=2 n=68 v=64
149280 On ch=2 n=70 v=88
149280 On ch=2 n=82 v=88
149540 Off ch=2 n=82 v=64
149540 Off ch=2 n=70 v=64
149720 Par ch=2 c=11 v=81
149760 On ch=2 n=68 v=88
149760 On ch=2 n=80 v=88
150240 On ch=2 n=66 v=88
150240 On ch=2 n=78 v=88
150260 Off ch=2 n=80 v=64
150260 Off ch=2 n=68 v=64
150380 Par ch=2 c=11 v=80
150520 Off ch=2 n=78 v=64
150520 Off ch=2 n=66 v=64
150620 Par ch=2 c=11 v=79
150720 On ch=2 n=65 v=88
150720 On ch=2 n=77 v=88
150860 Par ch=2 c=11 v=78
150960 Off ch=2 n=77 v=64
150960 Off ch=2 n=65 v=64
150980 Par ch=2 c=11 v=77
151160 Par ch=2 c=11 v=76
151200 On ch=2 n=61 v=88
151200 On ch=2 n=73 v=88
151260 Par ch=2 c=11 v=75
151380 Par ch=2 c=11 v=77
151540 Off ch=2 n=73 v=64
151540 Off ch=2 n=61 v=64
151560 Par ch=2 c=11 v=78
151620 Par ch=2 c=11 v=80
151640 Par ch=2 c=11 v=81
151680 On ch=2 n=63 v=88
151680 On ch=2 n=75 v=88
151700 Par ch=2 c=11 v=80
151880 Par ch=2 c=11 v=79
151940 Par ch=2 c=11 v=78
152000 Par ch=2 c=11 v=77
152060 Par ch=2 c=11 v=75
152120 Par ch=2 c=11 v=73
152160 Par ch=2 c=11 v=73
152190 Par ch=2 c=11 v=72
152250 Par ch=2 c=11 v=71
152370 Par ch=2 c=11 v=70
152536 Off ch=2 n=75 v=64
152536 Off ch=2 n=63 v=64
152616 Par ch=2 c=11 v=71
152640 On ch=2 n=61 v=88
152640 On ch=2 n=73 v=88
152946 Par ch=2 c=11 v=72
153066 Par ch=2 c=11 v=73
153120 On ch=2 n=63 v=88
153120 On ch=2 n=75 v=88
153140 Off ch=2 n=73 v=64
153140 Off ch=2 n=61 v=64
153186 Par ch=2 c=11 v=74
153276 Par ch=2 c=11 v=75
153336 Par ch=2 c=11 v=76
153380 Off ch=2 n=75 v=64
153380 Off ch=2 n=63 v=64
153396 Par ch=2 c=11 v=77
153456 Par ch=2 c=11 v=78
153580 Par ch=2 c=11 v=79
153600 On ch=2 n=65 v=88
153600 On ch=2 n=77 v=88
153600 Par ch=2 c=11 v=81
153820 Par ch=2 c=11 v=80
154080 On ch=2 n=66 v=88
154080 On ch=2 n=78 v=88
154140 Off ch=2 n=77 v=64
154140 Off ch=2 n=65 v=64
154340 Off ch=2 n=78 v=64
154340 Off ch=2 n=66 v=64
154560 On ch=2 n=68 v=88
154560 On ch=2 n=80 v=88
154660 Par ch=2 c=11 v=79
154780 Off ch=2 n=80 v=64
154780 Off ch=2 n=68 v=64
154960 Par ch=2 c=11 v=78
155040 On ch=2 n=70 v=88
155040 On ch=2 n=82 v=88
155200 Par ch=2 c=11 v=77
155260 Off ch=2 n=82 v=64
155260 Off ch=2 n=70 v=64
155440 Par ch=2 c=11 v=76
155520 On ch=2 n=63 v=88
155520 On ch=2 n=75 v=88
155580 Par ch=2 c=11 v=75
155660 Par ch=2 c=11 v=74
155840 Par ch=2 c=11 v=73
155900 Par ch=2 c=11 v=72
155960 Par ch=2 c=11 v=70
156020 Par ch=2 c=11 v=68
156080 Par ch=2 c=11 v=65
156140 Par ch=2 c=11 v=63
156200 Par ch=2 c=11 v=60
156240 Off ch=2 n=75 v=64
156240 Off ch=2 n=63 v=64
156260 Par ch=2 c=11 v=56
156320 Par ch=2 c=11 v=52
156360 Par ch=2 c=11 v=67
156456 Par ch=2 c=11 v=98
156480 On ch=2 n=70 v=88
156480 On ch=2 n=82 v=88
156740 Off ch=2 n=82 v=64
156740 Off ch=2 n=70 v=64
156786 Par ch=2 c=11 v=99
156906 Par ch=2 c=11 v=100
156960 On ch=2 n=73 v=88
156960 On ch=2 n=85 v=88
156996 Par ch=2 c=11 v=101
157086 Par ch=2 c=11 v=102
157176 Par ch=2 c=11 v=103
157220 Off ch=2 n=85 v=64
157220 Off ch=2 n=73 v=64
157236 Par ch=2 c=11 v=104
157296 Par ch=2 c=11 v=105
157356 Par ch=2 c=11 v=106
157416 Par ch=2 c=11 v=107
157440 On ch=2 n=73 v=88
157440 On ch=2 n=85 v=88
157440 Par ch=2 c=11 v=108
157920 On ch=2 n=75 v=88
157920 On ch=2 n=87 v=88
157940 Off ch=2 n=85 v=64
157940 Off ch=2 n=73 v=64
157980 Par ch=2 c=11 v=108
158160 Par ch=2 c=11 v=107
158180 Off ch=2 n=87 v=64
158180 Off ch=2 n=75 v=64
158340 Par ch=2 c=11 v=106
158400 On ch=2 n=70 v=88
158400 On ch=2 n=82 v=88
158460 Par ch=2 c=11 v=105
158580 Par ch=2 c=11 v=104
158660 Off ch=2 n=82 v=64
158660 Off ch=2 n=70 v=64
158700 Par ch=2 c=11 v=103
158820 Par ch=2 c=11 v=102
158860 Par ch=2 c=11 v=101
158880 On ch=2 n=68 v=88
158880 On ch=2 n=80 v=88
158940 Par ch=2 c=11 v=101
159140 Off ch=2 n=80 v=64
159140 Off ch=2 n=68 v=64
159180 Par ch=2 c=11 v=102
159260 Par ch=2 c=11 v=103
159340 Par ch=2 c=11 v=106
159360 On ch=2 n=70 v=88
159360 On ch=2 n=82 v=88
159520 Par ch=2 c=11 v=105
159580 Par ch=2 c=11 v=104
159640 Par ch=2 c=11 v=103
159700 Par ch=2 c=11 v=102
159760 Par ch=2 c=11 v=100
159820 Par ch=2 c=11 v=98
159880 Par ch=2 c=11 v=96
159940 Par ch=2 c=11 v=93
160000 Par ch=2 c=11 v=90
160060 Par ch=2 c=11 v=87
160120 Par ch=2 c=11 v=84
160140 Off ch=2 n=82 v=64
160140 Off ch=2 n=70 v=64
160180 Par ch=2 c=11 v=80
160280 Par ch=2 c=11 v=104
160320 On ch=2 n=68 v=88
160320 On ch=2 n=80 v=88
160580 Par ch=2 c=11 v=103
160640 Par ch=2 c=11 v=102
160700 Par ch=2 c=11 v=101
160740 Par ch=2 c=11 v=102
160800 On ch=2 n=70 v=88
160800 On ch=2 n=82 v=88
160860 Off ch=2 n=80 v=64
160860 Off ch=2 n=68 v=64
160860 Par ch=2 c=11 v=103
160980 Par ch=2 c=11 v=104
161060 Off ch=2 n=82 v=64
161060 Off ch=2 n=70 v=64
161100 Par ch=2 c=11 v=105
161140 Par ch=2 c=11 v=106
161260 Par ch=2 c=11 v=109
161280 On ch=2 n=73 v=88
161280 On ch=2 n=85 v=88
161760 On ch=2 n=75 v=88
161760 On ch=2 n=87 v=88
161800 Off ch=2 n=85 v=64
161800 Off ch=2 n=73 v=64
161980 Par ch=2 c=11 v=108
162020 Off ch=2 n=87 v=64
162020 Off ch=2 n=75 v=64
162220 Par ch=2 c=11 v=107
162240 On ch=2 n=70 v=88
162240 On ch=2 n=82 v=88
162460 Par ch=2 c=11 v=106
162500 Off ch=2 n=82 v=64
162500 Off ch=2 n=70 v=64
162640 Par ch=2 c=11 v=105
162720 On ch=2 n=68 v=88
162720 On ch=2 n=80 v=88
162760 Par ch=2 c=11 v=104
162880 Par ch=2 c=11 v=103
162980 Off ch=2 n=80 v=64
162980 Off ch=2 n=68 v=64
162980 Par ch=2 c=11 v=101
163200 On ch=2 n=70 v=88
163200 On ch=2 n=82 v=88
163220 Par ch=2 c=11 v=94
163280 Par ch=2 c=11 v=93
163340 Par ch=2 c=11 v=92
163360 Par ch=2 c=11 v=91
163460 Par ch=2 c=11 v=91
163580 Par ch=2 c=11 v=92
163700 Par ch=2 c=11 v=93
163760 Par ch=2 c=11 v=94
163880 Par ch=2 c=11 v=95
163940 Par ch=2 c=11 v=96
164000 Par ch=2 c=11 v=97
164060 Par ch=2 c=11 v=98
164120 Par ch=2 c=11 v=99
164140 Par ch=2 c=11 v=100
164160 On ch=2 n=68 v=88
164160 On ch=2 n=80 v=88
164220 Off ch=2 n=82 v=64
164220 Off ch=2 n=70 v=64
164420 Off ch=2 n=80 v=64
164420 Off ch=2 n=68 v=64
164640 On ch=2 n=70 v=88
164640 On ch=2 n=82 v=88
164900 Off ch=2 n=82 v=64
164900 Off ch=2 n=70 v=64
165080 Par ch=2 c=11 v=102
165120 On ch=2 n=68 v=88
165120 On ch=2 n=80 v=88
165600 On ch=2 n=66 v=88
165600 On ch=2 n=78 v=88
165620 Off ch=2 n=80 v=64
165620 Off ch=2 n=68 v=64
165740 Par ch=2 c=11 v=101
165880 Off ch=2 n=78 v=64
165880 Off ch=2 n=66 v=64
165980 Par ch=2 c=11 v=100
166080 On ch=2 n=65 v=88
166080 On ch=2 n=77 v=88
166220 Par ch=2 c=11 v=99
166320 Off ch=2 n=77 v=64
166320 Off ch=2 n=65 v=64
166340 Par ch=2 c=11 v=98
166520 Par ch=2 c=11 v=97
166560 On ch=2 n=61 v=88
166560 On ch=2 n=73 v=88
166620 Par ch=2 c=11 v=96
166740 Par ch=2 c=11 v=98
166900 Off ch=2 n=73 v=64
166900 Off ch=2 n=61 v=64
166920 Par ch=2 c=11 v=99
166980 Par ch=2 c=11 v=101
167000 Par ch=2 c=11 v=102
167040 On ch=2 n=63 v=88
167040 On ch=2 n=75 v=88
167060 Par ch=2 c=11 v=101
167240 Par ch=2 c=11 v=100
167300 Par ch=2 c=11 v=99
167360 Par ch=2 c=11 v=98
167420 Par ch=2 c=11 v=96
167480 Par ch=2 c=11 v=94
167540 Par ch=2 c=11 v=92
167592 Par ch=2 c=11 v=89
167622 Par ch=2 c=11 v=90
167682 Par ch=2 c=11 v=91
167742 Par ch=2 c=11 v=92
167862 Par ch=2 c=11 v=93
167896 Off ch=2 n=75 v=64
167896 Off ch=2 n=63 v=64
167952 Par ch=2 c=11 v=95
168000 On ch=2 n=61 v=88
168000 On ch=2 n=73 v=88
168282 Par ch=2 c=11 v=96
168402 Par ch=2 c=11 v=97
168480 On ch=2 n=63 v=88
168480 On ch=2 n=75 v=88
168500 Off ch=2 n=73 v=64
168500 Off ch=2 n=61 v=64
168522 Par ch=2 c=11 v=98
168612 Par ch=2 c=11 v=99
168672 Par ch=2 c=11 v=100
168732 Par ch=2 c=11 v=101
168740 Off ch=2 n=75 v=64
168740 Off ch=2 n=63 v=64
168792 Par ch=2 c=11 v=102
168940 Par ch=2 c=11 v=100
168960 On ch=2 n=65 v=88
168960 On ch=2 n=77 v=88
169180 Par ch=2 c=11 v=98
169440 On ch=2 n=66 v=88
169440 On ch=2 n=78 v=88
169500 Off ch=2 n=77 v=64
169500 Off ch=2 n=65 v=64
169700 Off ch=2 n=78 v=64
169700 Off ch=2 n=66 v=64
169920 On ch=2 n=68 v=88
169920 On ch=2 n=80 v=88
170020 Par ch=2 c=11 v=97
170140 Off ch=2 n=80 v=64
170140 Off ch=2 n=68 v=64
170320 Par ch=2 c=11 v=96
170400 On ch=2 n=70 v=88
170400 On ch=2 n=82 v=88
170560 Par ch=2 c=11 v=95
170620 Off ch=2 n=82 v=64
170620 Off ch=2 n=70 v=64
170800 Par ch=2 c=11 v=94
170880 On ch=2 n=63 v=88
170880 On ch=2 n=75 v=88
170940 Par ch=2 c=11 v=93
171020 Par ch=2 c=11 v=92
171200 Par ch=2 c=11 v=91
171260 Par ch=2 c=11 v=90
171320 Par ch=2 c=11 v=88
171380 Par ch=2 c=11 v=86
171440 Par ch=2 c=11 v=83
171500 Par ch=2 c=11 v=81
171560 Par ch=2 c=11 v=78
171600 Off ch=2 n=75 v=64
171600 Off ch=2 n=63 v=64
171620 Par ch=2 c=11 v=74
171680 Par ch=2 c=11 v=70
171720 Par ch=2 c=11 v=67
171840 On ch=2 n=70 v=88
171840 On ch=2 n=82 v=88
171840 Par ch=2 c=11 v=96
172056 Par ch=2 c=11 v=97
172100 Off ch=2 n=82 v=64
172100 Off ch=2 n=70 v=64
172266 Par ch=2 c=11 v=98
172320 On ch=2 n=73 v=88
172320 On ch=2 n=85 v=88
172356 Par ch=2 c=11 v=99
172416 Par ch=2 c=11 v=100
172476 Par ch=2 c=11 v=101
172506 Par ch=2 c=11 v=102
172566 Par ch=2 c=11 v=103
172580 Off ch=2 n=85 v=64
172580 Off ch=2 n=73 v=64
172596 Par ch=2 c=11 v=104
172626 Par ch=2 c=11 v=105
172686 Par ch=2 c=11 v=106
172716 Par ch=2 c=11 v=107
172746 Par ch=2 c=11 v=108
172752 Par ch=2 c=11 v=109
172800 On ch=2 n=85 v=88
172800 On ch=2 n=73 v=88
172800 Par ch=2 c=11 v=108
173280 On ch=2 n=87 v=88
173280 On ch=2 n=75 v=88
173300 Off ch=2 n=73 v=64
173300 Off ch=2 n=85 v=64
173340 Par ch=2 c=11 v=108
173520 Par ch=2 c=11 v=107
173540 Off ch=2 n=75 v=64
173540 Off ch=2 n=87 v=64
173700 Par ch=2 c=11 v=106
173760 On ch=2 n=82 v=88
173760 On ch=2 n=70 v=88
173820 Par ch=2 c=11 v=105
173940 Par ch=2 c=11 v=104
174020 Off ch=2 n=70 v=64
174020 Off ch=2 n=82 v=64
174060 Par ch=2 c=11 v=103
174180 Par ch=2 c=11 v=102
174220 Par ch=2 c=11 v=101
174240 On ch=2 n=80 v=88
174240 On ch=2 n=68 v=88
174300 Par ch=2 c=11 v=101
174500 Off ch=2 n=68 v=64
174500 Off ch=2 n=80 v=64
174540 Par ch=2 c=11 v=102
174620 Par ch=2 c=11 v=103
174700 Par ch=2 c=11 v=106
174720 On ch=2 n=82 v=88
174720 On ch=2 n=70 v=88
174880 Par ch=2 c=11 v=105
174940 Par ch=2 c=11 v=104
175000 Par ch=2 c=11 v=103
175060 Par ch=2 c=11 v=102
175120 Par ch=2 c=11 v=100
175180 Par ch=2 c=11 v=98
175240 Par ch=2 c=11 v=96
175300 Par ch=2 c=11 v=93
175360 Par ch=2 c=11 v=90
175420 Par ch=2 c=11 v=87
175480 Par ch=2 c=11 v=84
175500 Off ch=2 n=70 v=64
175500 Off ch=2 n=82 v=64
175540 Par ch=2 c=11 v=80
175640 Par ch=2 c=11 v=104
175680 On ch=2 n=80 v=88
175680 On ch=2 n=68 v=88
175940 Par ch=2 c=11 v=103
176000 Par ch=2 c=11 v=102
176060 Par ch=2 c=11 v=101
176100 Par ch=2 c=11 v=102
176160 On ch=2 n=82 v=88
176160 On ch=2 n=70 v=88
176220 Off ch=2 n=68 v=64
176220 Off ch=2 n=80 v=64
176220 Par ch=2 c=11 v=103
176340 Par ch=2 c=11 v=104
176420 Off ch=2 n=70 v=64
176420 Off ch=2 n=82 v=64
176460 Par ch=2 c=11 v=105
176500 Par ch=2 c=11 v=106
176620 Par ch=2 c=11 v=109
176640 On ch=2 n=85 v=88
176640 On ch=2 n=73 v=88
176928 Par ch=2 c=11 v=110
177120 On ch=2 n=87 v=88
177120 On ch=2 n=75 v=88
177160 Off ch=2 n=73 v=64
177160 Off ch=2 n=85 v=64
177380 Off ch=2 n=75 v=64
177380 Off ch=2 n=87 v=64
177600 On ch=2 n=82 v=88
177600 On ch=2 n=70 v=88
177798 Par ch=2 c=11 v=111
177860 Off ch=2 n=70 v=64
177860 Off ch=2 n=82 v=64
178080 On ch=2 n=80 v=88
178080 On ch=2 n=68 v=88
178158 Par ch=2 c=11 v=112
178340 Off ch=2 n=68 v=64
178340 Off ch=2 n=80 v=64
178428 Par ch=2 c=11 v=113
178560 On ch=2 n=82 v=88
178560 On ch=2 n=70 v=88
178668 Par ch=2 c=11 v=114
178848 Par ch=2 c=11 v=115
179058 Par ch=2 c=11 v=116
179208 Par ch=2 c=11 v=117
179358 Par ch=2 c=11 v=118
179508 Par ch=2 c=11 v=119
179520 On ch=2 n=87 v=88
179520 On ch=2 n=75 v=88
179580 Off ch=2 n=70 v=64
179580 Off ch=2 n=82 v=64
179658 Par ch=2 c=11 v=120
179778 Par ch=2 c=11 v=121
179780 Off ch=2 n=75 v=64
179780 Off ch=2 n=87 v=64
179928 Par ch=2 c=11 v=122
180000 On ch=2 n=89 v=88
180000 On ch=2 n=77 v=88
180048 Par ch=2 c=11 v=123
180168 Par ch=2 c=11 v=124
180258 Par ch=2 c=11 v=125
180260 Off ch=2 n=77 v=64
180260 Off ch=2 n=89 v=64
180360 Par ch=2 c=11 v=126
180390 Par ch=2 c=11 v=125
180456 Par ch=2 c=11 v=126
180480 On ch=2 n=90 v=88
180480 On ch=2 n=78 v=88
180480 Par ch=2 c=11 v=126
180960 On ch=2 n=89 v=88
180960 On ch=2 n=77 v=88
180980 Off ch=2 n=78 v=64
180980 Off ch=2 n=90 v=64
180990 Par ch=2 c=11 v=125
181230 Par ch=2 c=11 v=124
181240 Off ch=2 n=77 v=64
181240 Off ch=2 n=89 v=64
181380 Par ch=2 c=11 v=123
181440 On ch=2 n=87 v=88
181440 On ch=2 n=75 v=88
181500 Par ch=2 c=11 v=122
181650 Par ch=2 c=11 v=121
181680 Off ch=2 n=75 v=64
181680 Off ch=2 n=87 v=64
181740 Par ch=2 c=11 v=120
181830 Par ch=2 c=11 v=119
181920 On ch=2 n=85 v=88
181920 On ch=2 n=73 v=88
181950 Par ch=2 c=11 v=118
182010 Par ch=2 c=11 v=117
182100 Par ch=2 c=11 v=116
182190 Par ch=2 c=11 v=115
182250 Par ch=2 c=11 v=114
182260 Off ch=2 n=73 v=64
182260 Off ch=2 n=85 v=64
182340 Par ch=2 c=11 v=113
182400 On ch=2 n=82 v=88
182400 On ch=2 n=70 v=88
182400 Par ch=2 c=11 v=112
182460 Par ch=2 c=11 v=111
182520 Par ch=2 c=11 v=110
183192 Par ch=2 c=11 v=111
183328 Off ch=2 n=70 v=64
183328 Off ch=2 n=82 v=64
183360 On ch=2 n=80 v=88
183360 On ch=2 n=68 v=88
183840 On ch=2 n=82 v=88
183840 On ch=2 n=70 v=88
183860 Off ch=2 n=68 v=64
183860 Off ch=2 n=80 v=64
184002 Par ch=2 c=11 v=112
184100 Off ch=2 n=70 v=64
184100 Off ch=2 n=82 v=64
184320 On ch=2 n=80 v=88
184320 On ch=2 n=68 v=88
184320 Par ch=2 c=11 v=114
184800 On ch=2 n=78 v=88
184800 On ch=2 n=66 v=88
184860 Off ch=2 n=68 v=64
184860 Off ch=2 n=80 v=64
184890 Par ch=2 c=11 v=113
185060 Off ch=2 n=66 v=64
185060 Off ch=2 n=78 v=64
185130 Par ch=2 c=11 v=112
185280 On ch=2 n=77 v=88
185280 On ch=2 n=65 v=88
185310 Par ch=2 c=11 v=111
185460 Par ch=2 c=11 v=110
185500 Off ch=2 n=65 v=64
185500 Off ch=2 n=77 v=64
185580 Par ch=2 c=11 v=109
185700 Par ch=2 c=11 v=108
185760 On ch=2 n=73 v=88
185760 On ch=2 n=61 v=88
185820 Par ch=2 c=11 v=107
185910 Par ch=2 c=11 v=106
185980 Off ch=2 n=61 v=64
185980 Off ch=2 n=73 v=64
186000 Par ch=2 c=11 v=105
186090 Par ch=2 c=11 v=104
186180 Par ch=2 c=11 v=103
186240 On ch=2 n=75 v=88
186240 On ch=2 n=63 v=88
186270 Par ch=2 c=11 v=102
186360 Par ch=2 c=11 v=101
186408 Par ch=2 c=11 v=100
186576 Par ch=2 c=11 v=99
186726 Par ch=2 c=11 v=98
186786 Par ch=2 c=11 v=97
186816 Par ch=2 c=11 v=96
186846 Par ch=2 c=11 v=95
186876 Par ch=2 c=11 v=94
186906 Par ch=2 c=11 v=93
186936 Par ch=2 c=11 v=92
186966 Par ch=2 c=11 v=91
186996 Par ch=2 c=11 v=89
187016 Off ch=2 n=75 v=64
187026 Par ch=2 c=11 v=88
187056 Par ch=2 c=11 v=86
187064 Off ch=2 n=63 v=64
187086 Par ch=2 c=11 v=84
187116 Par ch=2 c=11 v=82
187146 Par ch=2 c=11 v=80
187176 Par ch=2 c=11 v=78
187200 Par ch=2 c=11 v=76
234240 On ch=2 n=75 v=88
234240 Par ch=2 c=11 v=108
234480 Off ch=2 n=75 v=64
234720 On ch=2 n=82 v=88
234960 Off ch=2 n=82 v=64
235200 On ch=2 n=80 v=88
235440 Off ch=2 n=80 v=64
235680 On ch=2 n=82 v=88
235920 Off ch=2 n=82 v=64
236160 On ch=2 n=78 v=88
236400 Off ch=2 n=78 v=64
236640 On ch=2 n=82 v=88
236880 Off ch=2 n=82 v=64
237120 On ch=2 n=77 v=88
237360 Off ch=2 n=77 v=64
237600 On ch=2 n=82 v=88
237840 Off ch=2 n=82 v=64
238080 On ch=2 n=75 v=88
238320 Off ch=2 n=75 v=64
238560 On ch=2 n=82 v=88
238800 Off ch=2 n=82 v=64
239040 On ch=2 n=80 v=88
239280 Off ch=2 n=80 v=64
239520 On ch=2 n=82 v=88
239760 Off ch=2 n=82 v=64
240000 On ch=2 n=78 v=88
240240 Off ch=2 n=78 v=64
240480 On ch=2 n=82 v=88
240720 Off ch=2 n=82 v=64
240960 On ch=2 n=77 v=88
241200 Off ch=2 n=77 v=64
241440 On ch=2 n=82 v=88
241680 Off ch=2 n=82 v=64
241920 On ch=2 n=75 v=88
242160 Off ch=2 n=75 v=64
242400 On ch=2 n=82 v=88
242640 Off ch=2 n=82 v=64
242880 On ch=2 n=80 v=88
243120 Off ch=2 n=80 v=64
243360 On ch=2 n=82 v=88
243600 Off ch=2 n=82 v=64
243840 On ch=2 n=78 v=88
244080 Off ch=2 n=78 v=64
244320 On ch=2 n=82 v=88
244560 Off ch=2 n=82 v=64
244800 On ch=2 n=77 v=88
245040 Off ch=2 n=77 v=64
245280 On ch=2 n=82 v=88
245520 Off ch=2 n=82 v=64
245760 On ch=2 n=75 v=88
246000 Off ch=2 n=75 v=64
246240 On ch=2 n=82 v=88
246480 Off ch=2 n=82 v=64
246720 On ch=2 n=80 v=88
246960 Off ch=2 n=80 v=64
247200 On ch=2 n=82 v=88
247440 Off ch=2 n=82 v=64
247680 On ch=2 n=78 v=88
247920 Off ch=2 n=78 v=64
248160 On ch=2 n=82 v=88
248400 Off ch=2 n=82 v=64
248640 On ch=2 n=77 v=88
248880 Off ch=2 n=77 v=64
249120 On ch=2 n=82 v=88
249360 Off ch=2 n=82 v=64
249600 Par ch=2 c=11 v=74
249600 On ch=2 n=75 v=56
249600 On ch=2 n=66 v=56
257152 Off ch=2 n=66 v=64
257152 Off ch=2 n=75 v=64
257280 On ch=2 n=75 v=56
257280 On ch=2 n=66 v=56
261120 Off ch=2 n=66 v=64
261120 Off ch=2 n=75 v=64
261120 On ch=2 n=77 v=56
261120 On ch=2 n=68 v=56
264960 Off ch=2 n=68 v=64
264960 Off ch=2 n=77 v=64
264960 On ch=2 n=66 v=56
264960 On ch=2 n=75 v=56
272512 Off ch=2 n=75 v=64
272512 Off ch=2 n=66 v=64
272640 On ch=2 n=66 v=56
272640 On ch=2 n=75 v=56
276480 Off ch=2 n=75 v=64
276480 Off ch=2 n=66 v=64
276480 On ch=2 n=68 v=56
276480 On ch=2 n=77 v=56
280320 Off ch=2 n=77 v=64
280320 Off ch=2 n=68 v=64
280320 Par ch=2 c=11 v=116
280320 Par ch=2 c=7 v=100
295680 On ch=2 n=75 v=119
296160 On ch=2 n=77 v=119
296256 Off ch=2 n=75 v=64
296512 Off ch=2 n=77 v=64
296640 On ch=2 n=78 v=119
296944 Off ch=2 n=78 v=64
297120 On ch=2 n=80 v=119
297392 Off ch=2 n=80 v=64
297600 On ch=2 n=82 v=119
298560 On ch=2 n=75 v=103
298592 Off ch=2 n=82 v=64
299040 Off ch=2 n=75 v=64
299040 On ch=2 n=85 v=119
299520 Off ch=2 n=85 v=64
299520 On ch=2 n=82 v=119
299920 Off ch=2 n=82 v=64
300480 On ch=2 n=75 v=119
300848 Off ch=2 n=75 v=64
301440 On ch=2 n=82 v=119
301920 Off ch=2 n=82 v=64
301920 On ch=2 n=80 v=119
302240 Off ch=2 n=80 v=64
302400 On ch=2 n=78 v=119
302688 Off ch=2 n=78 v=64
302880 On ch=2 n=77 v=119
303184 Off ch=2 n=77 v=64
303360 On ch=2 n=75 v=119
303840 Off ch=2 n=75 v=64
303840 On ch=2 n=77 v=119
304176 Off ch=2 n=77 v=64
304320 On ch=2 n=78 v=119
304544 Off ch=2 n=78 v=64
304800 On ch=2 n=80 v=119
304976 Off ch=2 n=80 v=64
305280 On ch=2 n=82 v=119
306240 On ch=2 n=80 v=119
306288 Off ch=2 n=82 v=64
306544 Off ch=2 n=80 v=64
306720 On ch=2 n=78 v=119
307008 Off ch=2 n=78 v=64
307200 On ch=2 n=77 v=119
307200 On ch=2 n=65 v=119
307200 Par ch=2 c=11 v=118
307440 Off ch=2 n=65 v=64
307440 Off ch=2 n=77 v=64
308160 On ch=2 n=78 v=119
308160 On ch=2 n=66 v=119
308370 Par ch=2 c=11 v=119
308400 Off ch=2 n=66 v=64
308400 Off ch=2 n=78 v=64
308850 Par ch=2 c=11 v=120
309120 On ch=2 n=80 v=119
309120 On ch=2 n=68 v=119
309240 Par ch=2 c=11 v=121
309360 Off ch=2 n=68 v=64
309360 Off ch=2 n=80 v=64
309540 Par ch=2 c=11 v=122
309810 Par ch=2 c=11 v=123
310050 Par ch=2 c=11 v=124
310080 On ch=2 n=82 v=119
310080 On ch=2 n=70 v=119
310290 Par ch=2 c=11 v=125
310320 Off ch=2 n=70 v=64
310320 Off ch=2 n=82 v=64
310500 Par ch=2 c=11 v=126
310688 Par ch=2 c=11 v=127
311040 On ch=2 n=73 v=88
311040 On ch=2 n=85 v=88
311040 Par ch=2 c=11 v=127
311520 On ch=2 n=75 v=88
311520 On ch=2 n=87 v=88
311540 Off ch=2 n=85 v=64
311540 Off ch=2 n=73 v=64
311580 Par ch=2 c=11 v=126
311760 Par ch=2 c=11 v=125
311780 Off ch=2 n=87 v=64
311780 Off ch=2 n=75 v=64
311940 Par ch=2 c=11 v=124
312000 On ch=2 n=70 v=88
312000 On ch=2 n=82 v=88
312060 Par ch=2 c=11 v=123
312180 Par ch=2 c=11 v=122
312260 Off ch=2 n=82 v=64
312260 Off ch=2 n=70 v=64
312300 Par ch=2 c=11 v=121
312420 Par ch=2 c=11 v=120
312460 Par ch=2 c=11 v=119
312480 On ch=2 n=68 v=88
312480 On ch=2 n=80 v=88
312540 Par ch=2 c=11 v=119
312740 Off ch=2 n=80 v=64
312740 Off ch=2 n=68 v=64
312780 Par ch=2 c=11 v=120
312860 Par ch=2 c=11 v=121
312940 Par ch=2 c=11 v=124
312960 On ch=2 n=70 v=88
312960 On ch=2 n=82 v=88
313120 Par ch=2 c=11 v=123
313180 Par ch=2 c=11 v=122
313240 Par ch=2 c=11 v=121
313300 Par ch=2 c=11 v=120
313360 Par ch=2 c=11 v=118
313420 Par ch=2 c=11 v=116
313480 Par ch=2 c=11 v=114
313540 Par ch=2 c=11 v=111
313600 Par ch=2 c=11 v=108
313660 Par ch=2 c=11 v=105
313720 Par ch=2 c=11 v=102
313740 Off ch=2 n=82 v=64
313740 Off ch=2 n=70 v=64
313780 Par ch=2 c=11 v=98
313880 Par ch=2 c=11 v=122
313920 On ch=2 n=68 v=88
313920 On ch=2 n=80 v=88
314180 Par ch=2 c=11 v=121
314240 Par ch=2 c=11 v=120
314300 Par ch=2 c=11 v=119
314340 Par ch=2 c=11 v=120
314400 On ch=2 n=70 v=88
314400 On ch=2 n=82 v=88
314460 Off ch=2 n=80 v=64
314460 Off ch=2 n=68 v=64
314460 Par ch=2 c=11 v=121
314580 Par ch=2 c=11 v=122
314660 Off ch=2 n=82 v=64
314660 Off ch=2 n=70 v=64
314700 Par ch=2 c=11 v=123
314740 Par ch=2 c=11 v=124
314860 Par ch=2 c=11 v=127
314880 On ch=2 n=73 v=88
314880 On ch=2 n=85 v=88
315360 On ch=2 n=75 v=88
315360 On ch=2 n=87 v=88
315400 Off ch=2 n=85 v=64
315400 Off ch=2 n=73 v=64
315580 Par ch=2 c=11 v=126
315620 Off ch=2 n=87 v=64
315620 Off ch=2 n=75 v=64
315820 Par ch=2 c=11 v=125
315840 On ch=2 n=70 v=88
315840 On ch=2 n=82 v=88
316060 Par ch=2 c=11 v=124
316100 Off ch=2 n=82 v=64
316100 Off ch=2 n=70 v=64
316240 Par ch=2 c=11 v=123
316320 On ch=2 n=68 v=88
316320 On ch=2 n=80 v=88
316360 Par ch=2 c=11 v=122
316480 Par ch=2 c=11 v=121
316580 Off ch=2 n=80 v=64
316580 Off ch=2 n=68 v=64
316580 Par ch=2 c=11 v=119
316800 On ch=2 n=70 v=88
316800 On ch=2 n=82 v=88
316820 Par ch=2 c=11 v=112
316880 Par ch=2 c=11 v=111
316940 Par ch=2 c=11 v=110
316960 Par ch=2 c=11 v=109
317060 Par ch=2 c=11 v=109
317180 Par ch=2 c=11 v=110
317300 Par ch=2 c=11 v=111
317360 Par ch=2 c=11 v=112
317480 Par ch=2 c=11 v=113
317540 Par ch=2 c=11 v=114
317600 Par ch=2 c=11 v=115
317660 Par ch=2 c=11 v=116
317720 Par ch=2 c=11 v=117
317740 Par ch=2 c=11 v=118
317760 On ch=2 n=68 v=88
317760 On ch=2 n=80 v=88
317820 Off ch=2 n=82 v=64
317820 Off ch=2 n=70 v=64
318020 Off ch=2 n=80 v=64
318020 Off ch=2 n=68 v=64
318240 On ch=2 n=70 v=88
318240 On ch=2 n=82 v=88
318500 Off ch=2 n=82 v=64
318500 Off ch=2 n=70 v=64
318680 Par ch=2 c=11 v=120
318720 On ch=2 n=68 v=88
318720 On ch=2 n=80 v=88
319200 On ch=2 n=66 v=88
319200 On ch=2 n=78 v=88
319220 Off ch=2 n=80 v=64
319220 Off ch=2 n=68 v=64
319340 Par ch=2 c=11 v=119
319480 Off ch=2 n=78 v=64
319480 Off ch=2 n=66 v=64
319580 Par ch=2 c=11 v=118
319680 On ch=2 n=65 v=88
319680 On ch=2 n=77 v=88
319820 Par ch=2 c=11 v=117
319920 Off ch=2 n=77 v=64
319920 Off ch=2 n=65 v=64
319940 Par ch=2 c=11 v=116
320120 Par ch=2 c=11 v=115
320160 On ch=2 n=61 v=88
320160 On ch=2 n=73 v=88
320220 Par ch=2 c=11 v=114
320340 Par ch=2 c=11 v=116
320500 Off ch=2 n=73 v=64
320500 Off ch=2 n=61 v=64
320520 Par ch=2 c=11 v=117
320580 Par ch=2 c=11 v=119
320600 Par ch=2 c=11 v=120
320640 On ch=2 n=63 v=88
320640 On ch=2 n=75 v=88
320660 Par ch=2 c=11 v=119
320840 Par ch=2 c=11 v=118
320900 Par ch=2 c=11 v=117
320960 Par ch=2 c=11 v=116
321020 Par ch=2 c=11 v=114
321080 Par ch=2 c=11 v=112
321120 Par ch=2 c=11 v=112
321150 Par ch=2 c=11 v=111
321210 Par ch=2 c=11 v=110
321330 Par ch=2 c=11 v=109
321496 Off ch=2 n=75 v=64
321496 Off ch=2 n=63 v=64
321576 Par ch=2 c=11 v=110
321600 On ch=2 n=61 v=88
321600 On ch=2 n=73 v=88
321906 Par ch=2 c=11 v=111
322026 Par ch=2 c=11 v=112
322080 On ch=2 n=63 v=88
322080 On ch=2 n=75 v=88
322100 Off ch=2 n=73 v=64
322100 Off ch=2 n=61 v=64
322146 Par ch=2 c=11 v=113
322236 Par ch=2 c=11 v=114
322296 Par ch=2 c=11 v=115
322340 Off ch=2 n=75 v=64
322340 Off ch=2 n=63 v=64
322356 Par ch=2 c=11 v=116
322416 Par ch=2 c=11 v=117
322540 Par ch=2 c=11 v=118
322560 On ch=2 n=65 v=88
322560 On ch=2 n=77 v=88
322780 Par ch=2 c=11 v=116
323040 On ch=2 n=66 v=88
323040 On ch=2 n=78 v=88
323100 Off ch=2 n=77 v=64
323100 Off ch=2 n=65 v=64
323300 Off ch=2 n=78 v=64
323300 Off ch=2 n=66 v=64
323520 On ch=2 n=68 v=88
323520 On ch=2 n=80 v=88
323620 Par ch=2 c=11 v=115
323740 Off ch=2 n=80 v=64
323740 Off ch=2 n=68 v=64
323920 Par ch=2 c=11 v=114
324000 On ch=2 n=70 v=88
324000 On ch=2 n=82 v=88
324160 Par ch=2 c=11 v=113
324220 Off ch=2 n=82 v=64
324220 Off ch=2 n=70 v=64
324400 Par ch=2 c=11 v=112
324480 On ch=2 n=63 v=88
324480 On ch=2 n=75 v=88
324540 Par ch=2 c=11 v=111
324620 Par ch=2 c=11 v=110
324800 Par ch=2 c=11 v=109
324860 Par ch=2 c=11 v=108
324920 Par ch=2 c=11 v=106
324980 Par ch=2 c=11 v=104
325040 Par ch=2 c=11 v=101
325100 Par ch=2 c=11 v=99
325160 Par ch=2 c=11 v=96
325200 Off ch=2 n=75 v=64
325200 Off ch=2 n=63 v=64
325220 Par ch=2 c=11 v=92
325280 Par ch=2 c=11 v=88
325320 Par ch=2 c=11 v=85
325392 Par ch=2 c=11 v=123
325440 On ch=2 n=70 v=88
325440 On ch=2 n=82 v=88
325700 Off ch=2 n=82 v=64
325700 Off ch=2 n=70 v=64
325752 Par ch=2 c=11 v=124
325872 Par ch=2 c=11 v=125
325920 On ch=2 n=73 v=88
325920 On ch=2 n=85 v=88
325992 Par ch=2 c=11 v=126
326082 Par ch=2 c=11 v=127
326142 Par ch=2 c=11 v=127
326180 Off ch=2 n=85 v=64
326180 Off ch=2 n=73 v=64
326232 Par ch=2 c=11 v=127
326292 Par ch=2 c=11 v=127
326328 Par ch=2 c=11 v=127
326400 On ch=2 n=85 v=88
326400 On ch=2 n=73 v=88
326400 Par ch=2 c=11 v=127
326880 On ch=2 n=87 v=88
326880 On ch=2 n=75 v=88
326900 Off ch=2 n=73 v=64
326900 Off ch=2 n=85 v=64
326940 Par ch=2 c=11 v=127
327120 Par ch=2 c=11 v=126
327140 Off ch=2 n=75 v=64
327140 Off ch=2 n=87 v=64
327300 Par ch=2 c=11 v=125
327360 On ch=2 n=82 v=88
327360 On ch=2 n=70 v=88
327420 Par ch=2 c=11 v=124
327540 Par ch=2 c=11 v=123
327620 Off ch=2 n=70 v=64
327620 Off ch=2 n=82 v=64
327660 Par ch=2 c=11 v=122
327780 Par ch=2 c=11 v=121
327820 Par ch=2 c=11 v=120
327840 On ch=2 n=80 v=88
327840 On ch=2 n=68 v=88
327900 Par ch=2 c=11 v=120
328100 Off ch=2 n=68 v=64
328100 Off ch=2 n=80 v=64
328140 Par ch=2 c=11 v=121
328220 Par ch=2 c=11 v=122
328300 Par ch=2 c=11 v=125
328320 On ch=2 n=82 v=88
328320 On ch=2 n=70 v=88
328480 Par ch=2 c=11 v=124
328540 Par ch=2 c=11 v=123
328600 Par ch=2 c=11 v=122
328660 Par ch=2 c=11 v=121
328720 Par ch=2 c=11 v=119
328780 Par ch=2 c=11 v=117
328840 Par ch=2 c=11 v=115
328900 Par ch=2 c=11 v=112
328960 Par ch=2 c=11 v=109
329020 Par ch=2 c=11 v=106
329080 Par ch=2 c=11 v=103
329100 Off ch=2 n=70 v=64
329100 Off ch=2 n=82 v=64
329140 Par ch=2 c=11 v=99
329240 Par ch=2 c=11 v=123
329280 On ch=2 n=80 v=88
329280 On ch=2 n=68 v=88
329540 Par ch=2 c=11 v=122
329600 Par ch=2 c=11 v=121
329660 Par ch=2 c=11 v=120
329700 Par ch=2 c=11 v=121
329760 On ch=2 n=82 v=88
329760 On ch=2 n=70 v=88
329820 Off ch=2 n=68 v=64
329820 Off ch=2 n=80 v=64
329820 Par ch=2 c=11 v=122
329940 Par ch=2 c=11 v=123
330020 Off ch=2 n=70 v=64
330020 Off ch=2 n=82 v=64
330060 Par ch=2 c=11 v=124
330100 Par ch=2 c=11 v=125
330220 Par ch=2 c=11 v=127
330240 On ch=2 n=85 v=88
330240 On ch=2 n=73 v=88
330720 On ch=2 n=87 v=88
330720 On ch=2 n=75 v=88
330760 Off ch=2 n=73 v=64
330760 Off ch=2 n=85 v=64
330940 Par ch=2 c=11 v=127
330980 Off ch=2 n=75 v=64
330980 Off ch=2 n=87 v=64
331180 Par ch=2 c=11 v=126
331200 On ch=2 n=82 v=88
331200 On ch=2 n=70 v=88
331420 Par ch=2 c=11 v=125
331460 Off ch=2 n=70 v=64
331460 Off ch=2 n=82 v=64
331600 Par ch=2 c=11 v=124
331680 On ch=2 n=80 v=88
331680 On ch=2 n=68 v=88
331720 Par ch=2 c=11 v=123
331840 Par ch=2 c=11 v=122
331940 Off ch=2 n=68 v=64
331940 Off ch=2 n=80 v=64
331940 Par ch=2 c=11 v=120
332160 On ch=2 n=82 v=88
332160 On ch=2 n=70 v=88
332180 Par ch=2 c=11 v=113
332240 Par ch=2 c=11 v=112
332300 Par ch=2 c=11 v=111
332320 Par ch=2 c=11 v=110
332420 Par ch=2 c=11 v=110
332540 Par ch=2 c=11 v=111
332660 Par ch=2 c=11 v=112
332720 Par ch=2 c=11 v=113
332840 Par ch=2 c=11 v=114
332900 Par ch=2 c=11 v=115
332960 Par ch=2 c=11 v=116
333020 Par ch=2 c=11 v=117
333080 Par ch=2 c=11 v=118
333100 Par ch=2 c=11 v=119
333120 On ch=2 n=80 v=88
333120 On ch=2 n=68 v=88
333180 Off ch=2 n=70 v=64
333180 Off ch=2 n=82 v=64
333380 Off ch=2 n=68 v=64
333380 Off ch=2 n=80 v=64
333600 On ch=2 n=82 v=88
333600 On ch=2 n=70 v=88
333860 Off ch=2 n=70 v=64
333860 Off ch=2 n=82 v=64
334040 Par ch=2 c=11 v=121
334080 On ch=2 n=80 v=88
334080 On ch=2 n=68 v=88
334560 On ch=2 n=78 v=88
334560 On ch=2 n=66 v=88
334580 Off ch=2 n=68 v=64
334580 Off ch=2 n=80 v=64
334700 Par ch=2 c=11 v=120
334840 Off ch=2 n=66 v=64
334840 Off ch=2 n=78 v=64
334940 Par ch=2 c=11 v=119
335040 On ch=2 n=77 v=88
335040 On ch=2 n=65 v=88
335180 Par ch=2 c=11 v=118
335280 Off ch=2 n=65 v=64
335280 Off ch=2 n=77 v=64
335300 Par ch=2 c=11 v=117
335480 Par ch=2 c=11 v=116
335520 On ch=2 n=73 v=88
335520 On ch=2 n=61 v=88
335580 Par ch=2 c=11 v=115
335700 Par ch=2 c=11 v=117
335860 Off ch=2 n=61 v=64
335860 Off ch=2 n=73 v=64
335880 Par ch=2 c=11 v=118
335940 Par ch=2 c=11 v=120
335960 Par ch=2 c=11 v=121
336000 On ch=2 n=75 v=88
336000 On ch=2 n=63 v=88
336020 Par ch=2 c=11 v=120
336200 Par ch=2 c=11 v=119
336260 Par ch=2 c=11 v=118
336320 Par ch=2 c=11 v=117
336380 Par ch=2 c=11 v=115
336440 Par ch=2 c=11 v=113
336480 Par ch=2 c=11 v=113
336510 Par ch=2 c=11 v=112
336570 Par ch=2 c=11 v=111
336690 Par ch=2 c=11 v=110
336856 Off ch=2 n=63 v=64
336856 Off ch=2 n=75 v=64
336936 Par ch=2 c=11 v=111
336960 On ch=2 n=73 v=88
336960 On ch=2 n=61 v=88
337266 Par ch=2 c=11 v=112
337386 Par ch=2 c=11 v=113
337440 On ch=2 n=75 v=88
337440 On ch=2 n=63 v=88
337460 Off ch=2 n=61 v=64
337460 Off ch=2 n=73 v=64
337506 Par ch=2 c=11 v=114
337596 Par ch=2 c=11 v=115
337656 Par ch=2 c=11 v=116
337700 Off ch=2 n=63 v=64
337700 Off ch=2 n=75 v=64
337716 Par ch=2 c=11 v=117
337776 Par ch=2 c=11 v=118
337900 Par ch=2 c=11 v=119
337920 On ch=2 n=77 v=88
337920 On ch=2 n=65 v=88
337920 Par ch=2 c=11 v=121
338140 Par ch=2 c=11 v=120
338400 On ch=2 n=78 v=88
338400 On ch=2 n=66 v=88
338460 Off ch=2 n=65 v=64
338460 Off ch=2 n=77 v=64
338660 Off ch=2 n=66 v=64
338660 Off ch=2 n=78 v=64
338880 On ch=2 n=80 v=88
338880 On ch=2 n=68 v=88
338980 Par ch=2 c=11 v=119
339100 Off ch=2 n=68 v=64
339100 Off ch=2 n=80 v=64
339280 Par ch=2 c=11 v=118
339360 On ch=2 n=82 v=88
339360 On ch=2 n=70 v=88
339520 Par ch=2 c=11 v=117
339580 Off ch=2 n=70 v=64
339580 Off ch=2 n=82 v=64
339760 Par ch=2 c=11 v=116
339840 On ch=2 n=75 v=88
339840 On ch=2 n=63 v=88
339900 Par ch=2 c=11 v=115
339980 Par ch=2 c=11 v=114
340160 Par ch=2 c=11 v=113
340220 Par ch=2 c=11 v=112
340280 Par ch=2 c=11 v=110
340340 Par ch=2 c=11 v=108
340400 Par ch=2 c=11 v=105
340460 Par ch=2 c=11 v=103
340520 Par ch=2 c=11 v=100
340560 Off ch=2 n=63 v=64
340560 Off ch=2 n=75 v=64
340580 Par ch=2 c=11 v=96
340640 Par ch=2 c=11 v=92
340680 Par ch=2 c=11 v=89
340776 Par ch=2 c=11 v=120
341106 Par ch=2 c=11 v=121
341226 Par ch=2 c=11 v=122
341316 Par ch=2 c=11 v=123
341406 Par ch=2 c=11 v=124
341496 Par ch=2 c=11 v=125
341556 Par ch=2 c=11 v=126
341616 Par ch=2 c=11 v=127
341676 Par ch=2 c=11 v=127
341736 Par ch=2 c=11 v=127
342720 On ch=2 n=70 v=88
342720 On ch=2 n=82 v=88
342980 Off ch=2 n=82 v=64
342980 Off ch=2 n=70 v=64
343200 On ch=2 n=73 v=88
343200 On ch=2 n=85 v=88
343460 Off ch=2 n=85 v=64
343460 Off ch=2 n=73 v=64
343680 On ch=2 n=73 v=88
343680 On ch=2 n=85 v=88
344160 On ch=2 n=75 v=88
344160 On ch=2 n=87 v=88
344180 Off ch=2 n=85 v=64
344180 Off ch=2 n=73 v=64
344420 Off ch=2 n=87 v=64
344420 Off ch=2 n=75 v=64
344640 On ch=2 n=70 v=88
344640 On ch=2 n=82 v=88
344900 Off ch=2 n=82 v=64
344900 Off ch=2 n=70 v=64
345120 On ch=2 n=68 v=88
345120 On ch=2 n=80 v=88
345380 Off ch=2 n=80 v=64
345380 Off ch=2 n=68 v=64
345600 On ch=2 n=70 v=88
345600 On ch=2 n=82 v=88
346380 Off ch=2 n=82 v=64
346380 Off ch=2 n=70 v=64
346560 On ch=2 n=68 v=88
346560 On ch=2 n=80 v=88
347040 On ch=2 n=70 v=88
347040 On ch=2 n=82 v=88
347100 Off ch=2 n=80 v=64
347100 Off ch=2 n=68 v=64
347300 Off ch=2 n=82 v=64
347300 Off ch=2 n=70 v=64
347520 On ch=2 n=73 v=88
347520 On ch=2 n=85 v=88
348000 On ch=2 n=75 v=88
348000 On ch=2 n=87 v=88
348040 Off ch=2 n=85 v=64
348040 Off ch=2 n=73 v=64
348260 Off ch=2 n=87 v=64
348260 Off ch=2 n=75 v=64
348480 On ch=2 n=70 v=88
348480 On ch=2 n=82 v=88
348740 Off ch=2 n=82 v=64
348740 Off ch=2 n=70 v=64
348960 On ch=2 n=68 v=88
348960 On ch=2 n=80 v=88
349220 Off ch=2 n=80 v=64
349220 Off ch=2 n=68 v=64
349440 On ch=2 n=70 v=88
349440 On ch=2 n=82 v=88
350400 On ch=2 n=68 v=88
350400 On ch=2 n=80 v=88
350460 Off ch=2 n=82 v=64
350460 Off ch=2 n=70 v=64
350660 Off ch=2 n=80 v=64
350660 Off ch=2 n=68 v=64
350880 On ch=2 n=70 v=88
350880 On ch=2 n=82 v=88
351140 Off ch=2 n=82 v=64
351140 Off ch=2 n=70 v=64
351360 On ch=2 n=68 v=88
351360 On ch=2 n=80 v=88
351840 On ch=2 n=66 v=88
351840 On ch=2 n=78 v=88
351860 Off ch=2 n=80 v=64
351860 Off ch=2 n=68 v=64
352120 Off ch=2 n=78 v=64
352120 Off ch=2 n=66 v=64
352320 On ch=2 n=65 v=88
352320 On ch=2 n=77 v=88
352560 Off ch=2 n=77 v=64
352560 Off ch=2 n=65 v=64
352800 On ch=2 n=61 v=88
352800 On ch=2 n=73 v=88
353140 Off ch=2 n=73 v=64
353140 Off ch=2 n=61 v=64
353280 On ch=2 n=63 v=88
353280 On ch=2 n=75 v=88
354136 Off ch=2 n=75 v=64
354136 Off ch=2 n=63 v=64
354240 On ch=2 n=61 v=88
354240 On ch=2 n=73 v=88
354720 On ch=2 n=63 v=88
354720 On ch=2 n=75 v=88
354740 Off ch=2 n=73 v=64
354740 Off ch=2 n=61 v=64
354980 Off ch=2 n=75 v=64
354980 Off ch=2 n=63 v=64
355200 On ch=2 n=65 v=88
355200 On ch=2 n=77 v=88
355680 On ch=2 n=66 v=88
355680 On ch=2 n=78 v=88
355740 Off ch=2 n=77 v=64
355740 Off ch=2 n=65 v=64
355940 Off ch=2 n=78 v=64
355940 Off ch=2 n=66 v=64
356160 On ch=2 n=68 v=88
356160 On ch=2 n=80 v=88
356380 Off ch=2 n=80 v=64
356380 Off ch=2 n=68 v=64
356640 On ch=2 n=70 v=88
356640 On ch=2 n=82 v=88
356860 Off ch=2 n=82 v=64
356860 Off ch=2 n=70 v=64
357120 On ch=2 n=66 v=88
357120 On ch=2 n=78 v=88
357840 Off ch=2 n=78 v=64
357840 Off ch=2 n=66 v=64
358080 On ch=2 n=70 v=88
358080 On ch=2 n=82 v=88
358340 Off ch=2 n=82 v=64
358340 Off ch=2 n=70 v=64
358560 On ch=2 n=73 v=88
358560 On ch=2 n=85 v=88
358820 Off ch=2 n=85 v=64
358820 Off ch=2 n=73 v=64
359040 On ch=2 n=73 v=88
359040 On ch=2 n=85 v=88
359520 On ch=2 n=75 v=88
359520 On ch=2 n=87 v=88
359540 Off ch=2 n=85 v=64
359540 Off ch=2 n=73 v=64
359780 Off ch=2 n=87 v=64
359780 Off ch=2 n=75 v=64
360000 On ch=2 n=70 v=88
360000 On ch=2 n=82 v=88
360260 Off ch=2 n=82 v=64
360260 Off ch=2 n=70 v=64
360480 On ch=2 n=68 v=88
360480 On ch=2 n=80 v=88
360740 Off ch=2 n=80 v=64
360740 Off ch=2 n=68 v=64
360960 On ch=2 n=70 v=88
360960 On ch=2 n=82 v=88
361740 Off ch=2 n=82 v=64
361740 Off ch=2 n=70 v=64
361920 On ch=2 n=68 v=88
361920 On ch=2 n=80 v=88
362400 On ch=2 n=70 v=88
362400 On ch=2 n=82 v=88
362460 Off ch=2 n=80 v=64
362460 Off ch=2 n=68 v=64
362660 Off ch=2 n=82 v=64
362660 Off ch=2 n=70 v=64
362880 On ch=2 n=73 v=88
362880 On ch=2 n=85 v=88
363360 On ch=2 n=75 v=88
363360 On ch=2 n=87 v=88
363400 Off ch=2 n=85 v=64
363400 Off ch=2 n=73 v=64
363620 Off ch=2 n=87 v=64
363620 Off ch=2 n=75 v=64
363840 On ch=2 n=75 v=88
363840 On ch=2 n=87 v=88
364100 Off ch=2 n=87 v=64
364100 Off ch=2 n=75 v=64
364320 On ch=2 n=77 v=88
364320 On ch=2 n=89 v=88
364580 Off ch=2 n=89 v=64
364580 Off ch=2 n=77 v=64
364800 On ch=2 n=78 v=88
364800 On ch=2 n=90 v=88
365280 On ch=2 n=77 v=88
365280 On ch=2 n=89 v=88
365300 Off ch=2 n=90 v=64
365300 Off ch=2 n=78 v=64
365560 Off ch=2 n=89 v=64
365560 Off ch=2 n=77 v=64
365760 On ch=2 n=75 v=88
365760 On ch=2 n=87 v=88
366000 Off ch=2 n=87 v=64
366000 Off ch=2 n=75 v=64
366240 On ch=2 n=73 v=88
366240 On ch=2 n=85 v=88
366580 Off ch=2 n=85 v=64
366580 Off ch=2 n=73 v=64
366720 On ch=2 n=70 v=88
366720 On ch=2 n=82 v=88
367648 Off ch=2 n=82 v=64
367648 Off ch=2 n=70 v=64
367680 On ch=2 n=68 v=88
367680 On ch=2 n=80 v=88
368160 On ch=2 n=70 v=88
368160 On ch=2 n=82 v=88
368180 Off ch=2 n=80 v=64
368180 Off ch=2 n=68 v=64
368420 Off ch=2 n=82 v=64
368420 Off ch=2 n=70 v=64
368640 On ch=2 n=68 v=88
368640 On ch=2 n=80 v=88
368640 Par ch=2 c=11 v=127
369120 On ch=2 n=66 v=88
369120 On ch=2 n=78 v=88
369180 Off ch=2 n=80 v=64
369180 Off ch=2 n=68 v=64
369380 Off ch=2 n=78 v=64
369380 Off ch=2 n=66 v=64
369600 On ch=2 n=65 v=88
369600 On ch=2 n=77 v=88
369820 Off ch=2 n=77 v=64
369820 Off ch=2 n=65 v=64
370080 On ch=2 n=61 v=88
370080 On ch=2 n=73 v=88
370300 Off ch=2 n=73 v=64
370300 Off ch=2 n=61 v=64
370560 On ch=2 n=63 v=88
370560 On ch=2 n=75 v=88
370992 Off ch=2 n=63 v=64
371024 Off ch=2 n=75 v=64
371376 Par ch=2 c=11 v=86
371520 On ch=2 n=70 v=88
371520 On ch=2 n=82 v=88
371616 Par ch=2 c=11 v=87
371706 Par ch=2 c=11 v=88
371780 Off ch=2 n=82 v=64
371780 Off ch=2 n=70 v=64
371796 Par ch=2 c=11 v=89
371856 Par ch=2 c=11 v=90
371916 Par ch=2 c=11 v=91
371946 Par ch=2 c=11 v=92
372000 On ch=2 n=73 v=88
372000 On ch=2 n=85 v=88
372006 Par ch=2 c=11 v=93
372036 Par ch=2 c=11 v=94
372096 Par ch=2 c=11 v=95
372126 Par ch=2 c=11 v=96
372156 Par ch=2 c=11 v=97
372186 Par ch=2 c=11 v=98
372216 Par ch=2 c=11 v=99
372246 Par ch=2 c=11 v=100
372260 Off ch=2 n=85 v=64
372260 Off ch=2 n=73 v=64
372276 Par ch=2 c=11 v=101
372306 Par ch=2 c=11 v=102
372336 Par ch=2 c=11 v=103
372360 Par ch=2 c=11 v=104
372480 On ch=2 n=73 v=88
372480 Par ch=2 c=11 v=100
372480 On ch=2 n=85 v=88
372960 On ch=2 n=75 v=88
372960 On ch=2 n=87 v=88
372980 Off ch=2 n=85 v=64
372980 Off ch=2 n=73 v=64
373020 Par ch=2 c=11 v=102
373200 Par ch=2 c=11 v=101
373220 Off ch=2 n=87 v=64
373220 Off ch=2 n=75 v=64
373380 Par ch=2 c=11 v=100
373440 On ch=2 n=70 v=88
373440 On ch=2 n=82 v=88
373500 Par ch=2 c=11 v=99
373620 Par ch=2 c=11 v=98
373700 Off ch=2 n=82 v=64
373700 Off ch=2 n=70 v=64
373740 Par ch=2 c=11 v=97
373860 Par ch=2 c=11 v=96
373900 Par ch=2 c=11 v=95
373920 On ch=2 n=68 v=88
373920 On ch=2 n=80 v=88
373980 Par ch=2 c=11 v=95
374180 Off ch=2 n=80 v=64
374180 Off ch=2 n=68 v=64
374220 Par ch=2 c=11 v=96
374300 Par ch=2 c=11 v=97
374380 Par ch=2 c=11 v=100
374400 On ch=2 n=70 v=88
374400 On ch=2 n=82 v=88
374560 Par ch=2 c=11 v=99
374620 Par ch=2 c=11 v=98
374680 Par ch=2 c=11 v=97
374740 Par ch=2 c=11 v=96
374800 Par ch=2 c=11 v=94
374860 Par ch=2 c=11 v=92
374920 Par ch=2 c=11 v=90
374980 Par ch=2 c=11 v=87
375040 Par ch=2 c=11 v=84
375100 Par ch=2 c=11 v=81
375160 Par ch=2 c=11 v=78
375180 Off ch=2 n=82 v=64
375180 Off ch=2 n=70 v=64
375220 Par ch=2 c=11 v=74
375320 Par ch=2 c=11 v=98
375360 On ch=2 n=68 v=88
375360 On ch=2 n=80 v=88
375620 Par ch=2 c=11 v=97
375680 Par ch=2 c=11 v=96
375740 Par ch=2 c=11 v=95
375780 Par ch=2 c=11 v=96
375840 On ch=2 n=70 v=88
375840 On ch=2 n=82 v=88
375900 Off ch=2 n=80 v=64
375900 Off ch=2 n=68 v=64
375900 Par ch=2 c=11 v=97
376020 Par ch=2 c=11 v=98
376100 Off ch=2 n=82 v=64
376100 Off ch=2 n=70 v=64
376140 Par ch=2 c=11 v=99
376180 Par ch=2 c=11 v=100
376300 Par ch=2 c=11 v=103
376320 On ch=2 n=73 v=88
376320 On ch=2 n=85 v=88
376800 On ch=2 n=75 v=88
376800 On ch=2 n=87 v=88
376840 Off ch=2 n=85 v=64
376840 Off ch=2 n=73 v=64
377020 Par ch=2 c=11 v=102
377060 Off ch=2 n=87 v=64
377060 Off ch=2 n=75 v=64
377260 Par ch=2 c=11 v=101
377280 On ch=2 n=70 v=88
377280 On ch=2 n=82 v=88
377500 Par ch=2 c=11 v=100
377540 Off ch=2 n=82 v=64
377540 Off ch=2 n=70 v=64
377680 Par ch=2 c=11 v=99
377760 On ch=2 n=68 v=88
377760 On ch=2 n=80 v=88
377800 Par ch=2 c=11 v=98
377920 Par ch=2 c=11 v=97
378020 Off ch=2 n=80 v=64
378020 Off ch=2 n=68 v=64
378020 Par ch=2 c=11 v=95
378240 On ch=2 n=70 v=88
378240 On ch=2 n=82 v=88
378260 Par ch=2 c=11 v=88
378320 Par ch=2 c=11 v=87
378380 Par ch=2 c=11 v=86
378400 Par ch=2 c=11 v=85
378500 Par ch=2 c=11 v=85
378620 Par ch=2 c=11 v=86
378740 Par ch=2 c=11 v=87
378800 Par ch=2 c=11 v=88
378920 Par ch=2 c=11 v=89
378980 Par ch=2 c=11 v=90
379040 Par ch=2 c=11 v=91
379100 Par ch=2 c=11 v=92
379160 Par ch=2 c=11 v=93
379180 Par ch=2 c=11 v=94
379200 On ch=2 n=68 v=88
379200 On ch=2 n=80 v=88
379260 Off ch=2 n=82 v=64
379260 Off ch=2 n=70 v=64
379460 Off ch=2 n=80 v=64
379460 Off ch=2 n=68 v=64
379680 On ch=2 n=70 v=88
379680 On ch=2 n=82 v=88
379940 Off ch=2 n=82 v=64
379940 Off ch=2 n=70 v=64
380120 Par ch=2 c=11 v=96
380160 On ch=2 n=68 v=88
380160 On ch=2 n=80 v=88
380640 On ch=2 n=66 v=88
380640 On ch=2 n=78 v=88
380660 Off ch=2 n=80 v=64
380660 Off ch=2 n=68 v=64
380780 Par ch=2 c=11 v=95
380920 Off ch=2 n=78 v=64
380920 Off ch=2 n=66 v=64
381020 Par ch=2 c=11 v=94
381120 On ch=2 n=65 v=88
381120 On ch=2 n=77 v=88
381260 Par ch=2 c=11 v=93
381360 Off ch=2 n=77 v=64
381360 Off ch=2 n=65 v=64
381380 Par ch=2 c=11 v=92
381560 Par ch=2 c=11 v=91
381600 On ch=2 n=61 v=88
381600 On ch=2 n=73 v=88
381660 Par ch=2 c=11 v=90
381780 Par ch=2 c=11 v=92
381940 Off ch=2 n=73 v=64
381940 Off ch=2 n=61 v=64
381960 Par ch=2 c=11 v=93
382020 Par ch=2 c=11 v=95
382040 Par ch=2 c=11 v=96
382080 On ch=2 n=63 v=88
382080 On ch=2 n=75 v=88
382100 Par ch=2 c=11 v=95
382280 Par ch=2 c=11 v=94
382340 Par ch=2 c=11 v=93
382400 Par ch=2 c=11 v=92
382456 Off ch=2 n=63 v=64
382460 Par ch=2 c=11 v=90
382520 Par ch=2 c=11 v=88
382560 On ch=2 n=75 v=88
382580 Par ch=2 c=11 v=86
382632 Par ch=2 c=11 v=83
382662 Par ch=2 c=11 v=84
382722 Par ch=2 c=11 v=85
382782 Par ch=2 c=11 v=86
382902 Par ch=2 c=11 v=87
382992 Par ch=2 c=11 v=89
383040 On ch=2 n=77 v=88
383040 On ch=2 n=73 v=88
383056 Off ch=2 n=75 v=64
383064 Off ch=2 n=75 v=64
383252 Off ch=2 n=73 v=64
383322 Par ch=2 c=11 v=90
383328 Off ch=2 n=77 v=64
383442 Par ch=2 c=11 v=91
383520 On ch=2 n=78 v=88
383520 On ch=2 n=75 v=88
383562 Par ch=2 c=11 v=92
383652 Par ch=2 c=11 v=93
383712 Par ch=2 c=11 v=94
383772 Par ch=2 c=11 v=95
383780 Off ch=2 n=75 v=64
383808 Off ch=2 n=78 v=64
383832 Par ch=2 c=11 v=96
383980 Par ch=2 c=11 v=94
384000 On ch=2 n=80 v=88
384000 On ch=2 n=77 v=88
384220 Par ch=2 c=11 v=92
384480 On ch=2 n=82 v=88
384480 On ch=2 n=78 v=88
384528 Off ch=2 n=80 v=64
384540 Off ch=2 n=77 v=64
384740 Off ch=2 n=78 v=64
384768 Off ch=2 n=82 v=64
384960 On ch=2 n=83 v=88
384960 On ch=2 n=80 v=88
385060 Par ch=2 c=11 v=91
385180 Off ch=2 n=80 v=64
385248 Off ch=2 n=83 v=64
385360 Par ch=2 c=11 v=90
385440 On ch=2 n=85 v=88
385440 On ch=2 n=82 v=88
385600 Par ch=2 c=11 v=89
385660 Off ch=2 n=82 v=64
385728 Off ch=2 n=85 v=64
385840 Par ch=2 c=11 v=88
385920 On ch=2 n=87 v=88
385920 On ch=2 n=75 v=88
385980 Par ch=2 c=11 v=87
386060 Par ch=2 c=11 v=86
386240 Par ch=2 c=11 v=85
386300 Par ch=2 c=11 v=84
386360 Par ch=2 c=11 v=82
386400 Off ch=2 n=87 v=64
386420 Par ch=2 c=11 v=80
386480 Par ch=2 c=11 v=77
386540 Par ch=2 c=11 v=75
386600 Par ch=2 c=11 v=72
386640 Off ch=2 n=75 v=64
386660 Par ch=2 c=11 v=68
386720 Par ch=2 c=11 v=64
386760 Par ch=2 c=11 v=61
386880 On ch=2 n=82 v=88
386880 Par ch=2 c=11 v=90
387140 Off ch=2 n=82 v=64
387150 Par ch=2 c=11 v=91
387270 Par ch=2 c=11 v=92
387330 Par ch=2 c=11 v=93
387360 On ch=2 n=85 v=88
387420 Par ch=2 c=11 v=94
387480 Par ch=2 c=11 v=95
387510 Par ch=2 c=11 v=96
387570 Par ch=2 c=11 v=97
387620 Off ch=2 n=85 v=64
387630 Par ch=2 c=11 v=98
387648 Par ch=2 c=11 v=99
387840 On ch=2 n=85 v=88
387840 Par ch=2 c=11 v=103
388320 On ch=2 n=87 v=88
388340 Off ch=2 n=85 v=64
388380 Par ch=2 c=11 v=102
388560 Par ch=2 c=11 v=101
388580 Off ch=2 n=87 v=64
388740 Par ch=2 c=11 v=100
388800 On ch=2 n=82 v=88
388860 Par ch=2 c=11 v=99
388980 Par ch=2 c=11 v=98
389060 Off ch=2 n=82 v=64
389100 Par ch=2 c=11 v=97
389220 Par ch=2 c=11 v=96
389260 Par ch=2 c=11 v=95
389280 On ch=2 n=80 v=88
389340 Par ch=2 c=11 v=95
389540 Off ch=2 n=80 v=64
389580 Par ch=2 c=11 v=96
389660 Par ch=2 c=11 v=97
389740 Par ch=2 c=11 v=100
389760 On ch=2 n=82 v=88
389920 Par ch=2 c=11 v=99
389980 Par ch=2 c=11 v=98
390040 Par ch=2 c=11 v=97
390100 Par ch=2 c=11 v=96
390160 Par ch=2 c=11 v=94
390220 Par ch=2 c=11 v=92
390280 Par ch=2 c=11 v=90
390340 Par ch=2 c=11 v=87
390400 Par ch=2 c=11 v=84
390460 Par ch=2 c=11 v=81
390520 Par ch=2 c=11 v=78
390540 Off ch=2 n=82 v=64
390580 Par ch=2 c=11 v=74
390680 Par ch=2 c=11 v=98
390720 On ch=2 n=80 v=88
390980 Par ch=2 c=11 v=97
391040 Par ch=2 c=11 v=96
391100 Par ch=2 c=11 v=95
391140 Par ch=2 c=11 v=96
391200 On ch=2 n=82 v=88
391260 Off ch=2 n=80 v=64
391260 Par ch=2 c=11 v=97
391380 Par ch=2 c=11 v=98
391460 Off ch=2 n=82 v=64
391500 Par ch=2 c=11 v=99
391540 Par ch=2 c=11 v=100
391660 Par ch=2 c=11 v=103
391680 On ch=2 n=85 v=88
391680 Par ch=2 c=11 v=102
392160 On ch=2 n=87 v=88
392200 Off ch=2 n=85 v=64
392420 Off ch=2 n=87 v=64
392640 On ch=2 n=82 v=88
392900 Off ch=2 n=82 v=64
393120 On ch=2 n=80 v=88
393270 Par ch=2 c=11 v=103
393380 Off ch=2 n=80 v=64
393600 On ch=2 n=82 v=88
393900 Par ch=2 c=11 v=104
394410 Par ch=2 c=11 v=105
394560 On ch=2 n=87 v=88
394620 Off ch=2 n=82 v=64
394820 Off ch=2 n=87 v=64
394830 Par ch=2 c=11 v=106
395040 On ch=2 n=89 v=88
395190 Par ch=2 c=11 v=107
395300 Off ch=2 n=89 v=64
395520 On ch=2 n=90 v=88
395520 Par ch=2 c=11 v=113
396000 On ch=2 n=89 v=88
396020 Off ch=2 n=90 v=64
396280 Off ch=2 n=89 v=64
396480 On ch=2 n=87 v=88
396600 Par ch=2 c=11 v=112
396720 Off ch=2 n=87 v=64
396960 On ch=2 n=85 v=88
397050 Par ch=2 c=11 v=111
397156 Off ch=2 n=85 v=64
397380 Par ch=2 c=11 v=110
397440 On ch=2 n=82 v=88
397680 Par ch=2 c=11 v=109
397920 Par ch=2 c=11 v=108
398130 Par ch=2 c=11 v=107
398340 Par ch=2 c=11 v=106
398368 Off ch=2 n=82 v=64
398400 On ch=2 n=80 v=88
398550 Par ch=2 c=11 v=105
398730 Par ch=2 c=11 v=104
398880 On ch=2 n=82 v=88
398900 Off ch=2 n=80 v=64
398910 Par ch=2 c=11 v=103
399060 Par ch=2 c=11 v=102
399140 Off ch=2 n=82 v=64
399210 Par ch=2 c=11 v=101
399360 On ch=2 n=80 v=88
399360 Par ch=2 c=11 v=100
399840 On ch=2 n=78 v=88
399900 Off ch=2 n=80 v=64
399990 Par ch=2 c=11 v=101
400100 Off ch=2 n=78 v=64
400248 Par ch=2 c=11 v=102
400320 On ch=2 n=77 v=88
400368 Par ch=2 c=11 v=102
400540 Off ch=2 n=77 v=64
400698 Par ch=2 c=11 v=101
400800 On ch=2 n=73 v=88
400818 Par ch=2 c=11 v=100
400908 Par ch=2 c=11 v=99
400998 Par ch=2 c=11 v=98
401020 Off ch=2 n=73 v=64
401058 Par ch=2 c=11 v=97
401118 Par ch=2 c=11 v=96
401178 Par ch=2 c=11 v=95
401238 Par ch=2 c=11 v=94
401280 On ch=2 n=75 v=88
401298 Par ch=2 c=11 v=93
401358 Par ch=2 c=11 v=92
401388 Par ch=2 c=11 v=91
401448 Par ch=2 c=11 v=90
401478 Par ch=2 c=11 v=89
401538 Par ch=2 c=11 v=88
401568 Par ch=2 c=11 v=87
401598 Par ch=2 c=11 v=86
401658 Par ch=2 c=11 v=85
401688 Par ch=2 c=11 v=84
401718 Par ch=2 c=11 v=83
401736 Par ch=2 c=11 v=82
401780 Par ch=2 c=11 v=80
401840 Par ch=2 c=11 v=77
401900 Par ch=2 c=11 v=75
401960 Par ch=2 c=11 v=72
402000 Off ch=2 n=75 v=64
402020 Par ch=2 c=11 v=68
402080 Par ch=2 c=11 v=64
402120 Par ch=2 c=11 v=61
433920 Par ch=2 c=11 v=121
433920 On ch=2 n=76 v=88
434400 On ch=2 n=84 v=88
434416 Off ch=2 n=76 v=64
434640 Off ch=2 n=84 v=64
434640 On ch=2 n=88 v=88
434848 Off ch=2 n=88 v=64
435120 On ch=2 n=88 v=88
435360 On ch=2 n=86 v=88
435392 Off ch=2 n=88 v=64
435600 On ch=2 n=88 v=88
435632 Off ch=2 n=86 v=64
435808 Off ch=2 n=88 v=64
435840 On ch=2 n=76 v=88
436320 On ch=2 n=84 v=88
436336 Off ch=2 n=76 v=64
436560 Off ch=2 n=84 v=64
436560 On ch=2 n=88 v=88
436768 Off ch=2 n=88 v=64
437056 On ch=2 n=88 v=88
437296 On ch=2 n=86 v=88
437328 Off ch=2 n=88 v=64
437536 On ch=2 n=88 v=88
437568 Off ch=2 n=86 v=64
437744 Off ch=2 n=88 v=64
437760 On ch=2 n=76 v=88
438240 On ch=2 n=81 v=88
438256 Off ch=2 n=76 v=64
438480 Off ch=2 n=81 v=64
438480 On ch=2 n=88 v=88
438688 Off ch=2 n=88 v=64
438976 On ch=2 n=88 v=88
439216 On ch=2 n=86 v=88
439248 Off ch=2 n=88 v=64
439456 On ch=2 n=88 v=88
439488 Off ch=2 n=86 v=64
439664 Off ch=2 n=88 v=64
439680 On ch=2 n=76 v=88
440160 On ch=2 n=81 v=88
440176 Off ch=2 n=76 v=64
440400 Off ch=2 n=81 v=64
440400 On ch=2 n=88 v=88
440608 Off ch=2 n=88 v=64
440896 On ch=2 n=88 v=88
441136 On ch=2 n=86 v=88
441168 Off ch=2 n=88 v=64
441376 On ch=2 n=88 v=88
441408 Off ch=2 n=86 v=64
441584 Off ch=2 n=88 v=64
441600 On ch=2 n=76 v=88
442080 On ch=2 n=83 v=88
442096 Off ch=2 n=76 v=64
442320 Off ch=2 n=83 v=64
442320 On ch=2 n=88 v=88
442528 Off ch=2 n=88 v=64
442816 On ch=2 n=88 v=88
443056 On ch=2 n=86 v=88
443088 Off ch=2 n=88 v=64
443296 On ch=2 n=88 v=88
443328 Off ch=2 n=86 v=64
443504 Off ch=2 n=88 v=64
443520 On ch=2 n=76 v=88
444000 On ch=2 n=83 v=88
444016 Off ch=2 n=76 v=64
444240 Off ch=2 n=83 v=64
444240 On ch=2 n=88 v=88
444448 Off ch=2 n=88 v=64
444736 On ch=2 n=88 v=88
444976 On ch=2 n=86 v=88
445008 Off ch=2 n=88 v=64
445216 On ch=2 n=88 v=88
445248 Off ch=2 n=86 v=64
445424 Off ch=2 n=88 v=64
445440 On ch=2 n=76 v=88
445920 On ch=2 n=83 v=88
445936 Off ch=2 n=76 v=64
446160 Off ch=2 n=83 v=64
446160 On ch=2 n=88 v=88
446368 Off ch=2 n=88 v=64
446656 On ch=2 n=88 v=88
446896 On ch=2 n=86 v=88
446928 Off ch=2 n=88 v=64
447136 On ch=2 n=88 v=88
447168 Off ch=2 n=86 v=64
447344 Off ch=2 n=88 v=64
447360 On ch=2 n=76 v=88
447840 On ch=2 n=83 v=88
447856 Off ch=2 n=76 v=64
448080 Off ch=2 n=83 v=64
448080 On ch=2 n=88 v=88
448288 Off ch=2 n=88 v=64
448576 On ch=2 n=88 v=88
448816 On ch=2 n=86 v=88
448848 Off ch=2 n=88 v=64
449056 On ch=2 n=88 v=88
449088 Off ch=2 n=86 v=64
449264 Off ch=2 n=88 v=64
449280 On ch=2 n=76 v=88
449760 On ch=2 n=84 v=88
449776 Off ch=2 n=76 v=64
450000 Off ch=2 n=84 v=64
450000 On ch=2 n=88 v=88
450208 Off ch=2 n=88 v=64
450480 On ch=2 n=88 v=88
450720 On ch=2 n=86 v=88
450752 Off ch=2 n=88 v=64
450960 On ch=2 n=88 v=88
450992 Off ch=2 n=86 v=64
451168 Off ch=2 n=88 v=64
451200 On ch=2 n=76 v=88
451680 On ch=2 n=84 v=88
451696 Off ch=2 n=76 v=64
451920 Off ch=2 n=84 v=64
451920 On ch=2 n=88 v=88
452128 Off ch=2 n=88 v=64
452416 On ch=2 n=88 v=88
452656 On ch=2 n=86 v=88
452688 Off ch=2 n=88 v=64
452896 On ch=2 n=88 v=88
452928 Off ch=2 n=86 v=64
453104 Off ch=2 n=88 v=64
453120 On ch=2 n=76 v=88
453600 On ch=2 n=81 v=88
453616 Off ch=2 n=76 v=64
453840 Off ch=2 n=81 v=64
453840 On ch=2 n=88 v=88
454048 Off ch=2 n=88 v=64
454336 On ch=2 n=88 v=88
454576 On ch=2 n=86 v=88
454608 Off ch=2 n=88 v=64
454816 On ch=2 n=88 v=88
454848 Off ch=2 n=86 v=64
455024 Off ch=2 n=88 v=64
455040 On ch=2 n=76 v=88
455520 On ch=2 n=81 v=88
455536 Off ch=2 n=76 v=64
455760 Off ch=2 n=81 v=64
455760 On ch=2 n=88 v=88
455968 Off ch=2 n=88 v=64
456256 On ch=2 n=88 v=88
456496 On ch=2 n=86 v=88
456528 Off ch=2 n=88 v=64
456736 On ch=2 n=88 v=88
456768 Off ch=2 n=86 v=64
456944 Off ch=2 n=88 v=64
456960 On ch=2 n=76 v=88
457440 On ch=2 n=83 v=88
457456 Off ch=2 n=76 v=64
457680 Off ch=2 n=83 v=64
457680 On ch=2 n=88 v=88
457888 Off ch=2 n=88 v=64
458176 On ch=2 n=88 v=88
458416 On ch=2 n=86 v=88
458448 Off ch=2 n=88 v=64
458656 On ch=2 n=88 v=88
458688 Off ch=2 n=86 v=64
458864 Off ch=2 n=88 v=64
458880 On ch=2 n=76 v=88
459360 On ch=2 n=83 v=88
459376 Off ch=2 n=76 v=64
459600 Off ch=2 n=83 v=64
459600 On ch=2 n=88 v=88
459808 Off ch=2 n=88 v=64
460096 On ch=2 n=88 v=88
460336 On ch=2 n=86 v=88
460368 Off ch=2 n=88 v=64
460576 On ch=2 n=88 v=88
460608 Off ch=2 n=86 v=64
460784 Off ch=2 n=88 v=64
460800 On ch=2 n=76 v=88
461280 On ch=2 n=83 v=88
461296 Off ch=2 n=76 v=64
461520 Off ch=2 n=83 v=64
461520 On ch=2 n=88 v=88
461728 Off ch=2 n=88 v=64
462016 On ch=2 n=88 v=88
462256 On ch=2 n=86 v=88
462288 Off ch=2 n=88 v=64
462496 On ch=2 n=88 v=88
462528 Off ch=2 n=86 v=64
462704 Off ch=2 n=88 v=64
462720 On ch=2 n=76 v=88
463216 Off ch=2 n=76 v=64
463216 Meta TrkEnd
TrkEnd
MTrk
0 SeqSpec 43 00 01 ff
0 Meta TrkName "Oboe"
1920 PrCh ch=3 p=2
1930 Par ch=3 c=7 v=83
1940 Par ch=3 c=10 v=64
1950 Par ch=3 c=11 v=127
1960 Par ch=3 c=20 v=127
1970 Par ch=3 c=91 v=0
1980 Par ch=3 c=93 v=0
1990 Par ch=3 c=94 v=0
2000 Par ch=3 c=101 v=0
2010 Par ch=3 c=100 v=0
2020 Par ch=3 c=6 v=2
2030 Par ch=3 c=101 v=127
2040 Par ch=3 c=100 v=127
92160 On ch=3 n=68 v=88
92160 Par ch=3 c=11 v=79
92400 Off ch=3 n=68 v=64
92970 Par ch=3 c=11 v=80
93120 On ch=3 n=70 v=88
93300 Par ch=3 c=11 v=81
93360 Off ch=3 n=70 v=64
93540 Par ch=3 c=11 v=82
93750 Par ch=3 c=11 v=83
93960 Par ch=3 c=11 v=84
94080 On ch=3 n=72 v=88
94080 On ch=3 n=70 v=88
94110 Par ch=3 c=11 v=85
94290 Par ch=3 c=11 v=86
94320 Off ch=3 n=70 v=64
94320 Off ch=3 n=72 v=64
94410 Par ch=3 c=11 v=87
94560 Par ch=3 c=11 v=88
94680 Par ch=3 c=11 v=89
94800 Par ch=3 c=11 v=90
94920 Par ch=3 c=11 v=91
95040 On ch=3 n=74 v=88
95040 Par ch=3 c=11 v=92
95040 On ch=3 n=70 v=88
95160 Par ch=3 c=11 v=93
95250 Par ch=3 c=11 v=94
95280 Off ch=3 n=70 v=64
95280 Off ch=3 n=74 v=64
95340 Par ch=3 c=11 v=95
95460 Par ch=3 c=11 v=96
95550 Par ch=3 c=11 v=97
95640 Par ch=3 c=11 v=98
95712 Par ch=3 c=11 v=99
96000 On ch=3 n=78 v=100
96000 On ch=3 n=70 v=100
96000 Par ch=3 c=11 v=52
97410 Par ch=3 c=11 v=53
97980 Par ch=3 c=11 v=54
98430 Par ch=3 c=11 v=55
98790 Par ch=3 c=11 v=56
99120 Par ch=3 c=11 v=57
99420 Par ch=3 c=11 v=58
99690 Par ch=3 c=11 v=59
99930 Par ch=3 c=11 v=60
100170 Par ch=3 c=11 v=61
100410 Par ch=3 c=11 v=62
100620 Par ch=3 c=11 v=63
100830 Par ch=3 c=11 v=64
101010 Par ch=3 c=11 v=65
101220 Par ch=3 c=11 v=66
101376 Par ch=3 c=11 v=67
101760 Par ch=3 c=11 v=67
102270 Par ch=3 c=11 v=66
102480 Par ch=3 c=11 v=65
102630 Par ch=3 c=11 v=64
102780 Par ch=3 c=11 v=63
102870 Par ch=3 c=11 v=62
102990 Par ch=3 c=11 v=61
103080 Par ch=3 c=11 v=60
103170 Par ch=3 c=11 v=59
103260 Par ch=3 c=11 v=58
103350 Par ch=3 c=11 v=57
103410 Par ch=3 c=11 v=56
103500 Par ch=3 c=11 v=55
103560 Par ch=3 c=11 v=54
103616 Par ch=3 c=11 v=53
103680 Off ch=3 n=70 v=100
103680 Off ch=3 n=78 v=100
103680 On ch=3 n=78 v=100
103680 On ch=3 n=71 v=100
103680 Par ch=3 c=11 v=56
104880 Par ch=3 c=11 v=57
105360 Par ch=3 c=11 v=58
105750 Par ch=3 c=11 v=59
106080 Par ch=3 c=11 v=60
106336 Par ch=3 c=11 v=61
107520 Off ch=3 n=71 v=100
107520 Off ch=3 n=78 v=100
107520 On ch=3 n=80 v=100
107520 On ch=3 n=70 v=100
107520 Par ch=3 c=11 v=53
108000 Par ch=3 c=11 v=54
108210 Par ch=3 c=11 v=55
108360 Par ch=3 c=11 v=56
108480 Par ch=3 c=11 v=57
108600 Par ch=3 c=11 v=58
108720 Par ch=3 c=11 v=59
108810 Par ch=3 c=11 v=60
108900 Par ch=3 c=11 v=61
108960 Par ch=3 c=11 v=62
109050 Par ch=3 c=11 v=63
109110 Par ch=3 c=11 v=64
109200 Par ch=3 c=11 v=65
109248 Par ch=3 c=11 v=66
109440 Off ch=3 n=70 v=100
109440 Off ch=3 n=80 v=100
109440 On ch=3 n=77 v=100
109440 On ch=3 n=70 v=100
109664 Par ch=3 c=11 v=64
110024 Par ch=3 c=11 v=63
110174 Par ch=3 c=11 v=62
110294 Par ch=3 c=11 v=61
110384 Par ch=3 c=11 v=60
110474 Par ch=3 c=11 v=59
110534 Par ch=3 c=11 v=58
110594 Par ch=3 c=11 v=57
110654 Par ch=3 c=11 v=56
110714 Par ch=3 c=11 v=55
110774 Par ch=3 c=11 v=54
110834 Par ch=3 c=11 v=53
110894 Par ch=3 c=11 v=52
110924 Par ch=3 c=11 v=51
110984 Par ch=3 c=11 v=50
111044 Par ch=3 c=11 v=49
111074 Par ch=3 c=11 v=48
111104 Par ch=3 c=11 v=47
111360 Off ch=3 n=70 v=100
111360 Off ch=3 n=77 v=100
111360 On ch=3 n=70 v=100
111360 On ch=3 n=78 v=100
111360 Par ch=3 c=11 v=52
112770 Par ch=3 c=11 v=53
113340 Par ch=3 c=11 v=54
113790 Par ch=3 c=11 v=55
114150 Par ch=3 c=11 v=56
114480 Par ch=3 c=11 v=57
114780 Par ch=3 c=11 v=58
115050 Par ch=3 c=11 v=59
115290 Par ch=3 c=11 v=60
115530 Par ch=3 c=11 v=61
115770 Par ch=3 c=11 v=62
115980 Par ch=3 c=11 v=63
116190 Par ch=3 c=11 v=64
116370 Par ch=3 c=11 v=65
116580 Par ch=3 c=11 v=66
116736 Par ch=3 c=11 v=67
117120 Par ch=3 c=11 v=67
117630 Par ch=3 c=11 v=66
117840 Par ch=3 c=11 v=65
117990 Par ch=3 c=11 v=64
118140 Par ch=3 c=11 v=63
118230 Par ch=3 c=11 v=62
118350 Par ch=3 c=11 v=61
118440 Par ch=3 c=11 v=60
118530 Par ch=3 c=11 v=59
118620 Par ch=3 c=11 v=58
118710 Par ch=3 c=11 v=57
118770 Par ch=3 c=11 v=56
118860 Par ch=3 c=11 v=55
118920 Par ch=3 c=11 v=54
118976 Par ch=3 c=11 v=53
119040 Off ch=3 n=78 v=100
119040 Off ch=3 n=70 v=100
119040 On ch=3 n=71 v=100
119040 On ch=3 n=78 v=100
119040 Par ch=3 c=11 v=56
120240 Par ch=3 c=11 v=57
120720 Par ch=3 c=11 v=58
121110 Par ch=3 c=11 v=59
121440 Par ch=3 c=11 v=60
121696 Par ch=3 c=11 v=61
122880 Off ch=3 n=78 v=100
122880 Off ch=3 n=71 v=100
122880 On ch=3 n=70 v=100
122880 On ch=3 n=80 v=100
122880 Par ch=3 c=11 v=53
123360 Par ch=3 c=11 v=54
123570 Par ch=3 c=11 v=55
123720 Par ch=3 c=11 v=56
123840 Par ch=3 c=11 v=57
123960 Par ch=3 c=11 v=58
124080 Par ch=3 c=11 v=59
124170 Par ch=3 c=11 v=60
124260 Par ch=3 c=11 v=61
124320 Par ch=3 c=11 v=62
124410 Par ch=3 c=11 v=63
124470 Par ch=3 c=11 v=64
124560 Par ch=3 c=11 v=65
124608 Par ch=3 c=11 v=66
124800 Off ch=3 n=80 v=100
124800 Off ch=3 n=70 v=100
124800 On ch=3 n=70 v=100
124800 On ch=3 n=77 v=100
125024 Par ch=3 c=11 v=64
125384 Par ch=3 c=11 v=63
125534 Par ch=3 c=11 v=62
125654 Par ch=3 c=11 v=61
125744 Par ch=3 c=11 v=60
125834 Par ch=3 c=11 v=59
125894 Par ch=3 c=11 v=58
125954 Par ch=3 c=11 v=57
126014 Par ch=3 c=11 v=56
126074 Par ch=3 c=11 v=55
126134 Par ch=3 c=11 v=54
126194 Par ch=3 c=11 v=53
126254 Par ch=3 c=11 v=52
126284 Par ch=3 c=11 v=51
126344 Par ch=3 c=11 v=50
126404 Par ch=3 c=11 v=49
126434 Par ch=3 c=11 v=48
126464 Par ch=3 c=11 v=47
126720 Off ch=3 n=77 v=100
126720 Off ch=3 n=70 v=100
126720 On ch=3 n=78 v=88
126720 Par ch=3 c=11 v=73
126720 On ch=3 n=71 v=88
127710 Par ch=3 c=11 v=74
128100 Par ch=3 c=11 v=75
128430 Par ch=3 c=11 v=76
128670 Par ch=3 c=11 v=77
128910 Par ch=3 c=11 v=78
129120 Par ch=3 c=11 v=79
129300 Par ch=3 c=11 v=80
129480 Par ch=3 c=11 v=81
129660 Par ch=3 c=11 v=82
129810 Par ch=3 c=11 v=83
129960 Par ch=3 c=11 v=84
130110 Par ch=3 c=11 v=85
130224 Par ch=3 c=11 v=86
130560 Off ch=3 n=71 v=64
130560 Off ch=3 n=78 v=64
130560 On ch=3 n=77 v=88
130560 Par ch=3 c=11 v=72
130560 On ch=3 n=68 v=88
131430 Par ch=3 c=11 v=73
131760 Par ch=3 c=11 v=74
132030 Par ch=3 c=11 v=75
132270 Par ch=3 c=11 v=76
132480 Par ch=3 c=11 v=77
132660 Par ch=3 c=11 v=78
132810 Par ch=3 c=11 v=79
132960 Par ch=3 c=11 v=80
133110 Par ch=3 c=11 v=81
133260 Par ch=3 c=11 v=82
133380 Par ch=3 c=11 v=83
133500 Par ch=3 c=11 v=84
133620 Par ch=3 c=11 v=85
133740 Par ch=3 c=11 v=86
133860 Par ch=3 c=11 v=87
133980 Par ch=3 c=11 v=88
134070 Par ch=3 c=11 v=89
134160 Par ch=3 c=11 v=90
134400 Off ch=3 n=68 v=64
134400 Off ch=3 n=77 v=64
134400 On ch=3 n=75 v=88
134400 Par ch=3 c=11 v=73
134400 On ch=3 n=66 v=88
134430 Par ch=3 c=11 v=74
134610 Par ch=3 c=11 v=75
134790 Par ch=3 c=11 v=76
135030 Par ch=3 c=11 v=77
135270 Par ch=3 c=11 v=78
135540 Par ch=3 c=11 v=79
135870 Par ch=3 c=11 v=80
136290 Par ch=3 c=11 v=81
138264 Par ch=3 c=11 v=81
139314 Par ch=3 c=11 v=80
139734 Par ch=3 c=11 v=79
140064 Par ch=3 c=11 v=78
140334 Par ch=3 c=11 v=77
140574 Par ch=3 c=11 v=76
140784 Par ch=3 c=11 v=75
140994 Par ch=3 c=11 v=74
141174 Par ch=3 c=11 v=73
141354 Par ch=3 c=11 v=72
141534 Par ch=3 c=11 v=71
141684 Par ch=3 c=11 v=70
141834 Par ch=3 c=11 v=69
141960 Par ch=3 c=11 v=68
141984 Off ch=3 n=66 v=64
141984 Off ch=3 n=75 v=64
142080 On ch=3 n=71 v=88
142080 On ch=3 n=78 v=88
142080 Par ch=3 c=11 v=73
143070 Par ch=3 c=11 v=74
143460 Par ch=3 c=11 v=75
143790 Par ch=3 c=11 v=76
144030 Par ch=3 c=11 v=77
144270 Par ch=3 c=11 v=78
144480 Par ch=3 c=11 v=79
144660 Par ch=3 c=11 v=80
144840 Par ch=3 c=11 v=81
145020 Par ch=3 c=11 v=82
145170 Par ch=3 c=11 v=83
145320 Par ch=3 c=11 v=84
145470 Par ch=3 c=11 v=85
145584 Par ch=3 c=11 v=86
145920 Off ch=3 n=78 v=64
145920 Off ch=3 n=71 v=64
145920 On ch=3 n=68 v=88
145920 On ch=3 n=77 v=88
145920 Par ch=3 c=11 v=72
146790 Par ch=3 c=11 v=73
147120 Par ch=3 c=11 v=74
147390 Par ch=3 c=11 v=75
147630 Par ch=3 c=11 v=76
147840 Par ch=3 c=11 v=77
148020 Par ch=3 c=11 v=78
148170 Par ch=3 c=11 v=79
148320 Par ch=3 c=11 v=80
148470 Par ch=3 c=11 v=81
148620 Par ch=3 c=11 v=82
148740 Par ch=3 c=11 v=83
148860 Par ch=3 c=11 v=84
148980 Par ch=3 c=11 v=85
149100 Par ch=3 c=11 v=86
149220 Par ch=3 c=11 v=87
149340 Par ch=3 c=11 v=88
149430 Par ch=3 c=11 v=89
149520 Par ch=3 c=11 v=90
149760 Off ch=3 n=77 v=64
149760 Off ch=3 n=68 v=64
149760 On ch=3 n=66 v=88
149760 On ch=3 n=75 v=88
149760 Par ch=3 c=11 v=73
149790 Par ch=3 c=11 v=74
149970 Par ch=3 c=11 v=75
150150 Par ch=3 c=11 v=76
150390 Par ch=3 c=11 v=77
150630 Par ch=3 c=11 v=78
150900 Par ch=3 c=11 v=79
151230 Par ch=3 c=11 v=80
151650 Par ch=3 c=11 v=81
153624 Par ch=3 c=11 v=81
154674 Par ch=3 c=11 v=80
155094 Par ch=3 c=11 v=79
155424 Par ch=3 c=11 v=78
155694 Par ch=3 c=11 v=77
155934 Par ch=3 c=11 v=76
156144 Par ch=3 c=11 v=75
156354 Par ch=3 c=11 v=74
156534 Par ch=3 c=11 v=73
156714 Par ch=3 c=11 v=72
156894 Par ch=3 c=11 v=71
157044 Par ch=3 c=11 v=70
157194 Par ch=3 c=11 v=69
157320 Par ch=3 c=11 v=68
157344 Off ch=3 n=75 v=64
157344 Off ch=3 n=66 v=64
158304 Par ch=3 c=11 v=97
158400 On ch=3 n=70 v=88
158604 Par ch=3 c=11 v=98
158660 Off ch=3 n=70 v=64
158724 Par ch=3 c=11 v=99
158844 Par ch=3 c=11 v=100
158880 On ch=3 n=73 v=88
158904 Par ch=3 c=11 v=101
158994 Par ch=3 c=11 v=102
159054 Par ch=3 c=11 v=103
159114 Par ch=3 c=11 v=104
159140 Off ch=3 n=73 v=64
159144 Par ch=3 c=11 v=105
159204 Par ch=3 c=11 v=106
159240 Par ch=3 c=11 v=107
159360 On ch=3 n=73 v=88
159360 Par ch=3 c=11 v=107
159840 On ch=3 n=75 v=88
159860 Off ch=3 n=73 v=64
159900 Par ch=3 c=11 v=107
160080 Par ch=3 c=11 v=106
160100 Off ch=3 n=75 v=64
160260 Par ch=3 c=11 v=105
160320 On ch=3 n=70 v=88
160380 Par ch=3 c=11 v=104
160500 Par ch=3 c=11 v=103
160580 Off ch=3 n=70 v=64
160620 Par ch=3 c=11 v=102
160740 Par ch=3 c=11 v=101
160780 Par ch=3 c=11 v=100
160800 On ch=3 n=68 v=88
160860 Par ch=3 c=11 v=100
161060 Off ch=3 n=68 v=64
161100 Par ch=3 c=11 v=101
161180 Par ch=3 c=11 v=102
161260 Par ch=3 c=11 v=105
161280 On ch=3 n=70 v=88
161440 Par ch=3 c=11 v=104
161500 Par ch=3 c=11 v=103
161560 Par ch=3 c=11 v=102
161620 Par ch=3 c=11 v=101
161680 Par ch=3 c=11 v=99
161740 Par ch=3 c=11 v=97
161800 Par ch=3 c=11 v=95
161860 Par ch=3 c=11 v=92
161920 Par ch=3 c=11 v=89
161980 Par ch=3 c=11 v=86
162040 Par ch=3 c=11 v=83
162060 Off ch=3 n=70 v=64
162100 Par ch=3 c=11 v=79
162200 Par ch=3 c=11 v=103
162240 On ch=3 n=68 v=88
162500 Par ch=3 c=11 v=102
162560 Par ch=3 c=11 v=101
162620 Par ch=3 c=11 v=100
162660 Par ch=3 c=11 v=101
162720 On ch=3 n=70 v=88
162780 Off ch=3 n=68 v=64
162780 Par ch=3 c=11 v=102
162900 Par ch=3 c=11 v=103
162980 Off ch=3 n=70 v=64
163020 Par ch=3 c=11 v=104
163060 Par ch=3 c=11 v=105
163180 Par ch=3 c=11 v=108
163200 On ch=3 n=73 v=88
163680 On ch=3 n=75 v=88
163720 Off ch=3 n=73 v=64
163900 Par ch=3 c=11 v=107
163940 Off ch=3 n=75 v=64
164140 Par ch=3 c=11 v=106
164160 On ch=3 n=70 v=88
164380 Par ch=3 c=11 v=105
164420 Off ch=3 n=70 v=64
164560 Par ch=3 c=11 v=104
164640 On ch=3 n=68 v=88
164680 Par ch=3 c=11 v=103
164800 Par ch=3 c=11 v=102
164900 Off ch=3 n=68 v=64
164900 Par ch=3 c=11 v=100
165120 On ch=3 n=70 v=88
165140 Par ch=3 c=11 v=93
165200 Par ch=3 c=11 v=92
165260 Par ch=3 c=11 v=91
165280 Par ch=3 c=11 v=90
165380 Par ch=3 c=11 v=90
165500 Par ch=3 c=11 v=91
165620 Par ch=3 c=11 v=92
165680 Par ch=3 c=11 v=93
165800 Par ch=3 c=11 v=94
165860 Par ch=3 c=11 v=95
165920 Par ch=3 c=11 v=96
165980 Par ch=3 c=11 v=97
166040 Par ch=3 c=11 v=98
166060 Par ch=3 c=11 v=99
166080 On ch=3 n=68 v=88
166140 Off ch=3 n=70 v=64
166340 Off ch=3 n=68 v=64
166560 On ch=3 n=70 v=88
166820 Off ch=3 n=70 v=64
167000 Par ch=3 c=11 v=101
167040 On ch=3 n=68 v=88
167520 On ch=3 n=66 v=88
167540 Off ch=3 n=68 v=64
167660 Par ch=3 c=11 v=100
167800 Off ch=3 n=66 v=64
167900 Par ch=3 c=11 v=99
168000 On ch=3 n=65 v=88
168140 Par ch=3 c=11 v=98
168240 Off ch=3 n=65 v=64
168260 Par ch=3 c=11 v=97
168440 Par ch=3 c=11 v=96
168480 On ch=3 n=61 v=88
168540 Par ch=3 c=11 v=95
168660 Par ch=3 c=11 v=97
168820 Off ch=3 n=61 v=64
168840 Par ch=3 c=11 v=98
168900 Par ch=3 c=11 v=100
168920 Par ch=3 c=11 v=101
168960 On ch=3 n=63 v=88
168980 Par ch=3 c=11 v=100
169160 Par ch=3 c=11 v=99
169220 Par ch=3 c=11 v=98
169280 Par ch=3 c=11 v=97
169340 Par ch=3 c=11 v=95
169400 Par ch=3 c=11 v=93
169460 Par ch=3 c=11 v=91
169512 Par ch=3 c=11 v=88
169542 Par ch=3 c=11 v=89
169602 Par ch=3 c=11 v=90
169662 Par ch=3 c=11 v=91
169782 Par ch=3 c=11 v=92
169816 Off ch=3 n=63 v=64
169872 Par ch=3 c=11 v=94
169920 On ch=3 n=61 v=88
170202 Par ch=3 c=11 v=95
170322 Par ch=3 c=11 v=96
170400 On ch=3 n=63 v=88
170420 Off ch=3 n=61 v=64
170442 Par ch=3 c=11 v=97
170532 Par ch=3 c=11 v=98
170592 Par ch=3 c=11 v=99
170652 Par ch=3 c=11 v=100
170660 Off ch=3 n=63 v=64
170712 Par ch=3 c=11 v=101
170860 Par ch=3 c=11 v=99
170880 On ch=3 n=65 v=88
171100 Par ch=3 c=11 v=97
171360 On ch=3 n=66 v=88
171420 Off ch=3 n=65 v=64
171620 Off ch=3 n=66 v=64
171840 On ch=3 n=68 v=88
171940 Par ch=3 c=11 v=96
172060 Off ch=3 n=68 v=64
172240 Par ch=3 c=11 v=95
172320 On ch=3 n=70 v=88
172480 Par ch=3 c=11 v=94
172540 Off ch=3 n=70 v=64
172720 Par ch=3 c=11 v=93
172800 On ch=3 n=66 v=88
172800 Par ch=3 c=11 v=91
173520 Off ch=3 n=66 v=64
173640 Par ch=3 c=11 v=91
173760 On ch=3 n=70 v=88
173910 Par ch=3 c=11 v=92
174000 Par ch=3 c=11 v=93
174020 Off ch=3 n=70 v=64
174090 Par ch=3 c=11 v=94
174150 Par ch=3 c=11 v=95
174210 Par ch=3 c=11 v=96
174240 On ch=3 n=73 v=88
174270 Par ch=3 c=11 v=97
174330 Par ch=3 c=11 v=98
174360 Par ch=3 c=11 v=99
174420 Par ch=3 c=11 v=100
174450 Par ch=3 c=11 v=101
174500 Off ch=3 n=73 v=64
174510 Par ch=3 c=11 v=102
174540 Par ch=3 c=11 v=103
174570 Par ch=3 c=11 v=104
174600 Par ch=3 c=11 v=105
174624 Par ch=3 c=11 v=106
174720 On ch=3 n=73 v=88
174720 Par ch=3 c=11 v=107
175200 On ch=3 n=75 v=88
175220 Off ch=3 n=73 v=64
175260 Par ch=3 c=11 v=107
175440 Par ch=3 c=11 v=106
175460 Off ch=3 n=75 v=64
175620 Par ch=3 c=11 v=105
175680 On ch=3 n=70 v=88
175740 Par ch=3 c=11 v=104
175860 Par ch=3 c=11 v=103
175940 Off ch=3 n=70 v=64
175980 Par ch=3 c=11 v=102
176100 Par ch=3 c=11 v=101
176140 Par ch=3 c=11 v=100
176160 On ch=3 n=68 v=88
176220 Par ch=3 c=11 v=100
176420 Off ch=3 n=68 v=64
176460 Par ch=3 c=11 v=101
176540 Par ch=3 c=11 v=102
176620 Par ch=3 c=11 v=105
176640 On ch=3 n=70 v=88
176800 Par ch=3 c=11 v=104
176860 Par ch=3 c=11 v=103
176920 Par ch=3 c=11 v=102
176980 Par ch=3 c=11 v=101
177040 Par ch=3 c=11 v=99
177100 Par ch=3 c=11 v=97
177160 Par ch=3 c=11 v=95
177220 Par ch=3 c=11 v=92
177280 Par ch=3 c=11 v=89
177340 Par ch=3 c=11 v=86
177400 Par ch=3 c=11 v=83
177420 Off ch=3 n=70 v=64
177460 Par ch=3 c=11 v=79
177560 Par ch=3 c=11 v=103
177600 On ch=3 n=68 v=88
177860 Par ch=3 c=11 v=102
177920 Par ch=3 c=11 v=101
177980 Par ch=3 c=11 v=100
178020 Par ch=3 c=11 v=101
178080 On ch=3 n=70 v=88
178140 Off ch=3 n=68 v=64
178140 Par ch=3 c=11 v=102
178260 Par ch=3 c=11 v=103
178340 Off ch=3 n=70 v=64
178380 Par ch=3 c=11 v=104
178420 Par ch=3 c=11 v=105
178540 Par ch=3 c=11 v=108
178560 On ch=3 n=73 v=88
179040 On ch=3 n=75 v=88
179080 Off ch=3 n=73 v=64
179112 Par ch=3 c=11 v=106
179300 Off ch=3 n=75 v=64
179520 On ch=3 n=75 v=88
179562 Par ch=3 c=11 v=107
179742 Par ch=3 c=11 v=108
179780 Off ch=3 n=75 v=64
179862 Par ch=3 c=11 v=109
179982 Par ch=3 c=11 v=110
180000 On ch=3 n=77 v=88
180102 Par ch=3 c=11 v=111
180192 Par ch=3 c=11 v=112
180260 Off ch=3 n=77 v=64
180282 Par ch=3 c=11 v=113
180342 Par ch=3 c=11 v=114
180432 Par ch=3 c=11 v=115
180480 On ch=3 n=78 v=88
180480 Par ch=3 c=11 v=116
180960 On ch=3 n=77 v=88
180980 Off ch=3 n=78 v=64
181240 Off ch=3 n=77 v=64
181344 Par ch=3 c=11 v=116
181440 On ch=3 n=75 v=88
181680 Off ch=3 n=75 v=64
181920 On ch=3 n=73 v=88
182124 Par ch=3 c=11 v=115
182260 Off ch=3 n=73 v=64
182400 On ch=3 n=70 v=88
182454 Par ch=3 c=11 v=114
182694 Par ch=3 c=11 v=113
182904 Par ch=3 c=11 v=112
183084 Par ch=3 c=11 v=111
183234 Par ch=3 c=11 v=110
183328 Off ch=3 n=70 v=64
183360 On ch=3 n=68 v=88
183360 On ch=3 n=71 v=88
183384 Par ch=3 c=11 v=109
183534 Par ch=3 c=11 v=108
183654 Par ch=3 c=11 v=107
183774 Par ch=3 c=11 v=106
183840 On ch=3 n=70 v=88
183840 On ch=3 n=73 v=88
183860 Off ch=3 n=71 v=64
183860 Off ch=3 n=68 v=64
183894 Par ch=3 c=11 v=105
184014 Par ch=3 c=11 v=104
184100 Off ch=3 n=73 v=64
184100 Off ch=3 n=70 v=64
184134 Par ch=3 c=11 v=103
184224 Par ch=3 c=11 v=102
184320 On ch=3 n=68 v=88
184320 Par ch=3 c=11 v=101
184320 On ch=3 n=71 v=88
184440 Par ch=3 c=11 v=102
184770 Par ch=3 c=11 v=101
184800 On ch=3 n=66 v=88
184800 On ch=3 n=70 v=88
184860 Off ch=3 n=71 v=64
184860 Off ch=3 n=68 v=64
185060 Off ch=3 n=70 v=64
185060 Off ch=3 n=66 v=64
185070 Par ch=3 c=11 v=100
185280 On ch=3 n=65 v=88
185280 On ch=3 n=68 v=88
185340 Par ch=3 c=11 v=99
185500 Off ch=3 n=68 v=64
185500 Off ch=3 n=65 v=64
185610 Par ch=3 c=11 v=98
185760 On ch=3 n=61 v=88
185760 On ch=3 n=65 v=88
185850 Par ch=3 c=11 v=97
185980 Off ch=3 n=65 v=64
185980 Off ch=3 n=61 v=64
186072 Par ch=3 c=11 v=96
186216 Par ch=3 c=11 v=95
186240 On ch=3 n=63 v=88
186240 On ch=3 n=66 v=88
186366 Par ch=3 c=11 v=94
186426 Par ch=3 c=11 v=93
186486 Par ch=3 c=11 v=92
186516 Par ch=3 c=11 v=91
186546 Par ch=3 c=11 v=90
186576 Par ch=3 c=11 v=89
186606 Par ch=3 c=11 v=88
186636 Par ch=3 c=11 v=87
186666 Par ch=3 c=11 v=85
186696 Par ch=3 c=11 v=84
186726 Par ch=3 c=11 v=83
186756 Par ch=3 c=11 v=81
186786 Par ch=3 c=11 v=79
186816 Par ch=3 c=11 v=78
186846 Par ch=3 c=11 v=76
186876 Par ch=3 c=11 v=74
186906 Par ch=3 c=11 v=72
186936 Par ch=3 c=11 v=70
186966 Par ch=3 c=11 v=68
186996 Par ch=3 c=11 v=65
187026 Par ch=3 c=11 v=63
187056 Off ch=3 n=66 v=64
187056 Off ch=3 n=63 v=64
187056 Par ch=3 c=11 v=61
187080 Par ch=3 c=11 v=58
234240 On ch=3 n=75 v=88
234240 Par ch=3 c=11 v=108
234480 Off ch=3 n=75 v=64
234720 On ch=3 n=82 v=88
234960 Off ch=3 n=82 v=64
235200 On ch=3 n=80 v=88
235440 Off ch=3 n=80 v=64
235680 On ch=3 n=82 v=88
235920 Off ch=3 n=82 v=64
236160 On ch=3 n=78 v=88
236400 Off ch=3 n=78 v=64
236640 On ch=3 n=82 v=88
236880 Off ch=3 n=82 v=64
237120 On ch=3 n=77 v=88
237360 Off ch=3 n=77 v=64
237600 On ch=3 n=82 v=88
237840 Off ch=3 n=82 v=64
238080 On ch=3 n=75 v=88
238320 Off ch=3 n=75 v=64
238560 On ch=3 n=82 v=88
238800 Off ch=3 n=82 v=64
239040 On ch=3 n=80 v=88
239280 Off ch=3 n=80 v=64
239520 On ch=3 n=82 v=88
239760 Off ch=3 n=82 v=64
240000 On ch=3 n=78 v=88
240240 Off ch=3 n=78 v=64
240480 On ch=3 n=82 v=88
240720 Off ch=3 n=82 v=64
240960 On ch=3 n=77 v=88
241200 Off ch=3 n=77 v=64
241440 On ch=3 n=82 v=88
241680 Off ch=3 n=82 v=64
241920 On ch=3 n=75 v=88
242160 Off ch=3 n=75 v=64
242400 On ch=3 n=82 v=88
242640 Off ch=3 n=82 v=64
242880 On ch=3 n=80 v=88
243120 Off ch=3 n=80 v=64
243360 On ch=3 n=82 v=88
243600 Off ch=3 n=82 v=64
243840 On ch=3 n=78 v=88
244080 Off ch=3 n=78 v=64
244320 On ch=3 n=82 v=88
244560 Off ch=3 n=82 v=64
244800 On ch=3 n=77 v=88
245040 Off ch=3 n=77 v=64
245280 On ch=3 n=82 v=88
245520 Off ch=3 n=82 v=64
245760 On ch=3 n=75 v=88
246000 Off ch=3 n=75 v=64
246240 On ch=3 n=82 v=88
246480 Off ch=3 n=82 v=64
246720 On ch=3 n=80 v=88
246960 Off ch=3 n=80 v=64
247200 On ch=3 n=82 v=88
247440 Off ch=3 n=82 v=64
247680 On ch=3 n=78 v=88
247920 Off ch=3 n=78 v=64
248160 On ch=3 n=82 v=88
248400 Off ch=3 n=82 v=64
248640 On ch=3 n=77 v=88
248880 Off ch=3 n=77 v=64
249120 On ch=3 n=82 v=88
249360 Off ch=3 n=82 v=64
249600 Par ch=3 c=11 v=53
249600 On ch=3 n=70 v=56
249600 On ch=3 n=63 v=56
257152 Off ch=3 n=63 v=64
257152 Off ch=3 n=70 v=64
257280 On ch=3 n=71 v=56
257280 On ch=3 n=63 v=56
261120 Off ch=3 n=63 v=64
261120 Off ch=3 n=71 v=64
261120 On ch=3 n=73 v=56
261120 On ch=3 n=65 v=56
263040 Off ch=3 n=73 v=64
263040 On ch=3 n=74 v=56
264960 Off ch=3 n=74 v=64
264960 Off ch=3 n=65 v=64
264960 On ch=3 n=70 v=56
264960 On ch=3 n=75 v=56
272512 Off ch=3 n=75 v=64
272512 Off ch=3 n=70 v=64
272640 On ch=3 n=71 v=56
272640 On ch=3 n=75 v=56
276480 Off ch=3 n=75 v=64
276480 Off ch=3 n=71 v=64
276480 On ch=3 n=73 v=56
276480 On ch=3 n=77 v=56
278400 Off ch=3 n=73 v=64
278400 On ch=3 n=74 v=56
280320 Off ch=3 n=74 v=64
280320 Off ch=3 n=77 v=64
280320 Par ch=3 c=7 v=100
295680 Par ch=3 c=11 v=113
297728 Par ch=3 c=11 v=117
298080 On ch=3 n=70 v=88
298560 On ch=3 n=75 v=88
298624 Off ch=3 n=70 v=64
298688 Par ch=3 c=11 v=118
298848 Off ch=3 n=75 v=64
299040 On ch=3 n=77 v=88
299078 Par ch=3 c=11 v=119
299328 Off ch=3 n=77 v=64
299378 Par ch=3 c=11 v=120
299520 On ch=3 n=78 v=88
299618 Par ch=3 c=11 v=121
299840 Off ch=3 n=78 v=64
299858 Par ch=3 c=11 v=122
300038 Par ch=3 c=11 v=123
300218 Par ch=3 c=11 v=124
300398 Par ch=3 c=11 v=125
300480 On ch=3 n=80 v=88
300578 Par ch=3 c=11 v=126
300704 Par ch=3 c=11 v=127
300800 Off ch=3 n=80 v=64
301440 On ch=3 n=82 v=88
301440 Par ch=3 c=11 v=127
301920 On ch=3 n=83 v=88
301952 Off ch=3 n=82 v=64
302208 Off ch=3 n=83 v=64
302400 On ch=3 n=82 v=88
302688 Off ch=3 n=82 v=64
302880 On ch=3 n=80 v=88
303168 Off ch=3 n=80 v=64
303360 On ch=3 n=78 v=88
303360 Par ch=3 c=11 v=118
303900 Par ch=3 c=11 v=119
304110 Par ch=3 c=11 v=120
304290 Par ch=3 c=11 v=121
304410 Par ch=3 c=11 v=122
304530 Par ch=3 c=11 v=123
304640 Par ch=3 c=11 v=124
305544 Off ch=3 n=78 v=64
305760 On ch=3 n=78 v=88
305952 Par ch=3 c=11 v=127
306240 On ch=3 n=77 v=88
306252 Par ch=3 c=11 v=126
306304 Off ch=3 n=78 v=64
306372 Par ch=3 c=11 v=125
306462 Par ch=3 c=11 v=124
306496 Off ch=3 n=77 v=64
306522 Par ch=3 c=11 v=123
306582 Par ch=3 c=11 v=122
306642 Par ch=3 c=11 v=121
306702 Par ch=3 c=11 v=120
306720 On ch=3 n=78 v=88
306762 Par ch=3 c=11 v=119
306792 Par ch=3 c=11 v=118
306852 Par ch=3 c=11 v=117
306882 Par ch=3 c=11 v=116
306912 Off ch=3 n=78 v=64
306942 Par ch=3 c=11 v=115
306972 Par ch=3 c=11 v=114
307002 Par ch=3 c=11 v=113
307062 Par ch=3 c=11 v=112
307092 Par ch=3 c=11 v=111
307122 Par ch=3 c=11 v=110
307152 Par ch=3 c=11 v=109
307182 Par ch=3 c=11 v=108
307200 On ch=3 n=80 v=119
307200 Par ch=3 c=11 v=107
307440 Off ch=3 n=80 v=64
308160 On ch=3 n=78 v=119
308190 Par ch=3 c=11 v=108
308400 Off ch=3 n=78 v=64
308580 Par ch=3 c=11 v=109
308880 Par ch=3 c=11 v=110
309120 On ch=3 n=77 v=119
309150 Par ch=3 c=11 v=111
309360 Off ch=3 n=77 v=64
309360 Par ch=3 c=11 v=112
309570 Par ch=3 c=11 v=113
309750 Par ch=3 c=11 v=114
309930 Par ch=3 c=11 v=115
310080 On ch=3 n=73 v=119
310080 On ch=3 n=75 v=56
310110 Par ch=3 c=11 v=116
310240 Par ch=3 c=11 v=117
310320 Off ch=3 n=73 v=64
310560 Off ch=3 n=75 v=64
310560 On ch=3 n=82 v=88
311040 On ch=3 n=73 v=88
311040 Par ch=3 c=11 v=117
311040 On ch=3 n=80 v=88
311076 Off ch=3 n=82 v=64
311520 On ch=3 n=75 v=88
311520 On ch=3 n=78 v=88
311540 Off ch=3 n=80 v=64
311540 Off ch=3 n=73 v=64
311580 Par ch=3 c=11 v=116
311760 Par ch=3 c=11 v=115
311780 Off ch=3 n=78 v=64
311780 Off ch=3 n=75 v=64
311940 Par ch=3 c=11 v=114
312000 On ch=3 n=70 v=88
312000 On ch=3 n=78 v=88
312060 Par ch=3 c=11 v=113
312180 Par ch=3 c=11 v=112
312260 Off ch=3 n=78 v=64
312260 Off ch=3 n=70 v=64
312300 Par ch=3 c=11 v=111
312420 Par ch=3 c=11 v=110
312460 Par ch=3 c=11 v=109
312480 On ch=3 n=68 v=88
312480 On ch=3 n=77 v=88
312540 Par ch=3 c=11 v=109
312740 Off ch=3 n=77 v=64
312740 Off ch=3 n=68 v=64
312780 Par ch=3 c=11 v=110
312860 Par ch=3 c=11 v=111
312940 Par ch=3 c=11 v=114
312960 On ch=3 n=70 v=88
312960 On ch=3 n=78 v=88
313120 Par ch=3 c=11 v=113
313180 Par ch=3 c=11 v=112
313240 Par ch=3 c=11 v=111
313300 Par ch=3 c=11 v=110
313360 Par ch=3 c=11 v=108
313420 Par ch=3 c=11 v=106
313480 Par ch=3 c=11 v=104
313540 Par ch=3 c=11 v=101
313600 Par ch=3 c=11 v=98
313660 Par ch=3 c=11 v=95
313720 Par ch=3 c=11 v=92
313740 Off ch=3 n=70 v=64
313772 Off ch=3 n=78 v=64
313780 Par ch=3 c=11 v=88
313880 Par ch=3 c=11 v=112
313920 On ch=3 n=68 v=88
313920 On ch=3 n=80 v=88
314180 Par ch=3 c=11 v=111
314240 Par ch=3 c=11 v=110
314300 Par ch=3 c=11 v=109
314340 Par ch=3 c=11 v=110
314400 On ch=3 n=70 v=88
314400 On ch=3 n=82 v=88
314460 Off ch=3 n=80 v=64
314460 Off ch=3 n=68 v=64
314460 Par ch=3 c=11 v=111
314580 Par ch=3 c=11 v=112
314660 Off ch=3 n=82 v=64
314660 Off ch=3 n=70 v=64
314700 Par ch=3 c=11 v=113
314740 Par ch=3 c=11 v=114
314860 Par ch=3 c=11 v=117
314880 On ch=3 n=73 v=88
314880 On ch=3 n=80 v=88
315360 On ch=3 n=75 v=88
315360 On ch=3 n=77 v=88
315400 Off ch=3 n=80 v=64
315400 Off ch=3 n=73 v=64
315580 Par ch=3 c=11 v=116
315620 Off ch=3 n=77 v=64
315620 Off ch=3 n=75 v=64
315820 Par ch=3 c=11 v=115
315840 On ch=3 n=70 v=88
315840 On ch=3 n=77 v=88
316060 Par ch=3 c=11 v=114
316100 Off ch=3 n=77 v=64
316100 Off ch=3 n=70 v=64
316240 Par ch=3 c=11 v=113
316320 On ch=3 n=68 v=88
316320 On ch=3 n=75 v=88
316360 Par ch=3 c=11 v=112
316480 Par ch=3 c=11 v=111
316580 Off ch=3 n=75 v=64
316580 Off ch=3 n=68 v=64
316580 Par ch=3 c=11 v=109
316800 On ch=3 n=70 v=88
316800 On ch=3 n=77 v=88
316820 Par ch=3 c=11 v=102
316880 Par ch=3 c=11 v=101
316940 Par ch=3 c=11 v=100
316960 Par ch=3 c=11 v=99
317060 Par ch=3 c=11 v=99
317180 Par ch=3 c=11 v=100
317300 Par ch=3 c=11 v=101
317360 Par ch=3 c=11 v=102
317480 Par ch=3 c=11 v=103
317540 Par ch=3 c=11 v=104
317600 Par ch=3 c=11 v=105
317660 Par ch=3 c=11 v=106
317720 Par ch=3 c=11 v=107
317740 Par ch=3 c=11 v=108
317760 On ch=3 n=68 v=88
317760 On ch=3 n=77 v=88
317820 Off ch=3 n=77 v=64
317820 Off ch=3 n=70 v=64
318020 Off ch=3 n=77 v=64
318020 Off ch=3 n=68 v=64
318240 On ch=3 n=70 v=88
318240 On ch=3 n=78 v=88
318500 Off ch=3 n=78 v=64
318500 Off ch=3 n=70 v=64
318680 Par ch=3 c=11 v=110
318720 On ch=3 n=68 v=88
318720 On ch=3 n=77 v=88
319200 On ch=3 n=66 v=88
319200 On ch=3 n=75 v=88
319220 Off ch=3 n=77 v=64
319220 Off ch=3 n=68 v=64
319340 Par ch=3 c=11 v=109
319480 Off ch=3 n=75 v=64
319480 Off ch=3 n=66 v=64
319580 Par ch=3 c=11 v=108
319680 On ch=3 n=65 v=88
319680 On ch=3 n=73 v=88
319820 Par ch=3 c=11 v=107
319920 Off ch=3 n=65 v=64
319940 Par ch=3 c=11 v=106
320120 Par ch=3 c=11 v=105
320160 On ch=3 n=61 v=88
320220 Par ch=3 c=11 v=104
320340 Par ch=3 c=11 v=106
320500 Off ch=3 n=61 v=64
320500 Off ch=3 n=73 v=64
320520 Par ch=3 c=11 v=107
320580 Par ch=3 c=11 v=109
320600 Par ch=3 c=11 v=110
320640 On ch=3 n=63 v=88
320640 On ch=3 n=75 v=88
320660 Par ch=3 c=11 v=109
320840 Par ch=3 c=11 v=108
320900 Par ch=3 c=11 v=107
320960 Par ch=3 c=11 v=106
321020 Par ch=3 c=11 v=104
321080 Par ch=3 c=11 v=102
321120 Par ch=3 c=11 v=102
321150 Par ch=3 c=11 v=101
321210 Par ch=3 c=11 v=100
321330 Par ch=3 c=11 v=99
321496 Off ch=3 n=63 v=64
321576 Par ch=3 c=11 v=100
321600 On ch=3 n=61 v=88
321600 On ch=3 n=68 v=88
321616 Off ch=3 n=75 v=64
321906 Par ch=3 c=11 v=101
322026 Par ch=3 c=11 v=102
322080 On ch=3 n=63 v=88
322080 On ch=3 n=70 v=88
322100 Off ch=3 n=68 v=64
322100 Off ch=3 n=61 v=64
322146 Par ch=3 c=11 v=103
322236 Par ch=3 c=11 v=104
322296 Par ch=3 c=11 v=105
322340 Off ch=3 n=70 v=64
322340 Off ch=3 n=63 v=64
322356 Par ch=3 c=11 v=106
322416 Par ch=3 c=11 v=107
322540 Par ch=3 c=11 v=108
322560 On ch=3 n=65 v=88
322560 On ch=3 n=73 v=88
322780 Par ch=3 c=11 v=106
323040 On ch=3 n=66 v=88
323040 On ch=3 n=75 v=88
323100 Off ch=3 n=73 v=64
323100 Off ch=3 n=65 v=64
323300 Off ch=3 n=75 v=64
323300 Off ch=3 n=66 v=64
323520 On ch=3 n=68 v=88
323520 On ch=3 n=77 v=88
323620 Par ch=3 c=11 v=105
323740 Off ch=3 n=77 v=64
323740 Off ch=3 n=68 v=64
323920 Par ch=3 c=11 v=104
324000 On ch=3 n=70 v=88
324000 On ch=3 n=78 v=88
324160 Par ch=3 c=11 v=103
324220 Off ch=3 n=78 v=64
324220 Off ch=3 n=70 v=64
324400 Par ch=3 c=11 v=102
324480 On ch=3 n=63 v=88
324480 On ch=3 n=78 v=88
324540 Par ch=3 c=11 v=101
324620 Par ch=3 c=11 v=100
324800 Par ch=3 c=11 v=99
324860 Par ch=3 c=11 v=98
324920 Par ch=3 c=11 v=96
324960 On ch=3 n=77 v=56
324976 Off ch=3 n=78 v=64
324980 Par ch=3 c=11 v=94
325040 Par ch=3 c=11 v=91
325100 Par ch=3 c=11 v=89
325160 Par ch=3 c=11 v=86
325184 Off ch=3 n=77 v=64
325200 Off ch=3 n=63 v=64
325220 Par ch=3 c=11 v=82
325280 Par ch=3 c=11 v=78
325320 Par ch=3 c=11 v=75
325392 Par ch=3 c=11 v=113
325440 On ch=3 n=70 v=88
325440 On ch=3 n=75 v=56
325700 Off ch=3 n=70 v=64
325752 Par ch=3 c=11 v=114
325872 Par ch=3 c=11 v=115
325920 Off ch=3 n=75 v=64
325920 On ch=3 n=73 v=88
325920 On ch=3 n=82 v=88
325992 Par ch=3 c=11 v=116
326082 Par ch=3 c=11 v=117
326142 Par ch=3 c=11 v=117
326180 Off ch=3 n=73 v=64
326232 Par ch=3 c=11 v=117
326292 Par ch=3 c=11 v=117
326328 Par ch=3 c=11 v=117
326400 On ch=3 n=73 v=88
326400 Par ch=3 c=11 v=117
326400 On ch=3 n=80 v=88
326436 Off ch=3 n=82 v=64
326880 On ch=3 n=75 v=88
326880 On ch=3 n=78 v=88
326900 Off ch=3 n=80 v=64
326900 Off ch=3 n=73 v=64
326940 Par ch=3 c=11 v=117
327120 Par ch=3 c=11 v=116
327140 Off ch=3 n=78 v=64
327140 Off ch=3 n=75 v=64
327300 Par ch=3 c=11 v=115
327360 On ch=3 n=70 v=88
327360 On ch=3 n=78 v=88
327420 Par ch=3 c=11 v=114
327540 Par ch=3 c=11 v=113
327620 Off ch=3 n=78 v=64
327620 Off ch=3 n=70 v=64
327660 Par ch=3 c=11 v=112
327780 Par ch=3 c=11 v=111
327820 Par ch=3 c=11 v=110
327840 On ch=3 n=68 v=88
327840 On ch=3 n=77 v=88
327900 Par ch=3 c=11 v=110
328100 Off ch=3 n=77 v=64
328100 Off ch=3 n=68 v=64
328140 Par ch=3 c=11 v=111
328220 Par ch=3 c=11 v=112
328300 Par ch=3 c=11 v=115
328320 On ch=3 n=70 v=88
328320 On ch=3 n=78 v=88
328480 Par ch=3 c=11 v=114
328540 Par ch=3 c=11 v=113
328600 Par ch=3 c=11 v=112
328660 Par ch=3 c=11 v=111
328720 Par ch=3 c=11 v=109
328780 Par ch=3 c=11 v=107
328840 Par ch=3 c=11 v=105
328900 Par ch=3 c=11 v=102
328960 Par ch=3 c=11 v=99
329020 Par ch=3 c=11 v=96
329080 Par ch=3 c=11 v=93
329100 Off ch=3 n=70 v=64
329132 Off ch=3 n=78 v=64
329140 Par ch=3 c=11 v=89
329240 Par ch=3 c=11 v=113
329280 On ch=3 n=68 v=88
329280 On ch=3 n=80 v=88
329540 Par ch=3 c=11 v=112
329600 Par ch=3 c=11 v=111
329660 Par ch=3 c=11 v=110
329700 Par ch=3 c=11 v=111
329760 On ch=3 n=70 v=88
329760 On ch=3 n=82 v=88
329820 Off ch=3 n=80 v=64
329820 Off ch=3 n=68 v=64
329820 Par ch=3 c=11 v=112
329940 Par ch=3 c=11 v=113
330020 Off ch=3 n=82 v=64
330020 Off ch=3 n=70 v=64
330060 Par ch=3 c=11 v=114
330100 Par ch=3 c=11 v=115
330220 Par ch=3 c=11 v=117
330240 On ch=3 n=73 v=88
330240 On ch=3 n=80 v=88
330720 On ch=3 n=75 v=88
330720 On ch=3 n=77 v=88
330760 Off ch=3 n=80 v=64
330760 Off ch=3 n=73 v=64
330940 Par ch=3 c=11 v=117
330980 Off ch=3 n=77 v=64
330980 Off ch=3 n=75 v=64
331180 Par ch=3 c=11 v=116
331200 On ch=3 n=70 v=88
331200 On ch=3 n=77 v=88
331420 Par ch=3 c=11 v=115
331460 Off ch=3 n=77 v=64
331460 Off ch=3 n=70 v=64
331600 Par ch=3 c=11 v=114
331680 On ch=3 n=68 v=88
331680 On ch=3 n=75 v=88
331720 Par ch=3 c=11 v=113
331840 Par ch=3 c=11 v=112
331940 Off ch=3 n=75 v=64
331940 Off ch=3 n=68 v=64
331940 Par ch=3 c=11 v=110
332160 On ch=3 n=70 v=88
332160 On ch=3 n=77 v=88
332180 Par ch=3 c=11 v=103
332240 Par ch=3 c=11 v=102
332300 Par ch=3 c=11 v=101
332320 Par ch=3 c=11 v=100
332420 Par ch=3 c=11 v=100
332540 Par ch=3 c=11 v=101
332660 Par ch=3 c=11 v=102
332720 Par ch=3 c=11 v=103
332840 Par ch=3 c=11 v=104
332900 Par ch=3 c=11 v=105
332960 Par ch=3 c=11 v=106
333020 Par ch=3 c=11 v=107
333080 Par ch=3 c=11 v=108
333100 Par ch=3 c=11 v=109
333120 On ch=3 n=68 v=88
333120 On ch=3 n=77 v=88
333180 Off ch=3 n=77 v=64
333180 Off ch=3 n=70 v=64
333380 Off ch=3 n=77 v=64
333380 Off ch=3 n=68 v=64
333600 On ch=3 n=70 v=88
333600 On ch=3 n=78 v=88
333860 Off ch=3 n=78 v=64
333860 Off ch=3 n=70 v=64
334040 Par ch=3 c=11 v=111
334080 On ch=3 n=68 v=88
334080 On ch=3 n=77 v=88
334560 On ch=3 n=66 v=88
334560 On ch=3 n=75 v=88
334580 Off ch=3 n=77 v=64
334580 Off ch=3 n=68 v=64
334700 Par ch=3 c=11 v=110
334840 Off ch=3 n=75 v=64
334840 Off ch=3 n=66 v=64
334940 Par ch=3 c=11 v=109
335040 On ch=3 n=65 v=88
335040 On ch=3 n=73 v=88
335180 Par ch=3 c=11 v=108
335280 Off ch=3 n=65 v=64
335300 Par ch=3 c=11 v=107
335480 Par ch=3 c=11 v=106
335520 On ch=3 n=61 v=88
335580 Par ch=3 c=11 v=105
335700 Par ch=3 c=11 v=107
335860 Off ch=3 n=61 v=64
335860 Off ch=3 n=73 v=64
335880 Par ch=3 c=11 v=108
335940 Par ch=3 c=11 v=110
335960 Par ch=3 c=11 v=111
336000 On ch=3 n=63 v=88
336000 On ch=3 n=75 v=88
336020 Par ch=3 c=11 v=110
336200 Par ch=3 c=11 v=109
336260 Par ch=3 c=11 v=108
336320 Par ch=3 c=11 v=107
336380 Par ch=3 c=11 v=105
336440 Par ch=3 c=11 v=103
336480 Par ch=3 c=11 v=103
336510 Par ch=3 c=11 v=102
336570 Par ch=3 c=11 v=101
336690 Par ch=3 c=11 v=100
336856 Off ch=3 n=63 v=64
336936 Par ch=3 c=11 v=101
336960 On ch=3 n=61 v=88
336960 On ch=3 n=68 v=88
336976 Off ch=3 n=75 v=64
337266 Par ch=3 c=11 v=102
337386 Par ch=3 c=11 v=103
337440 On ch=3 n=63 v=88
337440 On ch=3 n=70 v=88
337460 Off ch=3 n=68 v=64
337460 Off ch=3 n=61 v=64
337506 Par ch=3 c=11 v=104
337596 Par ch=3 c=11 v=105
337656 Par ch=3 c=11 v=106
337700 Off ch=3 n=70 v=64
337700 Off ch=3 n=63 v=64
337716 Par ch=3 c=11 v=107
337776 Par ch=3 c=11 v=108
337900 Par ch=3 c=11 v=109
337920 On ch=3 n=65 v=88
337920 Par ch=3 c=11 v=111
337920 On ch=3 n=73 v=88
338140 Par ch=3 c=11 v=110
338400 On ch=3 n=66 v=88
338400 On ch=3 n=75 v=88
338460 Off ch=3 n=73 v=64
338460 Off ch=3 n=65 v=64
338660 Off ch=3 n=75 v=64
338660 Off ch=3 n=66 v=64
338880 On ch=3 n=68 v=88
338880 On ch=3 n=77 v=88
338980 Par ch=3 c=11 v=109
339100 Off ch=3 n=77 v=64
339100 Off ch=3 n=68 v=64
339280 Par ch=3 c=11 v=108
339360 On ch=3 n=70 v=88
339360 On ch=3 n=78 v=88
339520 Par ch=3 c=11 v=107
339580 Off ch=3 n=78 v=64
339580 Off ch=3 n=70 v=64
339760 Par ch=3 c=11 v=106
339840 On ch=3 n=63 v=88
339840 On ch=3 n=78 v=88
339900 Par ch=3 c=11 v=105
339980 Par ch=3 c=11 v=104
340160 Par ch=3 c=11 v=103
340220 Par ch=3 c=11 v=102
340280 Par ch=3 c=11 v=100
340320 On ch=3 n=77 v=56
340336 Off ch=3 n=78 v=64
340340 Par ch=3 c=11 v=98
340400 Par ch=3 c=11 v=95
340460 Par ch=3 c=11 v=93
340520 Par ch=3 c=11 v=90
340544 Off ch=3 n=77 v=64
340560 Off ch=3 n=63 v=64
340580 Par ch=3 c=11 v=86
340640 Par ch=3 c=11 v=82
340680 Par ch=3 c=11 v=79
340776 Par ch=3 c=11 v=120
341106 Par ch=3 c=11 v=121
341226 Par ch=3 c=11 v=122
341316 Par ch=3 c=11 v=123
341406 Par ch=3 c=11 v=124
341496 Par ch=3 c=11 v=125
341556 Par ch=3 c=11 v=126
341616 Par ch=3 c=11 v=127
341676 Par ch=3 c=11 v=127
341736 Par ch=3 c=11 v=127
342720 On ch=3 n=70 v=88
342980 Off ch=3 n=70 v=64
343200 On ch=3 n=73 v=88
343460 Off ch=3 n=73 v=64
343680 On ch=3 n=73 v=88
344160 On ch=3 n=75 v=88
344180 Off ch=3 n=73 v=64
344420 Off ch=3 n=75 v=64
344640 On ch=3 n=70 v=88
344900 Off ch=3 n=70 v=64
345120 On ch=3 n=68 v=88
345380 Off ch=3 n=68 v=64
345600 On ch=3 n=70 v=88
346380 Off ch=3 n=70 v=64
346560 On ch=3 n=68 v=88
347040 On ch=3 n=70 v=88
347100 Off ch=3 n=68 v=64
347300 Off ch=3 n=70 v=64
347520 On ch=3 n=73 v=88
348000 On ch=3 n=75 v=88
348040 Off ch=3 n=73 v=64
348260 Off ch=3 n=75 v=64
348480 On ch=3 n=70 v=88
348740 Off ch=3 n=70 v=64
348960 On ch=3 n=68 v=88
349220 Off ch=3 n=68 v=64
349440 On ch=3 n=70 v=88
350400 On ch=3 n=68 v=88
350460 Off ch=3 n=70 v=64
350660 Off ch=3 n=68 v=64
350880 On ch=3 n=70 v=88
351140 Off ch=3 n=70 v=64
351360 On ch=3 n=68 v=88
351840 On ch=3 n=66 v=88
351860 Off ch=3 n=68 v=64
352120 Off ch=3 n=66 v=64
352320 On ch=3 n=65 v=88
352560 Off ch=3 n=65 v=64
352800 On ch=3 n=61 v=88
353140 Off ch=3 n=61 v=64
353280 On ch=3 n=63 v=88
354136 Off ch=3 n=63 v=64
354240 On ch=3 n=61 v=88
354720 On ch=3 n=63 v=88
354740 Off ch=3 n=61 v=64
354980 Off ch=3 n=63 v=64
355200 On ch=3 n=65 v=88
355680 On ch=3 n=66 v=88
355740 Off ch=3 n=65 v=64
355940 Off ch=3 n=66 v=64
356160 On ch=3 n=68 v=88
356380 Off ch=3 n=68 v=64
356640 On ch=3 n=70 v=88
356860 Off ch=3 n=70 v=64
357120 On ch=3 n=66 v=88
357840 Off ch=3 n=66 v=64
358080 On ch=3 n=70 v=88
358340 Off ch=3 n=70 v=64
358560 On ch=3 n=73 v=88
358820 Off ch=3 n=73 v=64
359040 On ch=3 n=73 v=88
359520 On ch=3 n=75 v=88
359540 Off ch=3 n=73 v=64
359780 Off ch=3 n=75 v=64
360000 On ch=3 n=70 v=88
360260 Off ch=3 n=70 v=64
360480 On ch=3 n=68 v=88
360740 Off ch=3 n=68 v=64
360960 On ch=3 n=70 v=88
361740 Off ch=3 n=70 v=64
361920 On ch=3 n=68 v=88
362400 On ch=3 n=70 v=88
362460 Off ch=3 n=68 v=64
362660 Off ch=3 n=70 v=64
362880 On ch=3 n=73 v=88
363360 On ch=3 n=75 v=88
363400 Off ch=3 n=73 v=64
363620 Off ch=3 n=75 v=64
363840 On ch=3 n=75 v=88
364100 Off ch=3 n=75 v=64
364320 On ch=3 n=77 v=88
364580 Off ch=3 n=77 v=64
364800 On ch=3 n=78 v=88
365280 On ch=3 n=77 v=88
365300 Off ch=3 n=78 v=64
365560 Off ch=3 n=77 v=64
365760 On ch=3 n=75 v=88
366000 Off ch=3 n=75 v=64
366240 On ch=3 n=73 v=88
366580 Off ch=3 n=73 v=64
366720 On ch=3 n=70 v=88
367648 Off ch=3 n=70 v=64
367680 On ch=3 n=71 v=88
367680 On ch=3 n=68 v=88
368160 On ch=3 n=73 v=88
368160 On ch=3 n=70 v=88
368180 Off ch=3 n=68 v=64
368180 Off ch=3 n=71 v=64
368420 Off ch=3 n=70 v=64
368420 Off ch=3 n=73 v=64
368640 On ch=3 n=71 v=88
368640 On ch=3 n=68 v=88
368640 Par ch=3 c=11 v=127
369120 On ch=3 n=70 v=88
369120 On ch=3 n=66 v=88
369180 Off ch=3 n=68 v=64
369180 Off ch=3 n=71 v=64
369380 Off ch=3 n=66 v=64
369380 Off ch=3 n=70 v=64
369600 On ch=3 n=68 v=88
369600 On ch=3 n=65 v=88
369820 Off ch=3 n=65 v=64
369820 Off ch=3 n=68 v=64
370080 On ch=3 n=65 v=88
370080 On ch=3 n=61 v=88
370300 Off ch=3 n=61 v=64
370300 Off ch=3 n=65 v=64
370560 On ch=3 n=66 v=88
370560 On ch=3 n=63 v=88
370832 Off ch=3 n=66 v=64
370896 Off ch=3 n=63 v=64
371376 Par ch=3 c=11 v=65
371616 Par ch=3 c=11 v=66
371706 Par ch=3 c=11 v=67
371796 Par ch=3 c=11 v=68
371856 Par ch=3 c=11 v=69
371916 Par ch=3 c=11 v=70
371946 Par ch=3 c=11 v=71
372006 Par ch=3 c=11 v=72
372036 Par ch=3 c=11 v=73
372096 Par ch=3 c=11 v=74
372126 Par ch=3 c=11 v=75
372156 Par ch=3 c=11 v=76
372186 Par ch=3 c=11 v=77
372216 Par ch=3 c=11 v=78
372246 Par ch=3 c=11 v=79
372276 Par ch=3 c=11 v=80
372306 Par ch=3 c=11 v=81
372336 Par ch=3 c=11 v=82
372360 Par ch=3 c=11 v=83
372480 Par ch=3 c=11 v=79
373020 Par ch=3 c=11 v=81
373200 Par ch=3 c=11 v=80
373380 Par ch=3 c=11 v=79
373440 On ch=3 n=63 v=88
373500 Par ch=3 c=11 v=78
373620 Par ch=3 c=11 v=77
373740 Par ch=3 c=11 v=76
373860 Par ch=3 c=11 v=75
373900 Par ch=3 c=11 v=74
373920 Off ch=3 n=63 v=64
373920 On ch=3 n=65 v=88
373980 Par ch=3 c=11 v=74
374220 Par ch=3 c=11 v=75
374300 Par ch=3 c=11 v=76
374380 Par ch=3 c=11 v=79
374400 Off ch=3 n=65 v=64
374400 On ch=3 n=66 v=88
374560 Par ch=3 c=11 v=78
374620 Par ch=3 c=11 v=77
374680 Par ch=3 c=11 v=76
374740 Par ch=3 c=11 v=75
374800 Par ch=3 c=11 v=73
374860 Par ch=3 c=11 v=71
374880 Off ch=3 n=66 v=64
374920 Par ch=3 c=11 v=69
374980 Par ch=3 c=11 v=66
375040 Par ch=3 c=11 v=63
375100 Par ch=3 c=11 v=60
375160 Par ch=3 c=11 v=57
375220 Par ch=3 c=11 v=53
375320 Par ch=3 c=11 v=77
375620 Par ch=3 c=11 v=76
375680 Par ch=3 c=11 v=75
375740 Par ch=3 c=11 v=74
375780 Par ch=3 c=11 v=75
375900 Par ch=3 c=11 v=76
376020 Par ch=3 c=11 v=77
376140 Par ch=3 c=11 v=78
376180 Par ch=3 c=11 v=79
376300 Par ch=3 c=11 v=82
377020 Par ch=3 c=11 v=81
377260 Par ch=3 c=11 v=80
377280 On ch=3 n=65 v=88
377500 Par ch=3 c=11 v=79
377680 Par ch=3 c=11 v=78
377760 Off ch=3 n=65 v=64
377760 On ch=3 n=66 v=88
377800 Par ch=3 c=11 v=77
377920 Par ch=3 c=11 v=76
378020 Par ch=3 c=11 v=74
378240 Off ch=3 n=66 v=64
378240 On ch=3 n=68 v=88
378260 Par ch=3 c=11 v=67
378320 Par ch=3 c=11 v=66
378380 Par ch=3 c=11 v=65
378400 Par ch=3 c=11 v=64
378500 Par ch=3 c=11 v=64
378620 Par ch=3 c=11 v=65
378720 Off ch=3 n=68 v=64
378740 Par ch=3 c=11 v=66
378800 Par ch=3 c=11 v=67
378920 Par ch=3 c=11 v=68
378980 Par ch=3 c=11 v=69
379040 Par ch=3 c=11 v=70
379100 Par ch=3 c=11 v=71
379160 Par ch=3 c=11 v=72
379180 Par ch=3 c=11 v=73
379200 On ch=3 n=66 v=88
379680 Off ch=3 n=66 v=64
379680 On ch=3 n=70 v=88
380120 Par ch=3 c=11 v=70
380160 Off ch=3 n=70 v=64
380160 On ch=3 n=75 v=88
380160 Par ch=3 c=11 v=59
381120 On ch=3 n=73 v=88
381144 Off ch=3 n=75 v=64
381270 Par ch=3 c=11 v=60
381720 Par ch=3 c=11 v=61
382050 Par ch=3 c=11 v=62
382080 On ch=3 n=75 v=88
382104 Off ch=3 n=73 v=64
382350 Par ch=3 c=11 v=63
382560 Off ch=3 n=75 v=64
382592 Par ch=3 c=11 v=64
382632 Par ch=3 c=11 v=62
382662 Par ch=3 c=11 v=63
382722 Par ch=3 c=11 v=64
382782 Par ch=3 c=11 v=65
382902 Par ch=3 c=11 v=66
382992 Par ch=3 c=11 v=68
383040 On ch=3 n=73 v=88
383276 Off ch=3 n=73 v=64
383322 Par ch=3 c=11 v=69
383442 Par ch=3 c=11 v=70
383520 On ch=3 n=75 v=88
383562 Par ch=3 c=11 v=71
383652 Par ch=3 c=11 v=72
383712 Par ch=3 c=11 v=73
383772 Par ch=3 c=11 v=74
383780 Off ch=3 n=75 v=64
383832 Par ch=3 c=11 v=75
383980 Par ch=3 c=11 v=73
384000 On ch=3 n=77 v=88
384220 Par ch=3 c=11 v=71
384480 On ch=3 n=78 v=88
384540 Off ch=3 n=77 v=64
384740 Off ch=3 n=78 v=64
384960 On ch=3 n=80 v=88
385060 Par ch=3 c=11 v=70
385180 Off ch=3 n=80 v=64
385360 Par ch=3 c=11 v=69
385440 On ch=3 n=82 v=88
385600 Par ch=3 c=11 v=68
385660 Off ch=3 n=82 v=64
385840 Par ch=3 c=11 v=67
385920 On ch=3 n=75 v=88
385980 Par ch=3 c=11 v=66
386060 Par ch=3 c=11 v=65
386240 Par ch=3 c=11 v=64
386300 Par ch=3 c=11 v=63
386360 Par ch=3 c=11 v=61
386420 Par ch=3 c=11 v=59
386480 Par ch=3 c=11 v=56
386540 Par ch=3 c=11 v=54
386600 Par ch=3 c=11 v=51
386640 Off ch=3 n=75 v=64
386660 Par ch=3 c=11 v=47
386720 Par ch=3 c=11 v=43
386760 Par ch=3 c=11 v=40
386880 On ch=3 n=75 v=88
386880 Par ch=3 c=11 v=69
387140 Off ch=3 n=75 v=64
387150 Par ch=3 c=11 v=70
387270 Par ch=3 c=11 v=71
387330 Par ch=3 c=11 v=72
387360 On ch=3 n=77 v=88
387420 Par ch=3 c=11 v=73
387480 Par ch=3 c=11 v=74
387510 Par ch=3 c=11 v=75
387570 Par ch=3 c=11 v=76
387620 Off ch=3 n=77 v=64
387630 Par ch=3 c=11 v=77
387648 Par ch=3 c=11 v=78
387840 On ch=3 n=77 v=88
387840 Par ch=3 c=11 v=82
388320 On ch=3 n=78 v=88
388340 Off ch=3 n=77 v=64
388380 Par ch=3 c=11 v=81
388560 Par ch=3 c=11 v=80
388580 Off ch=3 n=78 v=64
388740 Par ch=3 c=11 v=79
388800 On ch=3 n=78 v=88
388860 Par ch=3 c=11 v=78
388980 Par ch=3 c=11 v=77
389060 Off ch=3 n=78 v=64
389100 Par ch=3 c=11 v=76
389220 Par ch=3 c=11 v=75
389260 Par ch=3 c=11 v=74
389280 On ch=3 n=77 v=88
389340 Par ch=3 c=11 v=74
389540 Off ch=3 n=77 v=64
389580 Par ch=3 c=11 v=75
389660 Par ch=3 c=11 v=76
389740 Par ch=3 c=11 v=79
389760 On ch=3 n=78 v=88
389920 Par ch=3 c=11 v=78
389980 Par ch=3 c=11 v=77
390040 Par ch=3 c=11 v=76
390100 Par ch=3 c=11 v=75
390160 Par ch=3 c=11 v=73
390220 Par ch=3 c=11 v=71
390280 Par ch=3 c=11 v=69
390340 Par ch=3 c=11 v=66
390400 Par ch=3 c=11 v=63
390460 Par ch=3 c=11 v=60
390520 Par ch=3 c=11 v=57
390540 Off ch=3 n=78 v=64
390580 Par ch=3 c=11 v=53
390680 Par ch=3 c=11 v=77
390720 On ch=3 n=73 v=88
390980 Par ch=3 c=11 v=76
391040 Par ch=3 c=11 v=75
391100 Par ch=3 c=11 v=74
391140 Par ch=3 c=11 v=75
391200 On ch=3 n=75 v=88
391260 Off ch=3 n=73 v=64
391260 Par ch=3 c=11 v=76
391380 Par ch=3 c=11 v=77
391460 Off ch=3 n=75 v=64
391500 Par ch=3 c=11 v=78
391540 Par ch=3 c=11 v=79
391660 Par ch=3 c=11 v=82
391680 On ch=3 n=77 v=88
391680 Par ch=3 c=11 v=81
392160 On ch=3 n=78 v=88
392200 Off ch=3 n=77 v=64
392420 Off ch=3 n=78 v=64
392640 On ch=3 n=77 v=88
392900 Off ch=3 n=77 v=64
393120 On ch=3 n=75 v=88
393270 Par ch=3 c=11 v=82
393380 Off ch=3 n=75 v=64
393600 On ch=3 n=77 v=88
393900 Par ch=3 c=11 v=83
394410 Par ch=3 c=11 v=84
394560 On ch=3 n=75 v=88
394620 Off ch=3 n=77 v=64
394820 Off ch=3 n=75 v=64
394830 Par ch=3 c=11 v=85
395040 On ch=3 n=73 v=88
395190 Par ch=3 c=11 v=86
395300 Off ch=3 n=73 v=64
395520 On ch=3 n=75 v=88
395520 Par ch=3 c=11 v=92
396000 On ch=3 n=77 v=88
396020 Off ch=3 n=75 v=64
396280 Off ch=3 n=77 v=64
396480 On ch=3 n=78 v=88
396600 Par ch=3 c=11 v=91
396720 Off ch=3 n=78 v=64
396960 On ch=3 n=80 v=88
397050 Par ch=3 c=11 v=90
397156 Off ch=3 n=80 v=64
397380 Par ch=3 c=11 v=89
397392 Par ch=3 c=11 v=56
397440 On ch=3 n=82 v=88
397782 Par ch=3 c=11 v=55
397932 Par ch=3 c=11 v=54
398052 Par ch=3 c=11 v=53
398142 Par ch=3 c=11 v=52
398232 Par ch=3 c=11 v=51
398292 Par ch=3 c=11 v=50
398352 Par ch=3 c=11 v=64
398368 Off ch=3 n=82 v=64
398400 On ch=3 n=75 v=88
398772 Par ch=3 c=11 v=65
398880 On ch=3 n=73 v=88
398900 Off ch=3 n=75 v=64
398922 Par ch=3 c=11 v=66
399042 Par ch=3 c=11 v=67
399140 Off ch=3 n=73 v=64
399162 Par ch=3 c=11 v=68
399240 Par ch=3 c=11 v=69
399360 On ch=3 n=71 v=88
399360 Par ch=3 c=11 v=71
399810 Par ch=3 c=11 v=70
399840 On ch=3 n=70 v=88
399900 Off ch=3 n=71 v=64
399990 Par ch=3 c=11 v=69
400100 Off ch=3 n=70 v=64
400110 Par ch=3 c=11 v=68
400230 Par ch=3 c=11 v=67
400320 On ch=3 n=68 v=88
400350 Par ch=3 c=11 v=66
400440 Par ch=3 c=11 v=65
400500 Par ch=3 c=11 v=64
400540 Off ch=3 n=68 v=64
400590 Par ch=3 c=11 v=63
400650 Par ch=3 c=11 v=62
400740 Par ch=3 c=11 v=61
400800 On ch=3 n=65 v=88
400800 Par ch=3 c=11 v=60
400860 Par ch=3 c=11 v=59
400920 Par ch=3 c=11 v=58
400980 Par ch=3 c=11 v=57
401020 Off ch=3 n=65 v=64
401040 Par ch=3 c=11 v=56
401100 Par ch=3 c=11 v=55
401160 Par ch=3 c=11 v=54
401190 Par ch=3 c=11 v=53
401250 Par ch=3 c=11 v=52
401280 On ch=3 n=66 v=88
401310 Par ch=3 c=11 v=51
401340 Par ch=3 c=11 v=50
401400 Par ch=3 c=11 v=49
401430 Par ch=3 c=11 v=48
401490 Par ch=3 c=11 v=47
401520 Par ch=3 c=11 v=46
401580 Par ch=3 c=11 v=45
401610 Par ch=3 c=11 v=44
401640 Par ch=3 c=11 v=43
401700 Par ch=3 c=11 v=42
401730 Par ch=3 c=11 v=41
401760 Par ch=3 c=11 v=40
401776 Off ch=3 n=66 v=64
401820 Par ch=3 c=11 v=39
401850 Par ch=3 c=11 v=38
401880 Par ch=3 c=11 v=37
401910 Par ch=3 c=11 v=36
401940 Par ch=3 c=11 v=35
402000 Par ch=3 c=11 v=34
402030 Par ch=3 c=11 v=33
402060 Par ch=3 c=11 v=32
402090 Par ch=3 c=11 v=31
402120 Par ch=3 c=11 v=30
402144 Par ch=3 c=11 v=29
433920 On ch=3 n=64 v=88
433920 Par ch=3 c=11 v=109
434400 On ch=3 n=72 v=88
434416 Off ch=3 n=64 v=64
434640 Off ch=3 n=72 v=64
434640 On ch=3 n=76 v=88
434848 Off ch=3 n=76 v=64
435840 On ch=3 n=64 v=88
436320 On ch=3 n=72 v=88
436336 Off ch=3 n=64 v=64
436560 Off ch=3 n=72 v=64
436560 On ch=3 n=76 v=88
436768 Off ch=3 n=76 v=64
437760 On ch=3 n=64 v=88
438240 On ch=3 n=69 v=88
438256 Off ch=3 n=64 v=64
438480 Off ch=3 n=69 v=64
438480 On ch=3 n=76 v=88
438688 Off ch=3 n=76 v=64
439680 On ch=3 n=64 v=88
440160 On ch=3 n=69 v=88
440176 Off ch=3 n=64 v=64
440400 Off ch=3 n=69 v=64
440400 On ch=3 n=76 v=88
440608 Off ch=3 n=76 v=64
441600 On ch=3 n=64 v=88
442080 On ch=3 n=71 v=88
442096 Off ch=3 n=64 v=64
442320 Off ch=3 n=71 v=64
442320 On ch=3 n=76 v=88
442528 Off ch=3 n=76 v=64
443520 On ch=3 n=64 v=88
444000 On ch=3 n=71 v=88
444016 Off ch=3 n=64 v=64
444240 Off ch=3 n=71 v=64
444240 On ch=3 n=76 v=88
444448 Off ch=3 n=76 v=64
445440 On ch=3 n=64 v=88
445920 On ch=3 n=71 v=88
445936 Off ch=3 n=64 v=64
446160 Off ch=3 n=71 v=64
446160 On ch=3 n=76 v=88
446368 Off ch=3 n=76 v=64
447360 On ch=3 n=64 v=88
447840 On ch=3 n=71 v=88
447856 Off ch=3 n=64 v=64
448080 Off ch=3 n=71 v=64
448080 On ch=3 n=76 v=88
448288 Off ch=3 n=76 v=64
449280 On ch=3 n=64 v=88
449760 On ch=3 n=72 v=88
449776 Off ch=3 n=64 v=64
450000 Off ch=3 n=72 v=64
450000 On ch=3 n=76 v=88
450208 Off ch=3 n=76 v=64
451200 On ch=3 n=64 v=88
451680 On ch=3 n=72 v=88
451696 Off ch=3 n=64 v=64
451920 Off ch=3 n=72 v=64
451920 On ch=3 n=76 v=88
452128 Off ch=3 n=76 v=64
453120 On ch=3 n=64 v=88
453600 On ch=3 n=69 v=88
453616 Off ch=3 n=64 v=64
453840 Off ch=3 n=69 v=64
453840 On ch=3 n=76 v=88
454048 Off ch=3 n=76 v=64
455040 On ch=3 n=64 v=88
455520 On ch=3 n=69 v=88
455536 Off ch=3 n=64 v=64
455760 Off ch=3 n=69 v=64
455760 On ch=3 n=76 v=88
455968 Off ch=3 n=76 v=64
456960 On ch=3 n=64 v=88
457440 On ch=3 n=71 v=88
457456 Off ch=3 n=64 v=64
457680 Off ch=3 n=71 v=64
457680 On ch=3 n=76 v=88
457888 Off ch=3 n=76 v=64
458880 On ch=3 n=64 v=88
459360 On ch=3 n=71 v=88
459376 Off ch=3 n=64 v=64
459600 Off ch=3 n=71 v=64
459600 On ch=3 n=76 v=88
459808 Off ch=3 n=76 v=64
460800 On ch=3 n=64 v=88
461280 On ch=3 n=71 v=88
461296 Off ch=3 n=64 v=64
461520 Off ch=3 n=71 v=64
461520 On ch=3 n=76 v=88
461728 Off ch=3 n=76 v=64
462720 On ch=3 n=64 v=88
463216 Off ch=3 n=64 v=64
463216 Meta TrkEnd
TrkEnd
MTrk
0 SeqSpec 43 00 01 ff
0 Meta TrkName "Clarinet"
1920 PrCh ch=4 p=3
1930 Par ch=4 c=7 v=84
1940 Par ch=4 c=10 v=64
1950 Par ch=4 c=11 v=127
1960 Par ch=4 c=20 v=127
1970 Par ch=4 c=91 v=0
1980 Par ch=4 c=93 v=0
1990 Par ch=4 c=94 v=0
2000 Par ch=4 c=101 v=0
2010 Par ch=4 c=100 v=0
2020 Par ch=4 c=6 v=2
2030 Par ch=4 c=101 v=127
2040 Par ch=4 c=100 v=127
92160 On ch=4 n=68 v=88
92160 Par ch=4 c=11 v=90
92400 Off ch=4 n=68 v=64
93000 Par ch=4 c=11 v=91
93120 On ch=4 n=70 v=88
93360 Off ch=4 n=70 v=64
93360 Par ch=4 c=11 v=92
93600 Par ch=4 c=11 v=93
93840 Par ch=4 c=11 v=94
94020 Par ch=4 c=11 v=95
94080 On ch=4 n=72 v=88
94080 On ch=4 n=70 v=88
94200 Par ch=4 c=11 v=96
94320 Off ch=4 n=70 v=64
94320 Off ch=4 n=72 v=64
94380 Par ch=4 c=11 v=97
94530 Par ch=4 c=11 v=98
94680 Par ch=4 c=11 v=99
94800 Par ch=4 c=11 v=100
94920 Par ch=4 c=11 v=101
95040 On ch=4 n=74 v=88
95040 Par ch=4 c=11 v=102
95040 On ch=4 n=70 v=88
95160 Par ch=4 c=11 v=103
95280 Off ch=4 n=70 v=64
95280 Off ch=4 n=74 v=64
95280 Par ch=4 c=11 v=104
95400 Par ch=4 c=11 v=105
95490 Par ch=4 c=11 v=106
95584 Par ch=4 c=11 v=107
96000 Par ch=4 c=11 v=52
96000 On ch=4 n=70 v=100
96000 On ch=4 n=78 v=100
96032 Par ch=4 c=11 v=55
97442 Par ch=4 c=11 v=56
98012 Par ch=4 c=11 v=57
98462 Par ch=4 c=11 v=58
98822 Par ch=4 c=11 v=59
99152 Par ch=4 c=11 v=60
99452 Par ch=4 c=11 v=61
99722 Par ch=4 c=11 v=62
99962 Par ch=4 c=11 v=63
100202 Par ch=4 c=11 v=64
100442 Par ch=4 c=11 v=65
100652 Par ch=4 c=11 v=66
100862 Par ch=4 c=11 v=67
101042 Par ch=4 c=11 v=68
101252 Par ch=4 c=11 v=69
101408 Par ch=4 c=11 v=70
101792 Par ch=4 c=11 v=70
102302 Par ch=4 c=11 v=69
102512 Par ch=4 c=11 v=68
102662 Par ch=4 c=11 v=67
102812 Par ch=4 c=11 v=66
102902 Par ch=4 c=11 v=65
103022 Par ch=4 c=11 v=64
103112 Par ch=4 c=11 v=63
103202 Par ch=4 c=11 v=62
103292 Par ch=4 c=11 v=61
103382 Par ch=4 c=11 v=60
103442 Par ch=4 c=11 v=59
103532 Par ch=4 c=11 v=58
103592 Par ch=4 c=11 v=57
103648 Par ch=4 c=11 v=56
103680 Off ch=4 n=78 v=100
103680 Off ch=4 n=70 v=100
103680 On ch=4 n=71 v=100
103680 On ch=4 n=78 v=100
103712 Par ch=4 c=11 v=59
104912 Par ch=4 c=11 v=60
105392 Par ch=4 c=11 v=61
105782 Par ch=4 c=11 v=62
106112 Par ch=4 c=11 v=63
106368 Par ch=4 c=11 v=64
107520 Off ch=4 n=78 v=100
107520 Off ch=4 n=71 v=100
107520 On ch=4 n=70 v=100
107520 On ch=4 n=80 v=100
107552 Par ch=4 c=11 v=56
108032 Par ch=4 c=11 v=57
108242 Par ch=4 c=11 v=58
108392 Par ch=4 c=11 v=59
108512 Par ch=4 c=11 v=60
108632 Par ch=4 c=11 v=61
108752 Par ch=4 c=11 v=62
108842 Par ch=4 c=11 v=63
108932 Par ch=4 c=11 v=64
108992 Par ch=4 c=11 v=65
109082 Par ch=4 c=11 v=66
109142 Par ch=4 c=11 v=67
109232 Par ch=4 c=11 v=68
109280 Par ch=4 c=11 v=69
109440 Off ch=4 n=80 v=100
109440 Off ch=4 n=70 v=100
109440 On ch=4 n=70 v=100
109440 On ch=4 n=77 v=100
109696 Par ch=4 c=11 v=67
110056 Par ch=4 c=11 v=66
110206 Par ch=4 c=11 v=65
110326 Par ch=4 c=11 v=64
110416 Par ch=4 c=11 v=63
110506 Par ch=4 c=11 v=62
110566 Par ch=4 c=11 v=61
110626 Par ch=4 c=11 v=60
110686 Par ch=4 c=11 v=59
110746 Par ch=4 c=11 v=58
110806 Par ch=4 c=11 v=57
110866 Par ch=4 c=11 v=56
110926 Par ch=4 c=11 v=55
110956 Par ch=4 c=11 v=54
111016 Par ch=4 c=11 v=53
111076 Par ch=4 c=11 v=52
111106 Par ch=4 c=11 v=51
111136 Par ch=4 c=11 v=50
111360 Off ch=4 n=77 v=100
111360 Off ch=4 n=70 v=100
111360 On ch=4 n=78 v=100
111360 On ch=4 n=70 v=100
111360 Par ch=4 c=11 v=52
111392 Par ch=4 c=11 v=55
112802 Par ch=4 c=11 v=56
113372 Par ch=4 c=11 v=57
113822 Par ch=4 c=11 v=58
114182 Par ch=4 c=11 v=59
114512 Par ch=4 c=11 v=60
114812 Par ch=4 c=11 v=61
115082 Par ch=4 c=11 v=62
115322 Par ch=4 c=11 v=63
115562 Par ch=4 c=11 v=64
115802 Par ch=4 c=11 v=65
116012 Par ch=4 c=11 v=66
116222 Par ch=4 c=11 v=67
116402 Par ch=4 c=11 v=68
116612 Par ch=4 c=11 v=69
116768 Par ch=4 c=11 v=70
117152 Par ch=4 c=11 v=70
117662 Par ch=4 c=11 v=69
117872 Par ch=4 c=11 v=68
118022 Par ch=4 c=11 v=67
118172 Par ch=4 c=11 v=66
118262 Par ch=4 c=11 v=65
118382 Par ch=4 c=11 v=64
118472 Par ch=4 c=11 v=63
118562 Par ch=4 c=11 v=62
118652 Par ch=4 c=11 v=61
118742 Par ch=4 c=11 v=60
118802 Par ch=4 c=11 v=59
118892 Par ch=4 c=11 v=58
118952 Par ch=4 c=11 v=57
119008 Par ch=4 c=11 v=56
119040 Off ch=4 n=70 v=100
119040 Off ch=4 n=78 v=100
119040 On ch=4 n=78 v=100
119040 On ch=4 n=71 v=100
119072 Par ch=4 c=11 v=59
120272 Par ch=4 c=11 v=60
120752 Par ch=4 c=11 v=61
121142 Par ch=4 c=11 v=62
121472 Par ch=4 c=11 v=63
121728 Par ch=4 c=11 v=64
122880 Off ch=4 n=71 v=100
122880 Off ch=4 n=78 v=100
122880 On ch=4 n=80 v=100
122880 On ch=4 n=70 v=100
122912 Par ch=4 c=11 v=56
123392 Par ch=4 c=11 v=57
123602 Par ch=4 c=11 v=58
123752 Par ch=4 c=11 v=59
123872 Par ch=4 c=11 v=60
123992 Par ch=4 c=11 v=61
124112 Par ch=4 c=11 v=62
124202 Par ch=4 c=11 v=63
124292 Par ch=4 c=11 v=64
124352 Par ch=4 c=11 v=65
124442 Par ch=4 c=11 v=66
124502 Par ch=4 c=11 v=67
124592 Par ch=4 c=11 v=68
124640 Par ch=4 c=11 v=69
124800 Off ch=4 n=70 v=100
124800 Off ch=4 n=80 v=100
124800 On ch=4 n=77 v=100
124800 On ch=4 n=70 v=100
125056 Par ch=4 c=11 v=67
125416 Par ch=4 c=11 v=66
125566 Par ch=4 c=11 v=65
125686 Par ch=4 c=11 v=64
125776 Par ch=4 c=11 v=63
125866 Par ch=4 c=11 v=62
125926 Par ch=4 c=11 v=61
125986 Par ch=4 c=11 v=60
126046 Par ch=4 c=11 v=59
126106 Par ch=4 c=11 v=58
126166 Par ch=4 c=11 v=57
126226 Par ch=4 c=11 v=56
126286 Par ch=4 c=11 v=55
126316 Par ch=4 c=11 v=54
126376 Par ch=4 c=11 v=53
126436 Par ch=4 c=11 v=52
126466 Par ch=4 c=11 v=51
126496 Par ch=4 c=11 v=50
126720 Off ch=4 n=70 v=100
126720 Off ch=4 n=77 v=100
126720 On ch=4 n=66 v=88
126720 Par ch=4 c=11 v=73
126720 On ch=4 n=75 v=88
127710 Par ch=4 c=11 v=74
128100 Par ch=4 c=11 v=75
128430 Par ch=4 c=11 v=76
128670 Par ch=4 c=11 v=77
128910 Par ch=4 c=11 v=78
129120 Par ch=4 c=11 v=79
129300 Par ch=4 c=11 v=80
129480 Par ch=4 c=11 v=81
129660 Par ch=4 c=11 v=82
129810 Par ch=4 c=11 v=83
129960 Par ch=4 c=11 v=84
130110 Par ch=4 c=11 v=85
130224 Par ch=4 c=11 v=86
130560 Off ch=4 n=75 v=64
130560 Off ch=4 n=66 v=64
130560 On ch=4 n=65 v=88
130560 Par ch=4 c=11 v=72
130560 On ch=4 n=73 v=88
131430 Par ch=4 c=11 v=73
131760 Par ch=4 c=11 v=74
132030 Par ch=4 c=11 v=75
132270 Par ch=4 c=11 v=76
132480 Par ch=4 c=11 v=77
132660 Par ch=4 c=11 v=78
132810 Par ch=4 c=11 v=79
132960 Par ch=4 c=11 v=80
133110 Par ch=4 c=11 v=81
133260 Par ch=4 c=11 v=82
133380 Par ch=4 c=11 v=83
133500 Par ch=4 c=11 v=84
133620 Par ch=4 c=11 v=85
133740 Par ch=4 c=11 v=86
133860 Par ch=4 c=11 v=87
133980 Par ch=4 c=11 v=88
134070 Par ch=4 c=11 v=89
134160 Par ch=4 c=11 v=90
134400 Off ch=4 n=73 v=64
134400 Off ch=4 n=65 v=64
134400 On ch=4 n=63 v=88
134400 Par ch=4 c=11 v=73
134400 On ch=4 n=70 v=88
134430 Par ch=4 c=11 v=74
134610 Par ch=4 c=11 v=75
134790 Par ch=4 c=11 v=76
135030 Par ch=4 c=11 v=77
135270 Par ch=4 c=11 v=78
135540 Par ch=4 c=11 v=79
135870 Par ch=4 c=11 v=80
136290 Par ch=4 c=11 v=81
138264 Par ch=4 c=11 v=81
139314 Par ch=4 c=11 v=80
139734 Par ch=4 c=11 v=79
140064 Par ch=4 c=11 v=78
140334 Par ch=4 c=11 v=77
140574 Par ch=4 c=11 v=76
140784 Par ch=4 c=11 v=75
140994 Par ch=4 c=11 v=74
141174 Par ch=4 c=11 v=73
141354 Par ch=4 c=11 v=72
141534 Par ch=4 c=11 v=71
141684 Par ch=4 c=11 v=70
141834 Par ch=4 c=11 v=69
141936 Off ch=4 n=70 v=64
141960 Par ch=4 c=11 v=68
141984 Off ch=4 n=63 v=64
142080 On ch=4 n=75 v=88
142080 On ch=4 n=66 v=88
142080 Par ch=4 c=11 v=73
143070 Par ch=4 c=11 v=74
143460 Par ch=4 c=11 v=75
143790 Par ch=4 c=11 v=76
144030 Par ch=4 c=11 v=77
144270 Par ch=4 c=11 v=78
144480 Par ch=4 c=11 v=79
144660 Par ch=4 c=11 v=80
144840 Par ch=4 c=11 v=81
145020 Par ch=4 c=11 v=82
145170 Par ch=4 c=11 v=83
145320 Par ch=4 c=11 v=84
145470 Par ch=4 c=11 v=85
145584 Par ch=4 c=11 v=86
145920 Off ch=4 n=66 v=64
145920 Off ch=4 n=75 v=64
145920 On ch=4 n=73 v=88
145920 On ch=4 n=65 v=88
145920 Par ch=4 c=11 v=72
146790 Par ch=4 c=11 v=73
147120 Par ch=4 c=11 v=74
147390 Par ch=4 c=11 v=75
147630 Par ch=4 c=11 v=76
147840 Par ch=4 c=11 v=77
148020 Par ch=4 c=11 v=78
148170 Par ch=4 c=11 v=79
148320 Par ch=4 c=11 v=80
148470 Par ch=4 c=11 v=81
148620 Par ch=4 c=11 v=82
148740 Par ch=4 c=11 v=83
148860 Par ch=4 c=11 v=84
148980 Par ch=4 c=11 v=85
149100 Par ch=4 c=11 v=86
149220 Par ch=4 c=11 v=87
149340 Par ch=4 c=11 v=88
149430 Par ch=4 c=11 v=89
149520 Par ch=4 c=11 v=90
149760 Off ch=4 n=65 v=64
149760 Off ch=4 n=73 v=64
149760 On ch=4 n=70 v=88
149760 On ch=4 n=63 v=88
149760 Par ch=4 c=11 v=73
149790 Par ch=4 c=11 v=74
149970 Par ch=4 c=11 v=75
150150 Par ch=4 c=11 v=76
150390 Par ch=4 c=11 v=77
150630 Par ch=4 c=11 v=78
150900 Par ch=4 c=11 v=79
151230 Par ch=4 c=11 v=80
151650 Par ch=4 c=11 v=81
153624 Par ch=4 c=11 v=81
154674 Par ch=4 c=11 v=80
155094 Par ch=4 c=11 v=79
155424 Par ch=4 c=11 v=78
155694 Par ch=4 c=11 v=77
155934 Par ch=4 c=11 v=76
156144 Par ch=4 c=11 v=75
156354 Par ch=4 c=11 v=74
156534 Par ch=4 c=11 v=73
156714 Par ch=4 c=11 v=72
156894 Par ch=4 c=11 v=71
157044 Par ch=4 c=11 v=70
157194 Par ch=4 c=11 v=69
157296 Off ch=4 n=70 v=64
157320 Par ch=4 c=11 v=68
157344 Off ch=4 n=63 v=64
157440 Par ch=4 c=11 v=91
158280 Par ch=4 c=11 v=91
158400 On ch=4 n=70 v=88
158400 On ch=4 n=82 v=88
158550 Par ch=4 c=11 v=92
158640 Par ch=4 c=11 v=93
158660 Off ch=4 n=82 v=64
158660 Off ch=4 n=70 v=64
158730 Par ch=4 c=11 v=94
158790 Par ch=4 c=11 v=95
158850 Par ch=4 c=11 v=96
158880 On ch=4 n=73 v=88
158880 On ch=4 n=85 v=88
158910 Par ch=4 c=11 v=97
158970 Par ch=4 c=11 v=98
159000 Par ch=4 c=11 v=99
159060 Par ch=4 c=11 v=100
159090 Par ch=4 c=11 v=101
159140 Off ch=4 n=85 v=64
159140 Off ch=4 n=73 v=64
159150 Par ch=4 c=11 v=102
159180 Par ch=4 c=11 v=103
159210 Par ch=4 c=11 v=104
159240 Par ch=4 c=11 v=105
159264 Par ch=4 c=11 v=106
159360 On ch=4 n=73 v=88
159360 On ch=4 n=85 v=88
159360 Par ch=4 c=11 v=107
159840 On ch=4 n=75 v=88
159840 On ch=4 n=87 v=88
159860 Off ch=4 n=85 v=64
159860 Off ch=4 n=73 v=64
159900 Par ch=4 c=11 v=107
160080 Par ch=4 c=11 v=106
160100 Off ch=4 n=87 v=64
160100 Off ch=4 n=75 v=64
160260 Par ch=4 c=11 v=105
160320 On ch=4 n=70 v=88
160320 On ch=4 n=82 v=88
160380 Par ch=4 c=11 v=104
160500 Par ch=4 c=11 v=103
160580 Off ch=4 n=82 v=64
160580 Off ch=4 n=70 v=64
160620 Par ch=4 c=11 v=102
160740 Par ch=4 c=11 v=101
160780 Par ch=4 c=11 v=100
160800 On ch=4 n=68 v=88
160800 On ch=4 n=80 v=88
160860 Par ch=4 c=11 v=100
161060 Off ch=4 n=80 v=64
161060 Off ch=4 n=68 v=64
161100 Par ch=4 c=11 v=101
161180 Par ch=4 c=11 v=102
161260 Par ch=4 c=11 v=105
161280 On ch=4 n=70 v=88
161280 On ch=4 n=82 v=88
161440 Par ch=4 c=11 v=104
161500 Par ch=4 c=11 v=103
161560 Par ch=4 c=11 v=102
161620 Par ch=4 c=11 v=101
161680 Par ch=4 c=11 v=99
161740 Par ch=4 c=11 v=97
161800 Par ch=4 c=11 v=95
161860 Par ch=4 c=11 v=92
161920 Par ch=4 c=11 v=89
161980 Par ch=4 c=11 v=86
162040 Par ch=4 c=11 v=83
162060 Off ch=4 n=82 v=64
162060 Off ch=4 n=70 v=64
162100 Par ch=4 c=11 v=79
162200 Par ch=4 c=11 v=103
162240 On ch=4 n=68 v=88
162240 On ch=4 n=80 v=88
162500 Par ch=4 c=11 v=102
162560 Par ch=4 c=11 v=101
162620 Par ch=4 c=11 v=100
162660 Par ch=4 c=11 v=101
162720 On ch=4 n=70 v=88
162720 On ch=4 n=82 v=88
162780 Off ch=4 n=80 v=64
162780 Off ch=4 n=68 v=64
162780 Par ch=4 c=11 v=102
162900 Par ch=4 c=11 v=103
162980 Off ch=4 n=82 v=64
162980 Off ch=4 n=70 v=64
163020 Par ch=4 c=11 v=104
163060 Par ch=4 c=11 v=105
163180 Par ch=4 c=11 v=108
163200 On ch=4 n=73 v=88
163200 On ch=4 n=85 v=88
163680 On ch=4 n=75 v=88
163680 On ch=4 n=87 v=88
163720 Off ch=4 n=85 v=64
163720 Off ch=4 n=73 v=64
163900 Par ch=4 c=11 v=107
163940 Off ch=4 n=87 v=64
163940 Off ch=4 n=75 v=64
164140 Par ch=4 c=11 v=106
164160 On ch=4 n=70 v=88
164160 On ch=4 n=82 v=88
164380 Par ch=4 c=11 v=105
164420 Off ch=4 n=82 v=64
164420 Off ch=4 n=70 v=64
164560 Par ch=4 c=11 v=104
164640 On ch=4 n=68 v=88
164640 On ch=4 n=80 v=88
164680 Par ch=4 c=11 v=103
164800 Par ch=4 c=11 v=102
164900 Off ch=4 n=80 v=64
164900 Off ch=4 n=68 v=64
164900 Par ch=4 c=11 v=100
165120 On ch=4 n=70 v=88
165120 On ch=4 n=82 v=88
165140 Par ch=4 c=11 v=93
165200 Par ch=4 c=11 v=92
165260 Par ch=4 c=11 v=91
165280 Par ch=4 c=11 v=90
165380 Par ch=4 c=11 v=90
165500 Par ch=4 c=11 v=91
165620 Par ch=4 c=11 v=92
165680 Par ch=4 c=11 v=93
165800 Par ch=4 c=11 v=94
165860 Par ch=4 c=11 v=95
165920 Par ch=4 c=11 v=96
165980 Par ch=4 c=11 v=97
166040 Par ch=4 c=11 v=98
166060 Par ch=4 c=11 v=99
166080 On ch=4 n=68 v=88
166080 On ch=4 n=80 v=88
166140 Off ch=4 n=82 v=64
166140 Off ch=4 n=70 v=64
166340 Off ch=4 n=80 v=64
166340 Off ch=4 n=68 v=64
166560 On ch=4 n=70 v=88
166560 On ch=4 n=82 v=88
166820 Off ch=4 n=82 v=64
166820 Off ch=4 n=70 v=64
167000 Par ch=4 c=11 v=101
167040 On ch=4 n=68 v=88
167040 On ch=4 n=80 v=88
167520 On ch=4 n=66 v=88
167520 On ch=4 n=78 v=88
167540 Off ch=4 n=80 v=64
167540 Off ch=4 n=68 v=64
167660 Par ch=4 c=11 v=100
167800 Off ch=4 n=78 v=64
167800 Off ch=4 n=66 v=64
167900 Par ch=4 c=11 v=99
168000 On ch=4 n=65 v=88
168000 On ch=4 n=77 v=88
168140 Par ch=4 c=11 v=98
168240 Off ch=4 n=77 v=64
168240 Off ch=4 n=65 v=64
168260 Par ch=4 c=11 v=97
168440 Par ch=4 c=11 v=96
168480 On ch=4 n=61 v=88
168480 On ch=4 n=73 v=88
168540 Par ch=4 c=11 v=95
168660 Par ch=4 c=11 v=97
168820 Off ch=4 n=73 v=64
168820 Off ch=4 n=61 v=64
168840 Par ch=4 c=11 v=98
168900 Par ch=4 c=11 v=100
168920 Par ch=4 c=11 v=101
168960 On ch=4 n=63 v=88
168960 On ch=4 n=75 v=88
168980 Par ch=4 c=11 v=100
169160 Par ch=4 c=11 v=99
169220 Par ch=4 c=11 v=98
169280 Par ch=4 c=11 v=97
169340 Par ch=4 c=11 v=95
169400 Par ch=4 c=11 v=93
169460 Par ch=4 c=11 v=91
169512 Par ch=4 c=11 v=88
169542 Par ch=4 c=11 v=89
169602 Par ch=4 c=11 v=90
169662 Par ch=4 c=11 v=91
169782 Par ch=4 c=11 v=92
169816 Off ch=4 n=75 v=64
169816 Off ch=4 n=63 v=64
169872 Par ch=4 c=11 v=94
169920 On ch=4 n=61 v=88
169920 On ch=4 n=73 v=88
170202 Par ch=4 c=11 v=95
170322 Par ch=4 c=11 v=96
170400 On ch=4 n=63 v=88
170400 On ch=4 n=75 v=88
170420 Off ch=4 n=73 v=64
170420 Off ch=4 n=61 v=64
170442 Par ch=4 c=11 v=97
170532 Par ch=4 c=11 v=98
170592 Par ch=4 c=11 v=99
170652 Par ch=4 c=11 v=100
170660 Off ch=4 n=75 v=64
170660 Off ch=4 n=63 v=64
170712 Par ch=4 c=11 v=101
170860 Par ch=4 c=11 v=99
170880 On ch=4 n=65 v=88
170880 On ch=4 n=77 v=88
171100 Par ch=4 c=11 v=97
171360 On ch=4 n=66 v=88
171360 On ch=4 n=78 v=88
171420 Off ch=4 n=77 v=64
171420 Off ch=4 n=65 v=64
171620 Off ch=4 n=78 v=64
171620 Off ch=4 n=66 v=64
171840 On ch=4 n=68 v=88
171840 On ch=4 n=80 v=88
171940 Par ch=4 c=11 v=96
172060 Off ch=4 n=80 v=64
172060 Off ch=4 n=68 v=64
172240 Par ch=4 c=11 v=95
172320 On ch=4 n=70 v=88
172320 On ch=4 n=82 v=88
172480 Par ch=4 c=11 v=94
172540 Off ch=4 n=82 v=64
172540 Off ch=4 n=70 v=64
172720 Par ch=4 c=11 v=93
172800 On ch=4 n=66 v=88
172800 On ch=4 n=78 v=88
172800 Par ch=4 c=11 v=91
173520 Off ch=4 n=78 v=64
173520 Off ch=4 n=66 v=64
173640 Par ch=4 c=11 v=91
173760 On ch=4 n=82 v=88
173760 On ch=4 n=70 v=88
173910 Par ch=4 c=11 v=92
174000 Par ch=4 c=11 v=93
174020 Off ch=4 n=70 v=64
174020 Off ch=4 n=82 v=64
174090 Par ch=4 c=11 v=94
174150 Par ch=4 c=11 v=95
174210 Par ch=4 c=11 v=96
174240 On ch=4 n=85 v=88
174240 On ch=4 n=73 v=88
174270 Par ch=4 c=11 v=97
174330 Par ch=4 c=11 v=98
174360 Par ch=4 c=11 v=99
174420 Par ch=4 c=11 v=100
174450 Par ch=4 c=11 v=101
174500 Off ch=4 n=73 v=64
174500 Off ch=4 n=85 v=64
174510 Par ch=4 c=11 v=102
174540 Par ch=4 c=11 v=103
174570 Par ch=4 c=11 v=104
174600 Par ch=4 c=11 v=105
174624 Par ch=4 c=11 v=106
174720 On ch=4 n=85 v=88
174720 On ch=4 n=73 v=88
174720 Par ch=4 c=11 v=107
175200 On ch=4 n=87 v=88
175200 On ch=4 n=75 v=88
175220 Off ch=4 n=73 v=64
175220 Off ch=4 n=85 v=64
175260 Par ch=4 c=11 v=107
175440 Par ch=4 c=11 v=106
175460 Off ch=4 n=75 v=64
175460 Off ch=4 n=87 v=64
175620 Par ch=4 c=11 v=105
175680 On ch=4 n=82 v=88
175680 On ch=4 n=70 v=88
175740 Par ch=4 c=11 v=104
175860 Par ch=4 c=11 v=103
175940 Off ch=4 n=70 v=64
175940 Off ch=4 n=82 v=64
175980 Par ch=4 c=11 v=102
176100 Par ch=4 c=11 v=101
176140 Par ch=4 c=11 v=100
176160 On ch=4 n=80 v=88
176160 On ch=4 n=68 v=88
176220 Par ch=4 c=11 v=100
176420 Off ch=4 n=68 v=64
176420 Off ch=4 n=80 v=64
176460 Par ch=4 c=11 v=101
176540 Par ch=4 c=11 v=102
176620 Par ch=4 c=11 v=105
176640 On ch=4 n=82 v=88
176640 On ch=4 n=70 v=88
176800 Par ch=4 c=11 v=104
176860 Par ch=4 c=11 v=103
176920 Par ch=4 c=11 v=102
176980 Par ch=4 c=11 v=101
177040 Par ch=4 c=11 v=99
177100 Par ch=4 c=11 v=97
177160 Par ch=4 c=11 v=95
177220 Par ch=4 c=11 v=92
177280 Par ch=4 c=11 v=89
177340 Par ch=4 c=11 v=86
177400 Par ch=4 c=11 v=83
177420 Off ch=4 n=70 v=64
177420 Off ch=4 n=82 v=64
177460 Par ch=4 c=11 v=79
177560 Par ch=4 c=11 v=103
177600 On ch=4 n=80 v=88
177600 On ch=4 n=68 v=88
177860 Par ch=4 c=11 v=102
177920 Par ch=4 c=11 v=101
177980 Par ch=4 c=11 v=100
178020 Par ch=4 c=11 v=101
178080 On ch=4 n=82 v=88
178080 On ch=4 n=70 v=88
178140 Off ch=4 n=68 v=64
178140 Off ch=4 n=80 v=64
178140 Par ch=4 c=11 v=102
178260 Par ch=4 c=11 v=103
178340 Off ch=4 n=70 v=64
178340 Off ch=4 n=82 v=64
178380 Par ch=4 c=11 v=104
178420 Par ch=4 c=11 v=105
178540 Par ch=4 c=11 v=108
178560 On ch=4 n=85 v=88
178560 On ch=4 n=73 v=88
178944 Par ch=4 c=11 v=109
179040 On ch=4 n=87 v=88
179040 On ch=4 n=75 v=88
179080 Off ch=4 n=73 v=64
179080 Off ch=4 n=85 v=64
179300 Off ch=4 n=75 v=64
179300 Off ch=4 n=87 v=64
179484 Par ch=4 c=11 v=110
179520 On ch=4 n=75 v=88
179520 On ch=4 n=87 v=88
179694 Par ch=4 c=11 v=111
179780 Off ch=4 n=87 v=64
179780 Off ch=4 n=75 v=64
179844 Par ch=4 c=11 v=112
179994 Par ch=4 c=11 v=113
180000 On ch=4 n=77 v=88
180000 On ch=4 n=89 v=88
180114 Par ch=4 c=11 v=114
180204 Par ch=4 c=11 v=115
180260 Off ch=4 n=89 v=64
180260 Off ch=4 n=77 v=64
180324 Par ch=4 c=11 v=116
180414 Par ch=4 c=11 v=117
180480 On ch=4 n=78 v=88
180480 On ch=4 n=90 v=88
180480 Par ch=4 c=11 v=117
180960 On ch=4 n=77 v=88
180960 On ch=4 n=89 v=88
180980 Off ch=4 n=90 v=64
180980 Off ch=4 n=78 v=64
181240 Off ch=4 n=89 v=64
181240 Off ch=4 n=77 v=64
181440 On ch=4 n=75 v=88
181440 On ch=4 n=87 v=88
181560 Par ch=4 c=11 v=116
181680 Off ch=4 n=87 v=64
181680 Off ch=4 n=75 v=64
181920 On ch=4 n=73 v=88
181920 On ch=4 n=85 v=88
181980 Par ch=4 c=11 v=115
182260 Off ch=4 n=85 v=64
182260 Off ch=4 n=73 v=64
182310 Par ch=4 c=11 v=114
182400 On ch=4 n=70 v=88
182400 On ch=4 n=82 v=88
182610 Par ch=4 c=11 v=113
182850 Par ch=4 c=11 v=112
183060 Par ch=4 c=11 v=111
183270 Par ch=4 c=11 v=110
183328 Off ch=4 n=82 v=64
183328 Off ch=4 n=70 v=64
183360 On ch=4 n=71 v=88
183360 On ch=4 n=80 v=88
183480 Par ch=4 c=11 v=109
183660 Par ch=4 c=11 v=108
183810 Par ch=4 c=11 v=107
183840 On ch=4 n=73 v=88
183840 On ch=4 n=82 v=88
183860 Off ch=4 n=80 v=64
183860 Off ch=4 n=71 v=64
183990 Par ch=4 c=11 v=106
184100 Off ch=4 n=82 v=64
184100 Off ch=4 n=73 v=64
184140 Par ch=4 c=11 v=105
184290 Par ch=4 c=11 v=104
184320 On ch=4 n=71 v=88
184320 On ch=4 n=80 v=88
184416 Par ch=4 c=11 v=103
184464 Par ch=4 c=11 v=102
184794 Par ch=4 c=11 v=101
184800 On ch=4 n=70 v=88
184800 On ch=4 n=78 v=88
184860 Off ch=4 n=80 v=64
184860 Off ch=4 n=71 v=64
185060 Off ch=4 n=78 v=64
185060 Off ch=4 n=70 v=64
185094 Par ch=4 c=11 v=100
185280 On ch=4 n=68 v=88
185280 On ch=4 n=77 v=88
185364 Par ch=4 c=11 v=99
185500 Off ch=4 n=77 v=64
185500 Off ch=4 n=68 v=64
185634 Par ch=4 c=11 v=98
185760 On ch=4 n=65 v=88
185760 On ch=4 n=73 v=88
185874 Par ch=4 c=11 v=97
185980 Off ch=4 n=73 v=64
185980 Off ch=4 n=65 v=64
186096 Par ch=4 c=11 v=96
186240 On ch=4 n=66 v=88
186240 On ch=4 n=75 v=88
186240 Par ch=4 c=11 v=95
186390 Par ch=4 c=11 v=94
186450 Par ch=4 c=11 v=93
186510 Par ch=4 c=11 v=92
186540 Par ch=4 c=11 v=91
186570 Par ch=4 c=11 v=90
186600 Par ch=4 c=11 v=89
186630 Par ch=4 c=11 v=88
186660 Par ch=4 c=11 v=87
186690 Par ch=4 c=11 v=85
186720 Par ch=4 c=11 v=84
186750 Par ch=4 c=11 v=83
186780 Par ch=4 c=11 v=81
186810 Par ch=4 c=11 v=79
186840 Par ch=4 c=11 v=78
186870 Par ch=4 c=11 v=76
186900 Par ch=4 c=11 v=74
186930 Par ch=4 c=11 v=72
186960 Off ch=4 n=75 v=64
186960 Off ch=4 n=66 v=64
186960 Par ch=4 c=11 v=70
186990 Par ch=4 c=11 v=68
187020 Par ch=4 c=11 v=65
187050 Par ch=4 c=11 v=63
187080 Par ch=4 c=11 v=61
187104 Par ch=4 c=11 v=58
234240 On ch=4 n=75 v=88
234240 Par ch=4 c=11 v=109
234480 Off ch=4 n=75 v=64
234720 On ch=4 n=82 v=88
234960 Off ch=4 n=82 v=64
235200 On ch=4 n=80 v=88
235440 Off ch=4 n=80 v=64
235680 On ch=4 n=82 v=88
235920 Off ch=4 n=82 v=64
236160 On ch=4 n=78 v=88
236400 Off ch=4 n=78 v=64
236640 On ch=4 n=82 v=88
236880 Off ch=4 n=82 v=64
237120 On ch=4 n=77 v=88
237360 Off ch=4 n=77 v=64
237600 On ch=4 n=82 v=88
237840 Off ch=4 n=82 v=64
238080 On ch=4 n=75 v=88
238320 Off ch=4 n=75 v=64
238560 On ch=4 n=82 v=88
238800 Off ch=4 n=82 v=64
239040 On ch=4 n=80 v=88
239280 Off ch=4 n=80 v=64
239520 On ch=4 n=82 v=88
239760 Off ch=4 n=82 v=64
240000 On ch=4 n=78 v=88
240240 Off ch=4 n=78 v=64
240480 On ch=4 n=82 v=88
240720 Off ch=4 n=82 v=64
240960 On ch=4 n=77 v=88
241200 Off ch=4 n=77 v=64
241440 On ch=4 n=82 v=88
241680 Off ch=4 n=82 v=64
241920 On ch=4 n=75 v=88
242160 Off ch=4 n=75 v=64
242400 On ch=4 n=82 v=88
242640 Off ch=4 n=82 v=64
242880 On ch=4 n=80 v=88
243120 Off ch=4 n=80 v=64
243360 On ch=4 n=82 v=88
243600 Off ch=4 n=82 v=64
243840 On ch=4 n=78 v=88
244080 Off ch=4 n=78 v=64
244320 On ch=4 n=82 v=88
244560 Off ch=4 n=82 v=64
244800 On ch=4 n=77 v=88
245040 Off ch=4 n=77 v=64
245280 On ch=4 n=82 v=88
245520 Off ch=4 n=82 v=64
245760 On ch=4 n=75 v=88
246000 Off ch=4 n=75 v=64
246240 On ch=4 n=82 v=88
246480 Off ch=4 n=82 v=64
246720 On ch=4 n=80 v=88
246960 Off ch=4 n=80 v=64
247200 On ch=4 n=82 v=88
247440 Off ch=4 n=82 v=64
247680 On ch=4 n=78 v=88
247920 Off ch=4 n=78 v=64
248160 On ch=4 n=82 v=88
248400 Off ch=4 n=82 v=64
248640 On ch=4 n=77 v=88
248880 Off ch=4 n=77 v=64
249120 On ch=4 n=82 v=88
249360 Off ch=4 n=82 v=64
249600 Par ch=4 c=11 v=56
249600 On ch=4 n=63 v=56
249600 On ch=4 n=70 v=56
257152 Off ch=4 n=70 v=64
257152 Off ch=4 n=63 v=64
257280 On ch=4 n=63 v=56
257280 On ch=4 n=71 v=56
261120 Off ch=4 n=71 v=64
261120 Off ch=4 n=63 v=64
261120 On ch=4 n=65 v=56
261120 On ch=4 n=73 v=56
263040 Off ch=4 n=73 v=64
263040 On ch=4 n=74 v=56
264960 Off ch=4 n=74 v=64
264960 Off ch=4 n=65 v=64
264960 On ch=4 n=75 v=56
264960 On ch=4 n=70 v=56
272512 Off ch=4 n=70 v=64
272512 Off ch=4 n=75 v=64
272640 On ch=4 n=75 v=56
272640 On ch=4 n=71 v=56
276480 Off ch=4 n=71 v=64
276480 Off ch=4 n=75 v=64
276480 On ch=4 n=77 v=56
276480 On ch=4 n=73 v=56
278400 Off ch=4 n=73 v=64
278400 On ch=4 n=74 v=56
280320 Off ch=4 n=74 v=64
280320 Off ch=4 n=77 v=64
280320 Par ch=4 c=7 v=100
282144 Par ch=4 c=11 v=127
282720 On ch=4 n=70 v=88
283200 On ch=4 n=75 v=88
283328 Off ch=4 n=70 v=64
283488 Off ch=4 n=75 v=64
283680 On ch=4 n=77 v=88
283872 Off ch=4 n=77 v=64
284160 On ch=4 n=78 v=88
284448 Off ch=4 n=78 v=64
285120 On ch=4 n=80 v=88
285408 Off ch=4 n=80 v=64
286080 On ch=4 n=82 v=88
286560 On ch=4 n=83 v=88
286624 Off ch=4 n=82 v=64
286816 Off ch=4 n=83 v=64
287040 On ch=4 n=82 v=88
287296 Off ch=4 n=82 v=64
287520 On ch=4 n=80 v=88
287776 Off ch=4 n=80 v=64
288000 On ch=4 n=78 v=88
290088 Off ch=4 n=78 v=64
290400 On ch=4 n=78 v=88
290880 On ch=4 n=77 v=88
290976 Off ch=4 n=78 v=64
291264 Off ch=4 n=77 v=64
291360 On ch=4 n=78 v=88
291584 Off ch=4 n=78 v=64
291840 On ch=4 n=80 v=88
292192 Off ch=4 n=80 v=64
292800 On ch=4 n=78 v=88
293216 Off ch=4 n=78 v=64
293760 On ch=4 n=77 v=88
294240 On ch=4 n=75 v=88
294272 Off ch=4 n=77 v=64
294464 Off ch=4 n=75 v=64
294720 On ch=4 n=74 v=88
295632 Off ch=4 n=74 v=64
295680 On ch=4 n=75 v=119
296160 On ch=4 n=77 v=119
296256 Off ch=4 n=75 v=64
296512 Off ch=4 n=77 v=64
296640 On ch=4 n=78 v=119
296944 Off ch=4 n=78 v=64
297120 On ch=4 n=80 v=119
297392 Off ch=4 n=80 v=64
297600 On ch=4 n=82 v=119
298560 On ch=4 n=75 v=103
298592 Off ch=4 n=82 v=64
299040 Off ch=4 n=75 v=64
299040 On ch=4 n=85 v=119
299520 Off ch=4 n=85 v=64
299520 On ch=4 n=82 v=119
299984 Off ch=4 n=82 v=64
300480 On ch=4 n=75 v=119
300880 Off ch=4 n=75 v=64
301440 On ch=4 n=82 v=119
301920 Off ch=4 n=82 v=64
301920 On ch=4 n=80 v=119
302240 Off ch=4 n=80 v=64
302400 On ch=4 n=78 v=119
302688 Off ch=4 n=78 v=64
302880 On ch=4 n=77 v=119
303184 Off ch=4 n=77 v=64
303360 On ch=4 n=75 v=119
303840 Off ch=4 n=75 v=64
303840 On ch=4 n=77 v=119
304176 Off ch=4 n=77 v=64
304320 On ch=4 n=78 v=119
304544 Off ch=4 n=78 v=64
304800 On ch=4 n=80 v=119
304976 Off ch=4 n=80 v=64
305280 On ch=4 n=82 v=119
306240 On ch=4 n=80 v=119
306288 Off ch=4 n=82 v=64
306544 Off ch=4 n=80 v=64
306720 On ch=4 n=78 v=119
307008 Off ch=4 n=78 v=64
307200 On ch=4 n=77 v=119
307440 Off ch=4 n=77 v=64
308160 On ch=4 n=78 v=119
308400 Off ch=4 n=78 v=64
309120 On ch=4 n=80 v=119
309360 Off ch=4 n=80 v=64
310080 On ch=4 n=82 v=119
310080 On ch=4 n=63 v=56
310320 Off ch=4 n=82 v=64
310560 Off ch=4 n=63 v=64
310560 On ch=4 n=70 v=88
311040 On ch=4 n=73 v=88
311040 Par ch=4 c=11 v=127
311040 On ch=4 n=68 v=88
311076 Off ch=4 n=70 v=64
311520 On ch=4 n=75 v=88
311520 On ch=4 n=66 v=88
311540 Off ch=4 n=68 v=64
311540 Off ch=4 n=73 v=64
311580 Par ch=4 c=11 v=126
311760 Par ch=4 c=11 v=125
311780 Off ch=4 n=66 v=64
311780 Off ch=4 n=75 v=64
311940 Par ch=4 c=11 v=124
312000 On ch=4 n=70 v=88
312000 On ch=4 n=66 v=88
312060 Par ch=4 c=11 v=123
312180 Par ch=4 c=11 v=122
312260 Off ch=4 n=66 v=64
312260 Off ch=4 n=70 v=64
312300 Par ch=4 c=11 v=121
312420 Par ch=4 c=11 v=120
312460 Par ch=4 c=11 v=119
312480 On ch=4 n=68 v=88
312480 On ch=4 n=65 v=88
312540 Par ch=4 c=11 v=119
312740 Off ch=4 n=65 v=64
312740 Off ch=4 n=68 v=64
312780 Par ch=4 c=11 v=120
312860 Par ch=4 c=11 v=121
312940 Par ch=4 c=11 v=124
312960 On ch=4 n=70 v=88
312960 On ch=4 n=66 v=88
313120 Par ch=4 c=11 v=123
313180 Par ch=4 c=11 v=122
313240 Par ch=4 c=11 v=121
313300 Par ch=4 c=11 v=120
313360 Par ch=4 c=11 v=118
313420 Par ch=4 c=11 v=116
313480 Par ch=4 c=11 v=114
313540 Par ch=4 c=11 v=111
313600 Par ch=4 c=11 v=108
313660 Par ch=4 c=11 v=105
313720 Par ch=4 c=11 v=102
313740 Off ch=4 n=70 v=64
313772 Off ch=4 n=66 v=64
313780 Par ch=4 c=11 v=98
313880 Par ch=4 c=11 v=122
313920 On ch=4 n=68 v=88
314180 Par ch=4 c=11 v=121
314240 Par ch=4 c=11 v=120
314300 Par ch=4 c=11 v=119
314340 Par ch=4 c=11 v=120
314400 On ch=4 n=70 v=88
314460 Off ch=4 n=68 v=64
314460 Par ch=4 c=11 v=121
314580 Par ch=4 c=11 v=122
314660 Off ch=4 n=70 v=64
314700 Par ch=4 c=11 v=123
314740 Par ch=4 c=11 v=124
314860 Par ch=4 c=11 v=127
314880 On ch=4 n=73 v=88
314880 On ch=4 n=68 v=88
315360 On ch=4 n=75 v=88
315360 On ch=4 n=65 v=88
315400 Off ch=4 n=68 v=64
315400 Off ch=4 n=73 v=64
315580 Par ch=4 c=11 v=126
315620 Off ch=4 n=65 v=64
315620 Off ch=4 n=75 v=64
315820 Par ch=4 c=11 v=125
315840 On ch=4 n=70 v=88
315840 On ch=4 n=65 v=88
316060 Par ch=4 c=11 v=124
316100 Off ch=4 n=65 v=64
316100 Off ch=4 n=70 v=64
316240 Par ch=4 c=11 v=123
316320 On ch=4 n=68 v=88
316320 On ch=4 n=63 v=88
316360 Par ch=4 c=11 v=122
316480 Par ch=4 c=11 v=121
316580 Off ch=4 n=63 v=64
316580 Off ch=4 n=68 v=64
316580 Par ch=4 c=11 v=119
316800 On ch=4 n=70 v=88
316800 On ch=4 n=65 v=88
316820 Par ch=4 c=11 v=112
316880 Par ch=4 c=11 v=111
316940 Par ch=4 c=11 v=110
316960 Par ch=4 c=11 v=109
317060 Par ch=4 c=11 v=109
317180 Par ch=4 c=11 v=110
317300 Par ch=4 c=11 v=111
317360 Par ch=4 c=11 v=112
317480 Par ch=4 c=11 v=113
317540 Par ch=4 c=11 v=114
317600 Par ch=4 c=11 v=115
317660 Par ch=4 c=11 v=116
317720 Par ch=4 c=11 v=117
317740 Par ch=4 c=11 v=118
317760 On ch=4 n=68 v=88
317760 On ch=4 n=65 v=88
317820 Off ch=4 n=65 v=64
317820 Off ch=4 n=70 v=64
318020 Off ch=4 n=65 v=64
318020 Off ch=4 n=68 v=64
318240 On ch=4 n=70 v=88
318240 On ch=4 n=66 v=88
318500 Off ch=4 n=66 v=64
318500 Off ch=4 n=70 v=64
318680 Par ch=4 c=11 v=120
318720 On ch=4 n=68 v=88
318720 On ch=4 n=65 v=88
319200 On ch=4 n=66 v=88
319200 On ch=4 n=63 v=88
319220 Off ch=4 n=65 v=64
319220 Off ch=4 n=68 v=64
319340 Par ch=4 c=11 v=119
319480 Off ch=4 n=63 v=64
319480 Off ch=4 n=66 v=64
319580 Par ch=4 c=11 v=118
319680 On ch=4 n=65 v=88
319680 On ch=4 n=61 v=88
319820 Par ch=4 c=11 v=117
319920 Off ch=4 n=65 v=64
319940 Par ch=4 c=11 v=116
320120 Par ch=4 c=11 v=115
320160 On ch=4 n=61 v=88
320220 Par ch=4 c=11 v=114
320340 Par ch=4 c=11 v=116
320500 Off ch=4 n=61 v=64
320500 Off ch=4 n=61 v=64
320520 Par ch=4 c=11 v=117
320580 Par ch=4 c=11 v=119
320600 Par ch=4 c=11 v=120
320640 On ch=4 n=63 v=88
320660 Par ch=4 c=11 v=119
320840 Par ch=4 c=11 v=118
320900 Par ch=4 c=11 v=117
320960 Par ch=4 c=11 v=116
321020 Par ch=4 c=11 v=114
321080 Par ch=4 c=11 v=112
321120 Par ch=4 c=11 v=112
321150 Par ch=4 c=11 v=111
321210 Par ch=4 c=11 v=110
321330 Par ch=4 c=11 v=109
321496 Off ch=4 n=63 v=64
321576 Par ch=4 c=11 v=110
321600 On ch=4 n=61 v=88
321600 On ch=4 n=56 v=88
321906 Par ch=4 c=11 v=111
322026 Par ch=4 c=11 v=112
322080 On ch=4 n=63 v=88
322080 On ch=4 n=58 v=88
322100 Off ch=4 n=56 v=64
322100 Off ch=4 n=61 v=64
322146 Par ch=4 c=11 v=113
322236 Par ch=4 c=11 v=114
322296 Par ch=4 c=11 v=115
322340 Off ch=4 n=58 v=64
322340 Off ch=4 n=63 v=64
322356 Par ch=4 c=11 v=116
322416 Par ch=4 c=11 v=117
322540 Par ch=4 c=11 v=118
322560 On ch=4 n=65 v=88
322560 On ch=4 n=61 v=88
322780 Par ch=4 c=11 v=116
323040 On ch=4 n=66 v=88
323040 On ch=4 n=63 v=88
323100 Off ch=4 n=61 v=64
323100 Off ch=4 n=65 v=64
323300 Off ch=4 n=63 v=64
323300 Off ch=4 n=66 v=64
323520 On ch=4 n=68 v=88
323520 On ch=4 n=65 v=88
323620 Par ch=4 c=11 v=115
323740 Off ch=4 n=65 v=64
323740 Off ch=4 n=68 v=64
323920 Par ch=4 c=11 v=114
324000 On ch=4 n=70 v=88
324000 On ch=4 n=66 v=88
324160 Par ch=4 c=11 v=113
324220 Off ch=4 n=66 v=64
324220 Off ch=4 n=70 v=64
324400 Par ch=4 c=11 v=112
324480 On ch=4 n=63 v=88
324480 On ch=4 n=66 v=88
324540 Par ch=4 c=11 v=111
324620 Par ch=4 c=11 v=110
324800 Par ch=4 c=11 v=109
324860 Par ch=4 c=11 v=108
324920 Par ch=4 c=11 v=106
324960 On ch=4 n=65 v=56
324976 Off ch=4 n=66 v=64
324980 Par ch=4 c=11 v=104
325040 Par ch=4 c=11 v=101
325100 Par ch=4 c=11 v=99
325160 Par ch=4 c=11 v=96
325184 Off ch=4 n=65 v=64
325200 Off ch=4 n=63 v=64
325220 Par ch=4 c=11 v=92
325280 Par ch=4 c=11 v=88
325320 Par ch=4 c=11 v=85
325392 Par ch=4 c=11 v=123
325440 On ch=4 n=70 v=88
325440 On ch=4 n=63 v=56
325700 Off ch=4 n=70 v=64
325752 Par ch=4 c=11 v=124
325872 Par ch=4 c=11 v=125
325920 Off ch=4 n=63 v=64
325920 On ch=4 n=73 v=88
325920 On ch=4 n=70 v=88
325992 Par ch=4 c=11 v=126
326082 Par ch=4 c=11 v=127
326142 Par ch=4 c=11 v=127
326180 Off ch=4 n=73 v=64
326232 Par ch=4 c=11 v=127
326292 Par ch=4 c=11 v=127
326328 Par ch=4 c=11 v=127
326400 On ch=4 n=73 v=88
326400 Par ch=4 c=11 v=127
326400 On ch=4 n=68 v=88
326436 Off ch=4 n=70 v=64
326880 On ch=4 n=75 v=88
326880 On ch=4 n=66 v=88
326900 Off ch=4 n=68 v=64
326900 Off ch=4 n=73 v=64
326940 Par ch=4 c=11 v=127
327120 Par ch=4 c=11 v=126
327140 Off ch=4 n=66 v=64
327140 Off ch=4 n=75 v=64
327300 Par ch=4 c=11 v=125
327360 On ch=4 n=70 v=88
327360 On ch=4 n=66 v=88
327420 Par ch=4 c=11 v=124
327540 Par ch=4 c=11 v=123
327620 Off ch=4 n=66 v=64
327620 Off ch=4 n=70 v=64
327660 Par ch=4 c=11 v=122
327780 Par ch=4 c=11 v=121
327820 Par ch=4 c=11 v=120
327840 On ch=4 n=68 v=88
327840 On ch=4 n=65 v=88
327900 Par ch=4 c=11 v=120
328100 Off ch=4 n=65 v=64
328100 Off ch=4 n=68 v=64
328140 Par ch=4 c=11 v=121
328220 Par ch=4 c=11 v=122
328300 Par ch=4 c=11 v=125
328320 On ch=4 n=70 v=88
328320 On ch=4 n=66 v=88
328480 Par ch=4 c=11 v=124
328540 Par ch=4 c=11 v=123
328600 Par ch=4 c=11 v=122
328660 Par ch=4 c=11 v=121
328720 Par ch=4 c=11 v=119
328780 Par ch=4 c=11 v=117
328840 Par ch=4 c=11 v=115
328900 Par ch=4 c=11 v=112
328960 Par ch=4 c=11 v=109
329020 Par ch=4 c=11 v=106
329080 Par ch=4 c=11 v=103
329100 Off ch=4 n=70 v=64
329132 Off ch=4 n=66 v=64
329140 Par ch=4 c=11 v=99
329240 Par ch=4 c=11 v=123
329280 On ch=4 n=68 v=88
329540 Par ch=4 c=11 v=122
329600 Par ch=4 c=11 v=121
329660 Par ch=4 c=11 v=120
329700 Par ch=4 c=11 v=121
329760 On ch=4 n=70 v=88
329820 Off ch=4 n=68 v=64
329820 Par ch=4 c=11 v=122
329940 Par ch=4 c=11 v=123
330020 Off ch=4 n=70 v=64
330060 Par ch=4 c=11 v=124
330100 Par ch=4 c=11 v=125
330220 Par ch=4 c=11 v=127
330240 On ch=4 n=73 v=88
330240 On ch=4 n=68 v=88
330720 On ch=4 n=75 v=88
330720 On ch=4 n=65 v=88
330760 Off ch=4 n=68 v=64
330760 Off ch=4 n=73 v=64
330940 Par ch=4 c=11 v=127
330980 Off ch=4 n=65 v=64
330980 Off ch=4 n=75 v=64
331180 Par ch=4 c=11 v=126
331200 On ch=4 n=70 v=88
331200 On ch=4 n=65 v=88
331420 Par ch=4 c=11 v=125
331460 Off ch=4 n=65 v=64
331460 Off ch=4 n=70 v=64
331600 Par ch=4 c=11 v=124
331680 On ch=4 n=68 v=88
331680 On ch=4 n=63 v=88
331720 Par ch=4 c=11 v=123
331840 Par ch=4 c=11 v=122
331940 Off ch=4 n=63 v=64
331940 Off ch=4 n=68 v=64
331940 Par ch=4 c=11 v=120
332160 On ch=4 n=70 v=88
332160 On ch=4 n=65 v=88
332180 Par ch=4 c=11 v=113
332240 Par ch=4 c=11 v=112
332300 Par ch=4 c=11 v=111
332320 Par ch=4 c=11 v=110
332420 Par ch=4 c=11 v=110
332540 Par ch=4 c=11 v=111
332660 Par ch=4 c=11 v=112
332720 Par ch=4 c=11 v=113
332840 Par ch=4 c=11 v=114
332900 Par ch=4 c=11 v=115
332960 Par ch=4 c=11 v=116
333020 Par ch=4 c=11 v=117
333080 Par ch=4 c=11 v=118
333100 Par ch=4 c=11 v=119
333120 On ch=4 n=68 v=88
333120 On ch=4 n=65 v=88
333180 Off ch=4 n=65 v=64
333180 Off ch=4 n=70 v=64
333380 Off ch=4 n=65 v=64
333380 Off ch=4 n=68 v=64
333600 On ch=4 n=70 v=88
333600 On ch=4 n=66 v=88
333860 Off ch=4 n=66 v=64
333860 Off ch=4 n=70 v=64
334040 Par ch=4 c=11 v=121
334080 On ch=4 n=68 v=88
334080 On ch=4 n=65 v=88
334560 On ch=4 n=66 v=88
334560 On ch=4 n=63 v=88
334580 Off ch=4 n=65 v=64
334580 Off ch=4 n=68 v=64
334700 Par ch=4 c=11 v=120
334840 Off ch=4 n=63 v=64
334840 Off ch=4 n=66 v=64
334940 Par ch=4 c=11 v=119
335040 On ch=4 n=65 v=88
335040 On ch=4 n=61 v=88
335180 Par ch=4 c=11 v=118
335280 Off ch=4 n=65 v=64
335300 Par ch=4 c=11 v=117
335480 Par ch=4 c=11 v=116
335520 On ch=4 n=61 v=88
335580 Par ch=4 c=11 v=115
335700 Par ch=4 c=11 v=117
335860 Off ch=4 n=61 v=64
335860 Off ch=4 n=61 v=64
335880 Par ch=4 c=11 v=118
335940 Par ch=4 c=11 v=120
335960 Par ch=4 c=11 v=121
336000 On ch=4 n=63 v=88
336020 Par ch=4 c=11 v=120
336200 Par ch=4 c=11 v=119
336260 Par ch=4 c=11 v=118
336320 Par ch=4 c=11 v=117
336380 Par ch=4 c=11 v=115
336440 Par ch=4 c=11 v=113
336480 Par ch=4 c=11 v=113
336510 Par ch=4 c=11 v=112
336570 Par ch=4 c=11 v=111
336690 Par ch=4 c=11 v=110
336856 Off ch=4 n=63 v=64
336936 Par ch=4 c=11 v=111
336960 On ch=4 n=61 v=88
336960 On ch=4 n=56 v=88
337266 Par ch=4 c=11 v=112
337386 Par ch=4 c=11 v=113
337440 On ch=4 n=63 v=88
337440 On ch=4 n=58 v=88
337460 Off ch=4 n=56 v=64
337460 Off ch=4 n=61 v=64
337506 Par ch=4 c=11 v=114
337596 Par ch=4 c=11 v=115
337656 Par ch=4 c=11 v=116
337700 Off ch=4 n=58 v=64
337700 Off ch=4 n=63 v=64
337716 Par ch=4 c=11 v=117
337776 Par ch=4 c=11 v=118
337900 Par ch=4 c=11 v=119
337920 On ch=4 n=65 v=88
337920 Par ch=4 c=11 v=121
337920 On ch=4 n=61 v=88
338140 Par ch=4 c=11 v=120
338400 On ch=4 n=66 v=88
338400 On ch=4 n=63 v=88
338460 Off ch=4 n=61 v=64
338460 Off ch=4 n=65 v=64
338660 Off ch=4 n=63 v=64
338660 Off ch=4 n=66 v=64
338880 On ch=4 n=68 v=88
338880 On ch=4 n=65 v=88
338980 Par ch=4 c=11 v=119
339100 Off ch=4 n=65 v=64
339100 Off ch=4 n=68 v=64
339280 Par ch=4 c=11 v=118
339360 On ch=4 n=70 v=88
339360 On ch=4 n=66 v=88
339520 Par ch=4 c=11 v=117
339580 Off ch=4 n=66 v=64
339580 Off ch=4 n=70 v=64
339760 Par ch=4 c=11 v=116
339840 On ch=4 n=63 v=88
339840 On ch=4 n=66 v=88
339900 Par ch=4 c=11 v=115
339980 Par ch=4 c=11 v=114
340160 Par ch=4 c=11 v=113
340220 Par ch=4 c=11 v=112
340280 Par ch=4 c=11 v=110
340320 On ch=4 n=65 v=56
340336 Off ch=4 n=66 v=64
340340 Par ch=4 c=11 v=108
340400 Par ch=4 c=11 v=105
340460 Par ch=4 c=11 v=103
340520 Par ch=4 c=11 v=100
340544 Off ch=4 n=65 v=64
340560 Off ch=4 n=63 v=64
340580 Par ch=4 c=11 v=96
340640 Par ch=4 c=11 v=92
340680 Par ch=4 c=11 v=89
340776 Par ch=4 c=11 v=120
341106 Par ch=4 c=11 v=121
341226 Par ch=4 c=11 v=122
341316 Par ch=4 c=11 v=123
341406 Par ch=4 c=11 v=124
341496 Par ch=4 c=11 v=125
341556 Par ch=4 c=11 v=126
341616 Par ch=4 c=11 v=127
341676 Par ch=4 c=11 v=127
341736 Par ch=4 c=11 v=127
342720 On ch=4 n=70 v=88
342980 Off ch=4 n=70 v=64
343200 On ch=4 n=73 v=88
343460 Off ch=4 n=73 v=64
343680 On ch=4 n=73 v=88
344160 On ch=4 n=75 v=88
344180 Off ch=4 n=73 v=64
344420 Off ch=4 n=75 v=64
344640 On ch=4 n=70 v=88
344900 Off ch=4 n=70 v=64
345120 On ch=4 n=68 v=88
345380 Off ch=4 n=68 v=64
345600 On ch=4 n=70 v=88
346380 Off ch=4 n=70 v=64
346560 On ch=4 n=68 v=88
347040 On ch=4 n=70 v=88
347100 Off ch=4 n=68 v=64
347300 Off ch=4 n=70 v=64
347520 On ch=4 n=73 v=88
348000 On ch=4 n=75 v=88
348040 Off ch=4 n=73 v=64
348260 Off ch=4 n=75 v=64
348480 On ch=4 n=70 v=88
348740 Off ch=4 n=70 v=64
348960 On ch=4 n=68 v=88
349220 Off ch=4 n=68 v=64
349440 On ch=4 n=70 v=88
350400 On ch=4 n=68 v=88
350460 Off ch=4 n=70 v=64
350660 Off ch=4 n=68 v=64
350880 On ch=4 n=70 v=88
351140 Off ch=4 n=70 v=64
351360 On ch=4 n=68 v=88
351840 On ch=4 n=66 v=88
351860 Off ch=4 n=68 v=64
352120 Off ch=4 n=66 v=64
352320 On ch=4 n=65 v=88
352560 Off ch=4 n=65 v=64
352800 On ch=4 n=61 v=88
353140 Off ch=4 n=61 v=64
353280 On ch=4 n=63 v=88
354136 Off ch=4 n=63 v=64
354240 On ch=4 n=61 v=88
354720 On ch=4 n=63 v=88
354740 Off ch=4 n=61 v=64
354980 Off ch=4 n=63 v=64
355200 On ch=4 n=65 v=88
355680 On ch=4 n=66 v=88
355740 Off ch=4 n=65 v=64
355940 Off ch=4 n=66 v=64
356160 On ch=4 n=68 v=88
356380 Off ch=4 n=68 v=64
356640 On ch=4 n=70 v=88
356860 Off ch=4 n=70 v=64
357120 On ch=4 n=66 v=88
357840 Off ch=4 n=66 v=64
358080 On ch=4 n=70 v=88
358340 Off ch=4 n=70 v=64
358560 On ch=4 n=73 v=88
358820 Off ch=4 n=73 v=64
359040 On ch=4 n=73 v=88
359520 On ch=4 n=75 v=88
359540 Off ch=4 n=73 v=64
359780 Off ch=4 n=75 v=64
360000 On ch=4 n=70 v=88
360260 Off ch=4 n=70 v=64
360480 On ch=4 n=68 v=88
360740 Off ch=4 n=68 v=64
360960 On ch=4 n=70 v=88
361740 Off ch=4 n=70 v=64
361920 On ch=4 n=68 v=88
362400 On ch=4 n=70 v=88
362460 Off ch=4 n=68 v=64
362660 Off ch=4 n=70 v=64
362880 On ch=4 n=73 v=88
363360 On ch=4 n=75 v=88
363400 Off ch=4 n=73 v=64
363620 Off ch=4 n=75 v=64
363840 On ch=4 n=75 v=88
364100 Off ch=4 n=75 v=64
364320 On ch=4 n=77 v=88
364580 Off ch=4 n=77 v=64
364800 On ch=4 n=78 v=88
365280 On ch=4 n=77 v=88
365300 Off ch=4 n=78 v=64
365560 Off ch=4 n=77 v=64
365760 On ch=4 n=75 v=88
366000 Off ch=4 n=75 v=64
366240 On ch=4 n=73 v=88
366580 Off ch=4 n=73 v=64
366720 On ch=4 n=70 v=88
367648 Off ch=4 n=70 v=64
367680 On ch=4 n=71 v=88
367680 On ch=4 n=68 v=88
368160 On ch=4 n=73 v=88
368160 On ch=4 n=70 v=88
368180 Off ch=4 n=68 v=64
368180 Off ch=4 n=71 v=64
368420 Off ch=4 n=70 v=64
368420 Off ch=4 n=73 v=64
368640 On ch=4 n=71 v=88
368640 On ch=4 n=68 v=88
368640 Par ch=4 c=11 v=127
369120 On ch=4 n=70 v=88
369120 On ch=4 n=66 v=88
369180 Off ch=4 n=68 v=64
369180 Off ch=4 n=71 v=64
369380 Off ch=4 n=66 v=64
369380 Off ch=4 n=70 v=64
369600 On ch=4 n=68 v=88
369600 On ch=4 n=65 v=88
369820 Off ch=4 n=65 v=64
369820 Off ch=4 n=68 v=64
370080 On ch=4 n=65 v=88
370080 On ch=4 n=61 v=88
370300 Off ch=4 n=61 v=64
370300 Off ch=4 n=65 v=64
370560 On ch=4 n=66 v=88
370560 On ch=4 n=63 v=88
370800 Off ch=4 n=63 v=64
370800 Off ch=4 n=66 v=64
371376 Par ch=4 c=11 v=78
371520 On ch=4 n=70 v=88
371616 Par ch=4 c=11 v=79
371706 Par ch=4 c=11 v=80
371780 Off ch=4 n=70 v=64
371796 Par ch=4 c=11 v=81
371856 Par ch=4 c=11 v=82
371916 Par ch=4 c=11 v=83
371946 Par ch=4 c=11 v=84
372000 On ch=4 n=73 v=88
372006 Par ch=4 c=11 v=85
372036 Par ch=4 c=11 v=86
372096 Par ch=4 c=11 v=87
372126 Par ch=4 c=11 v=88
372156 Par ch=4 c=11 v=89
372186 Par ch=4 c=11 v=90
372216 Par ch=4 c=11 v=91
372246 Par ch=4 c=11 v=92
372260 Off ch=4 n=73 v=64
372276 Par ch=4 c=11 v=93
372306 Par ch=4 c=11 v=94
372336 Par ch=4 c=11 v=95
372360 Par ch=4 c=11 v=96
372480 On ch=4 n=73 v=88
372480 Par ch=4 c=11 v=92
372960 On ch=4 n=75 v=88
372980 Off ch=4 n=73 v=64
373020 Par ch=4 c=11 v=94
373200 Par ch=4 c=11 v=93
373220 Off ch=4 n=75 v=64
373380 Par ch=4 c=11 v=92
373440 On ch=4 n=70 v=88
373500 Par ch=4 c=11 v=91
373620 Par ch=4 c=11 v=90
373700 Off ch=4 n=70 v=64
373740 Par ch=4 c=11 v=89
373860 Par ch=4 c=11 v=88
373900 Par ch=4 c=11 v=87
373920 On ch=4 n=68 v=88
373980 Par ch=4 c=11 v=87
374180 Off ch=4 n=68 v=64
374220 Par ch=4 c=11 v=88
374300 Par ch=4 c=11 v=89
374380 Par ch=4 c=11 v=92
374400 On ch=4 n=70 v=88
374560 Par ch=4 c=11 v=91
374620 Par ch=4 c=11 v=90
374680 Par ch=4 c=11 v=89
374740 Par ch=4 c=11 v=88
374800 Par ch=4 c=11 v=86
374860 Par ch=4 c=11 v=84
374920 Par ch=4 c=11 v=82
374980 Par ch=4 c=11 v=79
375040 Par ch=4 c=11 v=76
375100 Par ch=4 c=11 v=73
375160 Par ch=4 c=11 v=70
375180 Off ch=4 n=70 v=64
375220 Par ch=4 c=11 v=66
375320 Par ch=4 c=11 v=90
375360 On ch=4 n=68 v=88
375620 Par ch=4 c=11 v=89
375680 Par ch=4 c=11 v=88
375740 Par ch=4 c=11 v=87
375780 Par ch=4 c=11 v=88
375840 On ch=4 n=70 v=88
375900 Off ch=4 n=68 v=64
375900 Par ch=4 c=11 v=89
376020 Par ch=4 c=11 v=90
376100 Off ch=4 n=70 v=64
376140 Par ch=4 c=11 v=91
376180 Par ch=4 c=11 v=92
376300 Par ch=4 c=11 v=95
376320 On ch=4 n=73 v=88
376800 On ch=4 n=75 v=88
376840 Off ch=4 n=73 v=64
377020 Par ch=4 c=11 v=94
377060 Off ch=4 n=75 v=64
377260 Par ch=4 c=11 v=93
377280 On ch=4 n=70 v=88
377500 Par ch=4 c=11 v=92
377540 Off ch=4 n=70 v=64
377680 Par ch=4 c=11 v=91
377760 On ch=4 n=68 v=88
377800 Par ch=4 c=11 v=90
377920 Par ch=4 c=11 v=89
378020 Off ch=4 n=68 v=64
378020 Par ch=4 c=11 v=87
378240 On ch=4 n=70 v=88
378260 Par ch=4 c=11 v=80
378320 Par ch=4 c=11 v=79
378380 Par ch=4 c=11 v=78
378400 Par ch=4 c=11 v=77
378500 Par ch=4 c=11 v=77
378620 Par ch=4 c=11 v=78
378740 Par ch=4 c=11 v=79
378800 Par ch=4 c=11 v=80
378920 Par ch=4 c=11 v=81
378980 Par ch=4 c=11 v=82
379040 Par ch=4 c=11 v=83
379100 Par ch=4 c=11 v=84
379160 Par ch=4 c=11 v=85
379180 Par ch=4 c=11 v=86
379200 On ch=4 n=68 v=88
379260 Off ch=4 n=70 v=64
379460 Off ch=4 n=68 v=64
379680 On ch=4 n=70 v=88
379940 Off ch=4 n=70 v=64
380120 Par ch=4 c=11 v=88
380160 On ch=4 n=68 v=88
380640 On ch=4 n=66 v=88
380660 Off ch=4 n=68 v=64
380780 Par ch=4 c=11 v=87
380920 Off ch=4 n=66 v=64
381020 Par ch=4 c=11 v=86
381120 On ch=4 n=65 v=88
381260 Par ch=4 c=11 v=85
381360 Off ch=4 n=65 v=64
381380 Par ch=4 c=11 v=84
381560 Par ch=4 c=11 v=83
381600 On ch=4 n=61 v=88
381660 Par ch=4 c=11 v=82
381780 Par ch=4 c=11 v=84
381940 Off ch=4 n=61 v=64
381960 Par ch=4 c=11 v=85
382020 Par ch=4 c=11 v=87
382040 Par ch=4 c=11 v=88
382080 On ch=4 n=63 v=88
382100 Par ch=4 c=11 v=87
382280 Par ch=4 c=11 v=86
382320 Off ch=4 n=63 v=64
382340 Par ch=4 c=11 v=85
382400 Par ch=4 c=11 v=84
382460 Par ch=4 c=11 v=82
382520 Par ch=4 c=11 v=80
382560 On ch=4 n=63 v=89
382580 Par ch=4 c=11 v=78
382632 Par ch=4 c=11 v=75
382662 Par ch=4 c=11 v=76
382722 Par ch=4 c=11 v=77
382782 Par ch=4 c=11 v=78
382902 Par ch=4 c=11 v=79
382992 Par ch=4 c=11 v=81
383040 On ch=4 n=65 v=88
383056 Off ch=4 n=63 v=64
383252 Off ch=4 n=65 v=64
383322 Par ch=4 c=11 v=82
383442 Par ch=4 c=11 v=83
383520 On ch=4 n=66 v=88
383562 Par ch=4 c=11 v=84
383652 Par ch=4 c=11 v=85
383712 Par ch=4 c=11 v=86
383772 Par ch=4 c=11 v=87
383780 Off ch=4 n=66 v=64
383832 Par ch=4 c=11 v=88
383980 Par ch=4 c=11 v=86
384000 On ch=4 n=68 v=88
384000 Par ch=4 c=11 v=85
384420 Par ch=4 c=11 v=84
384480 On ch=4 n=70 v=88
384540 Off ch=4 n=68 v=64
384600 Par ch=4 c=11 v=83
384740 Off ch=4 n=70 v=64
384750 Par ch=4 c=11 v=82
384840 Par ch=4 c=11 v=81
384960 On ch=4 n=71 v=88
384960 Par ch=4 c=11 v=80
385050 Par ch=4 c=11 v=79
385140 Par ch=4 c=11 v=78
385180 Off ch=4 n=71 v=64
385200 Par ch=4 c=11 v=77
385260 Par ch=4 c=11 v=76
385350 Par ch=4 c=11 v=75
385410 Par ch=4 c=11 v=74
385440 On ch=4 n=73 v=88
385470 Par ch=4 c=11 v=73
385530 Par ch=4 c=11 v=72
385590 Par ch=4 c=11 v=71
385650 Par ch=4 c=11 v=70
385660 Off ch=4 n=73 v=64
385680 Par ch=4 c=11 v=69
385740 Par ch=4 c=11 v=68
385800 Par ch=4 c=11 v=67
385830 Par ch=4 c=11 v=66
385890 Par ch=4 c=11 v=65
385920 On ch=4 n=75 v=88
385950 Par ch=4 c=11 v=64
385980 Par ch=4 c=11 v=63
386040 Par ch=4 c=11 v=62
386070 Par ch=4 c=11 v=61
386100 Par ch=4 c=11 v=60
386160 Par ch=4 c=11 v=59
386190 Par ch=4 c=11 v=58
386250 Par ch=4 c=11 v=57
386280 Par ch=4 c=11 v=56
386310 Par ch=4 c=11 v=55
386340 Par ch=4 c=11 v=54
386400 Par ch=4 c=11 v=53
386430 Par ch=4 c=11 v=52
386460 Par ch=4 c=11 v=51
386490 Par ch=4 c=11 v=50
386520 Par ch=4 c=11 v=49
386580 Par ch=4 c=11 v=48
386610 Par ch=4 c=11 v=47
386640 Off ch=4 n=75 v=64
386640 Par ch=4 c=11 v=46
386670 Par ch=4 c=11 v=45
386700 Par ch=4 c=11 v=44
386730 Par ch=4 c=11 v=43
386752 Par ch=4 c=11 v=42
386760 Par ch=4 c=11 v=37
386880 On ch=4 n=70 v=88
386880 Par ch=4 c=11 v=82
387140 Off ch=4 n=70 v=64
387150 Par ch=4 c=11 v=83
387270 Par ch=4 c=11 v=84
387330 Par ch=4 c=11 v=85
387360 On ch=4 n=73 v=88
387420 Par ch=4 c=11 v=86
387480 Par ch=4 c=11 v=87
387510 Par ch=4 c=11 v=88
387570 Par ch=4 c=11 v=89
387620 Off ch=4 n=73 v=64
387630 Par ch=4 c=11 v=90
387648 Par ch=4 c=11 v=91
387840 On ch=4 n=73 v=88
387840 Par ch=4 c=11 v=95
388320 On ch=4 n=75 v=88
388340 Off ch=4 n=73 v=64
388380 Par ch=4 c=11 v=94
388560 Par ch=4 c=11 v=93
388580 Off ch=4 n=75 v=64
388740 Par ch=4 c=11 v=92
388800 On ch=4 n=70 v=88
388860 Par ch=4 c=11 v=91
388980 Par ch=4 c=11 v=90
389060 Off ch=4 n=70 v=64
389100 Par ch=4 c=11 v=89
389220 Par ch=4 c=11 v=88
389260 Par ch=4 c=11 v=87
389280 On ch=4 n=68 v=88
389340 Par ch=4 c=11 v=87
389540 Off ch=4 n=68 v=64
389580 Par ch=4 c=11 v=88
389660 Par ch=4 c=11 v=89
389740 Par ch=4 c=11 v=92
389760 On ch=4 n=70 v=88
389920 Par ch=4 c=11 v=91
389980 Par ch=4 c=11 v=90
390040 Par ch=4 c=11 v=89
390100 Par ch=4 c=11 v=88
390160 Par ch=4 c=11 v=86
390220 Par ch=4 c=11 v=84
390280 Par ch=4 c=11 v=82
390340 Par ch=4 c=11 v=79
390400 Par ch=4 c=11 v=76
390460 Par ch=4 c=11 v=73
390520 Par ch=4 c=11 v=70
390540 Off ch=4 n=70 v=64
390580 Par ch=4 c=11 v=66
390680 Par ch=4 c=11 v=90
390720 On ch=4 n=68 v=88
390980 Par ch=4 c=11 v=89
391040 Par ch=4 c=11 v=88
391100 Par ch=4 c=11 v=87
391140 Par ch=4 c=11 v=88
391200 On ch=4 n=70 v=88
391260 Off ch=4 n=68 v=64
391260 Par ch=4 c=11 v=89
391380 Par ch=4 c=11 v=90
391460 Off ch=4 n=70 v=64
391500 Par ch=4 c=11 v=91
391540 Par ch=4 c=11 v=92
391660 Par ch=4 c=11 v=95
391680 On ch=4 n=73 v=88
391680 Par ch=4 c=11 v=94
392160 On ch=4 n=75 v=88
392200 Off ch=4 n=73 v=64
392420 Off ch=4 n=75 v=64
392640 On ch=4 n=70 v=88
392900 Off ch=4 n=70 v=64
393120 On ch=4 n=68 v=88
393270 Par ch=4 c=11 v=95
393380 Off ch=4 n=68 v=64
393600 On ch=4 n=70 v=88
393900 Par ch=4 c=11 v=96
394410 Par ch=4 c=11 v=97
394560 On ch=4 n=75 v=88
394620 Off ch=4 n=70 v=64
394820 Off ch=4 n=75 v=64
394830 Par ch=4 c=11 v=98
395040 On ch=4 n=77 v=88
395190 Par ch=4 c=11 v=99
395300 Off ch=4 n=77 v=64
395520 On ch=4 n=78 v=88
395520 Par ch=4 c=11 v=105
396000 On ch=4 n=77 v=88
396020 Off ch=4 n=78 v=64
396280 Off ch=4 n=77 v=64
396480 On ch=4 n=75 v=88
396600 Par ch=4 c=11 v=104
396720 Off ch=4 n=75 v=64
396960 On ch=4 n=73 v=88
397050 Par ch=4 c=11 v=103
397156 Off ch=4 n=73 v=64
397380 Par ch=4 c=11 v=102
397440 On ch=4 n=70 v=88
397680 Par ch=4 c=11 v=101
397920 Par ch=4 c=11 v=100
398130 Par ch=4 c=11 v=99
398340 Par ch=4 c=11 v=98
398368 Off ch=4 n=70 v=64
398400 On ch=4 n=68 v=88
398550 Par ch=4 c=11 v=97
398730 Par ch=4 c=11 v=96
398880 On ch=4 n=70 v=88
398900 Off ch=4 n=68 v=64
398910 Par ch=4 c=11 v=95
399060 Par ch=4 c=11 v=94
399140 Off ch=4 n=70 v=64
399210 Par ch=4 c=11 v=93
399360 On ch=4 n=68 v=88
399360 Par ch=4 c=11 v=92
399840 On ch=4 n=66 v=88
399900 Off ch=4 n=68 v=64
399990 Par ch=4 c=11 v=93
400100 Off ch=4 n=66 v=64
400248 Par ch=4 c=11 v=94
400320 On ch=4 n=65 v=88
400368 Par ch=4 c=11 v=94
400540 Off ch=4 n=65 v=64
400698 Par ch=4 c=11 v=93
400800 On ch=4 n=61 v=88
400818 Par ch=4 c=11 v=92
400908 Par ch=4 c=11 v=91
400998 Par ch=4 c=11 v=90
401020 Off ch=4 n=61 v=64
401058 Par ch=4 c=11 v=89
401118 Par ch=4 c=11 v=88
401178 Par ch=4 c=11 v=87
401238 Par ch=4 c=11 v=86
401280 On ch=4 n=63 v=88
401298 Par ch=4 c=11 v=85
401358 Par ch=4 c=11 v=84
401388 Par ch=4 c=11 v=83
401448 Par ch=4 c=11 v=82
401478 Par ch=4 c=11 v=81
401538 Par ch=4 c=11 v=80
401568 Par ch=4 c=11 v=79
401598 Par ch=4 c=11 v=78
401658 Par ch=4 c=11 v=77
401688 Par ch=4 c=11 v=76
401718 Par ch=4 c=11 v=75
401736 Par ch=4 c=11 v=74
401780 Par ch=4 c=11 v=72
401840 Par ch=4 c=11 v=69
401900 Par ch=4 c=11 v=67
401960 Par ch=4 c=11 v=64
402000 Off ch=4 n=63 v=64
402020 Par ch=4 c=11 v=60
402080 Par ch=4 c=11 v=56
402120 Par ch=4 c=11 v=53
433920 On ch=4 n=64 v=88
433920 Par ch=4 c=11 v=103
434400 On ch=4 n=72 v=88
434416 Off ch=4 n=64 v=64
434640 Off ch=4 n=72 v=64
434640 On ch=4 n=76 v=88
434848 Off ch=4 n=76 v=64
435840 On ch=4 n=64 v=88
436320 On ch=4 n=72 v=88
436336 Off ch=4 n=64 v=64
436560 Off ch=4 n=72 v=64
436560 On ch=4 n=76 v=88
436768 Off ch=4 n=76 v=64
437760 On ch=4 n=64 v=88
438240 On ch=4 n=69 v=88
438256 Off ch=4 n=64 v=64
438480 Off ch=4 n=69 v=64
438480 On ch=4 n=76 v=88
438688 Off ch=4 n=76 v=64
439680 On ch=4 n=64 v=88
440160 On ch=4 n=69 v=88
440176 Off ch=4 n=64 v=64
440400 Off ch=4 n=69 v=64
440400 On ch=4 n=76 v=88
440608 Off ch=4 n=76 v=64
441600 On ch=4 n=64 v=88
442080 On ch=4 n=71 v=88
442096 Off ch=4 n=64 v=64
442320 Off ch=4 n=71 v=64
442320 On ch=4 n=76 v=88
442528 Off ch=4 n=76 v=64
443520 On ch=4 n=64 v=88
444000 On ch=4 n=71 v=88
444016 Off ch=4 n=64 v=64
444240 Off ch=4 n=71 v=64
444240 On ch=4 n=76 v=88
444448 Off ch=4 n=76 v=64
445440 On ch=4 n=64 v=88
445920 On ch=4 n=71 v=88
445936 Off ch=4 n=64 v=64
446160 Off ch=4 n=71 v=64
446160 On ch=4 n=76 v=88
446368 Off ch=4 n=76 v=64
447360 On ch=4 n=64 v=88
447840 On ch=4 n=71 v=88
447856 Off ch=4 n=64 v=64
448080 Off ch=4 n=71 v=64
448080 On ch=4 n=76 v=88
448288 Off ch=4 n=76 v=64
449280 On ch=4 n=64 v=88
449760 On ch=4 n=72 v=88
449776 Off ch=4 n=64 v=64
450000 Off ch=4 n=72 v=64
450000 On ch=4 n=76 v=88
450208 Off ch=4 n=76 v=64
451200 On ch=4 n=64 v=88
451680 On ch=4 n=72 v=88
451696 Off ch=4 n=64 v=64
451920 Off ch=4 n=72 v=64
451920 On ch=4 n=76 v=88
452128 Off ch=4 n=76 v=64
453120 On ch=4 n=64 v=88
453600 On ch=4 n=69 v=88
453616 Off ch=4 n=64 v=64
453840 Off ch=4 n=69 v=64
453840 On ch=4 n=76 v=88
454048 Off ch=4 n=76 v=64
455040 On ch=4 n=64 v=88
455520 On ch=4 n=69 v=88
455536 Off ch=4 n=64 v=64
455760 Off ch=4 n=69 v=64
455760 On ch=4 n=76 v=88
455968 Off ch=4 n=76 v=64
456960 On ch=4 n=64 v=88
457440 On ch=4 n=71 v=88
457456 Off ch=4 n=64 v=64
457680 Off ch=4 n=71 v=64
457680 On ch=4 n=76 v=88
457888 Off ch=4 n=76 v=64
458880 On ch=4 n=64 v=88
459360 On ch=4 n=71 v=88
459376 Off ch=4 n=64 v=64
459600 Off ch=4 n=71 v=64
459600 On ch=4 n=76 v=88
459808 Off ch=4 n=76 v=64
460800 On ch=4 n=64 v=88
461280 On ch=4 n=71 v=88
461296 Off ch=4 n=64 v=64
461520 Off ch=4 n=71 v=64
461520 On ch=4 n=76 v=88
461728 Off ch=4 n=76 v=64
462720 On ch=4 n=64 v=88
463216 Off ch=4 n=64 v=64
463216 Meta TrkEnd
TrkEnd
MTrk
0 SeqSpec 43 00 01 ff
0 Meta TrkName "Bassoon"
1920 PrCh ch=5 p=4
1930 Par ch=5 c=7 v=93
1940 Par ch=5 c=10 v=64
1950 Par ch=5 c=11 v=127
1960 Par ch=5 c=20 v=127
1970 Par ch=5 c=91 v=0
1980 Par ch=5 c=93 v=0
1990 Par ch=5 c=94 v=0
2000 Par ch=5 c=101 v=0
2010 Par ch=5 c=100 v=0
2020 Par ch=5 c=6 v=2
2030 Par ch=5 c=101 v=127
2040 Par ch=5 c=100 v=127
92160 Par ch=5 c=11 v=92
93000 Par ch=5 c=11 v=93
93360 Par ch=5 c=11 v=94
93600 Par ch=5 c=11 v=95
93840 Par ch=5 c=11 v=96
94020 Par ch=5 c=11 v=97
94080 On ch=5 n=46 v=88
94200 Par ch=5 c=11 v=98
94320 Off ch=5 n=46 v=64
94380 Par ch=5 c=11 v=99
94530 Par ch=5 c=11 v=100
94680 Par ch=5 c=11 v=101
94800 Par ch=5 c=11 v=102
94920 Par ch=5 c=11 v=103
95040 On ch=5 n=34 v=88
95040 Par ch=5 c=11 v=104
95160 Par ch=5 c=11 v=105
95280 Off ch=5 n=34 v=64
95280 Par ch=5 c=11 v=106
95400 Par ch=5 c=11 v=107
95490 Par ch=5 c=11 v=108
95584 Par ch=5 c=11 v=109
96000 On ch=5 n=39 v=88
96000 Par ch=5 c=11 v=93
96272 Off ch=5 n=39 v=64
96480 On ch=5 n=39 v=88
96720 On ch=5 n=51 v=88
96752 Off ch=5 n=39 v=64
96992 Off ch=5 n=51 v=64
97440 On ch=5 n=46 v=88
97920 Off ch=5 n=46 v=64
97920 On ch=5 n=39 v=88
98192 Off ch=5 n=39 v=64
98400 On ch=5 n=39 v=88
98640 On ch=5 n=51 v=88
98672 Off ch=5 n=39 v=64
98912 Off ch=5 n=51 v=64
99360 On ch=5 n=46 v=88
99840 Off ch=5 n=46 v=64
99840 On ch=5 n=39 v=88
100112 Off ch=5 n=39 v=64
100320 On ch=5 n=39 v=88
100560 On ch=5 n=51 v=88
100592 Off ch=5 n=39 v=64
100832 Off ch=5 n=51 v=64
101280 On ch=5 n=46 v=88
101760 Off ch=5 n=46 v=64
101760 On ch=5 n=39 v=88
102032 Off ch=5 n=39 v=64
102240 On ch=5 n=39 v=88
102480 On ch=5 n=51 v=88
102512 Off ch=5 n=39 v=64
102752 Off ch=5 n=51 v=64
103200 On ch=5 n=46 v=88
103680 Off ch=5 n=46 v=64
103680 On ch=5 n=35 v=88
103952 Off ch=5 n=35 v=64
104160 On ch=5 n=35 v=88
104400 On ch=5 n=47 v=88
104432 Off ch=5 n=35 v=64
104672 Off ch=5 n=47 v=64
105120 On ch=5 n=42 v=88
105600 Off ch=5 n=42 v=64
105600 On ch=5 n=35 v=88
105872 Off ch=5 n=35 v=64
106080 On ch=5 n=35 v=88
106320 On ch=5 n=47 v=88
106352 Off ch=5 n=35 v=64
106592 Off ch=5 n=47 v=64
107040 On ch=5 n=42 v=88
107520 Off ch=5 n=42 v=64
107520 On ch=5 n=37 v=88
107792 Off ch=5 n=37 v=64
108000 On ch=5 n=37 v=88
108240 On ch=5 n=49 v=88
108272 Off ch=5 n=37 v=64
108512 Off ch=5 n=49 v=64
108960 On ch=5 n=44 v=88
109440 Off ch=5 n=44 v=64
109440 On ch=5 n=38 v=88
109712 Off ch=5 n=38 v=64
109920 On ch=5 n=38 v=88
110160 On ch=5 n=50 v=88
110192 Off ch=5 n=38 v=64
110432 Off ch=5 n=50 v=64
111360 On ch=5 n=39 v=88
111632 Off ch=5 n=39 v=64
111840 On ch=5 n=39 v=88
112080 On ch=5 n=51 v=88
112112 Off ch=5 n=39 v=64
112352 Off ch=5 n=51 v=64
112800 On ch=5 n=46 v=88
113280 Off ch=5 n=46 v=64
113280 On ch=5 n=39 v=88
113552 Off ch=5 n=39 v=64
113760 On ch=5 n=39 v=88
114000 On ch=5 n=51 v=88
114032 Off ch=5 n=39 v=64
114272 Off ch=5 n=51 v=64
114720 On ch=5 n=46 v=88
115200 Off ch=5 n=46 v=64
115200 On ch=5 n=39 v=88
115472 Off ch=5 n=39 v=64
115680 On ch=5 n=39 v=88
115920 On ch=5 n=51 v=88
115952 Off ch=5 n=39 v=64
116192 Off ch=5 n=51 v=64
116640 On ch=5 n=46 v=88
117120 Off ch=5 n=46 v=64
117120 On ch=5 n=39 v=88
117392 Off ch=5 n=39 v=64
117600 On ch=5 n=39 v=88
117840 On ch=5 n=51 v=88
117872 Off ch=5 n=39 v=64
118112 Off ch=5 n=51 v=64
118560 On ch=5 n=46 v=88
119040 Off ch=5 n=46 v=64
119040 On ch=5 n=35 v=88
119312 Off ch=5 n=35 v=64
119520 On ch=5 n=35 v=88
119760 On ch=5 n=47 v=88
119792 Off ch=5 n=35 v=64
120032 Off ch=5 n=47 v=64
120480 On ch=5 n=42 v=88
120960 Off ch=5 n=42 v=64
120960 On ch=5 n=35 v=88
121232 Off ch=5 n=35 v=64
121440 On ch=5 n=35 v=88
121680 On ch=5 n=47 v=88
121712 Off ch=5 n=35 v=64
121952 Off ch=5 n=47 v=64
122400 On ch=5 n=42 v=88
122880 Off ch=5 n=42 v=64
122880 On ch=5 n=37 v=88
123152 Off ch=5 n=37 v=64
123360 On ch=5 n=37 v=88
123600 On ch=5 n=49 v=88
123632 Off ch=5 n=37 v=64
123872 Off ch=5 n=49 v=64
124320 On ch=5 n=44 v=88
124800 Off ch=5 n=44 v=64
124800 On ch=5 n=38 v=88
125072 Off ch=5 n=38 v=64
125280 On ch=5 n=38 v=88
125520 On ch=5 n=50 v=88
125552 Off ch=5 n=38 v=64
125792 Off ch=5 n=50 v=64
126720 On ch=5 n=35 v=88
126992 Off ch=5 n=35 v=64
127200 On ch=5 n=35 v=88
127440 On ch=5 n=47 v=88
127472 Off ch=5 n=35 v=64
127712 Off ch=5 n=47 v=64
128160 On ch=5 n=42 v=88
128640 Off ch=5 n=42 v=64
128640 On ch=5 n=35 v=88
128912 Off ch=5 n=35 v=64
129120 On ch=5 n=35 v=88
129360 On ch=5 n=47 v=88
129392 Off ch=5 n=35 v=64
129632 Off ch=5 n=47 v=64
130080 On ch=5 n=42 v=88
130560 Off ch=5 n=42 v=64
130560 On ch=5 n=37 v=88
130832 Off ch=5 n=37 v=64
131040 On ch=5 n=37 v=88
131280 On ch=5 n=49 v=88
131312 Off ch=5 n=37 v=64
131552 Off ch=5 n=49 v=64
132000 On ch=5 n=44 v=88
132480 Off ch=5 n=44 v=64
132480 On ch=5 n=37 v=88
132752 Off ch=5 n=37 v=64
132960 On ch=5 n=37 v=88
133200 On ch=5 n=49 v=88
133232 Off ch=5 n=37 v=64
133472 Off ch=5 n=49 v=64
133920 On ch=5 n=44 v=88
134400 Off ch=5 n=44 v=64
134400 On ch=5 n=39 v=88
134672 Off ch=5 n=39 v=64
134880 On ch=5 n=39 v=88
135120 On ch=5 n=51 v=88
135152 Off ch=5 n=39 v=64
135392 Off ch=5 n=51 v=64
135840 On ch=5 n=46 v=88
136320 Off ch=5 n=46 v=64
136320 On ch=5 n=39 v=88
136592 Off ch=5 n=39 v=64
136800 On ch=5 n=39 v=88
137040 On ch=5 n=51 v=88
137072 Off ch=5 n=39 v=64
137312 Off ch=5 n=51 v=64
137760 On ch=5 n=46 v=88
138240 Off ch=5 n=46 v=64
138240 On ch=5 n=39 v=88
138512 Off ch=5 n=39 v=64
138720 On ch=5 n=39 v=88
138960 On ch=5 n=51 v=88
138992 Off ch=5 n=39 v=64
139232 Off ch=5 n=51 v=64
139680 On ch=5 n=46 v=88
140160 Off ch=5 n=46 v=64
140160 On ch=5 n=39 v=88
140432 Off ch=5 n=39 v=64
140640 On ch=5 n=39 v=88
140880 On ch=5 n=51 v=88
140912 Off ch=5 n=39 v=64
141152 Off ch=5 n=51 v=64
141600 On ch=5 n=46 v=88
142080 Off ch=5 n=46 v=64
142080 On ch=5 n=35 v=88
142352 Off ch=5 n=35 v=64
142560 On ch=5 n=35 v=88
142800 On ch=5 n=47 v=88
142832 Off ch=5 n=35 v=64
143072 Off ch=5 n=47 v=64
143520 On ch=5 n=42 v=88
144000 Off ch=5 n=42 v=64
144000 On ch=5 n=35 v=88
144272 Off ch=5 n=35 v=64
144480 On ch=5 n=35 v=88
144720 On ch=5 n=47 v=88
144752 Off ch=5 n=35 v=64
144992 Off ch=5 n=47 v=64
145440 On ch=5 n=42 v=88
145920 Off ch=5 n=42 v=64
145920 On ch=5 n=37 v=88
146192 Off ch=5 n=37 v=64
146400 On ch=5 n=37 v=88
146640 On ch=5 n=49 v=88
146672 Off ch=5 n=37 v=64
146912 Off ch=5 n=49 v=64
147360 On ch=5 n=44 v=88
147840 Off ch=5 n=44 v=64
147840 On ch=5 n=37 v=88
148112 Off ch=5 n=37 v=64
148320 On ch=5 n=37 v=88
148560 On ch=5 n=49 v=88
148592 Off ch=5 n=37 v=64
148832 Off ch=5 n=49 v=64
149280 On ch=5 n=44 v=88
149760 Off ch=5 n=44 v=64
149760 On ch=5 n=39 v=88
150032 Off ch=5 n=39 v=64
150240 On ch=5 n=39 v=88
150480 On ch=5 n=51 v=88
150512 Off ch=5 n=39 v=64
150752 Off ch=5 n=51 v=64
151200 On ch=5 n=46 v=88
151680 Off ch=5 n=46 v=64
151680 On ch=5 n=39 v=88
151952 Off ch=5 n=39 v=64
152160 On ch=5 n=39 v=88
152400 On ch=5 n=51 v=88
152432 Off ch=5 n=39 v=64
152672 Off ch=5 n=51 v=64
153120 On ch=5 n=46 v=88
153600 Off ch=5 n=46 v=64
153600 On ch=5 n=39 v=88
153872 Off ch=5 n=39 v=64
154080 On ch=5 n=39 v=88
154320 On ch=5 n=51 v=88
154352 Off ch=5 n=39 v=64
154592 Off ch=5 n=51 v=64
155040 On ch=5 n=46 v=88
155520 Off ch=5 n=46 v=64
155520 On ch=5 n=39 v=88
155792 Off ch=5 n=39 v=64
156000 On ch=5 n=39 v=88
156240 On ch=5 n=51 v=88
156272 Off ch=5 n=39 v=64
156512 Off ch=5 n=51 v=64
156960 On ch=5 n=46 v=88
157440 Off ch=5 n=46 v=64
157440 On ch=5 n=35 v=88
157712 Off ch=5 n=35 v=64
157920 On ch=5 n=35 v=88
158160 On ch=5 n=47 v=88
158192 Off ch=5 n=35 v=64
158432 Off ch=5 n=47 v=64
158880 On ch=5 n=42 v=88
159360 Off ch=5 n=42 v=64
159360 On ch=5 n=35 v=88
159632 Off ch=5 n=35 v=64
159840 On ch=5 n=35 v=88
160080 On ch=5 n=47 v=88
160112 Off ch=5 n=35 v=64
160352 Off ch=5 n=47 v=64
160800 On ch=5 n=42 v=88
161280 Off ch=5 n=42 v=64
161280 On ch=5 n=37 v=88
161552 Off ch=5 n=37 v=64
161760 On ch=5 n=37 v=88
162000 On ch=5 n=49 v=88
162032 Off ch=5 n=37 v=64
162272 Off ch=5 n=49 v=64
162720 On ch=5 n=44 v=88
163200 Off ch=5 n=44 v=64
163200 On ch=5 n=37 v=88
163472 Off ch=5 n=37 v=64
163680 On ch=5 n=37 v=88
163920 On ch=5 n=49 v=88
163952 Off ch=5 n=37 v=64
164192 Off ch=5 n=49 v=64
164640 On ch=5 n=44 v=88
165120 Off ch=5 n=44 v=64
165120 On ch=5 n=39 v=88
165392 Off ch=5 n=39 v=64
165600 On ch=5 n=39 v=88
165840 On ch=5 n=51 v=88
165872 Off ch=5 n=39 v=64
166112 Off ch=5 n=51 v=64
166560 On ch=5 n=46 v=88
167040 Off ch=5 n=46 v=64
167040 On ch=5 n=39 v=88
167312 Off ch=5 n=39 v=64
167520 On ch=5 n=39 v=88
167760 On ch=5 n=51 v=88
167792 Off ch=5 n=39 v=64
168032 Off ch=5 n=51 v=64
168480 On ch=5 n=46 v=88
168960 Off ch=5 n=46 v=64
168960 On ch=5 n=39 v=88
169232 Off ch=5 n=39 v=64
169440 On ch=5 n=39 v=88
169680 On ch=5 n=51 v=88
169712 Off ch=5 n=39 v=64
169952 Off ch=5 n=51 v=64
170400 On ch=5 n=46 v=88
170880 Off ch=5 n=46 v=64
170880 On ch=5 n=39 v=88
171152 Off ch=5 n=39 v=64
171360 On ch=5 n=39 v=88
171600 On ch=5 n=51 v=88
171632 Off ch=5 n=39 v=64
171872 Off ch=5 n=51 v=64
172320 On ch=5 n=46 v=88
172800 Off ch=5 n=46 v=64
172800 On ch=5 n=35 v=88
173072 Off ch=5 n=35 v=64
173280 On ch=5 n=35 v=88
173520 On ch=5 n=47 v=88
173552 Off ch=5 n=35 v=64
173792 Off ch=5 n=47 v=64
174240 On ch=5 n=42 v=88
174720 Off ch=5 n=42 v=64
174720 On ch=5 n=35 v=88
174992 Off ch=5 n=35 v=64
175200 On ch=5 n=35 v=88
175440 On ch=5 n=47 v=88
175472 Off ch=5 n=35 v=64
175712 Off ch=5 n=47 v=64
176160 On ch=5 n=42 v=88
176640 Off ch=5 n=42 v=64
176640 On ch=5 n=37 v=88
176912 Off ch=5 n=37 v=64
177120 On ch=5 n=37 v=88
177360 On ch=5 n=49 v=88
177392 Off ch=5 n=37 v=64
177632 Off ch=5 n=49 v=64
178080 On ch=5 n=44 v=88
178560 Off ch=5 n=44 v=64
178560 On ch=5 n=37 v=88
178832 Off ch=5 n=37 v=64
179040 On ch=5 n=37 v=88
179280 On ch=5 n=49 v=88
179312 Off ch=5 n=37 v=64
179552 Off ch=5 n=49 v=64
180000 On ch=5 n=44 v=88
180480 Off ch=5 n=44 v=64
180480 On ch=5 n=39 v=88
180752 Off ch=5 n=39 v=64
180960 On ch=5 n=39 v=88
181200 On ch=5 n=51 v=88
181232 Off ch=5 n=39 v=64
181472 Off ch=5 n=51 v=64
181920 On ch=5 n=46 v=88
182400 Off ch=5 n=46 v=64
182400 On ch=5 n=39 v=88
182672 Off ch=5 n=39 v=64
182880 On ch=5 n=39 v=88
183120 On ch=5 n=51 v=88
183152 Off ch=5 n=39 v=64
183392 Off ch=5 n=51 v=64
183840 On ch=5 n=46 v=88
184320 Off ch=5 n=46 v=64
184320 On ch=5 n=39 v=88
184592 Off ch=5 n=39 v=64
184800 On ch=5 n=39 v=88
185040 On ch=5 n=51 v=88
185072 Off ch=5 n=39 v=64
185312 Off ch=5 n=51 v=64
185760 On ch=5 n=46 v=88
186240 Off ch=5 n=46 v=64
186240 On ch=5 n=39 v=88
186512 Off ch=5 n=39 v=64
218880 On ch=5 n=39 v=108
218880 Par ch=5 c=11 v=96
219360 Off ch=5 n=39 v=64
220800 On ch=5 n=39 v=108
221280 Off ch=5 n=39 v=64
222720 On ch=5 n=39 v=108
223200 Off ch=5 n=39 v=64
224640 On ch=5 n=39 v=108
225120 Off ch=5 n=39 v=64
225600 On ch=5 n=44 v=108
226080 Off ch=5 n=44 v=64
226560 On ch=5 n=39 v=108
227040 Off ch=5 n=39 v=64
228480 On ch=5 n=39 v=108
228960 Off ch=5 n=39 v=64
230400 On ch=5 n=39 v=108
230880 Off ch=5 n=39 v=64
232320 On ch=5 n=44 v=108
232800 Off ch=5 n=44 v=64
233280 On ch=5 n=42 v=108
233760 Off ch=5 n=42 v=64
234240 On ch=5 n=39 v=108
234720 Off ch=5 n=39 v=64
236160 On ch=5 n=39 v=108
236640 Off ch=5 n=39 v=64
238080 On ch=5 n=39 v=108
238560 Off ch=5 n=39 v=64
240000 On ch=5 n=39 v=108
240480 Off ch=5 n=39 v=64
240960 On ch=5 n=44 v=108
241440 Off ch=5 n=44 v=64
241920 On ch=5 n=39 v=108
242400 Off ch=5 n=39 v=64
243840 On ch=5 n=39 v=108
244320 Off ch=5 n=39 v=64
245760 On ch=5 n=39 v=108
246240 Off ch=5 n=39 v=64
247680 On ch=5 n=44 v=108
248160 Off ch=5 n=44 v=64
248640 On ch=5 n=42 v=108
249120 Off ch=5 n=42 v=64
297728 Par ch=5 c=11 v=109
298080 On ch=5 n=46 v=88
298560 On ch=5 n=51 v=88
298624 Off ch=5 n=46 v=64
298848 Off ch=5 n=51 v=64
298988 Par ch=5 c=11 v=110
299040 On ch=5 n=53 v=88
299328 Off ch=5 n=53 v=64
299498 Par ch=5 c=11 v=111
299520 On ch=5 n=54 v=88
299840 Off ch=5 n=54 v=64
299918 Par ch=5 c=11 v=112
300248 Par ch=5 c=11 v=113
300480 On ch=5 n=56 v=88
300548 Par ch=5 c=11 v=114
300788 Par ch=5 c=11 v=115
300800 Off ch=5 n=56 v=64
301058 Par ch=5 c=11 v=116
301268 Par ch=5 c=11 v=117
301440 On ch=5 n=58 v=88
301472 Par ch=5 c=11 v=118
301792 Par ch=5 c=11 v=121
301920 On ch=5 n=59 v=88
301952 Off ch=5 n=58 v=64
302208 Off ch=5 n=59 v=64
302392 Par ch=5 c=11 v=120
302400 On ch=5 n=58 v=88
302602 Par ch=5 c=11 v=119
302688 Off ch=5 n=58 v=64
302782 Par ch=5 c=11 v=118
302880 On ch=5 n=56 v=88
302962 Par ch=5 c=11 v=117
303082 Par ch=5 c=11 v=116
303168 Off ch=5 n=56 v=64
303202 Par ch=5 c=11 v=115
303322 Par ch=5 c=11 v=114
303360 On ch=5 n=54 v=88
303412 Par ch=5 c=11 v=113
303532 Par ch=5 c=11 v=112
303622 Par ch=5 c=11 v=111
303712 Par ch=5 c=11 v=110
303772 Par ch=5 c=11 v=109
303862 Par ch=5 c=11 v=108
303952 Par ch=5 c=11 v=107
304000 Par ch=5 c=11 v=106
305544 Off ch=5 n=54 v=64
305760 On ch=5 n=54 v=88
306240 On ch=5 n=53 v=88
306304 Off ch=5 n=54 v=64
306496 Off ch=5 n=53 v=64
306720 On ch=5 n=54 v=88
306912 Off ch=5 n=54 v=64
307200 On ch=5 n=56 v=119
307200 Par ch=5 c=11 v=113
307440 Off ch=5 n=56 v=64
308100 Par ch=5 c=11 v=114
308160 On ch=5 n=54 v=119
308400 Off ch=5 n=54 v=64
308460 Par ch=5 c=11 v=115
308760 Par ch=5 c=11 v=116
309000 Par ch=5 c=11 v=117
309120 On ch=5 n=53 v=119
309210 Par ch=5 c=11 v=118
309360 Off ch=5 n=53 v=64
309390 Par ch=5 c=11 v=119
309570 Par ch=5 c=11 v=120
309720 Par ch=5 c=11 v=121
309870 Par ch=5 c=11 v=122
310020 Par ch=5 c=11 v=123
310080 On ch=5 n=49 v=119
310170 Par ch=5 c=11 v=124
310290 Par ch=5 c=11 v=125
310320 Off ch=5 n=49 v=64
310410 Par ch=5 c=11 v=126
310528 Par ch=5 c=11 v=127
311040 On ch=5 n=47 v=90
311040 On ch=5 n=35 v=90
311040 Par ch=5 c=11 v=98
311232 Off ch=5 n=35 v=64
311232 Off ch=5 n=47 v=64
311520 On ch=5 n=51 v=82
311520 On ch=5 n=39 v=82
311712 Off ch=5 n=39 v=64
311712 Off ch=5 n=51 v=64
312000 On ch=5 n=59 v=82
312000 On ch=5 n=47 v=82
312192 Off ch=5 n=47 v=64
312192 Off ch=5 n=59 v=64
312480 On ch=5 n=54 v=82
312480 On ch=5 n=42 v=82
312672 Off ch=5 n=42 v=64
312672 Off ch=5 n=54 v=64
312960 On ch=5 n=47 v=89
312960 On ch=5 n=35 v=89
313152 Off ch=5 n=35 v=64
313152 Off ch=5 n=47 v=64
313440 On ch=5 n=51 v=82
313440 On ch=5 n=39 v=82
313632 Off ch=5 n=39 v=64
313632 Off ch=5 n=51 v=64
313920 On ch=5 n=59 v=82
313920 On ch=5 n=47 v=82
314112 Off ch=5 n=47 v=64
314112 Off ch=5 n=59 v=64
314400 On ch=5 n=54 v=82
314400 On ch=5 n=42 v=82
314592 Off ch=5 n=42 v=64
314592 Off ch=5 n=54 v=64
314880 On ch=5 n=49 v=89
314880 On ch=5 n=37 v=89
315072 Off ch=5 n=37 v=64
315072 Off ch=5 n=49 v=64
315360 On ch=5 n=53 v=82
315360 On ch=5 n=41 v=82
315552 Off ch=5 n=41 v=64
315552 Off ch=5 n=53 v=64
315840 On ch=5 n=61 v=82
315840 On ch=5 n=49 v=82
316032 Off ch=5 n=49 v=64
316032 Off ch=5 n=61 v=64
316320 On ch=5 n=56 v=82
316320 On ch=5 n=44 v=82
316512 Off ch=5 n=44 v=64
316512 Off ch=5 n=56 v=64
316800 On ch=5 n=49 v=90
316800 On ch=5 n=37 v=90
316992 Off ch=5 n=37 v=64
316992 Off ch=5 n=49 v=64
317280 On ch=5 n=53 v=82
317280 On ch=5 n=41 v=82
317472 Off ch=5 n=41 v=64
317472 Off ch=5 n=53 v=64
317760 On ch=5 n=61 v=82
317760 On ch=5 n=49 v=82
317952 Off ch=5 n=49 v=64
317952 Off ch=5 n=61 v=64
318240 On ch=5 n=56 v=82
318240 On ch=5 n=44 v=82
318432 Off ch=5 n=44 v=64
318432 Off ch=5 n=56 v=64
318720 On ch=5 n=51 v=91
318720 On ch=5 n=39 v=91
318912 Off ch=5 n=39 v=64
318912 Off ch=5 n=51 v=64
319200 On ch=5 n=54 v=82
319200 On ch=5 n=42 v=82
319392 Off ch=5 n=42 v=64
319392 Off ch=5 n=54 v=64
319680 On ch=5 n=63 v=82
319680 On ch=5 n=51 v=82
319872 Off ch=5 n=51 v=64
319872 Off ch=5 n=63 v=64
320160 On ch=5 n=58 v=82
320160 On ch=5 n=46 v=82
320352 Off ch=5 n=46 v=64
320352 Off ch=5 n=58 v=64
320640 On ch=5 n=51 v=91
320640 On ch=5 n=39 v=91
320832 Off ch=5 n=39 v=64
320832 Off ch=5 n=51 v=64
321120 On ch=5 n=54 v=82
321120 On ch=5 n=42 v=82
321312 Off ch=5 n=42 v=64
321312 Off ch=5 n=54 v=64
321600 On ch=5 n=63 v=82
321600 On ch=5 n=51 v=82
321792 Off ch=5 n=51 v=64
321792 Off ch=5 n=63 v=64
322080 On ch=5 n=58 v=82
322080 On ch=5 n=46 v=82
322272 Off ch=5 n=46 v=64
322272 Off ch=5 n=58 v=64
322560 On ch=5 n=51 v=89
322560 On ch=5 n=39 v=89
322752 Off ch=5 n=39 v=64
322752 Off ch=5 n=51 v=64
323040 On ch=5 n=54 v=82
323040 On ch=5 n=42 v=82
323232 Off ch=5 n=42 v=64
323232 Off ch=5 n=54 v=64
323520 On ch=5 n=63 v=82
323520 On ch=5 n=51 v=82
323712 Off ch=5 n=51 v=64
323712 Off ch=5 n=63 v=64
324000 On ch=5 n=58 v=82
324000 On ch=5 n=46 v=82
324192 Off ch=5 n=46 v=64
324192 Off ch=5 n=58 v=64
324480 On ch=5 n=51 v=89
324480 On ch=5 n=39 v=89
324672 Off ch=5 n=39 v=64
324672 Off ch=5 n=51 v=64
324960 On ch=5 n=54 v=82
324960 On ch=5 n=42 v=82
325152 Off ch=5 n=42 v=64
325152 Off ch=5 n=54 v=64
325440 On ch=5 n=63 v=82
325440 On ch=5 n=51 v=82
325632 Off ch=5 n=51 v=64
325632 Off ch=5 n=63 v=64
325920 On ch=5 n=58 v=82
325920 On ch=5 n=46 v=82
326112 Off ch=5 n=46 v=64
326112 Off ch=5 n=58 v=64
326400 On ch=5 n=47 v=90
326400 On ch=5 n=35 v=90
326592 Off ch=5 n=35 v=64
326592 Off ch=5 n=47 v=64
326880 On ch=5 n=51 v=82
326880 On ch=5 n=39 v=82
327072 Off ch=5 n=39 v=64
327072 Off ch=5 n=51 v=64
327360 On ch=5 n=59 v=82
327360 On ch=5 n=47 v=82
327552 Off ch=5 n=47 v=64
327552 Off ch=5 n=59 v=64
327840 On ch=5 n=54 v=82
327840 On ch=5 n=42 v=82
328032 Off ch=5 n=42 v=64
328032 Off ch=5 n=54 v=64
328320 On ch=5 n=47 v=89
328320 On ch=5 n=35 v=89
328512 Off ch=5 n=35 v=64
328512 Off ch=5 n=47 v=64
328800 On ch=5 n=51 v=82
328800 On ch=5 n=39 v=82
328992 Off ch=5 n=39 v=64
328992 Off ch=5 n=51 v=64
329280 On ch=5 n=59 v=82
329280 On ch=5 n=47 v=82
329472 Off ch=5 n=47 v=64
329472 Off ch=5 n=59 v=64
329760 On ch=5 n=54 v=82
329760 On ch=5 n=42 v=82
329952 Off ch=5 n=42 v=64
329952 Off ch=5 n=54 v=64
330240 On ch=5 n=49 v=89
330240 On ch=5 n=37 v=89
330432 Off ch=5 n=37 v=64
330432 Off ch=5 n=49 v=64
330720 On ch=5 n=53 v=82
330720 On ch=5 n=41 v=82
330912 Off ch=5 n=41 v=64
330912 Off ch=5 n=53 v=64
331200 On ch=5 n=61 v=82
331200 On ch=5 n=49 v=82
331392 Off ch=5 n=49 v=64
331392 Off ch=5 n=61 v=64
331680 On ch=5 n=56 v=82
331680 On ch=5 n=44 v=82
331872 Off ch=5 n=44 v=64
331872 Off ch=5 n=56 v=64
332160 On ch=5 n=49 v=90
332160 On ch=5 n=37 v=90
332352 Off ch=5 n=37 v=64
332352 Off ch=5 n=49 v=64
332640 On ch=5 n=53 v=82
332640 On ch=5 n=41 v=82
332832 Off ch=5 n=41 v=64
332832 Off ch=5 n=53 v=64
333120 On ch=5 n=61 v=82
333120 On ch=5 n=49 v=82
333312 Off ch=5 n=49 v=64
333312 Off ch=5 n=61 v=64
333600 On ch=5 n=56 v=82
333600 On ch=5 n=44 v=82
333792 Off ch=5 n=44 v=64
333792 Off ch=5 n=56 v=64
334080 On ch=5 n=51 v=91
334080 On ch=5 n=39 v=91
334272 Off ch=5 n=39 v=64
334272 Off ch=5 n=51 v=64
334560 On ch=5 n=54 v=82
334560 On ch=5 n=42 v=82
334752 Off ch=5 n=42 v=64
334752 Off ch=5 n=54 v=64
335040 On ch=5 n=63 v=82
335040 On ch=5 n=51 v=82
335232 Off ch=5 n=51 v=64
335232 Off ch=5 n=63 v=64
335520 On ch=5 n=58 v=82
335520 On ch=5 n=46 v=82
335712 Off ch=5 n=46 v=64
335712 Off ch=5 n=58 v=64
336000 On ch=5 n=51 v=91
336000 On ch=5 n=39 v=91
336192 Off ch=5 n=39 v=64
336192 Off ch=5 n=51 v=64
336480 On ch=5 n=54 v=82
336480 On ch=5 n=42 v=82
336672 Off ch=5 n=42 v=64
336672 Off ch=5 n=54 v=64
336960 On ch=5 n=63 v=82
336960 On ch=5 n=51 v=82
337152 Off ch=5 n=51 v=64
337152 Off ch=5 n=63 v=64
337440 On ch=5 n=58 v=82
337440 On ch=5 n=46 v=82
337632 Off ch=5 n=46 v=64
337632 Off ch=5 n=58 v=64
337920 On ch=5 n=51 v=89
337920 On ch=5 n=39 v=89
338112 Off ch=5 n=39 v=64
338112 Off ch=5 n=51 v=64
338400 On ch=5 n=54 v=82
338400 On ch=5 n=42 v=82
338592 Off ch=5 n=42 v=64
338592 Off ch=5 n=54 v=64
338880 On ch=5 n=63 v=82
338880 On ch=5 n=51 v=82
339072 Off ch=5 n=51 v=64
339072 Off ch=5 n=63 v=64
339360 On ch=5 n=58 v=82
339360 On ch=5 n=46 v=82
339552 Off ch=5 n=46 v=64
339552 Off ch=5 n=58 v=64
339840 On ch=5 n=51 v=89
339840 On ch=5 n=39 v=89
340032 Off ch=5 n=39 v=64
340032 Off ch=5 n=51 v=64
340320 On ch=5 n=54 v=82
340320 On ch=5 n=42 v=82
340512 Off ch=5 n=42 v=64
340512 Off ch=5 n=54 v=64
340800 On ch=5 n=63 v=82
340800 On ch=5 n=51 v=82
340992 Off ch=5 n=51 v=64
340992 Off ch=5 n=63 v=64
341280 On ch=5 n=58 v=82
341280 On ch=5 n=46 v=82
341472 Off ch=5 n=46 v=64
341472 Off ch=5 n=58 v=64
341760 On ch=5 n=35 v=90
341760 On ch=5 n=47 v=90
341952 Off ch=5 n=47 v=64
341952 Off ch=5 n=35 v=64
342240 On ch=5 n=39 v=82
342240 On ch=5 n=51 v=82
342432 Off ch=5 n=51 v=64
342432 Off ch=5 n=39 v=64
342720 On ch=5 n=47 v=82
342720 On ch=5 n=59 v=82
342912 Off ch=5 n=59 v=64
342912 Off ch=5 n=47 v=64
343200 On ch=5 n=42 v=82
343200 On ch=5 n=54 v=82
343392 Off ch=5 n=54 v=64
343392 Off ch=5 n=42 v=64
343680 On ch=5 n=35 v=89
343680 On ch=5 n=47 v=89
343872 Off ch=5 n=47 v=64
343872 Off ch=5 n=35 v=64
344160 On ch=5 n=39 v=82
344160 On ch=5 n=51 v=82
344352 Off ch=5 n=51 v=64
344352 Off ch=5 n=39 v=64
344640 On ch=5 n=47 v=82
344640 On ch=5 n=59 v=82
344832 Off ch=5 n=59 v=64
344832 Off ch=5 n=47 v=64
345120 On ch=5 n=42 v=82
345120 On ch=5 n=54 v=82
345312 Off ch=5 n=54 v=64
345312 Off ch=5 n=42 v=64
345600 On ch=5 n=37 v=89
345600 On ch=5 n=49 v=89
345792 Off ch=5 n=49 v=64
345792 Off ch=5 n=37 v=64
346080 On ch=5 n=41 v=82
346080 On ch=5 n=53 v=82
346272 Off ch=5 n=53 v=64
346272 Off ch=5 n=41 v=64
346560 On ch=5 n=49 v=82
346560 On ch=5 n=61 v=82
346752 Off ch=5 n=61 v=64
346752 Off ch=5 n=49 v=64
347040 On ch=5 n=44 v=82
347040 On ch=5 n=56 v=82
347232 Off ch=5 n=56 v=64
347232 Off ch=5 n=44 v=64
347520 On ch=5 n=37 v=90
347520 On ch=5 n=49 v=90
347712 Off ch=5 n=49 v=64
347712 Off ch=5 n=37 v=64
348000 On ch=5 n=41 v=82
348000 On ch=5 n=53 v=82
348192 Off ch=5 n=53 v=64
348192 Off ch=5 n=41 v=64
348480 On ch=5 n=49 v=82
348480 On ch=5 n=61 v=82
348672 Off ch=5 n=61 v=64
348672 Off ch=5 n=49 v=64
348960 On ch=5 n=44 v=82
348960 On ch=5 n=56 v=82
349152 Off ch=5 n=56 v=64
349152 Off ch=5 n=44 v=64
349440 On ch=5 n=39 v=91
349440 On ch=5 n=51 v=91
349632 Off ch=5 n=51 v=64
349632 Off ch=5 n=39 v=64
349920 On ch=5 n=42 v=82
349920 On ch=5 n=54 v=82
350112 Off ch=5 n=54 v=64
350112 Off ch=5 n=42 v=64
350400 On ch=5 n=51 v=82
350400 On ch=5 n=63 v=82
350592 Off ch=5 n=63 v=64
350592 Off ch=5 n=51 v=64
350880 On ch=5 n=46 v=82
350880 On ch=5 n=58 v=82
351072 Off ch=5 n=58 v=64
351072 Off ch=5 n=46 v=64
351360 On ch=5 n=39 v=91
351360 On ch=5 n=51 v=91
351552 Off ch=5 n=51 v=64
351552 Off ch=5 n=39 v=64
351840 On ch=5 n=42 v=82
351840 On ch=5 n=54 v=82
352032 Off ch=5 n=54 v=64
352032 Off ch=5 n=42 v=64
352320 On ch=5 n=51 v=82
352320 On ch=5 n=63 v=82
352512 Off ch=5 n=63 v=64
352512 Off ch=5 n=51 v=64
352800 On ch=5 n=46 v=82
352800 On ch=5 n=58 v=82
352992 Off ch=5 n=58 v=64
352992 Off ch=5 n=46 v=64
353280 On ch=5 n=39 v=89
353280 On ch=5 n=51 v=89
353472 Off ch=5 n=51 v=64
353472 Off ch=5 n=39 v=64
353760 On ch=5 n=42 v=82
353760 On ch=5 n=54 v=82
353952 Off ch=5 n=54 v=64
353952 Off ch=5 n=42 v=64
354240 On ch=5 n=51 v=82
354240 On ch=5 n=63 v=82
354432 Off ch=5 n=63 v=64
354432 Off ch=5 n=51 v=64
354720 On ch=5 n=46 v=82
354720 On ch=5 n=58 v=82
354912 Off ch=5 n=58 v=64
354912 Off ch=5 n=46 v=64
355200 On ch=5 n=39 v=89
355200 On ch=5 n=51 v=89
355392 Off ch=5 n=51 v=64
355392 Off ch=5 n=39 v=64
355680 On ch=5 n=42 v=82
355680 On ch=5 n=54 v=82
355872 Off ch=5 n=54 v=64
355872 Off ch=5 n=42 v=64
356160 On ch=5 n=51 v=82
356160 On ch=5 n=63 v=82
356352 Off ch=5 n=63 v=64
356352 Off ch=5 n=51 v=64
356640 On ch=5 n=46 v=82
356640 On ch=5 n=58 v=82
356832 Off ch=5 n=58 v=64
356832 Off ch=5 n=46 v=64
357120 On ch=5 n=35 v=90
357120 On ch=5 n=47 v=90
357312 Off ch=5 n=47 v=64
357312 Off ch=5 n=35 v=64
357600 On ch=5 n=39 v=82
357600 On ch=5 n=51 v=82
357792 Off ch=5 n=51 v=64
357792 Off ch=5 n=39 v=64
358080 On ch=5 n=47 v=82
358080 On ch=5 n=59 v=82
358272 Off ch=5 n=59 v=64
358272 Off ch=5 n=47 v=64
358560 On ch=5 n=42 v=82
358560 On ch=5 n=54 v=82
358752 Off ch=5 n=54 v=64
358752 Off ch=5 n=42 v=64
359040 On ch=5 n=35 v=89
359040 On ch=5 n=47 v=89
359232 Off ch=5 n=47 v=64
359232 Off ch=5 n=35 v=64
359520 On ch=5 n=39 v=82
359520 On ch=5 n=51 v=82
359712 Off ch=5 n=51 v=64
359712 Off ch=5 n=39 v=64
360000 On ch=5 n=47 v=82
360000 On ch=5 n=59 v=82
360192 Off ch=5 n=59 v=64
360192 Off ch=5 n=47 v=64
360480 On ch=5 n=42 v=82
360480 On ch=5 n=54 v=82
360672 Off ch=5 n=54 v=64
360672 Off ch=5 n=42 v=64
360960 On ch=5 n=37 v=89
360960 On ch=5 n=49 v=89
361152 Off ch=5 n=49 v=64
361152 Off ch=5 n=37 v=64
361440 On ch=5 n=41 v=82
361440 On ch=5 n=53 v=82
361632 Off ch=5 n=53 v=64
361632 Off ch=5 n=41 v=64
361920 On ch=5 n=49 v=82
361920 On ch=5 n=61 v=82
362112 Off ch=5 n=61 v=64
362112 Off ch=5 n=49 v=64
362400 On ch=5 n=44 v=82
362400 On ch=5 n=56 v=82
362592 Off ch=5 n=56 v=64
362592 Off ch=5 n=44 v=64
362880 On ch=5 n=37 v=90
362880 On ch=5 n=49 v=90
363072 Off ch=5 n=49 v=64
363072 Off ch=5 n=37 v=64
363360 On ch=5 n=41 v=82
363360 On ch=5 n=53 v=82
363552 Off ch=5 n=53 v=64
363552 Off ch=5 n=41 v=64
363840 On ch=5 n=49 v=82
363840 On ch=5 n=61 v=82
364032 Off ch=5 n=61 v=64
364032 Off ch=5 n=49 v=64
364320 On ch=5 n=44 v=82
364320 On ch=5 n=56 v=82
364512 Off ch=5 n=56 v=64
364512 Off ch=5 n=44 v=64
364800 On ch=5 n=39 v=91
364800 On ch=5 n=51 v=91
364992 Off ch=5 n=51 v=64
364992 Off ch=5 n=39 v=64
365280 On ch=5 n=42 v=82
365280 On ch=5 n=54 v=82
365472 Off ch=5 n=54 v=64
365472 Off ch=5 n=42 v=64
365760 On ch=5 n=51 v=82
365760 On ch=5 n=63 v=82
365952 Off ch=5 n=63 v=64
365952 Off ch=5 n=51 v=64
366240 On ch=5 n=46 v=82
366240 On ch=5 n=58 v=82
366432 Off ch=5 n=58 v=64
366432 Off ch=5 n=46 v=64
366720 On ch=5 n=39 v=91
366720 On ch=5 n=51 v=91
366912 Off ch=5 n=51 v=64
366912 Off ch=5 n=39 v=64
367200 On ch=5 n=42 v=82
367200 On ch=5 n=54 v=82
367392 Off ch=5 n=54 v=64
367392 Off ch=5 n=42 v=64
367680 On ch=5 n=51 v=82
367680 On ch=5 n=63 v=82
367872 Off ch=5 n=63 v=64
367872 Off ch=5 n=51 v=64
368160 On ch=5 n=46 v=82
368160 On ch=5 n=58 v=82
368352 Off ch=5 n=58 v=64
368352 Off ch=5 n=46 v=64
368640 On ch=5 n=39 v=89
368640 On ch=5 n=51 v=89
368832 Off ch=5 n=51 v=64
368832 Off ch=5 n=39 v=64
369120 On ch=5 n=42 v=82
369120 On ch=5 n=54 v=82
369312 Off ch=5 n=54 v=64
369312 Off ch=5 n=42 v=64
369600 On ch=5 n=51 v=82
369600 On ch=5 n=63 v=82
369792 Off ch=5 n=63 v=64
369792 Off ch=5 n=51 v=64
370080 On ch=5 n=46 v=82
370080 On ch=5 n=58 v=82
370272 Off ch=5 n=58 v=64
370272 Off ch=5 n=46 v=64
370560 On ch=5 n=39 v=89
370560 On ch=5 n=51 v=89
370752 Off ch=5 n=51 v=64
370752 Off ch=5 n=39 v=64
372480 Par ch=5 c=11 v=83
374368 Par ch=5 c=11 v=74
374400 On ch=5 n=47 v=88
374578 Par ch=5 c=11 v=73
374668 Par ch=5 c=11 v=72
374728 Par ch=5 c=11 v=71
374788 Par ch=5 c=11 v=70
374848 Par ch=5 c=11 v=69
374878 Par ch=5 c=11 v=68
374880 On ch=5 n=42 v=88
374908 Par ch=5 c=11 v=67
374912 Off ch=5 n=47 v=64
374968 Par ch=5 c=11 v=66
374998 Par ch=5 c=11 v=65
375028 Par ch=5 c=11 v=64
375058 Par ch=5 c=11 v=63
375088 Par ch=5 c=11 v=62
375118 Par ch=5 c=11 v=61
375136 Off ch=5 n=42 v=64
375148 Par ch=5 c=11 v=60
375178 Par ch=5 c=11 v=59
375208 Par ch=5 c=11 v=57
375238 Par ch=5 c=11 v=56
375268 Par ch=5 c=11 v=55
375298 Par ch=5 c=11 v=54
375328 Par ch=5 c=11 v=52
375358 Par ch=5 c=11 v=51
375360 On ch=5 n=39 v=88
375388 Par ch=5 c=11 v=49
375418 Par ch=5 c=11 v=48
375424 Par ch=5 c=11 v=47
375616 Off ch=5 n=39 v=64
378016 Par ch=5 c=11 v=72
378240 On ch=5 n=44 v=88
378316 Par ch=5 c=11 v=71
378436 Par ch=5 c=11 v=70
378526 Par ch=5 c=11 v=69
378586 Par ch=5 c=11 v=68
378646 Par ch=5 c=11 v=67
378706 Par ch=5 c=11 v=66
378720 On ch=5 n=41 v=88
378766 Par ch=5 c=11 v=65
378784 Off ch=5 n=44 v=64
378826 Par ch=5 c=11 v=64
378856 Par ch=5 c=11 v=63
378916 Par ch=5 c=11 v=62
378946 Par ch=5 c=11 v=61
379006 Par ch=5 c=11 v=60
379008 Off ch=5 n=41 v=64
379036 Par ch=5 c=11 v=59
379066 Par ch=5 c=11 v=58
379126 Par ch=5 c=11 v=57
379156 Par ch=5 c=11 v=56
379186 Par ch=5 c=11 v=55
379200 On ch=5 n=37 v=88
379216 Par ch=5 c=11 v=54
379246 Par ch=5 c=11 v=53
379276 Par ch=5 c=11 v=52
379306 Par ch=5 c=11 v=51
379328 Par ch=5 c=11 v=50
379488 Off ch=5 n=37 v=64
380160 On ch=5 n=39 v=88
380160 Par ch=5 c=11 v=38
380820 Par ch=5 c=11 v=39
381090 Par ch=5 c=11 v=40
381270 Par ch=5 c=11 v=41
381450 Par ch=5 c=11 v=42
381600 Par ch=5 c=11 v=43
381720 Par ch=5 c=11 v=44
381870 Par ch=5 c=11 v=45
381990 Par ch=5 c=11 v=46
382080 Par ch=5 c=11 v=47
382200 Par ch=5 c=11 v=48
382290 Par ch=5 c=11 v=49
382380 Par ch=5 c=11 v=50
382470 Par ch=5 c=11 v=51
382560 Par ch=5 c=11 v=52
382650 Par ch=5 c=11 v=53
382710 Par ch=5 c=11 v=54
382800 Par ch=5 c=11 v=55
382890 Par ch=5 c=11 v=56
382950 Par ch=5 c=11 v=57
383010 Par ch=5 c=11 v=58
383100 Par ch=5 c=11 v=59
383160 Par ch=5 c=11 v=60
383220 Par ch=5 c=11 v=61
383280 Par ch=5 c=11 v=62
383370 Par ch=5 c=11 v=63
383430 Par ch=5 c=11 v=64
383490 Par ch=5 c=11 v=65
383550 Par ch=5 c=11 v=66
383610 Par ch=5 c=11 v=67
383670 Par ch=5 c=11 v=68
383730 Par ch=5 c=11 v=69
383790 Par ch=5 c=11 v=70
383820 Par ch=5 c=11 v=71
383872 Par ch=5 c=11 v=72
384000 Par ch=5 c=11 v=74
384480 Par ch=5 c=11 v=73
384660 Par ch=5 c=11 v=72
384810 Par ch=5 c=11 v=71
384930 Par ch=5 c=11 v=70
385050 Par ch=5 c=11 v=69
385140 Par ch=5 c=11 v=68
385230 Par ch=5 c=11 v=67
385320 Par ch=5 c=11 v=66
385380 Par ch=5 c=11 v=65
385470 Par ch=5 c=11 v=64
385530 Par ch=5 c=11 v=63
385620 Par ch=5 c=11 v=62
385680 Par ch=5 c=11 v=61
385740 Par ch=5 c=11 v=60
385800 Par ch=5 c=11 v=59
385860 Par ch=5 c=11 v=58
385920 Par ch=5 c=11 v=57
385980 Par ch=5 c=11 v=56
386010 Par ch=5 c=11 v=55
386070 Par ch=5 c=11 v=54
386130 Par ch=5 c=11 v=53
386160 Par ch=5 c=11 v=52
386220 Par ch=5 c=11 v=51
386280 Par ch=5 c=11 v=50
386310 Par ch=5 c=11 v=49
386370 Par ch=5 c=11 v=48
386400 Par ch=5 c=11 v=47
386460 Par ch=5 c=11 v=46
386490 Par ch=5 c=11 v=45
386520 Par ch=5 c=11 v=44
386580 Par ch=5 c=11 v=43
386610 Par ch=5 c=11 v=42
386670 Par ch=5 c=11 v=41
386700 Par ch=5 c=11 v=40
386730 Par ch=5 c=11 v=39
386760 Par ch=5 c=11 v=38
386820 Par ch=5 c=11 v=37
386850 Par ch=5 c=11 v=36
386880 Par ch=5 c=11 v=35
386910 Par ch=5 c=11 v=34
386970 Par ch=5 c=11 v=33
387000 Par ch=5 c=11 v=32
387030 Par ch=5 c=11 v=31
387060 Par ch=5 c=11 v=30
387090 Par ch=5 c=11 v=29
387120 Par ch=5 c=11 v=28
387180 Par ch=5 c=11 v=27
387210 Par ch=5 c=11 v=26
387240 Par ch=5 c=11 v=25
387270 Par ch=5 c=11 v=24
387300 Par ch=5 c=11 v=23
387330 Par ch=5 c=11 v=22
387360 Par ch=5 c=11 v=21
387390 Par ch=5 c=11 v=20
387420 Par ch=5 c=11 v=19
387450 Par ch=5 c=11 v=18
387480 Par ch=5 c=11 v=17
387510 Par ch=5 c=11 v=16
387540 Par ch=5 c=11 v=15
387570 Par ch=5 c=11 v=14
387600 Par ch=5 c=11 v=13
387608 Off ch=5 n=39 v=64
387630 Par ch=5 c=11 v=12
387660 Par ch=5 c=11 v=11
389504 Par ch=5 c=11 v=74
389760 On ch=5 n=47 v=88
389804 Par ch=5 c=11 v=73
389924 Par ch=5 c=11 v=72
390014 Par ch=5 c=11 v=71
390104 Par ch=5 c=11 v=70
390164 Par ch=5 c=11 v=69
390224 Par ch=5 c=11 v=68
390240 On ch=5 n=42 v=88
390284 Par ch=5 c=11 v=67
390304 Off ch=5 n=47 v=64
390344 Par ch=5 c=11 v=66
390374 Par ch=5 c=11 v=65
390434 Par ch=5 c=11 v=64
390464 Par ch=5 c=11 v=63
390524 Par ch=5 c=11 v=62
390554 Par ch=5 c=11 v=61
390560 Off ch=5 n=42 v=64
390614 Par ch=5 c=11 v=60
390644 Par ch=5 c=11 v=59
390674 Par ch=5 c=11 v=58
390704 Par ch=5 c=11 v=57
390720 On ch=5 n=39 v=88
390734 Par ch=5 c=11 v=56
390794 Par ch=5 c=11 v=55
390824 Par ch=5 c=11 v=54
390854 Par ch=5 c=11 v=53
390884 Par ch=5 c=11 v=52
390914 Par ch=5 c=11 v=51
390944 Par ch=5 c=11 v=50
390974 Par ch=5 c=11 v=49
391004 Par ch=5 c=11 v=48
391008 Par ch=5 c=11 v=47
391040 Off ch=5 n=39 v=64
393344 Par ch=5 c=11 v=64
393600 On ch=5 n=44 v=88
393674 Par ch=5 c=11 v=63
393794 Par ch=5 c=11 v=62
393884 Par ch=5 c=11 v=61
393974 Par ch=5 c=11 v=60
394034 Par ch=5 c=11 v=59
394080 On ch=5 n=41 v=88
394112 Off ch=5 n=44 v=64
394124 Par ch=5 c=11 v=58
394184 Par ch=5 c=11 v=57
394214 Par ch=5 c=11 v=56
394274 Par ch=5 c=11 v=55
394304 Off ch=5 n=41 v=64
394334 Par ch=5 c=11 v=54
394364 Par ch=5 c=11 v=53
394424 Par ch=5 c=11 v=52
394454 Par ch=5 c=11 v=51
394514 Par ch=5 c=11 v=50
394544 Par ch=5 c=11 v=49
394560 On ch=5 n=37 v=88
394574 Par ch=5 c=11 v=48
394634 Par ch=5 c=11 v=47
394664 Par ch=5 c=11 v=46
394694 Par ch=5 c=11 v=45
394724 Par ch=5 c=11 v=44
394754 Par ch=5 c=11 v=43
394784 Off ch=5 n=37 v=64
394814 Par ch=5 c=11 v=42
394844 Par ch=5 c=11 v=41
394874 Par ch=5 c=11 v=40
394880 Par ch=5 c=11 v=39
395520 On ch=5 n=39 v=88
395520 Par ch=5 c=11 v=41
396120 Par ch=5 c=11 v=42
396360 Par ch=5 c=11 v=43
396540 Par ch=5 c=11 v=44
396690 Par ch=5 c=11 v=45
396840 Par ch=5 c=11 v=46
396960 Par ch=5 c=11 v=47
397050 Par ch=5 c=11 v=48
397170 Par ch=5 c=11 v=49
397260 Par ch=5 c=11 v=50
397350 Par ch=5 c=11 v=51
397440 Par ch=5 c=11 v=52
397530 Par ch=5 c=11 v=53
397620 Par ch=5 c=11 v=54
397710 Par ch=5 c=11 v=55
397770 Par ch=5 c=11 v=56
397830 Par ch=5 c=11 v=57
397920 Par ch=5 c=11 v=58
397980 Par ch=5 c=11 v=59
398040 Par ch=5 c=11 v=60
398130 Par ch=5 c=11 v=61
398190 Par ch=5 c=11 v=62
398250 Par ch=5 c=11 v=63
398310 Par ch=5 c=11 v=64
398370 Par ch=5 c=11 v=65
398430 Par ch=5 c=11 v=66
398464 Par ch=5 c=11 v=67
398610 Par ch=5 c=11 v=68
398752 Par ch=5 c=11 v=69
399360 Par ch=5 c=11 v=69
399630 Par ch=5 c=11 v=68
399750 Par ch=5 c=11 v=67
399840 Par ch=5 c=11 v=66
399900 Par ch=5 c=11 v=65
399960 Par ch=5 c=11 v=64
400020 Par ch=5 c=11 v=63
400080 Par ch=5 c=11 v=62
400140 Par ch=5 c=11 v=61
400170 Par ch=5 c=11 v=60
400230 Par ch=5 c=11 v=59
400260 Par ch=5 c=11 v=58
400290 Par ch=5 c=11 v=57
400350 Par ch=5 c=11 v=56
400380 Par ch=5 c=11 v=55
400410 Par ch=5 c=11 v=54
400440 Par ch=5 c=11 v=53
400470 Par ch=5 c=11 v=52
400500 Par ch=5 c=11 v=51
400530 Par ch=5 c=11 v=50
400560 Par ch=5 c=11 v=49
400590 Par ch=5 c=11 v=48
400620 Par ch=5 c=11 v=47
400650 Par ch=5 c=11 v=46
400680 Par ch=5 c=11 v=45
400710 Par ch=5 c=11 v=44
400740 Par ch=5 c=11 v=43
400770 Par ch=5 c=11 v=42
400800 Par ch=5 c=11 v=41
400830 Par ch=5 c=11 v=39
400860 Par ch=5 c=11 v=38
400890 Par ch=5 c=11 v=37
400920 Par ch=5 c=11 v=36
400950 Par ch=5 c=11 v=34
400980 Par ch=5 c=11 v=33
401010 Par ch=5 c=11 v=32
401040 Par ch=5 c=11 v=30
401070 Par ch=5 c=11 v=29
401100 Par ch=5 c=11 v=27
401130 Par ch=5 c=11 v=26
401160 Par ch=5 c=11 v=24
401190 Par ch=5 c=11 v=23
401220 Par ch=5 c=11 v=21
401250 Par ch=5 c=11 v=20
401280 Par ch=5 c=11 v=18
401310 Par ch=5 c=11 v=17
401340 Par ch=5 c=11 v=15
401370 Par ch=5 c=11 v=13
401400 Par ch=5 c=11 v=12
401430 Par ch=5 c=11 v=10
401460 Par ch=5 c=11 v=8
401490 Par ch=5 c=11 v=6
401520 Par ch=5 c=11 v=5
401550 Par ch=5 c=11 v=3
401580 Par ch=5 c=11 v=1
401610 Par ch=5 c=11 v=0
401640 Par ch=5 c=11 v=0
401670 Par ch=5 c=11 v=0
401696 Par ch=5 c=11 v=0
401760 Off ch=5 n=39 v=64
403200 On ch=5 n=36 v=74
403200 Par ch=5 c=11 v=92
403440 Off ch=5 n=36 v=64
404160 On ch=5 n=36 v=65
404400 Off ch=5 n=36 v=64
405120 On ch=5 n=36 v=69
405360 Off ch=5 n=36 v=64
406080 On ch=5 n=36 v=67
406320 Off ch=5 n=36 v=64
407040 On ch=5 n=38 v=74
407280 Off ch=5 n=38 v=64
408000 On ch=5 n=38 v=65
408240 Off ch=5 n=38 v=64
408960 On ch=5 n=38 v=69
409200 Off ch=5 n=38 v=64
409920 On ch=5 n=38 v=67
410160 Off ch=5 n=38 v=64
410880 On ch=5 n=40 v=74
411120 Off ch=5 n=40 v=64
411840 On ch=5 n=40 v=65
412080 Off ch=5 n=40 v=64
412800 On ch=5 n=40 v=69
413040 Off ch=5 n=40 v=64
413760 On ch=5 n=40 v=67
414000 Off ch=5 n=40 v=64
414720 On ch=5 n=40 v=74
414960 Off ch=5 n=40 v=64
415680 On ch=5 n=40 v=65
415920 Off ch=5 n=40 v=64
416640 On ch=5 n=40 v=69
416880 Off ch=5 n=40 v=64
417600 On ch=5 n=40 v=67
417840 Off ch=5 n=40 v=64
418560 On ch=5 n=36 v=74
418800 Off ch=5 n=36 v=64
419520 On ch=5 n=36 v=65
419760 Off ch=5 n=36 v=64
420480 On ch=5 n=36 v=69
420720 Off ch=5 n=36 v=64
421440 On ch=5 n=36 v=67
421680 Off ch=5 n=36 v=64
422400 On ch=5 n=38 v=74
422640 Off ch=5 n=38 v=64
423360 On ch=5 n=38 v=65
423600 Off ch=5 n=38 v=64
424320 On ch=5 n=38 v=69
424560 Off ch=5 n=38 v=64
425280 On ch=5 n=38 v=67
425520 Off ch=5 n=38 v=64
426240 On ch=5 n=40 v=74
426480 Off ch=5 n=40 v=64
427200 On ch=5 n=40 v=65
427440 Off ch=5 n=40 v=64
428160 On ch=5 n=40 v=69
428400 Off ch=5 n=40 v=64
429120 On ch=5 n=40 v=67
429360 Off ch=5 n=40 v=64
430080 On ch=5 n=40 v=74
430320 Off ch=5 n=40 v=64
431040 On ch=5 n=40 v=65
431280 Off ch=5 n=40 v=64
432000 On ch=5 n=40 v=69
432240 Off ch=5 n=40 v=64
432960 On ch=5 n=40 v=67
433200 Off ch=5 n=40 v=64
433920 On ch=5 n=36 v=74
434160 Off ch=5 n=36 v=64
434880 On ch=5 n=36 v=65
435120 Off ch=5 n=36 v=64
435840 On ch=5 n=36 v=69
436080 Off ch=5 n=36 v=64
436800 On ch=5 n=36 v=67
437040 Off ch=5 n=36 v=64
437760 On ch=5 n=38 v=74
438000 Off ch=5 n=38 v=64
438720 On ch=5 n=38 v=65
438960 Off ch=5 n=38 v=64
439680 On ch=5 n=38 v=69
439920 Off ch=5 n=38 v=64
440640 On ch=5 n=38 v=67
440880 Off ch=5 n=38 v=64
441600 On ch=5 n=40 v=74
441840 Off ch=5 n=40 v=64
442560 On ch=5 n=40 v=65
442800 Off ch=5 n=40 v=64
443520 On ch=5 n=40 v=69
443760 Off ch=5 n=40 v=64
444480 On ch=5 n=40 v=67
444720 Off ch=5 n=40 v=64
445440 On ch=5 n=40 v=74
445680 Off ch=5 n=40 v=64
446400 On ch=5 n=40 v=65
446640 Off ch=5 n=40 v=64
447360 On ch=5 n=40 v=69
447600 Off ch=5 n=40 v=64
448320 On ch=5 n=40 v=67
448560 Off ch=5 n=40 v=64
449280 On ch=5 n=36 v=74
449520 Off ch=5 n=36 v=64
450240 On ch=5 n=36 v=65
450480 Off ch=5 n=36 v=64
451200 On ch=5 n=36 v=69
451440 Off ch=5 n=36 v=64
452160 On ch=5 n=36 v=67
452400 Off ch=5 n=36 v=64
453120 On ch=5 n=38 v=74
453360 Off ch=5 n=38 v=64
454080 On ch=5 n=38 v=65
454320 Off ch=5 n=38 v=64
455040 On ch=5 n=38 v=69
455280 Off ch=5 n=38 v=64
456000 On ch=5 n=38 v=67
456240 Off ch=5 n=38 v=64
456960 On ch=5 n=40 v=74
457200 Off ch=5 n=40 v=64
457920 On ch=5 n=40 v=65
458160 Off ch=5 n=40 v=64
458880 On ch=5 n=40 v=69
459120 Off ch=5 n=40 v=64
459840 On ch=5 n=40 v=67
460080 Off ch=5 n=40 v=64
460800 On ch=5 n=40 v=74
461040 Off ch=5 n=40 v=64
461760 On ch=5 n=40 v=65
462000 Off ch=5 n=40 v=64
462720 On ch=5 n=40 v=69
462960 Off ch=5 n=40 v=64
462960 Meta TrkEnd
TrkEnd
MTrk
0 SeqSpec 43 00 01 ff
0 Meta TrkName "Horn"
1920 PrCh ch=6 p=5
1930 Par ch=6 c=7 v=100
1940 Par ch=6 c=10 v=64
1950 Par ch=6 c=11 v=127
1960 Par ch=6 c=20 v=127
1970 Par ch=6 c=91 v=0
1980 Par ch=6 c=93 v=0
1990 Par ch=6 c=94 v=0
2000 Par ch=6 c=101 v=0
2010 Par ch=6 c=100 v=0
2020 Par ch=6 c=6 v=2
2030 Par ch=6 c=101 v=127
2040 Par ch=6 c=100 v=127
65280 Par ch=6 c=11 v=62
65280 On ch=6 n=58 v=100
65280 On ch=6 n=54 v=100
65280 On ch=6 n=63 v=100
65312 Par ch=6 c=11 v=78
65342 Par ch=6 c=11 v=74
65372 Par ch=6 c=11 v=71
65402 Par ch=6 c=11 v=68
65432 Par ch=6 c=11 v=65
65462 Par ch=6 c=11 v=63
65492 Par ch=6 c=11 v=61
65522 Par ch=6 c=11 v=59
65552 Par ch=6 c=11 v=58
65582 Par ch=6 c=11 v=57
65612 Par ch=6 c=11 v=56
65728 Par ch=6 c=11 v=48
67438 Par ch=6 c=11 v=49
68128 Par ch=6 c=11 v=50
68668 Par ch=6 c=11 v=51
69118 Par ch=6 c=11 v=52
69508 Par ch=6 c=11 v=53
69868 Par ch=6 c=11 v=54
70198 Par ch=6 c=11 v=55
70528 Par ch=6 c=11 v=56
70798 Par ch=6 c=11 v=57
71068 Par ch=6 c=11 v=58
71338 Par ch=6 c=11 v=59
71578 Par ch=6 c=11 v=60
71818 Par ch=6 c=11 v=61
72058 Par ch=6 c=11 v=62
72268 Par ch=6 c=11 v=63
72480 Par ch=6 c=11 v=64
72960 Off ch=6 n=63 v=100
72960 Off ch=6 n=54 v=100
72960 Off ch=6 n=58 v=100
72960 Par ch=6 c=11 v=60
72960 On ch=6 n=54 v=100
72960 On ch=6 n=51 v=100
72960 On ch=6 n=59 v=100
73110 Par ch=6 c=11 v=59
73170 Par ch=6 c=11 v=58
73200 Par ch=6 c=11 v=57
73260 Par ch=6 c=11 v=56
73290 Par ch=6 c=11 v=55
73320 Par ch=6 c=11 v=53
73350 Par ch=6 c=11 v=52
73380 Par ch=6 c=11 v=51
73408 Par ch=6 c=11 v=49
73740 Par ch=6 c=11 v=50
74070 Par ch=6 c=11 v=51
74310 Par ch=6 c=11 v=52
74520 Par ch=6 c=11 v=53
74700 Par ch=6 c=11 v=54
74850 Par ch=6 c=11 v=55
75000 Par ch=6 c=11 v=56
75150 Par ch=6 c=11 v=57
75300 Par ch=6 c=11 v=58
75420 Par ch=6 c=11 v=59
75540 Par ch=6 c=11 v=60
75660 Par ch=6 c=11 v=61
75750 Par ch=6 c=11 v=62
75870 Par ch=6 c=11 v=63
75960 Par ch=6 c=11 v=64
76050 Par ch=6 c=11 v=65
76140 Par ch=6 c=11 v=66
76260 Par ch=6 c=11 v=67
76320 Par ch=6 c=11 v=68
76800 Off ch=6 n=59 v=100
76800 Off ch=6 n=51 v=100
76800 Off ch=6 n=54 v=100
76800 Par ch=6 c=11 v=65
76800 On ch=6 n=53 v=100
76800 On ch=6 n=56 v=100
76800 On ch=6 n=61 v=100
76980 Par ch=6 c=11 v=64
77070 Par ch=6 c=11 v=63
77100 Par ch=6 c=11 v=62
77160 Par ch=6 c=11 v=61
77184 Par ch=6 c=11 v=60
77520 Par ch=6 c=11 v=60
77820 Par ch=6 c=11 v=61
78030 Par ch=6 c=11 v=62
78240 Par ch=6 c=11 v=63
78390 Par ch=6 c=11 v=64
78540 Par ch=6 c=11 v=65
78690 Par ch=6 c=11 v=66
78720 Off ch=6 n=61 v=100
78720 Off ch=6 n=56 v=100
78720 Off ch=6 n=53 v=100
78720 Par ch=6 c=11 v=54
78720 On ch=6 n=53 v=100
78720 On ch=6 n=56 v=100
78720 On ch=6 n=62 v=100
79080 Par ch=6 c=11 v=55
79230 Par ch=6 c=11 v=56
79350 Par ch=6 c=11 v=57
79440 Par ch=6 c=11 v=58
79530 Par ch=6 c=11 v=59
79590 Par ch=6 c=11 v=60
79680 Par ch=6 c=11 v=61
79740 Par ch=6 c=11 v=62
79800 Par ch=6 c=11 v=63
79860 Par ch=6 c=11 v=64
79890 Par ch=6 c=11 v=65
79950 Par ch=6 c=11 v=66
80010 Par ch=6 c=11 v=67
80040 Par ch=6 c=11 v=68
80100 Par ch=6 c=11 v=69
80130 Par ch=6 c=11 v=70
80190 Par ch=6 c=11 v=71
80220 Par ch=6 c=11 v=72
80280 Par ch=6 c=11 v=73
80310 Par ch=6 c=11 v=74
80340 Par ch=6 c=11 v=75
80400 Par ch=6 c=11 v=76
80430 Par ch=6 c=11 v=77
80460 Par ch=6 c=11 v=78
80480 Par ch=6 c=11 v=79
80640 Off ch=6 n=62 v=100
80640 Off ch=6 n=56 v=100
80640 Off ch=6 n=53 v=100
80640 On ch=6 n=63 v=100
80640 On ch=6 n=54 v=100
80640 Par ch=6 c=11 v=62
80640 On ch=6 n=58 v=100
80672 Par ch=6 c=11 v=78
80702 Par ch=6 c=11 v=74
80732 Par ch=6 c=11 v=71
80762 Par ch=6 c=11 v=68
80792 Par ch=6 c=11 v=65
80822 Par ch=6 c=11 v=63
80852 Par ch=6 c=11 v=61
80882 Par ch=6 c=11 v=59
80912 Par ch=6 c=11 v=58
80942 Par ch=6 c=11 v=57
80972 Par ch=6 c=11 v=56
81088 Par ch=6 c=11 v=48
82798 Par ch=6 c=11 v=49
83488 Par ch=6 c=11 v=50
84028 Par ch=6 c=11 v=51
84478 Par ch=6 c=11 v=52
84868 Par ch=6 c=11 v=53
85228 Par ch=6 c=11 v=54
85558 Par ch=6 c=11 v=55
85888 Par ch=6 c=11 v=56
86158 Par ch=6 c=11 v=57
86428 Par ch=6 c=11 v=58
86698 Par ch=6 c=11 v=59
86938 Par ch=6 c=11 v=60
87178 Par ch=6 c=11 v=61
87418 Par ch=6 c=11 v=62
87628 Par ch=6 c=11 v=63
87840 Par ch=6 c=11 v=64
88320 Off ch=6 n=58 v=100
88320 Off ch=6 n=54 v=100
88320 Off ch=6 n=63 v=100
88320 On ch=6 n=59 v=100
88320 On ch=6 n=51 v=100
88320 On ch=6 n=54 v=100
88320 Par ch=6 c=11 v=60
88470 Par ch=6 c=11 v=59
88530 Par ch=6 c=11 v=58
88560 Par ch=6 c=11 v=57
88620 Par ch=6 c=11 v=56
88650 Par ch=6 c=11 v=55
88680 Par ch=6 c=11 v=53
88710 Par ch=6 c=11 v=52
88740 Par ch=6 c=11 v=51
88768 Par ch=6 c=11 v=49
89100 Par ch=6 c=11 v=50
89430 Par ch=6 c=11 v=51
89670 Par ch=6 c=11 v=52
89880 Par ch=6 c=11 v=53
90060 Par ch=6 c=11 v=54
90210 Par ch=6 c=11 v=55
90360 Par ch=6 c=11 v=56
90510 Par ch=6 c=11 v=57
90660 Par ch=6 c=11 v=58
90780 Par ch=6 c=11 v=59
90900 Par ch=6 c=11 v=60
91020 Par ch=6 c=11 v=61
91110 Par ch=6 c=11 v=62
91230 Par ch=6 c=11 v=63
91320 Par ch=6 c=11 v=64
91410 Par ch=6 c=11 v=65
91500 Par ch=6 c=11 v=66
91620 Par ch=6 c=11 v=67
91680 Par ch=6 c=11 v=68
92160 Off ch=6 n=54 v=100
92160 Off ch=6 n=51 v=100
92160 Off ch=6 n=59 v=100
92160 On ch=6 n=61 v=100
92160 On ch=6 n=56 v=100
92160 On ch=6 n=53 v=100
92160 Par ch=6 c=11 v=65
92340 Par ch=6 c=11 v=64
92430 Par ch=6 c=11 v=63
92460 Par ch=6 c=11 v=62
92520 Par ch=6 c=11 v=61
92544 Par ch=6 c=11 v=60
92880 Par ch=6 c=11 v=60
93180 Par ch=6 c=11 v=61
93390 Par ch=6 c=11 v=62
93600 Par ch=6 c=11 v=63
93750 Par ch=6 c=11 v=64
93900 Par ch=6 c=11 v=65
94050 Par ch=6 c=11 v=66
94080 Off ch=6 n=53 v=100
94080 Off ch=6 n=56 v=100
94080 Off ch=6 n=61 v=100
94080 On ch=6 n=62 v=100
94080 On ch=6 n=56 v=100
94080 On ch=6 n=53 v=100
94080 Par ch=6 c=11 v=54
94440 Par ch=6 c=11 v=55
94590 Par ch=6 c=11 v=56
94710 Par ch=6 c=11 v=57
94800 Par ch=6 c=11 v=58
94890 Par ch=6 c=11 v=59
94950 Par ch=6 c=11 v=60
95040 Par ch=6 c=11 v=61
95100 Par ch=6 c=11 v=62
95160 Par ch=6 c=11 v=63
95220 Par ch=6 c=11 v=64
95250 Par ch=6 c=11 v=65
95310 Par ch=6 c=11 v=66
95370 Par ch=6 c=11 v=67
95400 Par ch=6 c=11 v=68
95460 Par ch=6 c=11 v=69
95490 Par ch=6 c=11 v=70
95550 Par ch=6 c=11 v=71
95580 Par ch=6 c=11 v=72
95640 Par ch=6 c=11 v=73
95670 Par ch=6 c=11 v=74
95700 Par ch=6 c=11 v=75
95760 Par ch=6 c=11 v=76
95790 Par ch=6 c=11 v=77
95820 Par ch=6 c=11 v=78
95840 Par ch=6 c=11 v=79
96000 Off ch=6 n=53 v=100
96000 Off ch=6 n=56 v=100
96000 Off ch=6 n=62 v=100
96000 Par ch=6 c=11 v=62
96000 On ch=6 n=58 v=100
96000 On ch=6 n=54 v=100
96000 On ch=6 n=63 v=100
96000 On ch=6 n=51 v=100
96032 Par ch=6 c=11 v=78
96062 Par ch=6 c=11 v=74
96092 Par ch=6 c=11 v=71
96122 Par ch=6 c=11 v=68
96152 Par ch=6 c=11 v=65
96182 Par ch=6 c=11 v=63
96212 Par ch=6 c=11 v=61
96242 Par ch=6 c=11 v=59
96272 Par ch=6 c=11 v=58
96302 Par ch=6 c=11 v=57
96332 Par ch=6 c=11 v=56
96448 Par ch=6 c=11 v=48
98158 Par ch=6 c=11 v=49
98848 Par ch=6 c=11 v=50
99388 Par ch=6 c=11 v=51
99838 Par ch=6 c=11 v=52
100228 Par ch=6 c=11 v=53
100588 Par ch=6 c=11 v=54
100918 Par ch=6 c=11 v=55
101248 Par ch=6 c=11 v=56
101518 Par ch=6 c=11 v=57
101788 Par ch=6 c=11 v=58
102058 Par ch=6 c=11 v=59
102298 Par ch=6 c=11 v=60
102538 Par ch=6 c=11 v=61
102778 Par ch=6 c=11 v=62
102988 Par ch=6 c=11 v=63
103200 Par ch=6 c=11 v=64
103680 Off ch=6 n=51 v=100
103680 Off ch=6 n=63 v=100
103680 Off ch=6 n=54 v=100
103680 Off ch=6 n=58 v=100
103680 Par ch=6 c=11 v=60
103680 On ch=6 n=54 v=100
103680 On ch=6 n=51 v=100
103680 On ch=6 n=59 v=100
103680 On ch=6 n=47 v=100
103830 Par ch=6 c=11 v=59
103890 Par ch=6 c=11 v=58
103920 Par ch=6 c=11 v=57
103980 Par ch=6 c=11 v=56
104010 Par ch=6 c=11 v=55
104040 Par ch=6 c=11 v=53
104070 Par ch=6 c=11 v=52
104100 Par ch=6 c=11 v=51
104128 Par ch=6 c=11 v=49
104460 Par ch=6 c=11 v=50
104790 Par ch=6 c=11 v=51
105030 Par ch=6 c=11 v=52
105240 Par ch=6 c=11 v=53
105420 Par ch=6 c=11 v=54
105570 Par ch=6 c=11 v=55
105720 Par ch=6 c=11 v=56
105870 Par ch=6 c=11 v=57
106020 Par ch=6 c=11 v=58
106140 Par ch=6 c=11 v=59
106260 Par ch=6 c=11 v=60
106380 Par ch=6 c=11 v=61
106470 Par ch=6 c=11 v=62
106590 Par ch=6 c=11 v=63
106680 Par ch=6 c=11 v=64
106770 Par ch=6 c=11 v=65
106860 Par ch=6 c=11 v=66
106980 Par ch=6 c=11 v=67
107040 Par ch=6 c=11 v=68
107520 Off ch=6 n=47 v=100
107520 Off ch=6 n=59 v=100
107520 Off ch=6 n=51 v=100
107520 Off ch=6 n=54 v=100
107520 Par ch=6 c=11 v=65
107520 On ch=6 n=53 v=100
107520 On ch=6 n=56 v=100
107520 On ch=6 n=61 v=100
107520 On ch=6 n=49 v=100
107700 Par ch=6 c=11 v=64
107790 Par ch=6 c=11 v=63
107820 Par ch=6 c=11 v=62
107880 Par ch=6 c=11 v=61
107904 Par ch=6 c=11 v=60
108240 Par ch=6 c=11 v=60
108540 Par ch=6 c=11 v=61
108750 Par ch=6 c=11 v=62
108960 Par ch=6 c=11 v=63
109110 Par ch=6 c=11 v=64
109260 Par ch=6 c=11 v=65
109410 Par ch=6 c=11 v=66
109440 Off ch=6 n=49 v=100
109440 Off ch=6 n=61 v=100
109440 Off ch=6 n=56 v=100
109440 Off ch=6 n=53 v=100
109440 Par ch=6 c=11 v=54
109440 On ch=6 n=53 v=100
109440 On ch=6 n=56 v=100
109440 On ch=6 n=62 v=100
109440 On ch=6 n=50 v=100
109800 Par ch=6 c=11 v=55
109950 Par ch=6 c=11 v=56
110070 Par ch=6 c=11 v=57
110160 Par ch=6 c=11 v=58
110250 Par ch=6 c=11 v=59
110310 Par ch=6 c=11 v=60
110400 Par ch=6 c=11 v=61
110460 Par ch=6 c=11 v=62
110520 Par ch=6 c=11 v=63
110580 Par ch=6 c=11 v=64
110610 Par ch=6 c=11 v=65
110670 Par ch=6 c=11 v=66
110730 Par ch=6 c=11 v=67
110760 Par ch=6 c=11 v=68
110820 Par ch=6 c=11 v=69
110850 Par ch=6 c=11 v=70
110910 Par ch=6 c=11 v=71
110940 Par ch=6 c=11 v=72
111000 Par ch=6 c=11 v=73
111030 Par ch=6 c=11 v=74
111060 Par ch=6 c=11 v=75
111120 Par ch=6 c=11 v=76
111150 Par ch=6 c=11 v=77
111180 Par ch=6 c=11 v=78
111200 Par ch=6 c=11 v=79
111360 Off ch=6 n=50 v=100
111360 Off ch=6 n=62 v=100
111360 Off ch=6 n=56 v=100
111360 Off ch=6 n=53 v=100
111360 Par ch=6 c=11 v=62
111360 On ch=6 n=58 v=100
111360 On ch=6 n=54 v=100
111360 On ch=6 n=63 v=100
111360 On ch=6 n=51 v=100
111392 Par ch=6 c=11 v=78
111422 Par ch=6 c=11 v=74
111452 Par ch=6 c=11 v=71
111482 Par ch=6 c=11 v=68
111512 Par ch=6 c=11 v=65
111542 Par ch=6 c=11 v=63
111572 Par ch=6 c=11 v=61
111602 Par ch=6 c=11 v=59
111632 Par ch=6 c=11 v=58
111662 Par ch=6 c=11 v=57
111692 Par ch=6 c=11 v=56
111808 Par ch=6 c=11 v=48
113518 Par ch=6 c=11 v=49
114208 Par ch=6 c=11 v=50
114748 Par ch=6 c=11 v=51
115198 Par ch=6 c=11 v=52
115588 Par ch=6 c=11 v=53
115948 Par ch=6 c=11 v=54
116278 Par ch=6 c=11 v=55
116608 Par ch=6 c=11 v=56
116878 Par ch=6 c=11 v=57
117148 Par ch=6 c=11 v=58
117418 Par ch=6 c=11 v=59
117658 Par ch=6 c=11 v=60
117898 Par ch=6 c=11 v=61
118138 Par ch=6 c=11 v=62
118348 Par ch=6 c=11 v=63
118560 Par ch=6 c=11 v=64
119040 Off ch=6 n=51 v=100
119040 Off ch=6 n=63 v=100
119040 Off ch=6 n=54 v=100
119040 Off ch=6 n=58 v=100
119040 Par ch=6 c=11 v=60
119040 On ch=6 n=54 v=100
119040 On ch=6 n=51 v=100
119040 On ch=6 n=59 v=100
119040 On ch=6 n=47 v=100
119190 Par ch=6 c=11 v=59
119250 Par ch=6 c=11 v=58
119280 Par ch=6 c=11 v=57
119340 Par ch=6 c=11 v=56
119370 Par ch=6 c=11 v=55
119400 Par ch=6 c=11 v=53
119430 Par ch=6 c=11 v=52
119460 Par ch=6 c=11 v=51
119488 Par ch=6 c=11 v=49
119820 Par ch=6 c=11 v=50
120150 Par ch=6 c=11 v=51
120390 Par ch=6 c=11 v=52
120600 Par ch=6 c=11 v=53
120780 Par ch=6 c=11 v=54
120930 Par ch=6 c=11 v=55
121080 Par ch=6 c=11 v=56
121230 Par ch=6 c=11 v=57
121380 Par ch=6 c=11 v=58
121500 Par ch=6 c=11 v=59
121620 Par ch=6 c=11 v=60
121740 Par ch=6 c=11 v=61
121830 Par ch=6 c=11 v=62
121950 Par ch=6 c=11 v=63
122040 Par ch=6 c=11 v=64
122130 Par ch=6 c=11 v=65
122220 Par ch=6 c=11 v=66
122340 Par ch=6 c=11 v=67
122400 Par ch=6 c=11 v=68
122880 Off ch=6 n=47 v=100
122880 Off ch=6 n=59 v=100
122880 Off ch=6 n=51 v=100
122880 Off ch=6 n=54 v=100
122880 Par ch=6 c=11 v=65
122880 On ch=6 n=53 v=100
122880 On ch=6 n=56 v=100
122880 On ch=6 n=61 v=100
122880 On ch=6 n=49 v=100
123060 Par ch=6 c=11 v=64
123150 Par ch=6 c=11 v=63
123180 Par ch=6 c=11 v=62
123240 Par ch=6 c=11 v=61
123264 Par ch=6 c=11 v=60
123600 Par ch=6 c=11 v=60
123900 Par ch=6 c=11 v=61
124110 Par ch=6 c=11 v=62
124320 Par ch=6 c=11 v=63
124470 Par ch=6 c=11 v=64
124620 Par ch=6 c=11 v=65
124770 Par ch=6 c=11 v=66
124800 Off ch=6 n=49 v=100
124800 Off ch=6 n=61 v=100
124800 Off ch=6 n=56 v=100
124800 Off ch=6 n=53 v=100
124800 Par ch=6 c=11 v=54
124800 On ch=6 n=53 v=100
124800 On ch=6 n=56 v=100
124800 On ch=6 n=62 v=100
124800 On ch=6 n=50 v=100
125160 Par ch=6 c=11 v=55
125310 Par ch=6 c=11 v=56
125430 Par ch=6 c=11 v=57
125520 Par ch=6 c=11 v=58
125610 Par ch=6 c=11 v=59
125670 Par ch=6 c=11 v=60
125760 Par ch=6 c=11 v=61
125820 Par ch=6 c=11 v=62
125880 Par ch=6 c=11 v=63
125940 Par ch=6 c=11 v=64
125970 Par ch=6 c=11 v=65
126030 Par ch=6 c=11 v=66
126090 Par ch=6 c=11 v=67
126120 Par ch=6 c=11 v=68
126180 Par ch=6 c=11 v=69
126210 Par ch=6 c=11 v=70
126270 Par ch=6 c=11 v=71
126300 Par ch=6 c=11 v=72
126360 Par ch=6 c=11 v=73
126390 Par ch=6 c=11 v=74
126420 Par ch=6 c=11 v=75
126480 Par ch=6 c=11 v=76
126510 Par ch=6 c=11 v=77
126540 Par ch=6 c=11 v=78
126560 Par ch=6 c=11 v=79
126720 Off ch=6 n=50 v=100
126720 Off ch=6 n=62 v=100
126720 Off ch=6 n=56 v=100
126720 Off ch=6 n=53 v=100
126720 On ch=6 n=54 v=100
126720 On ch=6 n=51 v=100
126720 On ch=6 n=47 v=100
126720 On ch=6 n=59 v=100
126720 Par ch=6 c=11 v=62
127500 Par ch=6 c=11 v=63
127830 Par ch=6 c=11 v=64
128070 Par ch=6 c=11 v=65
128280 Par ch=6 c=11 v=66
128460 Par ch=6 c=11 v=67
128610 Par ch=6 c=11 v=68
128760 Par ch=6 c=11 v=69
128910 Par ch=6 c=11 v=70
129060 Par ch=6 c=11 v=71
129180 Par ch=6 c=11 v=72
129300 Par ch=6 c=11 v=73
129390 Par ch=6 c=11 v=74
129510 Par ch=6 c=11 v=75
129630 Par ch=6 c=11 v=76
129720 Par ch=6 c=11 v=77
129810 Par ch=6 c=11 v=78
129900 Par ch=6 c=11 v=79
129990 Par ch=6 c=11 v=80
130080 Par ch=6 c=11 v=81
130170 Par ch=6 c=11 v=82
130260 Par ch=6 c=11 v=83
130350 Par ch=6 c=11 v=84
130416 Par ch=6 c=11 v=85
130560 Off ch=6 n=59 v=100
130560 Off ch=6 n=47 v=100
130560 Off ch=6 n=51 v=100
130560 Off ch=6 n=54 v=100
130560 On ch=6 n=56 v=100
130560 On ch=6 n=53 v=100
130560 On ch=6 n=49 v=100
130560 On ch=6 n=61 v=100
130560 Par ch=6 c=11 v=74
131370 Par ch=6 c=11 v=75
131670 Par ch=6 c=11 v=76
131940 Par ch=6 c=11 v=77
132150 Par ch=6 c=11 v=78
132330 Par ch=6 c=11 v=79
132480 Par ch=6 c=11 v=80
132630 Par ch=6 c=11 v=81
132780 Par ch=6 c=11 v=82
132930 Par ch=6 c=11 v=83
133050 Par ch=6 c=11 v=84
133170 Par ch=6 c=11 v=85
133290 Par ch=6 c=11 v=86
133380 Par ch=6 c=11 v=87
133500 Par ch=6 c=11 v=88
133590 Par ch=6 c=11 v=89
133710 Par ch=6 c=11 v=90
133800 Par ch=6 c=11 v=91
133890 Par ch=6 c=11 v=92
133968 Par ch=6 c=11 v=93
134400 Off ch=6 n=61 v=100
134400 Off ch=6 n=49 v=100
134400 Off ch=6 n=53 v=100
134400 Off ch=6 n=56 v=100
134400 On ch=6 n=63 v=100
134400 On ch=6 n=58 v=100
134400 On ch=6 n=54 v=100
134400 On ch=6 n=51 v=100
134400 Par ch=6 c=11 v=78
135210 Par ch=6 c=11 v=79
135540 Par ch=6 c=11 v=80
135810 Par ch=6 c=11 v=81
136020 Par ch=6 c=11 v=82
136200 Par ch=6 c=11 v=83
136380 Par ch=6 c=11 v=84
136530 Par ch=6 c=11 v=85
136680 Par ch=6 c=11 v=86
137088 Par ch=6 c=11 v=86
138078 Par ch=6 c=11 v=85
138468 Par ch=6 c=11 v=84
138768 Par ch=6 c=11 v=83
139038 Par ch=6 c=11 v=82
139248 Par ch=6 c=11 v=81
139458 Par ch=6 c=11 v=80
139668 Par ch=6 c=11 v=79
139818 Par ch=6 c=11 v=78
139998 Par ch=6 c=11 v=77
140148 Par ch=6 c=11 v=76
140298 Par ch=6 c=11 v=75
140448 Par ch=6 c=11 v=74
140568 Par ch=6 c=11 v=73
140718 Par ch=6 c=11 v=72
140838 Par ch=6 c=11 v=71
140958 Par ch=6 c=11 v=70
141078 Par ch=6 c=11 v=69
141198 Par ch=6 c=11 v=68
141318 Par ch=6 c=11 v=67
141408 Par ch=6 c=11 v=66
141528 Par ch=6 c=11 v=65
141618 Par ch=6 c=11 v=64
141738 Par ch=6 c=11 v=63
141828 Par ch=6 c=11 v=62
141918 Par ch=6 c=11 v=61
142008 Par ch=6 c=11 v=60
142080 Off ch=6 n=51 v=100
142080 Off ch=6 n=54 v=100
142080 Off ch=6 n=58 v=100
142080 Off ch=6 n=63 v=100
142080 On ch=6 n=59 v=100
142080 On ch=6 n=47 v=100
142080 On ch=6 n=51 v=100
142080 On ch=6 n=54 v=100
142080 Par ch=6 c=11 v=62
142860 Par ch=6 c=11 v=63
143190 Par ch=6 c=11 v=64
143430 Par ch=6 c=11 v=65
143640 Par ch=6 c=11 v=66
143820 Par ch=6 c=11 v=67
143970 Par ch=6 c=11 v=68
144120 Par ch=6 c=11 v=69
144270 Par ch=6 c=11 v=70
144420 Par ch=6 c=11 v=71
144540 Par ch=6 c=11 v=72
144660 Par ch=6 c=11 v=73
144750 Par ch=6 c=11 v=74
144870 Par ch=6 c=11 v=75
144990 Par ch=6 c=11 v=76
145080 Par ch=6 c=11 v=77
145170 Par ch=6 c=11 v=78
145260 Par ch=6 c=11 v=79
145350 Par ch=6 c=11 v=80
145440 Par ch=6 c=11 v=81
145530 Par ch=6 c=11 v=82
145620 Par ch=6 c=11 v=83
145710 Par ch=6 c=11 v=84
145776 Par ch=6 c=11 v=85
145920 Off ch=6 n=54 v=100
145920 Off ch=6 n=51 v=100
145920 Off ch=6 n=47 v=100
145920 Off ch=6 n=59 v=100
145920 On ch=6 n=61 v=100
145920 On ch=6 n=49 v=100
145920 On ch=6 n=53 v=100
145920 On ch=6 n=56 v=100
145920 Par ch=6 c=11 v=74
146730 Par ch=6 c=11 v=75
147030 Par ch=6 c=11 v=76
147300 Par ch=6 c=11 v=77
147510 Par ch=6 c=11 v=78
147690 Par ch=6 c=11 v=79
147840 Par ch=6 c=11 v=80
147990 Par ch=6 c=11 v=81
148140 Par ch=6 c=11 v=82
148290 Par ch=6 c=11 v=83
148410 Par ch=6 c=11 v=84
148530 Par ch=6 c=11 v=85
148650 Par ch=6 c=11 v=86
148740 Par ch=6 c=11 v=87
148860 Par ch=6 c=11 v=88
148950 Par ch=6 c=11 v=89
149070 Par ch=6 c=11 v=90
149160 Par ch=6 c=11 v=91
149250 Par ch=6 c=11 v=92
149328 Par ch=6 c=11 v=93
149760 Off ch=6 n=56 v=100
149760 Off ch=6 n=53 v=100
149760 Off ch=6 n=49 v=100
149760 Off ch=6 n=61 v=100
149760 On ch=6 n=51 v=100
149760 On ch=6 n=54 v=100
149760 On ch=6 n=58 v=100
149760 On ch=6 n=63 v=100
149760 Par ch=6 c=11 v=78
150570 Par ch=6 c=11 v=79
150900 Par ch=6 c=11 v=80
151170 Par ch=6 c=11 v=81
151380 Par ch=6 c=11 v=82
151560 Par ch=6 c=11 v=83
151740 Par ch=6 c=11 v=84
151890 Par ch=6 c=11 v=85
152040 Par ch=6 c=11 v=86
152448 Par ch=6 c=11 v=86
153438 Par ch=6 c=11 v=85
153828 Par ch=6 c=11 v=84
154128 Par ch=6 c=11 v=83
154398 Par ch=6 c=11 v=82
154608 Par ch=6 c=11 v=81
154818 Par ch=6 c=11 v=80
155028 Par ch=6 c=11 v=79
155178 Par ch=6 c=11 v=78
155358 Par ch=6 c=11 v=77
155508 Par ch=6 c=11 v=76
155658 Par ch=6 c=11 v=75
155808 Par ch=6 c=11 v=74
155928 Par ch=6 c=11 v=73
156078 Par ch=6 c=11 v=72
156198 Par ch=6 c=11 v=71
156318 Par ch=6 c=11 v=70
156438 Par ch=6 c=11 v=69
156558 Par ch=6 c=11 v=68
156678 Par ch=6 c=11 v=67
156768 Par ch=6 c=11 v=66
156888 Par ch=6 c=11 v=65
156978 Par ch=6 c=11 v=64
157098 Par ch=6 c=11 v=63
157188 Par ch=6 c=11 v=62
157278 Par ch=6 c=11 v=61
157368 Par ch=6 c=11 v=60
157440 Off ch=6 n=63 v=100
157440 Off ch=6 n=58 v=100
157440 Off ch=6 n=54 v=100
157440 Off ch=6 n=51 v=100
157440 On ch=6 n=59 v=100
157440 On ch=6 n=47 v=100
157440 On ch=6 n=51 v=100
157440 On ch=6 n=54 v=100
157440 Par ch=6 c=11 v=62
158220 Par ch=6 c=11 v=63
158550 Par ch=6 c=11 v=64
158790 Par ch=6 c=11 v=65
159000 Par ch=6 c=11 v=66
159180 Par ch=6 c=11 v=67
159330 Par ch=6 c=11 v=68
159480 Par ch=6 c=11 v=69
159630 Par ch=6 c=11 v=70
159780 Par ch=6 c=11 v=71
159900 Par ch=6 c=11 v=72
160020 Par ch=6 c=11 v=73
160110 Par ch=6 c=11 v=74
160230 Par ch=6 c=11 v=75
160350 Par ch=6 c=11 v=76
160440 Par ch=6 c=11 v=77
160530 Par ch=6 c=11 v=78
160620 Par ch=6 c=11 v=79
160710 Par ch=6 c=11 v=80
160800 Par ch=6 c=11 v=81
160890 Par ch=6 c=11 v=82
160980 Par ch=6 c=11 v=83
161070 Par ch=6 c=11 v=84
161136 Par ch=6 c=11 v=85
161280 Off ch=6 n=54 v=100
161280 Off ch=6 n=51 v=100
161280 Off ch=6 n=47 v=100
161280 Off ch=6 n=59 v=100
161280 On ch=6 n=61 v=100
161280 On ch=6 n=49 v=100
161280 On ch=6 n=53 v=100
161280 On ch=6 n=56 v=100
161280 Par ch=6 c=11 v=74
162090 Par ch=6 c=11 v=75
162390 Par ch=6 c=11 v=76
162660 Par ch=6 c=11 v=77
162870 Par ch=6 c=11 v=78
163050 Par ch=6 c=11 v=79
163200 Par ch=6 c=11 v=80
163350 Par ch=6 c=11 v=81
163500 Par ch=6 c=11 v=82
163650 Par ch=6 c=11 v=83
163770 Par ch=6 c=11 v=84
163890 Par ch=6 c=11 v=85
164010 Par ch=6 c=11 v=86
164100 Par ch=6 c=11 v=87
164220 Par ch=6 c=11 v=88
164310 Par ch=6 c=11 v=89
164430 Par ch=6 c=11 v=90
164520 Par ch=6 c=11 v=91
164610 Par ch=6 c=11 v=92
164688 Par ch=6 c=11 v=93
165120 Off ch=6 n=56 v=100
165120 Off ch=6 n=53 v=100
165120 Off ch=6 n=49 v=100
165120 Off ch=6 n=61 v=100
165120 On ch=6 n=51 v=100
165120 On ch=6 n=54 v=100
165120 On ch=6 n=58 v=100
165120 On ch=6 n=63 v=100
165120 Par ch=6 c=11 v=78
165930 Par ch=6 c=11 v=79
166260 Par ch=6 c=11 v=80
166530 Par ch=6 c=11 v=81
166740 Par ch=6 c=11 v=82
166920 Par ch=6 c=11 v=83
167100 Par ch=6 c=11 v=84
167250 Par ch=6 c=11 v=85
167400 Par ch=6 c=11 v=86
167808 Par ch=6 c=11 v=86
168798 Par ch=6 c=11 v=85
169188 Par ch=6 c=11 v=84
169488 Par ch=6 c=11 v=83
169758 Par ch=6 c=11 v=82
169968 Par ch=6 c=11 v=81
170178 Par ch=6 c=11 v=80
170388 Par ch=6 c=11 v=79
170538 Par ch=6 c=11 v=78
170718 Par ch=6 c=11 v=77
170868 Par ch=6 c=11 v=76
171018 Par ch=6 c=11 v=75
171168 Par ch=6 c=11 v=74
171288 Par ch=6 c=11 v=73
171438 Par ch=6 c=11 v=72
171558 Par ch=6 c=11 v=71
171678 Par ch=6 c=11 v=70
171798 Par ch=6 c=11 v=69
171918 Par ch=6 c=11 v=68
172038 Par ch=6 c=11 v=67
172128 Par ch=6 c=11 v=66
172248 Par ch=6 c=11 v=65
172338 Par ch=6 c=11 v=64
172458 Par ch=6 c=11 v=63
172548 Par ch=6 c=11 v=62
172638 Par ch=6 c=11 v=61
172728 Par ch=6 c=11 v=60
172800 Off ch=6 n=63 v=100
172800 Off ch=6 n=58 v=100
172800 Off ch=6 n=54 v=100
172800 Off ch=6 n=51 v=100
172800 On ch=6 n=54 v=100
172800 On ch=6 n=51 v=100
172800 On ch=6 n=47 v=100
172800 On ch=6 n=59 v=100
172800 Par ch=6 c=11 v=62
173580 Par ch=6 c=11 v=63
173910 Par ch=6 c=11 v=64
174150 Par ch=6 c=11 v=65
174360 Par ch=6 c=11 v=66
174540 Par ch=6 c=11 v=67
174690 Par ch=6 c=11 v=68
174840 Par ch=6 c=11 v=69
174990 Par ch=6 c=11 v=70
175140 Par ch=6 c=11 v=71
175260 Par ch=6 c=11 v=72
175380 Par ch=6 c=11 v=73
175470 Par ch=6 c=11 v=74
175590 Par ch=6 c=11 v=75
175710 Par ch=6 c=11 v=76
175800 Par ch=6 c=11 v=77
175890 Par ch=6 c=11 v=78
175980 Par ch=6 c=11 v=79
176070 Par ch=6 c=11 v=80
176160 Par ch=6 c=11 v=81
176250 Par ch=6 c=11 v=82
176340 Par ch=6 c=11 v=83
176430 Par ch=6 c=11 v=84
176496 Par ch=6 c=11 v=85
176640 Off ch=6 n=59 v=100
176640 Off ch=6 n=47 v=100
176640 Off ch=6 n=51 v=100
176640 Off ch=6 n=54 v=100
176640 On ch=6 n=56 v=100
176640 On ch=6 n=53 v=100
176640 On ch=6 n=49 v=100
176640 On ch=6 n=61 v=100
176640 Par ch=6 c=11 v=74
177450 Par ch=6 c=11 v=75
177750 Par ch=6 c=11 v=76
178020 Par ch=6 c=11 v=77
178230 Par ch=6 c=11 v=78
178410 Par ch=6 c=11 v=79
178560 Par ch=6 c=11 v=80
178710 Par ch=6 c=11 v=81
178860 Par ch=6 c=11 v=82
179010 Par ch=6 c=11 v=83
179130 Par ch=6 c=11 v=84
179250 Par ch=6 c=11 v=85
179370 Par ch=6 c=11 v=86
179460 Par ch=6 c=11 v=87
179580 Par ch=6 c=11 v=88
179670 Par ch=6 c=11 v=89
179790 Par ch=6 c=11 v=90
179880 Par ch=6 c=11 v=91
179970 Par ch=6 c=11 v=92
180048 Par ch=6 c=11 v=93
180480 Off ch=6 n=61 v=100
180480 Off ch=6 n=49 v=100
180480 Off ch=6 n=53 v=100
180480 Off ch=6 n=56 v=100
180480 On ch=6 n=63 v=100
180480 On ch=6 n=58 v=100
180480 On ch=6 n=54 v=100
180480 On ch=6 n=51 v=100
180480 Par ch=6 c=11 v=78
181290 Par ch=6 c=11 v=79
181620 Par ch=6 c=11 v=80
181890 Par ch=6 c=11 v=81
182100 Par ch=6 c=11 v=82
182280 Par ch=6 c=11 v=83
182460 Par ch=6 c=11 v=84
182610 Par ch=6 c=11 v=85
182760 Par ch=6 c=11 v=86
183168 Par ch=6 c=11 v=86
184158 Par ch=6 c=11 v=85
184320 Par ch=6 c=11 v=85
184770 Par ch=6 c=11 v=84
184980 Par ch=6 c=11 v=83
185100 Par ch=6 c=11 v=82
185220 Par ch=6 c=11 v=81
185340 Par ch=6 c=11 v=80
185430 Par ch=6 c=11 v=79
185520 Par ch=6 c=11 v=78
185610 Par ch=6 c=11 v=77
185670 Par ch=6 c=11 v=76
185760 Par ch=6 c=11 v=75
185820 Par ch=6 c=11 v=74
185880 Par ch=6 c=11 v=73
185940 Par ch=6 c=11 v=72
186000 Par ch=6 c=11 v=71
186060 Par ch=6 c=11 v=70
186120 Par ch=6 c=11 v=69
186180 Par ch=6 c=11 v=68
186240 Par ch=6 c=11 v=67
186300 Par ch=6 c=11 v=66
186330 Par ch=6 c=11 v=65
186390 Par ch=6 c=11 v=64
186450 Par ch=6 c=11 v=63
186480 Par ch=6 c=11 v=62
186540 Par ch=6 c=11 v=61
186570 Par ch=6 c=11 v=60
186624 Off ch=6 n=51 v=100
186624 Off ch=6 n=54 v=100
186624 Off ch=6 n=58 v=100
186624 Off ch=6 n=63 v=100
186630 Par ch=6 c=11 v=59
186660 Par ch=6 c=11 v=58
186720 Par ch=6 c=11 v=57
186750 Par ch=6 c=11 v=56
186780 Par ch=6 c=11 v=55
186816 Par ch=6 c=11 v=54
249600 On ch=6 n=63 v=100
249600 On ch=6 n=54 v=100
249600 On ch=6 n=58 v=100
249600 Par ch=6 c=11 v=62
249632 Par ch=6 c=11 v=78
249662 Par ch=6 c=11 v=74
249692 Par ch=6 c=11 v=71
249722 Par ch=6 c=11 v=68
249752 Par ch=6 c=11 v=65
249782 Par ch=6 c=11 v=63
249812 Par ch=6 c=11 v=61
249842 Par ch=6 c=11 v=59
249872 Par ch=6 c=11 v=58
249902 Par ch=6 c=11 v=57
249932 Par ch=6 c=11 v=56
250048 Par ch=6 c=11 v=48
251758 Par ch=6 c=11 v=49
252448 Par ch=6 c=11 v=50
252988 Par ch=6 c=11 v=51
253438 Par ch=6 c=11 v=52
253828 Par ch=6 c=11 v=53
254188 Par ch=6 c=11 v=54
254518 Par ch=6 c=11 v=55
254848 Par ch=6 c=11 v=56
255118 Par ch=6 c=11 v=57
255388 Par ch=6 c=11 v=58
255658 Par ch=6 c=11 v=59
255898 Par ch=6 c=11 v=60
256138 Par ch=6 c=11 v=61
256378 Par ch=6 c=11 v=62
256588 Par ch=6 c=11 v=63
256800 Par ch=6 c=11 v=64
257280 Off ch=6 n=58 v=100
257280 Off ch=6 n=54 v=100
257280 Off ch=6 n=63 v=100
257280 On ch=6 n=59 v=100
257280 On ch=6 n=51 v=100
257280 On ch=6 n=54 v=100
257280 Par ch=6 c=11 v=60
257430 Par ch=6 c=11 v=59
257490 Par ch=6 c=11 v=58
257520 Par ch=6 c=11 v=57
257580 Par ch=6 c=11 v=56
257610 Par ch=6 c=11 v=55
257640 Par ch=6 c=11 v=53
257670 Par ch=6 c=11 v=52
257700 Par ch=6 c=11 v=51
257728 Par ch=6 c=11 v=49
258060 Par ch=6 c=11 v=50
258390 Par ch=6 c=11 v=51
258630 Par ch=6 c=11 v=52
258840 Par ch=6 c=11 v=53
259020 Par ch=6 c=11 v=54
259170 Par ch=6 c=11 v=55
259320 Par ch=6 c=11 v=56
259470 Par ch=6 c=11 v=57
259620 Par ch=6 c=11 v=58
259740 Par ch=6 c=11 v=59
259860 Par ch=6 c=11 v=60
259980 Par ch=6 c=11 v=61
260070 Par ch=6 c=11 v=62
260190 Par ch=6 c=11 v=63
260280 Par ch=6 c=11 v=64
260370 Par ch=6 c=11 v=65
260460 Par ch=6 c=11 v=66
260580 Par ch=6 c=11 v=67
260640 Par ch=6 c=11 v=68
261120 Off ch=6 n=54 v=100
261120 Off ch=6 n=51 v=100
261120 Off ch=6 n=59 v=100
261120 On ch=6 n=61 v=100
261120 On ch=6 n=56 v=100
261120 On ch=6 n=53 v=100
261120 Par ch=6 c=11 v=65
261300 Par ch=6 c=11 v=64
261390 Par ch=6 c=11 v=63
261420 Par ch=6 c=11 v=62
261480 Par ch=6 c=11 v=61
261504 Par ch=6 c=11 v=60
261840 Par ch=6 c=11 v=60
262140 Par ch=6 c=11 v=61
262350 Par ch=6 c=11 v=62
262560 Par ch=6 c=11 v=63
262710 Par ch=6 c=11 v=64
262860 Par ch=6 c=11 v=65
263010 Par ch=6 c=11 v=66
263040 Off ch=6 n=53 v=100
263040 Off ch=6 n=56 v=100
263040 Off ch=6 n=61 v=100
263040 On ch=6 n=62 v=100
263040 On ch=6 n=56 v=100
263040 On ch=6 n=53 v=100
263040 Par ch=6 c=11 v=54
263400 Par ch=6 c=11 v=55
263550 Par ch=6 c=11 v=56
263670 Par ch=6 c=11 v=57
263760 Par ch=6 c=11 v=58
263850 Par ch=6 c=11 v=59
263910 Par ch=6 c=11 v=60
264000 Par ch=6 c=11 v=61
264060 Par ch=6 c=11 v=62
264120 Par ch=6 c=11 v=63
264180 Par ch=6 c=11 v=64
264210 Par ch=6 c=11 v=65
264270 Par ch=6 c=11 v=66
264330 Par ch=6 c=11 v=67
264360 Par ch=6 c=11 v=68
264420 Par ch=6 c=11 v=69
264450 Par ch=6 c=11 v=70
264510 Par ch=6 c=11 v=71
264540 Par ch=6 c=11 v=72
264600 Par ch=6 c=11 v=73
264630 Par ch=6 c=11 v=74
264660 Par ch=6 c=11 v=75
264720 Par ch=6 c=11 v=76
264750 Par ch=6 c=11 v=77
264780 Par ch=6 c=11 v=78
264800 Par ch=6 c=11 v=79
264960 Off ch=6 n=53 v=100
264960 Off ch=6 n=56 v=100
264960 Off ch=6 n=62 v=100
264960 On ch=6 n=58 v=100
264960 On ch=6 n=54 v=100
264960 On ch=6 n=63 v=100
264960 Par ch=6 c=11 v=62
264992 Par ch=6 c=11 v=78
265022 Par ch=6 c=11 v=74
265052 Par ch=6 c=11 v=71
265082 Par ch=6 c=11 v=68
265112 Par ch=6 c=11 v=65
265142 Par ch=6 c=11 v=63
265172 Par ch=6 c=11 v=61
265202 Par ch=6 c=11 v=59
265232 Par ch=6 c=11 v=58
265262 Par ch=6 c=11 v=57
265292 Par ch=6 c=11 v=56
265408 Par ch=6 c=11 v=48
267118 Par ch=6 c=11 v=49
267808 Par ch=6 c=11 v=50
268348 Par ch=6 c=11 v=51
268798 Par ch=6 c=11 v=52
269188 Par ch=6 c=11 v=53
269548 Par ch=6 c=11 v=54
269878 Par ch=6 c=11 v=55
270208 Par ch=6 c=11 v=56
270478 Par ch=6 c=11 v=57
270748 Par ch=6 c=11 v=58
271018 Par ch=6 c=11 v=59
271258 Par ch=6 c=11 v=60
271498 Par ch=6 c=11 v=61
271738 Par ch=6 c=11 v=62
271948 Par ch=6 c=11 v=63
272160 Par ch=6 c=11 v=64
272640 Off ch=6 n=63 v=100
272640 Off ch=6 n=54 v=100
272640 Off ch=6 n=58 v=100
272640 On ch=6 n=54 v=100
272640 On ch=6 n=51 v=100
272640 On ch=6 n=59 v=100
272640 Par ch=6 c=11 v=60
272790 Par ch=6 c=11 v=59
272850 Par ch=6 c=11 v=58
272880 Par ch=6 c=11 v=57
272940 Par ch=6 c=11 v=56
272970 Par ch=6 c=11 v=55
273000 Par ch=6 c=11 v=53
273030 Par ch=6 c=11 v=52
273060 Par ch=6 c=11 v=51
273088 Par ch=6 c=11 v=49
273420 Par ch=6 c=11 v=50
273750 Par ch=6 c=11 v=51
273990 Par ch=6 c=11 v=52
274200 Par ch=6 c=11 v=53
274380 Par ch=6 c=11 v=54
274530 Par ch=6 c=11 v=55
274680 Par ch=6 c=11 v=56
274830 Par ch=6 c=11 v=57
274980 Par ch=6 c=11 v=58
275100 Par ch=6 c=11 v=59
275220 Par ch=6 c=11 v=60
275340 Par ch=6 c=11 v=61
275430 Par ch=6 c=11 v=62
275550 Par ch=6 c=11 v=63
275640 Par ch=6 c=11 v=64
275730 Par ch=6 c=11 v=65
275820 Par ch=6 c=11 v=66
275940 Par ch=6 c=11 v=67
276000 Par ch=6 c=11 v=68
276480 Off ch=6 n=59 v=100
276480 Off ch=6 n=51 v=100
276480 Off ch=6 n=54 v=100
276480 On ch=6 n=53 v=100
276480 On ch=6 n=56 v=100
276480 On ch=6 n=61 v=100
276480 Par ch=6 c=11 v=65
276660 Par ch=6 c=11 v=64
276750 Par ch=6 c=11 v=63
276780 Par ch=6 c=11 v=62
276840 Par ch=6 c=11 v=61
276864 Par ch=6 c=11 v=60
277200 Par ch=6 c=11 v=60
277500 Par ch=6 c=11 v=61
277710 Par ch=6 c=11 v=62
277920 Par ch=6 c=11 v=63
278070 Par ch=6 c=11 v=64
278220 Par ch=6 c=11 v=65
278370 Par ch=6 c=11 v=66
278400 Off ch=6 n=61 v=100
278400 Off ch=6 n=56 v=100
278400 Off ch=6 n=53 v=100
278400 On ch=6 n=53 v=100
278400 On ch=6 n=56 v=100
278400 On ch=6 n=62 v=100
278400 Par ch=6 c=11 v=54
278760 Par ch=6 c=11 v=55
278910 Par ch=6 c=11 v=56
279030 Par ch=6 c=11 v=57
279120 Par ch=6 c=11 v=58
279210 Par ch=6 c=11 v=59
279270 Par ch=6 c=11 v=60
279360 Par ch=6 c=11 v=61
279420 Par ch=6 c=11 v=62
279480 Par ch=6 c=11 v=63
279540 Par ch=6 c=11 v=64
279570 Par ch=6 c=11 v=65
279630 Par ch=6 c=11 v=66
279690 Par ch=6 c=11 v=67
279720 Par ch=6 c=11 v=68
279780 Par ch=6 c=11 v=69
279810 Par ch=6 c=11 v=70
279870 Par ch=6 c=11 v=71
279900 Par ch=6 c=11 v=72
279960 Par ch=6 c=11 v=73
279990 Par ch=6 c=11 v=74
280020 Par ch=6 c=11 v=75
280080 Par ch=6 c=11 v=76
280110 Par ch=6 c=11 v=77
280140 Par ch=6 c=11 v=78
280160 Par ch=6 c=11 v=79
280320 Off ch=6 n=62 v=100
280320 Off ch=6 n=56 v=100
280320 Off ch=6 n=53 v=100
280320 Par ch=6 c=11 v=62
280320 On ch=6 n=63 v=100
280320 On ch=6 n=54 v=100
280320 On ch=6 n=58 v=100
280320 On ch=6 n=51 v=100
280352 Par ch=6 c=11 v=78
280382 Par ch=6 c=11 v=74
280412 Par ch=6 c=11 v=71
280442 Par ch=6 c=11 v=68
280472 Par ch=6 c=11 v=65
280502 Par ch=6 c=11 v=63
280532 Par ch=6 c=11 v=61
280562 Par ch=6 c=11 v=59
280592 Par ch=6 c=11 v=58
280622 Par ch=6 c=11 v=57
280652 Par ch=6 c=11 v=56
280768 Par ch=6 c=11 v=48
282478 Par ch=6 c=11 v=49
283168 Par ch=6 c=11 v=50
283708 Par ch=6 c=11 v=51
284158 Par ch=6 c=11 v=52
284548 Par ch=6 c=11 v=53
284908 Par ch=6 c=11 v=54
285238 Par ch=6 c=11 v=55
285568 Par ch=6 c=11 v=56
285838 Par ch=6 c=11 v=57
286108 Par ch=6 c=11 v=58
286378 Par ch=6 c=11 v=59
286618 Par ch=6 c=11 v=60
286858 Par ch=6 c=11 v=61
287098 Par ch=6 c=11 v=62
287308 Par ch=6 c=11 v=63
287520 Par ch=6 c=11 v=64
288000 Off ch=6 n=51 v=100
288000 Off ch=6 n=58 v=100
288000 Off ch=6 n=54 v=100
288000 Off ch=6 n=63 v=100
288000 Par ch=6 c=11 v=60
288000 On ch=6 n=59 v=100
288000 On ch=6 n=51 v=100
288000 On ch=6 n=54 v=100
288000 On ch=6 n=47 v=100
288150 Par ch=6 c=11 v=59
288210 Par ch=6 c=11 v=58
288240 Par ch=6 c=11 v=57
288300 Par ch=6 c=11 v=56
288330 Par ch=6 c=11 v=55
288360 Par ch=6 c=11 v=53
288390 Par ch=6 c=11 v=52
288420 Par ch=6 c=11 v=51
288448 Par ch=6 c=11 v=49
288780 Par ch=6 c=11 v=50
289110 Par ch=6 c=11 v=51
289350 Par ch=6 c=11 v=52
289560 Par ch=6 c=11 v=53
289740 Par ch=6 c=11 v=54
289890 Par ch=6 c=11 v=55
290040 Par ch=6 c=11 v=56
290190 Par ch=6 c=11 v=57
290340 Par ch=6 c=11 v=58
290460 Par ch=6 c=11 v=59
290580 Par ch=6 c=11 v=60
290700 Par ch=6 c=11 v=61
290790 Par ch=6 c=11 v=62
290910 Par ch=6 c=11 v=63
291000 Par ch=6 c=11 v=64
291090 Par ch=6 c=11 v=65
291180 Par ch=6 c=11 v=66
291300 Par ch=6 c=11 v=67
291360 Par ch=6 c=11 v=68
291840 Off ch=6 n=47 v=100
291840 Off ch=6 n=54 v=100
291840 Off ch=6 n=51 v=100
291840 Off ch=6 n=59 v=100
291840 Par ch=6 c=11 v=65
291840 On ch=6 n=61 v=100
291840 On ch=6 n=56 v=100
291840 On ch=6 n=53 v=100
291840 On ch=6 n=49 v=100
292020 Par ch=6 c=11 v=64
292110 Par ch=6 c=11 v=63
292140 Par ch=6 c=11 v=62
292200 Par ch=6 c=11 v=61
292224 Par ch=6 c=11 v=60
292560 Par ch=6 c=11 v=60
292860 Par ch=6 c=11 v=61
293070 Par ch=6 c=11 v=62
293280 Par ch=6 c=11 v=63
293430 Par ch=6 c=11 v=64
293580 Par ch=6 c=11 v=65
293730 Par ch=6 c=11 v=66
293760 Off ch=6 n=49 v=100
293760 Off ch=6 n=53 v=100
293760 Off ch=6 n=56 v=100
293760 Off ch=6 n=61 v=100
293760 Par ch=6 c=11 v=54
293760 On ch=6 n=62 v=100
293760 On ch=6 n=56 v=100
293760 On ch=6 n=53 v=100
293760 On ch=6 n=50 v=100
294120 Par ch=6 c=11 v=55
294270 Par ch=6 c=11 v=56
294390 Par ch=6 c=11 v=57
294480 Par ch=6 c=11 v=58
294570 Par ch=6 c=11 v=59
294630 Par ch=6 c=11 v=60
294720 Par ch=6 c=11 v=61
294780 Par ch=6 c=11 v=62
294840 Par ch=6 c=11 v=63
294900 Par ch=6 c=11 v=64
294930 Par ch=6 c=11 v=65
294990 Par ch=6 c=11 v=66
295050 Par ch=6 c=11 v=67
295080 Par ch=6 c=11 v=68
295140 Par ch=6 c=11 v=69
295170 Par ch=6 c=11 v=70
295230 Par ch=6 c=11 v=71
295260 Par ch=6 c=11 v=72
295320 Par ch=6 c=11 v=73
295350 Par ch=6 c=11 v=74
295380 Par ch=6 c=11 v=75
295440 Par ch=6 c=11 v=76
295470 Par ch=6 c=11 v=77
295500 Par ch=6 c=11 v=78
295520 Par ch=6 c=11 v=79
295680 Off ch=6 n=50 v=100
295680 Off ch=6 n=53 v=100
295680 Off ch=6 n=56 v=100
295680 Off ch=6 n=62 v=100
295680 Par ch=6 c=11 v=62
295680 On ch=6 n=58 v=100
295680 On ch=6 n=54 v=100
295680 On ch=6 n=63 v=100
295680 On ch=6 n=51 v=100
295712 Par ch=6 c=11 v=78
295742 Par ch=6 c=11 v=74
295772 Par ch=6 c=11 v=71
295802 Par ch=6 c=11 v=68
295832 Par ch=6 c=11 v=65
295862 Par ch=6 c=11 v=63
295892 Par ch=6 c=11 v=61
295922 Par ch=6 c=11 v=59
295952 Par ch=6 c=11 v=58
295982 Par ch=6 c=11 v=57
296012 Par ch=6 c=11 v=56
296128 Par ch=6 c=11 v=48
297838 Par ch=6 c=11 v=49
298528 Par ch=6 c=11 v=50
299068 Par ch=6 c=11 v=51
299518 Par ch=6 c=11 v=52
299908 Par ch=6 c=11 v=53
300268 Par ch=6 c=11 v=54
300598 Par ch=6 c=11 v=55
300928 Par ch=6 c=11 v=56
301198 Par ch=6 c=11 v=57
301468 Par ch=6 c=11 v=58
301738 Par ch=6 c=11 v=59
301978 Par ch=6 c=11 v=60
302218 Par ch=6 c=11 v=61
302458 Par ch=6 c=11 v=62
302668 Par ch=6 c=11 v=63
302880 Par ch=6 c=11 v=64
303360 Off ch=6 n=51 v=100
303360 Off ch=6 n=63 v=100
303360 Off ch=6 n=54 v=100
303360 Off ch=6 n=58 v=100
303360 Par ch=6 c=11 v=60
303360 On ch=6 n=54 v=100
303360 On ch=6 n=51 v=100
303360 On ch=6 n=59 v=100
303360 On ch=6 n=47 v=100
303510 Par ch=6 c=11 v=59
303570 Par ch=6 c=11 v=58
303600 Par ch=6 c=11 v=57
303660 Par ch=6 c=11 v=56
303690 Par ch=6 c=11 v=55
303720 Par ch=6 c=11 v=53
303750 Par ch=6 c=11 v=52
303780 Par ch=6 c=11 v=51
303808 Par ch=6 c=11 v=49
304140 Par ch=6 c=11 v=50
304470 Par ch=6 c=11 v=51
304710 Par ch=6 c=11 v=52
304920 Par ch=6 c=11 v=53
305100 Par ch=6 c=11 v=54
305250 Par ch=6 c=11 v=55
305400 Par ch=6 c=11 v=56
305550 Par ch=6 c=11 v=57
305700 Par ch=6 c=11 v=58
305820 Par ch=6 c=11 v=59
305940 Par ch=6 c=11 v=60
306060 Par ch=6 c=11 v=61
306150 Par ch=6 c=11 v=62
306270 Par ch=6 c=11 v=63
306360 Par ch=6 c=11 v=64
306450 Par ch=6 c=11 v=65
306540 Par ch=6 c=11 v=66
306660 Par ch=6 c=11 v=67
306720 Par ch=6 c=11 v=68
307200 Off ch=6 n=47 v=100
307200 Off ch=6 n=59 v=100
307200 Off ch=6 n=51 v=100
307200 Off ch=6 n=54 v=100
307200 Par ch=6 c=11 v=65
307200 On ch=6 n=53 v=100
307200 On ch=6 n=56 v=100
307200 On ch=6 n=61 v=100
307200 On ch=6 n=49 v=100
307380 Par ch=6 c=11 v=64
307470 Par ch=6 c=11 v=63
307500 Par ch=6 c=11 v=62
307560 Par ch=6 c=11 v=61
307584 Par ch=6 c=11 v=60
307920 Par ch=6 c=11 v=60
308220 Par ch=6 c=11 v=61
308430 Par ch=6 c=11 v=62
308640 Par ch=6 c=11 v=63
308790 Par ch=6 c=11 v=64
308940 Par ch=6 c=11 v=65
309090 Par ch=6 c=11 v=66
309120 Off ch=6 n=49 v=100
309120 Off ch=6 n=61 v=100
309120 Off ch=6 n=56 v=100
309120 Off ch=6 n=53 v=100
309120 Par ch=6 c=11 v=54
309120 On ch=6 n=53 v=100
309120 On ch=6 n=56 v=100
309120 On ch=6 n=62 v=100
309120 On ch=6 n=50 v=100
309480 Par ch=6 c=11 v=55
309630 Par ch=6 c=11 v=56
309750 Par ch=6 c=11 v=57
309840 Par ch=6 c=11 v=58
309930 Par ch=6 c=11 v=59
309990 Par ch=6 c=11 v=60
310080 Par ch=6 c=11 v=61
310140 Par ch=6 c=11 v=62
310200 Par ch=6 c=11 v=63
310260 Par ch=6 c=11 v=64
310290 Par ch=6 c=11 v=65
310350 Par ch=6 c=11 v=66
310410 Par ch=6 c=11 v=67
310440 Par ch=6 c=11 v=68
310500 Par ch=6 c=11 v=69
310530 Par ch=6 c=11 v=70
310590 Par ch=6 c=11 v=71
310620 Par ch=6 c=11 v=72
310680 Par ch=6 c=11 v=73
310710 Par ch=6 c=11 v=74
310740 Par ch=6 c=11 v=75
310800 Par ch=6 c=11 v=76
310830 Par ch=6 c=11 v=77
310860 Par ch=6 c=11 v=78
310880 Par ch=6 c=11 v=79
311040 Off ch=6 n=50 v=100
311040 Off ch=6 n=62 v=100
311040 Off ch=6 n=56 v=100
311040 Off ch=6 n=53 v=100
311040 On ch=6 n=54 v=100
311040 On ch=6 n=51 v=100
311040 On ch=6 n=47 v=100
311040 On ch=6 n=59 v=100
311040 Par ch=6 c=11 v=51
311040 Par ch=6 c=7 v=100
311820 Par ch=6 c=11 v=52
312150 Par ch=6 c=11 v=53
312390 Par ch=6 c=11 v=54
312600 Par ch=6 c=11 v=55
312780 Par ch=6 c=11 v=56
312960 Par ch=6 c=11 v=57
313110 Par ch=6 c=11 v=58
313260 Par ch=6 c=11 v=59
313380 Par ch=6 c=11 v=60
313500 Par ch=6 c=11 v=61
313620 Par ch=6 c=11 v=62
313740 Par ch=6 c=11 v=63
313860 Par ch=6 c=11 v=64
313950 Par ch=6 c=11 v=65
314070 Par ch=6 c=11 v=66
314160 Par ch=6 c=11 v=67
314250 Par ch=6 c=11 v=68
314340 Par ch=6 c=11 v=69
314430 Par ch=6 c=11 v=70
314520 Par ch=6 c=11 v=71
314610 Par ch=6 c=11 v=72
314700 Par ch=6 c=11 v=73
314760 Par ch=6 c=11 v=74
314880 Off ch=6 n=59 v=100
314880 Off ch=6 n=47 v=100
314880 Off ch=6 n=51 v=100
314880 Off ch=6 n=54 v=100
314880 On ch=6 n=56 v=100
314880 On ch=6 n=53 v=100
314880 On ch=6 n=49 v=100
314880 On ch=6 n=61 v=100
314880 Par ch=6 c=11 v=52
315540 Par ch=6 c=11 v=53
315780 Par ch=6 c=11 v=54
315990 Par ch=6 c=11 v=55
316170 Par ch=6 c=11 v=56
316320 Par ch=6 c=11 v=57
316440 Par ch=6 c=11 v=58
316560 Par ch=6 c=11 v=59
316680 Par ch=6 c=11 v=60
316800 Par ch=6 c=11 v=61
316890 Par ch=6 c=11 v=62
316980 Par ch=6 c=11 v=63
317070 Par ch=6 c=11 v=64
317160 Par ch=6 c=11 v=65
317250 Par ch=6 c=11 v=66
317340 Par ch=6 c=11 v=67
317430 Par ch=6 c=11 v=68
317490 Par ch=6 c=11 v=69
317580 Par ch=6 c=11 v=70
317640 Par ch=6 c=11 v=71
317730 Par ch=6 c=11 v=72
317790 Par ch=6 c=11 v=73
317850 Par ch=6 c=11 v=74
317910 Par ch=6 c=11 v=75
318000 Par ch=6 c=11 v=76
318060 Par ch=6 c=11 v=77
318120 Par ch=6 c=11 v=78
318720 Off ch=6 n=61 v=100
318720 Off ch=6 n=49 v=100
318720 Off ch=6 n=53 v=100
318720 Off ch=6 n=56 v=100
318720 On ch=6 n=63 v=100
318720 On ch=6 n=58 v=100
318720 On ch=6 n=54 v=100
318720 On ch=6 n=51 v=100
318720 Par ch=6 c=11 v=66
318750 Par ch=6 c=11 v=67
318840 Par ch=6 c=11 v=68
318960 Par ch=6 c=11 v=69
319050 Par ch=6 c=11 v=70
319170 Par ch=6 c=11 v=71
319320 Par ch=6 c=11 v=72
319440 Par ch=6 c=11 v=73
319590 Par ch=6 c=11 v=74
319740 Par ch=6 c=11 v=75
319890 Par ch=6 c=11 v=76
320070 Par ch=6 c=11 v=77
320280 Par ch=6 c=11 v=78
320520 Par ch=6 c=11 v=79
320850 Par ch=6 c=11 v=80
322560 Par ch=6 c=11 v=79
323220 Par ch=6 c=11 v=78
323490 Par ch=6 c=11 v=77
323700 Par ch=6 c=11 v=76
323880 Par ch=6 c=11 v=75
324030 Par ch=6 c=11 v=74
324180 Par ch=6 c=11 v=73
324300 Par ch=6 c=11 v=72
324420 Par ch=6 c=11 v=71
324540 Par ch=6 c=11 v=70
324630 Par ch=6 c=11 v=69
324750 Par ch=6 c=11 v=68
324840 Par ch=6 c=11 v=67
324930 Par ch=6 c=11 v=66
325020 Par ch=6 c=11 v=65
325110 Par ch=6 c=11 v=64
325200 Par ch=6 c=11 v=63
325260 Par ch=6 c=11 v=62
325350 Par ch=6 c=11 v=61
325410 Par ch=6 c=11 v=60
325500 Par ch=6 c=11 v=59
325560 Par ch=6 c=11 v=58
325650 Par ch=6 c=11 v=57
325710 Par ch=6 c=11 v=56
325770 Par ch=6 c=11 v=55
325830 Par ch=6 c=11 v=54
325890 Par ch=6 c=11 v=53
325980 Par ch=6 c=11 v=52
326040 Par ch=6 c=11 v=51
326100 Par ch=6 c=11 v=50
326136 Par ch=6 c=11 v=49
326400 Off ch=6 n=51 v=100
326400 Off ch=6 n=54 v=100
326400 Off ch=6 n=58 v=100
326400 Off ch=6 n=63 v=100
326400 On ch=6 n=54 v=100
326400 On ch=6 n=51 v=100
326400 On ch=6 n=47 v=100
326400 On ch=6 n=59 v=100
326400 Par ch=6 c=11 v=51
327180 Par ch=6 c=11 v=52
327510 Par ch=6 c=11 v=53
327750 Par ch=6 c=11 v=54
327960 Par ch=6 c=11 v=55
328140 Par ch=6 c=11 v=56
328320 Par ch=6 c=11 v=57
328470 Par ch=6 c=11 v=58
328620 Par ch=6 c=11 v=59
328740 Par ch=6 c=11 v=60
328860 Par ch=6 c=11 v=61
328980 Par ch=6 c=11 v=62
329100 Par ch=6 c=11 v=63
329220 Par ch=6 c=11 v=64
329310 Par ch=6 c=11 v=65
329430 Par ch=6 c=11 v=66
329520 Par ch=6 c=11 v=67
329610 Par ch=6 c=11 v=68
329700 Par ch=6 c=11 v=69
329790 Par ch=6 c=11 v=70
329880 Par ch=6 c=11 v=71
329970 Par ch=6 c=11 v=72
330060 Par ch=6 c=11 v=73
330120 Par ch=6 c=11 v=74
330240 Off ch=6 n=59 v=100
330240 Off ch=6 n=47 v=100
330240 Off ch=6 n=51 v=100
330240 Off ch=6 n=54 v=100
330240 On ch=6 n=56 v=100
330240 On ch=6 n=53 v=100
330240 On ch=6 n=49 v=100
330240 On ch=6 n=61 v=100
330240 Par ch=6 c=11 v=52
330900 Par ch=6 c=11 v=53
331140 Par ch=6 c=11 v=54
331350 Par ch=6 c=11 v=55
331530 Par ch=6 c=11 v=56
331680 Par ch=6 c=11 v=57
331800 Par ch=6 c=11 v=58
331920 Par ch=6 c=11 v=59
332040 Par ch=6 c=11 v=60
332160 Par ch=6 c=11 v=61
332250 Par ch=6 c=11 v=62
332340 Par ch=6 c=11 v=63
332430 Par ch=6 c=11 v=64
332520 Par ch=6 c=11 v=65
332610 Par ch=6 c=11 v=66
332700 Par ch=6 c=11 v=67
332790 Par ch=6 c=11 v=68
332850 Par ch=6 c=11 v=69
332940 Par ch=6 c=11 v=70
333000 Par ch=6 c=11 v=71
333090 Par ch=6 c=11 v=72
333150 Par ch=6 c=11 v=73
334080 Off ch=6 n=61 v=100
334080 Off ch=6 n=49 v=100
334080 Off ch=6 n=53 v=100
334080 Off ch=6 n=56 v=100
334080 On ch=6 n=63 v=100
334080 On ch=6 n=58 v=100
334080 On ch=6 n=54 v=100
334080 On ch=6 n=51 v=100
334080 Par ch=6 c=11 v=66
334110 Par ch=6 c=11 v=67
334200 Par ch=6 c=11 v=68
334320 Par ch=6 c=11 v=69
334410 Par ch=6 c=11 v=70
334530 Par ch=6 c=11 v=71
334680 Par ch=6 c=11 v=72
334800 Par ch=6 c=11 v=73
334950 Par ch=6 c=11 v=74
335100 Par ch=6 c=11 v=75
335250 Par ch=6 c=11 v=76
335430 Par ch=6 c=11 v=77
335640 Par ch=6 c=11 v=78
335880 Par ch=6 c=11 v=79
336210 Par ch=6 c=11 v=80
337920 Par ch=6 c=11 v=79
338580 Par ch=6 c=11 v=78
338850 Par ch=6 c=11 v=77
339060 Par ch=6 c=11 v=76
339240 Par ch=6 c=11 v=75
339390 Par ch=6 c=11 v=74
339540 Par ch=6 c=11 v=73
339660 Par ch=6 c=11 v=72
339780 Par ch=6 c=11 v=71
339900 Par ch=6 c=11 v=70
339990 Par ch=6 c=11 v=69
340110 Par ch=6 c=11 v=68
340200 Par ch=6 c=11 v=67
340290 Par ch=6 c=11 v=66
340380 Par ch=6 c=11 v=65
340470 Par ch=6 c=11 v=64
340560 Par ch=6 c=11 v=63
340584 Off ch=6 n=51 v=100
340584 Off ch=6 n=54 v=100
340584 Off ch=6 n=58 v=100
340584 Off ch=6 n=63 v=100
340620 Par ch=6 c=11 v=62
340704 Par ch=6 c=11 v=127
340740 On ch=6 n=70 v=88
340740 On ch=6 n=58 v=88
340776 Par ch=6 c=7 v=127
340832 Par ch=6 c=11 v=127
341000 Off ch=6 n=58 v=64
341000 Off ch=6 n=70 v=64
341220 On ch=6 n=73 v=88
341220 On ch=6 n=61 v=88
341480 Off ch=6 n=61 v=64
341480 Off ch=6 n=73 v=64
341700 On ch=6 n=73 v=88
341700 On ch=6 n=61 v=88
342180 On ch=6 n=75 v=88
342180 On ch=6 n=63 v=88
342200 Off ch=6 n=61 v=64
342200 Off ch=6 n=73 v=64
342440 Off ch=6 n=63 v=64
342440 Off ch=6 n=75 v=64
342660 On ch=6 n=70 v=88
342660 On ch=6 n=58 v=88
342920 Off ch=6 n=58 v=64
342920 Off ch=6 n=70 v=64
343140 On ch=6 n=68 v=88
343140 On ch=6 n=56 v=88
343400 Off ch=6 n=56 v=64
343400 Off ch=6 n=68 v=64
343620 On ch=6 n=70 v=88
343620 On ch=6 n=58 v=88
344400 Off ch=6 n=58 v=64
344400 Off ch=6 n=70 v=64
344580 On ch=6 n=68 v=88
344580 On ch=6 n=56 v=88
345060 On ch=6 n=70 v=88
345060 On ch=6 n=58 v=88
345120 Off ch=6 n=56 v=64
345120 Off ch=6 n=68 v=64
345320 Off ch=6 n=58 v=64
345320 Off ch=6 n=70 v=64
345540 On ch=6 n=73 v=88
345540 On ch=6 n=61 v=88
346020 On ch=6 n=75 v=88
346020 On ch=6 n=63 v=88
346060 Off ch=6 n=61 v=64
346060 Off ch=6 n=73 v=64
346280 Off ch=6 n=63 v=64
346280 Off ch=6 n=75 v=64
346500 On ch=6 n=70 v=88
346500 On ch=6 n=58 v=88
346760 Off ch=6 n=58 v=64
346760 Off ch=6 n=70 v=64
346980 On ch=6 n=68 v=88
346980 On ch=6 n=56 v=88
347240 Off ch=6 n=56 v=64
347240 Off ch=6 n=68 v=64
347460 On ch=6 n=70 v=88
347460 On ch=6 n=58 v=88
348420 On ch=6 n=68 v=88
348420 On ch=6 n=56 v=88
348480 Off ch=6 n=58 v=64
348480 Off ch=6 n=70 v=64
348680 Off ch=6 n=56 v=64
348680 Off ch=6 n=68 v=64
348900 On ch=6 n=70 v=88
348900 On ch=6 n=58 v=88
349160 Off ch=6 n=58 v=64
349160 Off ch=6 n=70 v=64
349380 On ch=6 n=68 v=88
349380 On ch=6 n=56 v=88
349860 On ch=6 n=66 v=88
349860 On ch=6 n=54 v=88
349880 Off ch=6 n=56 v=64
349880 Off ch=6 n=68 v=64
350140 Off ch=6 n=54 v=64
350140 Off ch=6 n=66 v=64
350340 On ch=6 n=65 v=88
350340 On ch=6 n=53 v=88
350580 Off ch=6 n=53 v=64
350580 Off ch=6 n=65 v=64
350820 On ch=6 n=61 v=88
350820 On ch=6 n=49 v=88
351160 Off ch=6 n=49 v=64
351160 Off ch=6 n=61 v=64
351300 On ch=6 n=63 v=88
351300 On ch=6 n=51 v=88
352156 Off ch=6 n=51 v=64
352156 Off ch=6 n=63 v=64
352260 On ch=6 n=61 v=88
352260 On ch=6 n=49 v=88
352740 On ch=6 n=63 v=88
352740 On ch=6 n=51 v=88
352760 Off ch=6 n=49 v=64
352760 Off ch=6 n=61 v=64
353000 Off ch=6 n=51 v=64
353000 Off ch=6 n=63 v=64
353220 On ch=6 n=65 v=88
353220 On ch=6 n=53 v=88
353700 On ch=6 n=66 v=88
353700 On ch=6 n=54 v=88
353760 Off ch=6 n=53 v=64
353760 Off ch=6 n=65 v=64
353960 Off ch=6 n=54 v=64
353960 Off ch=6 n=66 v=64
354180 On ch=6 n=68 v=88
354180 On ch=6 n=56 v=88
354400 Off ch=6 n=56 v=64
354400 Off ch=6 n=68 v=64
354660 On ch=6 n=70 v=88
354660 On ch=6 n=58 v=88
354880 Off ch=6 n=58 v=64
354880 Off ch=6 n=70 v=64
355140 On ch=6 n=63 v=88
355140 On ch=6 n=51 v=88
355176 Par ch=6 c=11 v=78
355200 Par ch=6 c=7 v=115
355206 Par ch=6 c=11 v=79
355236 Par ch=6 c=11 v=80
355296 Par ch=6 c=11 v=81
355326 Par ch=6 c=11 v=82
355386 Par ch=6 c=11 v=83
355446 Par ch=6 c=11 v=84
355506 Par ch=6 c=11 v=85
355566 Par ch=6 c=11 v=86
355626 Par ch=6 c=11 v=87
355686 Par ch=6 c=11 v=88
355776 Par ch=6 c=11 v=89
355866 Par ch=6 c=11 v=90
355956 Par ch=6 c=11 v=91
356046 Par ch=6 c=11 v=92
356196 Par ch=6 c=11 v=93
357120 On ch=6 n=54 v=88
357120 On ch=6 n=59 v=88
357312 Par ch=6 c=11 v=92
358092 Par ch=6 c=11 v=91
358392 Par ch=6 c=11 v=90
358632 Par ch=6 c=11 v=89
358842 Par ch=6 c=11 v=88
359022 Par ch=6 c=11 v=87
359172 Par ch=6 c=11 v=86
359322 Par ch=6 c=11 v=85
359472 Par ch=6 c=11 v=84
359592 Par ch=6 c=11 v=83
359712 Par ch=6 c=11 v=82
359832 Par ch=6 c=11 v=81
359952 Par ch=6 c=11 v=80
360072 Par ch=6 c=11 v=79
360162 Par ch=6 c=11 v=78
360252 Par ch=6 c=11 v=77
360342 Par ch=6 c=11 v=76
360462 Par ch=6 c=11 v=75
360552 Par ch=6 c=11 v=74
360642 Par ch=6 c=11 v=73
360702 Par ch=6 c=11 v=72
360792 Par ch=6 c=11 v=71
360864 Par ch=6 c=11 v=70
360900 Off ch=6 n=63 v=64
360960 Off ch=6 n=59 v=64
360960 Off ch=6 n=54 v=64
360960 Par ch=6 c=11 v=70
360960 On ch=6 n=61 v=88
360960 On ch=6 n=56 v=88
360960 On ch=6 n=53 v=88
361920 Par ch=6 c=11 v=71
362310 Par ch=6 c=11 v=72
362610 Par ch=6 c=11 v=73
362880 Par ch=6 c=11 v=74
363090 Par ch=6 c=11 v=75
363300 Par ch=6 c=11 v=76
363480 Par ch=6 c=11 v=77
363660 Par ch=6 c=11 v=78
363810 Par ch=6 c=11 v=79
363960 Par ch=6 c=11 v=80
364110 Par ch=6 c=11 v=81
364260 Par ch=6 c=11 v=82
364380 Par ch=6 c=11 v=83
364500 Par ch=6 c=11 v=84
364650 Par ch=6 c=11 v=85
364770 Par ch=6 c=11 v=86
364800 Off ch=6 n=53 v=64
364800 Off ch=6 n=56 v=64
364800 Off ch=6 n=61 v=64
364800 On ch=6 n=54 v=88
364800 On ch=6 n=58 v=88
364800 On ch=6 n=63 v=88
364860 Par ch=6 c=11 v=87
364980 Par ch=6 c=11 v=88
365100 Par ch=6 c=11 v=89
365190 Par ch=6 c=11 v=90
365310 Par ch=6 c=11 v=91
365400 Par ch=6 c=11 v=92
365496 Par ch=6 c=11 v=93
367416 Par ch=6 c=11 v=92
368106 Par ch=6 c=11 v=91
368376 Par ch=6 c=11 v=90
368586 Par ch=6 c=11 v=89
368766 Par ch=6 c=11 v=88
368916 Par ch=6 c=11 v=87
369066 Par ch=6 c=11 v=86
369186 Par ch=6 c=11 v=85
369306 Par ch=6 c=11 v=84
369426 Par ch=6 c=11 v=83
369546 Par ch=6 c=11 v=82
369636 Par ch=6 c=11 v=81
369726 Par ch=6 c=11 v=80
369816 Par ch=6 c=11 v=79
369936 Par ch=6 c=11 v=78
369996 Par ch=6 c=11 v=77
370086 Par ch=6 c=11 v=76
370176 Par ch=6 c=11 v=75
370266 Par ch=6 c=11 v=74
370326 Par ch=6 c=11 v=73
370416 Par ch=6 c=11 v=72
370476 Par ch=6 c=11 v=71
370566 Par ch=6 c=11 v=70
370626 Par ch=6 c=11 v=69
370686 Par ch=6 c=11 v=68
370746 Par ch=6 c=11 v=67
370836 Par ch=6 c=11 v=66
370896 Par ch=6 c=11 v=65
370956 Par ch=6 c=11 v=64
370976 Off ch=6 n=63 v=64
370996 Off ch=6 n=51 v=64
371008 Off ch=6 n=58 v=64
371008 Off ch=6 n=54 v=64
371016 Par ch=6 c=11 v=63
371076 Par ch=6 c=11 v=62
371136 Par ch=6 c=11 v=61
371196 Par ch=6 c=11 v=60
371256 Par ch=6 c=11 v=59
371316 Par ch=6 c=11 v=58
371376 Par ch=6 c=11 v=57
371436 Par ch=6 c=11 v=56
371466 Par ch=6 c=11 v=55
371526 Par ch=6 c=11 v=54
371586 Par ch=6 c=11 v=53
371646 Par ch=6 c=11 v=52
371706 Par ch=6 c=11 v=51
371736 Par ch=6 c=11 v=50
371796 Par ch=6 c=11 v=49
371856 Par ch=6 c=11 v=48
371886 Par ch=6 c=11 v=47
371946 Par ch=6 c=11 v=46
372006 Par ch=6 c=11 v=45
372036 Par ch=6 c=11 v=44
372096 Par ch=6 c=11 v=43
372126 Par ch=6 c=11 v=42
372186 Par ch=6 c=11 v=41
372216 Par ch=6 c=11 v=40
372480 On ch=6 n=59 v=100
372480 On ch=6 n=47 v=100
372480 On ch=6 n=51 v=100
372480 On ch=6 n=54 v=100
372480 Par ch=6 c=11 v=56
372480 Par ch=6 c=7 v=87
372504 Par ch=6 c=11 v=53
373284 Par ch=6 c=11 v=54
373614 Par ch=6 c=11 v=55
373854 Par ch=6 c=11 v=56
374064 Par ch=6 c=11 v=57
374244 Par ch=6 c=11 v=58
374424 Par ch=6 c=11 v=59
374574 Par ch=6 c=11 v=60
374724 Par ch=6 c=11 v=61
374844 Par ch=6 c=11 v=62
374964 Par ch=6 c=11 v=63
375084 Par ch=6 c=11 v=64
375204 Par ch=6 c=11 v=65
375324 Par ch=6 c=11 v=66
375414 Par ch=6 c=11 v=67
376320 Off ch=6 n=54 v=100
376320 Off ch=6 n=51 v=100
376320 Off ch=6 n=47 v=100
376320 Off ch=6 n=59 v=100
376320 On ch=6 n=61 v=100
376320 On ch=6 n=49 v=100
376320 On ch=6 n=53 v=100
376320 On ch=6 n=56 v=100
376440 Par ch=6 c=11 v=45
376470 Par ch=6 c=11 v=46
376560 Par ch=6 c=11 v=47
376650 Par ch=6 c=11 v=48
376740 Par ch=6 c=11 v=49
376860 Par ch=6 c=11 v=50
376950 Par ch=6 c=11 v=51
377070 Par ch=6 c=11 v=52
377160 Par ch=6 c=11 v=53
377280 Par ch=6 c=11 v=54
377430 Par ch=6 c=11 v=55
377550 Par ch=6 c=11 v=56
377700 Par ch=6 c=11 v=57
377820 Par ch=6 c=11 v=58
378000 Par ch=6 c=11 v=59
378150 Par ch=6 c=11 v=60
378360 Par ch=6 c=11 v=61
378570 Par ch=6 c=11 v=62
378810 Par ch=6 c=11 v=63
379170 Par ch=6 c=11 v=64
380160 Off ch=6 n=56 v=100
380160 Off ch=6 n=53 v=100
380160 Off ch=6 n=49 v=100
380160 Off ch=6 n=61 v=100
380160 On ch=6 n=51 v=100
380160 On ch=6 n=54 v=100
380160 On ch=6 n=58 v=100
380160 On ch=6 n=63 v=100
380184 Par ch=6 c=11 v=53
380214 Par ch=6 c=11 v=54
380304 Par ch=6 c=11 v=55
380424 Par ch=6 c=11 v=56
380514 Par ch=6 c=11 v=57
380634 Par ch=6 c=11 v=58
380784 Par ch=6 c=11 v=59
380904 Par ch=6 c=11 v=60
381054 Par ch=6 c=11 v=61
381204 Par ch=6 c=11 v=62
381354 Par ch=6 c=11 v=63
381534 Par ch=6 c=11 v=64
381744 Par ch=6 c=11 v=65
381984 Par ch=6 c=11 v=66
382314 Par ch=6 c=11 v=67
384024 Par ch=6 c=11 v=66
384684 Par ch=6 c=11 v=65
384954 Par ch=6 c=11 v=64
385164 Par ch=6 c=11 v=63
385344 Par ch=6 c=11 v=62
385494 Par ch=6 c=11 v=61
385644 Par ch=6 c=11 v=60
385764 Par ch=6 c=11 v=59
385884 Par ch=6 c=11 v=58
386004 Par ch=6 c=11 v=57
386094 Par ch=6 c=11 v=56
386214 Par ch=6 c=11 v=55
386304 Par ch=6 c=11 v=54
386394 Par ch=6 c=11 v=53
386484 Par ch=6 c=11 v=52
386574 Par ch=6 c=11 v=51
386664 Par ch=6 c=11 v=50
386724 Par ch=6 c=11 v=49
386814 Par ch=6 c=11 v=48
386874 Par ch=6 c=11 v=47
386964 Par ch=6 c=11 v=46
387024 Par ch=6 c=11 v=45
387114 Par ch=6 c=11 v=44
387174 Par ch=6 c=11 v=43
387234 Par ch=6 c=11 v=42
387294 Par ch=6 c=11 v=41
387354 Par ch=6 c=11 v=40
387444 Par ch=6 c=11 v=39
387504 Par ch=6 c=11 v=38
387564 Par ch=6 c=11 v=37
387600 Par ch=6 c=11 v=36
387840 Off ch=6 n=63 v=100
387840 Off ch=6 n=58 v=100
387840 Off ch=6 n=54 v=100
387840 Off ch=6 n=51 v=100
387840 On ch=6 n=54 v=100
387840 On ch=6 n=51 v=100
387840 On ch=6 n=47 v=100
387840 On ch=6 n=59 v=100
387840 Par ch=6 c=11 v=41
387864 Par ch=6 c=11 v=38
388644 Par ch=6 c=11 v=39
388974 Par ch=6 c=11 v=40
389214 Par ch=6 c=11 v=41
389424 Par ch=6 c=11 v=42
389604 Par ch=6 c=11 v=43
389784 Par ch=6 c=11 v=44
389934 Par ch=6 c=11 v=45
390084 Par ch=6 c=11 v=46
390204 Par ch=6 c=11 v=47
390324 Par ch=6 c=11 v=48
390444 Par ch=6 c=11 v=49
390564 Par ch=6 c=11 v=50
390684 Par ch=6 c=11 v=51
390774 Par ch=6 c=11 v=52
390894 Par ch=6 c=11 v=53
390984 Par ch=6 c=11 v=54
391680 Off ch=6 n=59 v=100
391680 Off ch=6 n=47 v=100
391680 Off ch=6 n=51 v=100
391680 Off ch=6 n=54 v=100
391680 On ch=6 n=56 v=100
391680 On ch=6 n=53 v=100
391680 On ch=6 n=49 v=100
391680 On ch=6 n=61 v=100
391920 Par ch=6 c=11 v=54
391950 Par ch=6 c=11 v=52
391980 Par ch=6 c=11 v=50
392010 Par ch=6 c=11 v=48
392040 Par ch=6 c=11 v=46
392070 Par ch=6 c=11 v=44
392100 Par ch=6 c=11 v=42
392112 Par ch=6 c=11 v=38
392142 Par ch=6 c=11 v=39
392232 Par ch=6 c=11 v=40
392322 Par ch=6 c=11 v=41
392442 Par ch=6 c=11 v=42
392562 Par ch=6 c=11 v=43
392652 Par ch=6 c=11 v=44
392772 Par ch=6 c=11 v=45
392922 Par ch=6 c=11 v=46
393042 Par ch=6 c=11 v=47
393192 Par ch=6 c=11 v=48
393342 Par ch=6 c=11 v=49
393522 Par ch=6 c=11 v=50
393702 Par ch=6 c=11 v=51
393912 Par ch=6 c=11 v=52
394152 Par ch=6 c=11 v=53
394482 Par ch=6 c=11 v=54
395520 Off ch=6 n=61 v=100
395520 Off ch=6 n=49 v=100
395520 Off ch=6 n=53 v=100
395520 Off ch=6 n=56 v=100
395520 On ch=6 n=63 v=100
395520 On ch=6 n=58 v=100
395520 On ch=6 n=54 v=100
395520 On ch=6 n=51 v=100
395544 Par ch=6 c=11 v=53
395574 Par ch=6 c=11 v=54
395664 Par ch=6 c=11 v=55
395784 Par ch=6 c=11 v=56
395874 Par ch=6 c=11 v=57
395994 Par ch=6 c=11 v=58
396144 Par ch=6 c=11 v=59
396264 Par ch=6 c=11 v=60
396414 Par ch=6 c=11 v=61
396564 Par ch=6 c=11 v=62
396714 Par ch=6 c=11 v=63
396894 Par ch=6 c=11 v=64
397104 Par ch=6 c=11 v=65
397344 Par ch=6 c=11 v=66
397674 Par ch=6 c=11 v=67
399384 Par ch=6 c=11 v=66
400044 Par ch=6 c=11 v=65
400314 Par ch=6 c=11 v=64
400524 Par ch=6 c=11 v=63
400704 Par ch=6 c=11 v=62
400854 Par ch=6 c=11 v=61
401004 Par ch=6 c=11 v=60
401124 Par ch=6 c=11 v=59
401244 Par ch=6 c=11 v=58
401364 Par ch=6 c=11 v=57
401454 Par ch=6 c=11 v=56
401574 Par ch=6 c=11 v=55
401664 Par ch=6 c=11 v=54
401754 Par ch=6 c=11 v=53
401844 Par ch=6 c=11 v=52
401934 Par ch=6 c=11 v=51
402024 Par ch=6 c=11 v=50
402084 Par ch=6 c=11 v=49
402174 Par ch=6 c=11 v=48
402234 Par ch=6 c=11 v=47
402324 Par ch=6 c=11 v=46
402384 Par ch=6 c=11 v=45
402474 Par ch=6 c=11 v=44
402534 Par ch=6 c=11 v=43
402594 Par ch=6 c=11 v=42
402654 Par ch=6 c=11 v=41
402714 Par ch=6 c=11 v=40
402804 Par ch=6 c=11 v=39
402864 Par ch=6 c=11 v=38
402924 Par ch=6 c=11 v=37
402960 Par ch=6 c=11 v=36
403200 Off ch=6 n=51 v=100
403200 Off ch=6 n=54 v=100
403200 Off ch=6 n=58 v=100
403200 Off ch=6 n=63 v=100
403200 On ch=6 n=55 v=100
403200 On ch=6 n=52 v=100
403200 On ch=6 n=48 v=100
403200 On ch=6 n=60 v=100
403200 Par ch=6 c=11 v=59
403224 Par ch=6 c=11 v=56
404004 Par ch=6 c=11 v=57
404334 Par ch=6 c=11 v=58
404574 Par ch=6 c=11 v=59
404784 Par ch=6 c=11 v=60
404964 Par ch=6 c=11 v=61
405144 Par ch=6 c=11 v=62
405294 Par ch=6 c=11 v=63
405444 Par ch=6 c=11 v=64
405564 Par ch=6 c=11 v=65
405684 Par ch=6 c=11 v=66
405804 Par ch=6 c=11 v=67
405924 Par ch=6 c=11 v=68
406044 Par ch=6 c=11 v=69
406134 Par ch=6 c=11 v=70
406254 Par ch=6 c=11 v=71
406344 Par ch=6 c=11 v=72
407040 Off ch=6 n=60 v=100
407040 Off ch=6 n=48 v=100
407040 Off ch=6 n=52 v=100
407040 Off ch=6 n=55 v=100
407040 On ch=6 n=57 v=100
407040 On ch=6 n=54 v=100
407040 On ch=6 n=50 v=100
407040 On ch=6 n=62 v=100
407280 Par ch=6 c=11 v=72
407310 Par ch=6 c=11 v=70
407340 Par ch=6 c=11 v=68
407370 Par ch=6 c=11 v=66
407400 Par ch=6 c=11 v=64
407430 Par ch=6 c=11 v=62
407460 Par ch=6 c=11 v=60
407472 Par ch=6 c=11 v=56
407502 Par ch=6 c=11 v=57
407592 Par ch=6 c=11 v=58
407682 Par ch=6 c=11 v=59
407802 Par ch=6 c=11 v=60
407922 Par ch=6 c=11 v=61
408012 Par ch=6 c=11 v=62
408132 Par ch=6 c=11 v=63
408282 Par ch=6 c=11 v=64
408402 Par ch=6 c=11 v=65
408552 Par ch=6 c=11 v=66
408702 Par ch=6 c=11 v=67
408882 Par ch=6 c=11 v=68
409062 Par ch=6 c=11 v=69
409272 Par ch=6 c=11 v=70
409512 Par ch=6 c=11 v=71
409842 Par ch=6 c=11 v=72
410880 Off ch=6 n=62 v=100
410880 Off ch=6 n=50 v=100
410880 Off ch=6 n=54 v=100
410880 Off ch=6 n=57 v=100
410880 On ch=6 n=64 v=100
410880 On ch=6 n=59 v=100
410880 On ch=6 n=55 v=100
410880 On ch=6 n=52 v=100
410904 Par ch=6 c=11 v=71
410934 Par ch=6 c=11 v=72
411024 Par ch=6 c=11 v=73
411144 Par ch=6 c=11 v=74
411234 Par ch=6 c=11 v=75
411354 Par ch=6 c=11 v=76
411504 Par ch=6 c=11 v=77
411624 Par ch=6 c=11 v=78
411774 Par ch=6 c=11 v=79
411924 Par ch=6 c=11 v=80
412074 Par ch=6 c=11 v=81
412254 Par ch=6 c=11 v=82
412464 Par ch=6 c=11 v=83
412704 Par ch=6 c=11 v=84
413034 Par ch=6 c=11 v=85
414744 Par ch=6 c=11 v=84
415404 Par ch=6 c=11 v=83
415674 Par ch=6 c=11 v=82
415884 Par ch=6 c=11 v=81
416064 Par ch=6 c=11 v=80
416214 Par ch=6 c=11 v=79
416364 Par ch=6 c=11 v=78
416484 Par ch=6 c=11 v=77
416604 Par ch=6 c=11 v=76
416724 Par ch=6 c=11 v=75
416814 Par ch=6 c=11 v=74
416934 Par ch=6 c=11 v=73
417024 Par ch=6 c=11 v=72
417114 Par ch=6 c=11 v=71
417204 Par ch=6 c=11 v=70
417294 Par ch=6 c=11 v=69
417384 Par ch=6 c=11 v=68
417444 Par ch=6 c=11 v=67
417534 Par ch=6 c=11 v=66
417594 Par ch=6 c=11 v=65
417684 Par ch=6 c=11 v=64
417744 Par ch=6 c=11 v=63
417834 Par ch=6 c=11 v=62
417894 Par ch=6 c=11 v=61
417954 Par ch=6 c=11 v=60
418014 Par ch=6 c=11 v=59
418074 Par ch=6 c=11 v=58
418164 Par ch=6 c=11 v=57
418224 Par ch=6 c=11 v=56
418284 Par ch=6 c=11 v=55
418320 Par ch=6 c=11 v=54
418560 Off ch=6 n=52 v=100
418560 Off ch=6 n=55 v=100
418560 Off ch=6 n=59 v=100
418560 Off ch=6 n=64 v=100
418560 On ch=6 n=60 v=100
418560 On ch=6 n=48 v=100
418560 On ch=6 n=52 v=100
418560 On ch=6 n=55 v=100
418560 Par ch=6 c=11 v=68
418584 Par ch=6 c=11 v=65
419364 Par ch=6 c=11 v=66
419694 Par ch=6 c=11 v=67
419934 Par ch=6 c=11 v=68
420144 Par ch=6 c=11 v=69
420324 Par ch=6 c=11 v=70
420504 Par ch=6 c=11 v=71
420654 Par ch=6 c=11 v=72
420804 Par ch=6 c=11 v=73
420924 Par ch=6 c=11 v=74
421044 Par ch=6 c=11 v=75
421164 Par ch=6 c=11 v=76
421284 Par ch=6 c=11 v=77
421404 Par ch=6 c=11 v=78
421494 Par ch=6 c=11 v=79
421614 Par ch=6 c=11 v=80
421704 Par ch=6 c=11 v=81
422400 Off ch=6 n=55 v=100
422400 Off ch=6 n=52 v=100
422400 Off ch=6 n=48 v=100
422400 Off ch=6 n=60 v=100
422400 On ch=6 n=62 v=100
422400 On ch=6 n=50 v=100
422400 On ch=6 n=54 v=100
422400 On ch=6 n=57 v=100
422640 Par ch=6 c=11 v=81
422670 Par ch=6 c=11 v=79
422700 Par ch=6 c=11 v=77
422730 Par ch=6 c=11 v=75
422760 Par ch=6 c=11 v=73
422790 Par ch=6 c=11 v=71
422820 Par ch=6 c=11 v=69
422832 Par ch=6 c=11 v=65
422862 Par ch=6 c=11 v=66
422952 Par ch=6 c=11 v=67
423042 Par ch=6 c=11 v=68
423162 Par ch=6 c=11 v=69
423282 Par ch=6 c=11 v=70
423372 Par ch=6 c=11 v=71
423492 Par ch=6 c=11 v=72
423642 Par ch=6 c=11 v=73
423762 Par ch=6 c=11 v=74
423912 Par ch=6 c=11 v=75
424062 Par ch=6 c=11 v=76
424242 Par ch=6 c=11 v=77
424422 Par ch=6 c=11 v=78
424632 Par ch=6 c=11 v=79
424872 Par ch=6 c=11 v=80
425202 Par ch=6 c=11 v=81
426240 Off ch=6 n=57 v=100
426240 Off ch=6 n=54 v=100
426240 Off ch=6 n=50 v=100
426240 Off ch=6 n=62 v=100
426240 On ch=6 n=52 v=100
426240 On ch=6 n=55 v=100
426240 On ch=6 n=59 v=100
426240 On ch=6 n=64 v=100
426264 Par ch=6 c=11 v=80
426294 Par ch=6 c=11 v=81
426384 Par ch=6 c=11 v=82
426504 Par ch=6 c=11 v=83
426594 Par ch=6 c=11 v=84
426714 Par ch=6 c=11 v=85
426864 Par ch=6 c=11 v=86
426984 Par ch=6 c=11 v=87
427134 Par ch=6 c=11 v=88
427284 Par ch=6 c=11 v=89
427434 Par ch=6 c=11 v=90
427614 Par ch=6 c=11 v=91
427824 Par ch=6 c=11 v=92
428064 Par ch=6 c=11 v=93
428394 Par ch=6 c=11 v=94
430104 Par ch=6 c=11 v=93
430764 Par ch=6 c=11 v=92
431034 Par ch=6 c=11 v=91
431244 Par ch=6 c=11 v=90
431424 Par ch=6 c=11 v=89
431574 Par ch=6 c=11 v=88
431724 Par ch=6 c=11 v=87
431844 Par ch=6 c=11 v=86
431964 Par ch=6 c=11 v=85
432084 Par ch=6 c=11 v=84
432174 Par ch=6 c=11 v=83
432294 Par ch=6 c=11 v=82
432384 Par ch=6 c=11 v=81
432474 Par ch=6 c=11 v=80
432564 Par ch=6 c=11 v=79
432654 Par ch=6 c=11 v=78
432744 Par ch=6 c=11 v=77
432804 Par ch=6 c=11 v=76
432894 Par ch=6 c=11 v=75
432954 Par ch=6 c=11 v=74
433044 Par ch=6 c=11 v=73
433104 Par ch=6 c=11 v=72
433194 Par ch=6 c=11 v=71
433254 Par ch=6 c=11 v=70
433314 Par ch=6 c=11 v=69
433374 Par ch=6 c=11 v=68
433434 Par ch=6 c=11 v=67
433524 Par ch=6 c=11 v=66
433584 Par ch=6 c=11 v=65
433644 Par ch=6 c=11 v=64
433680 Par ch=6 c=11 v=63
433920 Off ch=6 n=64 v=100
433920 Off ch=6 n=59 v=100
433920 Off ch=6 n=55 v=100
433920 Off ch=6 n=52 v=100
433920 Par ch=6 c=11 v=74
433920 On ch=6 n=55 v=100
433920 On ch=6 n=52 v=100
433920 On ch=6 n=48 v=100
433920 On ch=6 n=60 v=100
433944 Par ch=6 c=11 v=71
434724 Par ch=6 c=11 v=72
435054 Par ch=6 c=11 v=73
435294 Par ch=6 c=11 v=74
435504 Par ch=6 c=11 v=75
435684 Par ch=6 c=11 v=76
435864 Par ch=6 c=11 v=77
436014 Par ch=6 c=11 v=78
436164 Par ch=6 c=11 v=79
436284 Par ch=6 c=11 v=80
436404 Par ch=6 c=11 v=81
436524 Par ch=6 c=11 v=82
436644 Par ch=6 c=11 v=83
436764 Par ch=6 c=11 v=84
436854 Par ch=6 c=11 v=85
436974 Par ch=6 c=11 v=86
437064 Par ch=6 c=11 v=87
437760 Off ch=6 n=60 v=100
437760 Off ch=6 n=48 v=100
437760 Off ch=6 n=52 v=100
437760 Off ch=6 n=55 v=100
437760 On ch=6 n=57 v=100
437760 On ch=6 n=54 v=100
437760 On ch=6 n=50 v=100
437760 On ch=6 n=62 v=100
438000 Par ch=6 c=11 v=87
438030 Par ch=6 c=11 v=85
438060 Par ch=6 c=11 v=83
438090 Par ch=6 c=11 v=81
438120 Par ch=6 c=11 v=79
438150 Par ch=6 c=11 v=77
438180 Par ch=6 c=11 v=75
438192 Par ch=6 c=11 v=71
438222 Par ch=6 c=11 v=72
438312 Par ch=6 c=11 v=73
438402 Par ch=6 c=11 v=74
438522 Par ch=6 c=11 v=75
438642 Par ch=6 c=11 v=76
438732 Par ch=6 c=11 v=77
438852 Par ch=6 c=11 v=78
439002 Par ch=6 c=11 v=79
439122 Par ch=6 c=11 v=80
439272 Par ch=6 c=11 v=81
439422 Par ch=6 c=11 v=82
439602 Par ch=6 c=11 v=83
439782 Par ch=6 c=11 v=84
439992 Par ch=6 c=11 v=85
440232 Par ch=6 c=11 v=86
440562 Par ch=6 c=11 v=87
441600 Off ch=6 n=62 v=100
441600 Off ch=6 n=50 v=100
441600 Off ch=6 n=54 v=100
441600 Off ch=6 n=57 v=100
441600 On ch=6 n=64 v=100
441600 On ch=6 n=59 v=100
441600 On ch=6 n=55 v=100
441600 On ch=6 n=52 v=100
441624 Par ch=6 c=11 v=86
441654 Par ch=6 c=11 v=87
441744 Par ch=6 c=11 v=88
441864 Par ch=6 c=11 v=89
441954 Par ch=6 c=11 v=90
442074 Par ch=6 c=11 v=91
442224 Par ch=6 c=11 v=92
442344 Par ch=6 c=11 v=93
442494 Par ch=6 c=11 v=94
442644 Par ch=6 c=11 v=95
442794 Par ch=6 c=11 v=96
442974 Par ch=6 c=11 v=97
443184 Par ch=6 c=11 v=98
443424 Par ch=6 c=11 v=99
443754 Par ch=6 c=11 v=100
445464 Par ch=6 c=11 v=99
446124 Par ch=6 c=11 v=98
446394 Par ch=6 c=11 v=97
446604 Par ch=6 c=11 v=96
446784 Par ch=6 c=11 v=95
446934 Par ch=6 c=11 v=94
447084 Par ch=6 c=11 v=93
447204 Par ch=6 c=11 v=92
447324 Par ch=6 c=11 v=91
447444 Par ch=6 c=11 v=90
447534 Par ch=6 c=11 v=89
447654 Par ch=6 c=11 v=88
447744 Par ch=6 c=11 v=87
447834 Par ch=6 c=11 v=86
447924 Par ch=6 c=11 v=85
448014 Par ch=6 c=11 v=84
448104 Par ch=6 c=11 v=83
448164 Par ch=6 c=11 v=82
448254 Par ch=6 c=11 v=81
448314 Par ch=6 c=11 v=80
448404 Par ch=6 c=11 v=79
448464 Par ch=6 c=11 v=78
448554 Par ch=6 c=11 v=77
448614 Par ch=6 c=11 v=76
448674 Par ch=6 c=11 v=75
448734 Par ch=6 c=11 v=74
448794 Par ch=6 c=11 v=73
448884 Par ch=6 c=11 v=72
448944 Par ch=6 c=11 v=71
449004 Par ch=6 c=11 v=70
449040 Par ch=6 c=11 v=69
449280 Off ch=6 n=52 v=100
449280 Off ch=6 n=55 v=100
449280 Off ch=6 n=59 v=100
449280 Off ch=6 n=64 v=100
449280 On ch=6 n=55 v=100
449280 On ch=6 n=52 v=100
449280 On ch=6 n=48 v=100
449280 On ch=6 n=60 v=100
449280 Par ch=6 c=11 v=81
449304 Par ch=6 c=11 v=78
450084 Par ch=6 c=11 v=79
450414 Par ch=6 c=11 v=80
450654 Par ch=6 c=11 v=81
450864 Par ch=6 c=11 v=82
451044 Par ch=6 c=11 v=83
451224 Par ch=6 c=11 v=84
451374 Par ch=6 c=11 v=85
451524 Par ch=6 c=11 v=86
451644 Par ch=6 c=11 v=87
451764 Par ch=6 c=11 v=88
451884 Par ch=6 c=11 v=89
452004 Par ch=6 c=11 v=90
452124 Par ch=6 c=11 v=91
452214 Par ch=6 c=11 v=92
452334 Par ch=6 c=11 v=93
452424 Par ch=6 c=11 v=94
453120 Off ch=6 n=60 v=100
453120 Off ch=6 n=48 v=100
453120 Off ch=6 n=52 v=100
453120 Off ch=6 n=55 v=100
453120 On ch=6 n=57 v=100
453120 On ch=6 n=54 v=100
453120 On ch=6 n=50 v=100
453120 On ch=6 n=62 v=100
453360 Par ch=6 c=11 v=94
453390 Par ch=6 c=11 v=92
453420 Par ch=6 c=11 v=90
453450 Par ch=6 c=11 v=88
453480 Par ch=6 c=11 v=86
453510 Par ch=6 c=11 v=84
453540 Par ch=6 c=11 v=82
453552 Par ch=6 c=11 v=78
453582 Par ch=6 c=11 v=79
453672 Par ch=6 c=11 v=80
453762 Par ch=6 c=11 v=81
453882 Par ch=6 c=11 v=82
454002 Par ch=6 c=11 v=83
454092 Par ch=6 c=11 v=84
454212 Par ch=6 c=11 v=85
454362 Par ch=6 c=11 v=86
454482 Par ch=6 c=11 v=87
454632 Par ch=6 c=11 v=88
454782 Par ch=6 c=11 v=89
454962 Par ch=6 c=11 v=90
455142 Par ch=6 c=11 v=91
455352 Par ch=6 c=11 v=92
455592 Par ch=6 c=11 v=93
455922 Par ch=6 c=11 v=94
456960 Off ch=6 n=62 v=100
456960 Off ch=6 n=50 v=100
456960 Off ch=6 n=54 v=100
456960 Off ch=6 n=57 v=100
456960 On ch=6 n=64 v=100
456960 On ch=6 n=59 v=100
456960 On ch=6 n=55 v=100
456960 On ch=6 n=52 v=100
456984 Par ch=6 c=11 v=93
457014 Par ch=6 c=11 v=94
457104 Par ch=6 c=11 v=95
457224 Par ch=6 c=11 v=96
457314 Par ch=6 c=11 v=97
457434 Par ch=6 c=11 v=98
457584 Par ch=6 c=11 v=99
457704 Par ch=6 c=11 v=100
457854 Par ch=6 c=11 v=101
458004 Par ch=6 c=11 v=102
458154 Par ch=6 c=11 v=103
458334 Par ch=6 c=11 v=104
458544 Par ch=6 c=11 v=105
458784 Par ch=6 c=11 v=106
459114 Par ch=6 c=11 v=107
460800 Par ch=6 c=11 v=107
461160 Par ch=6 c=11 v=106
461310 Par ch=6 c=11 v=105
461430 Par ch=6 c=11 v=104
461520 Par ch=6 c=11 v=103
461610 Par ch=6 c=11 v=102
461670 Par ch=6 c=11 v=101
461760 Par ch=6 c=11 v=100
461820 Par ch=6 c=11 v=99
461880 Par ch=6 c=11 v=98
461940 Par ch=6 c=11 v=97
462000 Par ch=6 c=11 v=96
462030 Par ch=6 c=11 v=95
462090 Par ch=6 c=11 v=94
462150 Par ch=6 c=11 v=93
462180 Par ch=6 c=11 v=92
462240 Par ch=6 c=11 v=91
462270 Par ch=6 c=11 v=90
462330 Par ch=6 c=11 v=89
462360 Par ch=6 c=11 v=88
462390 Par ch=6 c=11 v=87
462450 Par ch=6 c=11 v=86
462480 Par ch=6 c=11 v=85
462510 Par ch=6 c=11 v=84
462540 Par ch=6 c=11 v=83
462600 Par ch=6 c=11 v=82
462630 Par ch=6 c=11 v=81
462660 Par ch=6 c=11 v=80
462690 Par ch=6 c=11 v=79
462720 Par ch=6 c=11 v=78
462750 Par ch=6 c=11 v=77
462780 Par ch=6 c=11 v=76
462810 Par ch=6 c=11 v=75
462840 Par ch=6 c=11 v=74
462870 Par ch=6 c=11 v=73
462880 Off ch=6 n=52 v=100
462880 Off ch=6 n=55 v=100
462880 Off ch=6 n=59 v=100
462880 Off ch=6 n=64 v=100
462900 Par ch=6 c=11 v=72
462930 Par ch=6 c=11 v=71
462960 Par ch=6 c=11 v=70
462990 Par ch=6 c=11 v=69
463020 Par ch=6 c=11 v=68
463040 Par ch=6 c=11 v=67
463040 Meta TrkEnd
TrkEnd
MTrk
0 SeqSpec 43 00 01 ff
0 Meta TrkName "Trumpet"
1920 PrCh ch=7 p=7
1930 Par ch=7 c=7 v=115
1940 Par ch=7 c=10 v=64
1950 Par ch=7 c=11 v=127
1960 Par ch=7 c=20 v=127
1970 Par ch=7 c=91 v=0
1980 Par ch=7 c=93 v=0
1990 Par ch=7 c=94 v=0
2000 Par ch=7 c=101 v=0
2010 Par ch=7 c=100 v=0
2020 Par ch=7 c=6 v=2
2030 Par ch=7 c=101 v=127
2040 Par ch=7 c=100 v=127
340656 Par ch=7 c=11 v=127
356100 On ch=7 n=70 v=88
356360 Off ch=7 n=70 v=64
356580 On ch=7 n=73 v=88
356840 Off ch=7 n=73 v=64
357060 On ch=7 n=73 v=88
357120 Par ch=7 c=11 v=127
357540 On ch=7 n=75 v=88
357560 Off ch=7 n=73 v=64
357800 Off ch=7 n=75 v=64
358020 On ch=7 n=70 v=88
358280 Off ch=7 n=70 v=64
358500 On ch=7 n=68 v=88
358760 Off ch=7 n=68 v=64
358980 On ch=7 n=70 v=88
359168 Par ch=7 c=11 v=127
359198 Par ch=7 c=11 v=121
359228 Par ch=7 c=11 v=117
359258 Par ch=7 c=11 v=112
359288 Par ch=7 c=11 v=108
359318 Par ch=7 c=11 v=103
359348 Par ch=7 c=11 v=99
359378 Par ch=7 c=11 v=96
359408 Par ch=7 c=11 v=92
359438 Par ch=7 c=11 v=89
359468 Par ch=7 c=11 v=86
359498 Par ch=7 c=11 v=83
359528 Par ch=7 c=11 v=80
359558 Par ch=7 c=11 v=77
359588 Par ch=7 c=11 v=75
359618 Par ch=7 c=11 v=73
359648 Par ch=7 c=11 v=71
359678 Par ch=7 c=11 v=69
359708 Par ch=7 c=11 v=68
359738 Par ch=7 c=11 v=67
359768 Par ch=7 c=11 v=66
359798 Par ch=7 c=11 v=65
359824 Off ch=7 n=70 v=64
359828 Par ch=7 c=11 v=64
359940 On ch=7 n=68 v=88
360000 Par ch=7 c=11 v=113
360210 Par ch=7 c=11 v=114
360270 Par ch=7 c=11 v=115
360330 Par ch=7 c=11 v=116
360390 Par ch=7 c=11 v=117
360420 On ch=7 n=70 v=88
360450 Par ch=7 c=11 v=118
360480 Off ch=7 n=68 v=64
360480 Par ch=7 c=11 v=119
360510 Par ch=7 c=11 v=120
360540 Par ch=7 c=11 v=121
360570 Par ch=7 c=11 v=122
360600 Par ch=7 c=11 v=123
360630 Par ch=7 c=11 v=124
360660 Par ch=7 c=11 v=125
360680 Off ch=7 n=70 v=64
360690 Par ch=7 c=11 v=126
360704 Par ch=7 c=11 v=127
360900 On ch=7 n=73 v=88
361380 On ch=7 n=75 v=88
361420 Off ch=7 n=73 v=64
361640 Off ch=7 n=75 v=64
361860 On ch=7 n=70 v=88
362120 Off ch=7 n=70 v=64
362340 On ch=7 n=68 v=88
362600 Off ch=7 n=68 v=64
362820 On ch=7 n=70 v=88
363780 On ch=7 n=75 v=88
363840 Off ch=7 n=70 v=64
364040 Off ch=7 n=75 v=64
364260 On ch=7 n=77 v=88
364520 Off ch=7 n=77 v=64
364740 On ch=7 n=78 v=88
365220 On ch=7 n=77 v=88
365240 Off ch=7 n=78 v=64
365500 Off ch=7 n=77 v=64
365700 On ch=7 n=75 v=88
365940 Off ch=7 n=75 v=64
366180 On ch=7 n=73 v=88
366520 Off ch=7 n=73 v=64
366660 On ch=7 n=70 v=88
367620 On ch=7 n=68 v=88
367684 Off ch=7 n=70 v=64
367864 Off ch=7 n=68 v=64
368100 On ch=7 n=70 v=88
368360 Off ch=7 n=70 v=64
368580 On ch=7 n=68 v=88
369060 On ch=7 n=66 v=88
369120 Off ch=7 n=68 v=64
369320 Off ch=7 n=66 v=64
369540 On ch=7 n=65 v=88
369760 Off ch=7 n=65 v=64
370020 On ch=7 n=61 v=88
370240 Off ch=7 n=61 v=64
370500 On ch=7 n=63 v=88
370828 Off ch=7 n=63 v=64
370828 Meta TrkEnd
TrkEnd
MTrk
0 SeqSpec 43 00 01 ff
0 Meta TrkName "Trombone"
1920 PrCh ch=8 p=9
1930 Par ch=8 c=7 v=115
1940 Par ch=8 c=10 v=64
1950 Par ch=8 c=11 v=127
1960 Par ch=8 c=20 v=127
1970 Par ch=8 c=91 v=0
1980 Par ch=8 c=93 v=0
1990 Par ch=8 c=94 v=0
2000 Par ch=8 c=101 v=0
2010 Par ch=8 c=100 v=0
2020 Par ch=8 c=6 v=2
2030 Par ch=8 c=101 v=127
2040 Par ch=8 c=100 v=127
280320 On ch=8 n=39 v=100
280320 Par ch=8 c=11 v=91
280352 Par ch=8 c=11 v=107
280382 Par ch=8 c=11 v=103
280412 Par ch=8 c=11 v=100
280442 Par ch=8 c=11 v=97
280472 Par ch=8 c=11 v=94
280502 Par ch=8 c=11 v=92
280532 Par ch=8 c=11 v=90
280562 Par ch=8 c=11 v=88
280592 Par ch=8 c=11 v=87
280622 Par ch=8 c=11 v=86
280652 Par ch=8 c=11 v=85
280768 Par ch=8 c=11 v=77
282478 Par ch=8 c=11 v=78
283168 Par ch=8 c=11 v=79
283708 Par ch=8 c=11 v=80
284158 Par ch=8 c=11 v=81
284548 Par ch=8 c=11 v=82
284908 Par ch=8 c=11 v=83
285238 Par ch=8 c=11 v=84
285568 Par ch=8 c=11 v=85
285838 Par ch=8 c=11 v=86
286108 Par ch=8 c=11 v=87
286378 Par ch=8 c=11 v=88
286618 Par ch=8 c=11 v=89
286858 Par ch=8 c=11 v=90
287098 Par ch=8 c=11 v=91
287308 Par ch=8 c=11 v=92
287520 Par ch=8 c=11 v=93
288000 Off ch=8 n=39 v=100
288000 On ch=8 n=35 v=100
288000 Par ch=8 c=11 v=89
288150 Par ch=8 c=11 v=88
288210 Par ch=8 c=11 v=87
288240 Par ch=8 c=11 v=86
288300 Par ch=8 c=11 v=85
288330 Par ch=8 c=11 v=84
288360 Par ch=8 c=11 v=82
288390 Par ch=8 c=11 v=81
288420 Par ch=8 c=11 v=80
288448 Par ch=8 c=11 v=78
288780 Par ch=8 c=11 v=79
289110 Par ch=8 c=11 v=80
289350 Par ch=8 c=11 v=81
289560 Par ch=8 c=11 v=82
289740 Par ch=8 c=11 v=83
289890 Par ch=8 c=11 v=84
290040 Par ch=8 c=11 v=85
290190 Par ch=8 c=11 v=86
290340 Par ch=8 c=11 v=87
290460 Par ch=8 c=11 v=88
290580 Par ch=8 c=11 v=89
290700 Par ch=8 c=11 v=90
290790 Par ch=8 c=11 v=91
290910 Par ch=8 c=11 v=92
291000 Par ch=8 c=11 v=93
291090 Par ch=8 c=11 v=94
291180 Par ch=8 c=11 v=95
291300 Par ch=8 c=11 v=96
291360 Par ch=8 c=11 v=97
291840 Off ch=8 n=35 v=100
291840 On ch=8 n=37 v=100
291840 Par ch=8 c=11 v=94
292020 Par ch=8 c=11 v=93
292110 Par ch=8 c=11 v=92
292140 Par ch=8 c=11 v=91
292200 Par ch=8 c=11 v=90
292224 Par ch=8 c=11 v=89
292560 Par ch=8 c=11 v=89
292860 Par ch=8 c=11 v=90
293070 Par ch=8 c=11 v=91
293280 Par ch=8 c=11 v=92
293430 Par ch=8 c=11 v=93
293580 Par ch=8 c=11 v=94
293730 Par ch=8 c=11 v=95
293760 Off ch=8 n=37 v=100
293760 On ch=8 n=38 v=100
293760 Par ch=8 c=11 v=83
294120 Par ch=8 c=11 v=84
294270 Par ch=8 c=11 v=85
294390 Par ch=8 c=11 v=86
294480 Par ch=8 c=11 v=87
294570 Par ch=8 c=11 v=88
294630 Par ch=8 c=11 v=89
294720 Par ch=8 c=11 v=90
294780 Par ch=8 c=11 v=91
294840 Par ch=8 c=11 v=92
294900 Par ch=8 c=11 v=93
294930 Par ch=8 c=11 v=94
294990 Par ch=8 c=11 v=95
295050 Par ch=8 c=11 v=96
295080 Par ch=8 c=11 v=97
295140 Par ch=8 c=11 v=98
295170 Par ch=8 c=11 v=99
295230 Par ch=8 c=11 v=100
295260 Par ch=8 c=11 v=101
295320 Par ch=8 c=11 v=102
295350 Par ch=8 c=11 v=103
295380 Par ch=8 c=11 v=104
295440 Par ch=8 c=11 v=105
295470 Par ch=8 c=11 v=106
295500 Par ch=8 c=11 v=107
295520 Par ch=8 c=11 v=108
295680 Off ch=8 n=38 v=100
295680 On ch=8 n=39 v=100
295680 Par ch=8 c=11 v=91
295712 Par ch=8 c=11 v=107
295742 Par ch=8 c=11 v=103
295772 Par ch=8 c=11 v=100
295802 Par ch=8 c=11 v=97
295832 Par ch=8 c=11 v=94
295862 Par ch=8 c=11 v=92
295892 Par ch=8 c=11 v=90
295922 Par ch=8 c=11 v=88
295952 Par ch=8 c=11 v=87
295982 Par ch=8 c=11 v=86
296012 Par ch=8 c=11 v=85
296128 Par ch=8 c=11 v=77
297838 Par ch=8 c=11 v=78
298528 Par ch=8 c=11 v=79
299068 Par ch=8 c=11 v=80
299518 Par ch=8 c=11 v=81
299908 Par ch=8 c=11 v=82
300268 Par ch=8 c=11 v=83
300598 Par ch=8 c=11 v=84
300928 Par ch=8 c=11 v=85
301198 Par ch=8 c=11 v=86
301468 Par ch=8 c=11 v=87
301738 Par ch=8 c=11 v=88
301978 Par ch=8 c=11 v=89
302218 Par ch=8 c=11 v=90
302458 Par ch=8 c=11 v=91
302668 Par ch=8 c=11 v=92
302880 Par ch=8 c=11 v=93
303360 Off ch=8 n=39 v=100
303360 On ch=8 n=35 v=100
303360 Par ch=8 c=11 v=89
303510 Par ch=8 c=11 v=88
303570 Par ch=8 c=11 v=87
303600 Par ch=8 c=11 v=86
303660 Par ch=8 c=11 v=85
303690 Par ch=8 c=11 v=84
303720 Par ch=8 c=11 v=82
303750 Par ch=8 c=11 v=81
303780 Par ch=8 c=11 v=80
303808 Par ch=8 c=11 v=78
304140 Par ch=8 c=11 v=79
304470 Par ch=8 c=11 v=80
304710 Par ch=8 c=11 v=81
304920 Par ch=8 c=11 v=82
305100 Par ch=8 c=11 v=83
305250 Par ch=8 c=11 v=84
305400 Par ch=8 c=11 v=85
305550 Par ch=8 c=11 v=86
305700 Par ch=8 c=11 v=87
305820 Par ch=8 c=11 v=88
305940 Par ch=8 c=11 v=89
306060 Par ch=8 c=11 v=90
306150 Par ch=8 c=11 v=91
306270 Par ch=8 c=11 v=92
306360 Par ch=8 c=11 v=93
306450 Par ch=8 c=11 v=94
306540 Par ch=8 c=11 v=95
306660 Par ch=8 c=11 v=96
306720 Par ch=8 c=11 v=97
307200 Off ch=8 n=35 v=100
307200 On ch=8 n=37 v=100
307200 Par ch=8 c=11 v=94
307380 Par ch=8 c=11 v=93
307470 Par ch=8 c=11 v=92
307500 Par ch=8 c=11 v=91
307560 Par ch=8 c=11 v=90
307584 Par ch=8 c=11 v=89
307920 Par ch=8 c=11 v=89
308220 Par ch=8 c=11 v=90
308430 Par ch=8 c=11 v=91
308640 Par ch=8 c=11 v=92
308790 Par ch=8 c=11 v=93
308940 Par ch=8 c=11 v=94
309090 Par ch=8 c=11 v=95
309120 Off ch=8 n=37 v=100
309120 On ch=8 n=38 v=100
309120 Par ch=8 c=11 v=83
309480 Par ch=8 c=11 v=84
309630 Par ch=8 c=11 v=85
309750 Par ch=8 c=11 v=86
309840 Par ch=8 c=11 v=87
309930 Par ch=8 c=11 v=88
309990 Par ch=8 c=11 v=89
310080 Par ch=8 c=11 v=90
310140 Par ch=8 c=11 v=91
310200 Par ch=8 c=11 v=92
310260 Par ch=8 c=11 v=93
310290 Par ch=8 c=11 v=94
310350 Par ch=8 c=11 v=95
310410 Par ch=8 c=11 v=96
310440 Par ch=8 c=11 v=97
310500 Par ch=8 c=11 v=98
310530 Par ch=8 c=11 v=99
310590 Par ch=8 c=11 v=100
310620 Par ch=8 c=11 v=101
310680 Par ch=8 c=11 v=102
310710 Par ch=8 c=11 v=103
310740 Par ch=8 c=11 v=104
310800 Par ch=8 c=11 v=105
310830 Par ch=8 c=11 v=106
310860 Par ch=8 c=11 v=107
310880 Par ch=8 c=11 v=108
311040 Off ch=8 n=38 v=100
311040 On ch=8 n=35 v=100
311040 Par ch=8 c=11 v=67
311820 Par ch=8 c=11 v=68
312150 Par ch=8 c=11 v=69
312390 Par ch=8 c=11 v=70
312600 Par ch=8 c=11 v=71
312780 Par ch=8 c=11 v=72
312960 Par ch=8 c=11 v=73
313110 Par ch=8 c=11 v=74
313260 Par ch=8 c=11 v=75
313380 Par ch=8 c=11 v=76
313500 Par ch=8 c=11 v=77
313620 Par ch=8 c=11 v=78
313740 Par ch=8 c=11 v=79
313860 Par ch=8 c=11 v=80
313950 Par ch=8 c=11 v=81
314070 Par ch=8 c=11 v=82
314160 Par ch=8 c=11 v=83
314250 Par ch=8 c=11 v=84
314340 Par ch=8 c=11 v=85
314430 Par ch=8 c=11 v=86
314520 Par ch=8 c=11 v=87
314610 Par ch=8 c=11 v=88
314700 Par ch=8 c=11 v=89
314760 Par ch=8 c=11 v=90
314880 Off ch=8 n=35 v=100
314880 On ch=8 n=37 v=100
314880 Par ch=8 c=11 v=68
315540 Par ch=8 c=11 v=69
315780 Par ch=8 c=11 v=70
315990 Par ch=8 c=11 v=71
316170 Par ch=8 c=11 v=72
316320 Par ch=8 c=11 v=73
316440 Par ch=8 c=11 v=74
316560 Par ch=8 c=11 v=75
316680 Par ch=8 c=11 v=76
316800 Par ch=8 c=11 v=77
316890 Par ch=8 c=11 v=78
316980 Par ch=8 c=11 v=79
317070 Par ch=8 c=11 v=80
317160 Par ch=8 c=11 v=81
317250 Par ch=8 c=11 v=82
317340 Par ch=8 c=11 v=83
317430 Par ch=8 c=11 v=84
317490 Par ch=8 c=11 v=85
317580 Par ch=8 c=11 v=86
317640 Par ch=8 c=11 v=87
317730 Par ch=8 c=11 v=88
317790 Par ch=8 c=11 v=89
317850 Par ch=8 c=11 v=90
317910 Par ch=8 c=11 v=91
318000 Par ch=8 c=11 v=92
318060 Par ch=8 c=11 v=93
318120 Par ch=8 c=11 v=94
318720 Off ch=8 n=37 v=100
318720 On ch=8 n=39 v=100
318720 Par ch=8 c=11 v=82
318750 Par ch=8 c=11 v=83
318840 Par ch=8 c=11 v=84
318960 Par ch=8 c=11 v=85
319050 Par ch=8 c=11 v=86
319170 Par ch=8 c=11 v=87
319320 Par ch=8 c=11 v=88
319440 Par ch=8 c=11 v=89
319590 Par ch=8 c=11 v=90
319740 Par ch=8 c=11 v=91
319890 Par ch=8 c=11 v=92
320070 Par ch=8 c=11 v=93
320280 Par ch=8 c=11 v=94
320520 Par ch=8 c=11 v=95
320850 Par ch=8 c=11 v=96
322560 Par ch=8 c=11 v=95
323220 Par ch=8 c=11 v=94
323490 Par ch=8 c=11 v=93
323700 Par ch=8 c=11 v=92
323880 Par ch=8 c=11 v=91
324030 Par ch=8 c=11 v=90
324180 Par ch=8 c=11 v=89
324300 Par ch=8 c=11 v=88
324420 Par ch=8 c=11 v=87
324540 Par ch=8 c=11 v=86
324630 Par ch=8 c=11 v=85
324750 Par ch=8 c=11 v=84
324840 Par ch=8 c=11 v=83
324930 Par ch=8 c=11 v=82
325020 Par ch=8 c=11 v=81
325110 Par ch=8 c=11 v=80
325200 Par ch=8 c=11 v=79
325260 Par ch=8 c=11 v=78
325350 Par ch=8 c=11 v=77
325410 Par ch=8 c=11 v=76
325500 Par ch=8 c=11 v=75
325560 Par ch=8 c=11 v=74
325650 Par ch=8 c=11 v=73
325710 Par ch=8 c=11 v=72
325770 Par ch=8 c=11 v=71
325830 Par ch=8 c=11 v=70
325890 Par ch=8 c=11 v=69
325980 Par ch=8 c=11 v=68
326040 Par ch=8 c=11 v=67
326100 Par ch=8 c=11 v=66
326136 Par ch=8 c=11 v=65
326400 Off ch=8 n=39 v=100
326400 On ch=8 n=35 v=100
326400 Par ch=8 c=11 v=67
327180 Par ch=8 c=11 v=68
327510 Par ch=8 c=11 v=69
327750 Par ch=8 c=11 v=70
327960 Par ch=8 c=11 v=71
328140 Par ch=8 c=11 v=72
328320 Par ch=8 c=11 v=73
328470 Par ch=8 c=11 v=74
328620 Par ch=8 c=11 v=75
328740 Par ch=8 c=11 v=76
328860 Par ch=8 c=11 v=77
328980 Par ch=8 c=11 v=78
329100 Par ch=8 c=11 v=79
329220 Par ch=8 c=11 v=80
329310 Par ch=8 c=11 v=81
329430 Par ch=8 c=11 v=82
329520 Par ch=8 c=11 v=83
329610 Par ch=8 c=11 v=84
329700 Par ch=8 c=11 v=85
329790 Par ch=8 c=11 v=86
329880 Par ch=8 c=11 v=87
329970 Par ch=8 c=11 v=88
330060 Par ch=8 c=11 v=89
330120 Par ch=8 c=11 v=90
330240 Off ch=8 n=35 v=100
330240 On ch=8 n=37 v=100
330240 Par ch=8 c=11 v=68
330900 Par ch=8 c=11 v=69
331140 Par ch=8 c=11 v=70
331350 Par ch=8 c=11 v=71
331530 Par ch=8 c=11 v=72
331680 Par ch=8 c=11 v=73
331800 Par ch=8 c=11 v=74
331920 Par ch=8 c=11 v=75
332040 Par ch=8 c=11 v=76
332160 Par ch=8 c=11 v=77
332250 Par ch=8 c=11 v=78
332340 Par ch=8 c=11 v=79
332430 Par ch=8 c=11 v=80
332520 Par ch=8 c=11 v=81
332610 Par ch=8 c=11 v=82
332700 Par ch=8 c=11 v=83
332790 Par ch=8 c=11 v=84
332850 Par ch=8 c=11 v=85
332940 Par ch=8 c=11 v=86
333000 Par ch=8 c=11 v=87
333090 Par ch=8 c=11 v=88
333150 Par ch=8 c=11 v=89
334080 Off ch=8 n=37 v=100
334080 On ch=8 n=39 v=100
334080 Par ch=8 c=11 v=82
334110 Par ch=8 c=11 v=83
334200 Par ch=8 c=11 v=84
334320 Par ch=8 c=11 v=85
334410 Par ch=8 c=11 v=86
334530 Par ch=8 c=11 v=87
334680 Par ch=8 c=11 v=88
334800 Par ch=8 c=11 v=89
334950 Par ch=8 c=11 v=90
335100 Par ch=8 c=11 v=91
335250 Par ch=8 c=11 v=92
335430 Par ch=8 c=11 v=93
335640 Par ch=8 c=11 v=94
335880 Par ch=8 c=11 v=95
336210 Par ch=8 c=11 v=96
337920 Par ch=8 c=11 v=95
338580 Par ch=8 c=11 v=94
338850 Par ch=8 c=11 v=93
339060 Par ch=8 c=11 v=92
339240 Par ch=8 c=11 v=91
339390 Par ch=8 c=11 v=90
339540 Par ch=8 c=11 v=89
339660 Par ch=8 c=11 v=88
339780 Par ch=8 c=11 v=87
339900 Par ch=8 c=11 v=86
339990 Par ch=8 c=11 v=85
340110 Par ch=8 c=11 v=84
340200 Par ch=8 c=11 v=83
340290 Par ch=8 c=11 v=82
340380 Par ch=8 c=11 v=81
340470 Par ch=8 c=11 v=80
340560 Par ch=8 c=11 v=79
340584 Off ch=8 n=39 v=100
340620 Par ch=8 c=11 v=78
372480 On ch=8 n=47 v=88
372480 On ch=8 n=54 v=88
372480 On ch=8 n=59 v=88
372480 Par ch=8 c=11 v=45
372480 Par ch=8 c=7 v=104
372504 Par ch=8 c=11 v=42
373284 Par ch=8 c=11 v=43
373614 Par ch=8 c=11 v=44
373854 Par ch=8 c=11 v=45
374064 Par ch=8 c=11 v=46
374244 Par ch=8 c=11 v=47
374424 Par ch=8 c=11 v=48
374574 Par ch=8 c=11 v=49
374724 Par ch=8 c=11 v=50
376320 Off ch=8 n=59 v=64
376320 Off ch=8 n=54 v=64
376320 Off ch=8 n=47 v=64
376320 On ch=8 n=49 v=88
376320 On ch=8 n=53 v=88
376320 On ch=8 n=61 v=88
376500 Par ch=8 c=11 v=61
376530 Par ch=8 c=11 v=59
376560 Par ch=8 c=11 v=57
376590 Par ch=8 c=11 v=54
376620 Par ch=8 c=11 v=51
376632 Par ch=8 c=11 v=52
376662 Par ch=8 c=11 v=53
376842 Par ch=8 c=11 v=54
377082 Par ch=8 c=11 v=55
377322 Par ch=8 c=11 v=56
377592 Par ch=8 c=11 v=57
377892 Par ch=8 c=11 v=58
378252 Par ch=8 c=11 v=59
378732 Par ch=8 c=11 v=60
380160 Off ch=8 n=61 v=64
380160 Off ch=8 n=53 v=64
380160 Off ch=8 n=49 v=64
380160 On ch=8 n=51 v=88
380160 On ch=8 n=54 v=88
380160 On ch=8 n=63 v=88
380184 Par ch=8 c=11 v=46
380214 Par ch=8 c=11 v=47
380304 Par ch=8 c=11 v=48
380424 Par ch=8 c=11 v=49
380514 Par ch=8 c=11 v=50
380634 Par ch=8 c=11 v=51
380784 Par ch=8 c=11 v=52
380904 Par ch=8 c=11 v=53
381054 Par ch=8 c=11 v=54
381204 Par ch=8 c=11 v=55
381354 Par ch=8 c=11 v=56
381534 Par ch=8 c=11 v=57
381744 Par ch=8 c=11 v=58
381984 Par ch=8 c=11 v=59
382314 Par ch=8 c=11 v=60
384024 Par ch=8 c=11 v=59
384684 Par ch=8 c=11 v=58
384954 Par ch=8 c=11 v=57
385164 Par ch=8 c=11 v=56
385344 Par ch=8 c=11 v=55
385494 Par ch=8 c=11 v=54
385644 Par ch=8 c=11 v=53
385764 Par ch=8 c=11 v=52
385884 Par ch=8 c=11 v=51
386004 Par ch=8 c=11 v=50
386094 Par ch=8 c=11 v=49
386214 Par ch=8 c=11 v=48
386304 Par ch=8 c=11 v=47
386394 Par ch=8 c=11 v=46
386484 Par ch=8 c=11 v=45
386574 Par ch=8 c=11 v=44
386664 Par ch=8 c=11 v=43
386724 Par ch=8 c=11 v=42
386814 Par ch=8 c=11 v=41
386874 Par ch=8 c=11 v=40
386964 Par ch=8 c=11 v=39
387024 Par ch=8 c=11 v=38
387114 Par ch=8 c=11 v=37
387174 Par ch=8 c=11 v=36
387234 Par ch=8 c=11 v=35
387294 Par ch=8 c=11 v=34
387354 Par ch=8 c=11 v=33
387444 Par ch=8 c=11 v=32
387504 Par ch=8 c=11 v=31
387564 Par ch=8 c=11 v=30
387600 Par ch=8 c=11 v=29
387672 Off ch=8 n=63 v=64
387768 Off ch=8 n=51 v=64
387792 Off ch=8 n=54 v=64
387840 On ch=8 n=59 v=88
387840 On ch=8 n=54 v=88
387840 On ch=8 n=47 v=88
387840 Par ch=8 c=11 v=34
387864 Par ch=8 c=11 v=31
388644 Par ch=8 c=11 v=32
388974 Par ch=8 c=11 v=33
389214 Par ch=8 c=11 v=34
389424 Par ch=8 c=11 v=35
389604 Par ch=8 c=11 v=36
389784 Par ch=8 c=11 v=37
389934 Par ch=8 c=11 v=38
390084 Par ch=8 c=11 v=39
390204 Par ch=8 c=11 v=40
390324 Par ch=8 c=11 v=41
390444 Par ch=8 c=11 v=42
390564 Par ch=8 c=11 v=43
390684 Par ch=8 c=11 v=44
390774 Par ch=8 c=11 v=45
390894 Par ch=8 c=11 v=46
391680 Off ch=8 n=47 v=64
391680 Off ch=8 n=54 v=64
391680 Off ch=8 n=59 v=64
391680 On ch=8 n=61 v=88
391680 On ch=8 n=53 v=88
391680 On ch=8 n=49 v=88
391860 Par ch=8 c=11 v=43
391890 Par ch=8 c=11 v=41
391920 Par ch=8 c=11 v=38
391950 Par ch=8 c=11 v=35
391980 Par ch=8 c=11 v=32
391992 Par ch=8 c=11 v=30
392016 Par ch=8 c=11 v=33
392046 Par ch=8 c=11 v=34
392106 Par ch=8 c=11 v=35
392226 Par ch=8 c=11 v=36
392316 Par ch=8 c=11 v=37
392406 Par ch=8 c=11 v=38
392496 Par ch=8 c=11 v=39
392616 Par ch=8 c=11 v=40
392736 Par ch=8 c=11 v=41
392856 Par ch=8 c=11 v=42
392976 Par ch=8 c=11 v=43
393096 Par ch=8 c=11 v=44
393246 Par ch=8 c=11 v=45
393396 Par ch=8 c=11 v=46
393576 Par ch=8 c=11 v=47
393756 Par ch=8 c=11 v=48
393996 Par ch=8 c=11 v=49
394296 Par ch=8 c=11 v=50
395520 Off ch=8 n=49 v=64
395520 Off ch=8 n=53 v=64
395520 Off ch=8 n=61 v=64
395520 On ch=8 n=63 v=88
395520 On ch=8 n=54 v=88
395520 On ch=8 n=51 v=88
395544 Par ch=8 c=11 v=46
395574 Par ch=8 c=11 v=47
395664 Par ch=8 c=11 v=48
395784 Par ch=8 c=11 v=49
395874 Par ch=8 c=11 v=50
395994 Par ch=8 c=11 v=51
396144 Par ch=8 c=11 v=52
396264 Par ch=8 c=11 v=53
396414 Par ch=8 c=11 v=54
396564 Par ch=8 c=11 v=55
396714 Par ch=8 c=11 v=56
396894 Par ch=8 c=11 v=57
397104 Par ch=8 c=11 v=58
397344 Par ch=8 c=11 v=59
397674 Par ch=8 c=11 v=60
399384 Par ch=8 c=11 v=59
400044 Par ch=8 c=11 v=58
400314 Par ch=8 c=11 v=57
400524 Par ch=8 c=11 v=56
400704 Par ch=8 c=11 v=55
400854 Par ch=8 c=11 v=54
401004 Par ch=8 c=11 v=53
401124 Par ch=8 c=11 v=52
401244 Par ch=8 c=11 v=51
401364 Par ch=8 c=11 v=50
401454 Par ch=8 c=11 v=49
401574 Par ch=8 c=11 v=48
401664 Par ch=8 c=11 v=47
401754 Par ch=8 c=11 v=46
401844 Par ch=8 c=11 v=45
401934 Par ch=8 c=11 v=44
402024 Par ch=8 c=11 v=43
402084 Par ch=8 c=11 v=42
402174 Par ch=8 c=11 v=41
402234 Par ch=8 c=11 v=40
402324 Par ch=8 c=11 v=39
402384 Par ch=8 c=11 v=38
402474 Par ch=8 c=11 v=37
402534 Par ch=8 c=11 v=36
402594 Par ch=8 c=11 v=35
402654 Par ch=8 c=11 v=34
402714 Par ch=8 c=11 v=33
402804 Par ch=8 c=11 v=32
402864 Par ch=8 c=11 v=31
402924 Par ch=8 c=11 v=30
402960 Par ch=8 c=11 v=29
403032 Off ch=8 n=63 v=64
403128 Off ch=8 n=51 v=64
403152 Off ch=8 n=54 v=64
403200 On ch=8 n=60 v=88
403200 On ch=8 n=55 v=88
403200 On ch=8 n=48 v=88
403200 Par ch=8 c=11 v=41
403224 Par ch=8 c=11 v=38
404004 Par ch=8 c=11 v=39
404334 Par ch=8 c=11 v=40
404574 Par ch=8 c=11 v=41
404784 Par ch=8 c=11 v=42
404964 Par ch=8 c=11 v=43
405144 Par ch=8 c=11 v=44
405294 Par ch=8 c=11 v=45
405444 Par ch=8 c=11 v=46
405564 Par ch=8 c=11 v=47
405684 Par ch=8 c=11 v=48
405804 Par ch=8 c=11 v=49
405924 Par ch=8 c=11 v=50
406044 Par ch=8 c=11 v=51
406134 Par ch=8 c=11 v=52
406254 Par ch=8 c=11 v=53
407040 Off ch=8 n=48 v=64
407040 Off ch=8 n=55 v=64
407040 Off ch=8 n=60 v=64
407040 On ch=8 n=62 v=88
407040 On ch=8 n=54 v=88
407040 On ch=8 n=50 v=88
407220 Par ch=8 c=11 v=50
407250 Par ch=8 c=11 v=48
407280 Par ch=8 c=11 v=45
407310 Par ch=8 c=11 v=42
407340 Par ch=8 c=11 v=39
407352 Par ch=8 c=11 v=37
407376 Par ch=8 c=11 v=40
407406 Par ch=8 c=11 v=41
407466 Par ch=8 c=11 v=42
407586 Par ch=8 c=11 v=43
407676 Par ch=8 c=11 v=44
407766 Par ch=8 c=11 v=45
407856 Par ch=8 c=11 v=46
407976 Par ch=8 c=11 v=47
408096 Par ch=8 c=11 v=48
408216 Par ch=8 c=11 v=49
408336 Par ch=8 c=11 v=50
408456 Par ch=8 c=11 v=51
408606 Par ch=8 c=11 v=52
408756 Par ch=8 c=11 v=53
408936 Par ch=8 c=11 v=54
409116 Par ch=8 c=11 v=55
409356 Par ch=8 c=11 v=56
409656 Par ch=8 c=11 v=57
410880 Off ch=8 n=50 v=64
410880 Off ch=8 n=54 v=64
410880 Off ch=8 n=62 v=64
410880 On ch=8 n=64 v=88
410880 On ch=8 n=55 v=88
410880 On ch=8 n=52 v=88
410904 Par ch=8 c=11 v=53
410934 Par ch=8 c=11 v=54
411024 Par ch=8 c=11 v=55
411144 Par ch=8 c=11 v=56
411234 Par ch=8 c=11 v=57
411354 Par ch=8 c=11 v=58
411504 Par ch=8 c=11 v=59
411624 Par ch=8 c=11 v=60
411774 Par ch=8 c=11 v=61
411924 Par ch=8 c=11 v=62
412074 Par ch=8 c=11 v=63
412254 Par ch=8 c=11 v=64
412464 Par ch=8 c=11 v=65
412704 Par ch=8 c=11 v=66
413034 Par ch=8 c=11 v=67
414744 Par ch=8 c=11 v=66
415404 Par ch=8 c=11 v=65
415674 Par ch=8 c=11 v=64
415884 Par ch=8 c=11 v=63
416064 Par ch=8 c=11 v=62
416214 Par ch=8 c=11 v=61
416364 Par ch=8 c=11 v=60
416484 Par ch=8 c=11 v=59
416604 Par ch=8 c=11 v=58
416724 Par ch=8 c=11 v=57
416814 Par ch=8 c=11 v=56
416934 Par ch=8 c=11 v=55
417024 Par ch=8 c=11 v=54
417114 Par ch=8 c=11 v=53
417204 Par ch=8 c=11 v=52
417294 Par ch=8 c=11 v=51
417384 Par ch=8 c=11 v=50
417444 Par ch=8 c=11 v=49
417534 Par ch=8 c=11 v=48
417594 Par ch=8 c=11 v=47
417684 Par ch=8 c=11 v=46
417744 Par ch=8 c=11 v=45
417834 Par ch=8 c=11 v=44
417894 Par ch=8 c=11 v=43
417954 Par ch=8 c=11 v=42
418014 Par ch=8 c=11 v=41
418074 Par ch=8 c=11 v=40
418164 Par ch=8 c=11 v=39
418224 Par ch=8 c=11 v=38
418284 Par ch=8 c=11 v=37
418320 Par ch=8 c=11 v=36
418392 Off ch=8 n=64 v=64
418488 Off ch=8 n=52 v=64
418512 Off ch=8 n=55 v=64
418560 On ch=8 n=48 v=88
418560 On ch=8 n=55 v=88
418560 On ch=8 n=60 v=88
418560 Par ch=8 c=11 v=45
418584 Par ch=8 c=11 v=42
419364 Par ch=8 c=11 v=43
419694 Par ch=8 c=11 v=44
419934 Par ch=8 c=11 v=45
420144 Par ch=8 c=11 v=46
420324 Par ch=8 c=11 v=47
420504 Par ch=8 c=11 v=48
420654 Par ch=8 c=11 v=49
420804 Par ch=8 c=11 v=50
420924 Par ch=8 c=11 v=51
421044 Par ch=8 c=11 v=52
421164 Par ch=8 c=11 v=53
421284 Par ch=8 c=11 v=54
421404 Par ch=8 c=11 v=55
421494 Par ch=8 c=11 v=56
421614 Par ch=8 c=11 v=57
422400 Off ch=8 n=60 v=64
422400 Off ch=8 n=55 v=64
422400 Off ch=8 n=48 v=64
422400 On ch=8 n=50 v=88
422400 On ch=8 n=54 v=88
422400 On ch=8 n=62 v=88
422580 Par ch=8 c=11 v=54
422610 Par ch=8 c=11 v=52
422640 Par ch=8 c=11 v=49
422670 Par ch=8 c=11 v=46
422700 Par ch=8 c=11 v=43
422712 Par ch=8 c=11 v=41
422736 Par ch=8 c=11 v=44
422766 Par ch=8 c=11 v=45
422826 Par ch=8 c=11 v=46
422946 Par ch=8 c=11 v=47
423036 Par ch=8 c=11 v=48
423126 Par ch=8 c=11 v=49
423216 Par ch=8 c=11 v=50
423336 Par ch=8 c=11 v=51
423456 Par ch=8 c=11 v=52
423576 Par ch=8 c=11 v=53
423696 Par ch=8 c=11 v=54
423816 Par ch=8 c=11 v=55
423966 Par ch=8 c=11 v=56
424116 Par ch=8 c=11 v=57
424296 Par ch=8 c=11 v=58
424476 Par ch=8 c=11 v=59
424716 Par ch=8 c=11 v=60
425016 Par ch=8 c=11 v=61
426240 Off ch=8 n=62 v=64
426240 Off ch=8 n=54 v=64
426240 Off ch=8 n=50 v=64
426240 On ch=8 n=52 v=88
426240 On ch=8 n=55 v=88
426240 On ch=8 n=64 v=88
426264 Par ch=8 c=11 v=57
426294 Par ch=8 c=11 v=58
426384 Par ch=8 c=11 v=59
426504 Par ch=8 c=11 v=60
426594 Par ch=8 c=11 v=61
426714 Par ch=8 c=11 v=62
426864 Par ch=8 c=11 v=63
426984 Par ch=8 c=11 v=64
427134 Par ch=8 c=11 v=65
427284 Par ch=8 c=11 v=66
427434 Par ch=8 c=11 v=67
427614 Par ch=8 c=11 v=68
427824 Par ch=8 c=11 v=69
428064 Par ch=8 c=11 v=70
428394 Par ch=8 c=11 v=71
430104 Par ch=8 c=11 v=70
430764 Par ch=8 c=11 v=69
431034 Par ch=8 c=11 v=68
431244 Par ch=8 c=11 v=67
431424 Par ch=8 c=11 v=66
431574 Par ch=8 c=11 v=65
431724 Par ch=8 c=11 v=64
431844 Par ch=8 c=11 v=63
431964 Par ch=8 c=11 v=62
432084 Par ch=8 c=11 v=61
432174 Par ch=8 c=11 v=60
432294 Par ch=8 c=11 v=59
432384 Par ch=8 c=11 v=58
432474 Par ch=8 c=11 v=57
432564 Par ch=8 c=11 v=56
432654 Par ch=8 c=11 v=55
432744 Par ch=8 c=11 v=54
432804 Par ch=8 c=11 v=53
432894 Par ch=8 c=11 v=52
432954 Par ch=8 c=11 v=51
433044 Par ch=8 c=11 v=50
433104 Par ch=8 c=11 v=49
433194 Par ch=8 c=11 v=48
433254 Par ch=8 c=11 v=47
433314 Par ch=8 c=11 v=46
433374 Par ch=8 c=11 v=45
433434 Par ch=8 c=11 v=44
433524 Par ch=8 c=11 v=43
433584 Par ch=8 c=11 v=42
433644 Par ch=8 c=11 v=41
433680 Par ch=8 c=11 v=40
433752 Off ch=8 n=64 v=64
433848 Off ch=8 n=52 v=64
433872 Off ch=8 n=55 v=64
433872 Meta TrkEnd
TrkEnd
MTrk
0 SeqSpec 43 00 01 ff
0 Meta TrkName "Tuba"
1920 PrCh ch=9 p=11
1930 Par ch=9 c=7 v=115
1940 Par ch=9 c=10 v=64
1950 Par ch=9 c=11 v=127
1960 Par ch=9 c=20 v=127
1970 Par ch=9 c=91 v=0
1980 Par ch=9 c=93 v=0
1990 Par ch=9 c=94 v=0
2000 Par ch=9 c=101 v=0
2010 Par ch=9 c=100 v=0
2020 Par ch=9 c=6 v=2
2030 Par ch=9 c=101 v=127
2040 Par ch=9 c=100 v=127
280320 On ch=9 n=39 v=100
280320 Par ch=9 c=11 v=126
280320 Par ch=9 c=11 v=105
280352 Par ch=9 c=11 v=121
280382 Par ch=9 c=11 v=117
280412 Par ch=9 c=11 v=114
280442 Par ch=9 c=11 v=111
280472 Par ch=9 c=11 v=108
280502 Par ch=9 c=11 v=106
280532 Par ch=9 c=11 v=104
280562 Par ch=9 c=11 v=102
280592 Par ch=9 c=11 v=101
280622 Par ch=9 c=11 v=100
280652 Par ch=9 c=11 v=99
280768 Par ch=9 c=11 v=91
282478 Par ch=9 c=11 v=92
283168 Par ch=9 c=11 v=93
283708 Par ch=9 c=11 v=94
284158 Par ch=9 c=11 v=95
284548 Par ch=9 c=11 v=96
284908 Par ch=9 c=11 v=97
285238 Par ch=9 c=11 v=98
285568 Par ch=9 c=11 v=99
285838 Par ch=9 c=11 v=100
286108 Par ch=9 c=11 v=101
286378 Par ch=9 c=11 v=102
286618 Par ch=9 c=11 v=103
286858 Par ch=9 c=11 v=104
287098 Par ch=9 c=11 v=105
287308 Par ch=9 c=11 v=106
287520 Par ch=9 c=11 v=107
288000 Off ch=9 n=39 v=100
288000 On ch=9 n=35 v=100
288000 Par ch=9 c=11 v=103
288150 Par ch=9 c=11 v=102
288210 Par ch=9 c=11 v=101
288240 Par ch=9 c=11 v=100
288300 Par ch=9 c=11 v=99
288330 Par ch=9 c=11 v=98
288360 Par ch=9 c=11 v=96
288390 Par ch=9 c=11 v=95
288420 Par ch=9 c=11 v=94
288448 Par ch=9 c=11 v=92
288780 Par ch=9 c=11 v=93
289110 Par ch=9 c=11 v=94
289350 Par ch=9 c=11 v=95
289560 Par ch=9 c=11 v=96
289740 Par ch=9 c=11 v=97
289890 Par ch=9 c=11 v=98
290040 Par ch=9 c=11 v=99
290190 Par ch=9 c=11 v=100
290340 Par ch=9 c=11 v=101
290460 Par ch=9 c=11 v=102
290580 Par ch=9 c=11 v=103
290700 Par ch=9 c=11 v=104
290790 Par ch=9 c=11 v=105
290910 Par ch=9 c=11 v=106
291000 Par ch=9 c=11 v=107
291090 Par ch=9 c=11 v=108
291180 Par ch=9 c=11 v=109
291300 Par ch=9 c=11 v=110
291360 Par ch=9 c=11 v=111
291840 Off ch=9 n=35 v=100
291840 On ch=9 n=37 v=100
291840 Par ch=9 c=11 v=108
292020 Par ch=9 c=11 v=107
292110 Par ch=9 c=11 v=106
292140 Par ch=9 c=11 v=105
292200 Par ch=9 c=11 v=104
292224 Par ch=9 c=11 v=103
292560 Par ch=9 c=11 v=103
292860 Par ch=9 c=11 v=104
293070 Par ch=9 c=11 v=105
293280 Par ch=9 c=11 v=106
293430 Par ch=9 c=11 v=107
293580 Par ch=9 c=11 v=108
293730 Par ch=9 c=11 v=109
293760 Off ch=9 n=37 v=100
293760 On ch=9 n=38 v=100
293760 Par ch=9 c=11 v=97
294120 Par ch=9 c=11 v=98
294270 Par ch=9 c=11 v=99
294390 Par ch=9 c=11 v=100
294480 Par ch=9 c=11 v=101
294570 Par ch=9 c=11 v=102
294630 Par ch=9 c=11 v=103
294720 Par ch=9 c=11 v=104
294780 Par ch=9 c=11 v=105
294840 Par ch=9 c=11 v=106
294900 Par ch=9 c=11 v=107
294930 Par ch=9 c=11 v=108
294990 Par ch=9 c=11 v=109
295050 Par ch=9 c=11 v=110
295080 Par ch=9 c=11 v=111
295140 Par ch=9 c=11 v=112
295170 Par ch=9 c=11 v=113
295230 Par ch=9 c=11 v=114
295260 Par ch=9 c=11 v=115
295320 Par ch=9 c=11 v=116
295350 Par ch=9 c=11 v=117
295380 Par ch=9 c=11 v=118
295440 Par ch=9 c=11 v=119
295470 Par ch=9 c=11 v=120
295500 Par ch=9 c=11 v=121
295520 Par ch=9 c=11 v=122
295680 Off ch=9 n=38 v=100
295680 On ch=9 n=39 v=100
295680 Par ch=9 c=11 v=105
295712 Par ch=9 c=11 v=121
295742 Par ch=9 c=11 v=117
295772 Par ch=9 c=11 v=114
295802 Par ch=9 c=11 v=111
295832 Par ch=9 c=11 v=108
295862 Par ch=9 c=11 v=106
295892 Par ch=9 c=11 v=104
295922 Par ch=9 c=11 v=102
295952 Par ch=9 c=11 v=101
295982 Par ch=9 c=11 v=100
296012 Par ch=9 c=11 v=99
296128 Par ch=9 c=11 v=91
297838 Par ch=9 c=11 v=92
298528 Par ch=9 c=11 v=93
299068 Par ch=9 c=11 v=94
299518 Par ch=9 c=11 v=95
299908 Par ch=9 c=11 v=96
300268 Par ch=9 c=11 v=97
300598 Par ch=9 c=11 v=98
300928 Par ch=9 c=11 v=99
301198 Par ch=9 c=11 v=100
301468 Par ch=9 c=11 v=101
301738 Par ch=9 c=11 v=102
301978 Par ch=9 c=11 v=103
302218 Par ch=9 c=11 v=104
302458 Par ch=9 c=11 v=105
302668 Par ch=9 c=11 v=106
302880 Par ch=9 c=11 v=107
303360 Off ch=9 n=39 v=100
303360 On ch=9 n=35 v=100
303360 Par ch=9 c=11 v=103
303510 Par ch=9 c=11 v=102
303570 Par ch=9 c=11 v=101
303600 Par ch=9 c=11 v=100
303660 Par ch=9 c=11 v=99
303690 Par ch=9 c=11 v=98
303720 Par ch=9 c=11 v=96
303750 Par ch=9 c=11 v=95
303780 Par ch=9 c=11 v=94
303808 Par ch=9 c=11 v=92
304140 Par ch=9 c=11 v=93
304470 Par ch=9 c=11 v=94
304710 Par ch=9 c=11 v=95
304920 Par ch=9 c=11 v=96
305100 Par ch=9 c=11 v=97
305250 Par ch=9 c=11 v=98
305400 Par ch=9 c=11 v=99
305550 Par ch=9 c=11 v=100
305700 Par ch=9 c=11 v=101
305820 Par ch=9 c=11 v=102
305940 Par ch=9 c=11 v=103
306060 Par ch=9 c=11 v=104
306150 Par ch=9 c=11 v=105
306270 Par ch=9 c=11 v=106
306360 Par ch=9 c=11 v=107
306450 Par ch=9 c=11 v=108
306540 Par ch=9 c=11 v=109
306660 Par ch=9 c=11 v=110
306720 Par ch=9 c=11 v=111
307200 Off ch=9 n=35 v=100
307200 On ch=9 n=37 v=100
307200 Par ch=9 c=11 v=108
307380 Par ch=9 c=11 v=107
307470 Par ch=9 c=11 v=106
307500 Par ch=9 c=11 v=105
307560 Par ch=9 c=11 v=104
307584 Par ch=9 c=11 v=103
307920 Par ch=9 c=11 v=103
308220 Par ch=9 c=11 v=104
308430 Par ch=9 c=11 v=105
308640 Par ch=9 c=11 v=106
308790 Par ch=9 c=11 v=107
308940 Par ch=9 c=11 v=108
309090 Par ch=9 c=11 v=109
309120 Off ch=9 n=37 v=100
309120 On ch=9 n=38 v=100
309120 Par ch=9 c=11 v=97
309480 Par ch=9 c=11 v=98
309630 Par ch=9 c=11 v=99
309750 Par ch=9 c=11 v=100
309840 Par ch=9 c=11 v=101
309930 Par ch=9 c=11 v=102
309990 Par ch=9 c=11 v=103
310080 Par ch=9 c=11 v=104
310140 Par ch=9 c=11 v=105
310200 Par ch=9 c=11 v=106
310260 Par ch=9 c=11 v=107
310290 Par ch=9 c=11 v=108
310350 Par ch=9 c=11 v=109
310410 Par ch=9 c=11 v=110
310440 Par ch=9 c=11 v=111
310500 Par ch=9 c=11 v=112
310530 Par ch=9 c=11 v=113
310590 Par ch=9 c=11 v=114
310620 Par ch=9 c=11 v=115
310680 Par ch=9 c=11 v=116
310710 Par ch=9 c=11 v=117
310740 Par ch=9 c=11 v=118
310800 Par ch=9 c=11 v=119
310830 Par ch=9 c=11 v=120
310860 Par ch=9 c=11 v=121
310880 Par ch=9 c=11 v=122
311040 Off ch=9 n=38 v=100
311040 On ch=9 n=35 v=100
311040 Par ch=9 c=11 v=90
311820 Par ch=9 c=11 v=91
312150 Par ch=9 c=11 v=92
312390 Par ch=9 c=11 v=93
312600 Par ch=9 c=11 v=94
312780 Par ch=9 c=11 v=95
312960 Par ch=9 c=11 v=96
313110 Par ch=9 c=11 v=97
313260 Par ch=9 c=11 v=98
313380 Par ch=9 c=11 v=99
313500 Par ch=9 c=11 v=100
313620 Par ch=9 c=11 v=101
313740 Par ch=9 c=11 v=102
313860 Par ch=9 c=11 v=103
313950 Par ch=9 c=11 v=104
314070 Par ch=9 c=11 v=105
314160 Par ch=9 c=11 v=106
314250 Par ch=9 c=11 v=107
314340 Par ch=9 c=11 v=108
314430 Par ch=9 c=11 v=109
314520 Par ch=9 c=11 v=110
314610 Par ch=9 c=11 v=111
314700 Par ch=9 c=11 v=112
314760 Par ch=9 c=11 v=113
314880 Off ch=9 n=35 v=100
314880 On ch=9 n=37 v=100
314880 Par ch=9 c=11 v=91
315540 Par ch=9 c=11 v=92
315780 Par ch=9 c=11 v=93
315990 Par ch=9 c=11 v=94
316170 Par ch=9 c=11 v=95
316320 Par ch=9 c=11 v=96
316440 Par ch=9 c=11 v=97
316560 Par ch=9 c=11 v=98
316680 Par ch=9 c=11 v=99
316800 Par ch=9 c=11 v=100
316890 Par ch=9 c=11 v=101
316980 Par ch=9 c=11 v=102
317070 Par ch=9 c=11 v=103
317160 Par ch=9 c=11 v=104
317250 Par ch=9 c=11 v=105
317340 Par ch=9 c=11 v=106
317430 Par ch=9 c=11 v=107
317490 Par ch=9 c=11 v=108
317580 Par ch=9 c=11 v=109
317640 Par ch=9 c=11 v=110
317730 Par ch=9 c=11 v=111
317790 Par ch=9 c=11 v=112
317850 Par ch=9 c=11 v=113
317910 Par ch=9 c=11 v=114
318000 Par ch=9 c=11 v=115
318060 Par ch=9 c=11 v=116
318120 Par ch=9 c=11 v=117
318720 Off ch=9 n=37 v=100
318720 On ch=9 n=39 v=100
318720 Par ch=9 c=11 v=105
318750 Par ch=9 c=11 v=106
318840 Par ch=9 c=11 v=107
318960 Par ch=9 c=11 v=108
319050 Par ch=9 c=11 v=109
319170 Par ch=9 c=11 v=110
319320 Par ch=9 c=11 v=111
319440 Par ch=9 c=11 v=112
319590 Par ch=9 c=11 v=113
319740 Par ch=9 c=11 v=114
319890 Par ch=9 c=11 v=115
320070 Par ch=9 c=11 v=116
320280 Par ch=9 c=11 v=117
320520 Par ch=9 c=11 v=118
320850 Par ch=9 c=11 v=119
322560 Par ch=9 c=11 v=118
323220 Par ch=9 c=11 v=117
323490 Par ch=9 c=11 v=116
323700 Par ch=9 c=11 v=115
323880 Par ch=9 c=11 v=114
324030 Par ch=9 c=11 v=113
324180 Par ch=9 c=11 v=112
324300 Par ch=9 c=11 v=111
324420 Par ch=9 c=11 v=110
324540 Par ch=9 c=11 v=109
324630 Par ch=9 c=11 v=108
324750 Par ch=9 c=11 v=107
324840 Par ch=9 c=11 v=106
324930 Par ch=9 c=11 v=105
325020 Par ch=9 c=11 v=104
325110 Par ch=9 c=11 v=103
325200 Par ch=9 c=11 v=102
325260 Par ch=9 c=11 v=101
325350 Par ch=9 c=11 v=100
325410 Par ch=9 c=11 v=99
325500 Par ch=9 c=11 v=98
325560 Par ch=9 c=11 v=97
325650 Par ch=9 c=11 v=96
325710 Par ch=9 c=11 v=95
325770 Par ch=9 c=11 v=94
325830 Par ch=9 c=11 v=93
325890 Par ch=9 c=11 v=92
325980 Par ch=9 c=11 v=91
326040 Par ch=9 c=11 v=90
326100 Par ch=9 c=11 v=89
326136 Par ch=9 c=11 v=88
326400 Off ch=9 n=39 v=100
326400 On ch=9 n=35 v=100
326400 Par ch=9 c=11 v=90
327180 Par ch=9 c=11 v=91
327510 Par ch=9 c=11 v=92
327750 Par ch=9 c=11 v=93
327960 Par ch=9 c=11 v=94
328140 Par ch=9 c=11 v=95
328320 Par ch=9 c=11 v=96
328470 Par ch=9 c=11 v=97
328620 Par ch=9 c=11 v=98
328740 Par ch=9 c=11 v=99
328860 Par ch=9 c=11 v=100
328980 Par ch=9 c=11 v=101
329100 Par ch=9 c=11 v=102
329220 Par ch=9 c=11 v=103
329310 Par ch=9 c=11 v=104
329430 Par ch=9 c=11 v=105
329520 Par ch=9 c=11 v=106
329610 Par ch=9 c=11 v=107
329700 Par ch=9 c=11 v=108
329790 Par ch=9 c=11 v=109
329880 Par ch=9 c=11 v=110
329970 Par ch=9 c=11 v=111
330060 Par ch=9 c=11 v=112
330120 Par ch=9 c=11 v=113
330240 Off ch=9 n=35 v=100
330240 On ch=9 n=37 v=100
330240 Par ch=9 c=11 v=91
330900 Par ch=9 c=11 v=92
331140 Par ch=9 c=11 v=93
331350 Par ch=9 c=11 v=94
331530 Par ch=9 c=11 v=95
331680 Par ch=9 c=11 v=96
331800 Par ch=9 c=11 v=97
331920 Par ch=9 c=11 v=98
332040 Par ch=9 c=11 v=99
332160 Par ch=9 c=11 v=100
332250 Par ch=9 c=11 v=101
332340 Par ch=9 c=11 v=102
332430 Par ch=9 c=11 v=103
332520 Par ch=9 c=11 v=104
332610 Par ch=9 c=11 v=105
332700 Par ch=9 c=11 v=106
332790 Par ch=9 c=11 v=107
332850 Par ch=9 c=11 v=108
332940 Par ch=9 c=11 v=109
333000 Par ch=9 c=11 v=110
333090 Par ch=9 c=11 v=111
333150 Par ch=9 c=11 v=112
334080 Off ch=9 n=37 v=100
334080 On ch=9 n=39 v=100
334080 Par ch=9 c=11 v=105
334110 Par ch=9 c=11 v=106
334200 Par ch=9 c=11 v=107
334320 Par ch=9 c=11 v=108
334410 Par ch=9 c=11 v=109
334530 Par ch=9 c=11 v=110
334680 Par ch=9 c=11 v=111
334800 Par ch=9 c=11 v=112
334950 Par ch=9 c=11 v=113
335100 Par ch=9 c=11 v=114
335250 Par ch=9 c=11 v=115
335430 Par ch=9 c=11 v=116
335640 Par ch=9 c=11 v=117
335880 Par ch=9 c=11 v=118
336210 Par ch=9 c=11 v=119
337920 Par ch=9 c=11 v=118
338580 Par ch=9 c=11 v=117
338850 Par ch=9 c=11 v=116
339060 Par ch=9 c=11 v=115
339240 Par ch=9 c=11 v=114
339390 Par ch=9 c=11 v=113
339540 Par ch=9 c=11 v=112
339660 Par ch=9 c=11 v=111
339780 Par ch=9 c=11 v=110
339900 Par ch=9 c=11 v=109
339990 Par ch=9 c=11 v=108
340110 Par ch=9 c=11 v=107
340200 Par ch=9 c=11 v=106
340290 Par ch=9 c=11 v=105
340380 Par ch=9 c=11 v=104
340470 Par ch=9 c=11 v=103
340560 Par ch=9 c=11 v=102
340584 Off ch=9 n=39 v=100
340620 Par ch=9 c=11 v=101
372480 On ch=9 n=35 v=88
372480 Par ch=9 c=11 v=44
372504 Par ch=9 c=11 v=41
373284 Par ch=9 c=11 v=42
373614 Par ch=9 c=11 v=43
373854 Par ch=9 c=11 v=44
374064 Par ch=9 c=11 v=45
374244 Par ch=9 c=11 v=46
374424 Par ch=9 c=11 v=47
374574 Par ch=9 c=11 v=48
374724 Par ch=9 c=11 v=49
374844 Par ch=9 c=11 v=50
374964 Par ch=9 c=11 v=51
375084 Par ch=9 c=11 v=52
375204 Par ch=9 c=11 v=53
375324 Par ch=9 c=11 v=54
375414 Par ch=9 c=11 v=55
375534 Par ch=9 c=11 v=56
375624 Par ch=9 c=11 v=57
375714 Par ch=9 c=11 v=58
375804 Par ch=9 c=11 v=59
376320 Off ch=9 n=35 v=64
376320 On ch=9 n=37 v=88
376320 Par ch=9 c=11 v=59
376380 Par ch=9 c=11 v=58
376410 Par ch=9 c=11 v=57
376440 Par ch=9 c=11 v=55
376470 Par ch=9 c=11 v=53
376500 Par ch=9 c=11 v=50
376512 Par ch=9 c=11 v=48
377004 Par ch=9 c=11 v=43
377244 Par ch=9 c=11 v=44
377454 Par ch=9 c=11 v=45
377634 Par ch=9 c=11 v=46
377784 Par ch=9 c=11 v=47
377904 Par ch=9 c=11 v=48
378024 Par ch=9 c=11 v=49
378144 Par ch=9 c=11 v=50
378264 Par ch=9 c=11 v=51
378354 Par ch=9 c=11 v=52
378444 Par ch=9 c=11 v=53
378534 Par ch=9 c=11 v=54
378624 Par ch=9 c=11 v=55
378714 Par ch=9 c=11 v=56
378804 Par ch=9 c=11 v=57
378894 Par ch=9 c=11 v=58
378954 Par ch=9 c=11 v=59
379044 Par ch=9 c=11 v=60
379104 Par ch=9 c=11 v=61
379194 Par ch=9 c=11 v=62
379254 Par ch=9 c=11 v=63
379314 Par ch=9 c=11 v=64
379374 Par ch=9 c=11 v=65
380160 Off ch=9 n=37 v=64
380160 On ch=9 n=39 v=88
380184 Par ch=9 c=11 v=56
380214 Par ch=9 c=11 v=57
380304 Par ch=9 c=11 v=58
380424 Par ch=9 c=11 v=59
380514 Par ch=9 c=11 v=60
380634 Par ch=9 c=11 v=61
380784 Par ch=9 c=11 v=62
380904 Par ch=9 c=11 v=63
381054 Par ch=9 c=11 v=64
381204 Par ch=9 c=11 v=65
381354 Par ch=9 c=11 v=66
381534 Par ch=9 c=11 v=67
381744 Par ch=9 c=11 v=68
381984 Par ch=9 c=11 v=69
382314 Par ch=9 c=11 v=70
384024 Par ch=9 c=11 v=69
384684 Par ch=9 c=11 v=68
384954 Par ch=9 c=11 v=67
385164 Par ch=9 c=11 v=66
385344 Par ch=9 c=11 v=65
385494 Par ch=9 c=11 v=64
385644 Par ch=9 c=11 v=63
385764 Par ch=9 c=11 v=62
385884 Par ch=9 c=11 v=61
386004 Par ch=9 c=11 v=60
386094 Par ch=9 c=11 v=59
386214 Par ch=9 c=11 v=58
386304 Par ch=9 c=11 v=57
386394 Par ch=9 c=11 v=56
386484 Par ch=9 c=11 v=55
386574 Par ch=9 c=11 v=54
386664 Par ch=9 c=11 v=53
386724 Par ch=9 c=11 v=52
386814 Par ch=9 c=11 v=51
386874 Par ch=9 c=11 v=50
386964 Par ch=9 c=11 v=49
387024 Par ch=9 c=11 v=48
387114 Par ch=9 c=11 v=47
387174 Par ch=9 c=11 v=46
387234 Par ch=9 c=11 v=45
387294 Par ch=9 c=11 v=44
387354 Par ch=9 c=11 v=43
387444 Par ch=9 c=11 v=42
387504 Par ch=9 c=11 v=41
387564 Par ch=9 c=11 v=40
387600 Par ch=9 c=11 v=39
387720 Off ch=9 n=39 v=64
387840 On ch=9 n=35 v=88
387840 Par ch=9 c=11 v=44
387864 Par ch=9 c=11 v=41
388644 Par ch=9 c=11 v=42
388974 Par ch=9 c=11 v=43
389214 Par ch=9 c=11 v=44
389424 Par ch=9 c=11 v=45
389604 Par ch=9 c=11 v=46
389784 Par ch=9 c=11 v=47
389934 Par ch=9 c=11 v=48
390084 Par ch=9 c=11 v=49
390204 Par ch=9 c=11 v=50
390324 Par ch=9 c=11 v=51
390444 Par ch=9 c=11 v=52
391680 Off ch=9 n=35 v=64
391680 On ch=9 n=37 v=88
391920 Par ch=9 c=11 v=52
391950 Par ch=9 c=11 v=49
391980 Par ch=9 c=11 v=45
392010 Par ch=9 c=11 v=41
392016 Par ch=9 c=11 v=40
392364 Par ch=9 c=11 v=43
392604 Par ch=9 c=11 v=44
392814 Par ch=9 c=11 v=45
392994 Par ch=9 c=11 v=46
393144 Par ch=9 c=11 v=47
393264 Par ch=9 c=11 v=48
393384 Par ch=9 c=11 v=49
393504 Par ch=9 c=11 v=50
393624 Par ch=9 c=11 v=51
393714 Par ch=9 c=11 v=52
393804 Par ch=9 c=11 v=53
393894 Par ch=9 c=11 v=54
393984 Par ch=9 c=11 v=55
394074 Par ch=9 c=11 v=56
394164 Par ch=9 c=11 v=57
394254 Par ch=9 c=11 v=58
394314 Par ch=9 c=11 v=59
394404 Par ch=9 c=11 v=60
394464 Par ch=9 c=11 v=61
394554 Par ch=9 c=11 v=62
394614 Par ch=9 c=11 v=63
394674 Par ch=9 c=11 v=64
394734 Par ch=9 c=11 v=65
395520 Off ch=9 n=37 v=64
395520 On ch=9 n=39 v=88
395544 Par ch=9 c=11 v=56
395574 Par ch=9 c=11 v=57
395664 Par ch=9 c=11 v=58
395784 Par ch=9 c=11 v=59
395874 Par ch=9 c=11 v=60
395994 Par ch=9 c=11 v=61
396144 Par ch=9 c=11 v=62
396264 Par ch=9 c=11 v=63
396414 Par ch=9 c=11 v=64
396564 Par ch=9 c=11 v=65
396714 Par ch=9 c=11 v=66
396894 Par ch=9 c=11 v=67
397104 Par ch=9 c=11 v=68
397344 Par ch=9 c=11 v=69
397674 Par ch=9 c=11 v=70
399384 Par ch=9 c=11 v=69
400044 Par ch=9 c=11 v=68
400314 Par ch=9 c=11 v=67
400524 Par ch=9 c=11 v=66
400704 Par ch=9 c=11 v=65
400854 Par ch=9 c=11 v=64
401004 Par ch=9 c=11 v=63
401124 Par ch=9 c=11 v=62
401244 Par ch=9 c=11 v=61
401364 Par ch=9 c=11 v=60
401454 Par ch=9 c=11 v=59
401574 Par ch=9 c=11 v=58
401664 Par ch=9 c=11 v=57
401754 Par ch=9 c=11 v=56
401844 Par ch=9 c=11 v=55
401934 Par ch=9 c=11 v=54
402024 Par ch=9 c=11 v=53
402084 Par ch=9 c=11 v=52
402174 Par ch=9 c=11 v=51
402234 Par ch=9 c=11 v=50
402324 Par ch=9 c=11 v=49
402384 Par ch=9 c=11 v=48
402474 Par ch=9 c=11 v=47
402534 Par ch=9 c=11 v=46
402594 Par ch=9 c=11 v=45
402654 Par ch=9 c=11 v=44
402714 Par ch=9 c=11 v=43
402804 Par ch=9 c=11 v=42
402864 Par ch=9 c=11 v=41
402924 Par ch=9 c=11 v=40
402960 Par ch=9 c=11 v=39
403080 Off ch=9 n=39 v=64
403200 On ch=9 n=36 v=88
403200 Par ch=9 c=11 v=49
403224 Par ch=9 c=11 v=46
404004 Par ch=9 c=11 v=47
404334 Par ch=9 c=11 v=48
404574 Par ch=9 c=11 v=49
404784 Par ch=9 c=11 v=50
404964 Par ch=9 c=11 v=51
405144 Par ch=9 c=11 v=52
405294 Par ch=9 c=11 v=53
405444 Par ch=9 c=11 v=54
405564 Par ch=9 c=11 v=55
405684 Par ch=9 c=11 v=56
405804 Par ch=9 c=11 v=57
407040 Off ch=9 n=36 v=64
407040 On ch=9 n=38 v=88
407280 Par ch=9 c=11 v=57
407310 Par ch=9 c=11 v=54
407340 Par ch=9 c=11 v=50
407370 Par ch=9 c=11 v=46
407376 Par ch=9 c=11 v=45
407724 Par ch=9 c=11 v=48
407964 Par ch=9 c=11 v=49
408174 Par ch=9 c=11 v=50
408354 Par ch=9 c=11 v=51
408504 Par ch=9 c=11 v=52
408624 Par ch=9 c=11 v=53
408744 Par ch=9 c=11 v=54
408864 Par ch=9 c=11 v=55
408984 Par ch=9 c=11 v=56
409074 Par ch=9 c=11 v=57
409164 Par ch=9 c=11 v=58
409254 Par ch=9 c=11 v=59
409344 Par ch=9 c=11 v=60
409434 Par ch=9 c=11 v=61
409524 Par ch=9 c=11 v=62
409614 Par ch=9 c=11 v=63
409674 Par ch=9 c=11 v=64
409764 Par ch=9 c=11 v=65
409824 Par ch=9 c=11 v=66
409914 Par ch=9 c=11 v=67
409974 Par ch=9 c=11 v=68
410034 Par ch=9 c=11 v=69
410094 Par ch=9 c=11 v=70
410880 Off ch=9 n=38 v=64
410880 On ch=9 n=40 v=88
410904 Par ch=9 c=11 v=61
410934 Par ch=9 c=11 v=62
411024 Par ch=9 c=11 v=63
411144 Par ch=9 c=11 v=64
411234 Par ch=9 c=11 v=65
411354 Par ch=9 c=11 v=66
411504 Par ch=9 c=11 v=67
411624 Par ch=9 c=11 v=68
411774 Par ch=9 c=11 v=69
411924 Par ch=9 c=11 v=70
412074 Par ch=9 c=11 v=71
412254 Par ch=9 c=11 v=72
412464 Par ch=9 c=11 v=73
412704 Par ch=9 c=11 v=74
413034 Par ch=9 c=11 v=75
414744 Par ch=9 c=11 v=74
415404 Par ch=9 c=11 v=73
415674 Par ch=9 c=11 v=72
415884 Par ch=9 c=11 v=71
416064 Par ch=9 c=11 v=70
416214 Par ch=9 c=11 v=69
416364 Par ch=9 c=11 v=68
416484 Par ch=9 c=11 v=67
416604 Par ch=9 c=11 v=66
416724 Par ch=9 c=11 v=65
416814 Par ch=9 c=11 v=64
416934 Par ch=9 c=11 v=63
417024 Par ch=9 c=11 v=62
417114 Par ch=9 c=11 v=61
417204 Par ch=9 c=11 v=60
417294 Par ch=9 c=11 v=59
417384 Par ch=9 c=11 v=58
417444 Par ch=9 c=11 v=57
417534 Par ch=9 c=11 v=56
417594 Par ch=9 c=11 v=55
417684 Par ch=9 c=11 v=54
417744 Par ch=9 c=11 v=53
417834 Par ch=9 c=11 v=52
417894 Par ch=9 c=11 v=51
417954 Par ch=9 c=11 v=50
418014 Par ch=9 c=11 v=49
418074 Par ch=9 c=11 v=48
418164 Par ch=9 c=11 v=47
418224 Par ch=9 c=11 v=46
418284 Par ch=9 c=11 v=45
418320 Par ch=9 c=11 v=44
418440 Off ch=9 n=40 v=64
418560 On ch=9 n=36 v=88
418560 Par ch=9 c=11 v=49
418584 Par ch=9 c=11 v=46
419364 Par ch=9 c=11 v=47
419694 Par ch=9 c=11 v=48
419934 Par ch=9 c=11 v=49
420144 Par ch=9 c=11 v=50
420324 Par ch=9 c=11 v=51
420504 Par ch=9 c=11 v=52
420654 Par ch=9 c=11 v=53
420804 Par ch=9 c=11 v=54
420924 Par ch=9 c=11 v=55
421044 Par ch=9 c=11 v=56
421164 Par ch=9 c=11 v=57
422400 Off ch=9 n=36 v=64
422400 On ch=9 n=38 v=88
422640 Par ch=9 c=11 v=57
422670 Par ch=9 c=11 v=54
422700 Par ch=9 c=11 v=50
422730 Par ch=9 c=11 v=46
422736 Par ch=9 c=11 v=45
423084 Par ch=9 c=11 v=48
423324 Par ch=9 c=11 v=49
423534 Par ch=9 c=11 v=50
423714 Par ch=9 c=11 v=51
423864 Par ch=9 c=11 v=52
423984 Par ch=9 c=11 v=53
424104 Par ch=9 c=11 v=54
424224 Par ch=9 c=11 v=55
424344 Par ch=9 c=11 v=56
424434 Par ch=9 c=11 v=57
424524 Par ch=9 c=11 v=58
424614 Par ch=9 c=11 v=59
424704 Par ch=9 c=11 v=60
424794 Par ch=9 c=11 v=61
424884 Par ch=9 c=11 v=62
424974 Par ch=9 c=11 v=63
425034 Par ch=9 c=11 v=64
425124 Par ch=9 c=11 v=65
425184 Par ch=9 c=11 v=66
425274 Par ch=9 c=11 v=67
425334 Par ch=9 c=11 v=68
425394 Par ch=9 c=11 v=69
425454 Par ch=9 c=11 v=70
426240 Off ch=9 n=38 v=64
426240 On ch=9 n=40 v=88
426264 Par ch=9 c=11 v=61
426294 Par ch=9 c=11 v=62
426384 Par ch=9 c=11 v=63
426504 Par ch=9 c=11 v=64
426594 Par ch=9 c=11 v=65
426714 Par ch=9 c=11 v=66
426864 Par ch=9 c=11 v=67
426984 Par ch=9 c=11 v=68
427134 Par ch=9 c=11 v=69
427284 Par ch=9 c=11 v=70
427434 Par ch=9 c=11 v=71
427614 Par ch=9 c=11 v=72
427824 Par ch=9 c=11 v=73
428064 Par ch=9 c=11 v=74
428394 Par ch=9 c=11 v=75
430104 Par ch=9 c=11 v=74
430764 Par ch=9 c=11 v=73
431034 Par ch=9 c=11 v=72
431244 Par ch=9 c=11 v=71
431424 Par ch=9 c=11 v=70
431574 Par ch=9 c=11 v=69
431724 Par ch=9 c=11 v=68
431844 Par ch=9 c=11 v=67
431964 Par ch=9 c=11 v=66
432084 Par ch=9 c=11 v=65
432174 Par ch=9 c=11 v=64
432294 Par ch=9 c=11 v=63
432384 Par ch=9 c=11 v=62
432474 Par ch=9 c=11 v=61
432564 Par ch=9 c=11 v=60
432654 Par ch=9 c=11 v=59
432744 Par ch=9 c=11 v=58
432804 Par ch=9 c=11 v=57
432894 Par ch=9 c=11 v=56
432954 Par ch=9 c=11 v=55
433044 Par ch=9 c=11 v=54
433104 Par ch=9 c=11 v=53
433194 Par ch=9 c=11 v=52
433254 Par ch=9 c=11 v=51
433314 Par ch=9 c=11 v=50
433374 Par ch=9 c=11 v=49
433434 Par ch=9 c=11 v=48
433524 Par ch=9 c=11 v=47
433584 Par ch=9 c=11 v=46
433644 Par ch=9 c=11 v=45
433680 Par ch=9 c=11 v=44
433800 Off ch=9 n=40 v=64
433800 Meta TrkEnd
TrkEnd
MTrk
0 SeqSpec 43 00 01 ff
0 Meta TrkName "Horn(f)"
1920 PrCh ch=10 p=6
1930 Par ch=10 c=7 v=115
1940 Par ch=10 c=10 v=64
1950 Par ch=10 c=11 v=127
1960 Par ch=10 c=20 v=127
1970 Par ch=10 c=91 v=0
1980 Par ch=10 c=93 v=0
1990 Par ch=10 c=94 v=0
2000 Par ch=10 c=101 v=0
2010 Par ch=10 c=100 v=0
2020 Par ch=10 c=6 v=2
2030 Par ch=10 c=101 v=127
2040 Par ch=10 c=100 v=127
340584 Par ch=10 c=11 v=127
340740 On ch=10 n=70 v=88
340740 On ch=10 n=58 v=88
340800 Par ch=10 c=7 v=127
341000 Off ch=10 n=58 v=64
341000 Off ch=10 n=70 v=64
341220 On ch=10 n=73 v=88
341220 On ch=10 n=61 v=88
341480 Off ch=10 n=61 v=64
341480 Off ch=10 n=73 v=64
341700 On ch=10 n=73 v=88
341700 On ch=10 n=61 v=88
342180 On ch=10 n=75 v=88
342180 On ch=10 n=63 v=88
342200 Off ch=10 n=61 v=64
342200 Off ch=10 n=73 v=64
342440 Off ch=10 n=63 v=64
342440 Off ch=10 n=75 v=64
342660 On ch=10 n=70 v=88
342660 On ch=10 n=58 v=88
342920 Off ch=10 n=58 v=64
342920 Off ch=10 n=70 v=64
343140 On ch=10 n=68 v=88
343140 On ch=10 n=56 v=88
343400 Off ch=10 n=56 v=64
343400 Off ch=10 n=68 v=64
343620 On ch=10 n=70 v=88
343620 On ch=10 n=58 v=88
344400 Off ch=10 n=58 v=64
344400 Off ch=10 n=70 v=64
344580 On ch=10 n=68 v=88
344580 On ch=10 n=56 v=88
345060 On ch=10 n=70 v=88
345060 On ch=10 n=58 v=88
345120 Off ch=10 n=56 v=64
345120 Off ch=10 n=68 v=64
345320 Off ch=10 n=58 v=64
345320 Off ch=10 n=70 v=64
345540 On ch=10 n=73 v=88
345540 On ch=10 n=61 v=88
346020 On ch=10 n=75 v=88
346020 On ch=10 n=63 v=88
346060 Off ch=10 n=61 v=64
346060 Off ch=10 n=73 v=64
346280 Off ch=10 n=63 v=64
346280 Off ch=10 n=75 v=64
346500 On ch=10 n=70 v=88
346500 On ch=10 n=58 v=88
346760 Off ch=10 n=58 v=64
346760 Off ch=10 n=70 v=64
346980 On ch=10 n=68 v=88
346980 On ch=10 n=56 v=88
347240 Off ch=10 n=56 v=64
347240 Off ch=10 n=68 v=64
347460 On ch=10 n=70 v=88
347460 On ch=10 n=58 v=88
348420 On ch=10 n=68 v=88
348420 On ch=10 n=56 v=88
348480 Off ch=10 n=58 v=64
348480 Off ch=10 n=70 v=64
348680 Off ch=10 n=56 v=64
348680 Off ch=10 n=68 v=64
348900 On ch=10 n=70 v=88
348900 On ch=10 n=58 v=88
349160 Off ch=10 n=58 v=64
349160 Off ch=10 n=70 v=64
349380 On ch=10 n=68 v=88
349380 On ch=10 n=56 v=88
349860 On ch=10 n=66 v=88
349860 On ch=10 n=54 v=88
349880 Off ch=10 n=56 v=64
349880 Off ch=10 n=68 v=64
350140 Off ch=10 n=54 v=64
350140 Off ch=10 n=66 v=64
350340 On ch=10 n=65 v=88
350340 On ch=10 n=53 v=88
350580 Off ch=10 n=53 v=64
350580 Off ch=10 n=65 v=64
350820 On ch=10 n=61 v=88
350820 On ch=10 n=49 v=88
351160 Off ch=10 n=49 v=64
351160 Off ch=10 n=61 v=64
351300 On ch=10 n=63 v=88
351300 On ch=10 n=51 v=88
352156 Off ch=10 n=51 v=64
352156 Off ch=10 n=63 v=64
352260 On ch=10 n=61 v=88
352260 On ch=10 n=49 v=88
352740 On ch=10 n=63 v=88
352740 On ch=10 n=51 v=88
352760 Off ch=10 n=49 v=64
352760 Off ch=10 n=61 v=64
353000 Off ch=10 n=51 v=64
353000 Off ch=10 n=63 v=64
353220 On ch=10 n=65 v=88
353220 On ch=10 n=53 v=88
353700 On ch=10 n=66 v=88
353700 On ch=10 n=54 v=88
353760 Off ch=10 n=53 v=64
353760 Off ch=10 n=65 v=64
353960 Off ch=10 n=54 v=64
353960 Off ch=10 n=66 v=64
354180 On ch=10 n=68 v=88
354180 On ch=10 n=56 v=88
354400 Off ch=10 n=56 v=64
354400 Off ch=10 n=68 v=64
354660 On ch=10 n=70 v=88
354660 On ch=10 n=58 v=88
354880 Off ch=10 n=58 v=64
354880 Off ch=10 n=70 v=64
355140 On ch=10 n=63 v=88
355140 On ch=10 n=51 v=88
355176 Par ch=10 c=7 v=115
355224 Par ch=10 c=11 v=98
355254 Par ch=10 c=11 v=99
355314 Par ch=10 c=11 v=100
355404 Par ch=10 c=11 v=101
355494 Par ch=10 c=11 v=102
355584 Par ch=10 c=11 v=103
355704 Par ch=10 c=11 v=104
355824 Par ch=10 c=11 v=105
355974 Par ch=10 c=11 v=106
356154 Par ch=10 c=11 v=107
357600 Par ch=10 c=11 v=107
358230 Par ch=10 c=11 v=106
358500 Par ch=10 c=11 v=105
358680 Par ch=10 c=11 v=104
358860 Par ch=10 c=11 v=103
359010 Par ch=10 c=11 v=102
359130 Par ch=10 c=11 v=101
359250 Par ch=10 c=11 v=100
359370 Par ch=10 c=11 v=99
359490 Par ch=10 c=11 v=98
359580 Par ch=10 c=11 v=97
359670 Par ch=10 c=11 v=96
359760 Par ch=10 c=11 v=95
359850 Par ch=10 c=11 v=94
359940 Par ch=10 c=11 v=93
360030 Par ch=10 c=11 v=92
360090 Par ch=10 c=11 v=91
360180 Par ch=10 c=11 v=90
360240 Par ch=10 c=11 v=89
360330 Par ch=10 c=11 v=88
360390 Par ch=10 c=11 v=87
360450 Par ch=10 c=11 v=86
360540 Par ch=10 c=11 v=85
360600 Par ch=10 c=11 v=84
360660 Par ch=10 c=11 v=83
360720 Par ch=10 c=11 v=82
360768 Par ch=10 c=11 v=81
360844 Off ch=10 n=63 v=64
361872 Par ch=10 c=11 v=81
362772 Par ch=10 c=11 v=82
363132 Par ch=10 c=11 v=83
363402 Par ch=10 c=11 v=84
363642 Par ch=10 c=11 v=85
363852 Par ch=10 c=11 v=86
364032 Par ch=10 c=11 v=87
364212 Par ch=10 c=11 v=88
364362 Par ch=10 c=11 v=89
364512 Par ch=10 c=11 v=90
364662 Par ch=10 c=11 v=91
364782 Par ch=10 c=11 v=92
364932 Par ch=10 c=11 v=93
365052 Par ch=10 c=11 v=94
365172 Par ch=10 c=11 v=95
365292 Par ch=10 c=11 v=96
365382 Par ch=10 c=11 v=97
365502 Par ch=10 c=11 v=98
365592 Par ch=10 c=11 v=99
366984 Par ch=10 c=11 v=99
367674 Par ch=10 c=11 v=98
367944 Par ch=10 c=11 v=97
368154 Par ch=10 c=11 v=96
368334 Par ch=10 c=11 v=95
368514 Par ch=10 c=11 v=94
368634 Par ch=10 c=11 v=93
368784 Par ch=10 c=11 v=92
368904 Par ch=10 c=11 v=91
369024 Par ch=10 c=11 v=90
369114 Par ch=10 c=11 v=89
369234 Par ch=10 c=11 v=88
369324 Par ch=10 c=11 v=87
369414 Par ch=10 c=11 v=86
369504 Par ch=10 c=11 v=85
369594 Par ch=10 c=11 v=84
369684 Par ch=10 c=11 v=83
369774 Par ch=10 c=11 v=82
369864 Par ch=10 c=11 v=81
369924 Par ch=10 c=11 v=80
370014 Par ch=10 c=11 v=79
370074 Par ch=10 c=11 v=78
370164 Par ch=10 c=11 v=77
370224 Par ch=10 c=11 v=76
370284 Par ch=10 c=11 v=75
370344 Par ch=10 c=11 v=74
370434 Par ch=10 c=11 v=73
370494 Par ch=10 c=11 v=72
370554 Par ch=10 c=11 v=71
370614 Par ch=10 c=11 v=70
370674 Par ch=10 c=11 v=69
370734 Par ch=10 c=11 v=68
370794 Par ch=10 c=11 v=67
370854 Par ch=10 c=11 v=66
370914 Par ch=10 c=11 v=65
370956 Off ch=10 n=51 v=64
370974 Par ch=10 c=11 v=64
371034 Par ch=10 c=11 v=63
371094 Par ch=10 c=11 v=62
371154 Par ch=10 c=11 v=61
371184 Par ch=10 c=11 v=60
371244 Par ch=10 c=11 v=59
371304 Par ch=10 c=11 v=58
371364 Par ch=10 c=11 v=57
371394 Par ch=10 c=11 v=56
371454 Par ch=10 c=11 v=55
371514 Par ch=10 c=11 v=54
371544 Par ch=10 c=11 v=53
371604 Par ch=10 c=11 v=52
371664 Par ch=10 c=11 v=51
371694 Par ch=10 c=11 v=50
371754 Par ch=10 c=11 v=49
371784 Par ch=10 c=11 v=48
371844 Par ch=10 c=11 v=47
371904 Par ch=10 c=11 v=46
371934 Par ch=10 c=11 v=45
371994 Par ch=10 c=11 v=44
372024 Par ch=10 c=11 v=43
372084 Par ch=10 c=11 v=42
372114 Par ch=10 c=11 v=41
372174 Par ch=10 c=11 v=40
372204 Par ch=10 c=11 v=39
372234 Par ch=10 c=11 v=38
372294 Par ch=10 c=11 v=37
372324 Par ch=10 c=11 v=36
372360 Par ch=10 c=11 v=35
372360 Meta TrkEnd
TrkEnd
MTrk
0 SeqSpec 43 00 01 ff
0 Meta TrkName "Trumpet(f)"
1920 PrCh ch=11 p=8
1930 Par ch=11 c=7 v=115
1940 Par ch=11 c=10 v=64
1950 Par ch=11 c=11 v=127
1960 Par ch=11 c=20 v=127
1970 Par ch=11 c=91 v=0
1980 Par ch=11 c=93 v=0
1990 Par ch=11 c=94 v=0
2000 Par ch=11 c=101 v=0
2010 Par ch=11 c=100 v=0
2020 Par ch=11 c=6 v=2
2030 Par ch=11 c=101 v=127
2040 Par ch=11 c=100 v=127
340560 Par ch=11 c=11 v=127
356100 On ch=11 n=70 v=88
356360 Off ch=11 n=70 v=64
356580 On ch=11 n=73 v=88
356840 Off ch=11 n=73 v=64
357060 On ch=11 n=73 v=88
357120 Par ch=11 c=11 v=127
357540 On ch=11 n=75 v=88
357560 Off ch=11 n=73 v=64
357800 Off ch=11 n=75 v=64
358020 On ch=11 n=70 v=88
358280 Off ch=11 n=70 v=64
358500 On ch=11 n=68 v=88
358760 Off ch=11 n=68 v=64
358980 On ch=11 n=70 v=88
359264 Par ch=11 c=11 v=127
359294 Par ch=11 c=11 v=121
359324 Par ch=11 c=11 v=115
359354 Par ch=11 c=11 v=110
359384 Par ch=11 c=11 v=105
359414 Par ch=11 c=11 v=101
359444 Par ch=11 c=11 v=96
359474 Par ch=11 c=11 v=92
359504 Par ch=11 c=11 v=88
359534 Par ch=11 c=11 v=85
359564 Par ch=11 c=11 v=81
359594 Par ch=11 c=11 v=78
359624 Par ch=11 c=11 v=76
359654 Par ch=11 c=11 v=73
359684 Par ch=11 c=11 v=71
359714 Par ch=11 c=11 v=69
359744 Par ch=11 c=11 v=67
359774 Par ch=11 c=11 v=65
359792 Off ch=11 n=70 v=64
359804 Par ch=11 c=11 v=64
359834 Par ch=11 c=11 v=63
359864 Par ch=11 c=11 v=62
359940 On ch=11 n=68 v=88
360236 Par ch=11 c=11 v=122
360326 Par ch=11 c=11 v=123
360416 Par ch=11 c=11 v=124
360420 On ch=11 n=70 v=88
360480 Off ch=11 n=68 v=64
360506 Par ch=11 c=11 v=125
360566 Par ch=11 c=11 v=126
360608 Par ch=11 c=11 v=127
360680 Off ch=11 n=70 v=64
360900 On ch=11 n=73 v=88
361380 On ch=11 n=75 v=88
361420 Off ch=11 n=73 v=64
361640 Off ch=11 n=75 v=64
361860 On ch=11 n=70 v=88
362120 Off ch=11 n=70 v=64
362340 On ch=11 n=68 v=88
362600 Off ch=11 n=68 v=64
362820 On ch=11 n=70 v=88
363780 On ch=11 n=75 v=88
363840 Off ch=11 n=70 v=64
364040 Off ch=11 n=75 v=64
364260 On ch=11 n=77 v=88
364520 Off ch=11 n=77 v=64
364740 On ch=11 n=78 v=88
365220 On ch=11 n=77 v=88
365240 Off ch=11 n=78 v=64
365500 Off ch=11 n=77 v=64
365700 On ch=11 n=75 v=88
365940 Off ch=11 n=75 v=64
366180 On ch=11 n=73 v=88
366520 Off ch=11 n=73 v=64
366660 On ch=11 n=70 v=88
367620 Off ch=11 n=70 v=64
367620 On ch=11 n=68 v=88
367864 Off ch=11 n=68 v=64
368100 On ch=11 n=70 v=88
368360 Off ch=11 n=70 v=64
368580 On ch=11 n=68 v=88
369060 On ch=11 n=66 v=88
369120 Off ch=11 n=68 v=64
369320 Off ch=11 n=66 v=64
369540 On ch=11 n=65 v=88
369760 Off ch=11 n=65 v=64
370020 On ch=11 n=61 v=88
370240 Off ch=11 n=61 v=64
370500 On ch=11 n=63 v=88
370828 Off ch=11 n=63 v=64
370828 Meta TrkEnd
TrkEnd
MTrk
0 SeqSpec 43 00 01 ff
0 Meta TrkName "Horn(s)"
1920 PrCh ch=12 p=9
1930 Par ch=12 c=7 v=100
1940 Par ch=12 c=10 v=64
1950 Par ch=12 c=11 v=127
1960 Par ch=12 c=20 v=127
1970 Par ch=12 c=91 v=0
1980 Par ch=12 c=93 v=0
1990 Par ch=12 c=94 v=0
2000 Par ch=12 c=101 v=0
2010 Par ch=12 c=100 v=0
2020 Par ch=12 c=6 v=2
2030 Par ch=12 c=101 v=127
2040 Par ch=12 c=100 v=127
216960 On ch=12 n=63 v=123
216960 On ch=12 n=56 v=123
216960 On ch=12 n=44 v=123
217440 Off ch=12 n=44 v=64
217440 Off ch=12 n=56 v=64
217440 Off ch=12 n=63 v=64
217920 On ch=12 n=61 v=120
217920 On ch=12 n=54 v=120
217920 On ch=12 n=42 v=120
218400 Off ch=12 n=42 v=64
218400 Off ch=12 n=54 v=64
218400 Off ch=12 n=61 v=64
218880 On ch=12 n=39 v=108
218880 On ch=12 n=63 v=108
219360 Off ch=12 n=63 v=64
219360 Off ch=12 n=39 v=64
220800 On ch=12 n=39 v=108
220800 On ch=12 n=63 v=108
221280 Off ch=12 n=63 v=64
221280 Off ch=12 n=39 v=64
222720 On ch=12 n=39 v=108
222720 On ch=12 n=63 v=108
223200 Off ch=12 n=63 v=64
223200 Off ch=12 n=39 v=64
224640 On ch=12 n=39 v=108
224640 On ch=12 n=63 v=108
225120 Off ch=12 n=63 v=64
225120 Off ch=12 n=39 v=64
225600 On ch=12 n=44 v=108
225600 On ch=12 n=68 v=108
226080 Off ch=12 n=68 v=64
226080 Off ch=12 n=44 v=64
226560 On ch=12 n=39 v=108
226560 On ch=12 n=63 v=108
227040 Off ch=12 n=63 v=64
227040 Off ch=12 n=39 v=64
228480 On ch=12 n=39 v=108
228480 On ch=12 n=63 v=108
228960 Off ch=12 n=63 v=64
228960 Off ch=12 n=39 v=64
230400 On ch=12 n=39 v=108
230400 On ch=12 n=63 v=108
230880 Off ch=12 n=63 v=64
230880 Off ch=12 n=39 v=64
232320 On ch=12 n=44 v=108
232320 On ch=12 n=68 v=108
232800 Off ch=12 n=68 v=64
232800 Off ch=12 n=44 v=64
233280 On ch=12 n=42 v=108
233280 On ch=12 n=66 v=108
233760 Off ch=12 n=66 v=64
233760 Off ch=12 n=42 v=64
234240 On ch=12 n=39 v=108
234240 On ch=12 n=63 v=108
234720 Off ch=12 n=63 v=64
234720 Off ch=12 n=39 v=64
236160 On ch=12 n=39 v=108
236160 On ch=12 n=63 v=108
236640 Off ch=12 n=63 v=64
236640 Off ch=12 n=39 v=64
238080 On ch=12 n=39 v=108
238080 On ch=12 n=63 v=108
238560 Off ch=12 n=63 v=64
238560 Off ch=12 n=39 v=64
240000 On ch=12 n=39 v=108
240000 On ch=12 n=63 v=108
240480 Off ch=12 n=63 v=64
240480 Off ch=12 n=39 v=64
240960 On ch=12 n=44 v=108
240960 On ch=12 n=68 v=108
241440 Off ch=12 n=68 v=64
241440 Off ch=12 n=44 v=64
241920 On ch=12 n=39 v=108
241920 On ch=12 n=63 v=108
242400 Off ch=12 n=63 v=64
242400 Off ch=12 n=39 v=64
243840 On ch=12 n=39 v=108
243840 On ch=12 n=63 v=108
244320 Off ch=12 n=63 v=64
244320 Off ch=12 n=39 v=64
245760 On ch=12 n=39 v=108
245760 On ch=12 n=63 v=108
246240 Off ch=12 n=63 v=64
246240 Off ch=12 n=39 v=64
247680 On ch=12 n=44 v=108
247680 On ch=12 n=68 v=108
248160 Off ch=12 n=68 v=64
248160 Off ch=12 n=44 v=64
248640 On ch=12 n=42 v=108
248640 On ch=12 n=66 v=108
249120 Off ch=12 n=66 v=64
249120 Off ch=12 n=42 v=64
433920 On ch=12 n=36 v=109
434880 Off ch=12 n=36 v=64
434880 On ch=12 n=36 v=100
435840 Off ch=12 n=36 v=64
435840 On ch=12 n=36 v=104
436800 Off ch=12 n=36 v=64
436800 On ch=12 n=36 v=102
437760 Off ch=12 n=36 v=64
437760 On ch=12 n=38 v=109
438720 Off ch=12 n=38 v=64
438720 On ch=12 n=38 v=100
439680 Off ch=12 n=38 v=64
439680 On ch=12 n=38 v=104
440640 Off ch=12 n=38 v=64
440640 On ch=12 n=38 v=102
441600 Off ch=12 n=38 v=64
441600 On ch=12 n=40 v=109
442560 Off ch=12 n=40 v=64
442560 On ch=12 n=40 v=100
443520 Off ch=12 n=40 v=64
443520 On ch=12 n=40 v=104
444480 Off ch=12 n=40 v=64
444480 On ch=12 n=40 v=102
445440 Off ch=12 n=40 v=64
445440 On ch=12 n=40 v=109
446400 Off ch=12 n=40 v=64
446400 On ch=12 n=40 v=100
447360 Off ch=12 n=40 v=64
447360 On ch=12 n=40 v=104
448320 Off ch=12 n=40 v=64
448320 On ch=12 n=40 v=102
449280 Off ch=12 n=40 v=64
449280 On ch=12 n=36 v=109
450240 Off ch=12 n=36 v=64
450240 On ch=12 n=36 v=100
451200 Off ch=12 n=36 v=64
451200 On ch=12 n=36 v=104
452160 Off ch=12 n=36 v=64
452160 On ch=12 n=36 v=102
453120 Off ch=12 n=36 v=64
453120 On ch=12 n=38 v=109
454080 Off ch=12 n=38 v=64
454080 On ch=12 n=38 v=100
455040 Off ch=12 n=38 v=64
455040 On ch=12 n=38 v=104
456000 Off ch=12 n=38 v=64
456000 On ch=12 n=38 v=102
456960 Off ch=12 n=38 v=64
456960 On ch=12 n=40 v=109
457920 Off ch=12 n=40 v=64
457920 On ch=12 n=40 v=100
458880 Off ch=12 n=40 v=64
458880 On ch=12 n=40 v=104
459840 Off ch=12 n=40 v=64
459840 On ch=12 n=40 v=102
460800 Off ch=12 n=40 v=64
460800 On ch=12 n=40 v=109
461760 Off ch=12 n=40 v=64
461760 On ch=12 n=40 v=100
462720 Off ch=12 n=40 v=64
462720 On ch=12 n=40 v=127
463680 Off ch=12 n=40 v=64
463680 Meta TrkEnd
TrkEnd
MTrk
0 SeqSpec 43 00 01 ff
0 Meta TrkName "Trumpet(s)"
1920 PrCh ch=13 p=10
1930 Par ch=13 c=7 v=100
1940 Par ch=13 c=10 v=64
1950 Par ch=13 c=11 v=127
1960 Par ch=13 c=20 v=127
1970 Par ch=13 c=91 v=0
1980 Par ch=13 c=93 v=0
1990 Par ch=13 c=94 v=0
2000 Par ch=13 c=101 v=0
2010 Par ch=13 c=100 v=0
2020 Par ch=13 c=6 v=2
2030 Par ch=13 c=101 v=127
2040 Par ch=13 c=100 v=127
96480 On ch=13 n=66 v=65
96480 On ch=13 n=70 v=65
96688 Off ch=13 n=70 v=64
96688 Off ch=13 n=66 v=64
97440 On ch=13 n=66 v=63
97440 On ch=13 n=70 v=63
97648 Off ch=13 n=70 v=64
97648 Off ch=13 n=66 v=64
98400 On ch=13 n=66 v=65
98400 On ch=13 n=70 v=65
98608 Off ch=13 n=70 v=64
98608 Off ch=13 n=66 v=64
99360 On ch=13 n=66 v=63
99360 On ch=13 n=70 v=63
99568 Off ch=13 n=70 v=64
99568 Off ch=13 n=66 v=64
100320 On ch=13 n=66 v=63
100320 On ch=13 n=70 v=63
100528 Off ch=13 n=70 v=64
100528 Off ch=13 n=66 v=64
101280 On ch=13 n=70 v=59
101280 On ch=13 n=66 v=59
101488 Off ch=13 n=66 v=64
101488 Off ch=13 n=70 v=64
102240 On ch=13 n=66 v=63
102240 On ch=13 n=70 v=63
102448 Off ch=13 n=70 v=64
102448 Off ch=13 n=66 v=64
103200 On ch=13 n=70 v=61
103200 On ch=13 n=66 v=61
103408 Off ch=13 n=66 v=64
103408 Off ch=13 n=70 v=64
104160 On ch=13 n=71 v=63
104160 On ch=13 n=66 v=63
104368 Off ch=13 n=66 v=64
104368 Off ch=13 n=71 v=64
105120 On ch=13 n=71 v=61
105120 On ch=13 n=66 v=61
105328 Off ch=13 n=66 v=64
105328 Off ch=13 n=71 v=64
106080 On ch=13 n=66 v=63
106080 On ch=13 n=71 v=63
106288 Off ch=13 n=71 v=64
106288 Off ch=13 n=66 v=64
107040 On ch=13 n=66 v=63
107040 On ch=13 n=71 v=61
107248 Off ch=13 n=71 v=64
107248 Off ch=13 n=66 v=64
108000 On ch=13 n=70 v=63
108000 On ch=13 n=68 v=63
108208 Off ch=13 n=68 v=64
108208 Off ch=13 n=70 v=64
108960 On ch=13 n=68 v=58
108960 On ch=13 n=70 v=58
109168 Off ch=13 n=70 v=64
109168 Off ch=13 n=68 v=64
109920 On ch=13 n=70 v=63
109920 On ch=13 n=68 v=63
110128 Off ch=13 n=68 v=64
110128 Off ch=13 n=70 v=64
110880 On ch=13 n=68 v=63
110880 On ch=13 n=70 v=63
111088 Off ch=13 n=70 v=64
111088 Off ch=13 n=68 v=64
111840 On ch=13 n=70 v=65
111840 On ch=13 n=66 v=65
112048 Off ch=13 n=66 v=64
112048 Off ch=13 n=70 v=64
112800 On ch=13 n=70 v=63
112800 On ch=13 n=66 v=63
113008 Off ch=13 n=66 v=64
113008 Off ch=13 n=70 v=64
113760 On ch=13 n=70 v=65
113760 On ch=13 n=66 v=65
113968 Off ch=13 n=66 v=64
113968 Off ch=13 n=70 v=64
114720 On ch=13 n=70 v=63
114720 On ch=13 n=66 v=63
114928 Off ch=13 n=66 v=64
114928 Off ch=13 n=70 v=64
115680 On ch=13 n=70 v=63
115680 On ch=13 n=66 v=63
115888 Off ch=13 n=66 v=64
115888 Off ch=13 n=70 v=64
116640 On ch=13 n=66 v=59
116640 On ch=13 n=70 v=59
116848 Off ch=13 n=70 v=64
116848 Off ch=13 n=66 v=64
117600 On ch=13 n=70 v=63
117600 On ch=13 n=66 v=63
117808 Off ch=13 n=66 v=64
117808 Off ch=13 n=70 v=64
118560 On ch=13 n=66 v=61
118560 On ch=13 n=70 v=61
118768 Off ch=13 n=70 v=64
118768 Off ch=13 n=66 v=64
119520 On ch=13 n=66 v=63
119520 On ch=13 n=71 v=63
119728 Off ch=13 n=71 v=64
119728 Off ch=13 n=66 v=64
120480 On ch=13 n=66 v=61
120480 On ch=13 n=71 v=61
120688 Off ch=13 n=71 v=64
120688 Off ch=13 n=66 v=64
121440 On ch=13 n=71 v=63
121440 On ch=13 n=66 v=63
121648 Off ch=13 n=66 v=64
121648 Off ch=13 n=71 v=64
122400 On ch=13 n=71 v=61
122400 On ch=13 n=66 v=63
122608 Off ch=13 n=66 v=64
122608 Off ch=13 n=71 v=64
123360 On ch=13 n=68 v=63
123360 On ch=13 n=70 v=63
123568 Off ch=13 n=70 v=64
123568 Off ch=13 n=68 v=64
124320 On ch=13 n=70 v=58
124320 On ch=13 n=68 v=58
124528 Off ch=13 n=68 v=64
124528 Off ch=13 n=70 v=64
125280 On ch=13 n=68 v=63
125280 On ch=13 n=70 v=63
125488 Off ch=13 n=70 v=64
125488 Off ch=13 n=68 v=64
126240 On ch=13 n=70 v=63
126240 On ch=13 n=68 v=63
126448 Off ch=13 n=68 v=64
126448 Off ch=13 n=70 v=64
127200 On ch=13 n=71 v=65
127200 On ch=13 n=66 v=65
127408 Off ch=13 n=66 v=64
127408 Off ch=13 n=71 v=64
128160 On ch=13 n=71 v=63
128160 On ch=13 n=66 v=63
128368 Off ch=13 n=66 v=64
128368 Off ch=13 n=71 v=64
129120 On ch=13 n=71 v=65
129120 On ch=13 n=66 v=65
129328 Off ch=13 n=66 v=64
129328 Off ch=13 n=71 v=64
130080 On ch=13 n=71 v=63
130080 On ch=13 n=66 v=63
130288 Off ch=13 n=66 v=64
130288 Off ch=13 n=71 v=64
131040 On ch=13 n=68 v=63
131040 On ch=13 n=65 v=65
131248 Off ch=13 n=65 v=64
131248 Off ch=13 n=68 v=64
132000 On ch=13 n=68 v=59
132000 On ch=13 n=65 v=63
132208 Off ch=13 n=65 v=64
132208 Off ch=13 n=68 v=64
132960 On ch=13 n=68 v=63
132960 On ch=13 n=65 v=65
133168 Off ch=13 n=65 v=64
133168 Off ch=13 n=68 v=64
133920 On ch=13 n=68 v=61
133920 On ch=13 n=65 v=63
134128 Off ch=13 n=65 v=64
134128 Off ch=13 n=68 v=64
134880 On ch=13 n=70 v=65
134880 On ch=13 n=66 v=65
135088 Off ch=13 n=66 v=64
135088 Off ch=13 n=70 v=64
135840 On ch=13 n=70 v=63
135840 On ch=13 n=66 v=63
136048 Off ch=13 n=66 v=64
136048 Off ch=13 n=70 v=64
136800 On ch=13 n=70 v=65
136800 On ch=13 n=66 v=65
137008 Off ch=13 n=66 v=64
137008 Off ch=13 n=70 v=64
137760 On ch=13 n=70 v=63
137760 On ch=13 n=66 v=63
137968 Off ch=13 n=66 v=64
137968 Off ch=13 n=70 v=64
138720 On ch=13 n=70 v=63
138720 On ch=13 n=66 v=63
138928 Off ch=13 n=66 v=64
138928 Off ch=13 n=70 v=64
139680 On ch=13 n=70 v=59
139680 On ch=13 n=66 v=59
139888 Off ch=13 n=66 v=64
139888 Off ch=13 n=70 v=64
140640 On ch=13 n=70 v=63
140640 On ch=13 n=66 v=63
140848 Off ch=13 n=66 v=64
140848 Off ch=13 n=70 v=64
141600 On ch=13 n=70 v=61
141600 On ch=13 n=66 v=61
141808 Off ch=13 n=66 v=64
141808 Off ch=13 n=70 v=64
142560 On ch=13 n=66 v=65
142560 On ch=13 n=71 v=65
142768 Off ch=13 n=71 v=64
142768 Off ch=13 n=66 v=64
143520 On ch=13 n=66 v=63
143520 On ch=13 n=71 v=63
143728 Off ch=13 n=71 v=64
143728 Off ch=13 n=66 v=64
144480 On ch=13 n=66 v=65
144480 On ch=13 n=71 v=65
144688 Off ch=13 n=71 v=64
144688 Off ch=13 n=66 v=64
145440 On ch=13 n=66 v=63
145440 On ch=13 n=71 v=63
145648 Off ch=13 n=71 v=64
145648 Off ch=13 n=66 v=64
146400 On ch=13 n=65 v=65
146400 On ch=13 n=68 v=63
146608 Off ch=13 n=68 v=64
146608 Off ch=13 n=65 v=64
147360 On ch=13 n=65 v=63
147360 On ch=13 n=68 v=59
147568 Off ch=13 n=68 v=64
147568 Off ch=13 n=65 v=64
148320 On ch=13 n=65 v=65
148320 On ch=13 n=68 v=63
148528 Off ch=13 n=68 v=64
148528 Off ch=13 n=65 v=64
149280 On ch=13 n=65 v=63
149280 On ch=13 n=68 v=61
149488 Off ch=13 n=68 v=64
149488 Off ch=13 n=65 v=64
150240 On ch=13 n=66 v=65
150240 On ch=13 n=70 v=65
150448 Off ch=13 n=70 v=64
150448 Off ch=13 n=66 v=64
151200 On ch=13 n=66 v=63
151200 On ch=13 n=70 v=63
151408 Off ch=13 n=70 v=64
151408 Off ch=13 n=66 v=64
152160 On ch=13 n=66 v=65
152160 On ch=13 n=70 v=65
152368 Off ch=13 n=70 v=64
152368 Off ch=13 n=66 v=64
153120 On ch=13 n=66 v=63
153120 On ch=13 n=70 v=63
153328 Off ch=13 n=70 v=64
153328 Off ch=13 n=66 v=64
154080 On ch=13 n=66 v=63
154080 On ch=13 n=70 v=63
154288 Off ch=13 n=70 v=64
154288 Off ch=13 n=66 v=64
155040 On ch=13 n=66 v=59
155040 On ch=13 n=70 v=59
155248 Off ch=13 n=70 v=64
155248 Off ch=13 n=66 v=64
156000 On ch=13 n=66 v=63
156000 On ch=13 n=70 v=63
156208 Off ch=13 n=70 v=64
156208 Off ch=13 n=66 v=64
156960 On ch=13 n=66 v=61
156960 On ch=13 n=70 v=61
157168 Off ch=13 n=70 v=64
157168 Off ch=13 n=66 v=64
157920 On ch=13 n=66 v=65
157920 On ch=13 n=71 v=65
158128 Off ch=13 n=71 v=64
158128 Off ch=13 n=66 v=64
158880 On ch=13 n=66 v=63
158880 On ch=13 n=71 v=63
159088 Off ch=13 n=71 v=64
159088 Off ch=13 n=66 v=64
159840 On ch=13 n=66 v=65
159840 On ch=13 n=71 v=65
160048 Off ch=13 n=71 v=64
160048 Off ch=13 n=66 v=64
160800 On ch=13 n=66 v=63
160800 On ch=13 n=71 v=63
161008 Off ch=13 n=71 v=64
161008 Off ch=13 n=66 v=64
161760 On ch=13 n=65 v=65
161760 On ch=13 n=68 v=63
161968 Off ch=13 n=68 v=64
161968 Off ch=13 n=65 v=64
162720 On ch=13 n=65 v=63
162720 On ch=13 n=68 v=59
162928 Off ch=13 n=68 v=64
162928 Off ch=13 n=65 v=64
163680 On ch=13 n=65 v=65
163680 On ch=13 n=68 v=63
163888 Off ch=13 n=68 v=64
163888 Off ch=13 n=65 v=64
164640 On ch=13 n=65 v=63
164640 On ch=13 n=68 v=61
164848 Off ch=13 n=68 v=64
164848 Off ch=13 n=65 v=64
165600 On ch=13 n=66 v=65
165600 On ch=13 n=70 v=65
165808 Off ch=13 n=70 v=64
165808 Off ch=13 n=66 v=64
166560 On ch=13 n=66 v=63
166560 On ch=13 n=70 v=63
166768 Off ch=13 n=70 v=64
166768 Off ch=13 n=66 v=64
167520 On ch=13 n=66 v=65
167520 On ch=13 n=70 v=65
167728 Off ch=13 n=70 v=64
167728 Off ch=13 n=66 v=64
168480 On ch=13 n=66 v=63
168480 On ch=13 n=70 v=63
168688 Off ch=13 n=70 v=64
168688 Off ch=13 n=66 v=64
169440 On ch=13 n=66 v=63
169440 On ch=13 n=70 v=63
169648 Off ch=13 n=70 v=64
169648 Off ch=13 n=66 v=64
170400 On ch=13 n=66 v=59
170400 On ch=13 n=70 v=59
170608 Off ch=13 n=70 v=64
170608 Off ch=13 n=66 v=64
171360 On ch=13 n=66 v=63
171360 On ch=13 n=70 v=63
171568 Off ch=13 n=70 v=64
171568 Off ch=13 n=66 v=64
172320 On ch=13 n=66 v=61
172320 On ch=13 n=70 v=61
172528 Off ch=13 n=70 v=64
172528 Off ch=13 n=66 v=64
173280 On ch=13 n=71 v=65
173280 On ch=13 n=66 v=65
173488 Off ch=13 n=66 v=64
173488 Off ch=13 n=71 v=64
174240 On ch=13 n=71 v=63
174240 On ch=13 n=66 v=63
174448 Off ch=13 n=66 v=64
174448 Off ch=13 n=71 v=64
175200 On ch=13 n=71 v=65
175200 On ch=13 n=66 v=65
175408 Off ch=13 n=66 v=64
175408 Off ch=13 n=71 v=64
176160 On ch=13 n=71 v=63
176160 On ch=13 n=66 v=63
176368 Off ch=13 n=66 v=64
176368 Off ch=13 n=71 v=64
177120 On ch=13 n=68 v=63
177120 On ch=13 n=65 v=65
177328 Off ch=13 n=65 v=64
177328 Off ch=13 n=68 v=64
178080 On ch=13 n=68 v=59
178080 On ch=13 n=65 v=63
178288 Off ch=13 n=65 v=64
178288 Off ch=13 n=68 v=64
179040 On ch=13 n=68 v=63
179040 On ch=13 n=65 v=65
179248 Off ch=13 n=65 v=64
179248 Off ch=13 n=68 v=64
180000 On ch=13 n=68 v=61
180000 On ch=13 n=65 v=63
180208 Off ch=13 n=65 v=64
180208 Off ch=13 n=68 v=64
180960 On ch=13 n=70 v=65
180960 On ch=13 n=66 v=65
181168 Off ch=13 n=66 v=64
181168 Off ch=13 n=70 v=64
181920 On ch=13 n=70 v=63
181920 On ch=13 n=66 v=63
182128 Off ch=13 n=66 v=64
182128 Off ch=13 n=70 v=64
182880 On ch=13 n=70 v=65
182880 On ch=13 n=66 v=65
183088 Off ch=13 n=66 v=64
183088 Off ch=13 n=70 v=64
183840 On ch=13 n=70 v=63
183840 On ch=13 n=66 v=63
184048 Off ch=13 n=66 v=64
184048 Off ch=13 n=70 v=64
184800 On ch=13 n=70 v=63
184800 On ch=13 n=66 v=63
185008 Off ch=13 n=66 v=64
185008 Off ch=13 n=70 v=64
185760 On ch=13 n=70 v=59
185760 On ch=13 n=66 v=59
185968 Off ch=13 n=66 v=64
185968 Off ch=13 n=70 v=64
216960 On ch=13 n=68 v=88
216960 On ch=13 n=75 v=88
217440 Off ch=13 n=75 v=64
217440 Off ch=13 n=68 v=64
217920 On ch=13 n=66 v=88
217920 On ch=13 n=73 v=88
218400 Off ch=13 n=73 v=64
218400 Off ch=13 n=66 v=64
218880 On ch=13 n=63 v=108
219360 Off ch=13 n=63 v=64
220800 On ch=13 n=63 v=108
221280 Off ch=13 n=63 v=64
222720 On ch=13 n=63 v=108
223200 Off ch=13 n=63 v=64
224640 On ch=13 n=63 v=108
225120 Off ch=13 n=63 v=64
225600 On ch=13 n=68 v=108
226080 Off ch=13 n=68 v=64
226560 On ch=13 n=63 v=108
227040 Off ch=13 n=63 v=64
228480 On ch=13 n=63 v=108
228960 Off ch=13 n=63 v=64
230400 On ch=13 n=63 v=108
230880 Off ch=13 n=63 v=64
232320 On ch=13 n=68 v=108
232800 Off ch=13 n=68 v=64
233280 On ch=13 n=66 v=108
233760 Off ch=13 n=66 v=64
234240 On ch=13 n=63 v=108
234720 Off ch=13 n=63 v=64
236160 On ch=13 n=63 v=108
236640 Off ch=13 n=63 v=64
238080 On ch=13 n=63 v=108
238560 Off ch=13 n=63 v=64
240000 On ch=13 n=63 v=108
240480 Off ch=13 n=63 v=64
240960 On ch=13 n=68 v=108
241440 Off ch=13 n=68 v=64
241920 On ch=13 n=63 v=108
242400 Off ch=13 n=63 v=64
243840 On ch=13 n=63 v=108
244320 Off ch=13 n=63 v=64
245760 On ch=13 n=63 v=108
246240 Off ch=13 n=63 v=64
247680 On ch=13 n=68 v=108
248160 Off ch=13 n=68 v=64
248640 On ch=13 n=66 v=108
249120 Off ch=13 n=66 v=64
311520 On ch=13 n=66 v=81
311520 On ch=13 n=71 v=81
311728 Off ch=13 n=71 v=64
311728 Off ch=13 n=66 v=64
312480 On ch=13 n=66 v=79
312480 On ch=13 n=71 v=79
312688 Off ch=13 n=71 v=64
312688 Off ch=13 n=66 v=64
313440 On ch=13 n=66 v=81
313440 On ch=13 n=71 v=81
313648 Off ch=13 n=71 v=64
313648 Off ch=13 n=66 v=64
314400 On ch=13 n=66 v=79
314400 On ch=13 n=71 v=79
314608 Off ch=13 n=71 v=64
314608 Off ch=13 n=66 v=64
315360 On ch=13 n=65 v=81
315360 On ch=13 n=68 v=79
315568 Off ch=13 n=68 v=64
315568 Off ch=13 n=65 v=64
316320 On ch=13 n=65 v=79
316320 On ch=13 n=68 v=75
316528 Off ch=13 n=68 v=64
316528 Off ch=13 n=65 v=64
317280 On ch=13 n=65 v=81
317280 On ch=13 n=68 v=79
317488 Off ch=13 n=68 v=64
317488 Off ch=13 n=65 v=64
318240 On ch=13 n=65 v=79
318240 On ch=13 n=68 v=77
318448 Off ch=13 n=68 v=64
318448 Off ch=13 n=65 v=64
319200 On ch=13 n=66 v=81
319200 On ch=13 n=70 v=81
319408 Off ch=13 n=70 v=64
319408 Off ch=13 n=66 v=64
320160 On ch=13 n=66 v=79
320160 On ch=13 n=70 v=79
320368 Off ch=13 n=70 v=64
320368 Off ch=13 n=66 v=64
321120 On ch=13 n=66 v=81
321120 On ch=13 n=70 v=81
321328 Off ch=13 n=70 v=64
321328 Off ch=13 n=66 v=64
322080 On ch=13 n=66 v=79
322080 On ch=13 n=70 v=79
322288 Off ch=13 n=70 v=64
322288 Off ch=13 n=66 v=64
323040 On ch=13 n=66 v=79
323040 On ch=13 n=70 v=79
323248 Off ch=13 n=70 v=64
323248 Off ch=13 n=66 v=64
324000 On ch=13 n=66 v=75
324000 On ch=13 n=70 v=75
324208 Off ch=13 n=70 v=64
324208 Off ch=13 n=66 v=64
324960 On ch=13 n=66 v=79
324960 On ch=13 n=70 v=79
325168 Off ch=13 n=70 v=64
325168 Off ch=13 n=66 v=64
325920 On ch=13 n=66 v=77
325920 On ch=13 n=70 v=77
326128 Off ch=13 n=70 v=64
326128 Off ch=13 n=66 v=64
326880 On ch=13 n=71 v=81
326880 On ch=13 n=66 v=81
327088 Off ch=13 n=66 v=64
327088 Off ch=13 n=71 v=64
327840 On ch=13 n=71 v=79
327840 On ch=13 n=66 v=79
328048 Off ch=13 n=66 v=64
328048 Off ch=13 n=71 v=64
328800 On ch=13 n=71 v=81
328800 On ch=13 n=66 v=81
329008 Off ch=13 n=66 v=64
329008 Off ch=13 n=71 v=64
329760 On ch=13 n=71 v=79
329760 On ch=13 n=66 v=79
329968 Off ch=13 n=66 v=64
329968 Off ch=13 n=71 v=64
330720 On ch=13 n=68 v=79
330720 On ch=13 n=65 v=81
330928 Off ch=13 n=65 v=64
330928 Off ch=13 n=68 v=64
331680 On ch=13 n=68 v=75
331680 On ch=13 n=65 v=79
331888 Off ch=13 n=65 v=64
331888 Off ch=13 n=68 v=64
332640 On ch=13 n=68 v=79
332640 On ch=13 n=65 v=81
332848 Off ch=13 n=65 v=64
332848 Off ch=13 n=68 v=64
333600 On ch=13 n=68 v=77
333600 On ch=13 n=65 v=79
333808 Off ch=13 n=65 v=64
333808 Off ch=13 n=68 v=64
334560 On ch=13 n=70 v=81
334560 On ch=13 n=66 v=81
334768 Off ch=13 n=66 v=64
334768 Off ch=13 n=70 v=64
335520 On ch=13 n=70 v=79
335520 On ch=13 n=66 v=79
335728 Off ch=13 n=66 v=64
335728 Off ch=13 n=70 v=64
336480 On ch=13 n=70 v=81
336480 On ch=13 n=66 v=81
336688 Off ch=13 n=66 v=64
336688 Off ch=13 n=70 v=64
337440 On ch=13 n=70 v=79
337440 On ch=13 n=66 v=79
337648 Off ch=13 n=66 v=64
337648 Off ch=13 n=70 v=64
338400 On ch=13 n=70 v=79
338400 On ch=13 n=66 v=79
338608 Off ch=13 n=66 v=64
338608 Off ch=13 n=70 v=64
339360 On ch=13 n=70 v=75
339360 On ch=13 n=66 v=75
339568 Off ch=13 n=66 v=64
339568 Off ch=13 n=70 v=64
340320 On ch=13 n=70 v=79
340320 On ch=13 n=66 v=79
340528 Off ch=13 n=66 v=64
340528 Off ch=13 n=70 v=64
341280 On ch=13 n=70 v=77
341280 On ch=13 n=66 v=77
341488 Off ch=13 n=66 v=64
341488 Off ch=13 n=70 v=64
434400 On ch=13 n=64 v=88
434400 On ch=13 n=67 v=88
434880 Off ch=13 n=67 v=64
434880 Off ch=13 n=64 v=64
435360 On ch=13 n=67 v=88
435360 On ch=13 n=64 v=88
435840 Off ch=13 n=64 v=64
435840 Off ch=13 n=67 v=64
436320 On ch=13 n=67 v=88
436320 On ch=13 n=64 v=88
436800 Off ch=13 n=64 v=64
436800 Off ch=13 n=67 v=64
437280 On ch=13 n=67 v=88
437280 On ch=13 n=64 v=88
437760 Off ch=13 n=64 v=64
437760 Off ch=13 n=67 v=64
438240 On ch=13 n=69 v=88
438240 On ch=13 n=66 v=88
438720 Off ch=13 n=66 v=64
438720 Off ch=13 n=69 v=64
439200 On ch=13 n=66 v=88
439200 On ch=13 n=69 v=88
439680 Off ch=13 n=69 v=64
439680 Off ch=13 n=66 v=64
440160 On ch=13 n=66 v=88
440160 On ch=13 n=69 v=88
440640 Off ch=13 n=69 v=64
440640 Off ch=13 n=66 v=64
441120 On ch=13 n=66 v=88
441120 On ch=13 n=69 v=88
441600 Off ch=13 n=69 v=64
441600 Off ch=13 n=66 v=64
442080 On ch=13 n=67 v=88
442080 On ch=13 n=71 v=88
442560 Off ch=13 n=71 v=64
442560 Off ch=13 n=67 v=64
443040 On ch=13 n=71 v=88
443040 On ch=13 n=67 v=88
443520 Off ch=13 n=67 v=64
443520 Off ch=13 n=71 v=64
444000 On ch=13 n=71 v=88
444000 On ch=13 n=67 v=88
444480 Off ch=13 n=67 v=64
444480 Off ch=13 n=71 v=64
444960 On ch=13 n=71 v=88
444960 On ch=13 n=67 v=88
445440 Off ch=13 n=67 v=64
445440 Off ch=13 n=71 v=64
445920 On ch=13 n=71 v=88
445920 On ch=13 n=67 v=88
446400 Off ch=13 n=67 v=64
446400 Off ch=13 n=71 v=64
446880 On ch=13 n=71 v=88
446880 On ch=13 n=67 v=88
447360 Off ch=13 n=67 v=64
447360 Off ch=13 n=71 v=64
447840 On ch=13 n=71 v=88
447840 On ch=13 n=67 v=88
448320 Off ch=13 n=67 v=64
448320 Off ch=13 n=71 v=64
448800 On ch=13 n=71 v=88
448800 On ch=13 n=67 v=88
449280 Off ch=13 n=67 v=64
449280 Off ch=13 n=71 v=64
449760 On ch=13 n=67 v=88
449760 On ch=13 n=64 v=88
450240 Off ch=13 n=64 v=64
450240 Off ch=13 n=67 v=64
450720 On ch=13 n=64 v=88
450720 On ch=13 n=67 v=88
451200 Off ch=13 n=67 v=64
451200 Off ch=13 n=64 v=64
451680 On ch=13 n=64 v=88
451680 On ch=13 n=67 v=88
452160 Off ch=13 n=67 v=64
452160 Off ch=13 n=64 v=64
452640 On ch=13 n=64 v=88
452640 On ch=13 n=67 v=88
453120 Off ch=13 n=67 v=64
453120 Off ch=13 n=64 v=64
453600 On ch=13 n=66 v=88
453600 On ch=13 n=69 v=88
454080 Off ch=13 n=69 v=64
454080 Off ch=13 n=66 v=64
454560 On ch=13 n=69 v=88
454560 On ch=13 n=66 v=88
455040 Off ch=13 n=66 v=64
455040 Off ch=13 n=69 v=64
455520 On ch=13 n=69 v=88
455520 On ch=13 n=66 v=88
456000 Off ch=13 n=66 v=64
456000 Off ch=13 n=69 v=64
456480 On ch=13 n=69 v=88
456480 On ch=13 n=66 v=88
456960 Off ch=13 n=66 v=64
456960 Off ch=13 n=69 v=64
457440 On ch=13 n=71 v=88
457440 On ch=13 n=67 v=88
457920 Off ch=13 n=67 v=64
457920 Off ch=13 n=71 v=64
458400 On ch=13 n=67 v=88
458400 On ch=13 n=71 v=88
458880 Off ch=13 n=71 v=64
458880 Off ch=13 n=67 v=64
459360 On ch=13 n=67 v=88
459360 On ch=13 n=71 v=88
459840 Off ch=13 n=71 v=64
459840 Off ch=13 n=67 v=64
460320 On ch=13 n=67 v=88
460320 On ch=13 n=71 v=88
460800 Off ch=13 n=71 v=64
460800 Off ch=13 n=67 v=64
461280 On ch=13 n=67 v=88
461280 On ch=13 n=71 v=88
461760 Off ch=13 n=71 v=64
461760 Off ch=13 n=67 v=64
462240 On ch=13 n=67 v=88
462240 On ch=13 n=71 v=88
462720 Off ch=13 n=71 v=64
462720 Off ch=13 n=67 v=64
462720 On ch=13 n=71 v=99
462720 On ch=13 n=67 v=99
463200 Off ch=13 n=67 v=64
463200 Off ch=13 n=71 v=64
463200 Meta TrkEnd
TrkEnd
MTrk
0 SeqSpec 43 00 01 ff
0 Meta TrkName "Trombone(s)"
1920 PrCh ch=14 p=11
1930 Par ch=14 c=7 v=100
1940 Par ch=14 c=10 v=64
1950 Par ch=14 c=11 v=127
1960 Par ch=14 c=20 v=127
1970 Par ch=14 c=91 v=0
1980 Par ch=14 c=93 v=0
1990 Par ch=14 c=94 v=0
2000 Par ch=14 c=101 v=0
2010 Par ch=14 c=100 v=0
2020 Par ch=14 c=6 v=2
2030 Par ch=14 c=101 v=127
2040 Par ch=14 c=100 v=127
96000 On ch=14 n=39 v=90
96480 Off ch=14 n=39 v=64
96480 On ch=14 n=58 v=75
96480 On ch=14 n=54 v=75
96688 Off ch=14 n=54 v=64
96688 Off ch=14 n=58 v=64
97440 On ch=14 n=58 v=73
97440 On ch=14 n=54 v=73
97648 Off ch=14 n=54 v=64
97648 Off ch=14 n=58 v=64
97920 On ch=14 n=39 v=90
98400 Off ch=14 n=39 v=64
98400 On ch=14 n=58 v=75
98400 On ch=14 n=54 v=75
98608 Off ch=14 n=54 v=64
98608 Off ch=14 n=58 v=64
99360 On ch=14 n=58 v=73
99360 On ch=14 n=54 v=73
99568 Off ch=14 n=54 v=64
99568 Off ch=14 n=58 v=64
99840 On ch=14 n=39 v=90
100320 Off ch=14 n=39 v=64
100320 On ch=14 n=58 v=73
100320 On ch=14 n=54 v=73
100528 Off ch=14 n=54 v=64
100528 Off ch=14 n=58 v=64
101280 On ch=14 n=54 v=69
101280 On ch=14 n=58 v=69
101488 Off ch=14 n=58 v=64
101488 Off ch=14 n=54 v=64
101760 On ch=14 n=39 v=90
102240 Off ch=14 n=39 v=64
102240 On ch=14 n=58 v=73
102240 On ch=14 n=54 v=73
102448 Off ch=14 n=54 v=64
102448 Off ch=14 n=58 v=64
102720 On ch=14 n=44 v=90
103200 Off ch=14 n=44 v=64
103200 On ch=14 n=54 v=71
103200 On ch=14 n=58 v=71
103408 Off ch=14 n=58 v=64
103408 Off ch=14 n=54 v=64
103680 On ch=14 n=39 v=90
104160 Off ch=14 n=39 v=64
104160 On ch=14 n=54 v=73
104160 On ch=14 n=59 v=73
104368 Off ch=14 n=59 v=64
104368 Off ch=14 n=54 v=64
105120 On ch=14 n=54 v=71
105120 On ch=14 n=59 v=71
105328 Off ch=14 n=59 v=64
105328 Off ch=14 n=54 v=64
105600 On ch=14 n=39 v=90
106080 Off ch=14 n=39 v=64
106080 On ch=14 n=59 v=73
106080 On ch=14 n=54 v=73
106288 Off ch=14 n=54 v=64
106288 Off ch=14 n=59 v=64
107040 On ch=14 n=59 v=71
107040 On ch=14 n=54 v=73
107248 Off ch=14 n=54 v=64
107248 Off ch=14 n=59 v=64
107520 On ch=14 n=37 v=90
108000 Off ch=14 n=37 v=64
108000 On ch=14 n=56 v=73
108000 On ch=14 n=58 v=73
108208 Off ch=14 n=58 v=64
108208 Off ch=14 n=56 v=64
108960 On ch=14 n=58 v=68
108960 On ch=14 n=56 v=68
109168 Off ch=14 n=56 v=64
109168 Off ch=14 n=58 v=64
109440 On ch=14 n=41 v=90
109920 Off ch=14 n=41 v=64
109920 On ch=14 n=56 v=73
109920 On ch=14 n=58 v=73
110128 Off ch=14 n=58 v=64
110128 Off ch=14 n=56 v=64
110400 On ch=14 n=44 v=90
110880 Off ch=14 n=44 v=64
110880 On ch=14 n=58 v=73
110880 On ch=14 n=56 v=73
111088 Off ch=14 n=56 v=64
111088 Off ch=14 n=58 v=64
111360 On ch=14 n=39 v=90
111840 Off ch=14 n=39 v=64
111840 On ch=14 n=54 v=75
111840 On ch=14 n=58 v=75
112048 Off ch=14 n=58 v=64
112048 Off ch=14 n=54 v=64
112800 On ch=14 n=54 v=73
112800 On ch=14 n=58 v=73
113008 Off ch=14 n=58 v=64
113008 Off ch=14 n=54 v=64
113280 On ch=14 n=39 v=90
113760 Off ch=14 n=39 v=64
113760 On ch=14 n=54 v=75
113760 On ch=14 n=58 v=75
113968 Off ch=14 n=58 v=64
113968 Off ch=14 n=54 v=64
114720 On ch=14 n=54 v=73
114720 On ch=14 n=58 v=73
114928 Off ch=14 n=58 v=64
114928 Off ch=14 n=54 v=64
115200 On ch=14 n=39 v=90
115680 Off ch=14 n=39 v=64
115680 On ch=14 n=54 v=73
115680 On ch=14 n=58 v=73
115888 Off ch=14 n=58 v=64
115888 Off ch=14 n=54 v=64
116640 On ch=14 n=58 v=69
116640 On ch=14 n=54 v=69
116848 Off ch=14 n=54 v=64
116848 Off ch=14 n=58 v=64
117120 On ch=14 n=39 v=90
117600 Off ch=14 n=39 v=64
117600 On ch=14 n=54 v=73
117600 On ch=14 n=58 v=73
117808 Off ch=14 n=58 v=64
117808 Off ch=14 n=54 v=64
118080 On ch=14 n=44 v=90
118560 Off ch=14 n=44 v=64
118560 On ch=14 n=58 v=71
118560 On ch=14 n=54 v=71
118768 Off ch=14 n=54 v=64
118768 Off ch=14 n=58 v=64
119040 On ch=14 n=39 v=90
119520 Off ch=14 n=39 v=64
119520 On ch=14 n=59 v=73
119520 On ch=14 n=54 v=73
119728 Off ch=14 n=54 v=64
119728 Off ch=14 n=59 v=64
120480 On ch=14 n=59 v=71
120480 On ch=14 n=54 v=71
120688 Off ch=14 n=54 v=64
120688 Off ch=14 n=59 v=64
120960 On ch=14 n=39 v=90
121440 Off ch=14 n=39 v=64
121440 On ch=14 n=54 v=73
121440 On ch=14 n=59 v=73
121648 Off ch=14 n=59 v=64
121648 Off ch=14 n=54 v=64
122400 On ch=14 n=54 v=73
122400 On ch=14 n=59 v=71
122608 Off ch=14 n=59 v=64
122608 Off ch=14 n=54 v=64
122880 On ch=14 n=37 v=90
123360 Off ch=14 n=37 v=64
123360 On ch=14 n=58 v=73
123360 On ch=14 n=56 v=73
123568 Off ch=14 n=56 v=64
123568 Off ch=14 n=58 v=64
124320 On ch=14 n=56 v=68
124320 On ch=14 n=58 v=68
124528 Off ch=14 n=58 v=64
124528 Off ch=14 n=56 v=64
124800 On ch=14 n=41 v=90
125280 Off ch=14 n=41 v=64
125280 On ch=14 n=58 v=73
125280 On ch=14 n=56 v=73
125488 Off ch=14 n=56 v=64
125488 Off ch=14 n=58 v=64
125760 On ch=14 n=44 v=90
126240 Off ch=14 n=44 v=64
126240 On ch=14 n=56 v=73
126240 On ch=14 n=58 v=73
126448 Off ch=14 n=58 v=64
126448 Off ch=14 n=56 v=64
126720 On ch=14 n=39 v=98
127056 Off ch=14 n=39 v=64
127200 On ch=14 n=54 v=76
127200 On ch=14 n=59 v=76
127408 Off ch=14 n=59 v=64
127408 Off ch=14 n=54 v=64
127680 On ch=14 n=39 v=98
128016 Off ch=14 n=39 v=64
128160 On ch=14 n=54 v=74
128160 On ch=14 n=59 v=74
128368 Off ch=14 n=59 v=64
128368 Off ch=14 n=54 v=64
128640 On ch=14 n=39 v=98
128976 Off ch=14 n=39 v=64
129120 On ch=14 n=54 v=76
129120 On ch=14 n=59 v=76
129328 Off ch=14 n=59 v=64
129328 Off ch=14 n=54 v=64
129600 On ch=14 n=39 v=98
129936 Off ch=14 n=39 v=64
130080 On ch=14 n=54 v=74
130080 On ch=14 n=59 v=74
130288 Off ch=14 n=59 v=64
130288 Off ch=14 n=54 v=64
130560 On ch=14 n=39 v=98
130896 Off ch=14 n=39 v=64
131040 On ch=14 n=53 v=76
131040 On ch=14 n=56 v=74
131248 Off ch=14 n=56 v=64
131248 Off ch=14 n=53 v=64
131520 On ch=14 n=39 v=98
131856 Off ch=14 n=39 v=64
132000 On ch=14 n=53 v=74
132000 On ch=14 n=56 v=70
132208 Off ch=14 n=56 v=64
132208 Off ch=14 n=53 v=64
132480 On ch=14 n=39 v=98
132816 Off ch=14 n=39 v=64
132960 On ch=14 n=53 v=76
132960 On ch=14 n=56 v=74
133168 Off ch=14 n=56 v=64
133168 Off ch=14 n=53 v=64
133440 On ch=14 n=39 v=98
133776 Off ch=14 n=39 v=64
133920 On ch=14 n=53 v=74
133920 On ch=14 n=56 v=72
134128 Off ch=14 n=56 v=64
134128 Off ch=14 n=53 v=64
134400 On ch=14 n=39 v=98
134736 Off ch=14 n=39 v=64
134880 On ch=14 n=54 v=76
134880 On ch=14 n=58 v=76
135088 Off ch=14 n=58 v=64
135088 Off ch=14 n=54 v=64
135360 On ch=14 n=39 v=98
135696 Off ch=14 n=39 v=64
135840 On ch=14 n=54 v=74
135840 On ch=14 n=58 v=74
136048 Off ch=14 n=58 v=64
136048 Off ch=14 n=54 v=64
136320 On ch=14 n=39 v=98
136656 Off ch=14 n=39 v=64
136800 On ch=14 n=54 v=76
136800 On ch=14 n=58 v=76
137008 Off ch=14 n=58 v=64
137008 Off ch=14 n=54 v=64
137280 On ch=14 n=39 v=98
137616 Off ch=14 n=39 v=64
137760 On ch=14 n=54 v=74
137760 On ch=14 n=58 v=74
137968 Off ch=14 n=58 v=64
137968 Off ch=14 n=54 v=64
138240 On ch=14 n=39 v=98
138576 Off ch=14 n=39 v=64
138720 On ch=14 n=54 v=74
138720 On ch=14 n=58 v=74
138928 Off ch=14 n=58 v=64
138928 Off ch=14 n=54 v=64
139200 On ch=14 n=39 v=98
139536 Off ch=14 n=39 v=64
139680 On ch=14 n=54 v=70
139680 On ch=14 n=58 v=70
139888 Off ch=14 n=58 v=64
139888 Off ch=14 n=54 v=64
140160 On ch=14 n=39 v=98
140496 Off ch=14 n=39 v=64
140640 On ch=14 n=54 v=74
140640 On ch=14 n=58 v=74
140848 Off ch=14 n=58 v=64
140848 Off ch=14 n=54 v=64
141120 On ch=14 n=39 v=98
141456 Off ch=14 n=39 v=64
141600 On ch=14 n=54 v=72
141600 On ch=14 n=58 v=72
141808 Off ch=14 n=58 v=64
141808 Off ch=14 n=54 v=64
142080 On ch=14 n=39 v=98
142416 Off ch=14 n=39 v=64
142560 On ch=14 n=59 v=76
142560 On ch=14 n=54 v=76
142768 Off ch=14 n=54 v=64
142768 Off ch=14 n=59 v=64
143040 On ch=14 n=39 v=98
143376 Off ch=14 n=39 v=64
143520 On ch=14 n=59 v=74
143520 On ch=14 n=54 v=74
143728 Off ch=14 n=54 v=64
143728 Off ch=14 n=59 v=64
144000 On ch=14 n=39 v=98
144336 Off ch=14 n=39 v=64
144480 On ch=14 n=59 v=76
144480 On ch=14 n=54 v=76
144688 Off ch=14 n=54 v=64
144688 Off ch=14 n=59 v=64
144960 On ch=14 n=39 v=98
145296 Off ch=14 n=39 v=64
145440 On ch=14 n=59 v=74
145440 On ch=14 n=54 v=74
145648 Off ch=14 n=54 v=64
145648 Off ch=14 n=59 v=64
145920 On ch=14 n=39 v=98
146256 Off ch=14 n=39 v=64
146400 On ch=14 n=56 v=74
146400 On ch=14 n=53 v=76
146608 Off ch=14 n=53 v=64
146608 Off ch=14 n=56 v=64
146880 On ch=14 n=39 v=98
147216 Off ch=14 n=39 v=64
147360 On ch=14 n=56 v=70
147360 On ch=14 n=53 v=74
147568 Off ch=14 n=53 v=64
147568 Off ch=14 n=56 v=64
147840 On ch=14 n=39 v=98
148176 Off ch=14 n=39 v=64
148320 On ch=14 n=56 v=74
148320 On ch=14 n=53 v=76
148528 Off ch=14 n=53 v=64
148528 Off ch=14 n=56 v=64
148800 On ch=14 n=39 v=98
149136 Off ch=14 n=39 v=64
149280 On ch=14 n=56 v=72
149280 On ch=14 n=53 v=74
149488 Off ch=14 n=53 v=64
149488 Off ch=14 n=56 v=64
149760 On ch=14 n=39 v=98
150096 Off ch=14 n=39 v=64
150240 On ch=14 n=58 v=76
150240 On ch=14 n=54 v=76
150448 Off ch=14 n=54 v=64
150448 Off ch=14 n=58 v=64
150720 On ch=14 n=39 v=98
151056 Off ch=14 n=39 v=64
151200 On ch=14 n=58 v=74
151200 On ch=14 n=54 v=74
151408 Off ch=14 n=54 v=64
151408 Off ch=14 n=58 v=64
151680 On ch=14 n=39 v=98
152016 Off ch=14 n=39 v=64
152160 On ch=14 n=58 v=76
152160 On ch=14 n=54 v=76
152368 Off ch=14 n=54 v=64
152368 Off ch=14 n=58 v=64
152640 On ch=14 n=39 v=98
152976 Off ch=14 n=39 v=64
153120 On ch=14 n=58 v=74
153120 On ch=14 n=54 v=74
153328 Off ch=14 n=54 v=64
153328 Off ch=14 n=58 v=64
153600 On ch=14 n=39 v=98
153936 Off ch=14 n=39 v=64
154080 On ch=14 n=58 v=74
154080 On ch=14 n=54 v=74
154288 Off ch=14 n=54 v=64
154288 Off ch=14 n=58 v=64
154560 On ch=14 n=39 v=98
154896 Off ch=14 n=39 v=64
155040 On ch=14 n=58 v=70
155040 On ch=14 n=54 v=70
155248 Off ch=14 n=54 v=64
155248 Off ch=14 n=58 v=64
155520 On ch=14 n=39 v=98
155856 Off ch=14 n=39 v=64
156000 On ch=14 n=58 v=74
156000 On ch=14 n=54 v=74
156208 Off ch=14 n=54 v=64
156208 Off ch=14 n=58 v=64
156480 On ch=14 n=39 v=98
156816 Off ch=14 n=39 v=64
156960 On ch=14 n=58 v=72
156960 On ch=14 n=54 v=72
157168 Off ch=14 n=54 v=64
157168 Off ch=14 n=58 v=64
157440 On ch=14 n=39 v=98
157776 Off ch=14 n=39 v=64
157920 On ch=14 n=59 v=76
157920 On ch=14 n=54 v=76
158128 Off ch=14 n=54 v=64
158128 Off ch=14 n=59 v=64
158400 On ch=14 n=39 v=98
158736 Off ch=14 n=39 v=64
158880 On ch=14 n=59 v=74
158880 On ch=14 n=54 v=74
159088 Off ch=14 n=54 v=64
159088 Off ch=14 n=59 v=64
159360 On ch=14 n=39 v=98
159696 Off ch=14 n=39 v=64
159840 On ch=14 n=59 v=76
159840 On ch=14 n=54 v=76
160048 Off ch=14 n=54 v=64
160048 Off ch=14 n=59 v=64
160320 On ch=14 n=39 v=98
160656 Off ch=14 n=39 v=64
160800 On ch=14 n=59 v=74
160800 On ch=14 n=54 v=74
161008 Off ch=14 n=54 v=64
161008 Off ch=14 n=59 v=64
161280 On ch=14 n=39 v=98
161616 Off ch=14 n=39 v=64
161760 On ch=14 n=56 v=74
161760 On ch=14 n=53 v=76
161968 Off ch=14 n=53 v=64
161968 Off ch=14 n=56 v=64
162240 On ch=14 n=39 v=98
162576 Off ch=14 n=39 v=64
162720 On ch=14 n=56 v=70
162720 On ch=14 n=53 v=74
162928 Off ch=14 n=53 v=64
162928 Off ch=14 n=56 v=64
163200 On ch=14 n=39 v=98
163536 Off ch=14 n=39 v=64
163680 On ch=14 n=56 v=74
163680 On ch=14 n=53 v=76
163888 Off ch=14 n=53 v=64
163888 Off ch=14 n=56 v=64
164160 On ch=14 n=39 v=98
164496 Off ch=14 n=39 v=64
164640 On ch=14 n=56 v=72
164640 On ch=14 n=53 v=74
164848 Off ch=14 n=53 v=64
164848 Off ch=14 n=56 v=64
165120 On ch=14 n=39 v=98
165456 Off ch=14 n=39 v=64
165600 On ch=14 n=58 v=76
165600 On ch=14 n=54 v=76
165808 Off ch=14 n=54 v=64
165808 Off ch=14 n=58 v=64
166080 On ch=14 n=39 v=98
166416 Off ch=14 n=39 v=64
166560 On ch=14 n=58 v=74
166560 On ch=14 n=54 v=74
166768 Off ch=14 n=54 v=64
166768 Off ch=14 n=58 v=64
167040 On ch=14 n=39 v=98
167376 Off ch=14 n=39 v=64
167520 On ch=14 n=58 v=76
167520 On ch=14 n=54 v=76
167728 Off ch=14 n=54 v=64
167728 Off ch=14 n=58 v=64
168000 On ch=14 n=39 v=98
168336 Off ch=14 n=39 v=64
168480 On ch=14 n=58 v=74
168480 On ch=14 n=54 v=74
168688 Off ch=14 n=54 v=64
168688 Off ch=14 n=58 v=64
168960 On ch=14 n=39 v=98
169296 Off ch=14 n=39 v=64
169440 On ch=14 n=58 v=74
169440 On ch=14 n=54 v=74
169648 Off ch=14 n=54 v=64
169648 Off ch=14 n=58 v=64
169920 On ch=14 n=39 v=98
170256 Off ch=14 n=39 v=64
170400 On ch=14 n=58 v=70
170400 On ch=14 n=54 v=70
170608 Off ch=14 n=54 v=64
170608 Off ch=14 n=58 v=64
170880 On ch=14 n=39 v=98
171216 Off ch=14 n=39 v=64
171360 On ch=14 n=58 v=74
171360 On ch=14 n=54 v=74
171568 Off ch=14 n=54 v=64
171568 Off ch=14 n=58 v=64
171840 On ch=14 n=39 v=98
172176 Off ch=14 n=39 v=64
172320 On ch=14 n=58 v=72
172320 On ch=14 n=54 v=72
172528 Off ch=14 n=54 v=64
172528 Off ch=14 n=58 v=64
172800 On ch=14 n=39 v=98
173136 Off ch=14 n=39 v=64
173280 On ch=14 n=54 v=76
173280 On ch=14 n=59 v=76
173488 Off ch=14 n=59 v=64
173488 Off ch=14 n=54 v=64
173760 On ch=14 n=39 v=98
174096 Off ch=14 n=39 v=64
174240 On ch=14 n=54 v=74
174240 On ch=14 n=59 v=74
174448 Off ch=14 n=59 v=64
174448 Off ch=14 n=54 v=64
174720 On ch=14 n=39 v=98
175056 Off ch=14 n=39 v=64
175200 On ch=14 n=54 v=76
175200 On ch=14 n=59 v=76
175408 Off ch=14 n=59 v=64
175408 Off ch=14 n=54 v=64
175680 On ch=14 n=39 v=98
176016 Off ch=14 n=39 v=64
176160 On ch=14 n=54 v=74
176160 On ch=14 n=59 v=74
176368 Off ch=14 n=59 v=64
176368 Off ch=14 n=54 v=64
176640 On ch=14 n=39 v=98
176976 Off ch=14 n=39 v=64
177120 On ch=14 n=53 v=76
177120 On ch=14 n=56 v=74
177328 Off ch=14 n=56 v=64
177328 Off ch=14 n=53 v=64
177600 On ch=14 n=39 v=98
177936 Off ch=14 n=39 v=64
178080 On ch=14 n=53 v=74
178080 On ch=14 n=56 v=70
178288 Off ch=14 n=56 v=64
178288 Off ch=14 n=53 v=64
178560 On ch=14 n=39 v=98
178896 Off ch=14 n=39 v=64
179040 On ch=14 n=53 v=76
179040 On ch=14 n=56 v=74
179248 Off ch=14 n=56 v=64
179248 Off ch=14 n=53 v=64
179520 On ch=14 n=39 v=98
179856 Off ch=14 n=39 v=64
180000 On ch=14 n=53 v=74
180000 On ch=14 n=56 v=72
180208 Off ch=14 n=56 v=64
180208 Off ch=14 n=53 v=64
180480 On ch=14 n=39 v=98
180816 Off ch=14 n=39 v=64
180960 On ch=14 n=54 v=76
180960 On ch=14 n=58 v=76
181168 Off ch=14 n=58 v=64
181168 Off ch=14 n=54 v=64
181440 On ch=14 n=39 v=98
181776 Off ch=14 n=39 v=64
181920 On ch=14 n=54 v=74
181920 On ch=14 n=58 v=74
182128 Off ch=14 n=58 v=64
182128 Off ch=14 n=54 v=64
182400 On ch=14 n=39 v=98
182736 Off ch=14 n=39 v=64
182880 On ch=14 n=54 v=76
182880 On ch=14 n=58 v=76
183088 Off ch=14 n=58 v=64
183088 Off ch=14 n=54 v=64
183360 On ch=14 n=39 v=98
183696 Off ch=14 n=39 v=64
183840 On ch=14 n=54 v=74
183840 On ch=14 n=58 v=74
184048 Off ch=14 n=58 v=64
184048 Off ch=14 n=54 v=64
184320 On ch=14 n=39 v=98
184656 Off ch=14 n=39 v=64
184800 On ch=14 n=54 v=74
184800 On ch=14 n=58 v=74
185008 Off ch=14 n=58 v=64
185008 Off ch=14 n=54 v=64
185280 On ch=14 n=39 v=98
185616 Off ch=14 n=39 v=64
185760 On ch=14 n=54 v=70
185760 On ch=14 n=58 v=70
185968 Off ch=14 n=58 v=64
185968 Off ch=14 n=54 v=64
186240 On ch=14 n=39 v=118
186576 Off ch=14 n=39 v=64
216960 On ch=14 n=63 v=88
216960 On ch=14 n=56 v=88
216960 On ch=14 n=44 v=98
217296 Off ch=14 n=44 v=64
217440 Off ch=14 n=56 v=64
217440 Off ch=14 n=63 v=64
217920 On ch=14 n=61 v=88
217920 On ch=14 n=54 v=88
217920 On ch=14 n=42 v=98
218256 Off ch=14 n=42 v=64
218400 Off ch=14 n=54 v=64
218400 Off ch=14 n=61 v=64
218880 On ch=14 n=39 v=108
218880 On ch=14 n=63 v=108
219360 Off ch=14 n=63 v=64
219360 Off ch=14 n=39 v=64
220800 On ch=14 n=39 v=108
220800 On ch=14 n=63 v=108
221280 Off ch=14 n=63 v=64
221280 Off ch=14 n=39 v=64
222720 On ch=14 n=39 v=108
222720 On ch=14 n=63 v=108
223200 Off ch=14 n=63 v=64
223200 Off ch=14 n=39 v=64
224640 On ch=14 n=39 v=108
224640 On ch=14 n=63 v=108
225120 Off ch=14 n=63 v=64
225120 Off ch=14 n=39 v=64
225600 On ch=14 n=44 v=108
225600 On ch=14 n=68 v=108
226080 Off ch=14 n=68 v=64
226080 Off ch=14 n=44 v=64
226560 On ch=14 n=39 v=108
226560 On ch=14 n=63 v=108
227040 Off ch=14 n=63 v=64
227040 Off ch=14 n=39 v=64
228480 On ch=14 n=39 v=108
228480 On ch=14 n=63 v=108
228960 Off ch=14 n=63 v=64
228960 Off ch=14 n=39 v=64
230400 On ch=14 n=39 v=108
230400 On ch=14 n=63 v=108
230880 Off ch=14 n=63 v=64
230880 Off ch=14 n=39 v=64
232320 On ch=14 n=44 v=108
232320 On ch=14 n=68 v=108
232800 Off ch=14 n=68 v=64
232800 Off ch=14 n=44 v=64
233280 On ch=14 n=42 v=108
233280 On ch=14 n=66 v=108
233760 Off ch=14 n=66 v=64
233760 Off ch=14 n=42 v=64
234240 On ch=14 n=39 v=108
234240 On ch=14 n=63 v=108
234720 Off ch=14 n=63 v=64
234720 Off ch=14 n=39 v=64
236160 On ch=14 n=39 v=108
236160 On ch=14 n=63 v=108
236640 Off ch=14 n=63 v=64
236640 Off ch=14 n=39 v=64
238080 On ch=14 n=39 v=108
238080 On ch=14 n=63 v=108
238560 Off ch=14 n=63 v=64
238560 Off ch=14 n=39 v=64
240000 On ch=14 n=39 v=108
240000 On ch=14 n=63 v=108
240480 Off ch=14 n=63 v=64
240480 Off ch=14 n=39 v=64
240960 On ch=14 n=44 v=108
240960 On ch=14 n=68 v=108
241440 Off ch=14 n=68 v=64
241440 Off ch=14 n=44 v=64
241920 On ch=14 n=39 v=108
241920 On ch=14 n=63 v=108
242400 Off ch=14 n=63 v=64
242400 Off ch=14 n=39 v=64
243840 On ch=14 n=39 v=108
243840 On ch=14 n=63 v=108
244320 Off ch=14 n=63 v=64
244320 Off ch=14 n=39 v=64
245760 On ch=14 n=39 v=108
245760 On ch=14 n=63 v=108
246240 Off ch=14 n=63 v=64
246240 Off ch=14 n=39 v=64
247680 On ch=14 n=44 v=108
247680 On ch=14 n=68 v=108
248160 Off ch=14 n=68 v=64
248160 Off ch=14 n=44 v=64
248640 On ch=14 n=42 v=108
248640 On ch=14 n=66 v=108
249120 Off ch=14 n=66 v=64
249120 Off ch=14 n=42 v=64
311520 On ch=14 n=59 v=84
311520 On ch=14 n=54 v=84
311728 Off ch=14 n=54 v=64
311728 Off ch=14 n=59 v=64
312480 On ch=14 n=59 v=82
312480 On ch=14 n=54 v=82
312688 Off ch=14 n=54 v=64
312688 Off ch=14 n=59 v=64
313440 On ch=14 n=59 v=84
313440 On ch=14 n=54 v=84
313648 Off ch=14 n=54 v=64
313648 Off ch=14 n=59 v=64
314400 On ch=14 n=59 v=82
314400 On ch=14 n=54 v=82
314608 Off ch=14 n=54 v=64
314608 Off ch=14 n=59 v=64
315360 On ch=14 n=56 v=82
315360 On ch=14 n=53 v=84
315568 Off ch=14 n=53 v=64
315568 Off ch=14 n=56 v=64
316320 On ch=14 n=56 v=78
316320 On ch=14 n=53 v=82
316528 Off ch=14 n=53 v=64
316528 Off ch=14 n=56 v=64
317280 On ch=14 n=56 v=82
317280 On ch=14 n=53 v=84
317488 Off ch=14 n=53 v=64
317488 Off ch=14 n=56 v=64
318240 On ch=14 n=56 v=80
318240 On ch=14 n=53 v=82
318448 Off ch=14 n=53 v=64
318448 Off ch=14 n=56 v=64
319200 On ch=14 n=58 v=84
319200 On ch=14 n=54 v=84
319408 Off ch=14 n=54 v=64
319408 Off ch=14 n=58 v=64
320160 On ch=14 n=58 v=82
320160 On ch=14 n=54 v=82
320368 Off ch=14 n=54 v=64
320368 Off ch=14 n=58 v=64
321120 On ch=14 n=58 v=84
321120 On ch=14 n=54 v=84
321328 Off ch=14 n=54 v=64
321328 Off ch=14 n=58 v=64
322080 On ch=14 n=58 v=82
322080 On ch=14 n=54 v=82
322288 Off ch=14 n=54 v=64
322288 Off ch=14 n=58 v=64
323040 On ch=14 n=58 v=82
323040 On ch=14 n=54 v=82
323248 Off ch=14 n=54 v=64
323248 Off ch=14 n=58 v=64
324000 On ch=14 n=58 v=78
324000 On ch=14 n=54 v=78
324208 Off ch=14 n=54 v=64
324208 Off ch=14 n=58 v=64
324960 On ch=14 n=58 v=82
324960 On ch=14 n=54 v=82
325168 Off ch=14 n=54 v=64
325168 Off ch=14 n=58 v=64
325920 On ch=14 n=58 v=80
325920 On ch=14 n=54 v=80
326128 Off ch=14 n=54 v=64
326128 Off ch=14 n=58 v=64
326880 On ch=14 n=54 v=84
326880 On ch=14 n=59 v=84
327088 Off ch=14 n=59 v=64
327088 Off ch=14 n=54 v=64
327840 On ch=14 n=54 v=82
327840 On ch=14 n=59 v=82
328048 Off ch=14 n=59 v=64
328048 Off ch=14 n=54 v=64
328800 On ch=14 n=54 v=84
328800 On ch=14 n=59 v=84
329008 Off ch=14 n=59 v=64
329008 Off ch=14 n=54 v=64
329760 On ch=14 n=54 v=82
329760 On ch=14 n=59 v=82
329968 Off ch=14 n=59 v=64
329968 Off ch=14 n=54 v=64
330720 On ch=14 n=53 v=84
330720 On ch=14 n=56 v=82
330928 Off ch=14 n=56 v=64
330928 Off ch=14 n=53 v=64
331680 On ch=14 n=53 v=82
331680 On ch=14 n=56 v=78
331888 Off ch=14 n=56 v=64
331888 Off ch=14 n=53 v=64
332640 On ch=14 n=53 v=84
332640 On ch=14 n=56 v=82
332848 Off ch=14 n=56 v=64
332848 Off ch=14 n=53 v=64
333600 On ch=14 n=53 v=82
333600 On ch=14 n=56 v=80
333808 Off ch=14 n=56 v=64
333808 Off ch=14 n=53 v=64
334560 On ch=14 n=54 v=84
334560 On ch=14 n=58 v=84
334768 Off ch=14 n=58 v=64
334768 Off ch=14 n=54 v=64
335520 On ch=14 n=54 v=82
335520 On ch=14 n=58 v=82
335728 Off ch=14 n=58 v=64
335728 Off ch=14 n=54 v=64
336480 On ch=14 n=54 v=84
336480 On ch=14 n=58 v=84
336688 Off ch=14 n=58 v=64
336688 Off ch=14 n=54 v=64
337440 On ch=14 n=54 v=82
337440 On ch=14 n=58 v=82
337648 Off ch=14 n=58 v=64
337648 Off ch=14 n=54 v=64
338400 On ch=14 n=54 v=82
338400 On ch=14 n=58 v=82
338608 Off ch=14 n=58 v=64
338608 Off ch=14 n=54 v=64
339360 On ch=14 n=54 v=78
339360 On ch=14 n=58 v=78
339568 Off ch=14 n=58 v=64
339568 Off ch=14 n=54 v=64
340320 On ch=14 n=54 v=82
340320 On ch=14 n=58 v=82
340528 Off ch=14 n=58 v=64
340528 Off ch=14 n=54 v=64
341280 On ch=14 n=54 v=80
341280 On ch=14 n=58 v=80
341488 Off ch=14 n=58 v=64
341488 Off ch=14 n=54 v=64
341760 On ch=14 n=47 v=98
342240 Off ch=14 n=47 v=64
342240 On ch=14 n=51 v=90
342240 On ch=14 n=54 v=92
342240 On ch=14 n=59 v=92
342448 Off ch=14 n=59 v=64
342448 Off ch=14 n=54 v=64
342720 Off ch=14 n=51 v=64
342720 On ch=14 n=59 v=90
343200 Off ch=14 n=59 v=64
343200 On ch=14 n=54 v=90
343200 On ch=14 n=59 v=90
343408 Off ch=14 n=59 v=64
343408 Off ch=14 n=54 v=64
343680 On ch=14 n=47 v=97
344160 Off ch=14 n=47 v=64
344160 On ch=14 n=51 v=90
344160 On ch=14 n=54 v=92
344160 On ch=14 n=59 v=92
344368 Off ch=14 n=59 v=64
344368 Off ch=14 n=54 v=64
344640 Off ch=14 n=51 v=64
344640 On ch=14 n=59 v=90
345120 Off ch=14 n=59 v=64
345120 On ch=14 n=54 v=90
345120 On ch=14 n=59 v=90
345328 Off ch=14 n=59 v=64
345328 Off ch=14 n=54 v=64
345600 On ch=14 n=49 v=97
346080 Off ch=14 n=49 v=64
346080 On ch=14 n=53 v=90
346080 On ch=14 n=53 v=92
346080 On ch=14 n=56 v=90
346288 Off ch=14 n=56 v=64
346288 Off ch=14 n=53 v=64
346560 Off ch=14 n=53 v=64
346560 On ch=14 n=61 v=90
347040 Off ch=14 n=61 v=64
347040 On ch=14 n=53 v=90
347040 On ch=14 n=56 v=86
347248 Off ch=14 n=56 v=64
347248 Off ch=14 n=53 v=64
347520 On ch=14 n=49 v=98
348000 Off ch=14 n=49 v=64
348000 On ch=14 n=53 v=90
348000 On ch=14 n=53 v=92
348000 On ch=14 n=56 v=90
348208 Off ch=14 n=56 v=64
348208 Off ch=14 n=53 v=64
348480 Off ch=14 n=53 v=64
348480 On ch=14 n=61 v=90
348960 Off ch=14 n=61 v=64
348960 On ch=14 n=53 v=90
348960 On ch=14 n=56 v=88
349168 Off ch=14 n=56 v=64
349168 Off ch=14 n=53 v=64
349440 On ch=14 n=51 v=99
349920 Off ch=14 n=51 v=64
349920 On ch=14 n=54 v=90
349920 On ch=14 n=54 v=92
349920 On ch=14 n=58 v=92
350128 Off ch=14 n=58 v=64
350128 Off ch=14 n=54 v=64
350400 Off ch=14 n=54 v=64
350400 On ch=14 n=63 v=90
350880 Off ch=14 n=63 v=64
350880 On ch=14 n=54 v=90
350880 On ch=14 n=58 v=90
351088 Off ch=14 n=58 v=64
351088 Off ch=14 n=54 v=64
351360 On ch=14 n=51 v=99
351840 Off ch=14 n=51 v=64
351840 On ch=14 n=54 v=90
351840 On ch=14 n=54 v=92
351840 On ch=14 n=58 v=92
352048 Off ch=14 n=58 v=64
352048 Off ch=14 n=54 v=64
352320 Off ch=14 n=54 v=64
352320 On ch=14 n=63 v=90
352800 Off ch=14 n=63 v=64
352800 On ch=14 n=54 v=90
352800 On ch=14 n=58 v=90
353008 Off ch=14 n=58 v=64
353008 Off ch=14 n=54 v=64
353280 On ch=14 n=51 v=97
353760 Off ch=14 n=51 v=64
353760 On ch=14 n=54 v=90
353760 On ch=14 n=54 v=90
353760 On ch=14 n=58 v=90
353968 Off ch=14 n=58 v=64
353968 Off ch=14 n=54 v=64
354240 Off ch=14 n=54 v=64
354240 On ch=14 n=63 v=90
354720 Off ch=14 n=63 v=64
354720 On ch=14 n=54 v=86
354720 On ch=14 n=58 v=86
354928 Off ch=14 n=58 v=64
354928 Off ch=14 n=54 v=64
355200 On ch=14 n=51 v=97
355680 Off ch=14 n=51 v=64
355680 On ch=14 n=54 v=90
355680 On ch=14 n=54 v=90
355680 On ch=14 n=58 v=90
355888 Off ch=14 n=58 v=64
355888 Off ch=14 n=54 v=64
356160 Off ch=14 n=54 v=64
356160 On ch=14 n=63 v=90
356640 Off ch=14 n=63 v=64
356640 On ch=14 n=54 v=88
356640 On ch=14 n=58 v=88
356848 Off ch=14 n=58 v=64
356848 Off ch=14 n=54 v=64
357120 On ch=14 n=47 v=98
357600 Off ch=14 n=47 v=64
357600 On ch=14 n=51 v=90
357600 On ch=14 n=59 v=92
357600 On ch=14 n=54 v=92
357808 Off ch=14 n=54 v=64
357808 Off ch=14 n=59 v=64
358080 Off ch=14 n=51 v=64
358080 On ch=14 n=59 v=90
358560 Off ch=14 n=59 v=64
358560 On ch=14 n=59 v=90
358560 On ch=14 n=54 v=90
358768 Off ch=14 n=54 v=64
358768 Off ch=14 n=59 v=64
359040 On ch=14 n=47 v=97
359520 Off ch=14 n=47 v=64
359520 On ch=14 n=51 v=90
359520 On ch=14 n=59 v=92
359520 On ch=14 n=54 v=92
359728 Off ch=14 n=54 v=64
359728 Off ch=14 n=59 v=64
360000 Off ch=14 n=51 v=64
360000 On ch=14 n=59 v=90
360480 Off ch=14 n=59 v=64
360480 On ch=14 n=59 v=90
360480 On ch=14 n=54 v=90
360688 Off ch=14 n=54 v=64
360688 Off ch=14 n=59 v=64
360960 On ch=14 n=49 v=97
361440 Off ch=14 n=49 v=64
361440 On ch=14 n=53 v=90
361440 On ch=14 n=56 v=90
361440 On ch=14 n=53 v=92
361648 Off ch=14 n=56 v=64
361648 Off ch=14 n=53 v=64
361920 Off ch=14 n=53 v=64
361920 On ch=14 n=61 v=90
362400 Off ch=14 n=61 v=64
362400 On ch=14 n=56 v=86
362400 On ch=14 n=53 v=90
362608 Off ch=14 n=53 v=64
362608 Off ch=14 n=56 v=64
362880 On ch=14 n=49 v=98
363360 Off ch=14 n=49 v=64
363360 On ch=14 n=53 v=90
363360 On ch=14 n=56 v=90
363360 On ch=14 n=53 v=92
363568 Off ch=14 n=56 v=64
363568 Off ch=14 n=53 v=64
363840 Off ch=14 n=53 v=64
363840 On ch=14 n=61 v=90
364320 Off ch=14 n=61 v=64
364320 On ch=14 n=56 v=88
364320 On ch=14 n=53 v=90
364528 Off ch=14 n=53 v=64
364528 Off ch=14 n=56 v=64
364800 On ch=14 n=51 v=99
365280 Off ch=14 n=51 v=64
365280 On ch=14 n=54 v=90
365280 On ch=14 n=58 v=92
365280 On ch=14 n=54 v=92
365488 Off ch=14 n=58 v=64
365488 Off ch=14 n=54 v=64
365760 Off ch=14 n=54 v=64
365760 On ch=14 n=63 v=90
366240 Off ch=14 n=63 v=64
366240 On ch=14 n=58 v=90
366240 On ch=14 n=54 v=90
366448 Off ch=14 n=54 v=64
366448 Off ch=14 n=58 v=64
366720 On ch=14 n=51 v=99
367200 Off ch=14 n=51 v=64
367200 On ch=14 n=54 v=90
367200 On ch=14 n=58 v=92
367200 On ch=14 n=54 v=92
367408 Off ch=14 n=58 v=64
367408 Off ch=14 n=54 v=64
367680 Off ch=14 n=54 v=64
367680 On ch=14 n=63 v=90
368160 Off ch=14 n=63 v=64
368160 On ch=14 n=58 v=90
368160 On ch=14 n=54 v=90
368368 Off ch=14 n=54 v=64
368368 Off ch=14 n=58 v=64
368640 On ch=14 n=51 v=97
369120 Off ch=14 n=51 v=64
369120 On ch=14 n=54 v=90
369120 On ch=14 n=58 v=90
369120 On ch=14 n=54 v=90
369328 Off ch=14 n=58 v=64
369328 Off ch=14 n=54 v=64
369600 Off ch=14 n=54 v=64
369600 On ch=14 n=63 v=90
370080 Off ch=14 n=63 v=64
370080 On ch=14 n=58 v=86
370080 On ch=14 n=54 v=86
370288 Off ch=14 n=54 v=64
370288 Off ch=14 n=58 v=64
370560 On ch=14 n=51 v=97
371040 Off ch=14 n=51 v=64
433920 On ch=14 n=48 v=109
434400 On ch=14 n=55 v=88
434400 On ch=14 n=52 v=88
434880 Off ch=14 n=52 v=64
434880 Off ch=14 n=55 v=64
434880 Off ch=14 n=48 v=64
434880 On ch=14 n=48 v=100
435360 On ch=14 n=52 v=88
435360 On ch=14 n=55 v=88
435840 Off ch=14 n=55 v=64
435840 Off ch=14 n=52 v=64
435840 Off ch=14 n=48 v=64
435840 On ch=14 n=48 v=104
436320 On ch=14 n=52 v=88
436320 On ch=14 n=55 v=88
436800 Off ch=14 n=55 v=64
436800 Off ch=14 n=52 v=64
436800 Off ch=14 n=48 v=64
436800 On ch=14 n=48 v=102
437280 On ch=14 n=52 v=88
437280 On ch=14 n=55 v=88
437760 Off ch=14 n=55 v=64
437760 Off ch=14 n=52 v=64
437760 Off ch=14 n=48 v=64
437760 On ch=14 n=50 v=109
438240 On ch=14 n=54 v=88
438240 On ch=14 n=57 v=88
438720 Off ch=14 n=57 v=64
438720 Off ch=14 n=54 v=64
438720 Off ch=14 n=50 v=64
438720 On ch=14 n=50 v=100
439200 On ch=14 n=57 v=88
439200 On ch=14 n=54 v=88
439680 Off ch=14 n=54 v=64
439680 Off ch=14 n=57 v=64
439680 Off ch=14 n=50 v=64
439680 On ch=14 n=50 v=104
440160 On ch=14 n=57 v=88
440160 On ch=14 n=54 v=88
440640 Off ch=14 n=54 v=64
440640 Off ch=14 n=57 v=64
440640 Off ch=14 n=50 v=64
440640 On ch=14 n=50 v=102
441120 On ch=14 n=57 v=88
441120 On ch=14 n=54 v=88
441600 Off ch=14 n=54 v=64
441600 Off ch=14 n=57 v=64
441600 Off ch=14 n=50 v=64
441600 On ch=14 n=52 v=109
442080 On ch=14 n=59 v=88
442080 On ch=14 n=55 v=88
442560 Off ch=14 n=55 v=64
442560 Off ch=14 n=59 v=64
442560 Off ch=14 n=52 v=64
442560 On ch=14 n=52 v=100
443040 On ch=14 n=55 v=88
443040 On ch=14 n=59 v=88
443520 Off ch=14 n=59 v=64
443520 Off ch=14 n=55 v=64
443520 Off ch=14 n=52 v=64
443520 On ch=14 n=52 v=104
444000 On ch=14 n=55 v=88
444000 On ch=14 n=59 v=88
444480 Off ch=14 n=59 v=64
444480 Off ch=14 n=55 v=64
444480 Off ch=14 n=52 v=64
444480 On ch=14 n=52 v=102
444960 On ch=14 n=55 v=88
444960 On ch=14 n=59 v=88
445440 Off ch=14 n=59 v=64
445440 Off ch=14 n=55 v=64
445440 Off ch=14 n=52 v=64
445440 On ch=14 n=52 v=109
445920 On ch=14 n=55 v=88
445920 On ch=14 n=59 v=88
446400 Off ch=14 n=59 v=64
446400 Off ch=14 n=55 v=64
446400 Off ch=14 n=52 v=64
446400 On ch=14 n=52 v=100
446880 On ch=14 n=55 v=88
446880 On ch=14 n=59 v=88
447360 Off ch=14 n=59 v=64
447360 Off ch=14 n=55 v=64
447360 Off ch=14 n=52 v=64
447360 On ch=14 n=52 v=104
447840 On ch=14 n=55 v=88
447840 On ch=14 n=59 v=88
448320 Off ch=14 n=59 v=64
448320 Off ch=14 n=55 v=64
448320 Off ch=14 n=52 v=64
448320 On ch=14 n=52 v=102
448800 On ch=14 n=55 v=88
448800 On ch=14 n=59 v=88
449280 Off ch=14 n=59 v=64
449280 Off ch=14 n=55 v=64
449280 Off ch=14 n=52 v=64
449280 On ch=14 n=48 v=109
449760 On ch=14 n=52 v=88
449760 On ch=14 n=55 v=88
450240 Off ch=14 n=55 v=64
450240 Off ch=14 n=52 v=64
450240 Off ch=14 n=48 v=64
450240 On ch=14 n=48 v=100
450720 On ch=14 n=55 v=88
450720 On ch=14 n=52 v=88
451200 Off ch=14 n=52 v=64
451200 Off ch=14 n=55 v=64
451200 Off ch=14 n=48 v=64
451200 On ch=14 n=48 v=104
451680 On ch=14 n=55 v=88
451680 On ch=14 n=52 v=88
452160 Off ch=14 n=52 v=64
452160 Off ch=14 n=55 v=64
452160 Off ch=14 n=48 v=64
452160 On ch=14 n=48 v=102
452640 On ch=14 n=55 v=88
452640 On ch=14 n=52 v=88
453120 Off ch=14 n=52 v=64
453120 Off ch=14 n=55 v=64
453120 Off ch=14 n=48 v=64
453120 On ch=14 n=50 v=109
453600 On ch=14 n=57 v=88
453600 On ch=14 n=54 v=88
454080 Off ch=14 n=54 v=64
454080 Off ch=14 n=57 v=64
454080 Off ch=14 n=50 v=64
454080 On ch=14 n=50 v=100
454560 On ch=14 n=54 v=88
454560 On ch=14 n=57 v=88
455040 Off ch=14 n=57 v=64
455040 Off ch=14 n=54 v=64
455040 Off ch=14 n=50 v=64
455040 On ch=14 n=50 v=104
455520 On ch=14 n=54 v=88
455520 On ch=14 n=57 v=88
456000 Off ch=14 n=57 v=64
456000 Off ch=14 n=54 v=64
456000 Off ch=14 n=50 v=64
456000 On ch=14 n=50 v=102
456480 On ch=14 n=54 v=88
456480 On ch=14 n=57 v=88
456960 Off ch=14 n=57 v=64
456960 Off ch=14 n=54 v=64
456960 Off ch=14 n=50 v=64
456960 On ch=14 n=52 v=109
457440 On ch=14 n=55 v=88
457440 On ch=14 n=59 v=88
457920 Off ch=14 n=59 v=64
457920 Off ch=14 n=55 v=64
457920 Off ch=14 n=52 v=64
457920 On ch=14 n=52 v=100
458400 On ch=14 n=59 v=88
458400 On ch=14 n=55 v=88
458880 Off ch=14 n=55 v=64
458880 Off ch=14 n=59 v=64
458880 Off ch=14 n=52 v=64
458880 On ch=14 n=52 v=104
459360 On ch=14 n=59 v=88
459360 On ch=14 n=55 v=88
459840 Off ch=14 n=55 v=64
459840 Off ch=14 n=59 v=64
459840 Off ch=14 n=52 v=64
459840 On ch=14 n=52 v=102
460320 On ch=14 n=59 v=88
460320 On ch=14 n=55 v=88
460800 Off ch=14 n=55 v=64
460800 Off ch=14 n=59 v=64
460800 Off ch=14 n=52 v=64
460800 On ch=14 n=52 v=109
461280 On ch=14 n=59 v=88
461280 On ch=14 n=55 v=88
461760 Off ch=14 n=55 v=64
461760 Off ch=14 n=59 v=64
461760 Off ch=14 n=52 v=64
461760 On ch=14 n=52 v=100
462240 On ch=14 n=59 v=88
462240 On ch=14 n=55 v=88
462720 Off ch=14 n=55 v=64
462720 Off ch=14 n=59 v=64
462720 Off ch=14 n=52 v=64
462720 On ch=14 n=52 v=118
462720 On ch=14 n=55 v=88
462720 On ch=14 n=59 v=88
463200 Off ch=14 n=59 v=64
463200 Off ch=14 n=55 v=64
463680 Off ch=14 n=52 v=64
463680 Meta TrkEnd
TrkEnd
MTrk
0 SeqSpec 43 00 01 ff
0 Meta TrkName "Tuba(s)"
1920 PrCh ch=15 p=12
1930 Par ch=15 c=7 v=100
1940 Par ch=15 c=10 v=64
1950 Par ch=15 c=11 v=127
1960 Par ch=15 c=20 v=127
1970 Par ch=15 c=91 v=0
1980 Par ch=15 c=93 v=0
1990 Par ch=15 c=94 v=0
2000 Par ch=15 c=101 v=0
2010 Par ch=15 c=100 v=0
2020 Par ch=15 c=6 v=2
2030 Par ch=15 c=101 v=127
2040 Par ch=15 c=100 v=127
126720 On ch=15 n=39 v=98
127056 Off ch=15 n=39 v=64
127680 On ch=15 n=39 v=98
128016 Off ch=15 n=39 v=64
128640 On ch=15 n=39 v=98
128976 Off ch=15 n=39 v=64
129600 On ch=15 n=39 v=98
129936 Off ch=15 n=39 v=64
130560 On ch=15 n=39 v=98
130896 Off ch=15 n=39 v=64
131520 On ch=15 n=39 v=98
131856 Off ch=15 n=39 v=64
132480 On ch=15 n=39 v=98
132816 Off ch=15 n=39 v=64
133440 On ch=15 n=39 v=98
133776 Off ch=15 n=39 v=64
134400 On ch=15 n=39 v=98
134736 Off ch=15 n=39 v=64
135360 On ch=15 n=39 v=98
135696 Off ch=15 n=39 v=64
136320 On ch=15 n=39 v=98
136656 Off ch=15 n=39 v=64
137280 On ch=15 n=39 v=98
137616 Off ch=15 n=39 v=64
138240 On ch=15 n=39 v=98
138576 Off ch=15 n=39 v=64
139200 On ch=15 n=39 v=98
139536 Off ch=15 n=39 v=64
140160 On ch=15 n=39 v=98
140496 Off ch=15 n=39 v=64
141120 On ch=15 n=39 v=98
141456 Off ch=15 n=39 v=64
142080 On ch=15 n=39 v=98
142416 Off ch=15 n=39 v=64
143040 On ch=15 n=39 v=98
143376 Off ch=15 n=39 v=64
144000 On ch=15 n=39 v=98
144336 Off ch=15 n=39 v=64
144960 On ch=15 n=39 v=98
145296 Off ch=15 n=39 v=64
145920 On ch=15 n=39 v=98
146256 Off ch=15 n=39 v=64
146880 On ch=15 n=39 v=98
147216 Off ch=15 n=39 v=64
147840 On ch=15 n=39 v=98
148176 Off ch=15 n=39 v=64
148800 On ch=15 n=39 v=98
149136 Off ch=15 n=39 v=64
149760 On ch=15 n=39 v=98
150096 Off ch=15 n=39 v=64
150720 On ch=15 n=39 v=98
151056 Off ch=15 n=39 v=64
151680 On ch=15 n=39 v=98
152016 Off ch=15 n=39 v=64
152640 On ch=15 n=39 v=98
152976 Off ch=15 n=39 v=64
153600 On ch=15 n=39 v=98
153936 Off ch=15 n=39 v=64
154560 On ch=15 n=39 v=98
154896 Off ch=15 n=39 v=64
155520 On ch=15 n=39 v=98
155856 Off ch=15 n=39 v=64
156480 On ch=15 n=39 v=98
156816 Off ch=15 n=39 v=64
157440 On ch=15 n=39 v=98
157776 Off ch=15 n=39 v=64
158400 On ch=15 n=39 v=98
158736 Off ch=15 n=39 v=64
159360 On ch=15 n=39 v=98
159696 Off ch=15 n=39 v=64
160320 On ch=15 n=39 v=98
160656 Off ch=15 n=39 v=64
161280 On ch=15 n=39 v=98
161616 Off ch=15 n=39 v=64
162240 On ch=15 n=39 v=98
162576 Off ch=15 n=39 v=64
163200 On ch=15 n=39 v=98
163536 Off ch=15 n=39 v=64
164160 On ch=15 n=39 v=98
164496 Off ch=15 n=39 v=64
165120 On ch=15 n=39 v=98
165456 Off ch=15 n=39 v=64
166080 On ch=15 n=39 v=98
166416 Off ch=15 n=39 v=64
167040 On ch=15 n=39 v=98
167376 Off ch=15 n=39 v=64
168000 On ch=15 n=39 v=98
168336 Off ch=15 n=39 v=64
168960 On ch=15 n=39 v=98
169296 Off ch=15 n=39 v=64
169920 On ch=15 n=39 v=98
170256 Off ch=15 n=39 v=64
170880 On ch=15 n=39 v=98
171216 Off ch=15 n=39 v=64
171840 On ch=15 n=39 v=98
172176 Off ch=15 n=39 v=64
172800 On ch=15 n=39 v=98
173136 Off ch=15 n=39 v=64
173760 On ch=15 n=39 v=98
174096 Off ch=15 n=39 v=64
174720 On ch=15 n=39 v=98
175056 Off ch=15 n=39 v=64
175680 On ch=15 n=39 v=98
176016 Off ch=15 n=39 v=64
176640 On ch=15 n=39 v=98
176976 Off ch=15 n=39 v=64
177600 On ch=15 n=39 v=98
177936 Off ch=15 n=39 v=64
178560 On ch=15 n=39 v=98
178896 Off ch=15 n=39 v=64
179520 On ch=15 n=39 v=98
179856 Off ch=15 n=39 v=64
180480 On ch=15 n=39 v=98
180816 Off ch=15 n=39 v=64
181440 On ch=15 n=39 v=98
181776 Off ch=15 n=39 v=64
182400 On ch=15 n=39 v=98
182736 Off ch=15 n=39 v=64
183360 On ch=15 n=39 v=98
183696 Off ch=15 n=39 v=64
184320 On ch=15 n=39 v=98
184656 Off ch=15 n=39 v=64
185280 On ch=15 n=39 v=98
185616 Off ch=15 n=39 v=64
186240 On ch=15 n=39 v=113
186576 Off ch=15 n=39 v=64
216960 On ch=15 n=39 v=98
217296 Off ch=15 n=39 v=64
217920 On ch=15 n=39 v=98
218256 Off ch=15 n=39 v=64
218880 On ch=15 n=39 v=108
219360 Off ch=15 n=39 v=64
220800 On ch=15 n=39 v=108
221280 Off ch=15 n=39 v=64
222720 On ch=15 n=39 v=108
223200 Off ch=15 n=39 v=64
224640 On ch=15 n=39 v=108
225120 Off ch=15 n=39 v=64
225600 On ch=15 n=44 v=108
226080 Off ch=15 n=44 v=64
226560 On ch=15 n=39 v=108
227040 Off ch=15 n=39 v=64
228480 On ch=15 n=39 v=108
228960 Off ch=15 n=39 v=64
230400 On ch=15 n=39 v=108
230880 Off ch=15 n=39 v=64
232320 On ch=15 n=44 v=108
232800 Off ch=15 n=44 v=64
233280 On ch=15 n=42 v=108
233760 Off ch=15 n=42 v=64
234240 On ch=15 n=39 v=108
234720 Off ch=15 n=39 v=64
236160 On ch=15 n=39 v=108
236640 Off ch=15 n=39 v=64
238080 On ch=15 n=39 v=108
238560 Off ch=15 n=39 v=64
240000 On ch=15 n=39 v=108
240480 Off ch=15 n=39 v=64
240960 On ch=15 n=44 v=108
241440 Off ch=15 n=44 v=64
241920 On ch=15 n=39 v=108
242400 Off ch=15 n=39 v=64
243840 On ch=15 n=39 v=108
244320 Off ch=15 n=39 v=64
245760 On ch=15 n=39 v=108
246240 Off ch=15 n=39 v=64
247680 On ch=15 n=44 v=108
248160 Off ch=15 n=44 v=64
248640 On ch=15 n=42 v=108
249120 Off ch=15 n=42 v=64
341760 On ch=15 n=35 v=110
342240 Off ch=15 n=35 v=64
342720 On ch=15 n=47 v=102
343200 Off ch=15 n=47 v=64
343200 On ch=15 n=42 v=102
343680 Off ch=15 n=42 v=64
343680 On ch=15 n=35 v=109
344160 Off ch=15 n=35 v=64
344640 On ch=15 n=47 v=102
345120 Off ch=15 n=47 v=64
345120 On ch=15 n=42 v=102
345600 Off ch=15 n=42 v=64
345600 On ch=15 n=37 v=109
346080 Off ch=15 n=37 v=64
346560 On ch=15 n=49 v=102
347040 Off ch=15 n=49 v=64
347040 On ch=15 n=44 v=102
347520 Off ch=15 n=44 v=64
347520 On ch=15 n=37 v=110
348000 Off ch=15 n=37 v=64
348480 On ch=15 n=49 v=102
348960 Off ch=15 n=49 v=64
348960 On ch=15 n=44 v=102
349440 Off ch=15 n=44 v=64
349440 On ch=15 n=39 v=111
349920 Off ch=15 n=39 v=64
350400 On ch=15 n=51 v=102
350880 Off ch=15 n=51 v=64
350880 On ch=15 n=46 v=102
351360 Off ch=15 n=46 v=64
351360 On ch=15 n=39 v=111
351840 Off ch=15 n=39 v=64
352320 On ch=15 n=51 v=102
352800 Off ch=15 n=51 v=64
352800 On ch=15 n=46 v=102
353280 Off ch=15 n=46 v=64
353280 On ch=15 n=39 v=109
353760 Off ch=15 n=39 v=64
354240 On ch=15 n=51 v=102
354720 Off ch=15 n=51 v=64
354720 On ch=15 n=46 v=102
355200 Off ch=15 n=46 v=64
355200 On ch=15 n=39 v=109
355680 Off ch=15 n=39 v=64
356160 On ch=15 n=51 v=102
356640 Off ch=15 n=51 v=64
356640 On ch=15 n=46 v=102
357120 Off ch=15 n=46 v=64
357120 On ch=15 n=35 v=110
357600 Off ch=15 n=35 v=64
358080 On ch=15 n=47 v=102
358560 Off ch=15 n=47 v=64
358560 On ch=15 n=42 v=102
359040 Off ch=15 n=42 v=64
359040 On ch=15 n=35 v=109
359520 Off ch=15 n=35 v=64
360000 On ch=15 n=47 v=102
360480 Off ch=15 n=47 v=64
360480 On ch=15 n=42 v=102
360960 Off ch=15 n=42 v=64
360960 On ch=15 n=37 v=109
361440 Off ch=15 n=37 v=64
361920 On ch=15 n=49 v=102
362400 Off ch=15 n=49 v=64
362400 On ch=15 n=44 v=102
362880 Off ch=15 n=44 v=64
362880 On ch=15 n=37 v=110
363360 Off ch=15 n=37 v=64
363840 On ch=15 n=49 v=102
364320 Off ch=15 n=49 v=64
364320 On ch=15 n=44 v=102
364800 Off ch=15 n=44 v=64
364800 On ch=15 n=39 v=111
365280 Off ch=15 n=39 v=64
365760 On ch=15 n=51 v=102
366240 Off ch=15 n=51 v=64
366240 On ch=15 n=46 v=102
366720 Off ch=15 n=46 v=64
366720 On ch=15 n=39 v=111
367200 Off ch=15 n=39 v=64
367680 On ch=15 n=51 v=102
368160 Off ch=15 n=51 v=64
368160 On ch=15 n=46 v=102
368640 Off ch=15 n=46 v=64
368640 On ch=15 n=39 v=109
369120 Off ch=15 n=39 v=64
369600 On ch=15 n=51 v=102
370080 Off ch=15 n=51 v=64
370080 On ch=15 n=46 v=102
370560 Off ch=15 n=46 v=64
370560 On ch=15 n=39 v=109
371040 Off ch=15 n=39 v=64
433920 On ch=15 n=36 v=109
434880 Off ch=15 n=36 v=64
434880 On ch=15 n=36 v=100
435840 Off ch=15 n=36 v=64
435840 On ch=15 n=36 v=104
436800 Off ch=15 n=36 v=64
436800 On ch=15 n=36 v=102
437760 Off ch=15 n=36 v=64
437760 On ch=15 n=38 v=109
438720 Off ch=15 n=38 v=64
438720 On ch=15 n=38 v=100
439680 Off ch=15 n=38 v=64
439680 On ch=15 n=38 v=104
440640 Off ch=15 n=38 v=64
440640 On ch=15 n=38 v=102
441600 Off ch=15 n=38 v=64
441600 On ch=15 n=40 v=109
442560 Off ch=15 n=40 v=64
442560 On ch=15 n=40 v=100
443520 Off ch=15 n=40 v=64
443520 On ch=15 n=40 v=104
444480 Off ch=15 n=40 v=64
444480 On ch=15 n=40 v=102
445440 Off ch=15 n=40 v=64
445440 On ch=15 n=40 v=109
446400 Off ch=15 n=40 v=64
446400 On ch=15 n=40 v=100
447360 Off ch=15 n=40 v=64
447360 On ch=15 n=40 v=104
448320 Off ch=15 n=40 v=64
448320 On ch=15 n=40 v=102
449280 Off ch=15 n=40 v=64
449280 On ch=15 n=36 v=109
450240 Off ch=15 n=36 v=64
450240 On ch=15 n=36 v=100
451200 Off ch=15 n=36 v=64
451200 On ch=15 n=36 v=104
452160 Off ch=15 n=36 v=64
452160 On ch=15 n=36 v=102
453120 Off ch=15 n=36 v=64
453120 On ch=15 n=38 v=109
454080 Off ch=15 n=38 v=64
454080 On ch=15 n=38 v=100
455040 Off ch=15 n=38 v=64
455040 On ch=15 n=38 v=104
456000 Off ch=15 n=38 v=64
456000 On ch=15 n=38 v=102
456960 Off ch=15 n=38 v=64
456960 On ch=15 n=40 v=109
457920 Off ch=15 n=40 v=64
457920 On ch=15 n=40 v=100
458880 Off ch=15 n=40 v=64
458880 On ch=15 n=40 v=104
459840 Off ch=15 n=40 v=64
459840 On ch=15 n=40 v=102
460800 Off ch=15 n=40 v=64
460800 On ch=15 n=40 v=109
461760 Off ch=15 n=40 v=64
461760 On ch=15 n=40 v=100
462720 Off ch=15 n=40 v=64
462720 On ch=15 n=40 v=127
463680 Off ch=15 n=40 v=64
463680 Meta TrkEnd
TrkEnd
MTrk
0 SeqSpec 43 00 01 ff
0 Meta TrkName "Timpani"
1920 PrCh ch=16 p=10
1930 Par ch=16 c=7 v=127
1940 Par ch=16 c=10 v=64
1950 Par ch=16 c=11 v=127
1960 Par ch=16 c=20 v=127
1970 Par ch=16 c=91 v=0
1980 Par ch=16 c=93 v=0
1990 Par ch=16 c=94 v=0
2000 Par ch=16 c=101 v=0
2010 Par ch=16 c=100 v=0
2020 Par ch=16 c=6 v=2
2030 Par ch=16 c=101 v=127
2040 Par ch=16 c=100 v=127
216960 On ch=16 n=44 v=101
217920 Off ch=16 n=44 v=64
217920 On ch=16 n=42 v=114
218880 Off ch=16 n=42 v=64
218880 On ch=16 n=39 v=117
220776 Off ch=16 n=39 v=64
220800 On ch=16 n=39 v=102
222696 Off ch=16 n=39 v=64
222720 On ch=16 n=39 v=102
224616 Off ch=16 n=39 v=64
224640 On ch=16 n=44 v=85
226536 Off ch=16 n=44 v=64
226560 On ch=16 n=39 v=123
228432 Off ch=16 n=39 v=64
228480 On ch=16 n=39 v=102
230352 Off ch=16 n=39 v=64
230400 On ch=16 n=39 v=102
232272 Off ch=16 n=39 v=64
232320 On ch=16 n=44 v=86
234216 Off ch=16 n=44 v=64
234240 On ch=16 n=39 v=117
236136 Off ch=16 n=39 v=64
236160 On ch=16 n=39 v=102
238056 Off ch=16 n=39 v=64
238080 On ch=16 n=39 v=102
239976 Off ch=16 n=39 v=64
240000 On ch=16 n=44 v=85
241896 Off ch=16 n=44 v=64
241920 On ch=16 n=39 v=123
243792 Off ch=16 n=39 v=64
243840 On ch=16 n=39 v=102
245712 Off ch=16 n=39 v=64
245760 On ch=16 n=39 v=102
247632 Off ch=16 n=39 v=64
247680 On ch=16 n=44 v=86
249576 Off ch=16 n=44 v=64
311040 On ch=16 n=47 v=106
313824 Off ch=16 n=47 v=64
314880 On ch=16 n=49 v=106
317664 Off ch=16 n=49 v=64
318720 On ch=16 n=51 v=106
321504 Off ch=16 n=51 v=64
326400 On ch=16 n=47 v=106
329184 Off ch=16 n=47 v=64
330240 On ch=16 n=49 v=106
333024 Off ch=16 n=49 v=64
334080 On ch=16 n=51 v=106
336864 Off ch=16 n=51 v=64
432960 On ch=16 n=52 v=113
433200 On ch=16 n=52 v=113
433216 Off ch=16 n=52 v=64
433396 Off ch=16 n=52 v=64
433440 On ch=16 n=52 v=127
433920 Off ch=16 n=52 v=64
433920 On ch=16 n=48 v=127
434880 Off ch=16 n=48 v=64
456960 On ch=16 n=52 v=124
457920 Off ch=16 n=52 v=64
457920 On ch=16 n=52 v=68
458880 Off ch=16 n=52 v=64
458880 On ch=16 n=52 v=70
459840 Off ch=16 n=52 v=64
459840 On ch=16 n=52 v=76
460800 Off ch=16 n=52 v=64
460800 On ch=16 n=52 v=84
461760 Off ch=16 n=52 v=64
461760 On ch=16 n=52 v=96
462720 Off ch=16 n=52 v=64
462720 On ch=16 n=52 v=117
463680 Off ch=16 n=52 v=64
463680 Meta TrkEnd
TrkEnd
MTrk
0 SeqSpec 43 00 01 ff
0 Meta TrkName "Timpani(r)"
1920 PrCh ch=1 p=11
1930 Par ch=1 c=7 v=127
1940 Par ch=1 c=10 v=64
1950 Par ch=1 c=11 v=127
1960 Par ch=1 c=20 v=127
1970 Par ch=1 c=91 v=0
1980 Par ch=1 c=93 v=0
1990 Par ch=1 c=94 v=0
2000 Par ch=1 c=101 v=0
2010 Par ch=1 c=100 v=0
2020 Par ch=1 c=6 v=2
2030 Par ch=1 c=101 v=127
2040 Par ch=1 c=100 v=127
122880 Par ch=1 c=11 v=43
123600 Par ch=1 c=11 v=44
123900 Par ch=1 c=11 v=45
124140 Par ch=1 c=11 v=46
124320 Par ch=1 c=11 v=47
124500 Par ch=1 c=11 v=48
124650 Par ch=1 c=11 v=49
124770 Par ch=1 c=11 v=50
124920 Par ch=1 c=11 v=51
125040 Par ch=1 c=11 v=52
125160 Par ch=1 c=11 v=53
125250 Par ch=1 c=11 v=54
125370 Par ch=1 c=11 v=55
125460 Par ch=1 c=11 v=56
125550 Par ch=1 c=11 v=57
125640 Par ch=1 c=11 v=58
125730 Par ch=1 c=11 v=59
125820 Par ch=1 c=11 v=60
125910 Par ch=1 c=11 v=61
126000 Par ch=1 c=11 v=62
126090 Par ch=1 c=11 v=63
126150 Par ch=1 c=11 v=64
126240 Par ch=1 c=11 v=65
126300 Par ch=1 c=11 v=66
126390 Par ch=1 c=11 v=67
126450 Par ch=1 c=11 v=68
126540 Par ch=1 c=11 v=69
126600 Par ch=1 c=11 v=70
126648 Par ch=1 c=11 v=71
222720 Par ch=1 c=11 v=70
224232 Par ch=1 c=11 v=74
224502 Par ch=1 c=11 v=75
224622 Par ch=1 c=11 v=76
224640 On ch=1 n=44 v=88
224712 Par ch=1 c=11 v=77
224772 Par ch=1 c=11 v=78
224832 Par ch=1 c=11 v=79
224892 Par ch=1 c=11 v=80
224952 Par ch=1 c=11 v=81
224982 Par ch=1 c=11 v=82
225042 Par ch=1 c=11 v=83
225072 Par ch=1 c=11 v=84
225132 Par ch=1 c=11 v=85
225162 Par ch=1 c=11 v=86
225192 Par ch=1 c=11 v=87
225222 Par ch=1 c=11 v=88
225282 Par ch=1 c=11 v=89
225312 Par ch=1 c=11 v=90
225342 Par ch=1 c=11 v=91
225372 Par ch=1 c=11 v=92
225402 Par ch=1 c=11 v=93
225432 Par ch=1 c=11 v=94
225462 Par ch=1 c=11 v=95
225492 Par ch=1 c=11 v=96
225522 Par ch=1 c=11 v=97
225552 Par ch=1 c=11 v=99
225582 Par ch=1 c=11 v=100
225612 Par ch=1 c=11 v=101
225642 Par ch=1 c=11 v=102
225672 Par ch=1 c=11 v=103
225702 Par ch=1 c=11 v=105
225732 Par ch=1 c=11 v=106
225762 Par ch=1 c=11 v=107
225792 Par ch=1 c=11 v=108
225822 Par ch=1 c=11 v=110
225852 Par ch=1 c=11 v=111
225882 Par ch=1 c=11 v=113
225912 Par ch=1 c=11 v=114
225942 Par ch=1 c=11 v=116
225972 Par ch=1 c=11 v=117
226002 Par ch=1 c=11 v=119
226032 Par ch=1 c=11 v=120
226062 Par ch=1 c=11 v=122
226092 Par ch=1 c=11 v=123
226122 Par ch=1 c=11 v=125
226152 Par ch=1 c=11 v=127
226560 Off ch=1 n=44 v=64
230400 Par ch=1 c=11 v=65
231960 Par ch=1 c=11 v=68
232230 Par ch=1 c=11 v=69
232320 On ch=1 n=44 v=88
232350 Par ch=1 c=11 v=70
232440 Par ch=1 c=11 v=71
232500 Par ch=1 c=11 v=72
232560 Par ch=1 c=11 v=73
232620 Par ch=1 c=11 v=74
232680 Par ch=1 c=11 v=75
232740 Par ch=1 c=11 v=76
232770 Par ch=1 c=11 v=77
232800 Par ch=1 c=11 v=78
232860 Par ch=1 c=11 v=79
232890 Par ch=1 c=11 v=80
232920 Par ch=1 c=11 v=81
232980 Par ch=1 c=11 v=82
233010 Par ch=1 c=11 v=83
233040 Par ch=1 c=11 v=84
233070 Par ch=1 c=11 v=85
233100 Par ch=1 c=11 v=86
233130 Par ch=1 c=11 v=87
233160 Par ch=1 c=11 v=88
233190 Par ch=1 c=11 v=89
233220 Par ch=1 c=11 v=90
233250 Par ch=1 c=11 v=91
233280 Par ch=1 c=11 v=92
233310 Par ch=1 c=11 v=93
233340 Par ch=1 c=11 v=94
233370 Par ch=1 c=11 v=96
233400 Par ch=1 c=11 v=97
233430 Par ch=1 c=11 v=98
233460 Par ch=1 c=11 v=99
233490 Par ch=1 c=11 v=101
233520 Par ch=1 c=11 v=102
233550 Par ch=1 c=11 v=103
233580 Par ch=1 c=11 v=105
233610 Par ch=1 c=11 v=106
233640 Par ch=1 c=11 v=108
233670 Par ch=1 c=11 v=109
233700 Par ch=1 c=11 v=110
233730 Par ch=1 c=11 v=112
233760 Par ch=1 c=11 v=113
233790 Par ch=1 c=11 v=115
233820 Par ch=1 c=11 v=117
233850 Par ch=1 c=11 v=118
233880 Par ch=1 c=11 v=120
233910 Par ch=1 c=11 v=121
233940 Par ch=1 c=11 v=123
233970 Par ch=1 c=11 v=125
234000 Par ch=1 c=11 v=127
234240 Off ch=1 n=44 v=64
238080 Par ch=1 c=11 v=65
239640 Par ch=1 c=11 v=68
239910 Par ch=1 c=11 v=69
240000 On ch=1 n=44 v=88
240030 Par ch=1 c=11 v=70
240120 Par ch=1 c=11 v=71
240180 Par ch=1 c=11 v=72
240240 Par ch=1 c=11 v=73
240300 Par ch=1 c=11 v=74
240360 Par ch=1 c=11 v=75
240420 Par ch=1 c=11 v=76
240450 Par ch=1 c=11 v=77
240480 Par ch=1 c=11 v=78
240540 Par ch=1 c=11 v=79
240570 Par ch=1 c=11 v=80
240600 Par ch=1 c=11 v=81
240660 Par ch=1 c=11 v=82
240690 Par ch=1 c=11 v=83
240720 Par ch=1 c=11 v=84
240750 Par ch=1 c=11 v=85
240780 Par ch=1 c=11 v=86
240810 Par ch=1 c=11 v=87
240840 Par ch=1 c=11 v=88
240870 Par ch=1 c=11 v=89
240900 Par ch=1 c=11 v=90
240930 Par ch=1 c=11 v=91
240960 Par ch=1 c=11 v=92
240990 Par ch=1 c=11 v=93
241020 Par ch=1 c=11 v=94
241050 Par ch=1 c=11 v=96
241080 Par ch=1 c=11 v=97
241110 Par ch=1 c=11 v=98
241140 Par ch=1 c=11 v=99
241170 Par ch=1 c=11 v=101
241200 Par ch=1 c=11 v=102
241230 Par ch=1 c=11 v=103
241260 Par ch=1 c=11 v=105
241290 Par ch=1 c=11 v=106
241320 Par ch=1 c=11 v=108
241350 Par ch=1 c=11 v=109
241380 Par ch=1 c=11 v=110
241410 Par ch=1 c=11 v=112
241440 Par ch=1 c=11 v=113
241470 Par ch=1 c=11 v=115
241500 Par ch=1 c=11 v=117
241530 Par ch=1 c=11 v=118
241560 Par ch=1 c=11 v=120
241590 Par ch=1 c=11 v=121
241620 Par ch=1 c=11 v=123
241650 Par ch=1 c=11 v=125
241680 Par ch=1 c=11 v=127
241920 Off ch=1 n=44 v=64
245760 Par ch=1 c=11 v=65
247320 Par ch=1 c=11 v=68
247590 Par ch=1 c=11 v=69
247680 On ch=1 n=44 v=88
247710 Par ch=1 c=11 v=70
247800 Par ch=1 c=11 v=71
247860 Par ch=1 c=11 v=72
247920 Par ch=1 c=11 v=73
247980 Par ch=1 c=11 v=74
248040 Par ch=1 c=11 v=75
248100 Par ch=1 c=11 v=76
248130 Par ch=1 c=11 v=77
248160 Par ch=1 c=11 v=78
248220 Par ch=1 c=11 v=79
248250 Par ch=1 c=11 v=80
248280 Par ch=1 c=11 v=81
248340 Par ch=1 c=11 v=82
248370 Par ch=1 c=11 v=83
248400 Par ch=1 c=11 v=84
248430 Par ch=1 c=11 v=85
248460 Par ch=1 c=11 v=86
248490 Par ch=1 c=11 v=87
248520 Par ch=1 c=11 v=88
248550 Par ch=1 c=11 v=89
248580 Par ch=1 c=11 v=90
248610 Par ch=1 c=11 v=91
248640 Par ch=1 c=11 v=92
248670 Par ch=1 c=11 v=93
248700 Par ch=1 c=11 v=94
248730 Par ch=1 c=11 v=96
248760 Par ch=1 c=11 v=97
248790 Par ch=1 c=11 v=98
248820 Par ch=1 c=11 v=99
248850 Par ch=1 c=11 v=101
248880 Par ch=1 c=11 v=102
248910 Par ch=1 c=11 v=103
248940 Par ch=1 c=11 v=105
248970 Par ch=1 c=11 v=106
249000 Par ch=1 c=11 v=108
249030 Par ch=1 c=11 v=109
249060 Par ch=1 c=11 v=110
249090 Par ch=1 c=11 v=112
249120 Par ch=1 c=11 v=113
249150 Par ch=1 c=11 v=115
249180 Par ch=1 c=11 v=117
249210 Par ch=1 c=11 v=118
249240 Par ch=1 c=11 v=120
249270 Par ch=1 c=11 v=121
249300 Par ch=1 c=11 v=123
249330 Par ch=1 c=11 v=125
249360 Par ch=1 c=11 v=127
249600 Off ch=1 n=44 v=64
308992 Par ch=1 c=11 v=88
309292 Par ch=1 c=11 v=89
309412 Par ch=1 c=11 v=90
309502 Par ch=1 c=11 v=91
309562 Par ch=1 c=11 v=92
309652 Par ch=1 c=11 v=93
309712 Par ch=1 c=11 v=94
309742 Par ch=1 c=11 v=95
309802 Par ch=1 c=11 v=96
309862 Par ch=1 c=11 v=97
309892 Par ch=1 c=11 v=98
309952 Par ch=1 c=11 v=99
309982 Par ch=1 c=11 v=100
310012 Par ch=1 c=11 v=101
310072 Par ch=1 c=11 v=102
310102 Par ch=1 c=11 v=103
310132 Par ch=1 c=11 v=104
310162 Par ch=1 c=11 v=105
310192 Par ch=1 c=11 v=106
310222 Par ch=1 c=11 v=107
310282 Par ch=1 c=11 v=108
310312 Par ch=1 c=11 v=109
310342 Par ch=1 c=11 v=110
310372 Par ch=1 c=11 v=111
310402 Par ch=1 c=11 v=113
310432 Par ch=1 c=11 v=114
310462 Par ch=1 c=11 v=115
310492 Par ch=1 c=11 v=116
310522 Par ch=1 c=11 v=117
310552 Par ch=1 c=11 v=118
310582 Par ch=1 c=11 v=119
310612 Par ch=1 c=11 v=121
310642 Par ch=1 c=11 v=122
310672 Par ch=1 c=11 v=123
310702 Par ch=1 c=11 v=124
310732 Par ch=1 c=11 v=126
310752 Par ch=1 c=11 v=127
341760 Par ch=1 c=11 v=76
430080 On ch=1 n=52 v=56
430080 Par ch=1 c=11 v=14
430350 Par ch=1 c=11 v=15
430470 Par ch=1 c=11 v=16
430530 Par ch=1 c=11 v=17
430620 Par ch=1 c=11 v=18
430680 Par ch=1 c=11 v=19
430710 Par ch=1 c=11 v=20
430770 Par ch=1 c=11 v=21
430830 Par ch=1 c=11 v=22
430860 Par ch=1 c=11 v=23
430890 Par ch=1 c=11 v=24
430950 Par ch=1 c=11 v=25
430980 Par ch=1 c=11 v=26
431010 Par ch=1 c=11 v=27
431040 Par ch=1 c=11 v=28
431100 Par ch=1 c=11 v=29
431130 Par ch=1 c=11 v=30
431160 Par ch=1 c=11 v=31
431190 Par ch=1 c=11 v=32
431220 Par ch=1 c=11 v=33
431250 Par ch=1 c=11 v=34
431280 Par ch=1 c=11 v=35
431310 Par ch=1 c=11 v=37
431340 Par ch=1 c=11 v=38
431370 Par ch=1 c=11 v=39
431400 Par ch=1 c=11 v=40
431430 Par ch=1 c=11 v=41
431460 Par ch=1 c=11 v=43
431490 Par ch=1 c=11 v=44
431520 Par ch=1 c=11 v=45
431550 Par ch=1 c=11 v=47
431580 Par ch=1 c=11 v=48
431610 Par ch=1 c=11 v=49
431640 Par ch=1 c=11 v=51
431670 Par ch=1 c=11 v=52
431700 Par ch=1 c=11 v=54
431730 Par ch=1 c=11 v=55
431760 Par ch=1 c=11 v=57
431790 Par ch=1 c=11 v=58
431820 Par ch=1 c=11 v=60
431850 Par ch=1 c=11 v=61
431880 Par ch=1 c=11 v=63
431910 Par ch=1 c=11 v=65
431940 Par ch=1 c=11 v=66
431970 Par ch=1 c=11 v=68
432000 Par ch=1 c=11 v=70
432030 Par ch=1 c=11 v=72
432060 Par ch=1 c=11 v=73
432090 Par ch=1 c=11 v=75
432120 Par ch=1 c=11 v=77
432150 Par ch=1 c=11 v=79
432180 Par ch=1 c=11 v=81
432210 Par ch=1 c=11 v=83
432240 Par ch=1 c=11 v=85
432270 Par ch=1 c=11 v=87
432300 Par ch=1 c=11 v=89
432330 Par ch=1 c=11 v=91
432360 Par ch=1 c=11 v=93
432390 Par ch=1 c=11 v=95
432420 Par ch=1 c=11 v=97
432450 Par ch=1 c=11 v=99
432480 Par ch=1 c=11 v=101
432510 Par ch=1 c=11 v=104
432540 Par ch=1 c=11 v=106
432570 Par ch=1 c=11 v=108
432600 Par ch=1 c=11 v=110
432630 Par ch=1 c=11 v=113
432660 Par ch=1 c=11 v=115
432690 Par ch=1 c=11 v=118
432720 Par ch=1 c=11 v=120
432750 Par ch=1 c=11 v=122
432780 Par ch=1 c=11 v=125
432800 Par ch=1 c=11 v=127
432956 Off ch=1 n=52 v=64
449280 On ch=1 n=48 v=56
449280 Par ch=1 c=11 v=120
449392 Par ch=1 c=11 v=115
449422 Par ch=1 c=11 v=108
449452 Par ch=1 c=11 v=102
449482 Par ch=1 c=11 v=96
449512 Par ch=1 c=11 v=90
449542 Par ch=1 c=11 v=85
449572 Par ch=1 c=11 v=80
449602 Par ch=1 c=11 v=75
449632 Par ch=1 c=11 v=70
449662 Par ch=1 c=11 v=65
449692 Par ch=1 c=11 v=61
449722 Par ch=1 c=11 v=57
449752 Par ch=1 c=11 v=54
449782 Par ch=1 c=11 v=50
449812 Par ch=1 c=11 v=47
449842 Par ch=1 c=11 v=44
449872 Par ch=1 c=11 v=41
449902 Par ch=1 c=11 v=39
449932 Par ch=1 c=11 v=37
449962 Par ch=1 c=11 v=35
449992 Par ch=1 c=11 v=33
450022 Par ch=1 c=11 v=32
450052 Par ch=1 c=11 v=31
450082 Par ch=1 c=11 v=30
450112 Par ch=1 c=11 v=29
450240 Par ch=1 c=11 v=29
450750 Par ch=1 c=11 v=30
450960 Par ch=1 c=11 v=31
451140 Par ch=1 c=11 v=32
451260 Par ch=1 c=11 v=33
451380 Par ch=1 c=11 v=34
451500 Par ch=1 c=11 v=35
451590 Par ch=1 c=11 v=36
451680 Par ch=1 c=11 v=37
451770 Par ch=1 c=11 v=38
451860 Par ch=1 c=11 v=39
451920 Par ch=1 c=11 v=40
452010 Par ch=1 c=11 v=41
452070 Par ch=1 c=11 v=42
452130 Par ch=1 c=11 v=43
452220 Par ch=1 c=11 v=44
452280 Par ch=1 c=11 v=45
452340 Par ch=1 c=11 v=46
452400 Par ch=1 c=11 v=47
452460 Par ch=1 c=11 v=48
452520 Par ch=1 c=11 v=49
452550 Par ch=1 c=11 v=50
452610 Par ch=1 c=11 v=51
452670 Par ch=1 c=11 v=52
452730 Par ch=1 c=11 v=53
452760 Par ch=1 c=11 v=54
452820 Par ch=1 c=11 v=55
452880 Par ch=1 c=11 v=56
452910 Par ch=1 c=11 v=57
452970 Par ch=1 c=11 v=58
452976 Off ch=1 n=48 v=64
453000 Par ch=1 c=11 v=59
453120 On ch=1 n=50 v=56
453120 Par ch=1 c=11 v=76
453232 Par ch=1 c=11 v=76
453262 Par ch=1 c=11 v=73
453292 Par ch=1 c=11 v=70
453322 Par ch=1 c=11 v=67
453352 Par ch=1 c=11 v=65
453382 Par ch=1 c=11 v=63
453412 Par ch=1 c=11 v=61
453442 Par ch=1 c=11 v=59
453472 Par ch=1 c=11 v=57
453502 Par ch=1 c=11 v=55
453532 Par ch=1 c=11 v=53
453562 Par ch=1 c=11 v=52
453592 Par ch=1 c=11 v=51
453622 Par ch=1 c=11 v=50
453652 Par ch=1 c=11 v=49
453682 Par ch=1 c=11 v=48
453712 Par ch=1 c=11 v=47
453742 Par ch=1 c=11 v=46
453876 Par ch=1 c=11 v=43
454206 Par ch=1 c=11 v=44
454326 Par ch=1 c=11 v=45
454416 Par ch=1 c=11 v=46
454506 Par ch=1 c=11 v=47
454566 Par ch=1 c=11 v=48
454626 Par ch=1 c=11 v=49
454686 Par ch=1 c=11 v=50
454746 Par ch=1 c=11 v=51
454806 Par ch=1 c=11 v=52
454866 Par ch=1 c=11 v=53
454896 Par ch=1 c=11 v=54
454956 Par ch=1 c=11 v=55
454986 Par ch=1 c=11 v=56
455046 Par ch=1 c=11 v=57
455076 Par ch=1 c=11 v=58
455106 Par ch=1 c=11 v=59
455136 Par ch=1 c=11 v=60
455196 Par ch=1 c=11 v=61
455226 Par ch=1 c=11 v=62
455256 Par ch=1 c=11 v=63
455286 Par ch=1 c=11 v=64
455316 Par ch=1 c=11 v=65
455346 Par ch=1 c=11 v=66
455376 Par ch=1 c=11 v=67
455406 Par ch=1 c=11 v=68
455436 Par ch=1 c=11 v=69
455466 Par ch=1 c=11 v=70
455496 Par ch=1 c=11 v=71
455526 Par ch=1 c=11 v=72
455556 Par ch=1 c=11 v=73
455586 Par ch=1 c=11 v=74
455616 Par ch=1 c=11 v=75
455646 Par ch=1 c=11 v=76
455676 Par ch=1 c=11 v=77
455706 Par ch=1 c=11 v=78
455736 Par ch=1 c=11 v=80
455766 Par ch=1 c=11 v=81
455796 Par ch=1 c=11 v=82
455826 Par ch=1 c=11 v=83
455856 Par ch=1 c=11 v=85
455886 Par ch=1 c=11 v=86
455916 Par ch=1 c=11 v=87
455946 Par ch=1 c=11 v=89
455976 Par ch=1 c=11 v=90
456006 Par ch=1 c=11 v=91
456036 Par ch=1 c=11 v=93
456066 Par ch=1 c=11 v=94
456096 Par ch=1 c=11 v=95
456126 Par ch=1 c=11 v=97
456156 Par ch=1 c=11 v=98
456186 Par ch=1 c=11 v=100
456216 Par ch=1 c=11 v=101
456246 Par ch=1 c=11 v=103
456276 Par ch=1 c=11 v=104
456306 Par ch=1 c=11 v=106
456336 Par ch=1 c=11 v=108
456366 Par ch=1 c=11 v=109
456396 Par ch=1 c=11 v=111
456426 Par ch=1 c=11 v=112
456456 Par ch=1 c=11 v=114
456486 Par ch=1 c=11 v=116
456516 Par ch=1 c=11 v=117
456546 Par ch=1 c=11 v=119
456576 Par ch=1 c=11 v=121
456606 Par ch=1 c=11 v=123
456636 Par ch=1 c=11 v=124
456666 Par ch=1 c=11 v=126
456672 Par ch=1 c=11 v=127
456904 Off ch=1 n=50 v=64
456904 Meta TrkEnd
TrkEnd
MTrk
0 SeqSpec 43 00 01 ff
0 Meta TrkName "Drums"
1920 PrCh ch=2 p=14
1930 Par ch=2 c=7 v=127
1940 Par ch=2 c=10 v=64
1950 Par ch=2 c=11 v=127
1960 Par ch=2 c=20 v=127
1970 Par ch=2 c=91 v=0
1980 Par ch=2 c=93 v=0
1990 Par ch=2 c=94 v=0
2000 Par ch=2 c=101 v=0
2010 Par ch=2 c=100 v=0
2020 Par ch=2 c=6 v=2
2030 Par ch=2 c=101 v=127
2040 Par ch=2 c=100 v=127
3840 On ch=2 n=35 v=82
3840 On ch=2 n=42 v=59
3841 Off ch=2 n=42 v=64
3841 Off ch=2 n=35 v=64
4320 On ch=2 n=42 v=32
4321 Off ch=2 n=42 v=64
4800 On ch=2 n=35 v=82
4800 On ch=2 n=37 v=94
4800 On ch=2 n=42 v=51
4801 Off ch=2 n=42 v=64
4801 Off ch=2 n=37 v=64
4801 Off ch=2 n=35 v=64
5280 On ch=2 n=42 v=30
5281 Off ch=2 n=42 v=64
5760 On ch=2 n=35 v=82
5760 On ch=2 n=42 v=59
5761 Off ch=2 n=42 v=64
5761 Off ch=2 n=35 v=64
6240 On ch=2 n=42 v=30
6241 Off ch=2 n=42 v=64
6720 On ch=2 n=35 v=82
6720 On ch=2 n=37 v=94
6720 On ch=2 n=42 v=50
6721 Off ch=2 n=42 v=64
6721 Off ch=2 n=37 v=64
6721 Off ch=2 n=35 v=64
7200 On ch=2 n=42 v=32
7201 Off ch=2 n=42 v=64
7680 On ch=2 n=35 v=82
7680 On ch=2 n=42 v=59
7681 Off ch=2 n=42 v=64
7681 Off ch=2 n=35 v=64
8160 On ch=2 n=42 v=32
8161 Off ch=2 n=42 v=64
8640 On ch=2 n=35 v=82
8640 On ch=2 n=37 v=94
8640 On ch=2 n=42 v=51
8641 Off ch=2 n=42 v=64
8641 Off ch=2 n=37 v=64
8641 Off ch=2 n=35 v=64
9120 On ch=2 n=42 v=30
9121 Off ch=2 n=42 v=64
9600 On ch=2 n=35 v=82
9600 On ch=2 n=42 v=59
9601 Off ch=2 n=42 v=64
9601 Off ch=2 n=35 v=64
10080 On ch=2 n=42 v=30
10081 Off ch=2 n=42 v=64
10560 On ch=2 n=35 v=82
10560 On ch=2 n=37 v=94
10560 On ch=2 n=42 v=50
10561 Off ch=2 n=42 v=64
10561 Off ch=2 n=37 v=64
10561 Off ch=2 n=35 v=64
11040 On ch=2 n=46 v=46
11041 Off ch=2 n=46 v=64
11520 On ch=2 n=35 v=82
11520 On ch=2 n=42 v=59
11521 Off ch=2 n=42 v=64
11521 Off ch=2 n=35 v=64
12000 On ch=2 n=42 v=32
12001 Off ch=2 n=42 v=64
12480 On ch=2 n=35 v=82
12480 On ch=2 n=37 v=94
12480 On ch=2 n=42 v=51
12481 Off ch=2 n=42 v=64
12481 Off ch=2 n=37 v=64
12481 Off ch=2 n=35 v=64
12960 On ch=2 n=42 v=30
12961 Off ch=2 n=42 v=64
13440 On ch=2 n=35 v=82
13440 On ch=2 n=42 v=59
13441 Off ch=2 n=42 v=64
13441 Off ch=2 n=35 v=64
13920 On ch=2 n=42 v=30
13921 Off ch=2 n=42 v=64
14400 On ch=2 n=35 v=82
14400 On ch=2 n=37 v=94
14400 On ch=2 n=42 v=50
14401 Off ch=2 n=42 v=64
14401 Off ch=2 n=37 v=64
14401 Off ch=2 n=35 v=64
14880 On ch=2 n=42 v=32
14881 Off ch=2 n=42 v=64
15360 On ch=2 n=35 v=82
15360 On ch=2 n=42 v=59
15361 Off ch=2 n=42 v=64
15361 Off ch=2 n=35 v=64
15840 On ch=2 n=42 v=32
15841 Off ch=2 n=42 v=64
16320 On ch=2 n=35 v=82
16320 On ch=2 n=37 v=94
16320 On ch=2 n=42 v=51
16321 Off ch=2 n=42 v=64
16321 Off ch=2 n=37 v=64
16321 Off ch=2 n=35 v=64
16800 On ch=2 n=42 v=30
16801 Off ch=2 n=42 v=64
17280 On ch=2 n=35 v=82
17280 On ch=2 n=42 v=59
17281 Off ch=2 n=42 v=64
17281 Off ch=2 n=35 v=64
17520 On ch=2 n=42 v=10
17521 Off ch=2 n=42 v=64
17760 On ch=2 n=42 v=38
17761 Off ch=2 n=42 v=64
18240 On ch=2 n=35 v=82
18240 On ch=2 n=37 v=94
18240 On ch=2 n=46 v=65
18241 Off ch=2 n=46 v=64
18241 Off ch=2 n=37 v=64
18241 Off ch=2 n=35 v=64
18720 On ch=2 n=37 v=89
18721 Off ch=2 n=37 v=64
18960 On ch=2 n=37 v=61
18961 Off ch=2 n=37 v=64
19200 On ch=2 n=35 v=82
19200 On ch=2 n=42 v=59
19201 Off ch=2 n=42 v=64
19201 Off ch=2 n=35 v=64
19680 On ch=2 n=42 v=32
19681 Off ch=2 n=42 v=64
20160 On ch=2 n=35 v=82
20160 On ch=2 n=37 v=94
20160 On ch=2 n=42 v=51
20161 Off ch=2 n=42 v=64
20161 Off ch=2 n=37 v=64
20161 Off ch=2 n=35 v=64
20640 On ch=2 n=42 v=30
20641 Off ch=2 n=42 v=64
21120 On ch=2 n=35 v=82
21120 On ch=2 n=42 v=59
21121 Off ch=2 n=42 v=64
21121 Off ch=2 n=35 v=64
21600 On ch=2 n=42 v=30
21601 Off ch=2 n=42 v=64
22080 On ch=2 n=35 v=82
22080 On ch=2 n=37 v=94
22080 On ch=2 n=42 v=50
22081 Off ch=2 n=42 v=64
22081 Off ch=2 n=37 v=64
22081 Off ch=2 n=35 v=64
22560 On ch=2 n=42 v=32
22561 Off ch=2 n=42 v=64
23040 On ch=2 n=35 v=82
23040 On ch=2 n=42 v=59
23041 Off ch=2 n=42 v=64
23041 Off ch=2 n=35 v=64
23520 On ch=2 n=42 v=32
23521 Off ch=2 n=42 v=64
24000 On ch=2 n=35 v=82
24000 On ch=2 n=37 v=94
24000 On ch=2 n=42 v=51
24001 Off ch=2 n=42 v=64
24001 Off ch=2 n=37 v=64
24001 Off ch=2 n=35 v=64
24480 On ch=2 n=42 v=30
24481 Off ch=2 n=42 v=64
24960 On ch=2 n=35 v=82
24960 On ch=2 n=42 v=59
24961 Off ch=2 n=42 v=64
24961 Off ch=2 n=35 v=64
25440 On ch=2 n=42 v=30
25441 Off ch=2 n=42 v=64
25920 On ch=2 n=35 v=82
25920 On ch=2 n=37 v=94
25920 On ch=2 n=42 v=50
25921 Off ch=2 n=42 v=64
25921 Off ch=2 n=37 v=64
25921 Off ch=2 n=35 v=64
26400 On ch=2 n=46 v=46
26401 Off ch=2 n=46 v=64
26880 On ch=2 n=35 v=82
26880 On ch=2 n=42 v=59
26881 Off ch=2 n=42 v=64
26881 Off ch=2 n=35 v=64
27360 On ch=2 n=42 v=32
27361 Off ch=2 n=42 v=64
27840 On ch=2 n=35 v=82
27840 On ch=2 n=37 v=94
27840 On ch=2 n=42 v=51
27841 Off ch=2 n=42 v=64
27841 Off ch=2 n=37 v=64
27841 Off ch=2 n=35 v=64
28320 On ch=2 n=42 v=30
28321 Off ch=2 n=42 v=64
28800 On ch=2 n=35 v=82
28800 On ch=2 n=42 v=59
28801 Off ch=2 n=42 v=64
28801 Off ch=2 n=35 v=64
29280 On ch=2 n=42 v=30
29281 Off ch=2 n=42 v=64
29760 On ch=2 n=35 v=82
29760 On ch=2 n=37 v=94
29760 On ch=2 n=42 v=50
29761 Off ch=2 n=42 v=64
29761 Off ch=2 n=37 v=64
29761 Off ch=2 n=35 v=64
30240 On ch=2 n=42 v=32
30241 Off ch=2 n=42 v=64
30720 On ch=2 n=35 v=82
30720 On ch=2 n=42 v=59
30721 Off ch=2 n=42 v=64
30721 Off ch=2 n=35 v=64
31200 On ch=2 n=42 v=32
31201 Off ch=2 n=42 v=64
31680 On ch=2 n=35 v=82
31680 On ch=2 n=37 v=94
31680 On ch=2 n=42 v=51
31681 Off ch=2 n=42 v=64
31681 Off ch=2 n=37 v=64
31681 Off ch=2 n=35 v=64
32160 On ch=2 n=42 v=30
32161 Off ch=2 n=42 v=64
32400 On ch=2 n=37 v=62
32401 Off ch=2 n=37 v=64
32640 On ch=2 n=35 v=82
32640 On ch=2 n=42 v=59
32641 Off ch=2 n=42 v=64
32641 Off ch=2 n=35 v=64
32880 On ch=2 n=37 v=27
32881 Off ch=2 n=37 v=64
33120 On ch=2 n=37 v=62
33121 Off ch=2 n=37 v=64
33360 On ch=2 n=37 v=54
33360 On ch=2 n=35 v=73
33361 Off ch=2 n=35 v=64
33361 Off ch=2 n=37 v=64
33600 On ch=2 n=35 v=104
33600 On ch=2 n=37 v=127
33601 Off ch=2 n=37 v=64
33601 Off ch=2 n=35 v=64
34560 On ch=2 n=35 v=86
34560 On ch=2 n=42 v=59
34560 On ch=2 n=49 v=84
34561 Off ch=2 n=49 v=64
34561 Off ch=2 n=42 v=64
34561 Off ch=2 n=35 v=64
35040 On ch=2 n=42 v=32
35041 Off ch=2 n=42 v=64
35520 On ch=2 n=35 v=86
35520 On ch=2 n=37 v=94
35520 On ch=2 n=42 v=51
35521 Off ch=2 n=42 v=64
35521 Off ch=2 n=37 v=64
35521 Off ch=2 n=35 v=64
36000 On ch=2 n=42 v=30
36001 Off ch=2 n=42 v=64
36480 On ch=2 n=35 v=86
36480 On ch=2 n=42 v=59
36481 Off ch=2 n=42 v=64
36481 Off ch=2 n=35 v=64
36960 On ch=2 n=42 v=30
36961 Off ch=2 n=42 v=64
37440 On ch=2 n=35 v=86
37440 On ch=2 n=37 v=94
37440 On ch=2 n=42 v=50
37441 Off ch=2 n=42 v=64
37441 Off ch=2 n=37 v=64
37441 Off ch=2 n=35 v=64
37920 On ch=2 n=42 v=32
37921 Off ch=2 n=42 v=64
38400 On ch=2 n=35 v=86
38400 On ch=2 n=42 v=59
38401 Off ch=2 n=42 v=64
38401 Off ch=2 n=35 v=64
38880 On ch=2 n=42 v=32
38881 Off ch=2 n=42 v=64
39360 On ch=2 n=35 v=86
39360 On ch=2 n=37 v=94
39360 On ch=2 n=42 v=51
39361 Off ch=2 n=42 v=64
39361 Off ch=2 n=37 v=64
39361 Off ch=2 n=35 v=64
39840 On ch=2 n=42 v=30
39841 Off ch=2 n=42 v=64
40320 On ch=2 n=35 v=86
40320 On ch=2 n=42 v=59
40321 Off ch=2 n=42 v=64
40321 Off ch=2 n=35 v=64
40800 On ch=2 n=42 v=30
40801 Off ch=2 n=42 v=64
41280 On ch=2 n=35 v=86
41280 On ch=2 n=37 v=94
41280 On ch=2 n=42 v=50
41281 Off ch=2 n=42 v=64
41281 Off ch=2 n=37 v=64
41281 Off ch=2 n=35 v=64
41760 On ch=2 n=46 v=46
41761 Off ch=2 n=46 v=64
42240 On ch=2 n=35 v=86
42240 On ch=2 n=42 v=59
42241 Off ch=2 n=42 v=64
42241 Off ch=2 n=35 v=64
42720 On ch=2 n=42 v=32
42721 Off ch=2 n=42 v=64
43200 On ch=2 n=35 v=86
43200 On ch=2 n=37 v=94
43200 On ch=2 n=42 v=51
43201 Off ch=2 n=42 v=64
43201 Off ch=2 n=37 v=64
43201 Off ch=2 n=35 v=64
43680 On ch=2 n=42 v=30
43681 Off ch=2 n=42 v=64
44160 On ch=2 n=35 v=86
44160 On ch=2 n=42 v=59
44161 Off ch=2 n=42 v=64
44161 Off ch=2 n=35 v=64
44640 On ch=2 n=42 v=30
44641 Off ch=2 n=42 v=64
45120 On ch=2 n=35 v=86
45120 On ch=2 n=37 v=94
45120 On ch=2 n=42 v=50
45121 Off ch=2 n=42 v=64
45121 Off ch=2 n=37 v=64
45121 Off ch=2 n=35 v=64
45600 On ch=2 n=42 v=32
45601 Off ch=2 n=42 v=64
46080 On ch=2 n=35 v=86
46080 On ch=2 n=42 v=59
46081 Off ch=2 n=42 v=64
46081 Off ch=2 n=35 v=64
46560 On ch=2 n=42 v=32
46561 Off ch=2 n=42 v=64
47040 On ch=2 n=35 v=86
47040 On ch=2 n=37 v=94
47040 On ch=2 n=42 v=51
47041 Off ch=2 n=42 v=64
47041 Off ch=2 n=37 v=64
47041 Off ch=2 n=35 v=64
47520 On ch=2 n=42 v=30
47521 Off ch=2 n=42 v=64
48000 On ch=2 n=35 v=86
48000 On ch=2 n=42 v=59
48001 Off ch=2 n=42 v=64
48001 Off ch=2 n=35 v=64
48480 On ch=2 n=42 v=30
48481 Off ch=2 n=42 v=64
48960 On ch=2 n=35 v=86
48960 On ch=2 n=37 v=94
48960 On ch=2 n=42 v=50
48961 Off ch=2 n=42 v=64
48961 Off ch=2 n=37 v=64
48961 Off ch=2 n=35 v=64
49440 On ch=2 n=46 v=46
49441 Off ch=2 n=46 v=64
49920 On ch=2 n=35 v=86
49920 On ch=2 n=42 v=59
49921 Off ch=2 n=42 v=64
49921 Off ch=2 n=35 v=64
50400 On ch=2 n=42 v=32
50401 Off ch=2 n=42 v=64
50880 On ch=2 n=35 v=86
50880 On ch=2 n=37 v=94
50880 On ch=2 n=42 v=51
50881 Off ch=2 n=42 v=64
50881 Off ch=2 n=37 v=64
50881 Off ch=2 n=35 v=64
51360 On ch=2 n=42 v=30
51361 Off ch=2 n=42 v=64
51840 On ch=2 n=35 v=86
51840 On ch=2 n=42 v=59
51841 Off ch=2 n=42 v=64
51841 Off ch=2 n=35 v=64
52320 On ch=2 n=42 v=30
52321 Off ch=2 n=42 v=64
52800 On ch=2 n=35 v=86
52800 On ch=2 n=37 v=94
52800 On ch=2 n=42 v=50
52801 Off ch=2 n=42 v=64
52801 Off ch=2 n=37 v=64
52801 Off ch=2 n=35 v=64
53280 On ch=2 n=42 v=32
53281 Off ch=2 n=42 v=64
53760 On ch=2 n=35 v=86
53760 On ch=2 n=42 v=59
53761 Off ch=2 n=42 v=64
53761 Off ch=2 n=35 v=64
54240 On ch=2 n=42 v=32
54241 Off ch=2 n=42 v=64
54720 On ch=2 n=35 v=86
54720 On ch=2 n=37 v=94
54720 On ch=2 n=42 v=51
54721 Off ch=2 n=42 v=64
54721 Off ch=2 n=37 v=64
54721 Off ch=2 n=35 v=64
55200 On ch=2 n=42 v=30
55201 Off ch=2 n=42 v=64
55680 On ch=2 n=35 v=86
55680 On ch=2 n=42 v=59
55681 Off ch=2 n=42 v=64
55681 Off ch=2 n=35 v=64
56160 On ch=2 n=42 v=30
56161 Off ch=2 n=42 v=64
56640 On ch=2 n=35 v=86
56640 On ch=2 n=37 v=94
56640 On ch=2 n=42 v=50
56641 Off ch=2 n=42 v=64
56641 Off ch=2 n=37 v=64
56641 Off ch=2 n=35 v=64
57120 On ch=2 n=46 v=46
57121 Off ch=2 n=46 v=64
57600 On ch=2 n=35 v=86
57600 On ch=2 n=42 v=59
57601 Off ch=2 n=42 v=64
57601 Off ch=2 n=35 v=64
58080 On ch=2 n=42 v=32
58081 Off ch=2 n=42 v=64
58560 On ch=2 n=35 v=86
58560 On ch=2 n=37 v=94
58560 On ch=2 n=42 v=51
58561 Off ch=2 n=42 v=64
58561 Off ch=2 n=37 v=64
58561 Off ch=2 n=35 v=64
59040 On ch=2 n=42 v=30
59041 Off ch=2 n=42 v=64
59520 On ch=2 n=35 v=86
59520 On ch=2 n=42 v=59
59521 Off ch=2 n=42 v=64
59521 Off ch=2 n=35 v=64
60000 On ch=2 n=42 v=30
60001 Off ch=2 n=42 v=64
60480 On ch=2 n=35 v=86
60480 On ch=2 n=37 v=94
60480 On ch=2 n=42 v=50
60481 Off ch=2 n=42 v=64
60481 Off ch=2 n=37 v=64
60481 Off ch=2 n=35 v=64
60960 On ch=2 n=42 v=32
60961 Off ch=2 n=42 v=64
61440 On ch=2 n=35 v=86
61440 On ch=2 n=42 v=59
61441 Off ch=2 n=42 v=64
61441 Off ch=2 n=35 v=64
61920 On ch=2 n=42 v=32
61921 Off ch=2 n=42 v=64
62400 On ch=2 n=35 v=86
62400 On ch=2 n=37 v=94
62400 On ch=2 n=42 v=51
62401 Off ch=2 n=42 v=64
62401 Off ch=2 n=37 v=64
62401 Off ch=2 n=35 v=64
62880 On ch=2 n=42 v=30
62881 Off ch=2 n=42 v=64
63360 On ch=2 n=35 v=86
63360 On ch=2 n=42 v=59
63361 Off ch=2 n=42 v=64
63361 Off ch=2 n=35 v=64
63600 On ch=2 n=42 v=19
63601 Off ch=2 n=42 v=64
63840 On ch=2 n=42 v=50
63841 Off ch=2 n=42 v=64
64320 On ch=2 n=35 v=86
64320 On ch=2 n=37 v=94
64320 On ch=2 n=46 v=60
64321 Off ch=2 n=46 v=64
64321 Off ch=2 n=37 v=64
64321 Off ch=2 n=35 v=64
64800 On ch=2 n=37 v=79
64801 Off ch=2 n=37 v=64
65040 On ch=2 n=37 v=64
65041 Off ch=2 n=37 v=64
65280 On ch=2 n=35 v=100
65280 On ch=2 n=42 v=59
65280 On ch=2 n=49 v=84
65281 Off ch=2 n=49 v=64
65281 Off ch=2 n=42 v=64
65281 Off ch=2 n=35 v=64
65760 On ch=2 n=42 v=32
65761 Off ch=2 n=42 v=64
66240 On ch=2 n=35 v=100
66240 On ch=2 n=37 v=94
66240 On ch=2 n=42 v=51
66241 Off ch=2 n=42 v=64
66241 Off ch=2 n=37 v=64
66241 Off ch=2 n=35 v=64
66720 On ch=2 n=42 v=30
66721 Off ch=2 n=42 v=64
67200 On ch=2 n=35 v=100
67200 On ch=2 n=42 v=59
67201 Off ch=2 n=42 v=64
67201 Off ch=2 n=35 v=64
67680 On ch=2 n=42 v=30
67681 Off ch=2 n=42 v=64
68160 On ch=2 n=35 v=100
68160 On ch=2 n=37 v=94
68160 On ch=2 n=42 v=50
68161 Off ch=2 n=42 v=64
68161 Off ch=2 n=37 v=64
68161 Off ch=2 n=35 v=64
68640 On ch=2 n=42 v=32
68641 Off ch=2 n=42 v=64
69120 On ch=2 n=35 v=100
69120 On ch=2 n=42 v=59
69121 Off ch=2 n=42 v=64
69121 Off ch=2 n=35 v=64
69600 On ch=2 n=42 v=32
69601 Off ch=2 n=42 v=64
70080 On ch=2 n=35 v=100
70080 On ch=2 n=37 v=94
70080 On ch=2 n=42 v=51
70081 Off ch=2 n=42 v=64
70081 Off ch=2 n=37 v=64
70081 Off ch=2 n=35 v=64
70560 On ch=2 n=42 v=30
70561 Off ch=2 n=42 v=64
71040 On ch=2 n=35 v=100
71040 On ch=2 n=42 v=59
71041 Off ch=2 n=42 v=64
71041 Off ch=2 n=35 v=64
71520 On ch=2 n=42 v=30
71521 Off ch=2 n=42 v=64
72000 On ch=2 n=35 v=100
72000 On ch=2 n=37 v=94
72000 On ch=2 n=42 v=50
72001 Off ch=2 n=42 v=64
72001 Off ch=2 n=37 v=64
72001 Off ch=2 n=35 v=64
72480 On ch=2 n=46 v=46
72481 Off ch=2 n=46 v=64
72960 On ch=2 n=35 v=100
72960 On ch=2 n=42 v=59
72961 Off ch=2 n=42 v=64
72961 Off ch=2 n=35 v=64
73440 On ch=2 n=42 v=32
73441 Off ch=2 n=42 v=64
73920 On ch=2 n=35 v=100
73920 On ch=2 n=37 v=94
73920 On ch=2 n=42 v=51
73921 Off ch=2 n=42 v=64
73921 Off ch=2 n=37 v=64
73921 Off ch=2 n=35 v=64
74400 On ch=2 n=42 v=30
74401 Off ch=2 n=42 v=64
74880 On ch=2 n=35 v=100
74880 On ch=2 n=42 v=59
74881 Off ch=2 n=42 v=64
74881 Off ch=2 n=35 v=64
75360 On ch=2 n=42 v=30
75361 Off ch=2 n=42 v=64
75840 On ch=2 n=35 v=100
75840 On ch=2 n=37 v=94
75840 On ch=2 n=42 v=50
75841 Off ch=2 n=42 v=64
75841 Off ch=2 n=37 v=64
75841 Off ch=2 n=35 v=64
76320 On ch=2 n=42 v=32
76321 Off ch=2 n=42 v=64
76800 On ch=2 n=35 v=100
76800 On ch=2 n=42 v=59
76801 Off ch=2 n=42 v=64
76801 Off ch=2 n=35 v=64
77280 On ch=2 n=42 v=32
77281 Off ch=2 n=42 v=64
77760 On ch=2 n=35 v=100
77760 On ch=2 n=37 v=94
77760 On ch=2 n=42 v=51
77761 Off ch=2 n=42 v=64
77761 Off ch=2 n=37 v=64
77761 Off ch=2 n=35 v=64
78240 On ch=2 n=42 v=30
78241 Off ch=2 n=42 v=64
78720 On ch=2 n=35 v=100
78720 On ch=2 n=42 v=59
78721 Off ch=2 n=42 v=64
78721 Off ch=2 n=35 v=64
79200 On ch=2 n=42 v=30
79201 Off ch=2 n=42 v=64
79680 On ch=2 n=35 v=100
79680 On ch=2 n=37 v=94
79680 On ch=2 n=42 v=50
79681 Off ch=2 n=42 v=64
79681 Off ch=2 n=37 v=64
79681 Off ch=2 n=35 v=64
80160 On ch=2 n=46 v=46
80161 Off ch=2 n=46 v=64
80640 On ch=2 n=35 v=100
80640 On ch=2 n=42 v=59
80641 Off ch=2 n=42 v=64
80641 Off ch=2 n=35 v=64
81120 On ch=2 n=42 v=32
81121 Off ch=2 n=42 v=64
81600 On ch=2 n=35 v=100
81600 On ch=2 n=37 v=94
81600 On ch=2 n=42 v=51
81601 Off ch=2 n=42 v=64
81601 Off ch=2 n=37 v=64
81601 Off ch=2 n=35 v=64
82080 On ch=2 n=42 v=30
82081 Off ch=2 n=42 v=64
82560 On ch=2 n=35 v=100
82560 On ch=2 n=42 v=59
82561 Off ch=2 n=42 v=64
82561 Off ch=2 n=35 v=64
83040 On ch=2 n=42 v=30
83041 Off ch=2 n=42 v=64
83520 On ch=2 n=35 v=100
83520 On ch=2 n=37 v=94
83520 On ch=2 n=42 v=50
83521 Off ch=2 n=42 v=64
83521 Off ch=2 n=37 v=64
83521 Off ch=2 n=35 v=64
84000 On ch=2 n=42 v=32
84001 Off ch=2 n=42 v=64
84480 On ch=2 n=35 v=100
84480 On ch=2 n=42 v=59
84481 Off ch=2 n=42 v=64
84481 Off ch=2 n=35 v=64
84960 On ch=2 n=42 v=32
84961 Off ch=2 n=42 v=64
85440 On ch=2 n=35 v=100
85440 On ch=2 n=37 v=94
85440 On ch=2 n=42 v=51
85441 Off ch=2 n=42 v=64
85441 Off ch=2 n=37 v=64
85441 Off ch=2 n=35 v=64
85920 On ch=2 n=42 v=30
85921 Off ch=2 n=42 v=64
86400 On ch=2 n=35 v=100
86400 On ch=2 n=42 v=59
86401 Off ch=2 n=42 v=64
86401 Off ch=2 n=35 v=64
86880 On ch=2 n=42 v=30
86881 Off ch=2 n=42 v=64
87360 On ch=2 n=35 v=100
87360 On ch=2 n=37 v=94
87360 On ch=2 n=42 v=50
87361 Off ch=2 n=42 v=64
87361 Off ch=2 n=37 v=64
87361 Off ch=2 n=35 v=64
87840 On ch=2 n=46 v=46
87841 Off ch=2 n=46 v=64
88320 On ch=2 n=35 v=100
88320 On ch=2 n=42 v=59
88321 Off ch=2 n=42 v=64
88321 Off ch=2 n=35 v=64
88800 On ch=2 n=42 v=32
88801 Off ch=2 n=42 v=64
89280 On ch=2 n=35 v=100
89280 On ch=2 n=37 v=94
89280 On ch=2 n=42 v=51
89281 Off ch=2 n=42 v=64
89281 Off ch=2 n=37 v=64
89281 Off ch=2 n=35 v=64
89760 On ch=2 n=42 v=30
89761 Off ch=2 n=42 v=64
90240 On ch=2 n=35 v=100
90240 On ch=2 n=42 v=59
90241 Off ch=2 n=42 v=64
90241 Off ch=2 n=35 v=64
90720 On ch=2 n=42 v=30
90721 Off ch=2 n=42 v=64
91200 On ch=2 n=35 v=100
91200 On ch=2 n=37 v=94
91200 On ch=2 n=42 v=50
91201 Off ch=2 n=42 v=64
91201 Off ch=2 n=37 v=64
91201 Off ch=2 n=35 v=64
91680 On ch=2 n=42 v=32
91681 Off ch=2 n=42 v=64
92160 On ch=2 n=35 v=100
92160 On ch=2 n=42 v=59
92161 Off ch=2 n=42 v=64
92161 Off ch=2 n=35 v=64
92640 On ch=2 n=42 v=32
92641 Off ch=2 n=42 v=64
93120 On ch=2 n=35 v=100
93120 On ch=2 n=37 v=94
93120 On ch=2 n=42 v=51
93121 Off ch=2 n=42 v=64
93121 Off ch=2 n=37 v=64
93121 Off ch=2 n=35 v=64
93600 On ch=2 n=42 v=30
93601 Off ch=2 n=42 v=64
94080 On ch=2 n=35 v=100
94080 On ch=2 n=42 v=59
94081 Off ch=2 n=42 v=64
94081 Off ch=2 n=35 v=64
94560 On ch=2 n=42 v=30
94561 Off ch=2 n=42 v=64
95040 On ch=2 n=35 v=100
95040 On ch=2 n=37 v=94
95040 On ch=2 n=42 v=50
95041 Off ch=2 n=42 v=64
95041 Off ch=2 n=37 v=64
95041 Off ch=2 n=35 v=64
95520 On ch=2 n=46 v=46
95521 Off ch=2 n=46 v=64
96000 On ch=2 n=49 v=84
96000 On ch=2 n=35 v=100
96000 On ch=2 n=42 v=59
96001 Off ch=2 n=42 v=64
96001 Off ch=2 n=35 v=64
96001 Off ch=2 n=49 v=64
96480 On ch=2 n=42 v=32
96481 Off ch=2 n=42 v=64
96960 On ch=2 n=37 v=94
96960 On ch=2 n=35 v=100
96960 On ch=2 n=42 v=51
96961 Off ch=2 n=42 v=64
96961 Off ch=2 n=35 v=64
96961 Off ch=2 n=37 v=64
97440 On ch=2 n=42 v=30
97441 Off ch=2 n=42 v=64
97920 On ch=2 n=35 v=100
97920 On ch=2 n=42 v=59
97921 Off ch=2 n=42 v=64
97921 Off ch=2 n=35 v=64
98400 On ch=2 n=42 v=30
98401 Off ch=2 n=42 v=64
98880 On ch=2 n=37 v=94
98880 On ch=2 n=35 v=100
98880 On ch=2 n=42 v=50
98881 Off ch=2 n=42 v=64
98881 Off ch=2 n=35 v=64
98881 Off ch=2 n=37 v=64
99360 On ch=2 n=42 v=32
99361 Off ch=2 n=42 v=64
99840 On ch=2 n=35 v=100
99840 On ch=2 n=42 v=59
99841 Off ch=2 n=42 v=64
99841 Off ch=2 n=35 v=64
100320 On ch=2 n=42 v=32
100321 Off ch=2 n=42 v=64
100800 On ch=2 n=37 v=94
100800 On ch=2 n=35 v=100
100800 On ch=2 n=42 v=51
100801 Off ch=2 n=42 v=64
100801 Off ch=2 n=35 v=64
100801 Off ch=2 n=37 v=64
101280 On ch=2 n=42 v=30
101281 Off ch=2 n=42 v=64
101760 On ch=2 n=35 v=100
101760 On ch=2 n=42 v=59
101761 Off ch=2 n=42 v=64
101761 Off ch=2 n=35 v=64
102240 On ch=2 n=42 v=30
102241 Off ch=2 n=42 v=64
102720 On ch=2 n=37 v=94
102720 On ch=2 n=35 v=100
102720 On ch=2 n=42 v=50
102721 Off ch=2 n=42 v=64
102721 Off ch=2 n=35 v=64
102721 Off ch=2 n=37 v=64
103200 On ch=2 n=46 v=46
103201 Off ch=2 n=46 v=64
103680 On ch=2 n=35 v=100
103680 On ch=2 n=42 v=59
103681 Off ch=2 n=42 v=64
103681 Off ch=2 n=35 v=64
104160 On ch=2 n=42 v=32
104161 Off ch=2 n=42 v=64
104640 On ch=2 n=37 v=94
104640 On ch=2 n=35 v=100
104640 On ch=2 n=42 v=51
104641 Off ch=2 n=42 v=64
104641 Off ch=2 n=35 v=64
104641 Off ch=2 n=37 v=64
105120 On ch=2 n=42 v=30
105121 Off ch=2 n=42 v=64
105600 On ch=2 n=35 v=100
105600 On ch=2 n=42 v=59
105601 Off ch=2 n=42 v=64
105601 Off ch=2 n=35 v=64
106080 On ch=2 n=42 v=30
106081 Off ch=2 n=42 v=64
106560 On ch=2 n=37 v=94
106560 On ch=2 n=35 v=100
106560 On ch=2 n=42 v=50
106561 Off ch=2 n=42 v=64
106561 Off ch=2 n=35 v=64
106561 Off ch=2 n=37 v=64
107040 On ch=2 n=42 v=32
107041 Off ch=2 n=42 v=64
107520 On ch=2 n=35 v=100
107520 On ch=2 n=42 v=59
107521 Off ch=2 n=42 v=64
107521 Off ch=2 n=35 v=64
108000 On ch=2 n=42 v=32
108001 Off ch=2 n=42 v=64
108480 On ch=2 n=37 v=94
108480 On ch=2 n=35 v=100
108480 On ch=2 n=42 v=51
108481 Off ch=2 n=42 v=64
108481 Off ch=2 n=35 v=64
108481 Off ch=2 n=37 v=64
108960 On ch=2 n=42 v=30
108961 Off ch=2 n=42 v=64
109440 On ch=2 n=35 v=100
109440 On ch=2 n=42 v=59
109441 Off ch=2 n=42 v=64
109441 Off ch=2 n=35 v=64
109920 On ch=2 n=42 v=30
109921 Off ch=2 n=42 v=64
110400 On ch=2 n=37 v=94
110400 On ch=2 n=35 v=100
110400 On ch=2 n=42 v=50
110401 Off ch=2 n=42 v=64
110401 Off ch=2 n=35 v=64
110401 Off ch=2 n=37 v=64
110880 On ch=2 n=46 v=46
110881 Off ch=2 n=46 v=64
111360 On ch=2 n=35 v=100
111360 On ch=2 n=42 v=59
111361 Off ch=2 n=42 v=64
111361 Off ch=2 n=35 v=64
111840 On ch=2 n=42 v=32
111841 Off ch=2 n=42 v=64
112320 On ch=2 n=37 v=94
112320 On ch=2 n=35 v=100
112320 On ch=2 n=42 v=51
112321 Off ch=2 n=42 v=64
112321 Off ch=2 n=35 v=64
112321 Off ch=2 n=37 v=64
112800 On ch=2 n=42 v=30
112801 Off ch=2 n=42 v=64
113280 On ch=2 n=35 v=100
113280 On ch=2 n=42 v=59
113281 Off ch=2 n=42 v=64
113281 Off ch=2 n=35 v=64
113760 On ch=2 n=42 v=30
113761 Off ch=2 n=42 v=64
114240 On ch=2 n=37 v=94
114240 On ch=2 n=35 v=100
114240 On ch=2 n=42 v=50
114241 Off ch=2 n=42 v=64
114241 Off ch=2 n=35 v=64
114241 Off ch=2 n=37 v=64
114720 On ch=2 n=42 v=32
114721 Off ch=2 n=42 v=64
115200 On ch=2 n=35 v=100
115200 On ch=2 n=42 v=59
115201 Off ch=2 n=42 v=64
115201 Off ch=2 n=35 v=64
115680 On ch=2 n=42 v=32
115681 Off ch=2 n=42 v=64
116160 On ch=2 n=37 v=94
116160 On ch=2 n=35 v=100
116160 On ch=2 n=42 v=51
116161 Off ch=2 n=42 v=64
116161 Off ch=2 n=35 v=64
116161 Off ch=2 n=37 v=64
116640 On ch=2 n=42 v=30
116641 Off ch=2 n=42 v=64
117120 On ch=2 n=35 v=100
117120 On ch=2 n=42 v=59
117121 Off ch=2 n=42 v=64
117121 Off ch=2 n=35 v=64
117600 On ch=2 n=42 v=30
117601 Off ch=2 n=42 v=64
118080 On ch=2 n=37 v=94
118080 On ch=2 n=35 v=100
118080 On ch=2 n=42 v=50
118081 Off ch=2 n=42 v=64
118081 Off ch=2 n=35 v=64
118081 Off ch=2 n=37 v=64
118560 On ch=2 n=46 v=46
118561 Off ch=2 n=46 v=64
119040 On ch=2 n=35 v=100
119040 On ch=2 n=42 v=59
119041 Off ch=2 n=42 v=64
119041 Off ch=2 n=35 v=64
119520 On ch=2 n=42 v=32
119521 Off ch=2 n=42 v=64
120000 On ch=2 n=37 v=94
120000 On ch=2 n=35 v=100
120000 On ch=2 n=42 v=51
120001 Off ch=2 n=42 v=64
120001 Off ch=2 n=35 v=64
120001 Off ch=2 n=37 v=64
120480 On ch=2 n=42 v=30
120481 Off ch=2 n=42 v=64
120960 On ch=2 n=35 v=100
120960 On ch=2 n=42 v=59
120961 Off ch=2 n=42 v=64
120961 Off ch=2 n=35 v=64
121440 On ch=2 n=42 v=30
121441 Off ch=2 n=42 v=64
121920 On ch=2 n=37 v=94
121920 On ch=2 n=35 v=100
121920 On ch=2 n=42 v=50
121921 Off ch=2 n=42 v=64
121921 Off ch=2 n=35 v=64
121921 Off ch=2 n=37 v=64
122400 On ch=2 n=42 v=32
122401 Off ch=2 n=42 v=64
122880 On ch=2 n=35 v=100
122880 On ch=2 n=42 v=59
122881 Off ch=2 n=42 v=64
122881 Off ch=2 n=35 v=64
123360 On ch=2 n=42 v=32
123361 Off ch=2 n=42 v=64
123840 On ch=2 n=37 v=94
123840 On ch=2 n=35 v=100
123840 On ch=2 n=42 v=51
123841 Off ch=2 n=42 v=64
123841 Off ch=2 n=35 v=64
123841 Off ch=2 n=37 v=64
124320 On ch=2 n=42 v=30
124321 Off ch=2 n=42 v=64
124800 On ch=2 n=35 v=100
124800 On ch=2 n=46 v=75
124801 Off ch=2 n=46 v=64
124801 Off ch=2 n=35 v=64
125280 On ch=2 n=50 v=114
125281 Off ch=2 n=50 v=64
125520 On ch=2 n=50 v=94
125521 Off ch=2 n=50 v=64
125760 On ch=2 n=37 v=94
125760 On ch=2 n=35 v=100
125761 Off ch=2 n=35 v=64
125761 Off ch=2 n=37 v=64
126000 On ch=2 n=48 v=101
126001 Off ch=2 n=48 v=64
126240 On ch=2 n=43 v=124
126241 Off ch=2 n=43 v=64
126480 On ch=2 n=37 v=87
126481 Off ch=2 n=37 v=64
126720 On ch=2 n=35 v=100
126720 On ch=2 n=49 v=84
126720 On ch=2 n=42 v=59
126721 Off ch=2 n=42 v=64
126721 Off ch=2 n=49 v=64
126721 Off ch=2 n=35 v=64
127200 On ch=2 n=42 v=32
127201 Off ch=2 n=42 v=64
127680 On ch=2 n=35 v=100
127680 On ch=2 n=37 v=104
127680 On ch=2 n=42 v=51
127681 Off ch=2 n=42 v=64
127681 Off ch=2 n=37 v=64
127681 Off ch=2 n=35 v=64
128160 On ch=2 n=42 v=30
128161 Off ch=2 n=42 v=64
128640 On ch=2 n=35 v=100
128640 On ch=2 n=42 v=59
128641 Off ch=2 n=42 v=64
128641 Off ch=2 n=35 v=64
129120 On ch=2 n=42 v=30
129121 Off ch=2 n=42 v=64
129600 On ch=2 n=35 v=100
129600 On ch=2 n=37 v=104
129600 On ch=2 n=42 v=50
129601 Off ch=2 n=42 v=64
129601 Off ch=2 n=37 v=64
129601 Off ch=2 n=35 v=64
130080 On ch=2 n=42 v=32
130081 Off ch=2 n=42 v=64
130560 On ch=2 n=35 v=100
130560 On ch=2 n=42 v=59
130561 Off ch=2 n=42 v=64
130561 Off ch=2 n=35 v=64
131040 On ch=2 n=42 v=32
131041 Off ch=2 n=42 v=64
131520 On ch=2 n=35 v=100
131520 On ch=2 n=37 v=104
131520 On ch=2 n=42 v=51
131521 Off ch=2 n=42 v=64
131521 Off ch=2 n=37 v=64
131521 Off ch=2 n=35 v=64
132000 On ch=2 n=42 v=30
132001 Off ch=2 n=42 v=64
132480 On ch=2 n=35 v=100
132480 On ch=2 n=42 v=59
132481 Off ch=2 n=42 v=64
132481 Off ch=2 n=35 v=64
132960 On ch=2 n=42 v=30
132961 Off ch=2 n=42 v=64
133440 On ch=2 n=35 v=100
133440 On ch=2 n=37 v=104
133440 On ch=2 n=42 v=50
133441 Off ch=2 n=42 v=64
133441 Off ch=2 n=37 v=64
133441 Off ch=2 n=35 v=64
133920 On ch=2 n=46 v=46
133921 Off ch=2 n=46 v=64
134400 On ch=2 n=35 v=100
134400 On ch=2 n=42 v=59
134401 Off ch=2 n=42 v=64
134401 Off ch=2 n=35 v=64
134880 On ch=2 n=42 v=32
134881 Off ch=2 n=42 v=64
135360 On ch=2 n=35 v=100
135360 On ch=2 n=37 v=104
135360 On ch=2 n=42 v=51
135361 Off ch=2 n=42 v=64
135361 Off ch=2 n=37 v=64
135361 Off ch=2 n=35 v=64
135840 On ch=2 n=42 v=30
135841 Off ch=2 n=42 v=64
136320 On ch=2 n=35 v=100
136320 On ch=2 n=42 v=59
136321 Off ch=2 n=42 v=64
136321 Off ch=2 n=35 v=64
136800 On ch=2 n=42 v=30
136801 Off ch=2 n=42 v=64
137280 On ch=2 n=35 v=100
137280 On ch=2 n=37 v=104
137280 On ch=2 n=42 v=50
137281 Off ch=2 n=42 v=64
137281 Off ch=2 n=37 v=64
137281 Off ch=2 n=35 v=64
137760 On ch=2 n=42 v=32
137761 Off ch=2 n=42 v=64
138240 On ch=2 n=35 v=100
138240 On ch=2 n=42 v=59
138241 Off ch=2 n=42 v=64
138241 Off ch=2 n=35 v=64
138720 On ch=2 n=42 v=32
138721 Off ch=2 n=42 v=64
139200 On ch=2 n=35 v=100
139200 On ch=2 n=37 v=104
139200 On ch=2 n=42 v=51
139201 Off ch=2 n=42 v=64
139201 Off ch=2 n=37 v=64
139201 Off ch=2 n=35 v=64
139680 On ch=2 n=42 v=30
139681 Off ch=2 n=42 v=64
140160 On ch=2 n=35 v=100
140160 On ch=2 n=42 v=59
140161 Off ch=2 n=42 v=64
140161 Off ch=2 n=35 v=64
140640 On ch=2 n=42 v=30
140641 Off ch=2 n=42 v=64
141120 On ch=2 n=35 v=100
141120 On ch=2 n=37 v=104
141120 On ch=2 n=42 v=50
141121 Off ch=2 n=42 v=64
141121 Off ch=2 n=37 v=64
141121 Off ch=2 n=35 v=64
141600 On ch=2 n=46 v=46
141601 Off ch=2 n=46 v=64
142080 On ch=2 n=35 v=100
142080 On ch=2 n=49 v=84
142080 On ch=2 n=42 v=59
142081 Off ch=2 n=42 v=64
142081 Off ch=2 n=49 v=64
142081 Off ch=2 n=35 v=64
142560 On ch=2 n=42 v=32
142561 Off ch=2 n=42 v=64
143040 On ch=2 n=37 v=104
143040 On ch=2 n=35 v=100
143040 On ch=2 n=42 v=51
143041 Off ch=2 n=42 v=64
143041 Off ch=2 n=35 v=64
143041 Off ch=2 n=37 v=64
143520 On ch=2 n=42 v=30
143521 Off ch=2 n=42 v=64
144000 On ch=2 n=35 v=100
144000 On ch=2 n=42 v=59
144001 Off ch=2 n=42 v=64
144001 Off ch=2 n=35 v=64
144480 On ch=2 n=42 v=30
144481 Off ch=2 n=42 v=64
144960 On ch=2 n=37 v=104
144960 On ch=2 n=35 v=100
144960 On ch=2 n=42 v=50
144961 Off ch=2 n=42 v=64
144961 Off ch=2 n=35 v=64
144961 Off ch=2 n=37 v=64
145440 On ch=2 n=42 v=32
145441 Off ch=2 n=42 v=64
145920 On ch=2 n=35 v=100
145920 On ch=2 n=42 v=59
145921 Off ch=2 n=42 v=64
145921 Off ch=2 n=35 v=64
146400 On ch=2 n=42 v=32
146401 Off ch=2 n=42 v=64
146880 On ch=2 n=37 v=104
146880 On ch=2 n=35 v=100
146880 On ch=2 n=42 v=51
146881 Off ch=2 n=42 v=64
146881 Off ch=2 n=35 v=64
146881 Off ch=2 n=37 v=64
147360 On ch=2 n=42 v=30
147361 Off ch=2 n=42 v=64
147840 On ch=2 n=35 v=100
147840 On ch=2 n=42 v=59
147841 Off ch=2 n=42 v=64
147841 Off ch=2 n=35 v=64
148320 On ch=2 n=42 v=30
148321 Off ch=2 n=42 v=64
148800 On ch=2 n=37 v=104
148800 On ch=2 n=35 v=100
148800 On ch=2 n=42 v=50
148801 Off ch=2 n=42 v=64
148801 Off ch=2 n=35 v=64
148801 Off ch=2 n=37 v=64
149280 On ch=2 n=46 v=46
149281 Off ch=2 n=46 v=64
149760 On ch=2 n=35 v=100
149760 On ch=2 n=42 v=59
149761 Off ch=2 n=42 v=64
149761 Off ch=2 n=35 v=64
150240 On ch=2 n=42 v=32
150241 Off ch=2 n=42 v=64
150720 On ch=2 n=37 v=104
150720 On ch=2 n=35 v=100
150720 On ch=2 n=42 v=51
150721 Off ch=2 n=42 v=64
150721 Off ch=2 n=35 v=64
150721 Off ch=2 n=37 v=64
151200 On ch=2 n=42 v=30
151201 Off ch=2 n=42 v=64
151680 On ch=2 n=35 v=100
151680 On ch=2 n=42 v=59
151681 Off ch=2 n=42 v=64
151681 Off ch=2 n=35 v=64
152160 On ch=2 n=42 v=30
152161 Off ch=2 n=42 v=64
152640 On ch=2 n=37 v=104
152640 On ch=2 n=35 v=100
152640 On ch=2 n=42 v=50
152641 Off ch=2 n=42 v=64
152641 Off ch=2 n=35 v=64
152641 Off ch=2 n=37 v=64
153120 On ch=2 n=42 v=32
153121 Off ch=2 n=42 v=64
153600 On ch=2 n=35 v=100
153600 On ch=2 n=42 v=59
153601 Off ch=2 n=42 v=64
153601 Off ch=2 n=35 v=64
154080 On ch=2 n=42 v=32
154081 Off ch=2 n=42 v=64
154560 On ch=2 n=37 v=104
154560 On ch=2 n=35 v=100
154560 On ch=2 n=42 v=51
154561 Off ch=2 n=42 v=64
154561 Off ch=2 n=35 v=64
154561 Off ch=2 n=37 v=64
155040 On ch=2 n=42 v=30
155041 Off ch=2 n=42 v=64
155520 On ch=2 n=35 v=100
155520 On ch=2 n=46 v=59
155521 Off ch=2 n=46 v=64
155521 Off ch=2 n=35 v=64
156000 On ch=2 n=50 v=124
156001 Off ch=2 n=50 v=64
156240 On ch=2 n=50 v=99
156241 Off ch=2 n=50 v=64
156480 On ch=2 n=35 v=100
156480 On ch=2 n=47 v=124
156481 Off ch=2 n=47 v=64
156481 Off ch=2 n=35 v=64
156720 On ch=2 n=47 v=103
156721 Off ch=2 n=47 v=64
156960 On ch=2 n=43 v=124
156961 Off ch=2 n=43 v=64
157200 On ch=2 n=37 v=69
157201 Off ch=2 n=37 v=64
157440 On ch=2 n=49 v=84
157440 On ch=2 n=35 v=100
157440 On ch=2 n=42 v=59
157441 Off ch=2 n=42 v=64
157441 Off ch=2 n=35 v=64
157441 Off ch=2 n=49 v=64
157920 On ch=2 n=42 v=32
157921 Off ch=2 n=42 v=64
158400 On ch=2 n=37 v=104
158400 On ch=2 n=35 v=100
158400 On ch=2 n=42 v=51
158401 Off ch=2 n=42 v=64
158401 Off ch=2 n=35 v=64
158401 Off ch=2 n=37 v=64
158880 On ch=2 n=42 v=30
158881 Off ch=2 n=42 v=64
159360 On ch=2 n=35 v=100
159360 On ch=2 n=42 v=59
159361 Off ch=2 n=42 v=64
159361 Off ch=2 n=35 v=64
159840 On ch=2 n=42 v=30
159841 Off ch=2 n=42 v=64
160320 On ch=2 n=37 v=104
160320 On ch=2 n=35 v=100
160320 On ch=2 n=42 v=50
160321 Off ch=2 n=42 v=64
160321 Off ch=2 n=35 v=64
160321 Off ch=2 n=37 v=64
160800 On ch=2 n=42 v=32
160801 Off ch=2 n=42 v=64
161280 On ch=2 n=35 v=100
161280 On ch=2 n=42 v=59
161281 Off ch=2 n=42 v=64
161281 Off ch=2 n=35 v=64
161760 On ch=2 n=42 v=32
161761 Off ch=2 n=42 v=64
162240 On ch=2 n=37 v=104
162240 On ch=2 n=35 v=100
162240 On ch=2 n=42 v=51
162241 Off ch=2 n=42 v=64
162241 Off ch=2 n=35 v=64
162241 Off ch=2 n=37 v=64
162720 On ch=2 n=42 v=30
162721 Off ch=2 n=42 v=64
163200 On ch=2 n=35 v=100
163200 On ch=2 n=42 v=59
163201 Off ch=2 n=42 v=64
163201 Off ch=2 n=35 v=64
163680 On ch=2 n=42 v=30
163681 Off ch=2 n=42 v=64
164160 On ch=2 n=37 v=104
164160 On ch=2 n=35 v=100
164160 On ch=2 n=42 v=50
164161 Off ch=2 n=42 v=64
164161 Off ch=2 n=35 v=64
164161 Off ch=2 n=37 v=64
164640 On ch=2 n=46 v=46
164641 Off ch=2 n=46 v=64
165120 On ch=2 n=35 v=100
165120 On ch=2 n=42 v=59
165121 Off ch=2 n=42 v=64
165121 Off ch=2 n=35 v=64
165600 On ch=2 n=42 v=32
165601 Off ch=2 n=42 v=64
166080 On ch=2 n=37 v=104
166080 On ch=2 n=35 v=100
166080 On ch=2 n=42 v=51
166081 Off ch=2 n=42 v=64
166081 Off ch=2 n=35 v=64
166081 Off ch=2 n=37 v=64
166560 On ch=2 n=42 v=30
166561 Off ch=2 n=42 v=64
167040 On ch=2 n=35 v=100
167040 On ch=2 n=42 v=59
167041 Off ch=2 n=42 v=64
167041 Off ch=2 n=35 v=64
167520 On ch=2 n=42 v=30
167521 Off ch=2 n=42 v=64
168000 On ch=2 n=37 v=104
168000 On ch=2 n=35 v=100
168000 On ch=2 n=42 v=50
168001 Off ch=2 n=42 v=64
168001 Off ch=2 n=35 v=64
168001 Off ch=2 n=37 v=64
168480 On ch=2 n=42 v=32
168481 Off ch=2 n=42 v=64
168960 On ch=2 n=35 v=100
168960 On ch=2 n=42 v=59
168961 Off ch=2 n=42 v=64
168961 Off ch=2 n=35 v=64
169440 On ch=2 n=42 v=32
169441 Off ch=2 n=42 v=64
169920 On ch=2 n=37 v=104
169920 On ch=2 n=35 v=100
169920 On ch=2 n=42 v=51
169921 Off ch=2 n=42 v=64
169921 Off ch=2 n=35 v=64
169921 Off ch=2 n=37 v=64
170400 On ch=2 n=42 v=30
170401 Off ch=2 n=42 v=64
170880 On ch=2 n=35 v=100
170880 On ch=2 n=42 v=59
170881 Off ch=2 n=42 v=64
170881 Off ch=2 n=35 v=64
171360 On ch=2 n=42 v=30
171361 Off ch=2 n=42 v=64
171840 On ch=2 n=37 v=104
171840 On ch=2 n=35 v=100
171840 On ch=2 n=42 v=50
171841 Off ch=2 n=42 v=64
171841 Off ch=2 n=35 v=64
171841 Off ch=2 n=37 v=64
172320 On ch=2 n=46 v=46
172321 Off ch=2 n=46 v=64
172800 On ch=2 n=35 v=100
172800 On ch=2 n=42 v=59
172800 On ch=2 n=49 v=84
172801 Off ch=2 n=49 v=64
172801 Off ch=2 n=42 v=64
172801 Off ch=2 n=35 v=64
173280 On ch=2 n=42 v=32
173281 Off ch=2 n=42 v=64
173760 On ch=2 n=35 v=100
173760 On ch=2 n=37 v=104
173760 On ch=2 n=42 v=51
173761 Off ch=2 n=42 v=64
173761 Off ch=2 n=37 v=64
173761 Off ch=2 n=35 v=64
174240 On ch=2 n=42 v=30
174241 Off ch=2 n=42 v=64
174720 On ch=2 n=35 v=100
174720 On ch=2 n=42 v=59
174721 Off ch=2 n=42 v=64
174721 Off ch=2 n=35 v=64
175200 On ch=2 n=42 v=30
175201 Off ch=2 n=42 v=64
175680 On ch=2 n=35 v=100
175680 On ch=2 n=37 v=104
175680 On ch=2 n=42 v=50
175681 Off ch=2 n=42 v=64
175681 Off ch=2 n=37 v=64
175681 Off ch=2 n=35 v=64
176160 On ch=2 n=42 v=32
176161 Off ch=2 n=42 v=64
176640 On ch=2 n=35 v=100
176640 On ch=2 n=42 v=59
176641 Off ch=2 n=42 v=64
176641 Off ch=2 n=35 v=64
177120 On ch=2 n=42 v=32
177121 Off ch=2 n=42 v=64
177600 On ch=2 n=35 v=100
177600 On ch=2 n=37 v=104
177600 On ch=2 n=42 v=51
177601 Off ch=2 n=42 v=64
177601 Off ch=2 n=37 v=64
177601 Off ch=2 n=35 v=64
178080 On ch=2 n=42 v=30
178081 Off ch=2 n=42 v=64
178560 On ch=2 n=35 v=100
178560 On ch=2 n=42 v=59
178561 Off ch=2 n=42 v=64
178561 Off ch=2 n=35 v=64
179040 On ch=2 n=42 v=30
179041 Off ch=2 n=42 v=64
179520 On ch=2 n=35 v=100
179520 On ch=2 n=37 v=104
179520 On ch=2 n=42 v=50
179521 Off ch=2 n=42 v=64
179521 Off ch=2 n=37 v=64
179521 Off ch=2 n=35 v=64
180000 On ch=2 n=46 v=46
180001 Off ch=2 n=46 v=64
180480 On ch=2 n=35 v=100
180480 On ch=2 n=42 v=59
180481 Off ch=2 n=42 v=64
180481 Off ch=2 n=35 v=64
180960 On ch=2 n=42 v=32
180961 Off ch=2 n=42 v=64
181440 On ch=2 n=35 v=100
181440 On ch=2 n=37 v=104
181440 On ch=2 n=42 v=51
181441 Off ch=2 n=42 v=64
181441 Off ch=2 n=37 v=64
181441 Off ch=2 n=35 v=64
181920 On ch=2 n=42 v=30
181921 Off ch=2 n=42 v=64
182400 On ch=2 n=35 v=100
182400 On ch=2 n=42 v=59
182401 Off ch=2 n=42 v=64
182401 Off ch=2 n=35 v=64
182880 On ch=2 n=42 v=30
182881 Off ch=2 n=42 v=64
183360 On ch=2 n=35 v=100
183360 On ch=2 n=37 v=104
183360 On ch=2 n=42 v=50
183361 Off ch=2 n=42 v=64
183361 Off ch=2 n=37 v=64
183361 Off ch=2 n=35 v=64
183840 On ch=2 n=42 v=32
183841 Off ch=2 n=42 v=64
184320 On ch=2 n=35 v=100
184320 On ch=2 n=42 v=59
184321 Off ch=2 n=42 v=64
184321 Off ch=2 n=35 v=64
184800 On ch=2 n=42 v=32
184801 Off ch=2 n=42 v=64
185280 On ch=2 n=35 v=100
185280 On ch=2 n=37 v=104
185280 On ch=2 n=42 v=51
185281 Off ch=2 n=42 v=64
185281 Off ch=2 n=37 v=64
185281 Off ch=2 n=35 v=64
185760 On ch=2 n=42 v=30
185761 Off ch=2 n=42 v=64
186240 On ch=2 n=35 v=100
186240 On ch=2 n=42 v=59
186241 Off ch=2 n=42 v=64
186241 Off ch=2 n=35 v=64
218880 On ch=2 n=49 v=75
218880 On ch=2 n=35 v=117
218881 Off ch=2 n=35 v=64
218881 Off ch=2 n=49 v=64
219120 On ch=2 n=37 v=70
219121 Off ch=2 n=37 v=64
219360 On ch=2 n=37 v=85
219361 Off ch=2 n=37 v=64
219600 On ch=2 n=37 v=124
219601 Off ch=2 n=37 v=64
220080 On ch=2 n=50 v=127
220081 Off ch=2 n=50 v=64
220320 On ch=2 n=45 v=127
220321 Off ch=2 n=45 v=64
220800 On ch=2 n=35 v=117
220800 On ch=2 n=49 v=55
220801 Off ch=2 n=49 v=64
220801 Off ch=2 n=35 v=64
221040 On ch=2 n=37 v=70
221041 Off ch=2 n=37 v=64
221280 On ch=2 n=37 v=88
221281 Off ch=2 n=37 v=64
221520 On ch=2 n=37 v=124
221521 Off ch=2 n=37 v=64
222000 On ch=2 n=47 v=127
222001 Off ch=2 n=47 v=64
222240 On ch=2 n=43 v=127
222241 Off ch=2 n=43 v=64
222720 On ch=2 n=35 v=117
222720 On ch=2 n=49 v=55
222721 Off ch=2 n=49 v=64
222721 Off ch=2 n=35 v=64
222960 On ch=2 n=37 v=70
222961 Off ch=2 n=37 v=64
223200 On ch=2 n=37 v=85
223201 Off ch=2 n=37 v=64
223440 On ch=2 n=37 v=124
223441 Off ch=2 n=37 v=64
223920 On ch=2 n=50 v=127
223921 Off ch=2 n=50 v=64
224160 On ch=2 n=45 v=127
224161 Off ch=2 n=45 v=64
224640 On ch=2 n=35 v=117
224640 On ch=2 n=49 v=55
224641 Off ch=2 n=49 v=64
224641 Off ch=2 n=35 v=64
224880 On ch=2 n=37 v=70
224881 Off ch=2 n=37 v=64
225120 On ch=2 n=37 v=88
225121 Off ch=2 n=37 v=64
225360 On ch=2 n=37 v=124
225361 Off ch=2 n=37 v=64
225600 On ch=2 n=49 v=55
225600 On ch=2 n=37 v=127
225601 Off ch=2 n=37 v=64
225601 Off ch=2 n=49 v=64
225840 On ch=2 n=37 v=42
225841 Off ch=2 n=37 v=64
226080 On ch=2 n=37 v=127
226081 Off ch=2 n=37 v=64
226560 On ch=2 n=35 v=117
226560 On ch=2 n=49 v=55
226561 Off ch=2 n=49 v=64
226561 Off ch=2 n=35 v=64
226800 On ch=2 n=37 v=70
226801 Off ch=2 n=37 v=64
227040 On ch=2 n=37 v=85
227041 Off ch=2 n=37 v=64
227280 On ch=2 n=37 v=124
227281 Off ch=2 n=37 v=64
227760 On ch=2 n=50 v=127
227761 Off ch=2 n=50 v=64
228000 On ch=2 n=45 v=127
228001 Off ch=2 n=45 v=64
228480 On ch=2 n=35 v=117
228480 On ch=2 n=49 v=55
228481 Off ch=2 n=49 v=64
228481 Off ch=2 n=35 v=64
228720 On ch=2 n=37 v=70
228721 Off ch=2 n=37 v=64
228960 On ch=2 n=37 v=88
228961 Off ch=2 n=37 v=64
229200 On ch=2 n=37 v=124
229201 Off ch=2 n=37 v=64
229680 On ch=2 n=47 v=127
229681 Off ch=2 n=47 v=64
229920 On ch=2 n=43 v=127
229921 Off ch=2 n=43 v=64
230400 On ch=2 n=35 v=117
230400 On ch=2 n=49 v=55
230401 Off ch=2 n=49 v=64
230401 Off ch=2 n=35 v=64
230640 On ch=2 n=37 v=70
230641 Off ch=2 n=37 v=64
230880 On ch=2 n=37 v=85
230881 Off ch=2 n=37 v=64
231120 On ch=2 n=37 v=124
231121 Off ch=2 n=37 v=64
231600 On ch=2 n=50 v=127
231601 Off ch=2 n=50 v=64
231840 On ch=2 n=45 v=127
231841 Off ch=2 n=45 v=64
232320 On ch=2 n=35 v=117
232320 On ch=2 n=49 v=55
232321 Off ch=2 n=49 v=64
232321 Off ch=2 n=35 v=64
232560 On ch=2 n=37 v=70
232561 Off ch=2 n=37 v=64
232800 On ch=2 n=37 v=88
232801 Off ch=2 n=37 v=64
233040 On ch=2 n=37 v=124
233041 Off ch=2 n=37 v=64
233280 On ch=2 n=49 v=55
233280 On ch=2 n=37 v=127
233281 Off ch=2 n=37 v=64
233281 Off ch=2 n=49 v=64
233520 On ch=2 n=37 v=42
233521 Off ch=2 n=37 v=64
233760 On ch=2 n=37 v=127
233761 Off ch=2 n=37 v=64
234240 On ch=2 n=35 v=117
234240 On ch=2 n=49 v=55
234241 Off ch=2 n=49 v=64
234241 Off ch=2 n=35 v=64
234480 On ch=2 n=37 v=70
234481 Off ch=2 n=37 v=64
234720 On ch=2 n=37 v=85
234721 Off ch=2 n=37 v=64
234960 On ch=2 n=37 v=124
234961 Off ch=2 n=37 v=64
235440 On ch=2 n=50 v=127
235441 Off ch=2 n=50 v=64
235680 On ch=2 n=45 v=127
235681 Off ch=2 n=45 v=64
236160 On ch=2 n=49 v=55
236160 On ch=2 n=35 v=117
236161 Off ch=2 n=35 v=64
236161 Off ch=2 n=49 v=64
236400 On ch=2 n=37 v=70
236401 Off ch=2 n=37 v=64
236640 On ch=2 n=37 v=88
236641 Off ch=2 n=37 v=64
236880 On ch=2 n=37 v=124
236881 Off ch=2 n=37 v=64
237360 On ch=2 n=47 v=127
237361 Off ch=2 n=47 v=64
237600 On ch=2 n=43 v=127
237601 Off ch=2 n=43 v=64
238080 On ch=2 n=49 v=55
238080 On ch=2 n=35 v=117
238081 Off ch=2 n=35 v=64
238081 Off ch=2 n=49 v=64
238320 On ch=2 n=37 v=70
238321 Off ch=2 n=37 v=64
238560 On ch=2 n=37 v=85
238561 Off ch=2 n=37 v=64
238800 On ch=2 n=37 v=124
238801 Off ch=2 n=37 v=64
239280 On ch=2 n=50 v=127
239281 Off ch=2 n=50 v=64
239520 On ch=2 n=45 v=127
239521 Off ch=2 n=45 v=64
240000 On ch=2 n=49 v=55
240000 On ch=2 n=35 v=117
240001 Off ch=2 n=35 v=64
240001 Off ch=2 n=49 v=64
240240 On ch=2 n=37 v=70
240241 Off ch=2 n=37 v=64
240480 On ch=2 n=37 v=88
240481 Off ch=2 n=37 v=64
240720 On ch=2 n=37 v=124
240721 Off ch=2 n=37 v=64
240960 On ch=2 n=37 v=127
240960 On ch=2 n=49 v=55
240961 Off ch=2 n=49 v=64
240961 Off ch=2 n=37 v=64
241200 On ch=2 n=37 v=42
241201 Off ch=2 n=37 v=64
241440 On ch=2 n=37 v=127
241441 Off ch=2 n=37 v=64
241920 On ch=2 n=49 v=55
241920 On ch=2 n=35 v=117
241921 Off ch=2 n=35 v=64
241921 Off ch=2 n=49 v=64
242160 On ch=2 n=37 v=70
242161 Off ch=2 n=37 v=64
242400 On ch=2 n=37 v=85
242401 Off ch=2 n=37 v=64
242640 On ch=2 n=37 v=124
242641 Off ch=2 n=37 v=64
243120 On ch=2 n=50 v=127
243121 Off ch=2 n=50 v=64
243360 On ch=2 n=45 v=127
243361 Off ch=2 n=45 v=64
243840 On ch=2 n=49 v=55
243840 On ch=2 n=35 v=117
243841 Off ch=2 n=35 v=64
243841 Off ch=2 n=49 v=64
244080 On ch=2 n=37 v=70
244081 Off ch=2 n=37 v=64
244320 On ch=2 n=37 v=88
244321 Off ch=2 n=37 v=64
244560 On ch=2 n=37 v=124
244561 Off ch=2 n=37 v=64
245040 On ch=2 n=47 v=127
245041 Off ch=2 n=47 v=64
245280 On ch=2 n=43 v=127
245281 Off ch=2 n=43 v=64
245760 On ch=2 n=49 v=55
245760 On ch=2 n=35 v=117
245761 Off ch=2 n=35 v=64
245761 Off ch=2 n=49 v=64
246000 On ch=2 n=37 v=70
246001 Off ch=2 n=37 v=64
246240 On ch=2 n=37 v=85
246241 Off ch=2 n=37 v=64
246480 On ch=2 n=37 v=124
246481 Off ch=2 n=37 v=64
246960 On ch=2 n=50 v=127
246961 Off ch=2 n=50 v=64
247200 On ch=2 n=45 v=127
247201 Off ch=2 n=45 v=64
247680 On ch=2 n=49 v=55
247680 On ch=2 n=35 v=117
247681 Off ch=2 n=35 v=64
247681 Off ch=2 n=49 v=64
247920 On ch=2 n=37 v=70
247921 Off ch=2 n=37 v=64
248160 On ch=2 n=37 v=88
248161 Off ch=2 n=37 v=64
248400 On ch=2 n=37 v=124
248401 Off ch=2 n=37 v=64
248640 On ch=2 n=37 v=127
248640 On ch=2 n=49 v=55
248641 Off ch=2 n=49 v=64
248641 Off ch=2 n=37 v=64
248880 On ch=2 n=37 v=42
248881 Off ch=2 n=37 v=64
249120 On ch=2 n=37 v=127
249121 Off ch=2 n=37 v=64
249600 On ch=2 n=49 v=38
249600 On ch=2 n=42 v=59
249600 On ch=2 n=35 v=100
249601 Off ch=2 n=35 v=64
249601 Off ch=2 n=42 v=64
249601 Off ch=2 n=49 v=64
250080 On ch=2 n=42 v=34
250081 Off ch=2 n=42 v=64
250560 On ch=2 n=42 v=51
250560 On ch=2 n=37 v=118
250560 On ch=2 n=35 v=100
250561 Off ch=2 n=35 v=64
250561 Off ch=2 n=37 v=64
250561 Off ch=2 n=42 v=64
251040 On ch=2 n=42 v=32
251041 Off ch=2 n=42 v=64
251520 On ch=2 n=42 v=59
251520 On ch=2 n=35 v=100
251521 Off ch=2 n=35 v=64
251521 Off ch=2 n=42 v=64
252000 On ch=2 n=42 v=32
252001 Off ch=2 n=42 v=64
252480 On ch=2 n=42 v=50
252480 On ch=2 n=37 v=118
252480 On ch=2 n=35 v=100
252481 Off ch=2 n=35 v=64
252481 Off ch=2 n=37 v=64
252481 Off ch=2 n=42 v=64
252960 On ch=2 n=42 v=34
252961 Off ch=2 n=42 v=64
253440 On ch=2 n=42 v=59
253440 On ch=2 n=35 v=100
253441 Off ch=2 n=35 v=64
253441 Off ch=2 n=42 v=64
253920 On ch=2 n=42 v=34
253921 Off ch=2 n=42 v=64
254400 On ch=2 n=42 v=51
254400 On ch=2 n=37 v=118
254400 On ch=2 n=35 v=100
254401 Off ch=2 n=35 v=64
254401 Off ch=2 n=37 v=64
254401 Off ch=2 n=42 v=64
254880 On ch=2 n=42 v=32
254881 Off ch=2 n=42 v=64
255360 On ch=2 n=42 v=59
255360 On ch=2 n=35 v=100
255361 Off ch=2 n=35 v=64
255361 Off ch=2 n=42 v=64
255840 On ch=2 n=42 v=32
255841 Off ch=2 n=42 v=64
256320 On ch=2 n=42 v=50
256320 On ch=2 n=37 v=118
256320 On ch=2 n=35 v=100
256321 Off ch=2 n=35 v=64
256321 Off ch=2 n=37 v=64
256321 Off ch=2 n=42 v=64
256800 On ch=2 n=46 v=60
256801 Off ch=2 n=46 v=64
257280 On ch=2 n=42 v=59
257280 On ch=2 n=35 v=100
257281 Off ch=2 n=35 v=64
257281 Off ch=2 n=42 v=64
257760 On ch=2 n=42 v=34
257761 Off ch=2 n=42 v=64
258240 On ch=2 n=42 v=51
258240 On ch=2 n=37 v=118
258240 On ch=2 n=35 v=100
258241 Off ch=2 n=35 v=64
258241 Off ch=2 n=37 v=64
258241 Off ch=2 n=42 v=64
258720 On ch=2 n=42 v=32
258721 Off ch=2 n=42 v=64
259200 On ch=2 n=42 v=59
259200 On ch=2 n=35 v=100
259201 Off ch=2 n=35 v=64
259201 Off ch=2 n=42 v=64
259680 On ch=2 n=42 v=32
259681 Off ch=2 n=42 v=64
260160 On ch=2 n=42 v=50
260160 On ch=2 n=37 v=118
260160 On ch=2 n=35 v=100
260161 Off ch=2 n=35 v=64
260161 Off ch=2 n=37 v=64
260161 Off ch=2 n=42 v=64
260640 On ch=2 n=42 v=34
260641 Off ch=2 n=42 v=64
261120 On ch=2 n=42 v=59
261120 On ch=2 n=35 v=100
261121 Off ch=2 n=35 v=64
261121 Off ch=2 n=42 v=64
261600 On ch=2 n=42 v=34
261601 Off ch=2 n=42 v=64
262080 On ch=2 n=42 v=51
262080 On ch=2 n=37 v=118
262080 On ch=2 n=35 v=100
262081 Off ch=2 n=35 v=64
262081 Off ch=2 n=37 v=64
262081 Off ch=2 n=42 v=64
262560 On ch=2 n=42 v=32
262561 Off ch=2 n=42 v=64
263040 On ch=2 n=42 v=59
263040 On ch=2 n=35 v=100
263041 Off ch=2 n=35 v=64
263041 Off ch=2 n=42 v=64
263520 On ch=2 n=42 v=32
263521 Off ch=2 n=42 v=64
264000 On ch=2 n=42 v=50
264000 On ch=2 n=37 v=118
264000 On ch=2 n=35 v=100
264001 Off ch=2 n=35 v=64
264001 Off ch=2 n=37 v=64
264001 Off ch=2 n=42 v=64
264480 On ch=2 n=46 v=60
264481 Off ch=2 n=46 v=64
264960 On ch=2 n=42 v=59
264960 On ch=2 n=35 v=100
264961 Off ch=2 n=35 v=64
264961 Off ch=2 n=42 v=64
265440 On ch=2 n=42 v=34
265441 Off ch=2 n=42 v=64
265920 On ch=2 n=42 v=51
265920 On ch=2 n=37 v=118
265920 On ch=2 n=35 v=100
265921 Off ch=2 n=35 v=64
265921 Off ch=2 n=37 v=64
265921 Off ch=2 n=42 v=64
266400 On ch=2 n=42 v=32
266401 Off ch=2 n=42 v=64
266880 On ch=2 n=42 v=59
266880 On ch=2 n=35 v=100
266881 Off ch=2 n=35 v=64
266881 Off ch=2 n=42 v=64
267360 On ch=2 n=42 v=32
267361 Off ch=2 n=42 v=64
267840 On ch=2 n=42 v=50
267840 On ch=2 n=37 v=118
267840 On ch=2 n=35 v=100
267841 Off ch=2 n=35 v=64
267841 Off ch=2 n=37 v=64
267841 Off ch=2 n=42 v=64
268320 On ch=2 n=42 v=34
268321 Off ch=2 n=42 v=64
268800 On ch=2 n=42 v=59
268800 On ch=2 n=35 v=100
268801 Off ch=2 n=35 v=64
268801 Off ch=2 n=42 v=64
269280 On ch=2 n=42 v=34
269281 Off ch=2 n=42 v=64
269760 On ch=2 n=42 v=51
269760 On ch=2 n=37 v=118
269760 On ch=2 n=35 v=100
269761 Off ch=2 n=35 v=64
269761 Off ch=2 n=37 v=64
269761 Off ch=2 n=42 v=64
270240 On ch=2 n=42 v=32
270241 Off ch=2 n=42 v=64
270720 On ch=2 n=42 v=59
270720 On ch=2 n=35 v=100
270721 Off ch=2 n=35 v=64
270721 Off ch=2 n=42 v=64
271200 On ch=2 n=42 v=32
271201 Off ch=2 n=42 v=64
271680 On ch=2 n=42 v=50
271680 On ch=2 n=37 v=118
271680 On ch=2 n=35 v=100
271681 Off ch=2 n=35 v=64
271681 Off ch=2 n=37 v=64
271681 Off ch=2 n=42 v=64
272160 On ch=2 n=46 v=60
272161 Off ch=2 n=46 v=64
272640 On ch=2 n=42 v=59
272640 On ch=2 n=35 v=100
272641 Off ch=2 n=35 v=64
272641 Off ch=2 n=42 v=64
273120 On ch=2 n=42 v=34
273121 Off ch=2 n=42 v=64
273600 On ch=2 n=42 v=51
273600 On ch=2 n=37 v=118
273600 On ch=2 n=35 v=100
273601 Off ch=2 n=35 v=64
273601 Off ch=2 n=37 v=64
273601 Off ch=2 n=42 v=64
274080 On ch=2 n=42 v=32
274081 Off ch=2 n=42 v=64
274560 On ch=2 n=42 v=59
274560 On ch=2 n=35 v=100
274561 Off ch=2 n=35 v=64
274561 Off ch=2 n=42 v=64
275040 On ch=2 n=42 v=32
275041 Off ch=2 n=42 v=64
275520 On ch=2 n=42 v=50
275520 On ch=2 n=37 v=118
275520 On ch=2 n=35 v=100
275521 Off ch=2 n=35 v=64
275521 Off ch=2 n=37 v=64
275521 Off ch=2 n=42 v=64
276000 On ch=2 n=42 v=34
276001 Off ch=2 n=42 v=64
276480 On ch=2 n=42 v=59
276480 On ch=2 n=35 v=100
276481 Off ch=2 n=35 v=64
276481 Off ch=2 n=42 v=64
276960 On ch=2 n=42 v=34
276961 Off ch=2 n=42 v=64
277440 On ch=2 n=42 v=51
277440 On ch=2 n=37 v=118
277440 On ch=2 n=35 v=100
277441 Off ch=2 n=35 v=64
277441 Off ch=2 n=37 v=64
277441 Off ch=2 n=42 v=64
277920 On ch=2 n=42 v=32
277921 Off ch=2 n=42 v=64
278400 On ch=2 n=42 v=59
278400 On ch=2 n=35 v=100
278401 Off ch=2 n=35 v=64
278401 Off ch=2 n=42 v=64
278880 On ch=2 n=50 v=109
278881 Off ch=2 n=50 v=64
279120 On ch=2 n=48 v=99
279121 Off ch=2 n=48 v=64
279360 On ch=2 n=37 v=118
279360 On ch=2 n=35 v=100
279361 Off ch=2 n=35 v=64
279361 Off ch=2 n=37 v=64
279600 On ch=2 n=45 v=109
279601 Off ch=2 n=45 v=64
279840 On ch=2 n=43 v=118
279841 Off ch=2 n=43 v=64
280080 On ch=2 n=37 v=44
280081 Off ch=2 n=37 v=64
280320 On ch=2 n=35 v=100
280320 On ch=2 n=42 v=59
280320 On ch=2 n=49 v=84
280321 Off ch=2 n=49 v=64
280321 Off ch=2 n=42 v=64
280321 Off ch=2 n=35 v=64
280800 On ch=2 n=42 v=34
280801 Off ch=2 n=42 v=64
281280 On ch=2 n=35 v=100
281280 On ch=2 n=37 v=118
281280 On ch=2 n=42 v=51
281281 Off ch=2 n=42 v=64
281281 Off ch=2 n=37 v=64
281281 Off ch=2 n=35 v=64
281760 On ch=2 n=42 v=32
281761 Off ch=2 n=42 v=64
282240 On ch=2 n=35 v=100
282240 On ch=2 n=42 v=59
282241 Off ch=2 n=42 v=64
282241 Off ch=2 n=35 v=64
282720 On ch=2 n=42 v=32
282721 Off ch=2 n=42 v=64
283200 On ch=2 n=35 v=100
283200 On ch=2 n=37 v=118
283200 On ch=2 n=42 v=50
283201 Off ch=2 n=42 v=64
283201 Off ch=2 n=37 v=64
283201 Off ch=2 n=35 v=64
283680 On ch=2 n=42 v=34
283681 Off ch=2 n=42 v=64
284160 On ch=2 n=35 v=100
284160 On ch=2 n=42 v=59
284161 Off ch=2 n=42 v=64
284161 Off ch=2 n=35 v=64
284640 On ch=2 n=42 v=34
284641 Off ch=2 n=42 v=64
285120 On ch=2 n=35 v=100
285120 On ch=2 n=37 v=118
285120 On ch=2 n=42 v=51
285121 Off ch=2 n=42 v=64
285121 Off ch=2 n=37 v=64
285121 Off ch=2 n=35 v=64
285600 On ch=2 n=42 v=32
285601 Off ch=2 n=42 v=64
286080 On ch=2 n=35 v=100
286080 On ch=2 n=42 v=59
286081 Off ch=2 n=42 v=64
286081 Off ch=2 n=35 v=64
286560 On ch=2 n=42 v=32
286561 Off ch=2 n=42 v=64
287040 On ch=2 n=35 v=100
287040 On ch=2 n=37 v=118
287040 On ch=2 n=42 v=50
287041 Off ch=2 n=42 v=64
287041 Off ch=2 n=37 v=64
287041 Off ch=2 n=35 v=64
287520 On ch=2 n=46 v=60
287521 Off ch=2 n=46 v=64
288000 On ch=2 n=35 v=100
288000 On ch=2 n=42 v=59
288001 Off ch=2 n=42 v=64
288001 Off ch=2 n=35 v=64
288480 On ch=2 n=42 v=34
288481 Off ch=2 n=42 v=64
288960 On ch=2 n=35 v=100
288960 On ch=2 n=37 v=118
288960 On ch=2 n=42 v=51
288961 Off ch=2 n=42 v=64
288961 Off ch=2 n=37 v=64
288961 Off ch=2 n=35 v=64
289440 On ch=2 n=42 v=32
289441 Off ch=2 n=42 v=64
289920 On ch=2 n=35 v=100
289920 On ch=2 n=42 v=59
289921 Off ch=2 n=42 v=64
289921 Off ch=2 n=35 v=64
290400 On ch=2 n=42 v=32
290401 Off ch=2 n=42 v=64
290880 On ch=2 n=35 v=100
290880 On ch=2 n=37 v=118
290880 On ch=2 n=42 v=50
290881 Off ch=2 n=42 v=64
290881 Off ch=2 n=37 v=64
290881 Off ch=2 n=35 v=64
291360 On ch=2 n=42 v=34
291361 Off ch=2 n=42 v=64
291840 On ch=2 n=35 v=100
291840 On ch=2 n=42 v=59
291841 Off ch=2 n=42 v=64
291841 Off ch=2 n=35 v=64
292320 On ch=2 n=42 v=34
292321 Off ch=2 n=42 v=64
292800 On ch=2 n=35 v=100
292800 On ch=2 n=37 v=118
292800 On ch=2 n=42 v=51
292801 Off ch=2 n=42 v=64
292801 Off ch=2 n=37 v=64
292801 Off ch=2 n=35 v=64
293280 On ch=2 n=42 v=32
293281 Off ch=2 n=42 v=64
293760 On ch=2 n=35 v=100
293760 On ch=2 n=42 v=59
293761 Off ch=2 n=42 v=64
293761 Off ch=2 n=35 v=64
294240 On ch=2 n=42 v=32
294241 Off ch=2 n=42 v=64
294720 On ch=2 n=35 v=100
294720 On ch=2 n=37 v=118
294720 On ch=2 n=42 v=50
294721 Off ch=2 n=42 v=64
294721 Off ch=2 n=37 v=64
294721 Off ch=2 n=35 v=64
295200 On ch=2 n=46 v=60
295201 Off ch=2 n=46 v=64
295680 On ch=2 n=35 v=100
295680 On ch=2 n=42 v=59
295681 Off ch=2 n=42 v=64
295681 Off ch=2 n=35 v=64
296160 On ch=2 n=42 v=42
296161 Off ch=2 n=42 v=64
296640 On ch=2 n=35 v=100
296640 On ch=2 n=37 v=118
296640 On ch=2 n=42 v=51
296641 Off ch=2 n=42 v=64
296641 Off ch=2 n=37 v=64
296641 Off ch=2 n=35 v=64
297120 On ch=2 n=42 v=40
297121 Off ch=2 n=42 v=64
297600 On ch=2 n=35 v=100
297600 On ch=2 n=42 v=59
297601 Off ch=2 n=42 v=64
297601 Off ch=2 n=35 v=64
298080 On ch=2 n=42 v=40
298081 Off ch=2 n=42 v=64
298560 On ch=2 n=35 v=100
298560 On ch=2 n=37 v=118
298560 On ch=2 n=42 v=50
298561 Off ch=2 n=42 v=64
298561 Off ch=2 n=37 v=64
298561 Off ch=2 n=35 v=64
299040 On ch=2 n=42 v=42
299041 Off ch=2 n=42 v=64
299520 On ch=2 n=35 v=100
299520 On ch=2 n=42 v=59
299521 Off ch=2 n=42 v=64
299521 Off ch=2 n=35 v=64
300000 On ch=2 n=42 v=42
300001 Off ch=2 n=42 v=64
300480 On ch=2 n=35 v=100
300480 On ch=2 n=37 v=118
300480 On ch=2 n=42 v=51
300481 Off ch=2 n=42 v=64
300481 Off ch=2 n=37 v=64
300481 Off ch=2 n=35 v=64
300960 On ch=2 n=42 v=40
300961 Off ch=2 n=42 v=64
301440 On ch=2 n=35 v=100
301440 On ch=2 n=42 v=59
301441 Off ch=2 n=42 v=64
301441 Off ch=2 n=35 v=64
301920 On ch=2 n=42 v=40
301921 Off ch=2 n=42 v=64
302400 On ch=2 n=35 v=100
302400 On ch=2 n=37 v=118
302400 On ch=2 n=42 v=50
302401 Off ch=2 n=42 v=64
302401 Off ch=2 n=37 v=64
302401 Off ch=2 n=35 v=64
302880 On ch=2 n=46 v=60
302881 Off ch=2 n=46 v=64
303360 On ch=2 n=35 v=100
303360 On ch=2 n=42 v=59
303361 Off ch=2 n=42 v=64
303361 Off ch=2 n=35 v=64
303840 On ch=2 n=42 v=42
303841 Off ch=2 n=42 v=64
304320 On ch=2 n=35 v=100
304320 On ch=2 n=37 v=118
304320 On ch=2 n=42 v=51
304321 Off ch=2 n=42 v=64
304321 Off ch=2 n=37 v=64
304321 Off ch=2 n=35 v=64
304800 On ch=2 n=42 v=40
304801 Off ch=2 n=42 v=64
305280 On ch=2 n=35 v=100
305280 On ch=2 n=42 v=59
305281 Off ch=2 n=42 v=64
305281 Off ch=2 n=35 v=64
305760 On ch=2 n=42 v=40
305761 Off ch=2 n=42 v=64
306240 On ch=2 n=35 v=100
306240 On ch=2 n=37 v=118
306240 On ch=2 n=42 v=50
306241 Off ch=2 n=42 v=64
306241 Off ch=2 n=37 v=64
306241 Off ch=2 n=35 v=64
306720 On ch=2 n=42 v=42
306721 Off ch=2 n=42 v=64
307200 On ch=2 n=35 v=100
307200 On ch=2 n=42 v=59
307201 Off ch=2 n=42 v=64
307201 Off ch=2 n=35 v=64
308160 On ch=2 n=35 v=100
308160 On ch=2 n=37 v=118
308161 Off ch=2 n=37 v=64
308161 Off ch=2 n=35 v=64
308640 On ch=2 n=50 v=116
308641 Off ch=2 n=50 v=64
308880 On ch=2 n=50 v=95
308881 Off ch=2 n=50 v=64
309120 On ch=2 n=35 v=100
309121 Off ch=2 n=35 v=64
309600 On ch=2 n=48 v=116
309601 Off ch=2 n=48 v=64
309840 On ch=2 n=48 v=95
309841 Off ch=2 n=48 v=64
310080 On ch=2 n=35 v=100
310080 On ch=2 n=37 v=118
310081 Off ch=2 n=37 v=64
310081 Off ch=2 n=35 v=64
310320 On ch=2 n=45 v=116
310321 Off ch=2 n=45 v=64
310560 On ch=2 n=43 v=126
310561 Off ch=2 n=43 v=64
310800 On ch=2 n=37 v=43
310801 Off ch=2 n=37 v=64
311040 On ch=2 n=49 v=84
311040 On ch=2 n=42 v=59
311040 On ch=2 n=35 v=100
311041 Off ch=2 n=35 v=64
311041 Off ch=2 n=42 v=64
311041 Off ch=2 n=49 v=64
311520 On ch=2 n=42 v=42
311521 Off ch=2 n=42 v=64
312000 On ch=2 n=42 v=51
312000 On ch=2 n=40 v=118
312000 On ch=2 n=35 v=100
312001 Off ch=2 n=35 v=64
312001 Off ch=2 n=40 v=64
312001 Off ch=2 n=42 v=64
312480 On ch=2 n=42 v=40
312481 Off ch=2 n=42 v=64
312960 On ch=2 n=42 v=59
312960 On ch=2 n=35 v=100
312961 Off ch=2 n=35 v=64
312961 Off ch=2 n=42 v=64
313440 On ch=2 n=42 v=40
313441 Off ch=2 n=42 v=64
313920 On ch=2 n=42 v=50
313920 On ch=2 n=35 v=100
313920 On ch=2 n=40 v=115
313921 Off ch=2 n=40 v=64
313921 Off ch=2 n=35 v=64
313921 Off ch=2 n=42 v=64
314400 On ch=2 n=42 v=42
314401 Off ch=2 n=42 v=64
314880 On ch=2 n=35 v=100
314880 On ch=2 n=46 v=60
314881 Off ch=2 n=46 v=64
314881 Off ch=2 n=35 v=64
315360 On ch=2 n=42 v=42
315361 Off ch=2 n=42 v=64
315840 On ch=2 n=42 v=51
315840 On ch=2 n=40 v=118
315840 On ch=2 n=35 v=100
315841 Off ch=2 n=35 v=64
315841 Off ch=2 n=40 v=64
315841 Off ch=2 n=42 v=64
316320 On ch=2 n=42 v=40
316321 Off ch=2 n=42 v=64
316800 On ch=2 n=42 v=59
316800 On ch=2 n=35 v=100
316801 Off ch=2 n=35 v=64
316801 Off ch=2 n=42 v=64
317280 On ch=2 n=42 v=40
317281 Off ch=2 n=42 v=64
317760 On ch=2 n=42 v=50
317760 On ch=2 n=40 v=118
317760 On ch=2 n=35 v=100
317761 Off ch=2 n=35 v=64
317761 Off ch=2 n=40 v=64
317761 Off ch=2 n=42 v=64
318240 On ch=2 n=42 v=42
318241 Off ch=2 n=42 v=64
318720 On ch=2 n=35 v=100
318720 On ch=2 n=46 v=60
318721 Off ch=2 n=46 v=64
318721 Off ch=2 n=35 v=64
319200 On ch=2 n=42 v=42
319201 Off ch=2 n=42 v=64
319680 On ch=2 n=42 v=51
319680 On ch=2 n=40 v=118
319680 On ch=2 n=35 v=100
319681 Off ch=2 n=35 v=64
319681 Off ch=2 n=40 v=64
319681 Off ch=2 n=42 v=64
320160 On ch=2 n=42 v=40
320161 Off ch=2 n=42 v=64
320640 On ch=2 n=42 v=59
320640 On ch=2 n=35 v=100
320641 Off ch=2 n=35 v=64
320641 Off ch=2 n=42 v=64
321120 On ch=2 n=42 v=40
321121 Off ch=2 n=42 v=64
321600 On ch=2 n=42 v=50
321600 On ch=2 n=40 v=118
321600 On ch=2 n=35 v=100
321601 Off ch=2 n=35 v=64
321601 Off ch=2 n=40 v=64
321601 Off ch=2 n=42 v=64
322080 On ch=2 n=42 v=42
322081 Off ch=2 n=42 v=64
322560 On ch=2 n=42 v=59
322560 On ch=2 n=35 v=100
322561 Off ch=2 n=35 v=64
322561 Off ch=2 n=42 v=64
323040 On ch=2 n=42 v=42
323041 Off ch=2 n=42 v=64
323520 On ch=2 n=42 v=51
323520 On ch=2 n=40 v=118
323520 On ch=2 n=35 v=100
323521 Off ch=2 n=35 v=64
323521 Off ch=2 n=40 v=64
323521 Off ch=2 n=42 v=64
324000 On ch=2 n=42 v=40
324001 Off ch=2 n=42 v=64
324480 On ch=2 n=42 v=39
324480 On ch=2 n=35 v=100
324481 Off ch=2 n=35 v=64
324481 Off ch=2 n=42 v=64
324720 On ch=2 n=42 v=40
324721 Off ch=2 n=42 v=64
324960 On ch=2 n=42 v=52
324961 Off ch=2 n=42 v=64
325440 On ch=2 n=46 v=68
325440 On ch=2 n=40 v=118
325440 On ch=2 n=35 v=100
325441 Off ch=2 n=35 v=64
325441 Off ch=2 n=40 v=64
325441 Off ch=2 n=46 v=64
325920 On ch=2 n=42 v=34
325920 On ch=2 n=40 v=75
325921 Off ch=2 n=40 v=64
325921 Off ch=2 n=42 v=64
326160 On ch=2 n=40 v=56
326161 Off ch=2 n=40 v=64
326400 On ch=2 n=35 v=100
326400 On ch=2 n=42 v=59
326401 Off ch=2 n=42 v=64
326401 Off ch=2 n=35 v=64
326880 On ch=2 n=42 v=42
326881 Off ch=2 n=42 v=64
327360 On ch=2 n=35 v=100
327360 On ch=2 n=40 v=118
327360 On ch=2 n=42 v=51
327361 Off ch=2 n=42 v=64
327361 Off ch=2 n=40 v=64
327361 Off ch=2 n=35 v=64
327840 On ch=2 n=42 v=40
327841 Off ch=2 n=42 v=64
328320 On ch=2 n=35 v=100
328320 On ch=2 n=42 v=59
328321 Off ch=2 n=42 v=64
328321 Off ch=2 n=35 v=64
328800 On ch=2 n=42 v=40
328801 Off ch=2 n=42 v=64
329280 On ch=2 n=35 v=100
329280 On ch=2 n=40 v=118
329280 On ch=2 n=42 v=50
329281 Off ch=2 n=42 v=64
329281 Off ch=2 n=40 v=64
329281 Off ch=2 n=35 v=64
329760 On ch=2 n=42 v=42
329761 Off ch=2 n=42 v=64
330240 On ch=2 n=35 v=100
330240 On ch=2 n=46 v=60
330241 Off ch=2 n=46 v=64
330241 Off ch=2 n=35 v=64
330720 On ch=2 n=42 v=42
330721 Off ch=2 n=42 v=64
331200 On ch=2 n=35 v=100
331200 On ch=2 n=40 v=118
331200 On ch=2 n=42 v=51
331201 Off ch=2 n=42 v=64
331201 Off ch=2 n=40 v=64
331201 Off ch=2 n=35 v=64
331680 On ch=2 n=42 v=40
331681 Off ch=2 n=42 v=64
332160 On ch=2 n=35 v=100
332160 On ch=2 n=42 v=59
332161 Off ch=2 n=42 v=64
332161 Off ch=2 n=35 v=64
332640 On ch=2 n=42 v=40
332641 Off ch=2 n=42 v=64
333120 On ch=2 n=35 v=100
333120 On ch=2 n=40 v=118
333120 On ch=2 n=42 v=50
333121 Off ch=2 n=42 v=64
333121 Off ch=2 n=40 v=64
333121 Off ch=2 n=35 v=64
333600 On ch=2 n=42 v=42
333601 Off ch=2 n=42 v=64
334080 On ch=2 n=35 v=100
334080 On ch=2 n=46 v=60
334081 Off ch=2 n=46 v=64
334081 Off ch=2 n=35 v=64
334560 On ch=2 n=42 v=42
334561 Off ch=2 n=42 v=64
335040 On ch=2 n=35 v=100
335040 On ch=2 n=40 v=118
335040 On ch=2 n=42 v=51
335041 Off ch=2 n=42 v=64
335041 Off ch=2 n=40 v=64
335041 Off ch=2 n=35 v=64
335520 On ch=2 n=42 v=40
335521 Off ch=2 n=42 v=64
336000 On ch=2 n=35 v=100
336000 On ch=2 n=42 v=59
336001 Off ch=2 n=42 v=64
336001 Off ch=2 n=35 v=64
336480 On ch=2 n=42 v=40
336481 Off ch=2 n=42 v=64
336960 On ch=2 n=35 v=100
336960 On ch=2 n=40 v=118
336960 On ch=2 n=42 v=50
336961 Off ch=2 n=42 v=64
336961 Off ch=2 n=40 v=64
336961 Off ch=2 n=35 v=64
337440 On ch=2 n=42 v=42
337441 Off ch=2 n=42 v=64
337920 On ch=2 n=35 v=100
337920 On ch=2 n=42 v=59
337921 Off ch=2 n=42 v=64
337921 Off ch=2 n=35 v=64
338400 On ch=2 n=42 v=42
338401 Off ch=2 n=42 v=64
338880 On ch=2 n=35 v=100
338880 On ch=2 n=40 v=118
338880 On ch=2 n=42 v=51
338881 Off ch=2 n=42 v=64
338881 Off ch=2 n=40 v=64
338881 Off ch=2 n=35 v=64
339360 On ch=2 n=42 v=40
339361 Off ch=2 n=42 v=64
339840 On ch=2 n=35 v=100
339840 On ch=2 n=42 v=44
339841 Off ch=2 n=42 v=64
339841 Off ch=2 n=35 v=64
340080 On ch=2 n=42 v=40
340081 Off ch=2 n=42 v=64
340320 On ch=2 n=42 v=53
340321 Off ch=2 n=42 v=64
340800 On ch=2 n=35 v=100
340800 On ch=2 n=46 v=66
340800 On ch=2 n=40 v=118
340801 Off ch=2 n=40 v=64
340801 Off ch=2 n=46 v=64
340801 Off ch=2 n=35 v=64
341280 On ch=2 n=42 v=59
341281 Off ch=2 n=42 v=64
341760 On ch=2 n=49 v=84
341760 On ch=2 n=42 v=59
341760 On ch=2 n=35 v=108
341761 Off ch=2 n=35 v=64
341761 Off ch=2 n=42 v=64
341761 Off ch=2 n=49 v=64
342240 On ch=2 n=42 v=42
342241 Off ch=2 n=42 v=64
342720 On ch=2 n=42 v=51
342720 On ch=2 n=35 v=108
342720 On ch=2 n=40 v=118
342721 Off ch=2 n=40 v=64
342721 Off ch=2 n=35 v=64
342721 Off ch=2 n=42 v=64
343200 On ch=2 n=42 v=40
343201 Off ch=2 n=42 v=64
343680 On ch=2 n=42 v=59
343680 On ch=2 n=35 v=108
343681 Off ch=2 n=35 v=64
343681 Off ch=2 n=42 v=64
344160 On ch=2 n=42 v=40
344161 Off ch=2 n=42 v=64
344640 On ch=2 n=42 v=50
344640 On ch=2 n=35 v=108
344640 On ch=2 n=40 v=118
344641 Off ch=2 n=40 v=64
344641 Off ch=2 n=35 v=64
344641 Off ch=2 n=42 v=64
345120 On ch=2 n=46 v=42
345121 Off ch=2 n=46 v=64
345600 On ch=2 n=42 v=59
345600 On ch=2 n=35 v=108
345601 Off ch=2 n=35 v=64
345601 Off ch=2 n=42 v=64
346080 On ch=2 n=42 v=42
346081 Off ch=2 n=42 v=64
346560 On ch=2 n=42 v=51
346560 On ch=2 n=35 v=108
346560 On ch=2 n=40 v=118
346561 Off ch=2 n=40 v=64
346561 Off ch=2 n=35 v=64
346561 Off ch=2 n=42 v=64
347040 On ch=2 n=42 v=40
347041 Off ch=2 n=42 v=64
347520 On ch=2 n=42 v=59
347520 On ch=2 n=35 v=108
347521 Off ch=2 n=35 v=64
347521 Off ch=2 n=42 v=64
348000 On ch=2 n=42 v=40
348001 Off ch=2 n=42 v=64
348480 On ch=2 n=42 v=50
348480 On ch=2 n=35 v=108
348480 On ch=2 n=40 v=118
348481 Off ch=2 n=40 v=64
348481 Off ch=2 n=35 v=64
348481 Off ch=2 n=42 v=64
348960 On ch=2 n=46 v=42
348961 Off ch=2 n=46 v=64
349440 On ch=2 n=42 v=59
349440 On ch=2 n=35 v=108
349441 Off ch=2 n=35 v=64
349441 Off ch=2 n=42 v=64
349920 On ch=2 n=42 v=42
349921 Off ch=2 n=42 v=64
350400 On ch=2 n=42 v=51
350400 On ch=2 n=35 v=108
350400 On ch=2 n=40 v=118
350401 Off ch=2 n=40 v=64
350401 Off ch=2 n=35 v=64
350401 Off ch=2 n=42 v=64
350880 On ch=2 n=42 v=40
350881 Off ch=2 n=42 v=64
351360 On ch=2 n=42 v=59
351360 On ch=2 n=35 v=108
351361 Off ch=2 n=35 v=64
351361 Off ch=2 n=42 v=64
351840 On ch=2 n=42 v=40
351841 Off ch=2 n=42 v=64
352320 On ch=2 n=42 v=50
352320 On ch=2 n=35 v=108
352320 On ch=2 n=40 v=118
352321 Off ch=2 n=40 v=64
352321 Off ch=2 n=35 v=64
352321 Off ch=2 n=42 v=64
352800 On ch=2 n=46 v=42
352801 Off ch=2 n=46 v=64
353280 On ch=2 n=42 v=59
353280 On ch=2 n=35 v=108
353281 Off ch=2 n=35 v=64
353281 Off ch=2 n=42 v=64
353760 On ch=2 n=42 v=42
353761 Off ch=2 n=42 v=64
354240 On ch=2 n=42 v=51
354240 On ch=2 n=35 v=108
354240 On ch=2 n=40 v=118
354241 Off ch=2 n=40 v=64
354241 Off ch=2 n=35 v=64
354241 Off ch=2 n=42 v=64
354720 On ch=2 n=42 v=40
354721 Off ch=2 n=42 v=64
355200 On ch=2 n=35 v=108
355200 On ch=2 n=42 v=39
355201 Off ch=2 n=42 v=64
355201 Off ch=2 n=35 v=64
355440 On ch=2 n=42 v=40
355441 Off ch=2 n=42 v=64
355680 On ch=2 n=42 v=52
355681 Off ch=2 n=42 v=64
356160 On ch=2 n=35 v=108
356160 On ch=2 n=40 v=118
356160 On ch=2 n=46 v=68
356161 Off ch=2 n=46 v=64
356161 Off ch=2 n=40 v=64
356161 Off ch=2 n=35 v=64
356640 On ch=2 n=42 v=34
356641 Off ch=2 n=42 v=64
356880 On ch=2 n=42 v=34
356881 Off ch=2 n=42 v=64
357120 On ch=2 n=35 v=108
357120 On ch=2 n=42 v=59
357121 Off ch=2 n=42 v=64
357121 Off ch=2 n=35 v=64
357600 On ch=2 n=42 v=42
357601 Off ch=2 n=42 v=64
358080 On ch=2 n=35 v=108
358080 On ch=2 n=42 v=51
358080 On ch=2 n=40 v=118
358081 Off ch=2 n=40 v=64
358081 Off ch=2 n=42 v=64
358081 Off ch=2 n=35 v=64
358560 On ch=2 n=42 v=40
358561 Off ch=2 n=42 v=64
359040 On ch=2 n=35 v=108
359040 On ch=2 n=42 v=59
359041 Off ch=2 n=42 v=64
359041 Off ch=2 n=35 v=64
359520 On ch=2 n=42 v=40
359521 Off ch=2 n=42 v=64
360000 On ch=2 n=35 v=108
360000 On ch=2 n=42 v=50
360000 On ch=2 n=40 v=118
360001 Off ch=2 n=40 v=64
360001 Off ch=2 n=42 v=64
360001 Off ch=2 n=35 v=64
360480 On ch=2 n=46 v=42
360481 Off ch=2 n=46 v=64
360960 On ch=2 n=35 v=108
360960 On ch=2 n=42 v=59
360961 Off ch=2 n=42 v=64
360961 Off ch=2 n=35 v=64
361440 On ch=2 n=42 v=42
361441 Off ch=2 n=42 v=64
361920 On ch=2 n=35 v=108
361920 On ch=2 n=42 v=51
361920 On ch=2 n=40 v=118
361921 Off ch=2 n=40 v=64
361921 Off ch=2 n=42 v=64
361921 Off ch=2 n=35 v=64
362400 On ch=2 n=42 v=40
362401 Off ch=2 n=42 v=64
362880 On ch=2 n=35 v=108
362880 On ch=2 n=42 v=59
362881 Off ch=2 n=42 v=64
362881 Off ch=2 n=35 v=64
363360 On ch=2 n=42 v=40
363361 Off ch=2 n=42 v=64
363840 On ch=2 n=35 v=108
363840 On ch=2 n=42 v=50
363840 On ch=2 n=40 v=118
363841 Off ch=2 n=40 v=64
363841 Off ch=2 n=42 v=64
363841 Off ch=2 n=35 v=64
364320 On ch=2 n=46 v=42
364321 Off ch=2 n=46 v=64
364800 On ch=2 n=35 v=108
364800 On ch=2 n=42 v=59
364801 Off ch=2 n=42 v=64
364801 Off ch=2 n=35 v=64
365280 On ch=2 n=42 v=42
365281 Off ch=2 n=42 v=64
365760 On ch=2 n=35 v=108
365760 On ch=2 n=42 v=51
365760 On ch=2 n=40 v=118
365761 Off ch=2 n=40 v=64
365761 Off ch=2 n=42 v=64
365761 Off ch=2 n=35 v=64
366240 On ch=2 n=42 v=40
366241 Off ch=2 n=42 v=64
366720 On ch=2 n=35 v=108
366720 On ch=2 n=42 v=59
366721 Off ch=2 n=42 v=64
366721 Off ch=2 n=35 v=64
367200 On ch=2 n=42 v=40
367201 Off ch=2 n=42 v=64
367680 On ch=2 n=35 v=108
367680 On ch=2 n=42 v=50
367680 On ch=2 n=40 v=118
367681 Off ch=2 n=40 v=64
367681 Off ch=2 n=42 v=64
367681 Off ch=2 n=35 v=64
368160 On ch=2 n=46 v=42
368161 Off ch=2 n=46 v=64
368640 On ch=2 n=35 v=108
368640 On ch=2 n=42 v=59
368641 Off ch=2 n=42 v=64
368641 Off ch=2 n=35 v=64
369120 On ch=2 n=42 v=42
369121 Off ch=2 n=42 v=64
369600 On ch=2 n=35 v=108
369600 On ch=2 n=42 v=51
369600 On ch=2 n=40 v=118
369601 Off ch=2 n=40 v=64
369601 Off ch=2 n=42 v=64
369601 Off ch=2 n=35 v=64
369840 On ch=2 n=50 v=88
369841 Off ch=2 n=50 v=64
370080 On ch=2 n=48 v=106
370081 Off ch=2 n=48 v=64
370320 On ch=2 n=45 v=108
370321 Off ch=2 n=45 v=64
370560 On ch=2 n=35 v=127
370560 On ch=2 n=43 v=118
370561 Off ch=2 n=43 v=64
370561 Off ch=2 n=35 v=64
403200 On ch=2 n=35 v=82
403201 Off ch=2 n=35 v=64
404160 On ch=2 n=35 v=82
404161 Off ch=2 n=35 v=64
405120 On ch=2 n=35 v=82
405121 Off ch=2 n=35 v=64
406080 On ch=2 n=35 v=82
406081 Off ch=2 n=35 v=64
407040 On ch=2 n=35 v=82
407041 Off ch=2 n=35 v=64
408000 On ch=2 n=35 v=82
408001 Off ch=2 n=35 v=64
408960 On ch=2 n=35 v=82
408961 Off ch=2 n=35 v=64
409920 On ch=2 n=35 v=82
409921 Off ch=2 n=35 v=64
410880 On ch=2 n=35 v=82
410881 Off ch=2 n=35 v=64
411840 On ch=2 n=35 v=82
411841 Off ch=2 n=35 v=64
412800 On ch=2 n=35 v=82
412801 Off ch=2 n=35 v=64
413760 On ch=2 n=35 v=82
413761 Off ch=2 n=35 v=64
414720 On ch=2 n=35 v=82
414721 Off ch=2 n=35 v=64
415680 On ch=2 n=35 v=82
415681 Off ch=2 n=35 v=64
416640 On ch=2 n=35 v=82
416641 Off ch=2 n=35 v=64
417600 On ch=2 n=35 v=82
417601 Off ch=2 n=35 v=64
418560 On ch=2 n=35 v=100
418560 On ch=2 n=42 v=54
418561 Off ch=2 n=42 v=64
418561 Off ch=2 n=35 v=64
419040 On ch=2 n=42 v=37
419041 Off ch=2 n=42 v=64
419520 On ch=2 n=35 v=100
419520 On ch=2 n=37 v=94
419520 On ch=2 n=42 v=46
419521 Off ch=2 n=42 v=64
419521 Off ch=2 n=37 v=64
419521 Off ch=2 n=35 v=64
420000 On ch=2 n=42 v=35
420001 Off ch=2 n=42 v=64
420480 On ch=2 n=35 v=100
420480 On ch=2 n=42 v=54
420481 Off ch=2 n=42 v=64
420481 Off ch=2 n=35 v=64
420960 On ch=2 n=42 v=35
420961 Off ch=2 n=42 v=64
421440 On ch=2 n=35 v=100
421440 On ch=2 n=37 v=94
421440 On ch=2 n=42 v=45
421441 Off ch=2 n=42 v=64
421441 Off ch=2 n=37 v=64
421441 Off ch=2 n=35 v=64
421920 On ch=2 n=42 v=37
421921 Off ch=2 n=42 v=64
422400 On ch=2 n=35 v=100
422400 On ch=2 n=42 v=54
422401 Off ch=2 n=42 v=64
422401 Off ch=2 n=35 v=64
422880 On ch=2 n=42 v=37
422881 Off ch=2 n=42 v=64
423360 On ch=2 n=35 v=100
423360 On ch=2 n=37 v=94
423360 On ch=2 n=42 v=46
423361 Off ch=2 n=42 v=64
423361 Off ch=2 n=37 v=64
423361 Off ch=2 n=35 v=64
423840 On ch=2 n=42 v=35
423841 Off ch=2 n=42 v=64
424320 On ch=2 n=35 v=100
424320 On ch=2 n=42 v=54
424321 Off ch=2 n=42 v=64
424321 Off ch=2 n=35 v=64
424800 On ch=2 n=42 v=35
424801 Off ch=2 n=42 v=64
425280 On ch=2 n=35 v=100
425280 On ch=2 n=37 v=94
425280 On ch=2 n=42 v=45
425281 Off ch=2 n=42 v=64
425281 Off ch=2 n=37 v=64
425281 Off ch=2 n=35 v=64
425760 On ch=2 n=42 v=37
425761 Off ch=2 n=42 v=64
426240 On ch=2 n=35 v=100
426240 On ch=2 n=42 v=54
426241 Off ch=2 n=42 v=64
426241 Off ch=2 n=35 v=64
426720 On ch=2 n=42 v=37
426721 Off ch=2 n=42 v=64
427200 On ch=2 n=35 v=100
427200 On ch=2 n=37 v=94
427200 On ch=2 n=42 v=46
427201 Off ch=2 n=42 v=64
427201 Off ch=2 n=37 v=64
427201 Off ch=2 n=35 v=64
427680 On ch=2 n=42 v=35
427681 Off ch=2 n=42 v=64
428160 On ch=2 n=35 v=100
428160 On ch=2 n=42 v=54
428161 Off ch=2 n=42 v=64
428161 Off ch=2 n=35 v=64
428640 On ch=2 n=42 v=35
428641 Off ch=2 n=42 v=64
429120 On ch=2 n=35 v=100
429120 On ch=2 n=37 v=94
429120 On ch=2 n=42 v=45
429121 Off ch=2 n=42 v=64
429121 Off ch=2 n=37 v=64
429121 Off ch=2 n=35 v=64
429600 On ch=2 n=42 v=37
429601 Off ch=2 n=42 v=64
430080 On ch=2 n=35 v=100
430080 On ch=2 n=42 v=54
430081 Off ch=2 n=42 v=64
430081 Off ch=2 n=35 v=64
430560 On ch=2 n=42 v=37
430561 Off ch=2 n=42 v=64
431040 On ch=2 n=35 v=100
431040 On ch=2 n=37 v=94
431040 On ch=2 n=46 v=67
431041 Off ch=2 n=46 v=64
431041 Off ch=2 n=37 v=64
431041 Off ch=2 n=35 v=64
431520 On ch=2 n=50 v=116
431521 Off ch=2 n=50 v=64
431760 On ch=2 n=50 v=95
431761 Off ch=2 n=50 v=64
432000 On ch=2 n=35 v=100
432001 Off ch=2 n=35 v=64
432480 On ch=2 n=48 v=116
432481 Off ch=2 n=48 v=64
432720 On ch=2 n=48 v=95
432721 Off ch=2 n=48 v=64
432960 On ch=2 n=35 v=100
432960 On ch=2 n=37 v=94
432961 Off ch=2 n=37 v=64
432961 Off ch=2 n=35 v=64
433200 On ch=2 n=45 v=116
433201 Off ch=2 n=45 v=64
433440 On ch=2 n=43 v=126
433441 Off ch=2 n=43 v=64
433920 On ch=2 n=35 v=108
433920 On ch=2 n=42 v=54
433920 On ch=2 n=49 v=84
433921 Off ch=2 n=49 v=64
433921 Off ch=2 n=42 v=64
433921 Off ch=2 n=35 v=64
434400 On ch=2 n=42 v=37
434401 Off ch=2 n=42 v=64
434880 On ch=2 n=35 v=108
434880 On ch=2 n=37 v=122
434880 On ch=2 n=42 v=46
434881 Off ch=2 n=42 v=64
434881 Off ch=2 n=37 v=64
434881 Off ch=2 n=35 v=64
435360 On ch=2 n=42 v=35
435361 Off ch=2 n=42 v=64
435840 On ch=2 n=35 v=108
435840 On ch=2 n=42 v=54
435841 Off ch=2 n=42 v=64
435841 Off ch=2 n=35 v=64
436320 On ch=2 n=42 v=35
436321 Off ch=2 n=42 v=64
436800 On ch=2 n=35 v=108
436800 On ch=2 n=37 v=122
436800 On ch=2 n=42 v=45
436801 Off ch=2 n=42 v=64
436801 Off ch=2 n=37 v=64
436801 Off ch=2 n=35 v=64
437280 On ch=2 n=42 v=37
437281 Off ch=2 n=42 v=64
437760 On ch=2 n=35 v=108
437760 On ch=2 n=42 v=54
437760 On ch=2 n=49 v=69
437761 Off ch=2 n=49 v=64
437761 Off ch=2 n=42 v=64
437761 Off ch=2 n=35 v=64
438240 On ch=2 n=42 v=37
438241 Off ch=2 n=42 v=64
438720 On ch=2 n=35 v=108
438720 On ch=2 n=37 v=122
438720 On ch=2 n=42 v=46
438721 Off ch=2 n=42 v=64
438721 Off ch=2 n=37 v=64
438721 Off ch=2 n=35 v=64
439200 On ch=2 n=42 v=35
439201 Off ch=2 n=42 v=64
439680 On ch=2 n=35 v=108
439680 On ch=2 n=42 v=54
439681 Off ch=2 n=42 v=64
439681 Off ch=2 n=35 v=64
440160 On ch=2 n=42 v=35
440161 Off ch=2 n=42 v=64
440640 On ch=2 n=35 v=108
440640 On ch=2 n=37 v=122
440640 On ch=2 n=42 v=45
440641 Off ch=2 n=42 v=64
440641 Off ch=2 n=37 v=64
440641 Off ch=2 n=35 v=64
441120 On ch=2 n=46 v=56
441121 Off ch=2 n=46 v=64
441600 On ch=2 n=35 v=108
441600 On ch=2 n=42 v=54
441600 On ch=2 n=49 v=69
441601 Off ch=2 n=49 v=64
441601 Off ch=2 n=42 v=64
441601 Off ch=2 n=35 v=64
442080 On ch=2 n=42 v=37
442081 Off ch=2 n=42 v=64
442560 On ch=2 n=35 v=108
442560 On ch=2 n=37 v=122
442560 On ch=2 n=42 v=46
442561 Off ch=2 n=42 v=64
442561 Off ch=2 n=37 v=64
442561 Off ch=2 n=35 v=64
443040 On ch=2 n=42 v=35
443041 Off ch=2 n=42 v=64
443520 On ch=2 n=35 v=108
443520 On ch=2 n=42 v=54
443521 Off ch=2 n=42 v=64
443521 Off ch=2 n=35 v=64
444000 On ch=2 n=42 v=35
444001 Off ch=2 n=42 v=64
444480 On ch=2 n=35 v=108
444480 On ch=2 n=37 v=122
444480 On ch=2 n=42 v=45
444481 Off ch=2 n=42 v=64
444481 Off ch=2 n=37 v=64
444481 Off ch=2 n=35 v=64
444960 On ch=2 n=42 v=37
444961 Off ch=2 n=42 v=64
445440 On ch=2 n=35 v=108
445440 On ch=2 n=42 v=54
445441 Off ch=2 n=42 v=64
445441 Off ch=2 n=35 v=64
445920 On ch=2 n=42 v=37
445921 Off ch=2 n=42 v=64
446400 On ch=2 n=35 v=108
446400 On ch=2 n=37 v=122
446400 On ch=2 n=42 v=46
446401 Off ch=2 n=42 v=64
446401 Off ch=2 n=37 v=64
446401 Off ch=2 n=35 v=64
446880 On ch=2 n=42 v=35
446881 Off ch=2 n=42 v=64
447360 On ch=2 n=35 v=108
447360 On ch=2 n=42 v=54
447361 Off ch=2 n=42 v=64
447361 Off ch=2 n=35 v=64
447840 On ch=2 n=42 v=35
447841 Off ch=2 n=42 v=64
448320 On ch=2 n=35 v=108
448320 On ch=2 n=37 v=122
448320 On ch=2 n=42 v=45
448321 Off ch=2 n=42 v=64
448321 Off ch=2 n=37 v=64
448321 Off ch=2 n=35 v=64
448800 On ch=2 n=46 v=88
448801 Off ch=2 n=46 v=64
449280 On ch=2 n=49 v=84
449280 On ch=2 n=42 v=54
449280 On ch=2 n=35 v=108
449281 Off ch=2 n=35 v=64
449281 Off ch=2 n=42 v=64
449281 Off ch=2 n=49 v=64
449760 On ch=2 n=42 v=37
449761 Off ch=2 n=42 v=64
450240 On ch=2 n=42 v=46
450240 On ch=2 n=37 v=122
450240 On ch=2 n=35 v=108
450241 Off ch=2 n=35 v=64
450241 Off ch=2 n=37 v=64
450241 Off ch=2 n=42 v=64
450720 On ch=2 n=42 v=35
450721 Off ch=2 n=42 v=64
451200 On ch=2 n=42 v=54
451200 On ch=2 n=35 v=108
451201 Off ch=2 n=35 v=64
451201 Off ch=2 n=42 v=64
451680 On ch=2 n=42 v=35
451681 Off ch=2 n=42 v=64
452160 On ch=2 n=42 v=45
452160 On ch=2 n=37 v=122
452160 On ch=2 n=35 v=108
452161 Off ch=2 n=35 v=64
452161 Off ch=2 n=37 v=64
452161 Off ch=2 n=42 v=64
452640 On ch=2 n=42 v=37
452641 Off ch=2 n=42 v=64
453120 On ch=2 n=42 v=54
453120 On ch=2 n=35 v=108
453120 On ch=2 n=49 v=66
453121 Off ch=2 n=49 v=64
453121 Off ch=2 n=35 v=64
453121 Off ch=2 n=42 v=64
453600 On ch=2 n=42 v=37
453601 Off ch=2 n=42 v=64
454080 On ch=2 n=42 v=46
454080 On ch=2 n=37 v=122
454080 On ch=2 n=35 v=108
454081 Off ch=2 n=35 v=64
454081 Off ch=2 n=37 v=64
454081 Off ch=2 n=42 v=64
454560 On ch=2 n=42 v=35
454561 Off ch=2 n=42 v=64
455040 On ch=2 n=42 v=54
455040 On ch=2 n=35 v=108
455041 Off ch=2 n=35 v=64
455041 Off ch=2 n=42 v=64
455520 On ch=2 n=42 v=35
455521 Off ch=2 n=42 v=64
456000 On ch=2 n=42 v=45
456000 On ch=2 n=37 v=122
456000 On ch=2 n=35 v=108
456001 Off ch=2 n=35 v=64
456001 Off ch=2 n=37 v=64
456001 Off ch=2 n=42 v=64
456480 On ch=2 n=46 v=60
456481 Off ch=2 n=46 v=64
456960 On ch=2 n=42 v=54
456960 On ch=2 n=35 v=108
456960 On ch=2 n=49 v=66
456961 Off ch=2 n=49 v=64
456961 Off ch=2 n=35 v=64
456961 Off ch=2 n=42 v=64
457440 On ch=2 n=42 v=37
457441 Off ch=2 n=42 v=64
457920 On ch=2 n=42 v=46
457920 On ch=2 n=37 v=122
457920 On ch=2 n=35 v=108
457921 Off ch=2 n=35 v=64
457921 Off ch=2 n=37 v=64
457921 Off ch=2 n=42 v=64
458400 On ch=2 n=42 v=35
458401 Off ch=2 n=42 v=64
458880 On ch=2 n=42 v=54
458880 On ch=2 n=35 v=108
458881 Off ch=2 n=35 v=64
458881 Off ch=2 n=42 v=64
459360 On ch=2 n=42 v=35
459361 Off ch=2 n=42 v=64
459840 On ch=2 n=42 v=45
459840 On ch=2 n=37 v=122
459840 On ch=2 n=35 v=108
459841 Off ch=2 n=35 v=64
459841 Off ch=2 n=37 v=64
459841 Off ch=2 n=42 v=64
460320 On ch=2 n=42 v=37
460321 Off ch=2 n=42 v=64
460800 On ch=2 n=42 v=54
460800 On ch=2 n=35 v=108
460801 Off ch=2 n=35 v=64
460801 Off ch=2 n=42 v=64
461280 On ch=2 n=42 v=37
461281 Off ch=2 n=42 v=64
461760 On ch=2 n=42 v=46
461760 On ch=2 n=37 v=115
461760 On ch=2 n=35 v=108
461761 Off ch=2 n=35 v=64
461761 Off ch=2 n=37 v=64
461761 Off ch=2 n=42 v=64
462000 On ch=2 n=37 v=58
462001 Off ch=2 n=37 v=64
462240 On ch=2 n=37 v=86
462241 Off ch=2 n=37 v=64
462480 On ch=2 n=37 v=80
462481 Off ch=2 n=37 v=64
462720 On ch=2 n=35 v=127
462720 On ch=2 n=37 v=122
462721 Off ch=2 n=37 v=64
462721 Off ch=2 n=35 v=64
462721 Meta TrkEnd
TrkEnd
MTrk
0 SeqSpec 43 00 01 ff
0 Meta TrkName "Cymbal(r)"
1920 PrCh ch=3 p=8
1930 Par ch=3 c=7 v=100
1940 Par ch=3 c=10 v=64
1950 Par ch=3 c=11 v=127
1960 Par ch=3 c=20 v=127
1970 Par ch=3 c=91 v=0
1980 Par ch=3 c=93 v=0
1990 Par ch=3 c=94 v=0
2000 Par ch=3 c=101 v=0
2010 Par ch=3 c=100 v=0
2020 Par ch=3 c=6 v=2
2030 Par ch=3 c=101 v=127
2040 Par ch=3 c=100 v=127
122880 On ch=3 n=66 v=88
122880 Par ch=3 c=11 v=54
123300 Par ch=3 c=11 v=55
123450 Par ch=3 c=11 v=56
123570 Par ch=3 c=11 v=57
123690 Par ch=3 c=11 v=58
123780 Par ch=3 c=11 v=59
123870 Par ch=3 c=11 v=60
123930 Par ch=3 c=11 v=61
124020 Par ch=3 c=11 v=62
124080 Par ch=3 c=11 v=63
124140 Par ch=3 c=11 v=64
124200 Par ch=3 c=11 v=65
124260 Par ch=3 c=11 v=66
124320 Par ch=3 c=11 v=67
124380 Par ch=3 c=11 v=68
124410 Par ch=3 c=11 v=69
124470 Par ch=3 c=11 v=70
124530 Par ch=3 c=11 v=71
124560 Par ch=3 c=11 v=72
124620 Par ch=3 c=11 v=73
124650 Par ch=3 c=11 v=74
124710 Par ch=3 c=11 v=75
124740 Par ch=3 c=11 v=76
124800 Par ch=3 c=11 v=77
124830 Par ch=3 c=11 v=78
124860 Par ch=3 c=11 v=79
124920 Par ch=3 c=11 v=80
124950 Par ch=3 c=11 v=81
124980 Par ch=3 c=11 v=82
125010 Par ch=3 c=11 v=83
125070 Par ch=3 c=11 v=84
125100 Par ch=3 c=11 v=85
125130 Par ch=3 c=11 v=86
125160 Par ch=3 c=11 v=87
125190 Par ch=3 c=11 v=88
125220 Par ch=3 c=11 v=89
125250 Par ch=3 c=11 v=90
125310 Par ch=3 c=11 v=91
125340 Par ch=3 c=11 v=92
125370 Par ch=3 c=11 v=93
125400 Par ch=3 c=11 v=94
125430 Par ch=3 c=11 v=95
125460 Par ch=3 c=11 v=96
125490 Par ch=3 c=11 v=97
125520 Par ch=3 c=11 v=98
125550 Par ch=3 c=11 v=99
125580 Par ch=3 c=11 v=100
125610 Par ch=3 c=11 v=101
125640 Par ch=3 c=11 v=102
125670 Par ch=3 c=11 v=103
125700 Par ch=3 c=11 v=105
125730 Par ch=3 c=11 v=106
125760 Par ch=3 c=11 v=107
125790 Par ch=3 c=11 v=108
125820 Par ch=3 c=11 v=109
125850 Par ch=3 c=11 v=110
125880 Par ch=3 c=11 v=111
125910 Par ch=3 c=11 v=112
125940 Par ch=3 c=11 v=114
125970 Par ch=3 c=11 v=115
126000 Par ch=3 c=11 v=116
126030 Par ch=3 c=11 v=117
126060 Par ch=3 c=11 v=118
126090 Par ch=3 c=11 v=120
126112 Par ch=3 c=11 v=121
126720 Off ch=3 n=66 v=64
245760 On ch=3 n=66 v=88
245760 Par ch=3 c=11 v=49
246180 Par ch=3 c=11 v=50
246360 Par ch=3 c=11 v=51
246480 Par ch=3 c=11 v=52
246600 Par ch=3 c=11 v=53
246690 Par ch=3 c=11 v=54
246780 Par ch=3 c=11 v=55
246840 Par ch=3 c=11 v=56
246930 Par ch=3 c=11 v=57
246990 Par ch=3 c=11 v=58
247050 Par ch=3 c=11 v=59
247110 Par ch=3 c=11 v=60
247170 Par ch=3 c=11 v=61
247230 Par ch=3 c=11 v=62
247290 Par ch=3 c=11 v=63
247350 Par ch=3 c=11 v=64
247410 Par ch=3 c=11 v=65
247440 Par ch=3 c=11 v=66
247500 Par ch=3 c=11 v=67
247530 Par ch=3 c=11 v=68
247590 Par ch=3 c=11 v=69
247620 Par ch=3 c=11 v=70
247680 Par ch=3 c=11 v=71
247710 Par ch=3 c=11 v=72
247770 Par ch=3 c=11 v=73
247800 Par ch=3 c=11 v=74
247830 Par ch=3 c=11 v=75
247890 Par ch=3 c=11 v=76
247920 Par ch=3 c=11 v=77
247950 Par ch=3 c=11 v=78
248010 Par ch=3 c=11 v=79
248040 Par ch=3 c=11 v=80
248070 Par ch=3 c=11 v=81
248100 Par ch=3 c=11 v=82
248130 Par ch=3 c=11 v=83
248190 Par ch=3 c=11 v=84
248220 Par ch=3 c=11 v=85
248250 Par ch=3 c=11 v=86
248280 Par ch=3 c=11 v=87
248310 Par ch=3 c=11 v=88
248340 Par ch=3 c=11 v=89
248370 Par ch=3 c=11 v=90
248400 Par ch=3 c=11 v=91
248430 Par ch=3 c=11 v=92
248460 Par ch=3 c=11 v=93
248490 Par ch=3 c=11 v=94
248520 Par ch=3 c=11 v=95
248550 Par ch=3 c=11 v=96
248580 Par ch=3 c=11 v=97
248610 Par ch=3 c=11 v=98
248640 Par ch=3 c=11 v=99
248670 Par ch=3 c=11 v=100
248700 Par ch=3 c=11 v=101
248730 Par ch=3 c=11 v=102
248760 Par ch=3 c=11 v=103
248790 Par ch=3 c=11 v=104
248820 Par ch=3 c=11 v=105
248850 Par ch=3 c=11 v=106
248880 Par ch=3 c=11 v=108
248910 Par ch=3 c=11 v=109
248940 Par ch=3 c=11 v=110
248970 Par ch=3 c=11 v=111
249000 Par ch=3 c=11 v=112
249030 Par ch=3 c=11 v=113
249060 Par ch=3 c=11 v=115
249090 Par ch=3 c=11 v=116
249120 Par ch=3 c=11 v=117
249150 Par ch=3 c=11 v=118
249180 Par ch=3 c=11 v=120
249210 Par ch=3 c=11 v=121
249240 Par ch=3 c=11 v=122
249270 Par ch=3 c=11 v=123
249300 Par ch=3 c=11 v=125
249330 Par ch=3 c=11 v=126
249344 Par ch=3 c=11 v=127
249472 Off ch=3 n=66 v=64
307200 On ch=3 n=66 v=88
307200 Par ch=3 c=11 v=42
307590 Par ch=3 c=11 v=43
307740 Par ch=3 c=11 v=44
307860 Par ch=3 c=11 v=45
307950 Par ch=3 c=11 v=46
308040 Par ch=3 c=11 v=47
308130 Par ch=3 c=11 v=48
308220 Par ch=3 c=11 v=49
308280 Par ch=3 c=11 v=50
308340 Par ch=3 c=11 v=51
308400 Par ch=3 c=11 v=52
308460 Par ch=3 c=11 v=53
308520 Par ch=3 c=11 v=54
308580 Par ch=3 c=11 v=55
308610 Par ch=3 c=11 v=56
308670 Par ch=3 c=11 v=57
308700 Par ch=3 c=11 v=58
308760 Par ch=3 c=11 v=59
308820 Par ch=3 c=11 v=60
308850 Par ch=3 c=11 v=61
308880 Par ch=3 c=11 v=62
308940 Par ch=3 c=11 v=63
308970 Par ch=3 c=11 v=64
309000 Par ch=3 c=11 v=65
309060 Par ch=3 c=11 v=66
309090 Par ch=3 c=11 v=67
309120 Par ch=3 c=11 v=68
309150 Par ch=3 c=11 v=69
309210 Par ch=3 c=11 v=70
309240 Par ch=3 c=11 v=71
309270 Par ch=3 c=11 v=72
309300 Par ch=3 c=11 v=73
309330 Par ch=3 c=11 v=74
309360 Par ch=3 c=11 v=75
309390 Par ch=3 c=11 v=76
309420 Par ch=3 c=11 v=77
309450 Par ch=3 c=11 v=78
309510 Par ch=3 c=11 v=79
309540 Par ch=3 c=11 v=80
309570 Par ch=3 c=11 v=81
309600 Par ch=3 c=11 v=82
309630 Par ch=3 c=11 v=84
309660 Par ch=3 c=11 v=85
309690 Par ch=3 c=11 v=86
309720 Par ch=3 c=11 v=87
309750 Par ch=3 c=11 v=88
309780 Par ch=3 c=11 v=89
309810 Par ch=3 c=11 v=90
309840 Par ch=3 c=11 v=91
309870 Par ch=3 c=11 v=92
309900 Par ch=3 c=11 v=93
309930 Par ch=3 c=11 v=95
309960 Par ch=3 c=11 v=96
309990 Par ch=3 c=11 v=97
310020 Par ch=3 c=11 v=98
310050 Par ch=3 c=11 v=99
310080 Par ch=3 c=11 v=101
310110 Par ch=3 c=11 v=102
310140 Par ch=3 c=11 v=103
310170 Par ch=3 c=11 v=104
310200 Par ch=3 c=11 v=106
310230 Par ch=3 c=11 v=107
310260 Par ch=3 c=11 v=108
310290 Par ch=3 c=11 v=109
310320 Par ch=3 c=11 v=111
310350 Par ch=3 c=11 v=112
310380 Par ch=3 c=11 v=113
310410 Par ch=3 c=11 v=115
310440 Par ch=3 c=11 v=116
310470 Par ch=3 c=11 v=118
310500 Par ch=3 c=11 v=119
310530 Par ch=3 c=11 v=120
310560 Par ch=3 c=11 v=122
310590 Par ch=3 c=11 v=123
310620 Par ch=3 c=11 v=125
310650 Par ch=3 c=11 v=126
310656 Par ch=3 c=11 v=127
311040 Off ch=3 n=66 v=64
426240 On ch=3 n=67 v=88
426240 Par ch=3 c=11 v=17
426990 Par ch=3 c=11 v=18
427290 Par ch=3 c=11 v=19
427500 Par ch=3 c=11 v=20
427710 Par ch=3 c=11 v=21
427860 Par ch=3 c=11 v=22
428040 Par ch=3 c=11 v=23
428160 Par ch=3 c=11 v=24
428310 Par ch=3 c=11 v=25
428430 Par ch=3 c=11 v=26
428550 Par ch=3 c=11 v=27
428640 Par ch=3 c=11 v=28
428760 Par ch=3 c=11 v=29
428850 Par ch=3 c=11 v=30
428970 Par ch=3 c=11 v=31
429060 Par ch=3 c=11 v=32
429150 Par ch=3 c=11 v=33
429240 Par ch=3 c=11 v=34
429330 Par ch=3 c=11 v=35
429420 Par ch=3 c=11 v=36
429480 Par ch=3 c=11 v=37
429570 Par ch=3 c=11 v=38
429660 Par ch=3 c=11 v=39
429720 Par ch=3 c=11 v=40
429810 Par ch=3 c=11 v=41
429870 Par ch=3 c=11 v=42
429930 Par ch=3 c=11 v=43
430020 Par ch=3 c=11 v=44
430080 Par ch=3 c=11 v=45
430140 Par ch=3 c=11 v=46
430230 Par ch=3 c=11 v=47
430290 Par ch=3 c=11 v=48
430350 Par ch=3 c=11 v=49
430410 Par ch=3 c=11 v=50
430470 Par ch=3 c=11 v=51
430530 Par ch=3 c=11 v=52
430590 Par ch=3 c=11 v=53
430650 Par ch=3 c=11 v=54
430710 Par ch=3 c=11 v=55
430770 Par ch=3 c=11 v=56
430830 Par ch=3 c=11 v=57
430890 Par ch=3 c=11 v=58
430950 Par ch=3 c=11 v=59
431010 Par ch=3 c=11 v=60
431040 Par ch=3 c=11 v=61
431100 Par ch=3 c=11 v=62
431160 Par ch=3 c=11 v=63
431220 Par ch=3 c=11 v=64
431250 Par ch=3 c=11 v=65
431310 Par ch=3 c=11 v=66
431370 Par ch=3 c=11 v=67
431430 Par ch=3 c=11 v=68
431460 Par ch=3 c=11 v=69
431520 Par ch=3 c=11 v=70
431580 Par ch=3 c=11 v=71
431610 Par ch=3 c=11 v=72
431670 Par ch=3 c=11 v=73
431700 Par ch=3 c=11 v=74
431760 Par ch=3 c=11 v=75
431820 Par ch=3 c=11 v=76
431850 Par ch=3 c=11 v=77
431910 Par ch=3 c=11 v=78
431940 Par ch=3 c=11 v=79
432000 Par ch=3 c=11 v=80
432030 Par ch=3 c=11 v=81
432090 Par ch=3 c=11 v=82
432120 Par ch=3 c=11 v=83
432180 Par ch=3 c=11 v=84
432210 Par ch=3 c=11 v=85
432270 Par ch=3 c=11 v=86
432300 Par ch=3 c=11 v=87
432360 Par ch=3 c=11 v=88
432390 Par ch=3 c=11 v=89
432420 Par ch=3 c=11 v=90
432480 Par ch=3 c=11 v=91
432510 Par ch=3 c=11 v=92
432570 Par ch=3 c=11 v=93
432600 Par ch=3 c=11 v=94
432630 Par ch=3 c=11 v=95
432690 Par ch=3 c=11 v=96
432720 Par ch=3 c=11 v=97
432750 Par ch=3 c=11 v=98
432810 Par ch=3 c=11 v=99
432840 Par ch=3 c=11 v=100
432870 Par ch=3 c=11 v=101
432930 Par ch=3 c=11 v=102
432960 Par ch=3 c=11 v=103
432990 Par ch=3 c=11 v=104
433050 Par ch=3 c=11 v=105
433080 Par ch=3 c=11 v=106
433110 Par ch=3 c=11 v=107
433140 Par ch=3 c=11 v=108
433200 Par ch=3 c=11 v=109
433230 Par ch=3 c=11 v=110
433260 Par ch=3 c=11 v=111
433290 Par ch=3 c=11 v=112
433350 Par ch=3 c=11 v=113
433380 Par ch=3 c=11 v=114
433410 Par ch=3 c=11 v=115
433440 Par ch=3 c=11 v=116
433500 Par ch=3 c=11 v=117
433530 Par ch=3 c=11 v=118
433560 Par ch=3 c=11 v=119
433590 Par ch=3 c=11 v=120
433620 Par ch=3 c=11 v=121
433650 Par ch=3 c=11 v=122
433664 Off ch=3 n=67 v=64
433710 Par ch=3 c=11 v=123
433740 Par ch=3 c=11 v=124
433770 Par ch=3 c=11 v=125
433800 Par ch=3 c=11 v=126
433824 Par ch=3 c=11 v=127
433824 Meta TrkEnd
TrkEnd
MTrk
0 SeqSpec 43 00 01 ff
0 Meta TrkName "Cabasa"
1920 PrCh ch=4 p=15
1930 Par ch=4 c=7 v=62
1940 Par ch=4 c=10 v=64
1950 Par ch=4 c=11 v=95
1960 Par ch=4 c=20 v=127
1970 Par ch=4 c=91 v=0
1980 Par ch=4 c=93 v=0
1990 Par ch=4 c=94 v=0
2000 Par ch=4 c=101 v=0
2010 Par ch=4 c=100 v=0
2020 Par ch=4 c=6 v=2
2030 Par ch=4 c=101 v=127
2040 Par ch=4 c=100 v=127
249600 On ch=4 n=69 v=76
249600 Par ch=4 c=7 v=45
249601 Off ch=4 n=69 v=64
249840 On ch=4 n=69 v=46
249841 Off ch=4 n=69 v=64
250080 On ch=4 n=69 v=59
250081 Off ch=4 n=69 v=64
250320 On ch=4 n=69 v=43
250321 Off ch=4 n=69 v=64
250560 On ch=4 n=69 v=62
250561 Off ch=4 n=69 v=64
250800 On ch=4 n=69 v=46
250801 Off ch=4 n=69 v=64
251040 On ch=4 n=69 v=59
251041 Off ch=4 n=69 v=64
251280 On ch=4 n=69 v=43
251281 Off ch=4 n=69 v=64
251520 On ch=4 n=69 v=69
251521 Off ch=4 n=69 v=64
251760 On ch=4 n=69 v=46
251761 Off ch=4 n=69 v=64
252000 On ch=4 n=69 v=59
252001 Off ch=4 n=69 v=64
252240 On ch=4 n=69 v=43
252241 Off ch=4 n=69 v=64
252480 On ch=4 n=69 v=61
252481 Off ch=4 n=69 v=64
252720 On ch=4 n=69 v=46
252721 Off ch=4 n=69 v=64
252960 On ch=4 n=69 v=59
252961 Off ch=4 n=69 v=64
253200 On ch=4 n=69 v=43
253201 Off ch=4 n=69 v=64
253440 On ch=4 n=69 v=76
253441 Off ch=4 n=69 v=64
253680 On ch=4 n=69 v=46
253681 Off ch=4 n=69 v=64
253920 On ch=4 n=69 v=59
253921 Off ch=4 n=69 v=64
254160 On ch=4 n=69 v=43
254161 Off ch=4 n=69 v=64
254400 On ch=4 n=69 v=62
254401 Off ch=4 n=69 v=64
254640 On ch=4 n=69 v=46
254641 Off ch=4 n=69 v=64
254880 On ch=4 n=69 v=59
254881 Off ch=4 n=69 v=64
255120 On ch=4 n=69 v=43
255121 Off ch=4 n=69 v=64
255360 On ch=4 n=69 v=69
255361 Off ch=4 n=69 v=64
255600 On ch=4 n=69 v=46
255601 Off ch=4 n=69 v=64
255840 On ch=4 n=69 v=59
255841 Off ch=4 n=69 v=64
256080 On ch=4 n=69 v=43
256081 Off ch=4 n=69 v=64
256320 On ch=4 n=69 v=61
256321 Off ch=4 n=69 v=64
256560 On ch=4 n=69 v=46
256561 Off ch=4 n=69 v=64
256800 On ch=4 n=69 v=59
256801 Off ch=4 n=69 v=64
257040 On ch=4 n=69 v=43
257041 Off ch=4 n=69 v=64
257280 On ch=4 n=69 v=76
257281 Off ch=4 n=69 v=64
257520 On ch=4 n=69 v=46
257521 Off ch=4 n=69 v=64
257760 On ch=4 n=69 v=59
257761 Off ch=4 n=69 v=64
258000 On ch=4 n=69 v=43
258001 Off ch=4 n=69 v=64
258240 On ch=4 n=69 v=62
258241 Off ch=4 n=69 v=64
258480 On ch=4 n=69 v=46
258481 Off ch=4 n=69 v=64
258720 On ch=4 n=69 v=59
258721 Off ch=4 n=69 v=64
258960 On ch=4 n=69 v=43
258961 Off ch=4 n=69 v=64
259200 On ch=4 n=69 v=69
259201 Off ch=4 n=69 v=64
259440 On ch=4 n=69 v=46
259441 Off ch=4 n=69 v=64
259680 On ch=4 n=69 v=59
259681 Off ch=4 n=69 v=64
259920 On ch=4 n=69 v=43
259921 Off ch=4 n=69 v=64
260160 On ch=4 n=69 v=61
260161 Off ch=4 n=69 v=64
260400 On ch=4 n=69 v=46
260401 Off ch=4 n=69 v=64
260640 On ch=4 n=69 v=59
260641 Off ch=4 n=69 v=64
260880 On ch=4 n=69 v=43
260881 Off ch=4 n=69 v=64
261120 On ch=4 n=69 v=76
261121 Off ch=4 n=69 v=64
261360 On ch=4 n=69 v=46
261361 Off ch=4 n=69 v=64
261600 On ch=4 n=69 v=59
261601 Off ch=4 n=69 v=64
261840 On ch=4 n=69 v=43
261841 Off ch=4 n=69 v=64
262080 On ch=4 n=69 v=62
262081 Off ch=4 n=69 v=64
262320 On ch=4 n=69 v=46
262321 Off ch=4 n=69 v=64
262560 On ch=4 n=69 v=59
262561 Off ch=4 n=69 v=64
262800 On ch=4 n=69 v=43
262801 Off ch=4 n=69 v=64
263040 On ch=4 n=69 v=69
263041 Off ch=4 n=69 v=64
263280 On ch=4 n=69 v=46
263281 Off ch=4 n=69 v=64
263520 On ch=4 n=69 v=59
263521 Off ch=4 n=69 v=64
263760 On ch=4 n=69 v=43
263761 Off ch=4 n=69 v=64
264000 On ch=4 n=69 v=61
264001 Off ch=4 n=69 v=64
264240 On ch=4 n=69 v=46
264241 Off ch=4 n=69 v=64
264480 On ch=4 n=69 v=59
264481 Off ch=4 n=69 v=64
264720 On ch=4 n=69 v=43
264721 Off ch=4 n=69 v=64
264960 On ch=4 n=69 v=76
264961 Off ch=4 n=69 v=64
265200 On ch=4 n=69 v=46
265201 Off ch=4 n=69 v=64
265440 On ch=4 n=69 v=59
265441 Off ch=4 n=69 v=64
265680 On ch=4 n=69 v=43
265681 Off ch=4 n=69 v=64
265920 On ch=4 n=69 v=62
265921 Off ch=4 n=69 v=64
266160 On ch=4 n=69 v=46
266161 Off ch=4 n=69 v=64
266400 On ch=4 n=69 v=59
266401 Off ch=4 n=69 v=64
266640 On ch=4 n=69 v=43
266641 Off ch=4 n=69 v=64
266880 On ch=4 n=69 v=69
266881 Off ch=4 n=69 v=64
267120 On ch=4 n=69 v=46
267121 Off ch=4 n=69 v=64
267360 On ch=4 n=69 v=59
267361 Off ch=4 n=69 v=64
267600 On ch=4 n=69 v=43
267601 Off ch=4 n=69 v=64
267840 On ch=4 n=69 v=61
267841 Off ch=4 n=69 v=64
268080 On ch=4 n=69 v=46
268081 Off ch=4 n=69 v=64
268320 On ch=4 n=69 v=59
268321 Off ch=4 n=69 v=64
268560 On ch=4 n=69 v=43
268561 Off ch=4 n=69 v=64
268800 On ch=4 n=69 v=76
268801 Off ch=4 n=69 v=64
269040 On ch=4 n=69 v=46
269041 Off ch=4 n=69 v=64
269280 On ch=4 n=69 v=59
269281 Off ch=4 n=69 v=64
269520 On ch=4 n=69 v=43
269521 Off ch=4 n=69 v=64
269760 On ch=4 n=69 v=62
269761 Off ch=4 n=69 v=64
270000 On ch=4 n=69 v=46
270001 Off ch=4 n=69 v=64
270240 On ch=4 n=69 v=59
270241 Off ch=4 n=69 v=64
270480 On ch=4 n=69 v=43
270481 Off ch=4 n=69 v=64
270720 On ch=4 n=69 v=69
270721 Off ch=4 n=69 v=64
270960 On ch=4 n=69 v=46
270961 Off ch=4 n=69 v=64
271200 On ch=4 n=69 v=59
271201 Off ch=4 n=69 v=64
271440 On ch=4 n=69 v=43
271441 Off ch=4 n=69 v=64
271680 On ch=4 n=69 v=61
271681 Off ch=4 n=69 v=64
271920 On ch=4 n=69 v=46
271921 Off ch=4 n=69 v=64
272160 On ch=4 n=69 v=59
272161 Off ch=4 n=69 v=64
272400 On ch=4 n=69 v=43
272401 Off ch=4 n=69 v=64
272640 On ch=4 n=69 v=76
272641 Off ch=4 n=69 v=64
272880 On ch=4 n=69 v=46
272881 Off ch=4 n=69 v=64
273120 On ch=4 n=69 v=59
273121 Off ch=4 n=69 v=64
273360 On ch=4 n=69 v=43
273361 Off ch=4 n=69 v=64
273600 On ch=4 n=69 v=62
273601 Off ch=4 n=69 v=64
273840 On ch=4 n=69 v=46
273841 Off ch=4 n=69 v=64
274080 On ch=4 n=69 v=59
274081 Off ch=4 n=69 v=64
274320 On ch=4 n=69 v=43
274321 Off ch=4 n=69 v=64
274560 On ch=4 n=69 v=69
274561 Off ch=4 n=69 v=64
274800 On ch=4 n=69 v=46
274801 Off ch=4 n=69 v=64
275040 On ch=4 n=69 v=59
275041 Off ch=4 n=69 v=64
275280 On ch=4 n=69 v=43
275281 Off ch=4 n=69 v=64
275520 On ch=4 n=69 v=61
275521 Off ch=4 n=69 v=64
275760 On ch=4 n=69 v=46
275761 Off ch=4 n=69 v=64
276000 On ch=4 n=69 v=59
276001 Off ch=4 n=69 v=64
276240 On ch=4 n=69 v=43
276241 Off ch=4 n=69 v=64
276480 On ch=4 n=69 v=76
276481 Off ch=4 n=69 v=64
276720 On ch=4 n=69 v=46
276721 Off ch=4 n=69 v=64
276960 On ch=4 n=69 v=59
276961 Off ch=4 n=69 v=64
277200 On ch=4 n=69 v=43
277201 Off ch=4 n=69 v=64
277440 On ch=4 n=69 v=62
277441 Off ch=4 n=69 v=64
277680 On ch=4 n=69 v=46
277681 Off ch=4 n=69 v=64
277920 On ch=4 n=69 v=59
277921 Off ch=4 n=69 v=64
278160 On ch=4 n=69 v=43
278161 Off ch=4 n=69 v=64
278400 On ch=4 n=69 v=69
278401 Off ch=4 n=69 v=64
278640 On ch=4 n=69 v=46
278641 Off ch=4 n=69 v=64
278880 On ch=4 n=69 v=59
278881 Off ch=4 n=69 v=64
279120 On ch=4 n=69 v=43
279121 Off ch=4 n=69 v=64
279360 On ch=4 n=69 v=61
279361 Off ch=4 n=69 v=64
279600 On ch=4 n=69 v=46
279601 Off ch=4 n=69 v=64
279840 On ch=4 n=69 v=59
279841 Off ch=4 n=69 v=64
280080 On ch=4 n=69 v=43
280081 Off ch=4 n=69 v=64
280320 On ch=4 n=69 v=76
280320 Par ch=4 c=7 v=53
280321 Off ch=4 n=69 v=64
280560 On ch=4 n=69 v=46
280561 Off ch=4 n=69 v=64
280800 On ch=4 n=69 v=59
280801 Off ch=4 n=69 v=64
281040 On ch=4 n=69 v=43
281041 Off ch=4 n=69 v=64
281280 On ch=4 n=69 v=62
281281 Off ch=4 n=69 v=64
281520 On ch=4 n=69 v=46
281521 Off ch=4 n=69 v=64
281760 On ch=4 n=69 v=59
281761 Off ch=4 n=69 v=64
282000 On ch=4 n=69 v=43
282001 Off ch=4 n=69 v=64
282240 On ch=4 n=69 v=69
282241 Off ch=4 n=69 v=64
282480 On ch=4 n=69 v=46
282481 Off ch=4 n=69 v=64
282720 On ch=4 n=69 v=59
282721 Off ch=4 n=69 v=64
282960 On ch=4 n=69 v=43
282961 Off ch=4 n=69 v=64
283200 On ch=4 n=69 v=61
283201 Off ch=4 n=69 v=64
283440 On ch=4 n=69 v=46
283441 Off ch=4 n=69 v=64
283680 On ch=4 n=69 v=59
283681 Off ch=4 n=69 v=64
283920 On ch=4 n=69 v=43
283921 Off ch=4 n=69 v=64
284160 On ch=4 n=69 v=76
284161 Off ch=4 n=69 v=64
284400 On ch=4 n=69 v=46
284401 Off ch=4 n=69 v=64
284640 On ch=4 n=69 v=59
284641 Off ch=4 n=69 v=64
284880 On ch=4 n=69 v=43
284881 Off ch=4 n=69 v=64
285120 On ch=4 n=69 v=62
285121 Off ch=4 n=69 v=64
285360 On ch=4 n=69 v=46
285361 Off ch=4 n=69 v=64
285600 On ch=4 n=69 v=59
285601 Off ch=4 n=69 v=64
285840 On ch=4 n=69 v=43
285841 Off ch=4 n=69 v=64
286080 On ch=4 n=69 v=69
286081 Off ch=4 n=69 v=64
286320 On ch=4 n=69 v=46
286321 Off ch=4 n=69 v=64
286560 On ch=4 n=69 v=59
286561 Off ch=4 n=69 v=64
286800 On ch=4 n=69 v=43
286801 Off ch=4 n=69 v=64
287040 On ch=4 n=69 v=61
287041 Off ch=4 n=69 v=64
287280 On ch=4 n=69 v=46
287281 Off ch=4 n=69 v=64
287520 On ch=4 n=69 v=59
287521 Off ch=4 n=69 v=64
287760 On ch=4 n=69 v=43
287761 Off ch=4 n=69 v=64
288000 On ch=4 n=69 v=76
288001 Off ch=4 n=69 v=64
288240 On ch=4 n=69 v=46
288241 Off ch=4 n=69 v=64
288480 On ch=4 n=69 v=59
288481 Off ch=4 n=69 v=64
288720 On ch=4 n=69 v=43
288721 Off ch=4 n=69 v=64
288960 On ch=4 n=69 v=62
288961 Off ch=4 n=69 v=64
289200 On ch=4 n=69 v=46
289201 Off ch=4 n=69 v=64
289440 On ch=4 n=69 v=59
289441 Off ch=4 n=69 v=64
289680 On ch=4 n=69 v=43
289681 Off ch=4 n=69 v=64
289920 On ch=4 n=69 v=69
289921 Off ch=4 n=69 v=64
290160 On ch=4 n=69 v=46
290161 Off ch=4 n=69 v=64
290400 On ch=4 n=69 v=59
290401 Off ch=4 n=69 v=64
290640 On ch=4 n=69 v=43
290641 Off ch=4 n=69 v=64
290880 On ch=4 n=69 v=61
290881 Off ch=4 n=69 v=64
291120 On ch=4 n=69 v=46
291121 Off ch=4 n=69 v=64
291360 On ch=4 n=69 v=59
291361 Off ch=4 n=69 v=64
291600 On ch=4 n=69 v=43
291601 Off ch=4 n=69 v=64
291840 On ch=4 n=69 v=76
291841 Off ch=4 n=69 v=64
292080 On ch=4 n=69 v=46
292081 Off ch=4 n=69 v=64
292320 On ch=4 n=69 v=59
292321 Off ch=4 n=69 v=64
292560 On ch=4 n=69 v=43
292561 Off ch=4 n=69 v=64
292800 On ch=4 n=69 v=62
292801 Off ch=4 n=69 v=64
293040 On ch=4 n=69 v=46
293041 Off ch=4 n=69 v=64
293280 On ch=4 n=69 v=59
293281 Off ch=4 n=69 v=64
293520 On ch=4 n=69 v=43
293521 Off ch=4 n=69 v=64
293760 On ch=4 n=69 v=69
293761 Off ch=4 n=69 v=64
294000 On ch=4 n=69 v=46
294001 Off ch=4 n=69 v=64
294240 On ch=4 n=69 v=59
294241 Off ch=4 n=69 v=64
294480 On ch=4 n=69 v=43
294481 Off ch=4 n=69 v=64
294720 On ch=4 n=69 v=61
294721 Off ch=4 n=69 v=64
294960 On ch=4 n=69 v=46
294961 Off ch=4 n=69 v=64
295200 On ch=4 n=69 v=59
295201 Off ch=4 n=69 v=64
295440 On ch=4 n=69 v=43
295441 Off ch=4 n=69 v=64
295680 On ch=4 n=69 v=76
295681 Off ch=4 n=69 v=64
295920 On ch=4 n=69 v=46
295921 Off ch=4 n=69 v=64
296160 On ch=4 n=69 v=59
296161 Off ch=4 n=69 v=64
296400 On ch=4 n=69 v=43
296401 Off ch=4 n=69 v=64
296640 On ch=4 n=69 v=62
296641 Off ch=4 n=69 v=64
296880 On ch=4 n=69 v=46
296881 Off ch=4 n=69 v=64
297120 On ch=4 n=69 v=59
297121 Off ch=4 n=69 v=64
297360 On ch=4 n=69 v=43
297361 Off ch=4 n=69 v=64
297600 On ch=4 n=69 v=69
297601 Off ch=4 n=69 v=64
297840 On ch=4 n=69 v=46
297841 Off ch=4 n=69 v=64
298080 On ch=4 n=69 v=59
298081 Off ch=4 n=69 v=64
298320 On ch=4 n=69 v=43
298321 Off ch=4 n=69 v=64
298560 On ch=4 n=69 v=61
298561 Off ch=4 n=69 v=64
298800 On ch=4 n=69 v=46
298801 Off ch=4 n=69 v=64
299040 On ch=4 n=69 v=59
299041 Off ch=4 n=69 v=64
299280 On ch=4 n=69 v=43
299281 Off ch=4 n=69 v=64
299520 On ch=4 n=69 v=76
299521 Off ch=4 n=69 v=64
299760 On ch=4 n=69 v=46
299761 Off ch=4 n=69 v=64
300000 On ch=4 n=69 v=59
300001 Off ch=4 n=69 v=64
300240 On ch=4 n=69 v=43
300241 Off ch=4 n=69 v=64
300480 On ch=4 n=69 v=62
300481 Off ch=4 n=69 v=64
300720 On ch=4 n=69 v=46
300721 Off ch=4 n=69 v=64
300960 On ch=4 n=69 v=59
300961 Off ch=4 n=69 v=64
301200 On ch=4 n=69 v=43
301201 Off ch=4 n=69 v=64
301440 On ch=4 n=69 v=69
301441 Off ch=4 n=69 v=64
301680 On ch=4 n=69 v=46
301681 Off ch=4 n=69 v=64
301920 On ch=4 n=69 v=59
301921 Off ch=4 n=69 v=64
302160 On ch=4 n=69 v=43
302161 Off ch=4 n=69 v=64
302400 On ch=4 n=69 v=61
302401 Off ch=4 n=69 v=64
302640 On ch=4 n=69 v=46
302641 Off ch=4 n=69 v=64
302880 On ch=4 n=69 v=59
302881 Off ch=4 n=69 v=64
303120 On ch=4 n=69 v=43
303121 Off ch=4 n=69 v=64
303360 On ch=4 n=69 v=76
303361 Off ch=4 n=69 v=64
303600 On ch=4 n=69 v=46
303601 Off ch=4 n=69 v=64
303840 On ch=4 n=69 v=59
303841 Off ch=4 n=69 v=64
304080 On ch=4 n=69 v=43
304081 Off ch=4 n=69 v=64
304320 On ch=4 n=69 v=62
304321 Off ch=4 n=69 v=64
304560 On ch=4 n=69 v=46
304561 Off ch=4 n=69 v=64
304800 On ch=4 n=69 v=59
304801 Off ch=4 n=69 v=64
305040 On ch=4 n=69 v=43
305041 Off ch=4 n=69 v=64
305280 On ch=4 n=69 v=69
305281 Off ch=4 n=69 v=64
305520 On ch=4 n=69 v=46
305521 Off ch=4 n=69 v=64
305760 On ch=4 n=69 v=59
305761 Off ch=4 n=69 v=64
306000 On ch=4 n=69 v=43
306001 Off ch=4 n=69 v=64
306240 On ch=4 n=69 v=61
306241 Off ch=4 n=69 v=64
306480 On ch=4 n=69 v=46
306481 Off ch=4 n=69 v=64
306720 On ch=4 n=69 v=59
306721 Off ch=4 n=69 v=64
306960 On ch=4 n=69 v=43
306961 Off ch=4 n=69 v=64
307200 On ch=4 n=69 v=76
307201 Off ch=4 n=69 v=64
307440 On ch=4 n=69 v=46
307441 Off ch=4 n=69 v=64
307680 On ch=4 n=69 v=59
307681 Off ch=4 n=69 v=64
307920 On ch=4 n=69 v=43
307921 Off ch=4 n=69 v=64
308160 On ch=4 n=69 v=62
308161 Off ch=4 n=69 v=64
308400 On ch=4 n=69 v=46
308401 Off ch=4 n=69 v=64
308640 On ch=4 n=69 v=59
308641 Off ch=4 n=69 v=64
308880 On ch=4 n=69 v=43
308881 Off ch=4 n=69 v=64
309120 On ch=4 n=69 v=69
309121 Off ch=4 n=69 v=64
309360 On ch=4 n=69 v=46
309361 Off ch=4 n=69 v=64
309600 On ch=4 n=69 v=59
309601 Off ch=4 n=69 v=64
309840 On ch=4 n=69 v=43
309841 Off ch=4 n=69 v=64
310080 On ch=4 n=69 v=61
310081 Off ch=4 n=69 v=64
310320 On ch=4 n=69 v=46
310321 Off ch=4 n=69 v=64
310560 On ch=4 n=69 v=59
310561 Off ch=4 n=69 v=64
310800 On ch=4 n=69 v=43
310801 Off ch=4 n=69 v=64
311040 On ch=4 n=69 v=76
311041 Off ch=4 n=69 v=64
311280 On ch=4 n=69 v=46
311281 Off ch=4 n=69 v=64
311520 On ch=4 n=69 v=59
311521 Off ch=4 n=69 v=64
311760 On ch=4 n=69 v=43
311761 Off ch=4 n=69 v=64
312000 On ch=4 n=69 v=62
312001 Off ch=4 n=69 v=64
312240 On ch=4 n=69 v=46
312241 Off ch=4 n=69 v=64
312480 On ch=4 n=69 v=59
312481 Off ch=4 n=69 v=64
312720 On ch=4 n=69 v=43
312721 Off ch=4 n=69 v=64
312960 On ch=4 n=69 v=69
312961 Off ch=4 n=69 v=64
313200 On ch=4 n=69 v=46
313201 Off ch=4 n=69 v=64
313440 On ch=4 n=69 v=59
313441 Off ch=4 n=69 v=64
313680 On ch=4 n=69 v=43
313681 Off ch=4 n=69 v=64
313920 On ch=4 n=69 v=61
313921 Off ch=4 n=69 v=64
314160 On ch=4 n=69 v=46
314161 Off ch=4 n=69 v=64
314400 On ch=4 n=69 v=59
314401 Off ch=4 n=69 v=64
314640 On ch=4 n=69 v=43
314641 Off ch=4 n=69 v=64
314880 On ch=4 n=69 v=76
314881 Off ch=4 n=69 v=64
315120 On ch=4 n=69 v=46
315121 Off ch=4 n=69 v=64
315360 On ch=4 n=69 v=59
315361 Off ch=4 n=69 v=64
315600 On ch=4 n=69 v=43
315601 Off ch=4 n=69 v=64
315840 On ch=4 n=69 v=62
315841 Off ch=4 n=69 v=64
316080 On ch=4 n=69 v=46
316081 Off ch=4 n=69 v=64
316320 On ch=4 n=69 v=59
316321 Off ch=4 n=69 v=64
316560 On ch=4 n=69 v=43
316561 Off ch=4 n=69 v=64
316800 On ch=4 n=69 v=69
316801 Off ch=4 n=69 v=64
317040 On ch=4 n=69 v=46
317041 Off ch=4 n=69 v=64
317280 On ch=4 n=69 v=59
317281 Off ch=4 n=69 v=64
317520 On ch=4 n=69 v=43
317521 Off ch=4 n=69 v=64
317760 On ch=4 n=69 v=61
317761 Off ch=4 n=69 v=64
318000 On ch=4 n=69 v=46
318001 Off ch=4 n=69 v=64
318240 On ch=4 n=69 v=59
318241 Off ch=4 n=69 v=64
318480 On ch=4 n=69 v=43
318481 Off ch=4 n=69 v=64
318720 On ch=4 n=69 v=76
318721 Off ch=4 n=69 v=64
318960 On ch=4 n=69 v=46
318961 Off ch=4 n=69 v=64
319200 On ch=4 n=69 v=59
319201 Off ch=4 n=69 v=64
319440 On ch=4 n=69 v=43
319441 Off ch=4 n=69 v=64
319680 On ch=4 n=69 v=62
319681 Off ch=4 n=69 v=64
319920 On ch=4 n=69 v=46
319921 Off ch=4 n=69 v=64
320160 On ch=4 n=69 v=59
320161 Off ch=4 n=69 v=64
320400 On ch=4 n=69 v=43
320401 Off ch=4 n=69 v=64
320640 On ch=4 n=69 v=69
320641 Off ch=4 n=69 v=64
320880 On ch=4 n=69 v=46
320881 Off ch=4 n=69 v=64
321120 On ch=4 n=69 v=59
321121 Off ch=4 n=69 v=64
321360 On ch=4 n=69 v=43
321361 Off ch=4 n=69 v=64
321600 On ch=4 n=69 v=61
321601 Off ch=4 n=69 v=64
321840 On ch=4 n=69 v=46
321841 Off ch=4 n=69 v=64
322080 On ch=4 n=69 v=59
322081 Off ch=4 n=69 v=64
322320 On ch=4 n=69 v=43
322321 Off ch=4 n=69 v=64
322560 On ch=4 n=69 v=76
322561 Off ch=4 n=69 v=64
322800 On ch=4 n=69 v=46
322801 Off ch=4 n=69 v=64
323040 On ch=4 n=69 v=59
323041 Off ch=4 n=69 v=64
323280 On ch=4 n=69 v=43
323281 Off ch=4 n=69 v=64
323520 On ch=4 n=69 v=62
323521 Off ch=4 n=69 v=64
323760 On ch=4 n=69 v=46
323761 Off ch=4 n=69 v=64
324000 On ch=4 n=69 v=59
324001 Off ch=4 n=69 v=64
324240 On ch=4 n=69 v=43
324241 Off ch=4 n=69 v=64
324480 On ch=4 n=69 v=69
324481 Off ch=4 n=69 v=64
324720 On ch=4 n=69 v=46
324721 Off ch=4 n=69 v=64
324960 On ch=4 n=69 v=59
324961 Off ch=4 n=69 v=64
325200 On ch=4 n=69 v=43
325201 Off ch=4 n=69 v=64
325440 On ch=4 n=69 v=61
325441 Off ch=4 n=69 v=64
325680 On ch=4 n=69 v=46
325681 Off ch=4 n=69 v=64
325920 On ch=4 n=69 v=59
325921 Off ch=4 n=69 v=64
326160 On ch=4 n=69 v=43
326161 Off ch=4 n=69 v=64
326400 On ch=4 n=69 v=76
326401 Off ch=4 n=69 v=64
326640 On ch=4 n=69 v=46
326641 Off ch=4 n=69 v=64
326880 On ch=4 n=69 v=59
326881 Off ch=4 n=69 v=64
327120 On ch=4 n=69 v=43
327121 Off ch=4 n=69 v=64
327360 On ch=4 n=69 v=62
327361 Off ch=4 n=69 v=64
327600 On ch=4 n=69 v=46
327601 Off ch=4 n=69 v=64
327840 On ch=4 n=69 v=59
327841 Off ch=4 n=69 v=64
328080 On ch=4 n=69 v=43
328081 Off ch=4 n=69 v=64
328320 On ch=4 n=69 v=69
328321 Off ch=4 n=69 v=64
328560 On ch=4 n=69 v=46
328561 Off ch=4 n=69 v=64
328800 On ch=4 n=69 v=59
328801 Off ch=4 n=69 v=64
329040 On ch=4 n=69 v=43
329041 Off ch=4 n=69 v=64
329280 On ch=4 n=69 v=61
329281 Off ch=4 n=69 v=64
329520 On ch=4 n=69 v=46
329521 Off ch=4 n=69 v=64
329760 On ch=4 n=69 v=59
329761 Off ch=4 n=69 v=64
330000 On ch=4 n=69 v=43
330001 Off ch=4 n=69 v=64
330240 On ch=4 n=69 v=76
330241 Off ch=4 n=69 v=64
330480 On ch=4 n=69 v=46
330481 Off ch=4 n=69 v=64
330720 On ch=4 n=69 v=59
330721 Off ch=4 n=69 v=64
330960 On ch=4 n=69 v=43
330961 Off ch=4 n=69 v=64
331200 On ch=4 n=69 v=62
331201 Off ch=4 n=69 v=64
331440 On ch=4 n=69 v=46
331441 Off ch=4 n=69 v=64
331680 On ch=4 n=69 v=59
331681 Off ch=4 n=69 v=64
331920 On ch=4 n=69 v=43
331921 Off ch=4 n=69 v=64
332160 On ch=4 n=69 v=69
332161 Off ch=4 n=69 v=64
332400 On ch=4 n=69 v=46
332401 Off ch=4 n=69 v=64
332640 On ch=4 n=69 v=59
332641 Off ch=4 n=69 v=64
332880 On ch=4 n=69 v=43
332881 Off ch=4 n=69 v=64
333120 On ch=4 n=69 v=61
333121 Off ch=4 n=69 v=64
333360 On ch=4 n=69 v=46
333361 Off ch=4 n=69 v=64
333600 On ch=4 n=69 v=59
333601 Off ch=4 n=69 v=64
333840 On ch=4 n=69 v=43
333841 Off ch=4 n=69 v=64
334080 On ch=4 n=69 v=76
334081 Off ch=4 n=69 v=64
334320 On ch=4 n=69 v=46
334321 Off ch=4 n=69 v=64
334560 On ch=4 n=69 v=59
334561 Off ch=4 n=69 v=64
334800 On ch=4 n=69 v=43
334801 Off ch=4 n=69 v=64
335040 On ch=4 n=69 v=62
335041 Off ch=4 n=69 v=64
335280 On ch=4 n=69 v=46
335281 Off ch=4 n=69 v=64
335520 On ch=4 n=69 v=59
335521 Off ch=4 n=69 v=64
335760 On ch=4 n=69 v=43
335761 Off ch=4 n=69 v=64
336000 On ch=4 n=69 v=69
336001 Off ch=4 n=69 v=64
336240 On ch=4 n=69 v=46
336241 Off ch=4 n=69 v=64
336480 On ch=4 n=69 v=59
336481 Off ch=4 n=69 v=64
336720 On ch=4 n=69 v=43
336721 Off ch=4 n=69 v=64
336960 On ch=4 n=69 v=61
336961 Off ch=4 n=69 v=64
337200 On ch=4 n=69 v=46
337201 Off ch=4 n=69 v=64
337440 On ch=4 n=69 v=59
337441 Off ch=4 n=69 v=64
337680 On ch=4 n=69 v=43
337681 Off ch=4 n=69 v=64
337920 On ch=4 n=69 v=76
337921 Off ch=4 n=69 v=64
338160 On ch=4 n=69 v=46
338161 Off ch=4 n=69 v=64
338400 On ch=4 n=69 v=59
338401 Off ch=4 n=69 v=64
338640 On ch=4 n=69 v=43
338641 Off ch=4 n=69 v=64
338880 On ch=4 n=69 v=62
338881 Off ch=4 n=69 v=64
339120 On ch=4 n=69 v=46
339121 Off ch=4 n=69 v=64
339360 On ch=4 n=69 v=59
339361 Off ch=4 n=69 v=64
339600 On ch=4 n=69 v=43
339601 Off ch=4 n=69 v=64
339840 On ch=4 n=69 v=69
339841 Off ch=4 n=69 v=64
340080 On ch=4 n=69 v=46
340081 Off ch=4 n=69 v=64
340320 On ch=4 n=69 v=59
340321 Off ch=4 n=69 v=64
340560 On ch=4 n=69 v=43
340561 Off ch=4 n=69 v=64
340800 On ch=4 n=69 v=61
340801 Off ch=4 n=69 v=64
341040 On ch=4 n=69 v=46
341041 Off ch=4 n=69 v=64
341280 On ch=4 n=69 v=59
341281 Off ch=4 n=69 v=64
341520 On ch=4 n=69 v=43
341521 Off ch=4 n=69 v=64
341760 On ch=4 n=69 v=76
341761 Off ch=4 n=69 v=64
342000 On ch=4 n=69 v=46
342001 Off ch=4 n=69 v=64
342240 On ch=4 n=69 v=59
342241 Off ch=4 n=69 v=64
342480 On ch=4 n=69 v=43
342481 Off ch=4 n=69 v=64
342720 On ch=4 n=69 v=62
342721 Off ch=4 n=69 v=64
342960 On ch=4 n=69 v=46
342961 Off ch=4 n=69 v=64
343200 On ch=4 n=69 v=59
343201 Off ch=4 n=69 v=64
343440 On ch=4 n=69 v=43
343441 Off ch=4 n=69 v=64
343680 On ch=4 n=69 v=69
343681 Off ch=4 n=69 v=64
343920 On ch=4 n=69 v=46
343921 Off ch=4 n=69 v=64
344160 On ch=4 n=69 v=59
344161 Off ch=4 n=69 v=64
344400 On ch=4 n=69 v=43
344401 Off ch=4 n=69 v=64
344640 On ch=4 n=69 v=61
344641 Off ch=4 n=69 v=64
344880 On ch=4 n=69 v=46
344881 Off ch=4 n=69 v=64
345120 On ch=4 n=69 v=59
345121 Off ch=4 n=69 v=64
345360 On ch=4 n=69 v=43
345361 Off ch=4 n=69 v=64
345600 On ch=4 n=69 v=76
345601 Off ch=4 n=69 v=64
345840 On ch=4 n=69 v=46
345841 Off ch=4 n=69 v=64
346080 On ch=4 n=69 v=59
346081 Off ch=4 n=69 v=64
346320 On ch=4 n=69 v=43
346321 Off ch=4 n=69 v=64
346560 On ch=4 n=69 v=62
346561 Off ch=4 n=69 v=64
346800 On ch=4 n=69 v=46
346801 Off ch=4 n=69 v=64
347040 On ch=4 n=69 v=59
347041 Off ch=4 n=69 v=64
347280 On ch=4 n=69 v=43
347281 Off ch=4 n=69 v=64
347520 On ch=4 n=69 v=69
347521 Off ch=4 n=69 v=64
347760 On ch=4 n=69 v=46
347761 Off ch=4 n=69 v=64
348000 On ch=4 n=69 v=59
348001 Off ch=4 n=69 v=64
348240 On ch=4 n=69 v=43
348241 Off ch=4 n=69 v=64
348480 On ch=4 n=69 v=61
348481 Off ch=4 n=69 v=64
348720 On ch=4 n=69 v=46
348721 Off ch=4 n=69 v=64
348960 On ch=4 n=69 v=59
348961 Off ch=4 n=69 v=64
349200 On ch=4 n=69 v=43
349201 Off ch=4 n=69 v=64
349440 On ch=4 n=69 v=76
349441 Off ch=4 n=69 v=64
349680 On ch=4 n=69 v=46
349681 Off ch=4 n=69 v=64
349920 On ch=4 n=69 v=59
349921 Off ch=4 n=69 v=64
350160 On ch=4 n=69 v=43
350161 Off ch=4 n=69 v=64
350400 On ch=4 n=69 v=62
350401 Off ch=4 n=69 v=64
350640 On ch=4 n=69 v=46
350641 Off ch=4 n=69 v=64
350880 On ch=4 n=69 v=59
350881 Off ch=4 n=69 v=64
351120 On ch=4 n=69 v=43
351121 Off ch=4 n=69 v=64
351360 On ch=4 n=69 v=69
351361 Off ch=4 n=69 v=64
351600 On ch=4 n=69 v=46
351601 Off ch=4 n=69 v=64
351840 On ch=4 n=69 v=59
351841 Off ch=4 n=69 v=64
352080 On ch=4 n=69 v=43
352081 Off ch=4 n=69 v=64
352320 On ch=4 n=69 v=61
352321 Off ch=4 n=69 v=64
352560 On ch=4 n=69 v=46
352561 Off ch=4 n=69 v=64
352800 On ch=4 n=69 v=59
352801 Off ch=4 n=69 v=64
353040 On ch=4 n=69 v=43
353041 Off ch=4 n=69 v=64
353280 On ch=4 n=69 v=76
353281 Off ch=4 n=69 v=64
353520 On ch=4 n=69 v=46
353521 Off ch=4 n=69 v=64
353760 On ch=4 n=69 v=59
353761 Off ch=4 n=69 v=64
354000 On ch=4 n=69 v=43
354001 Off ch=4 n=69 v=64
354240 On ch=4 n=69 v=62
354241 Off ch=4 n=69 v=64
354480 On ch=4 n=69 v=46
354481 Off ch=4 n=69 v=64
354720 On ch=4 n=69 v=59
354721 Off ch=4 n=69 v=64
354960 On ch=4 n=69 v=43
354961 Off ch=4 n=69 v=64
355200 On ch=4 n=69 v=69
355201 Off ch=4 n=69 v=64
355440 On ch=4 n=69 v=46
355441 Off ch=4 n=69 v=64
355680 On ch=4 n=69 v=59
355681 Off ch=4 n=69 v=64
355920 On ch=4 n=69 v=43
355921 Off ch=4 n=69 v=64
356160 On ch=4 n=69 v=61
356161 Off ch=4 n=69 v=64
356400 On ch=4 n=69 v=46
356401 Off ch=4 n=69 v=64
356640 On ch=4 n=69 v=59
356641 Off ch=4 n=69 v=64
356880 On ch=4 n=69 v=43
356881 Off ch=4 n=69 v=64
357120 On ch=4 n=69 v=76
357121 Off ch=4 n=69 v=64
357360 On ch=4 n=69 v=46
357361 Off ch=4 n=69 v=64
357600 On ch=4 n=69 v=59
357601 Off ch=4 n=69 v=64
357840 On ch=4 n=69 v=43
357841 Off ch=4 n=69 v=64
358080 On ch=4 n=69 v=62
358081 Off ch=4 n=69 v=64
358320 On ch=4 n=69 v=46
358321 Off ch=4 n=69 v=64
358560 On ch=4 n=69 v=59
358561 Off ch=4 n=69 v=64
358800 On ch=4 n=69 v=43
358801 Off ch=4 n=69 v=64
359040 On ch=4 n=69 v=69
359041 Off ch=4 n=69 v=64
359280 On ch=4 n=69 v=46
359281 Off ch=4 n=69 v=64
359520 On ch=4 n=69 v=59
359521 Off ch=4 n=69 v=64
359760 On ch=4 n=69 v=43
359761 Off ch=4 n=69 v=64
360000 On ch=4 n=69 v=61
360001 Off ch=4 n=69 v=64
360240 On ch=4 n=69 v=46
360241 Off ch=4 n=69 v=64
360480 On ch=4 n=69 v=59
360481 Off ch=4 n=69 v=64
360720 On ch=4 n=69 v=43
360721 Off ch=4 n=69 v=64
360960 On ch=4 n=69 v=76
360961 Off ch=4 n=69 v=64
361200 On ch=4 n=69 v=46
361201 Off ch=4 n=69 v=64
361440 On ch=4 n=69 v=59
361441 Off ch=4 n=69 v=64
361680 On ch=4 n=69 v=43
361681 Off ch=4 n=69 v=64
361920 On ch=4 n=69 v=62
361921 Off ch=4 n=69 v=64
362160 On ch=4 n=69 v=46
362161 Off ch=4 n=69 v=64
362400 On ch=4 n=69 v=59
362401 Off ch=4 n=69 v=64
362640 On ch=4 n=69 v=43
362641 Off ch=4 n=69 v=64
362880 On ch=4 n=69 v=69
362881 Off ch=4 n=69 v=64
363120 On ch=4 n=69 v=46
363121 Off ch=4 n=69 v=64
363360 On ch=4 n=69 v=59
363361 Off ch=4 n=69 v=64
363600 On ch=4 n=69 v=43
363601 Off ch=4 n=69 v=64
363840 On ch=4 n=69 v=61
363841 Off ch=4 n=69 v=64
364080 On ch=4 n=69 v=46
364081 Off ch=4 n=69 v=64
364320 On ch=4 n=69 v=59
364321 Off ch=4 n=69 v=64
364560 On ch=4 n=69 v=43
364561 Off ch=4 n=69 v=64
364800 On ch=4 n=69 v=76
364801 Off ch=4 n=69 v=64
365040 On ch=4 n=69 v=46
365041 Off ch=4 n=69 v=64
365280 On ch=4 n=69 v=59
365281 Off ch=4 n=69 v=64
365520 On ch=4 n=69 v=43
365521 Off ch=4 n=69 v=64
365760 On ch=4 n=69 v=62
365761 Off ch=4 n=69 v=64
366000 On ch=4 n=69 v=46
366001 Off ch=4 n=69 v=64
366240 On ch=4 n=69 v=59
366241 Off ch=4 n=69 v=64
366480 On ch=4 n=69 v=43
366481 Off ch=4 n=69 v=64
366720 On ch=4 n=69 v=69
366721 Off ch=4 n=69 v=64
366960 On ch=4 n=69 v=46
366961 Off ch=4 n=69 v=64
367200 On ch=4 n=69 v=59
367201 Off ch=4 n=69 v=64
367440 On ch=4 n=69 v=43
367441 Off ch=4 n=69 v=64
367680 On ch=4 n=69 v=61
367681 Off ch=4 n=69 v=64
367920 On ch=4 n=69 v=46
367921 Off ch=4 n=69 v=64
368160 On ch=4 n=69 v=59
368161 Off ch=4 n=69 v=64
368400 On ch=4 n=69 v=43
368401 Off ch=4 n=69 v=64
368640 On ch=4 n=69 v=76
368641 Off ch=4 n=69 v=64
368880 On ch=4 n=69 v=46
368881 Off ch=4 n=69 v=64
369120 On ch=4 n=69 v=59
369121 Off ch=4 n=69 v=64
369360 On ch=4 n=69 v=43
369361 Off ch=4 n=69 v=64
369600 On ch=4 n=69 v=62
369601 Off ch=4 n=69 v=64
369840 On ch=4 n=69 v=46
369841 Off ch=4 n=69 v=64
370080 On ch=4 n=69 v=59
370081 Off ch=4 n=69 v=64
370320 On ch=4 n=69 v=43
370321 Off ch=4 n=69 v=64
370560 On ch=4 n=69 v=69
370561 Off ch=4 n=69 v=64
403200 Par ch=4 c=7 v=47
418560 On ch=4 n=69 v=76
418560 Par ch=4 c=7 v=57
418561 Off ch=4 n=69 v=64
418800 On ch=4 n=69 v=46
418801 Off ch=4 n=69 v=64
419040 On ch=4 n=69 v=59
419041 Off ch=4 n=69 v=64
419280 On ch=4 n=69 v=43
419281 Off ch=4 n=69 v=64
419520 On ch=4 n=69 v=62
419521 Off ch=4 n=69 v=64
419760 On ch=4 n=69 v=46
419761 Off ch=4 n=69 v=64
420000 On ch=4 n=69 v=59
420001 Off ch=4 n=69 v=64
420240 On ch=4 n=69 v=43
420241 Off ch=4 n=69 v=64
420480 On ch=4 n=69 v=69
420481 Off ch=4 n=69 v=64
420720 On ch=4 n=69 v=46
420721 Off ch=4 n=69 v=64
420960 On ch=4 n=69 v=59
420961 Off ch=4 n=69 v=64
421200 On ch=4 n=69 v=43
421201 Off ch=4 n=69 v=64
421440 On ch=4 n=69 v=61
421441 Off ch=4 n=69 v=64
421680 On ch=4 n=69 v=46
421681 Off ch=4 n=69 v=64
421920 On ch=4 n=69 v=59
421921 Off ch=4 n=69 v=64
422160 On ch=4 n=69 v=43
422161 Off ch=4 n=69 v=64
422400 On ch=4 n=69 v=76
422401 Off ch=4 n=69 v=64
422640 On ch=4 n=69 v=46
422641 Off ch=4 n=69 v=64
422880 On ch=4 n=69 v=59
422881 Off ch=4 n=69 v=64
423120 On ch=4 n=69 v=43
423121 Off ch=4 n=69 v=64
423360 On ch=4 n=69 v=62
423361 Off ch=4 n=69 v=64
423600 On ch=4 n=69 v=46
423601 Off ch=4 n=69 v=64
423840 On ch=4 n=69 v=59
423841 Off ch=4 n=69 v=64
424080 On ch=4 n=69 v=43
424081 Off ch=4 n=69 v=64
424320 On ch=4 n=69 v=69
424321 Off ch=4 n=69 v=64
424560 On ch=4 n=69 v=46
424561 Off ch=4 n=69 v=64
424800 On ch=4 n=69 v=59
424801 Off ch=4 n=69 v=64
425040 On ch=4 n=69 v=43
425041 Off ch=4 n=69 v=64
425280 On ch=4 n=69 v=61
425281 Off ch=4 n=69 v=64
425520 On ch=4 n=69 v=46
425521 Off ch=4 n=69 v=64
425760 On ch=4 n=69 v=59
425761 Off ch=4 n=69 v=64
426000 On ch=4 n=69 v=43
426001 Off ch=4 n=69 v=64
426240 On ch=4 n=69 v=76
426241 Off ch=4 n=69 v=64
426480 On ch=4 n=69 v=46
426481 Off ch=4 n=69 v=64
426720 On ch=4 n=69 v=59
426721 Off ch=4 n=69 v=64
426960 On ch=4 n=69 v=43
426961 Off ch=4 n=69 v=64
427200 On ch=4 n=69 v=62
427201 Off ch=4 n=69 v=64
427440 On ch=4 n=69 v=46
427441 Off ch=4 n=69 v=64
427680 On ch=4 n=69 v=59
427681 Off ch=4 n=69 v=64
427920 On ch=4 n=69 v=43
427921 Off ch=4 n=69 v=64
428160 On ch=4 n=69 v=69
428161 Off ch=4 n=69 v=64
428400 On ch=4 n=69 v=46
428401 Off ch=4 n=69 v=64
428640 On ch=4 n=69 v=59
428641 Off ch=4 n=69 v=64
428880 On ch=4 n=69 v=43
428881 Off ch=4 n=69 v=64
429120 On ch=4 n=69 v=61
429121 Off ch=4 n=69 v=64
429360 On ch=4 n=69 v=46
429361 Off ch=4 n=69 v=64
429600 On ch=4 n=69 v=59
429601 Off ch=4 n=69 v=64
429840 On ch=4 n=69 v=43
429841 Off ch=4 n=69 v=64
430080 On ch=4 n=69 v=76
430081 Off ch=4 n=69 v=64
430320 On ch=4 n=69 v=46
430321 Off ch=4 n=69 v=64
430560 On ch=4 n=69 v=59
430561 Off ch=4 n=69 v=64
430800 On ch=4 n=69 v=43
430801 Off ch=4 n=69 v=64
431040 On ch=4 n=69 v=62
431041 Off ch=4 n=69 v=64
431280 On ch=4 n=69 v=46
431281 Off ch=4 n=69 v=64
431520 On ch=4 n=69 v=59
431521 Off ch=4 n=69 v=64
431760 On ch=4 n=69 v=43
431761 Off ch=4 n=69 v=64
432000 On ch=4 n=69 v=69
432001 Off ch=4 n=69 v=64
432240 On ch=4 n=69 v=46
432241 Off ch=4 n=69 v=64
432480 On ch=4 n=69 v=59
432481 Off ch=4 n=69 v=64
432720 On ch=4 n=69 v=43
432721 Off ch=4 n=69 v=64
432960 On ch=4 n=69 v=61
432961 Off ch=4 n=69 v=64
433200 On ch=4 n=69 v=46
433201 Off ch=4 n=69 v=64
433440 On ch=4 n=69 v=59
433441 Off ch=4 n=69 v=64
433680 On ch=4 n=69 v=43
433681 Off ch=4 n=69 v=64
433920 On ch=4 n=69 v=76
433920 Par ch=4 c=7 v=70
433921 Off ch=4 n=69 v=64
434160 On ch=4 n=69 v=46
434161 Off ch=4 n=69 v=64
434400 On ch=4 n=69 v=59
434401 Off ch=4 n=69 v=64
434640 On ch=4 n=69 v=43
434641 Off ch=4 n=69 v=64
434880 On ch=4 n=69 v=62
434881 Off ch=4 n=69 v=64
435120 On ch=4 n=69 v=46
435121 Off ch=4 n=69 v=64
435360 On ch=4 n=69 v=59
435361 Off ch=4 n=69 v=64
435600 On ch=4 n=69 v=43
435601 Off ch=4 n=69 v=64
435840 On ch=4 n=69 v=69
435841 Off ch=4 n=69 v=64
436080 On ch=4 n=69 v=46
436081 Off ch=4 n=69 v=64
436320 On ch=4 n=69 v=59
436321 Off ch=4 n=69 v=64
436560 On ch=4 n=69 v=43
436561 Off ch=4 n=69 v=64
436800 On ch=4 n=69 v=61
436801 Off ch=4 n=69 v=64
437040 On ch=4 n=69 v=46
437041 Off ch=4 n=69 v=64
437280 On ch=4 n=69 v=59
437281 Off ch=4 n=69 v=64
437520 On ch=4 n=69 v=43
437521 Off ch=4 n=69 v=64
437760 On ch=4 n=69 v=76
437761 Off ch=4 n=69 v=64
438000 On ch=4 n=69 v=46
438001 Off ch=4 n=69 v=64
438240 On ch=4 n=69 v=59
438241 Off ch=4 n=69 v=64
438480 On ch=4 n=69 v=43
438481 Off ch=4 n=69 v=64
438720 On ch=4 n=69 v=62
438721 Off ch=4 n=69 v=64
438960 On ch=4 n=69 v=46
438961 Off ch=4 n=69 v=64
439200 On ch=4 n=69 v=59
439201 Off ch=4 n=69 v=64
439440 On ch=4 n=69 v=43
439441 Off ch=4 n=69 v=64
439680 On ch=4 n=69 v=69
439681 Off ch=4 n=69 v=64
439920 On ch=4 n=69 v=46
439921 Off ch=4 n=69 v=64
440160 On ch=4 n=69 v=59
440161 Off ch=4 n=69 v=64
440400 On ch=4 n=69 v=43
440401 Off ch=4 n=69 v=64
440640 On ch=4 n=69 v=61
440641 Off ch=4 n=69 v=64
440880 On ch=4 n=69 v=46
440881 Off ch=4 n=69 v=64
441120 On ch=4 n=69 v=59
441121 Off ch=4 n=69 v=64
441360 On ch=4 n=69 v=43
441361 Off ch=4 n=69 v=64
441600 On ch=4 n=69 v=76
441601 Off ch=4 n=69 v=64
441840 On ch=4 n=69 v=46
441841 Off ch=4 n=69 v=64
442080 On ch=4 n=69 v=59
442081 Off ch=4 n=69 v=64
442320 On ch=4 n=69 v=43
442321 Off ch=4 n=69 v=64
442560 On ch=4 n=69 v=62
442561 Off ch=4 n=69 v=64
442800 On ch=4 n=69 v=46
442801 Off ch=4 n=69 v=64
443040 On ch=4 n=69 v=59
443041 Off ch=4 n=69 v=64
443280 On ch=4 n=69 v=43
443281 Off ch=4 n=69 v=64
443520 On ch=4 n=69 v=69
443521 Off ch=4 n=69 v=64
443760 On ch=4 n=69 v=46
443761 Off ch=4 n=69 v=64
444000 On ch=4 n=69 v=59
444001 Off ch=4 n=69 v=64
444240 On ch=4 n=69 v=43
444241 Off ch=4 n=69 v=64
444480 On ch=4 n=69 v=61
444481 Off ch=4 n=69 v=64
444720 On ch=4 n=69 v=46
444721 Off ch=4 n=69 v=64
444960 On ch=4 n=69 v=59
444961 Off ch=4 n=69 v=64
445200 On ch=4 n=69 v=43
445201 Off ch=4 n=69 v=64
445440 On ch=4 n=69 v=76
445441 Off ch=4 n=69 v=64
445680 On ch=4 n=69 v=46
445681 Off ch=4 n=69 v=64
445920 On ch=4 n=69 v=59
445921 Off ch=4 n=69 v=64
446160 On ch=4 n=69 v=43
446161 Off ch=4 n=69 v=64
446400 On ch=4 n=69 v=62
446401 Off ch=4 n=69 v=64
446640 On ch=4 n=69 v=46
446641 Off ch=4 n=69 v=64
446880 On ch=4 n=69 v=59
446881 Off ch=4 n=69 v=64
447120 On ch=4 n=69 v=43
447121 Off ch=4 n=69 v=64
447360 On ch=4 n=69 v=69
447361 Off ch=4 n=69 v=64
447600 On ch=4 n=69 v=46
447601 Off ch=4 n=69 v=64
447840 On ch=4 n=69 v=59
447841 Off ch=4 n=69 v=64
448080 On ch=4 n=69 v=43
448081 Off ch=4 n=69 v=64
448320 On ch=4 n=69 v=61
448321 Off ch=4 n=69 v=64
448560 On ch=4 n=69 v=46
448561 Off ch=4 n=69 v=64
448800 On ch=4 n=69 v=59
448801 Off ch=4 n=69 v=64
449040 On ch=4 n=69 v=43
449041 Off ch=4 n=69 v=64
449280 On ch=4 n=69 v=76
449281 Off ch=4 n=69 v=64
449520 On ch=4 n=69 v=46
449521 Off ch=4 n=69 v=64
449760 On ch=4 n=69 v=59
449761 Off ch=4 n=69 v=64
450000 On ch=4 n=69 v=43
450001 Off ch=4 n=69 v=64
450240 On ch=4 n=69 v=62
450241 Off ch=4 n=69 v=64
450480 On ch=4 n=69 v=46
450481 Off ch=4 n=69 v=64
450720 On ch=4 n=69 v=59
450721 Off ch=4 n=69 v=64
450960 On ch=4 n=69 v=43
450961 Off ch=4 n=69 v=64
451200 On ch=4 n=69 v=69
451201 Off ch=4 n=69 v=64
451440 On ch=4 n=69 v=46
451441 Off ch=4 n=69 v=64
451680 On ch=4 n=69 v=59
451681 Off ch=4 n=69 v=64
451920 On ch=4 n=69 v=43
451921 Off ch=4 n=69 v=64
452160 On ch=4 n=69 v=61
452161 Off ch=4 n=69 v=64
452400 On ch=4 n=69 v=46
452401 Off ch=4 n=69 v=64
452640 On ch=4 n=69 v=59
452641 Off ch=4 n=69 v=64
452880 On ch=4 n=69 v=43
452881 Off ch=4 n=69 v=64
453120 On ch=4 n=69 v=76
453121 Off ch=4 n=69 v=64
453360 On ch=4 n=69 v=46
453361 Off ch=4 n=69 v=64
453600 On ch=4 n=69 v=59
453601 Off ch=4 n=69 v=64
453840 On ch=4 n=69 v=43
453841 Off ch=4 n=69 v=64
454080 On ch=4 n=69 v=62
454081 Off ch=4 n=69 v=64
454320 On ch=4 n=69 v=46
454321 Off ch=4 n=69 v=64
454560 On ch=4 n=69 v=59
454561 Off ch=4 n=69 v=64
454800 On ch=4 n=69 v=43
454801 Off ch=4 n=69 v=64
455040 On ch=4 n=69 v=69
455041 Off ch=4 n=69 v=64
455280 On ch=4 n=69 v=46
455281 Off ch=4 n=69 v=64
455520 On ch=4 n=69 v=59
455521 Off ch=4 n=69 v=64
455760 On ch=4 n=69 v=43
455761 Off ch=4 n=69 v=64
456000 On ch=4 n=69 v=61
456001 Off ch=4 n=69 v=64
456240 On ch=4 n=69 v=46
456241 Off ch=4 n=69 v=64
456480 On ch=4 n=69 v=59
456481 Off ch=4 n=69 v=64
456720 On ch=4 n=69 v=43
456721 Off ch=4 n=69 v=64
456960 On ch=4 n=69 v=76
456961 Off ch=4 n=69 v=64
457200 On ch=4 n=69 v=46
457201 Off ch=4 n=69 v=64
457440 On ch=4 n=69 v=59
457441 Off ch=4 n=69 v=64
457680 On ch=4 n=69 v=43
457681 Off ch=4 n=69 v=64
457920 On ch=4 n=69 v=62
457921 Off ch=4 n=69 v=64
458160 On ch=4 n=69 v=46
458161 Off ch=4 n=69 v=64
458400 On ch=4 n=69 v=59
458401 Off ch=4 n=69 v=64
458640 On ch=4 n=69 v=43
458641 Off ch=4 n=69 v=64
458880 On ch=4 n=69 v=69
458881 Off ch=4 n=69 v=64
459120 On ch=4 n=69 v=46
459121 Off ch=4 n=69 v=64
459360 On ch=4 n=69 v=59
459361 Off ch=4 n=69 v=64
459600 On ch=4 n=69 v=43
459601 Off ch=4 n=69 v=64
459840 On ch=4 n=69 v=61
459841 Off ch=4 n=69 v=64
460080 On ch=4 n=69 v=46
460081 Off ch=4 n=69 v=64
460320 On ch=4 n=69 v=59
460321 Off ch=4 n=69 v=64
460560 On ch=4 n=69 v=43
460561 Off ch=4 n=69 v=64
460800 On ch=4 n=69 v=76
460801 Off ch=4 n=69 v=64
461040 On ch=4 n=69 v=46
461041 Off ch=4 n=69 v=64
461280 On ch=4 n=69 v=59
461281 Off ch=4 n=69 v=64
461520 On ch=4 n=69 v=43
461521 Off ch=4 n=69 v=64
461760 On ch=4 n=69 v=62
461761 Off ch=4 n=69 v=64
462000 On ch=4 n=69 v=46
462001 Off ch=4 n=69 v=64
462240 On ch=4 n=69 v=59
462241 Off ch=4 n=69 v=64
462480 On ch=4 n=69 v=43
462481 Off ch=4 n=69 v=64
462720 On ch=4 n=69 v=69
462721 Off ch=4 n=69 v=64
462721 Meta TrkEnd
TrkEnd
MTrk
0 SeqSpec 43 00 01 ff
0 Meta TrkName "Piano"
1920 PrCh ch=5 p=13
1930 Par ch=5 c=7 v=81
1940 Par ch=5 c=10 v=64
1950 Par ch=5 c=11 v=127
1960 Par ch=5 c=20 v=127
1970 Par ch=5 c=91 v=0
1980 Par ch=5 c=93 v=0
1990 Par ch=5 c=94 v=0
2000 Par ch=5 c=101 v=0
2010 Par ch=5 c=100 v=0
2020 Par ch=5 c=6 v=2
2030 Par ch=5 c=101 v=127
2040 Par ch=5 c=100 v=127
34560 On ch=5 n=39 v=100
35040 Off ch=5 n=39 v=100
35040 On ch=5 n=39 v=90
35280 Off ch=5 n=39 v=100
35280 On ch=5 n=51 v=90
35520 Off ch=5 n=51 v=100
35760 On ch=5 n=51 v=90
36000 Off ch=5 n=51 v=100
36000 On ch=5 n=49 v=90
36240 Off ch=5 n=49 v=100
36240 On ch=5 n=51 v=90
36480 Off ch=5 n=51 v=100
36480 On ch=5 n=39 v=100
36960 Off ch=5 n=39 v=100
36960 On ch=5 n=39 v=90
37200 Off ch=5 n=39 v=100
37200 On ch=5 n=51 v=90
37440 Off ch=5 n=51 v=100
37680 On ch=5 n=51 v=90
37920 Off ch=5 n=51 v=100
37920 On ch=5 n=49 v=90
38160 Off ch=5 n=49 v=100
38160 On ch=5 n=51 v=90
38400 Off ch=5 n=51 v=100
38400 On ch=5 n=39 v=100
38880 Off ch=5 n=39 v=100
38880 On ch=5 n=39 v=90
39120 Off ch=5 n=39 v=100
39120 On ch=5 n=51 v=90
39360 Off ch=5 n=51 v=100
39600 On ch=5 n=51 v=90
39840 Off ch=5 n=51 v=100
39840 On ch=5 n=49 v=90
40080 Off ch=5 n=49 v=100
40080 On ch=5 n=51 v=90
40320 Off ch=5 n=51 v=100
40320 On ch=5 n=39 v=100
40800 Off ch=5 n=39 v=100
40800 On ch=5 n=51 v=90
41040 Off ch=5 n=51 v=100
41040 On ch=5 n=54 v=90
41280 Off ch=5 n=54 v=100
41280 On ch=5 n=44 v=100
41760 Off ch=5 n=44 v=100
41760 On ch=5 n=54 v=90
42000 Off ch=5 n=54 v=100
42000 On ch=5 n=56 v=90
42240 Off ch=5 n=56 v=100
42240 On ch=5 n=39 v=100
42720 Off ch=5 n=39 v=100
42720 On ch=5 n=39 v=90
42960 Off ch=5 n=39 v=100
42960 On ch=5 n=51 v=90
43200 Off ch=5 n=51 v=100
43440 On ch=5 n=51 v=90
43680 Off ch=5 n=51 v=100
43680 On ch=5 n=49 v=90
43920 Off ch=5 n=49 v=100
43920 On ch=5 n=51 v=90
44160 Off ch=5 n=51 v=100
44160 On ch=5 n=39 v=100
44640 Off ch=5 n=39 v=100
44640 On ch=5 n=39 v=90
44880 Off ch=5 n=39 v=100
44880 On ch=5 n=51 v=90
45120 Off ch=5 n=51 v=100
45360 On ch=5 n=51 v=90
45600 Off ch=5 n=51 v=100
45600 On ch=5 n=49 v=90
45840 Off ch=5 n=49 v=100
45840 On ch=5 n=51 v=90
46080 Off ch=5 n=51 v=100
46080 On ch=5 n=39 v=100
46560 Off ch=5 n=39 v=100
46560 On ch=5 n=39 v=90
46800 Off ch=5 n=39 v=100
46800 On ch=5 n=51 v=90
47040 Off ch=5 n=51 v=100
47280 On ch=5 n=51 v=90
47520 Off ch=5 n=51 v=100
47520 On ch=5 n=49 v=90
47760 Off ch=5 n=49 v=100
47760 On ch=5 n=51 v=90
48000 Off ch=5 n=51 v=100
48000 On ch=5 n=44 v=100
48480 Off ch=5 n=44 v=100
48480 On ch=5 n=54 v=90
48720 Off ch=5 n=54 v=100
48720 On ch=5 n=56 v=90
48960 Off ch=5 n=56 v=100
48960 On ch=5 n=42 v=100
49440 Off ch=5 n=42 v=100
49440 On ch=5 n=51 v=90
49680 Off ch=5 n=51 v=100
49680 On ch=5 n=54 v=90
49920 Off ch=5 n=54 v=100
49920 On ch=5 n=39 v=100
50400 Off ch=5 n=39 v=100
50400 On ch=5 n=39 v=90
50640 Off ch=5 n=39 v=100
50640 On ch=5 n=51 v=90
50880 Off ch=5 n=51 v=100
51120 On ch=5 n=51 v=90
51360 Off ch=5 n=51 v=100
51360 On ch=5 n=49 v=90
51600 Off ch=5 n=49 v=100
51600 On ch=5 n=51 v=90
51840 Off ch=5 n=51 v=100
51840 On ch=5 n=39 v=100
52320 Off ch=5 n=39 v=100
52320 On ch=5 n=39 v=90
52560 Off ch=5 n=39 v=100
52560 On ch=5 n=51 v=90
52800 Off ch=5 n=51 v=100
53040 On ch=5 n=51 v=90
53280 Off ch=5 n=51 v=100
53280 On ch=5 n=49 v=90
53520 Off ch=5 n=49 v=100
53520 On ch=5 n=51 v=90
53760 Off ch=5 n=51 v=100
53760 On ch=5 n=39 v=100
54240 Off ch=5 n=39 v=100
54240 On ch=5 n=39 v=90
54480 Off ch=5 n=39 v=100
54480 On ch=5 n=51 v=90
54720 Off ch=5 n=51 v=100
54960 On ch=5 n=51 v=90
55200 Off ch=5 n=51 v=100
55200 On ch=5 n=49 v=90
55440 Off ch=5 n=49 v=100
55440 On ch=5 n=51 v=90
55680 Off ch=5 n=51 v=100
55680 On ch=5 n=39 v=100
56160 Off ch=5 n=39 v=100
56160 On ch=5 n=51 v=90
56400 Off ch=5 n=51 v=100
56400 On ch=5 n=54 v=90
56640 Off ch=5 n=54 v=100
56640 On ch=5 n=44 v=100
57120 Off ch=5 n=44 v=100
57120 On ch=5 n=54 v=90
57360 Off ch=5 n=54 v=100
57360 On ch=5 n=56 v=90
57600 Off ch=5 n=56 v=100
57600 On ch=5 n=39 v=100
58080 Off ch=5 n=39 v=100
58080 On ch=5 n=39 v=90
58320 Off ch=5 n=39 v=100
58320 On ch=5 n=51 v=90
58560 Off ch=5 n=51 v=100
58800 On ch=5 n=51 v=90
59040 Off ch=5 n=51 v=100
59040 On ch=5 n=49 v=90
59280 Off ch=5 n=49 v=100
59280 On ch=5 n=51 v=90
59520 Off ch=5 n=51 v=100
59520 On ch=5 n=39 v=100
60000 Off ch=5 n=39 v=100
60000 On ch=5 n=39 v=90
60240 Off ch=5 n=39 v=100
60240 On ch=5 n=51 v=90
60480 Off ch=5 n=51 v=100
60720 On ch=5 n=51 v=90
60960 Off ch=5 n=51 v=100
60960 On ch=5 n=49 v=90
61200 Off ch=5 n=49 v=100
61200 On ch=5 n=51 v=90
61440 Off ch=5 n=51 v=100
61440 On ch=5 n=39 v=100
61920 Off ch=5 n=39 v=100
61920 On ch=5 n=39 v=90
62160 Off ch=5 n=39 v=100
62160 On ch=5 n=51 v=90
62400 Off ch=5 n=51 v=100
62640 On ch=5 n=51 v=90
62880 Off ch=5 n=51 v=100
62880 On ch=5 n=49 v=90
63120 Off ch=5 n=49 v=100
63120 On ch=5 n=51 v=90
63360 Off ch=5 n=51 v=100
63360 On ch=5 n=44 v=100
63840 Off ch=5 n=44 v=100
63840 On ch=5 n=54 v=90
64080 Off ch=5 n=54 v=100
64080 On ch=5 n=56 v=90
64320 Off ch=5 n=56 v=100
64320 On ch=5 n=42 v=100
64800 Off ch=5 n=42 v=100
64800 On ch=5 n=51 v=90
65040 Off ch=5 n=51 v=100
65040 On ch=5 n=54 v=90
65280 Off ch=5 n=54 v=100
65280 On ch=5 n=39 v=100
65760 Off ch=5 n=39 v=100
65760 On ch=5 n=39 v=90
66000 Off ch=5 n=39 v=100
66000 On ch=5 n=51 v=90
66240 Off ch=5 n=51 v=100
66480 On ch=5 n=51 v=90
66720 Off ch=5 n=51 v=100
66720 On ch=5 n=49 v=90
66960 Off ch=5 n=49 v=100
66960 On ch=5 n=51 v=90
67200 Off ch=5 n=51 v=100
67200 On ch=5 n=39 v=100
67680 Off ch=5 n=39 v=100
67680 On ch=5 n=39 v=90
67920 Off ch=5 n=39 v=100
67920 On ch=5 n=51 v=90
68160 Off ch=5 n=51 v=100
68400 On ch=5 n=51 v=90
68640 Off ch=5 n=51 v=100
68640 On ch=5 n=49 v=90
68880 Off ch=5 n=49 v=100
68880 On ch=5 n=51 v=90
69120 Off ch=5 n=51 v=100
69120 On ch=5 n=39 v=100
69600 Off ch=5 n=39 v=100
69600 On ch=5 n=39 v=90
69840 Off ch=5 n=39 v=100
69840 On ch=5 n=51 v=90
70080 Off ch=5 n=51 v=100
70320 On ch=5 n=51 v=90
70560 Off ch=5 n=51 v=100
70560 On ch=5 n=49 v=90
70800 Off ch=5 n=49 v=100
70800 On ch=5 n=51 v=90
71040 Off ch=5 n=51 v=100
71040 On ch=5 n=39 v=100
71520 Off ch=5 n=39 v=100
71520 On ch=5 n=51 v=90
71760 Off ch=5 n=51 v=100
71760 On ch=5 n=54 v=90
72000 Off ch=5 n=54 v=100
72000 On ch=5 n=44 v=100
72480 Off ch=5 n=44 v=100
72480 On ch=5 n=54 v=90
72720 Off ch=5 n=54 v=100
72720 On ch=5 n=56 v=90
72960 Off ch=5 n=56 v=100
72960 On ch=5 n=39 v=100
73440 Off ch=5 n=39 v=100
73440 On ch=5 n=39 v=90
73680 Off ch=5 n=39 v=100
73680 On ch=5 n=51 v=90
73920 Off ch=5 n=51 v=100
74160 On ch=5 n=51 v=90
74400 Off ch=5 n=51 v=100
74400 On ch=5 n=49 v=90
74640 Off ch=5 n=49 v=100
74640 On ch=5 n=51 v=90
74880 Off ch=5 n=51 v=100
74880 On ch=5 n=39 v=100
75360 Off ch=5 n=39 v=100
75360 On ch=5 n=39 v=90
75600 Off ch=5 n=39 v=100
75600 On ch=5 n=51 v=90
75840 Off ch=5 n=51 v=100
76080 On ch=5 n=51 v=90
76320 Off ch=5 n=51 v=100
76320 On ch=5 n=49 v=90
76560 Off ch=5 n=49 v=100
76560 On ch=5 n=51 v=90
76800 Off ch=5 n=51 v=100
76800 On ch=5 n=39 v=100
77280 Off ch=5 n=39 v=100
77280 On ch=5 n=39 v=90
77520 Off ch=5 n=39 v=100
77520 On ch=5 n=51 v=90
77760 Off ch=5 n=51 v=100
78000 On ch=5 n=51 v=90
78240 Off ch=5 n=51 v=100
78240 On ch=5 n=49 v=90
78480 Off ch=5 n=49 v=100
78480 On ch=5 n=51 v=90
78720 Off ch=5 n=51 v=100
78720 On ch=5 n=44 v=100
79200 Off ch=5 n=44 v=100
79200 On ch=5 n=54 v=90
79440 Off ch=5 n=54 v=100
79440 On ch=5 n=56 v=90
79680 Off ch=5 n=56 v=100
79680 On ch=5 n=42 v=100
80160 Off ch=5 n=42 v=100
80160 On ch=5 n=51 v=90
80400 Off ch=5 n=51 v=100
80400 On ch=5 n=54 v=90
80640 Off ch=5 n=54 v=100
80640 On ch=5 n=39 v=100
81120 Off ch=5 n=39 v=100
81120 On ch=5 n=39 v=90
81360 Off ch=5 n=39 v=100
81360 On ch=5 n=51 v=90
81600 Off ch=5 n=51 v=100
81840 On ch=5 n=51 v=90
82080 Off ch=5 n=51 v=100
82080 On ch=5 n=49 v=90
82320 Off ch=5 n=49 v=100
82320 On ch=5 n=51 v=90
82560 Off ch=5 n=51 v=100
82560 On ch=5 n=39 v=100
83040 Off ch=5 n=39 v=100
83040 On ch=5 n=39 v=90
83280 Off ch=5 n=39 v=100
83280 On ch=5 n=51 v=90
83520 Off ch=5 n=51 v=100
83760 On ch=5 n=51 v=90
84000 Off ch=5 n=51 v=100
84000 On ch=5 n=49 v=90
84240 Off ch=5 n=49 v=100
84240 On ch=5 n=51 v=90
84480 Off ch=5 n=51 v=100
84480 On ch=5 n=39 v=100
84960 Off ch=5 n=39 v=100
84960 On ch=5 n=39 v=90
85200 Off ch=5 n=39 v=100
85200 On ch=5 n=51 v=90
85440 Off ch=5 n=51 v=100
85680 On ch=5 n=51 v=90
85920 Off ch=5 n=51 v=100
85920 On ch=5 n=49 v=90
86160 Off ch=5 n=49 v=100
86160 On ch=5 n=51 v=90
86400 Off ch=5 n=51 v=100
86400 On ch=5 n=39 v=100
86880 Off ch=5 n=39 v=100
86880 On ch=5 n=51 v=90
87120 Off ch=5 n=51 v=100
87120 On ch=5 n=54 v=90
87360 Off ch=5 n=54 v=100
87360 On ch=5 n=44 v=100
87840 Off ch=5 n=44 v=100
87840 On ch=5 n=54 v=90
88080 Off ch=5 n=54 v=100
88080 On ch=5 n=56 v=90
88320 Off ch=5 n=56 v=100
88320 On ch=5 n=39 v=100
88800 Off ch=5 n=39 v=100
88800 On ch=5 n=39 v=90
89040 Off ch=5 n=39 v=100
89040 On ch=5 n=51 v=90
89280 Off ch=5 n=51 v=100
89520 On ch=5 n=51 v=90
89760 Off ch=5 n=51 v=100
89760 On ch=5 n=49 v=90
90000 Off ch=5 n=49 v=100
90000 On ch=5 n=51 v=90
90240 Off ch=5 n=51 v=100
90240 On ch=5 n=39 v=100
90720 Off ch=5 n=39 v=100
90720 On ch=5 n=39 v=90
90960 Off ch=5 n=39 v=100
90960 On ch=5 n=51 v=90
91200 Off ch=5 n=51 v=100
91440 On ch=5 n=51 v=90
91680 Off ch=5 n=51 v=100
91680 On ch=5 n=49 v=90
91920 Off ch=5 n=49 v=100
91920 On ch=5 n=51 v=90
92160 Off ch=5 n=51 v=100
92160 On ch=5 n=39 v=100
92640 Off ch=5 n=39 v=100
92640 On ch=5 n=39 v=90
92880 Off ch=5 n=39 v=100
92880 On ch=5 n=51 v=90
93120 Off ch=5 n=51 v=100
93360 On ch=5 n=51 v=90
93600 Off ch=5 n=51 v=100
93600 On ch=5 n=49 v=90
93840 Off ch=5 n=49 v=100
93840 On ch=5 n=51 v=90
94080 Off ch=5 n=51 v=100
94080 On ch=5 n=44 v=100
94560 Off ch=5 n=44 v=100
94560 On ch=5 n=54 v=90
94800 Off ch=5 n=54 v=100
94800 On ch=5 n=56 v=90
95040 Off ch=5 n=56 v=100
95040 On ch=5 n=42 v=100
95520 Off ch=5 n=42 v=100
95520 On ch=5 n=51 v=90
95760 Off ch=5 n=51 v=100
95760 On ch=5 n=54 v=90
96000 Off ch=5 n=54 v=100
96000 On ch=5 n=39 v=100
96480 Off ch=5 n=39 v=100
96480 On ch=5 n=39 v=90
96720 Off ch=5 n=39 v=100
96720 On ch=5 n=51 v=90
96960 Off ch=5 n=51 v=100
97200 On ch=5 n=51 v=90
97440 Off ch=5 n=51 v=100
97440 On ch=5 n=49 v=90
97680 Off ch=5 n=49 v=100
97680 On ch=5 n=51 v=90
97920 Off ch=5 n=51 v=100
97920 On ch=5 n=39 v=100
98400 Off ch=5 n=39 v=100
98400 On ch=5 n=39 v=90
98640 Off ch=5 n=39 v=100
98640 On ch=5 n=51 v=90
98880 Off ch=5 n=51 v=100
99120 On ch=5 n=51 v=90
99360 Off ch=5 n=51 v=100
99360 On ch=5 n=49 v=90
99600 Off ch=5 n=49 v=100
99600 On ch=5 n=51 v=90
99840 Off ch=5 n=51 v=100
99840 On ch=5 n=39 v=100
100320 Off ch=5 n=39 v=100
100320 On ch=5 n=39 v=90
100560 Off ch=5 n=39 v=100
100560 On ch=5 n=51 v=90
100800 Off ch=5 n=51 v=100
101040 On ch=5 n=51 v=90
101280 Off ch=5 n=51 v=100
101280 On ch=5 n=49 v=90
101520 Off ch=5 n=49 v=100
101520 On ch=5 n=51 v=90
101760 Off ch=5 n=51 v=100
101760 On ch=5 n=39 v=100
102240 Off ch=5 n=39 v=100
102240 On ch=5 n=51 v=90
102480 Off ch=5 n=51 v=100
102480 On ch=5 n=54 v=90
102720 Off ch=5 n=54 v=100
102720 On ch=5 n=44 v=100
103200 Off ch=5 n=44 v=100
103200 On ch=5 n=54 v=90
103440 Off ch=5 n=54 v=100
103440 On ch=5 n=56 v=90
103680 Off ch=5 n=56 v=100
103680 On ch=5 n=39 v=100
104160 Off ch=5 n=39 v=100
104160 On ch=5 n=39 v=90
104400 Off ch=5 n=39 v=100
104400 On ch=5 n=51 v=90
104640 Off ch=5 n=51 v=100
104880 On ch=5 n=51 v=90
105120 Off ch=5 n=51 v=100
105120 On ch=5 n=49 v=90
105360 Off ch=5 n=49 v=100
105360 On ch=5 n=51 v=90
105600 Off ch=5 n=51 v=100
105600 On ch=5 n=39 v=100
106080 Off ch=5 n=39 v=100
106080 On ch=5 n=39 v=90
106320 Off ch=5 n=39 v=100
106320 On ch=5 n=51 v=90
106560 Off ch=5 n=51 v=100
106800 On ch=5 n=51 v=90
107040 Off ch=5 n=51 v=100
107040 On ch=5 n=49 v=90
107280 Off ch=5 n=49 v=100
107280 On ch=5 n=51 v=90
107520 Off ch=5 n=51 v=100
107520 On ch=5 n=39 v=100
108000 Off ch=5 n=39 v=100
108000 On ch=5 n=39 v=90
108240 Off ch=5 n=39 v=100
108240 On ch=5 n=51 v=90
108480 Off ch=5 n=51 v=100
108720 On ch=5 n=51 v=90
108960 Off ch=5 n=51 v=100
108960 On ch=5 n=49 v=90
109200 Off ch=5 n=49 v=100
109200 On ch=5 n=51 v=90
109440 Off ch=5 n=51 v=100
109440 On ch=5 n=44 v=100
109920 Off ch=5 n=44 v=100
109920 On ch=5 n=54 v=90
110160 Off ch=5 n=54 v=100
110160 On ch=5 n=56 v=90
110400 Off ch=5 n=56 v=100
110400 On ch=5 n=42 v=100
110880 Off ch=5 n=42 v=100
110880 On ch=5 n=51 v=90
111120 Off ch=5 n=51 v=100
111120 On ch=5 n=54 v=90
111360 Off ch=5 n=54 v=100
111360 On ch=5 n=39 v=100
111840 Off ch=5 n=39 v=100
111840 On ch=5 n=39 v=90
112080 Off ch=5 n=39 v=100
112080 On ch=5 n=51 v=90
112320 Off ch=5 n=51 v=100
112560 On ch=5 n=51 v=90
112800 Off ch=5 n=51 v=100
112800 On ch=5 n=49 v=90
113040 Off ch=5 n=49 v=100
113040 On ch=5 n=51 v=90
113280 Off ch=5 n=51 v=100
113280 On ch=5 n=39 v=100
113760 Off ch=5 n=39 v=100
113760 On ch=5 n=39 v=90
114000 Off ch=5 n=39 v=100
114000 On ch=5 n=51 v=90
114240 Off ch=5 n=51 v=100
114480 On ch=5 n=51 v=90
114720 Off ch=5 n=51 v=100
114720 On ch=5 n=49 v=90
114960 Off ch=5 n=49 v=100
114960 On ch=5 n=51 v=90
115200 Off ch=5 n=51 v=100
115200 On ch=5 n=39 v=100
115680 Off ch=5 n=39 v=100
115680 On ch=5 n=39 v=90
115920 Off ch=5 n=39 v=100
115920 On ch=5 n=51 v=90
116160 Off ch=5 n=51 v=100
116400 On ch=5 n=51 v=90
116640 Off ch=5 n=51 v=100
116640 On ch=5 n=49 v=90
116880 Off ch=5 n=49 v=100
116880 On ch=5 n=51 v=90
117120 Off ch=5 n=51 v=100
117120 On ch=5 n=39 v=100
117600 Off ch=5 n=39 v=100
117600 On ch=5 n=51 v=90
117840 Off ch=5 n=51 v=100
117840 On ch=5 n=54 v=90
118080 Off ch=5 n=54 v=100
118080 On ch=5 n=44 v=100
118560 Off ch=5 n=44 v=100
118560 On ch=5 n=54 v=90
118800 Off ch=5 n=54 v=100
118800 On ch=5 n=56 v=90
119040 Off ch=5 n=56 v=100
119040 On ch=5 n=39 v=100
119520 Off ch=5 n=39 v=100
119520 On ch=5 n=39 v=90
119760 Off ch=5 n=39 v=100
119760 On ch=5 n=51 v=90
120000 Off ch=5 n=51 v=100
120240 On ch=5 n=51 v=90
120480 Off ch=5 n=51 v=100
120480 On ch=5 n=49 v=90
120720 Off ch=5 n=49 v=100
120720 On ch=5 n=51 v=90
120960 Off ch=5 n=51 v=100
120960 On ch=5 n=39 v=100
121440 Off ch=5 n=39 v=100
121440 On ch=5 n=39 v=90
121680 Off ch=5 n=39 v=100
121680 On ch=5 n=51 v=90
121920 Off ch=5 n=51 v=100
122160 On ch=5 n=51 v=90
122400 Off ch=5 n=51 v=100
122400 On ch=5 n=49 v=90
122640 Off ch=5 n=49 v=100
122640 On ch=5 n=51 v=90
122880 Off ch=5 n=51 v=100
122880 On ch=5 n=39 v=100
123360 Off ch=5 n=39 v=100
123360 On ch=5 n=39 v=90
123600 Off ch=5 n=39 v=100
123600 On ch=5 n=51 v=90
123840 Off ch=5 n=51 v=100
124080 On ch=5 n=51 v=90
124320 Off ch=5 n=51 v=100
124320 On ch=5 n=49 v=90
124560 Off ch=5 n=49 v=100
124560 On ch=5 n=51 v=90
124800 Off ch=5 n=51 v=100
124800 On ch=5 n=44 v=100
125280 Off ch=5 n=44 v=100
125280 On ch=5 n=54 v=90
125520 Off ch=5 n=54 v=100
125520 On ch=5 n=56 v=90
125760 Off ch=5 n=56 v=100
125760 On ch=5 n=42 v=100
126240 Off ch=5 n=42 v=100
126240 On ch=5 n=51 v=90
126480 Off ch=5 n=51 v=100
126480 On ch=5 n=54 v=90
126720 Off ch=5 n=54 v=100
218880 On ch=5 n=39 v=115
218880 Par ch=5 c=7 v=101
219360 Off ch=5 n=39 v=100
219360 On ch=5 n=39 v=105
219600 Off ch=5 n=39 v=100
219600 On ch=5 n=51 v=105
219840 Off ch=5 n=51 v=100
220080 On ch=5 n=51 v=105
220320 Off ch=5 n=51 v=100
220320 On ch=5 n=49 v=105
220560 Off ch=5 n=49 v=100
220560 On ch=5 n=51 v=105
220800 Off ch=5 n=51 v=100
220800 On ch=5 n=39 v=115
221280 Off ch=5 n=39 v=100
221280 On ch=5 n=39 v=105
221520 Off ch=5 n=39 v=100
221520 On ch=5 n=51 v=105
221760 Off ch=5 n=51 v=100
222000 On ch=5 n=51 v=105
222240 Off ch=5 n=51 v=100
222240 On ch=5 n=49 v=105
222480 Off ch=5 n=49 v=100
222480 On ch=5 n=51 v=105
222720 Off ch=5 n=51 v=100
222720 On ch=5 n=39 v=115
223200 Off ch=5 n=39 v=100
223200 On ch=5 n=39 v=105
223440 Off ch=5 n=39 v=100
223440 On ch=5 n=51 v=105
223680 Off ch=5 n=51 v=100
223920 On ch=5 n=51 v=105
224160 Off ch=5 n=51 v=100
224160 On ch=5 n=49 v=105
224400 Off ch=5 n=49 v=100
224400 On ch=5 n=51 v=105
224640 Off ch=5 n=51 v=100
224640 On ch=5 n=39 v=115
225120 Off ch=5 n=39 v=100
225120 On ch=5 n=51 v=105
225360 Off ch=5 n=51 v=100
225360 On ch=5 n=54 v=105
225600 Off ch=5 n=54 v=100
225600 On ch=5 n=44 v=115
226080 Off ch=5 n=44 v=100
226080 On ch=5 n=54 v=105
226320 Off ch=5 n=54 v=100
226320 On ch=5 n=56 v=105
226560 Off ch=5 n=56 v=100
226560 On ch=5 n=39 v=115
227040 Off ch=5 n=39 v=100
227040 On ch=5 n=39 v=105
227280 Off ch=5 n=39 v=100
227280 On ch=5 n=51 v=105
227520 Off ch=5 n=51 v=100
227760 On ch=5 n=51 v=105
228000 Off ch=5 n=51 v=100
228000 On ch=5 n=49 v=105
228240 Off ch=5 n=49 v=100
228240 On ch=5 n=51 v=105
228480 Off ch=5 n=51 v=100
228480 On ch=5 n=39 v=115
228960 Off ch=5 n=39 v=100
228960 On ch=5 n=39 v=105
229200 Off ch=5 n=39 v=100
229200 On ch=5 n=51 v=105
229440 Off ch=5 n=51 v=100
229680 On ch=5 n=51 v=105
229920 Off ch=5 n=51 v=100
229920 On ch=5 n=49 v=105
230160 Off ch=5 n=49 v=100
230160 On ch=5 n=51 v=105
230400 Off ch=5 n=51 v=100
230400 On ch=5 n=39 v=115
230880 Off ch=5 n=39 v=100
230880 On ch=5 n=39 v=105
231120 Off ch=5 n=39 v=100
231120 On ch=5 n=51 v=105
231360 Off ch=5 n=51 v=100
231600 On ch=5 n=51 v=105
231840 Off ch=5 n=51 v=100
231840 On ch=5 n=49 v=105
232080 Off ch=5 n=49 v=100
232080 On ch=5 n=51 v=105
232320 Off ch=5 n=51 v=100
232320 On ch=5 n=44 v=115
232800 Off ch=5 n=44 v=100
232800 On ch=5 n=54 v=105
233040 Off ch=5 n=54 v=100
233040 On ch=5 n=56 v=105
233280 Off ch=5 n=56 v=100
233280 On ch=5 n=42 v=115
233760 Off ch=5 n=42 v=100
233760 On ch=5 n=51 v=105
234000 Off ch=5 n=51 v=100
234000 On ch=5 n=54 v=105
234240 Off ch=5 n=54 v=100
234240 On ch=5 n=39 v=115
234720 Off ch=5 n=39 v=100
234720 On ch=5 n=39 v=105
234960 Off ch=5 n=39 v=100
234960 On ch=5 n=51 v=105
235200 Off ch=5 n=51 v=100
235440 On ch=5 n=51 v=105
235680 Off ch=5 n=51 v=100
235680 On ch=5 n=49 v=105
235920 Off ch=5 n=49 v=100
235920 On ch=5 n=51 v=105
236160 Off ch=5 n=51 v=100
236160 On ch=5 n=39 v=115
236640 Off ch=5 n=39 v=100
236640 On ch=5 n=39 v=105
236880 Off ch=5 n=39 v=100
236880 On ch=5 n=51 v=105
237120 Off ch=5 n=51 v=100
237360 On ch=5 n=51 v=105
237600 Off ch=5 n=51 v=100
237600 On ch=5 n=49 v=105
237840 Off ch=5 n=49 v=100
237840 On ch=5 n=51 v=105
238080 Off ch=5 n=51 v=100
238080 On ch=5 n=39 v=115
238560 Off ch=5 n=39 v=100
238560 On ch=5 n=39 v=105
238800 Off ch=5 n=39 v=100
238800 On ch=5 n=51 v=105
239040 Off ch=5 n=51 v=100
239280 On ch=5 n=51 v=105
239520 Off ch=5 n=51 v=100
239520 On ch=5 n=49 v=105
239760 Off ch=5 n=49 v=100
239760 On ch=5 n=51 v=105
240000 Off ch=5 n=51 v=100
240000 On ch=5 n=39 v=115
240480 Off ch=5 n=39 v=100
240480 On ch=5 n=51 v=105
240720 Off ch=5 n=51 v=100
240720 On ch=5 n=54 v=105
240960 Off ch=5 n=54 v=100
240960 On ch=5 n=44 v=115
241440 Off ch=5 n=44 v=100
241440 On ch=5 n=54 v=105
241680 Off ch=5 n=54 v=100
241680 On ch=5 n=56 v=105
241920 Off ch=5 n=56 v=100
241920 On ch=5 n=39 v=115
242400 Off ch=5 n=39 v=100
242400 On ch=5 n=39 v=105
242640 Off ch=5 n=39 v=100
242640 On ch=5 n=51 v=105
242880 Off ch=5 n=51 v=100
243120 On ch=5 n=51 v=105
243360 Off ch=5 n=51 v=100
243360 On ch=5 n=49 v=105
243600 Off ch=5 n=49 v=100
243600 On ch=5 n=51 v=105
243840 Off ch=5 n=51 v=100
243840 On ch=5 n=39 v=115
244320 Off ch=5 n=39 v=100
244320 On ch=5 n=39 v=105
244560 Off ch=5 n=39 v=100
244560 On ch=5 n=51 v=105
244800 Off ch=5 n=51 v=100
245040 On ch=5 n=51 v=105
245280 Off ch=5 n=51 v=100
245280 On ch=5 n=49 v=105
245520 Off ch=5 n=49 v=100
245520 On ch=5 n=51 v=105
245760 Off ch=5 n=51 v=100
245760 On ch=5 n=39 v=115
246240 Off ch=5 n=39 v=100
246240 On ch=5 n=39 v=105
246480 Off ch=5 n=39 v=100
246480 On ch=5 n=51 v=105
246720 Off ch=5 n=51 v=100
246960 On ch=5 n=51 v=105
247200 Off ch=5 n=51 v=100
247200 On ch=5 n=49 v=105
247440 Off ch=5 n=49 v=100
247440 On ch=5 n=51 v=105
247680 Off ch=5 n=51 v=100
247680 On ch=5 n=44 v=115
248160 Off ch=5 n=44 v=100
248160 On ch=5 n=54 v=105
248400 Off ch=5 n=54 v=100
248400 On ch=5 n=56 v=105
248640 Off ch=5 n=56 v=100
248640 On ch=5 n=42 v=115
249120 Off ch=5 n=42 v=100
249120 On ch=5 n=51 v=105
249360 Off ch=5 n=51 v=100
249360 On ch=5 n=54 v=105
249600 Off ch=5 n=54 v=100
249600 On ch=5 n=75 v=119
249600 On ch=5 n=63 v=97
249600 Par ch=5 c=7 v=106
249600 On ch=5 n=39 v=115
250080 Off ch=5 n=39 v=100
250080 On ch=5 n=77 v=119
250080 On ch=5 n=65 v=97
250080 On ch=5 n=39 v=99
250176 Off ch=5 n=63 v=64
250176 Off ch=5 n=75 v=64
250320 Off ch=5 n=39 v=100
250320 On ch=5 n=51 v=99
250432 Off ch=5 n=65 v=64
250432 Off ch=5 n=77 v=64
250560 Off ch=5 n=51 v=100
250560 On ch=5 n=78 v=119
250560 On ch=5 n=66 v=97
250800 On ch=5 n=51 v=99
250864 Off ch=5 n=66 v=64
250864 Off ch=5 n=78 v=64
251040 Off ch=5 n=51 v=100
251040 On ch=5 n=80 v=119
251040 On ch=5 n=68 v=97
251040 On ch=5 n=49 v=99
251280 Off ch=5 n=49 v=100
251280 On ch=5 n=51 v=99
251312 Off ch=5 n=68 v=64
251312 Off ch=5 n=80 v=64
251520 Off ch=5 n=51 v=100
251520 On ch=5 n=82 v=119
251520 On ch=5 n=70 v=97
251520 On ch=5 n=39 v=115
252000 Off ch=5 n=39 v=100
252000 On ch=5 n=39 v=99
252240 Off ch=5 n=39 v=100
252240 On ch=5 n=51 v=99
252480 Off ch=5 n=51 v=100
252480 On ch=5 n=87 v=119
252480 On ch=5 n=75 v=97
252512 Off ch=5 n=70 v=64
252512 Off ch=5 n=82 v=64
252720 On ch=5 n=51 v=99
252960 Off ch=5 n=51 v=100
252960 Off ch=5 n=75 v=64
252960 Off ch=5 n=87 v=64
252960 On ch=5 n=85 v=119
252960 On ch=5 n=73 v=97
252960 On ch=5 n=49 v=99
253200 Off ch=5 n=49 v=100
253200 On ch=5 n=51 v=99
253440 Off ch=5 n=51 v=100
253440 Off ch=5 n=73 v=64
253440 Off ch=5 n=85 v=64
253440 On ch=5 n=82 v=119
253440 On ch=5 n=70 v=97
253440 On ch=5 n=39 v=115
253920 Off ch=5 n=39 v=100
253920 On ch=5 n=39 v=99
254160 Off ch=5 n=39 v=100
254160 On ch=5 n=51 v=99
254224 Off ch=5 n=70 v=64
254224 Off ch=5 n=82 v=64
254400 Off ch=5 n=51 v=100
254400 On ch=5 n=75 v=119
254400 On ch=5 n=63 v=97
254640 On ch=5 n=51 v=99
254880 Off ch=5 n=51 v=100
254880 On ch=5 n=49 v=99
255120 Off ch=5 n=49 v=100
255120 On ch=5 n=51 v=99
255360 Off ch=5 n=51 v=100
255360 On ch=5 n=82 v=119
255360 On ch=5 n=70 v=97
255360 On ch=5 n=39 v=115
255408 Off ch=5 n=63 v=64
255408 Off ch=5 n=75 v=64
255840 Off ch=5 n=39 v=100
255840 Off ch=5 n=70 v=64
255840 Off ch=5 n=82 v=64
255840 On ch=5 n=80 v=119
255840 On ch=5 n=68 v=97
255840 On ch=5 n=51 v=99
256080 Off ch=5 n=51 v=100
256080 On ch=5 n=54 v=99
256160 Off ch=5 n=68 v=64
256160 Off ch=5 n=80 v=64
256320 Off ch=5 n=54 v=100
256320 On ch=5 n=78 v=119
256320 On ch=5 n=66 v=97
256320 On ch=5 n=44 v=115
256608 Off ch=5 n=66 v=64
256608 Off ch=5 n=78 v=64
256800 Off ch=5 n=44 v=100
256800 On ch=5 n=77 v=119
256800 On ch=5 n=65 v=97
256800 On ch=5 n=54 v=99
257040 Off ch=5 n=54 v=100
257040 On ch=5 n=56 v=99
257104 Off ch=5 n=65 v=64
257104 Off ch=5 n=77 v=64
257280 Off ch=5 n=56 v=100
257280 On ch=5 n=75 v=119
257280 On ch=5 n=63 v=97
257280 On ch=5 n=39 v=115
257760 Off ch=5 n=39 v=100
257760 Off ch=5 n=63 v=64
257760 Off ch=5 n=75 v=64
257760 On ch=5 n=77 v=119
257760 On ch=5 n=65 v=97
257760 On ch=5 n=39 v=99
258000 Off ch=5 n=39 v=100
258000 On ch=5 n=51 v=99
258096 Off ch=5 n=65 v=64
258096 Off ch=5 n=77 v=64
258240 Off ch=5 n=51 v=100
258240 On ch=5 n=78 v=119
258240 On ch=5 n=66 v=97
258464 Off ch=5 n=66 v=64
258464 Off ch=5 n=78 v=64
258480 On ch=5 n=51 v=99
258720 Off ch=5 n=51 v=100
258720 On ch=5 n=80 v=119
258720 On ch=5 n=68 v=97
258720 On ch=5 n=49 v=99
258896 Off ch=5 n=68 v=64
258896 Off ch=5 n=80 v=64
258960 Off ch=5 n=49 v=100
258960 On ch=5 n=51 v=99
259200 Off ch=5 n=51 v=100
259200 On ch=5 n=82 v=119
259200 On ch=5 n=70 v=97
259200 On ch=5 n=39 v=115
259680 Off ch=5 n=39 v=100
259680 On ch=5 n=39 v=99
259920 Off ch=5 n=39 v=100
259920 On ch=5 n=51 v=99
260160 Off ch=5 n=51 v=100
260160 On ch=5 n=80 v=119
260160 On ch=5 n=68 v=97
260208 Off ch=5 n=70 v=64
260208 Off ch=5 n=82 v=64
260400 On ch=5 n=51 v=99
260464 Off ch=5 n=68 v=64
260464 Off ch=5 n=80 v=64
260640 Off ch=5 n=51 v=100
260640 On ch=5 n=78 v=119
260640 On ch=5 n=66 v=97
260640 On ch=5 n=49 v=99
260880 Off ch=5 n=49 v=100
260880 On ch=5 n=51 v=99
260928 Off ch=5 n=66 v=64
260928 Off ch=5 n=78 v=64
261120 Off ch=5 n=51 v=100
261120 On ch=5 n=77 v=119
261120 On ch=5 n=65 v=97
261120 On ch=5 n=41 v=115
261600 Off ch=5 n=41 v=100
261600 On ch=5 n=75 v=119
261600 On ch=5 n=63 v=97
261600 On ch=5 n=41 v=99
261680 Off ch=5 n=65 v=64
261680 Off ch=5 n=77 v=64
261840 Off ch=5 n=41 v=100
261840 On ch=5 n=53 v=99
261888 Off ch=5 n=63 v=64
261888 Off ch=5 n=75 v=64
262080 Off ch=5 n=53 v=100
262080 On ch=5 n=77 v=119
262080 On ch=5 n=65 v=97
262320 On ch=5 n=53 v=99
262336 Off ch=5 n=65 v=64
262336 Off ch=5 n=77 v=64
262560 Off ch=5 n=53 v=100
262560 On ch=5 n=78 v=119
262560 On ch=5 n=66 v=97
262560 On ch=5 n=51 v=99
262760 On ch=5 n=77 v=110
262800 Off ch=5 n=51 v=100
262800 On ch=5 n=53 v=99
262832 Off ch=5 n=66 v=64
262832 Off ch=5 n=78 v=64
262920 Off ch=5 n=77 v=64
262944 On ch=5 n=78 v=111
263024 On ch=5 n=65 v=97
263040 Off ch=5 n=53 v=100
263040 On ch=5 n=44 v=115
263040 On ch=5 n=77 v=119
263182 Off ch=5 n=78 v=64
263440 Off ch=5 n=77 v=64
263514 Off ch=5 n=65 v=64
263520 Off ch=5 n=44 v=100
263520 On ch=5 n=75 v=119
263520 On ch=5 n=63 v=97
263520 On ch=5 n=56 v=99
263760 Off ch=5 n=56 v=100
263760 On ch=5 n=54 v=99
263824 Off ch=5 n=63 v=64
263824 Off ch=5 n=75 v=64
264000 Off ch=5 n=54 v=100
264000 On ch=5 n=74 v=119
264000 On ch=5 n=62 v=97
264000 On ch=5 n=53 v=115
264320 Off ch=5 n=62 v=64
264320 Off ch=5 n=74 v=64
264480 Off ch=5 n=53 v=100
264480 On ch=5 n=77 v=119
264480 On ch=5 n=65 v=97
264480 On ch=5 n=51 v=99
264720 Off ch=5 n=51 v=100
264720 On ch=5 n=49 v=99
264736 Off ch=5 n=65 v=64
264736 Off ch=5 n=77 v=64
264960 Off ch=5 n=49 v=100
264960 On ch=5 n=75 v=119
264960 On ch=5 n=63 v=97
264960 On ch=5 n=39 v=115
265440 Off ch=5 n=39 v=100
265440 On ch=5 n=77 v=119
265440 On ch=5 n=65 v=97
265440 On ch=5 n=39 v=99
265536 Off ch=5 n=63 v=64
265536 Off ch=5 n=75 v=64
265680 Off ch=5 n=39 v=100
265680 On ch=5 n=51 v=99
265792 Off ch=5 n=65 v=64
265792 Off ch=5 n=77 v=64
265920 Off ch=5 n=51 v=100
265920 On ch=5 n=78 v=119
265920 On ch=5 n=66 v=97
266160 On ch=5 n=51 v=99
266224 Off ch=5 n=66 v=64
266224 Off ch=5 n=78 v=64
266400 Off ch=5 n=51 v=100
266400 On ch=5 n=80 v=119
266400 On ch=5 n=68 v=97
266400 On ch=5 n=49 v=99
266640 Off ch=5 n=49 v=100
266640 On ch=5 n=51 v=99
266672 Off ch=5 n=68 v=64
266672 Off ch=5 n=80 v=64
266880 Off ch=5 n=51 v=100
266880 On ch=5 n=82 v=119
266880 On ch=5 n=70 v=97
266880 On ch=5 n=39 v=115
267360 Off ch=5 n=39 v=100
267360 On ch=5 n=39 v=99
267600 Off ch=5 n=39 v=100
267600 On ch=5 n=51 v=99
267840 Off ch=5 n=51 v=100
267840 On ch=5 n=87 v=119
267840 On ch=5 n=75 v=97
267872 Off ch=5 n=70 v=64
267872 Off ch=5 n=82 v=64
268080 On ch=5 n=51 v=99
268320 Off ch=5 n=51 v=100
268320 Off ch=5 n=75 v=64
268320 Off ch=5 n=87 v=64
268320 On ch=5 n=85 v=119
268320 On ch=5 n=73 v=97
268320 On ch=5 n=49 v=99
268560 Off ch=5 n=49 v=100
268560 On ch=5 n=51 v=99
268800 Off ch=5 n=51 v=100
268800 Off ch=5 n=73 v=64
268800 Off ch=5 n=85 v=64
268800 On ch=5 n=82 v=119
268800 On ch=5 n=70 v=97
268800 On ch=5 n=39 v=115
269280 Off ch=5 n=39 v=100
269280 On ch=5 n=39 v=99
269520 Off ch=5 n=39 v=100
269520 On ch=5 n=51 v=99
269584 Off ch=5 n=70 v=64
269584 Off ch=5 n=82 v=64
269760 Off ch=5 n=51 v=100
269760 On ch=5 n=75 v=119
269760 On ch=5 n=63 v=97
270000 On ch=5 n=51 v=99
270240 Off ch=5 n=51 v=100
270240 On ch=5 n=49 v=99
270480 Off ch=5 n=49 v=100
270480 On ch=5 n=51 v=99
270720 Off ch=5 n=51 v=100
270720 On ch=5 n=82 v=119
270720 On ch=5 n=70 v=97
270720 On ch=5 n=39 v=115
270768 Off ch=5 n=63 v=64
270768 Off ch=5 n=75 v=64
271200 Off ch=5 n=39 v=100
271200 Off ch=5 n=70 v=64
271200 Off ch=5 n=82 v=64
271200 On ch=5 n=80 v=119
271200 On ch=5 n=68 v=97
271200 On ch=5 n=51 v=99
271440 Off ch=5 n=51 v=100
271440 On ch=5 n=54 v=99
271520 Off ch=5 n=68 v=64
271520 Off ch=5 n=80 v=64
271680 Off ch=5 n=54 v=100
271680 On ch=5 n=78 v=119
271680 On ch=5 n=66 v=97
271680 On ch=5 n=44 v=115
271968 Off ch=5 n=66 v=64
271968 Off ch=5 n=78 v=64
272160 Off ch=5 n=44 v=100
272160 On ch=5 n=77 v=119
272160 On ch=5 n=65 v=97
272160 On ch=5 n=54 v=99
272400 Off ch=5 n=54 v=100
272400 On ch=5 n=56 v=99
272464 Off ch=5 n=65 v=64
272464 Off ch=5 n=77 v=64
272640 Off ch=5 n=56 v=100
272640 On ch=5 n=75 v=119
272640 On ch=5 n=63 v=97
272640 On ch=5 n=39 v=115
273120 Off ch=5 n=39 v=100
273120 Off ch=5 n=63 v=64
273120 Off ch=5 n=75 v=64
273120 On ch=5 n=77 v=119
273120 On ch=5 n=65 v=97
273120 On ch=5 n=39 v=99
273360 Off ch=5 n=39 v=100
273360 On ch=5 n=51 v=99
273456 Off ch=5 n=65 v=64
273456 Off ch=5 n=77 v=64
273600 Off ch=5 n=51 v=100
273600 On ch=5 n=78 v=119
273600 On ch=5 n=66 v=97
273824 Off ch=5 n=66 v=64
273824 Off ch=5 n=78 v=64
273840 On ch=5 n=51 v=99
274080 Off ch=5 n=51 v=100
274080 On ch=5 n=80 v=119
274080 On ch=5 n=68 v=97
274080 On ch=5 n=49 v=99
274256 Off ch=5 n=68 v=64
274256 Off ch=5 n=80 v=64
274320 Off ch=5 n=49 v=100
274320 On ch=5 n=51 v=99
274560 Off ch=5 n=51 v=100
274560 On ch=5 n=70 v=97
274560 On ch=5 n=39 v=115
274600 On ch=5 n=82 v=119
275040 Off ch=5 n=39 v=100
275040 On ch=5 n=39 v=99
275060 On ch=5 n=80 v=106
275068 Off ch=5 n=82 v=64
275240 On ch=5 n=82 v=111
275280 Off ch=5 n=39 v=100
275280 On ch=5 n=51 v=99
275300 Off ch=5 n=80 v=64
275440 On ch=5 n=80 v=119
275480 Off ch=5 n=82 v=64
275520 Off ch=5 n=51 v=100
275520 On ch=5 n=68 v=97
275568 Off ch=5 n=70 v=64
275744 Off ch=5 n=80 v=64
275760 On ch=5 n=51 v=99
275824 Off ch=5 n=68 v=64
276000 Off ch=5 n=51 v=100
276000 On ch=5 n=78 v=119
276000 On ch=5 n=66 v=97
276000 On ch=5 n=49 v=99
276240 Off ch=5 n=49 v=100
276240 On ch=5 n=51 v=99
276288 Off ch=5 n=66 v=64
276288 Off ch=5 n=78 v=64
276480 Off ch=5 n=51 v=100
276480 On ch=5 n=77 v=122
276480 On ch=5 n=65 v=117
276480 On ch=5 n=39 v=101
276480 On ch=5 n=70 v=117
276480 On ch=5 n=73 v=117
276840 Off ch=5 n=73 v=64
276840 Off ch=5 n=70 v=64
276840 Off ch=5 n=65 v=64
276840 Off ch=5 n=77 v=64
276960 Off ch=5 n=39 v=100
276960 On ch=5 n=39 v=101
277200 Off ch=5 n=39 v=100
277200 On ch=5 n=51 v=101
277440 Off ch=5 n=51 v=100
277440 On ch=5 n=78 v=122
277440 On ch=5 n=66 v=117
277440 On ch=5 n=70 v=117
277440 On ch=5 n=73 v=117
277680 On ch=5 n=51 v=101
277800 Off ch=5 n=73 v=64
277800 Off ch=5 n=70 v=64
277800 Off ch=5 n=66 v=64
277800 Off ch=5 n=78 v=64
277920 Off ch=5 n=51 v=100
277920 On ch=5 n=49 v=99
278160 Off ch=5 n=49 v=100
278160 On ch=5 n=51 v=102
278400 Off ch=5 n=51 v=100
278400 On ch=5 n=80 v=122
278400 On ch=5 n=74 v=117
278400 On ch=5 n=44 v=105
278400 On ch=5 n=70 v=117
278400 On ch=5 n=77 v=117
278400 On ch=5 n=70 v=117
278760 Off ch=5 n=70 v=64
278760 Off ch=5 n=77 v=64
278760 Off ch=5 n=70 v=64
278760 Off ch=5 n=74 v=64
278760 Off ch=5 n=80 v=64
278880 Off ch=5 n=44 v=100
278880 On ch=5 n=54 v=102
279120 Off ch=5 n=54 v=100
279120 On ch=5 n=56 v=99
279360 Off ch=5 n=56 v=100
279360 On ch=5 n=82 v=122
279360 On ch=5 n=70 v=117
279360 On ch=5 n=54 v=110
279360 On ch=5 n=74 v=117
279360 On ch=5 n=77 v=117
279520 On ch=5 n=53 v=105
279600 Off ch=5 n=54 v=64
279680 On ch=5 n=51 v=107
279720 Off ch=5 n=77 v=64
279720 Off ch=5 n=74 v=64
279720 Off ch=5 n=70 v=64
279720 Off ch=5 n=82 v=64
279760 Off ch=5 n=53 v=64
279840 On ch=5 n=49 v=110
279920 Off ch=5 n=51 v=64
280000 On ch=5 n=47 v=115
280080 Off ch=5 n=49 v=64
280160 On ch=5 n=46 v=122
280240 Off ch=5 n=47 v=100
280320 On ch=5 n=39 v=127
280320 On ch=5 n=75 v=110
280320 On ch=5 n=87 v=126
280320 Par ch=5 c=7 v=110
280400 Off ch=5 n=46 v=100
280800 Off ch=5 n=39 v=100
280800 On ch=5 n=39 v=105
280800 On ch=5 n=77 v=110
280800 On ch=5 n=89 v=126
280896 Off ch=5 n=87 v=64
280896 Off ch=5 n=75 v=64
281040 Off ch=5 n=39 v=100
281040 On ch=5 n=51 v=105
281152 Off ch=5 n=89 v=64
281152 Off ch=5 n=77 v=64
281280 Off ch=5 n=51 v=100
281280 On ch=5 n=78 v=110
281280 On ch=5 n=90 v=126
281520 On ch=5 n=51 v=105
281584 Off ch=5 n=90 v=64
281584 Off ch=5 n=78 v=64
281760 Off ch=5 n=51 v=100
281760 On ch=5 n=49 v=105
281760 On ch=5 n=80 v=110
281760 On ch=5 n=92 v=126
282000 Off ch=5 n=49 v=100
282000 On ch=5 n=51 v=105
282032 Off ch=5 n=92 v=64
282032 Off ch=5 n=80 v=64
282240 Off ch=5 n=51 v=100
282240 On ch=5 n=39 v=115
282240 On ch=5 n=82 v=110
282240 On ch=5 n=94 v=126
282720 Off ch=5 n=39 v=100
282720 On ch=5 n=39 v=105
282960 Off ch=5 n=39 v=100
282960 On ch=5 n=51 v=105
283200 Off ch=5 n=51 v=100
283200 On ch=5 n=87 v=110
283200 On ch=5 n=99 v=126
283232 Off ch=5 n=94 v=64
283232 Off ch=5 n=82 v=64
283440 On ch=5 n=51 v=105
283680 Off ch=5 n=51 v=100
283680 Off ch=5 n=99 v=64
283680 Off ch=5 n=87 v=64
283680 On ch=5 n=49 v=105
283680 On ch=5 n=85 v=110
283680 On ch=5 n=97 v=126
283920 Off ch=5 n=49 v=100
283920 On ch=5 n=51 v=105
284160 Off ch=5 n=51 v=100
284160 Off ch=5 n=97 v=64
284160 Off ch=5 n=85 v=64
284160 On ch=5 n=39 v=115
284160 On ch=5 n=82 v=110
284160 On ch=5 n=94 v=126
284640 Off ch=5 n=39 v=100
284640 On ch=5 n=39 v=105
284880 Off ch=5 n=39 v=100
284880 On ch=5 n=51 v=105
284944 Off ch=5 n=94 v=64
284944 Off ch=5 n=82 v=64
285120 Off ch=5 n=51 v=100
285120 On ch=5 n=75 v=110
285120 On ch=5 n=87 v=126
285360 On ch=5 n=51 v=105
285600 Off ch=5 n=51 v=100
285600 On ch=5 n=49 v=105
285840 Off ch=5 n=49 v=100
285840 On ch=5 n=51 v=105
286080 Off ch=5 n=51 v=100
286080 On ch=5 n=39 v=115
286080 On ch=5 n=82 v=110
286080 On ch=5 n=94 v=126
286128 Off ch=5 n=87 v=64
286128 Off ch=5 n=75 v=64
286560 Off ch=5 n=94 v=64
286560 Off ch=5 n=82 v=64
286560 Off ch=5 n=39 v=100
286560 On ch=5 n=51 v=105
286560 On ch=5 n=80 v=110
286560 On ch=5 n=92 v=126
286800 Off ch=5 n=51 v=100
286800 On ch=5 n=54 v=105
286880 Off ch=5 n=92 v=64
286880 Off ch=5 n=80 v=64
287040 Off ch=5 n=54 v=100
287040 On ch=5 n=44 v=115
287040 On ch=5 n=78 v=110
287040 On ch=5 n=90 v=126
287328 Off ch=5 n=90 v=64
287328 Off ch=5 n=78 v=64
287520 Off ch=5 n=44 v=100
287520 On ch=5 n=54 v=105
287520 On ch=5 n=77 v=110
287520 On ch=5 n=89 v=126
287760 Off ch=5 n=54 v=100
287760 On ch=5 n=56 v=105
287824 Off ch=5 n=89 v=64
287824 Off ch=5 n=77 v=64
288000 Off ch=5 n=56 v=100
288000 On ch=5 n=39 v=115
288000 On ch=5 n=75 v=110
288000 On ch=5 n=87 v=126
288480 Off ch=5 n=87 v=64
288480 Off ch=5 n=75 v=64
288480 Off ch=5 n=39 v=100
288480 On ch=5 n=39 v=105
288480 On ch=5 n=77 v=110
288480 On ch=5 n=89 v=126
288720 Off ch=5 n=39 v=100
288720 On ch=5 n=51 v=105
288816 Off ch=5 n=89 v=64
288816 Off ch=5 n=77 v=64
288960 Off ch=5 n=51 v=100
288960 On ch=5 n=78 v=110
288960 On ch=5 n=90 v=126
289184 Off ch=5 n=90 v=64
289184 Off ch=5 n=78 v=64
289200 On ch=5 n=51 v=105
289440 Off ch=5 n=51 v=100
289440 On ch=5 n=49 v=105
289440 On ch=5 n=80 v=110
289440 On ch=5 n=92 v=126
289616 Off ch=5 n=92 v=64
289616 Off ch=5 n=80 v=64
289680 Off ch=5 n=49 v=100
289680 On ch=5 n=51 v=105
289920 Off ch=5 n=51 v=100
289920 On ch=5 n=39 v=115
289920 On ch=5 n=82 v=110
289920 On ch=5 n=94 v=126
290400 Off ch=5 n=39 v=100
290400 On ch=5 n=39 v=105
290640 Off ch=5 n=39 v=100
290640 On ch=5 n=51 v=105
290880 Off ch=5 n=51 v=100
290880 On ch=5 n=80 v=110
290880 On ch=5 n=92 v=126
290928 Off ch=5 n=94 v=64
290928 Off ch=5 n=82 v=64
291120 On ch=5 n=51 v=105
291184 Off ch=5 n=92 v=64
291184 Off ch=5 n=80 v=64
291360 Off ch=5 n=51 v=100
291360 On ch=5 n=49 v=105
291360 On ch=5 n=78 v=110
291360 On ch=5 n=90 v=126
291600 Off ch=5 n=49 v=100
291600 On ch=5 n=51 v=105
291648 Off ch=5 n=90 v=64
291648 Off ch=5 n=78 v=64
291840 Off ch=5 n=51 v=100
291840 On ch=5 n=41 v=115
291840 On ch=5 n=77 v=110
291840 On ch=5 n=89 v=126
292320 Off ch=5 n=41 v=100
292320 On ch=5 n=41 v=105
292320 On ch=5 n=75 v=110
292320 On ch=5 n=87 v=126
292400 Off ch=5 n=89 v=64
292400 Off ch=5 n=77 v=64
292560 Off ch=5 n=41 v=100
292560 On ch=5 n=53 v=105
292608 Off ch=5 n=87 v=64
292608 Off ch=5 n=75 v=64
292800 Off ch=5 n=53 v=100
292800 On ch=5 n=77 v=110
292800 On ch=5 n=89 v=126
293040 On ch=5 n=53 v=105
293056 Off ch=5 n=89 v=64
293056 Off ch=5 n=77 v=64
293280 Off ch=5 n=53 v=100
293280 On ch=5 n=51 v=105
293280 On ch=5 n=78 v=110
293280 On ch=5 n=90 v=126
293520 Off ch=5 n=51 v=100
293520 On ch=5 n=53 v=105
293552 Off ch=5 n=90 v=64
293552 Off ch=5 n=78 v=64
293554 On ch=5 n=89 v=115
293678 On ch=5 n=90 v=114
293714 Off ch=5 n=89 v=64
293744 On ch=5 n=77 v=110
293760 Off ch=5 n=53 v=100
293760 On ch=5 n=44 v=115
293774 On ch=5 n=89 v=126
293916 Off ch=5 n=90 v=64
294174 Off ch=5 n=89 v=64
294234 Off ch=5 n=77 v=64
294240 Off ch=5 n=44 v=100
294240 On ch=5 n=56 v=105
294240 On ch=5 n=75 v=110
294240 On ch=5 n=87 v=126
294480 Off ch=5 n=56 v=100
294480 On ch=5 n=54 v=105
294544 Off ch=5 n=87 v=64
294544 Off ch=5 n=75 v=64
294720 Off ch=5 n=54 v=100
294720 On ch=5 n=53 v=115
294720 On ch=5 n=74 v=110
294720 On ch=5 n=86 v=126
295040 Off ch=5 n=86 v=64
295040 Off ch=5 n=74 v=64
295200 Off ch=5 n=53 v=100
295200 On ch=5 n=51 v=105
295200 On ch=5 n=77 v=110
295200 On ch=5 n=89 v=126
295440 Off ch=5 n=51 v=100
295440 On ch=5 n=49 v=105
295456 Off ch=5 n=89 v=64
295456 Off ch=5 n=77 v=64
295680 Off ch=5 n=49 v=100
295680 On ch=5 n=39 v=115
295680 On ch=5 n=75 v=110
295680 On ch=5 n=87 v=126
295680 Par ch=5 c=64 v=0
296160 Off ch=5 n=39 v=100
296160 On ch=5 n=39 v=105
296160 On ch=5 n=77 v=110
296160 On ch=5 n=89 v=126
296256 Off ch=5 n=87 v=64
296256 Off ch=5 n=75 v=64
296400 Off ch=5 n=39 v=100
296400 On ch=5 n=51 v=105
296512 Off ch=5 n=89 v=64
296512 Off ch=5 n=77 v=64
296640 Off ch=5 n=51 v=100
296640 On ch=5 n=78 v=110
296640 On ch=5 n=90 v=126
296880 On ch=5 n=51 v=105
296944 Off ch=5 n=90 v=64
296944 Off ch=5 n=78 v=64
297120 Off ch=5 n=51 v=100
297120 On ch=5 n=49 v=105
297120 On ch=5 n=80 v=110
297120 On ch=5 n=92 v=126
297360 Off ch=5 n=49 v=100
297360 On ch=5 n=51 v=105
297392 Off ch=5 n=92 v=64
297392 Off ch=5 n=80 v=64
297600 Off ch=5 n=51 v=100
297600 On ch=5 n=39 v=115
297600 On ch=5 n=82 v=110
297600 On ch=5 n=94 v=126
298080 Off ch=5 n=39 v=100
298080 On ch=5 n=39 v=105
298320 Off ch=5 n=39 v=100
298320 On ch=5 n=51 v=105
298560 Off ch=5 n=51 v=100
298560 On ch=5 n=87 v=110
298560 On ch=5 n=99 v=126
298592 Off ch=5 n=94 v=64
298592 Off ch=5 n=82 v=64
298800 On ch=5 n=51 v=105
299040 Off ch=5 n=51 v=100
299040 Off ch=5 n=99 v=64
299040 Off ch=5 n=87 v=64
299040 On ch=5 n=49 v=105
299040 On ch=5 n=85 v=110
299040 On ch=5 n=97 v=126
299280 Off ch=5 n=49 v=100
299280 On ch=5 n=51 v=105
299520 Off ch=5 n=51 v=100
299520 Off ch=5 n=97 v=64
299520 Off ch=5 n=85 v=64
299520 On ch=5 n=39 v=115
299520 On ch=5 n=82 v=110
299520 On ch=5 n=94 v=126
300000 Off ch=5 n=39 v=100
300000 On ch=5 n=39 v=105
300240 Off ch=5 n=39 v=100
300240 On ch=5 n=51 v=105
300304 Off ch=5 n=94 v=64
300304 Off ch=5 n=82 v=64
300480 Off ch=5 n=51 v=100
300480 On ch=5 n=75 v=110
300480 On ch=5 n=87 v=126
300720 On ch=5 n=51 v=105
300960 Off ch=5 n=51 v=100
300960 On ch=5 n=49 v=105
301200 Off ch=5 n=49 v=100
301200 On ch=5 n=51 v=105
301440 Off ch=5 n=51 v=100
301440 On ch=5 n=39 v=115
301440 On ch=5 n=82 v=110
301440 On ch=5 n=94 v=126
301488 Off ch=5 n=87 v=64
301488 Off ch=5 n=75 v=64
301920 Off ch=5 n=94 v=64
301920 Off ch=5 n=82 v=64
301920 Off ch=5 n=39 v=100
301920 On ch=5 n=51 v=105
301920 On ch=5 n=80 v=110
301920 On ch=5 n=92 v=126
302160 Off ch=5 n=51 v=100
302160 On ch=5 n=54 v=105
302240 Off ch=5 n=92 v=64
302240 Off ch=5 n=80 v=64
302400 Off ch=5 n=54 v=100
302400 On ch=5 n=44 v=115
302400 On ch=5 n=78 v=110
302400 On ch=5 n=90 v=126
302688 Off ch=5 n=90 v=64
302688 Off ch=5 n=78 v=64
302880 Off ch=5 n=44 v=100
302880 On ch=5 n=54 v=105
302880 On ch=5 n=77 v=110
302880 On ch=5 n=89 v=126
303120 Off ch=5 n=54 v=100
303120 On ch=5 n=56 v=105
303184 Off ch=5 n=89 v=64
303184 Off ch=5 n=77 v=64
303360 Off ch=5 n=56 v=100
303360 On ch=5 n=39 v=115
303360 On ch=5 n=75 v=110
303360 On ch=5 n=87 v=126
303840 Off ch=5 n=87 v=64
303840 Off ch=5 n=75 v=64
303840 Off ch=5 n=39 v=100
303840 On ch=5 n=39 v=105
303840 On ch=5 n=77 v=110
303840 On ch=5 n=89 v=126
304080 Off ch=5 n=39 v=100
304080 On ch=5 n=51 v=105
304176 Off ch=5 n=89 v=64
304176 Off ch=5 n=77 v=64
304320 Off ch=5 n=51 v=100
304320 On ch=5 n=78 v=110
304320 On ch=5 n=90 v=126
304544 Off ch=5 n=90 v=64
304544 Off ch=5 n=78 v=64
304560 On ch=5 n=51 v=105
304800 Off ch=5 n=51 v=100
304800 On ch=5 n=49 v=105
304800 On ch=5 n=80 v=110
304800 On ch=5 n=92 v=126
304976 Off ch=5 n=92 v=64
304976 Off ch=5 n=80 v=64
305040 Off ch=5 n=49 v=100
305040 On ch=5 n=51 v=105
305280 Off ch=5 n=51 v=100
305280 On ch=5 n=39 v=115
305280 On ch=5 n=82 v=110
305280 On ch=5 n=94 v=126
305760 Off ch=5 n=39 v=100
305760 On ch=5 n=39 v=105
306000 Off ch=5 n=39 v=100
306000 On ch=5 n=51 v=105
306240 Off ch=5 n=51 v=100
306240 On ch=5 n=80 v=110
306240 On ch=5 n=92 v=126
306288 Off ch=5 n=94 v=64
306288 Off ch=5 n=82 v=64
306480 On ch=5 n=51 v=105
306544 Off ch=5 n=92 v=64
306544 Off ch=5 n=80 v=64
306720 Off ch=5 n=51 v=100
306720 On ch=5 n=49 v=105
306720 On ch=5 n=78 v=110
306720 On ch=5 n=90 v=126
306960 Off ch=5 n=49 v=100
306960 On ch=5 n=51 v=105
307008 Off ch=5 n=90 v=64
307008 Off ch=5 n=78 v=64
307200 Off ch=5 n=51 v=100
307200 On ch=5 n=39 v=115
307200 On ch=5 n=85 v=117
307200 On ch=5 n=82 v=117
307200 On ch=5 n=77 v=117
307200 On ch=5 n=89 v=122
307560 Off ch=5 n=89 v=64
307560 Off ch=5 n=77 v=64
307560 Off ch=5 n=82 v=64
307560 Off ch=5 n=85 v=64
307680 Off ch=5 n=39 v=100
308160 On ch=5 n=85 v=117
308160 On ch=5 n=82 v=117
308160 On ch=5 n=78 v=117
308160 On ch=5 n=90 v=122
308160 On ch=5 n=66 v=111
308160 On ch=5 n=54 v=106
308160 On ch=5 n=58 v=106
308160 On ch=5 n=61 v=106
308520 Off ch=5 n=61 v=64
308520 Off ch=5 n=58 v=64
308520 Off ch=5 n=54 v=64
308520 Off ch=5 n=66 v=64
308520 Off ch=5 n=90 v=64
308520 Off ch=5 n=78 v=64
308520 Off ch=5 n=82 v=64
308520 Off ch=5 n=85 v=64
309120 On ch=5 n=82 v=117
309120 On ch=5 n=89 v=117
309120 On ch=5 n=86 v=117
309120 On ch=5 n=92 v=122
309120 On ch=5 n=68 v=111
309120 On ch=5 n=62 v=106
309120 On ch=5 n=58 v=106
309120 On ch=5 n=65 v=106
309480 Off ch=5 n=65 v=64
309480 Off ch=5 n=58 v=64
309480 Off ch=5 n=62 v=64
309480 Off ch=5 n=68 v=64
309480 Off ch=5 n=92 v=64
309480 Off ch=5 n=86 v=64
309480 Off ch=5 n=89 v=64
309480 Off ch=5 n=82 v=64
310080 On ch=5 n=89 v=117
310080 On ch=5 n=86 v=117
310080 On ch=5 n=82 v=117
310080 On ch=5 n=94 v=122
310080 On ch=5 n=70 v=111
310080 On ch=5 n=58 v=106
310080 On ch=5 n=62 v=106
310080 On ch=5 n=65 v=106
310440 Off ch=5 n=65 v=64
310440 Off ch=5 n=62 v=64
310440 Off ch=5 n=58 v=64
310440 Off ch=5 n=70 v=64
310440 Off ch=5 n=94 v=64
310440 Off ch=5 n=82 v=64
310440 Off ch=5 n=86 v=64
310440 Off ch=5 n=89 v=64
311040 Par ch=5 c=64 v=127
311040 On ch=5 n=47 v=116
311040 Par ch=5 c=7 v=115
311280 Off ch=5 n=47 v=64
311280 On ch=5 n=59 v=109
311520 Off ch=5 n=59 v=64
311520 On ch=5 n=63 v=111
311760 Off ch=5 n=63 v=64
311760 On ch=5 n=66 v=112
312000 Off ch=5 n=66 v=64
312000 On ch=5 n=71 v=113
312240 Off ch=5 n=71 v=64
312240 On ch=5 n=75 v=114
312480 Off ch=5 n=75 v=64
312480 On ch=5 n=78 v=115
312720 Off ch=5 n=78 v=64
312720 On ch=5 n=83 v=115
312960 Off ch=5 n=83 v=64
312960 On ch=5 n=87 v=115
313200 Off ch=5 n=87 v=64
313200 On ch=5 n=83 v=113
313440 Off ch=5 n=83 v=64
313440 On ch=5 n=78 v=113
313680 Off ch=5 n=78 v=64
313680 On ch=5 n=75 v=113
313920 Off ch=5 n=75 v=64
313920 On ch=5 n=71 v=112
314160 Off ch=5 n=71 v=64
314160 On ch=5 n=66 v=111
314400 Off ch=5 n=66 v=64
314400 On ch=5 n=63 v=110
314640 Off ch=5 n=63 v=64
314640 On ch=5 n=59 v=109
314880 Off ch=5 n=59 v=64
314880 Par ch=5 c=64 v=0
314880 On ch=5 n=49 v=110
315000 Par ch=5 c=64 v=127
315120 Off ch=5 n=49 v=64
315120 On ch=5 n=56 v=110
315360 Off ch=5 n=56 v=64
315360 On ch=5 n=61 v=110
315600 Off ch=5 n=61 v=64
315600 On ch=5 n=65 v=110
315840 Off ch=5 n=65 v=64
315840 On ch=5 n=68 v=111
316080 Off ch=5 n=68 v=64
316080 On ch=5 n=73 v=111
316320 Off ch=5 n=73 v=64
316320 On ch=5 n=77 v=112
316560 Off ch=5 n=77 v=64
316560 On ch=5 n=80 v=113
316800 Off ch=5 n=80 v=64
316800 On ch=5 n=85 v=115
317040 Off ch=5 n=85 v=64
317040 On ch=5 n=80 v=114
317280 Off ch=5 n=80 v=64
317280 On ch=5 n=77 v=113
317520 Off ch=5 n=77 v=64
317520 On ch=5 n=73 v=112
317760 Off ch=5 n=73 v=64
317760 On ch=5 n=68 v=111
318000 Off ch=5 n=68 v=64
318000 On ch=5 n=65 v=110
318240 Off ch=5 n=65 v=64
318240 On ch=5 n=61 v=110
318480 Off ch=5 n=61 v=64
318480 On ch=5 n=56 v=110
318720 Off ch=5 n=56 v=64
318720 Par ch=5 c=64 v=0
318720 On ch=5 n=51 v=109
318768 Par ch=5 c=64 v=127
318960 Off ch=5 n=51 v=64
318960 On ch=5 n=58 v=109
319200 Off ch=5 n=58 v=64
319200 On ch=5 n=63 v=109
319440 Off ch=5 n=63 v=64
319440 On ch=5 n=66 v=110
319680 Off ch=5 n=66 v=64
319680 On ch=5 n=70 v=110
319920 Off ch=5 n=70 v=64
319920 On ch=5 n=75 v=111
320160 Off ch=5 n=75 v=64
320160 On ch=5 n=78 v=113
320400 Off ch=5 n=78 v=64
320400 On ch=5 n=82 v=114
320640 Off ch=5 n=82 v=64
320640 On ch=5 n=87 v=117
320880 Off ch=5 n=87 v=64
320880 On ch=5 n=82 v=112
321120 Off ch=5 n=82 v=64
321120 On ch=5 n=78 v=111
321360 Off ch=5 n=78 v=64
321360 On ch=5 n=75 v=110
321600 Off ch=5 n=75 v=64
321600 On ch=5 n=70 v=109
321840 Off ch=5 n=70 v=64
321840 On ch=5 n=66 v=108
322080 Off ch=5 n=66 v=64
322080 On ch=5 n=63 v=108
322320 Off ch=5 n=63 v=64
322320 On ch=5 n=58 v=108
322560 Off ch=5 n=58 v=64
322560 Par ch=5 c=64 v=2
322560 On ch=5 n=51 v=109
322704 Par ch=5 c=64 v=127
322800 Off ch=5 n=51 v=64
322800 On ch=5 n=58 v=109
323040 Off ch=5 n=58 v=64
323040 On ch=5 n=63 v=109
323280 Off ch=5 n=63 v=64
323280 On ch=5 n=66 v=110
323520 Off ch=5 n=66 v=64
323520 On ch=5 n=70 v=110
323760 Off ch=5 n=70 v=64
323760 On ch=5 n=75 v=111
324000 Off ch=5 n=75 v=64
324000 On ch=5 n=78 v=113
324240 Off ch=5 n=78 v=64
324240 On ch=5 n=82 v=114
324480 Off ch=5 n=82 v=64
324480 On ch=5 n=87 v=117
324720 Off ch=5 n=87 v=64
324720 On ch=5 n=82 v=112
324960 Off ch=5 n=82 v=64
324960 On ch=5 n=78 v=111
325200 Off ch=5 n=78 v=64
325200 On ch=5 n=75 v=110
325440 Off ch=5 n=75 v=64
325440 On ch=5 n=70 v=109
325680 Off ch=5 n=70 v=64
325680 On ch=5 n=66 v=108
325920 Off ch=5 n=66 v=64
325920 On ch=5 n=63 v=108
326160 Off ch=5 n=63 v=64
326160 On ch=5 n=58 v=108
326400 Off ch=5 n=58 v=64
326400 Par ch=5 c=64 v=0
326400 On ch=5 n=47 v=116
326496 Par ch=5 c=64 v=127
326640 Off ch=5 n=47 v=64
326640 On ch=5 n=59 v=109
326880 Off ch=5 n=59 v=64
326880 On ch=5 n=63 v=111
327120 Off ch=5 n=63 v=64
327120 On ch=5 n=66 v=112
327360 Off ch=5 n=66 v=64
327360 On ch=5 n=71 v=113
327600 Off ch=5 n=71 v=64
327600 On ch=5 n=75 v=114
327840 Off ch=5 n=75 v=64
327840 On ch=5 n=78 v=115
328080 Off ch=5 n=78 v=64
328080 On ch=5 n=83 v=115
328320 Off ch=5 n=83 v=64
328320 On ch=5 n=87 v=115
328560 Off ch=5 n=87 v=64
328560 On ch=5 n=83 v=113
328800 Off ch=5 n=83 v=64
328800 On ch=5 n=78 v=113
329040 Off ch=5 n=78 v=64
329040 On ch=5 n=75 v=113
329280 Off ch=5 n=75 v=64
329280 On ch=5 n=71 v=112
329520 Off ch=5 n=71 v=64
329520 On ch=5 n=66 v=111
329760 Off ch=5 n=66 v=64
329760 On ch=5 n=63 v=110
330000 Off ch=5 n=63 v=64
330000 On ch=5 n=59 v=109
330240 Off ch=5 n=59 v=64
330240 On ch=5 n=49 v=110
330240 Par ch=5 c=64 v=0
330360 Par ch=5 c=64 v=127
330480 Off ch=5 n=49 v=64
330480 On ch=5 n=56 v=110
330720 Off ch=5 n=56 v=64
330720 On ch=5 n=61 v=110
330960 Off ch=5 n=61 v=64
330960 On ch=5 n=65 v=110
331200 Off ch=5 n=65 v=64
331200 On ch=5 n=68 v=111
331440 Off ch=5 n=68 v=64
331440 On ch=5 n=73 v=111
331680 Off ch=5 n=73 v=64
331680 On ch=5 n=77 v=112
331920 Off ch=5 n=77 v=64
331920 On ch=5 n=80 v=113
332160 Off ch=5 n=80 v=64
332160 On ch=5 n=85 v=115
332400 Off ch=5 n=85 v=64
332400 On ch=5 n=80 v=114
332640 Off ch=5 n=80 v=64
332640 On ch=5 n=77 v=113
332880 Off ch=5 n=77 v=64
332880 On ch=5 n=73 v=112
333120 Off ch=5 n=73 v=64
333120 On ch=5 n=68 v=111
333360 Off ch=5 n=68 v=64
333360 On ch=5 n=65 v=110
333600 Off ch=5 n=65 v=64
333600 On ch=5 n=61 v=110
333840 Off ch=5 n=61 v=64
333840 On ch=5 n=56 v=110
334080 Off ch=5 n=56 v=64
334080 On ch=5 n=51 v=109
334080 Par ch=5 c=64 v=0
334128 Par ch=5 c=64 v=127
334320 Off ch=5 n=51 v=64
334320 On ch=5 n=58 v=109
334560 Off ch=5 n=58 v=64
334560 On ch=5 n=63 v=109
334800 Off ch=5 n=63 v=64
334800 On ch=5 n=66 v=110
335040 Off ch=5 n=66 v=64
335040 On ch=5 n=70 v=110
335280 Off ch=5 n=70 v=64
335280 On ch=5 n=75 v=111
335520 Off ch=5 n=75 v=64
335520 On ch=5 n=78 v=113
335760 Off ch=5 n=78 v=64
335760 On ch=5 n=82 v=114
336000 Off ch=5 n=82 v=64
336000 On ch=5 n=87 v=117
336240 Off ch=5 n=87 v=64
336240 On ch=5 n=82 v=112
336480 Off ch=5 n=82 v=64
336480 On ch=5 n=78 v=111
336720 Off ch=5 n=78 v=64
336720 On ch=5 n=75 v=110
336960 Off ch=5 n=75 v=64
336960 On ch=5 n=70 v=109
337200 Off ch=5 n=70 v=64
337200 On ch=5 n=66 v=108
337440 Off ch=5 n=66 v=64
337440 On ch=5 n=63 v=108
337680 Off ch=5 n=63 v=64
337680 On ch=5 n=58 v=108
337920 Off ch=5 n=58 v=64
337920 On ch=5 n=51 v=109
337920 Par ch=5 c=64 v=2
338064 Par ch=5 c=64 v=127
338160 Off ch=5 n=51 v=64
338160 On ch=5 n=58 v=109
338400 Off ch=5 n=58 v=64
338400 On ch=5 n=63 v=109
338640 Off ch=5 n=63 v=64
338640 On ch=5 n=66 v=110
338880 Off ch=5 n=66 v=64
338880 On ch=5 n=70 v=110
339120 Off ch=5 n=70 v=64
339120 On ch=5 n=75 v=111
339360 Off ch=5 n=75 v=64
339360 On ch=5 n=78 v=113
339600 Off ch=5 n=78 v=64
339600 On ch=5 n=82 v=114
339840 Off ch=5 n=82 v=64
339840 On ch=5 n=87 v=117
340080 Off ch=5 n=87 v=64
340080 On ch=5 n=82 v=112
340320 Off ch=5 n=82 v=64
340320 On ch=5 n=78 v=111
340560 Off ch=5 n=78 v=64
340560 On ch=5 n=75 v=110
340800 Off ch=5 n=75 v=64
340800 On ch=5 n=70 v=109
341040 Off ch=5 n=70 v=64
341040 On ch=5 n=75 v=108
341280 Off ch=5 n=75 v=64
341280 On ch=5 n=78 v=108
341520 Off ch=5 n=78 v=64
341520 On ch=5 n=82 v=108
341760 Off ch=5 n=82 v=64
341760 Par ch=5 c=64 v=0
341760 On ch=5 n=87 v=111
341760 On ch=5 n=47 v=110
341880 Par ch=5 c=64 v=127
342000 Off ch=5 n=87 v=64
342000 On ch=5 n=83 v=109
342240 Off ch=5 n=83 v=64
342240 Off ch=5 n=47 v=64
342240 On ch=5 n=78 v=103
342240 On ch=5 n=51 v=102
342480 Off ch=5 n=78 v=64
342480 On ch=5 n=75 v=92
342720 Off ch=5 n=75 v=64
342720 Off ch=5 n=51 v=64
342720 On ch=5 n=87 v=111
342720 On ch=5 n=59 v=102
342960 Off ch=5 n=87 v=64
342960 On ch=5 n=83 v=109
343200 Off ch=5 n=83 v=64
343200 Off ch=5 n=59 v=64
343200 On ch=5 n=78 v=103
343200 On ch=5 n=54 v=102
343440 Off ch=5 n=78 v=64
343440 On ch=5 n=75 v=92
343680 Off ch=5 n=75 v=64
343680 Off ch=5 n=54 v=64
343680 On ch=5 n=87 v=111
343680 On ch=5 n=47 v=109
343920 Off ch=5 n=87 v=64
343920 On ch=5 n=83 v=109
344160 Off ch=5 n=83 v=64
344160 Off ch=5 n=47 v=64
344160 On ch=5 n=78 v=103
344160 On ch=5 n=51 v=102
344400 Off ch=5 n=78 v=64
344400 On ch=5 n=75 v=92
344640 Off ch=5 n=75 v=64
344640 Off ch=5 n=51 v=64
344640 On ch=5 n=87 v=111
344640 On ch=5 n=59 v=102
344880 Off ch=5 n=87 v=64
344880 On ch=5 n=83 v=109
345120 Off ch=5 n=83 v=64
345120 Off ch=5 n=59 v=64
345120 On ch=5 n=78 v=103
345120 On ch=5 n=54 v=102
345360 Off ch=5 n=78 v=64
345360 On ch=5 n=75 v=92
345600 Off ch=5 n=75 v=64
345600 Off ch=5 n=54 v=64
345600 Par ch=5 c=64 v=0
345600 On ch=5 n=87 v=111
345600 On ch=5 n=49 v=109
345648 Par ch=5 c=64 v=127
345840 Off ch=5 n=87 v=64
345840 On ch=5 n=82 v=109
346080 Off ch=5 n=82 v=64
346080 Off ch=5 n=49 v=64
346080 On ch=5 n=77 v=103
346080 On ch=5 n=53 v=102
346320 Off ch=5 n=77 v=64
346320 On ch=5 n=73 v=92
346560 Off ch=5 n=73 v=64
346560 Off ch=5 n=53 v=64
346560 On ch=5 n=87 v=111
346560 On ch=5 n=61 v=102
346800 Off ch=5 n=87 v=64
346800 On ch=5 n=82 v=109
347040 Off ch=5 n=82 v=64
347040 Off ch=5 n=61 v=64
347040 On ch=5 n=77 v=103
347040 On ch=5 n=56 v=102
347280 Off ch=5 n=77 v=64
347280 On ch=5 n=73 v=92
347520 Off ch=5 n=73 v=64
347520 Off ch=5 n=56 v=64
347520 On ch=5 n=87 v=111
347520 On ch=5 n=49 v=110
347760 Off ch=5 n=87 v=64
347760 On ch=5 n=82 v=109
348000 Off ch=5 n=82 v=64
348000 Off ch=5 n=49 v=64
348000 On ch=5 n=77 v=103
348000 On ch=5 n=53 v=102
348240 Off ch=5 n=77 v=64
348240 On ch=5 n=73 v=92
348480 Off ch=5 n=73 v=64
348480 Off ch=5 n=53 v=64
348480 On ch=5 n=87 v=111
348480 On ch=5 n=61 v=102
348720 Off ch=5 n=87 v=64
348720 On ch=5 n=82 v=109
348960 Off ch=5 n=82 v=64
348960 Off ch=5 n=61 v=64
348960 On ch=5 n=77 v=103
348960 On ch=5 n=56 v=102
349200 Off ch=5 n=77 v=64
349200 On ch=5 n=73 v=92
349440 Off ch=5 n=73 v=64
349440 Off ch=5 n=56 v=64
349440 Par ch=5 c=64 v=0
349440 On ch=5 n=87 v=111
349440 On ch=5 n=51 v=111
349608 Par ch=5 c=64 v=127
349680 Off ch=5 n=87 v=64
349680 On ch=5 n=82 v=109
349920 Off ch=5 n=82 v=64
349920 Off ch=5 n=51 v=64
349920 On ch=5 n=78 v=103
349920 On ch=5 n=54 v=102
350160 Off ch=5 n=78 v=64
350160 On ch=5 n=75 v=92
350400 Off ch=5 n=75 v=64
350400 Off ch=5 n=54 v=64
350400 On ch=5 n=87 v=111
350400 On ch=5 n=63 v=102
350640 Off ch=5 n=87 v=64
350640 On ch=5 n=82 v=109
350880 Off ch=5 n=82 v=64
350880 Off ch=5 n=63 v=64
350880 On ch=5 n=78 v=103
350880 On ch=5 n=58 v=102
351120 Off ch=5 n=78 v=64
351120 On ch=5 n=75 v=92
351360 Off ch=5 n=75 v=64
351360 Off ch=5 n=58 v=64
351360 On ch=5 n=87 v=111
351360 On ch=5 n=51 v=111
351600 Off ch=5 n=87 v=64
351600 On ch=5 n=82 v=109
351840 Off ch=5 n=82 v=64
351840 Off ch=5 n=51 v=64
351840 On ch=5 n=78 v=103
351840 On ch=5 n=54 v=102
352080 Off ch=5 n=78 v=64
352080 On ch=5 n=75 v=92
352320 Off ch=5 n=75 v=64
352320 Off ch=5 n=54 v=64
352320 On ch=5 n=87 v=111
352320 On ch=5 n=63 v=102
352560 Off ch=5 n=87 v=64
352560 On ch=5 n=82 v=109
352800 Off ch=5 n=82 v=64
352800 Off ch=5 n=63 v=64
352800 On ch=5 n=78 v=103
352800 On ch=5 n=58 v=102
353040 Off ch=5 n=78 v=64
353040 On ch=5 n=75 v=92
353280 Off ch=5 n=75 v=64
353280 Off ch=5 n=58 v=64
353280 Par ch=5 c=64 v=0
353280 On ch=5 n=87 v=111
353280 On ch=5 n=51 v=109
353472 Par ch=5 c=64 v=127
353520 Off ch=5 n=87 v=64
353520 On ch=5 n=82 v=109
353760 Off ch=5 n=82 v=64
353760 Off ch=5 n=51 v=64
353760 On ch=5 n=78 v=103
353760 On ch=5 n=54 v=102
354000 Off ch=5 n=78 v=64
354000 On ch=5 n=75 v=92
354240 Off ch=5 n=75 v=64
354240 Off ch=5 n=54 v=64
354240 On ch=5 n=87 v=111
354240 On ch=5 n=63 v=102
354480 Off ch=5 n=87 v=64
354480 On ch=5 n=82 v=109
354720 Off ch=5 n=82 v=64
354720 Off ch=5 n=63 v=64
354720 On ch=5 n=78 v=103
354720 On ch=5 n=58 v=102
354960 Off ch=5 n=78 v=64
354960 On ch=5 n=75 v=92
355200 Off ch=5 n=75 v=64
355200 Off ch=5 n=58 v=64
355200 On ch=5 n=87 v=111
355200 On ch=5 n=51 v=109
355440 Off ch=5 n=87 v=64
355440 On ch=5 n=82 v=109
355680 Off ch=5 n=82 v=64
355680 Off ch=5 n=51 v=64
355680 On ch=5 n=78 v=103
355680 On ch=5 n=54 v=102
355920 Off ch=5 n=78 v=64
355920 On ch=5 n=75 v=92
356160 Off ch=5 n=75 v=64
356160 Off ch=5 n=54 v=64
356160 On ch=5 n=87 v=111
356160 On ch=5 n=63 v=102
356400 Off ch=5 n=87 v=64
356400 On ch=5 n=82 v=109
356640 Off ch=5 n=82 v=64
356640 Off ch=5 n=63 v=64
356640 On ch=5 n=78 v=103
356640 On ch=5 n=58 v=102
356880 Off ch=5 n=78 v=64
356880 On ch=5 n=75 v=92
357120 Off ch=5 n=75 v=64
357120 Off ch=5 n=58 v=64
357120 On ch=5 n=87 v=111
357120 Par ch=5 c=64 v=0
357120 On ch=5 n=47 v=110
357240 Par ch=5 c=64 v=127
357360 Off ch=5 n=87 v=64
357360 On ch=5 n=83 v=109
357600 Off ch=5 n=83 v=64
357600 Off ch=5 n=47 v=64
357600 On ch=5 n=78 v=103
357600 On ch=5 n=51 v=102
357840 Off ch=5 n=78 v=64
357840 On ch=5 n=75 v=92
358080 Off ch=5 n=75 v=64
358080 Off ch=5 n=51 v=64
358080 On ch=5 n=87 v=111
358080 On ch=5 n=59 v=102
358320 Off ch=5 n=87 v=64
358320 On ch=5 n=83 v=109
358560 Off ch=5 n=83 v=64
358560 Off ch=5 n=59 v=64
358560 On ch=5 n=78 v=103
358560 On ch=5 n=54 v=102
358800 Off ch=5 n=78 v=64
358800 On ch=5 n=75 v=92
359040 Off ch=5 n=75 v=64
359040 Off ch=5 n=54 v=64
359040 On ch=5 n=87 v=111
359040 On ch=5 n=47 v=109
359280 Off ch=5 n=87 v=64
359280 On ch=5 n=83 v=109
359520 Off ch=5 n=83 v=64
359520 Off ch=5 n=47 v=64
359520 On ch=5 n=78 v=103
359520 On ch=5 n=51 v=102
359760 Off ch=5 n=78 v=64
359760 On ch=5 n=75 v=92
360000 Off ch=5 n=75 v=64
360000 Off ch=5 n=51 v=64
360000 On ch=5 n=87 v=111
360000 On ch=5 n=59 v=102
360240 Off ch=5 n=87 v=64
360240 On ch=5 n=83 v=109
360480 Off ch=5 n=83 v=64
360480 Off ch=5 n=59 v=64
360480 On ch=5 n=78 v=103
360480 On ch=5 n=54 v=102
360720 Off ch=5 n=78 v=64
360720 On ch=5 n=75 v=92
360960 Off ch=5 n=75 v=64
360960 Off ch=5 n=54 v=64
360960 On ch=5 n=87 v=111
360960 Par ch=5 c=64 v=0
360960 On ch=5 n=49 v=109
361008 Par ch=5 c=64 v=127
361200 Off ch=5 n=87 v=64
361200 On ch=5 n=82 v=109
361440 Off ch=5 n=82 v=64
361440 Off ch=5 n=49 v=64
361440 On ch=5 n=77 v=103
361440 On ch=5 n=53 v=102
361680 Off ch=5 n=77 v=64
361680 On ch=5 n=73 v=92
361920 Off ch=5 n=73 v=64
361920 Off ch=5 n=53 v=64
361920 On ch=5 n=87 v=111
361920 On ch=5 n=61 v=102
362160 Off ch=5 n=87 v=64
362160 On ch=5 n=82 v=109
362400 Off ch=5 n=82 v=64
362400 Off ch=5 n=61 v=64
362400 On ch=5 n=77 v=103
362400 On ch=5 n=56 v=102
362640 Off ch=5 n=77 v=64
362640 On ch=5 n=73 v=92
362880 Off ch=5 n=73 v=64
362880 Off ch=5 n=56 v=64
362880 On ch=5 n=87 v=111
362880 On ch=5 n=49 v=110
363120 Off ch=5 n=87 v=64
363120 On ch=5 n=82 v=109
363360 Off ch=5 n=82 v=64
363360 Off ch=5 n=49 v=64
363360 On ch=5 n=77 v=103
363360 On ch=5 n=53 v=102
363600 Off ch=5 n=77 v=64
363600 On ch=5 n=73 v=92
363840 Off ch=5 n=73 v=64
363840 Off ch=5 n=53 v=64
363840 On ch=5 n=87 v=111
363840 On ch=5 n=61 v=102
364080 Off ch=5 n=87 v=64
364080 On ch=5 n=82 v=109
364320 Off ch=5 n=82 v=64
364320 Off ch=5 n=61 v=64
364320 On ch=5 n=77 v=103
364320 On ch=5 n=56 v=102
364560 Off ch=5 n=77 v=64
364560 On ch=5 n=73 v=92
364800 Off ch=5 n=73 v=64
364800 Off ch=5 n=56 v=64
364800 On ch=5 n=87 v=111
364800 Par ch=5 c=64 v=0
364800 On ch=5 n=51 v=111
364968 Par ch=5 c=64 v=127
365040 Off ch=5 n=87 v=64
365040 On ch=5 n=82 v=109
365280 Off ch=5 n=82 v=64
365280 Off ch=5 n=51 v=64
365280 On ch=5 n=78 v=103
365280 On ch=5 n=54 v=102
365520 Off ch=5 n=78 v=64
365520 On ch=5 n=75 v=92
365760 Off ch=5 n=75 v=64
365760 Off ch=5 n=54 v=64
365760 On ch=5 n=87 v=111
365760 On ch=5 n=63 v=102
366000 Off ch=5 n=87 v=64
366000 On ch=5 n=82 v=109
366240 Off ch=5 n=82 v=64
366240 Off ch=5 n=63 v=64
366240 On ch=5 n=78 v=103
366240 On ch=5 n=58 v=102
366480 Off ch=5 n=78 v=64
366480 On ch=5 n=75 v=92
366720 Off ch=5 n=75 v=64
366720 Off ch=5 n=58 v=64
366720 On ch=5 n=87 v=111
366720 On ch=5 n=51 v=111
366960 Off ch=5 n=87 v=64
366960 On ch=5 n=82 v=109
367200 Off ch=5 n=82 v=64
367200 Off ch=5 n=51 v=64
367200 On ch=5 n=78 v=103
367200 On ch=5 n=54 v=102
367440 Off ch=5 n=78 v=64
367440 On ch=5 n=75 v=92
367680 Off ch=5 n=75 v=64
367680 Off ch=5 n=54 v=64
367680 On ch=5 n=87 v=111
367680 On ch=5 n=63 v=102
367920 Off ch=5 n=87 v=64
367920 On ch=5 n=82 v=109
368160 Off ch=5 n=82 v=64
368160 Off ch=5 n=63 v=64
368160 On ch=5 n=78 v=103
368160 On ch=5 n=58 v=102
368400 Off ch=5 n=78 v=64
368400 On ch=5 n=75 v=92
368640 Off ch=5 n=75 v=64
368640 Off ch=5 n=58 v=64
368640 On ch=5 n=87 v=111
368640 Par ch=5 c=64 v=0
368640 On ch=5 n=51 v=109
368832 Par ch=5 c=64 v=127
368880 Off ch=5 n=87 v=64
368880 On ch=5 n=82 v=109
369120 Off ch=5 n=82 v=64
369120 Off ch=5 n=51 v=64
369120 On ch=5 n=78 v=103
369120 On ch=5 n=54 v=102
369360 Off ch=5 n=78 v=64
369360 On ch=5 n=75 v=92
369600 Off ch=5 n=75 v=64
369600 Off ch=5 n=54 v=64
369600 On ch=5 n=87 v=111
369600 On ch=5 n=63 v=102
369840 Off ch=5 n=87 v=64
369840 On ch=5 n=82 v=109
370080 Off ch=5 n=82 v=64
370080 Off ch=5 n=63 v=64
370080 On ch=5 n=78 v=103
370080 On ch=5 n=58 v=102
370320 Off ch=5 n=78 v=64
370320 On ch=5 n=75 v=92
370560 Off ch=5 n=75 v=64
370560 Off ch=5 n=58 v=64
370560 On ch=5 n=87 v=111
370560 On ch=5 n=51 v=109
370800 Off ch=5 n=87 v=64
371008 Par ch=5 c=64 v=0
371040 Off ch=5 n=51 v=64
403200 On ch=5 n=48 v=92
403200 Par ch=5 c=64 v=1
403200 Par ch=5 c=7 v=95
403248 Par ch=5 c=64 v=127
403440 Off ch=5 n=48 v=64
403440 On ch=5 n=60 v=85
403680 Off ch=5 n=60 v=64
403680 On ch=5 n=64 v=87
403920 Off ch=5 n=64 v=64
403920 On ch=5 n=67 v=88
404160 Off ch=5 n=67 v=64
404160 On ch=5 n=72 v=89
404400 Off ch=5 n=72 v=64
404400 On ch=5 n=76 v=90
404640 Off ch=5 n=76 v=64
404640 On ch=5 n=79 v=91
404880 Off ch=5 n=79 v=64
404880 On ch=5 n=84 v=91
405120 Off ch=5 n=84 v=64
405120 On ch=5 n=88 v=91
405360 Off ch=5 n=88 v=64
405360 On ch=5 n=84 v=89
405600 Off ch=5 n=84 v=64
405600 On ch=5 n=79 v=89
405840 Off ch=5 n=79 v=64
405840 On ch=5 n=76 v=89
406080 Off ch=5 n=76 v=64
406080 On ch=5 n=72 v=88
406320 Off ch=5 n=72 v=64
406320 On ch=5 n=67 v=87
406560 Off ch=5 n=67 v=64
406560 On ch=5 n=64 v=86
406800 Off ch=5 n=64 v=64
406800 On ch=5 n=60 v=85
407040 Off ch=5 n=60 v=64
407040 On ch=5 n=50 v=86
407040 Par ch=5 c=64 v=0
407136 Par ch=5 c=64 v=127
407280 Off ch=5 n=50 v=64
407280 On ch=5 n=57 v=86
407520 Off ch=5 n=57 v=64
407520 On ch=5 n=62 v=86
407760 Off ch=5 n=62 v=64
407760 On ch=5 n=66 v=86
408000 Off ch=5 n=66 v=64
408000 On ch=5 n=69 v=87
408240 Off ch=5 n=69 v=64
408240 On ch=5 n=74 v=87
408480 Off ch=5 n=74 v=64
408480 On ch=5 n=78 v=88
408720 Off ch=5 n=78 v=64
408720 On ch=5 n=81 v=89
408960 Off ch=5 n=81 v=64
408960 On ch=5 n=86 v=91
409200 Off ch=5 n=86 v=64
409200 On ch=5 n=81 v=90
409440 Off ch=5 n=81 v=64
409440 On ch=5 n=78 v=89
409680 Off ch=5 n=78 v=64
409680 On ch=5 n=74 v=88
409920 Off ch=5 n=74 v=64
409920 On ch=5 n=69 v=87
410160 Off ch=5 n=69 v=64
410160 On ch=5 n=66 v=86
410400 Off ch=5 n=66 v=64
410400 On ch=5 n=62 v=86
410640 Off ch=5 n=62 v=64
410640 On ch=5 n=57 v=86
410880 Off ch=5 n=57 v=64
410880 On ch=5 n=52 v=85
410880 Par ch=5 c=64 v=0
411000 Par ch=5 c=64 v=127
411120 Off ch=5 n=52 v=64
411120 On ch=5 n=59 v=85
411360 Off ch=5 n=59 v=64
411360 On ch=5 n=64 v=85
411600 Off ch=5 n=64 v=64
411600 On ch=5 n=67 v=86
411840 Off ch=5 n=67 v=64
411840 On ch=5 n=71 v=86
412080 Off ch=5 n=71 v=64
412080 On ch=5 n=76 v=87
412320 Off ch=5 n=76 v=64
412320 On ch=5 n=79 v=89
412560 Off ch=5 n=79 v=64
412560 On ch=5 n=83 v=90
412800 Off ch=5 n=83 v=64
412800 On ch=5 n=88 v=93
413040 Off ch=5 n=88 v=64
413040 On ch=5 n=83 v=88
413280 Off ch=5 n=83 v=64
413280 On ch=5 n=79 v=87
413520 Off ch=5 n=79 v=64
413520 On ch=5 n=76 v=86
413760 Off ch=5 n=76 v=64
413760 On ch=5 n=71 v=85
414000 Off ch=5 n=71 v=64
414000 On ch=5 n=67 v=84
414240 Off ch=5 n=67 v=64
414240 On ch=5 n=64 v=84
414480 Off ch=5 n=64 v=64
414480 On ch=5 n=59 v=84
414720 Off ch=5 n=59 v=64
414720 On ch=5 n=52 v=85
414720 Par ch=5 c=64 v=0
414768 Par ch=5 c=64 v=127
414960 Off ch=5 n=52 v=64
414960 On ch=5 n=59 v=85
415200 Off ch=5 n=59 v=64
415200 On ch=5 n=64 v=85
415440 Off ch=5 n=64 v=64
415440 On ch=5 n=67 v=86
415680 Off ch=5 n=67 v=64
415680 On ch=5 n=71 v=86
415920 Off ch=5 n=71 v=64
415920 On ch=5 n=76 v=87
416160 Off ch=5 n=76 v=64
416160 On ch=5 n=79 v=89
416400 Off ch=5 n=79 v=64
416400 On ch=5 n=83 v=90
416640 Off ch=5 n=83 v=64
416640 On ch=5 n=88 v=93
416880 Off ch=5 n=88 v=64
416880 On ch=5 n=83 v=88
417120 Off ch=5 n=83 v=64
417120 On ch=5 n=79 v=87
417360 Off ch=5 n=79 v=64
417360 On ch=5 n=76 v=86
417600 Off ch=5 n=76 v=64
417600 On ch=5 n=71 v=85
417840 Off ch=5 n=71 v=64
417840 On ch=5 n=67 v=84
418080 Off ch=5 n=67 v=64
418080 On ch=5 n=64 v=84
418320 Off ch=5 n=64 v=64
418320 On ch=5 n=59 v=84
418560 Off ch=5 n=59 v=64
418560 On ch=5 n=48 v=92
418560 Par ch=5 c=64 v=1
418608 Par ch=5 c=64 v=127
418800 Off ch=5 n=48 v=64
418800 On ch=5 n=60 v=85
419040 Off ch=5 n=60 v=64
419040 On ch=5 n=64 v=87
419280 Off ch=5 n=64 v=64
419280 On ch=5 n=67 v=88
419520 Off ch=5 n=67 v=64
419520 On ch=5 n=72 v=89
419760 Off ch=5 n=72 v=64
419760 On ch=5 n=76 v=90
420000 Off ch=5 n=76 v=64
420000 On ch=5 n=79 v=91
420240 Off ch=5 n=79 v=64
420240 On ch=5 n=84 v=91
420480 Off ch=5 n=84 v=64
420480 On ch=5 n=88 v=91
420720 Off ch=5 n=88 v=64
420720 On ch=5 n=84 v=89
420960 Off ch=5 n=84 v=64
420960 On ch=5 n=79 v=89
421200 Off ch=5 n=79 v=64
421200 On ch=5 n=76 v=89
421440 Off ch=5 n=76 v=64
421440 On ch=5 n=72 v=88
421680 Off ch=5 n=72 v=64
421680 On ch=5 n=67 v=87
421920 Off ch=5 n=67 v=64
421920 On ch=5 n=64 v=86
422160 Off ch=5 n=64 v=64
422160 On ch=5 n=60 v=85
422400 Off ch=5 n=60 v=64
422400 On ch=5 n=50 v=86
422400 Par ch=5 c=64 v=0
422496 Par ch=5 c=64 v=127
422640 Off ch=5 n=50 v=64
422640 On ch=5 n=57 v=86
422880 Off ch=5 n=57 v=64
422880 On ch=5 n=62 v=86
423120 Off ch=5 n=62 v=64
423120 On ch=5 n=66 v=86
423360 Off ch=5 n=66 v=64
423360 On ch=5 n=69 v=87
423600 Off ch=5 n=69 v=64
423600 On ch=5 n=74 v=87
423840 Off ch=5 n=74 v=64
423840 On ch=5 n=78 v=88
424080 Off ch=5 n=78 v=64
424080 On ch=5 n=81 v=89
424320 Off ch=5 n=81 v=64
424320 On ch=5 n=86 v=91
424560 Off ch=5 n=86 v=64
424560 On ch=5 n=81 v=90
424800 Off ch=5 n=81 v=64
424800 On ch=5 n=78 v=89
425040 Off ch=5 n=78 v=64
425040 On ch=5 n=74 v=88
425280 Off ch=5 n=74 v=64
425280 On ch=5 n=69 v=87
425520 Off ch=5 n=69 v=64
425520 On ch=5 n=66 v=86
425760 Off ch=5 n=66 v=64
425760 On ch=5 n=62 v=86
426000 Off ch=5 n=62 v=64
426000 On ch=5 n=57 v=86
426240 Off ch=5 n=57 v=64
426240 On ch=5 n=52 v=85
426240 Par ch=5 c=64 v=0
426360 Par ch=5 c=64 v=127
426480 Off ch=5 n=52 v=64
426480 On ch=5 n=59 v=85
426720 Off ch=5 n=59 v=64
426720 On ch=5 n=64 v=85
426960 Off ch=5 n=64 v=64
426960 On ch=5 n=67 v=86
427200 Off ch=5 n=67 v=64
427200 On ch=5 n=71 v=86
427440 Off ch=5 n=71 v=64
427440 On ch=5 n=76 v=87
427680 Off ch=5 n=76 v=64
427680 On ch=5 n=79 v=89
427920 Off ch=5 n=79 v=64
427920 On ch=5 n=83 v=90
428160 Off ch=5 n=83 v=64
428160 On ch=5 n=88 v=93
428400 Off ch=5 n=88 v=64
428400 On ch=5 n=83 v=88
428640 Off ch=5 n=83 v=64
428640 On ch=5 n=79 v=87
428880 Off ch=5 n=79 v=64
428880 On ch=5 n=76 v=86
429120 Off ch=5 n=76 v=64
429120 On ch=5 n=71 v=85
429360 Off ch=5 n=71 v=64
429360 On ch=5 n=67 v=84
429600 Off ch=5 n=67 v=64
429600 On ch=5 n=64 v=84
429840 Off ch=5 n=64 v=64
429840 On ch=5 n=59 v=84
430080 Off ch=5 n=59 v=64
430080 On ch=5 n=52 v=85
430080 Par ch=5 c=64 v=0
430128 Par ch=5 c=64 v=127
430320 Off ch=5 n=52 v=64
430320 On ch=5 n=59 v=85
430560 Off ch=5 n=59 v=64
430560 On ch=5 n=64 v=85
430800 Off ch=5 n=64 v=64
430800 On ch=5 n=67 v=86
431040 Off ch=5 n=67 v=64
431040 On ch=5 n=71 v=86
431280 Off ch=5 n=71 v=64
431280 On ch=5 n=76 v=87
431520 Off ch=5 n=76 v=64
431520 On ch=5 n=79 v=89
431760 Off ch=5 n=79 v=64
431760 On ch=5 n=83 v=90
432000 Off ch=5 n=83 v=64
432000 On ch=5 n=88 v=93
432240 Off ch=5 n=88 v=64
432240 On ch=5 n=83 v=88
432480 Off ch=5 n=83 v=64
432480 On ch=5 n=79 v=87
432720 Off ch=5 n=79 v=64
432720 On ch=5 n=76 v=86
432960 Off ch=5 n=76 v=64
432960 On ch=5 n=71 v=85
433200 Off ch=5 n=71 v=64
433200 On ch=5 n=67 v=84
433440 Off ch=5 n=67 v=64
433440 On ch=5 n=64 v=84
433680 Off ch=5 n=64 v=64
433680 On ch=5 n=63 v=84
433920 Off ch=5 n=63 v=64
433920 Par ch=5 c=64 v=0
433920 On ch=5 n=64 v=114
434040 Par ch=5 c=64 v=127
434160 Off ch=5 n=64 v=64
434160 On ch=5 n=60 v=114
434400 Off ch=5 n=60 v=64
434400 On ch=5 n=64 v=114
434640 Off ch=5 n=64 v=64
434640 On ch=5 n=66 v=114
434880 Off ch=5 n=66 v=64
434880 On ch=5 n=67 v=114
435120 Off ch=5 n=67 v=64
435120 On ch=5 n=66 v=114
435360 Off ch=5 n=66 v=64
435360 On ch=5 n=67 v=114
435600 Off ch=5 n=67 v=64
435600 On ch=5 n=72 v=114
435840 Off ch=5 n=72 v=64
435840 On ch=5 n=76 v=114
436080 Off ch=5 n=76 v=64
436080 On ch=5 n=75 v=114
436320 Off ch=5 n=75 v=64
436320 On ch=5 n=76 v=114
436560 Off ch=5 n=76 v=64
436560 On ch=5 n=78 v=114
436800 Off ch=5 n=78 v=64
436800 On ch=5 n=79 v=114
437040 Off ch=5 n=79 v=64
437040 On ch=5 n=78 v=114
437280 Off ch=5 n=78 v=64
437280 On ch=5 n=79 v=114
437520 Off ch=5 n=79 v=64
437520 On ch=5 n=81 v=114
437760 Off ch=5 n=81 v=64
437760 Par ch=5 c=64 v=0
437760 On ch=5 n=83 v=114
437808 Par ch=5 c=64 v=127
438000 Off ch=5 n=83 v=64
438000 On ch=5 n=81 v=114
438240 Off ch=5 n=81 v=64
438240 On ch=5 n=83 v=114
438480 Off ch=5 n=83 v=64
438480 On ch=5 n=78 v=114
438720 Off ch=5 n=78 v=64
438720 On ch=5 n=74 v=114
438960 Off ch=5 n=74 v=64
438960 On ch=5 n=71 v=114
439200 Off ch=5 n=71 v=64
439200 On ch=5 n=69 v=114
439440 Off ch=5 n=69 v=64
439440 On ch=5 n=71 v=114
439680 Off ch=5 n=71 v=64
439680 On ch=5 n=74 v=114
439920 Off ch=5 n=74 v=64
439920 On ch=5 n=78 v=114
440160 Off ch=5 n=78 v=64
440160 On ch=5 n=79 v=114
440400 Off ch=5 n=79 v=64
440400 On ch=5 n=81 v=114
440640 Off ch=5 n=81 v=64
440640 On ch=5 n=83 v=114
440880 Off ch=5 n=83 v=64
440880 On ch=5 n=84 v=114
441120 Off ch=5 n=84 v=64
441120 On ch=5 n=86 v=114
441360 Off ch=5 n=86 v=64
441360 On ch=5 n=87 v=114
441600 Off ch=5 n=87 v=64
441600 Par ch=5 c=64 v=0
441600 On ch=5 n=88 v=114
441720 Par ch=5 c=64 v=127
441840 Off ch=5 n=88 v=64
441840 On ch=5 n=87 v=114
442080 Off ch=5 n=87 v=64
442080 On ch=5 n=88 v=115
442320 Off ch=5 n=88 v=64
442320 On ch=5 n=83 v=115
442560 Off ch=5 n=83 v=64
442560 On ch=5 n=81 v=115
442800 Off ch=5 n=81 v=64
442800 On ch=5 n=83 v=115
443040 Off ch=5 n=83 v=64
443040 On ch=5 n=79 v=115
443280 Off ch=5 n=79 v=64
443280 On ch=5 n=78 v=115
443520 Off ch=5 n=78 v=64
443520 On ch=5 n=79 v=115
443760 Off ch=5 n=79 v=64
443760 On ch=5 n=76 v=115
444000 Off ch=5 n=76 v=64
444000 On ch=5 n=75 v=115
444240 Off ch=5 n=75 v=64
444240 On ch=5 n=76 v=115
444480 Off ch=5 n=76 v=64
444480 On ch=5 n=71 v=115
444720 Off ch=5 n=71 v=64
444720 On ch=5 n=69 v=115
444960 Off ch=5 n=69 v=64
444960 On ch=5 n=71 v=115
445200 Off ch=5 n=71 v=64
445200 On ch=5 n=72 v=115
445440 Off ch=5 n=72 v=64
445440 Par ch=5 c=64 v=0
445440 On ch=5 n=71 v=116
445488 Par ch=5 c=64 v=127
445680 Off ch=5 n=71 v=64
445680 On ch=5 n=76 v=116
445920 Off ch=5 n=76 v=64
445920 On ch=5 n=75 v=116
446160 Off ch=5 n=75 v=64
446160 On ch=5 n=76 v=116
446400 Off ch=5 n=76 v=64
446400 On ch=5 n=71 v=116
446640 Off ch=5 n=71 v=64
446640 On ch=5 n=67 v=116
446880 Off ch=5 n=67 v=64
446880 On ch=5 n=71 v=116
447120 Off ch=5 n=71 v=64
447120 On ch=5 n=66 v=116
447360 Off ch=5 n=66 v=64
447360 On ch=5 n=71 v=116
447600 Off ch=5 n=71 v=64
447600 On ch=5 n=64 v=116
447840 Off ch=5 n=64 v=64
447840 On ch=5 n=63 v=117
448080 Off ch=5 n=63 v=64
448080 On ch=5 n=64 v=117
448320 Off ch=5 n=64 v=64
448320 On ch=5 n=66 v=117
448560 Off ch=5 n=66 v=64
448560 On ch=5 n=67 v=117
448800 Off ch=5 n=67 v=64
448800 On ch=5 n=69 v=117
449040 Off ch=5 n=69 v=64
449040 On ch=5 n=71 v=117
449280 Off ch=5 n=71 v=64
449280 On ch=5 n=72 v=117
449280 Par ch=5 c=64 v=0
449328 Par ch=5 c=64 v=127
449520 Off ch=5 n=72 v=64
449520 On ch=5 n=71 v=117
449760 Off ch=5 n=71 v=64
449760 On ch=5 n=72 v=117
450000 Off ch=5 n=72 v=64
450000 On ch=5 n=74 v=118
450240 Off ch=5 n=74 v=64
450240 On ch=5 n=76 v=118
450480 Off ch=5 n=76 v=64
450480 On ch=5 n=74 v=118
450720 Off ch=5 n=74 v=64
450720 On ch=5 n=76 v=118
450960 Off ch=5 n=76 v=64
450960 On ch=5 n=78 v=118
451200 Off ch=5 n=78 v=64
451200 On ch=5 n=79 v=118
451440 Off ch=5 n=79 v=64
451440 On ch=5 n=78 v=118
451680 Off ch=5 n=78 v=64
451680 On ch=5 n=79 v=118
451920 Off ch=5 n=79 v=64
451920 On ch=5 n=83 v=119
452160 Off ch=5 n=83 v=64
452160 On ch=5 n=84 v=119
452400 Off ch=5 n=84 v=64
452400 On ch=5 n=79 v=119
452640 Off ch=5 n=79 v=64
452640 On ch=5 n=76 v=119
452880 Off ch=5 n=76 v=64
452880 On ch=5 n=72 v=119
453120 Off ch=5 n=72 v=64
453120 On ch=5 n=74 v=119
453120 Par ch=5 c=64 v=0
453240 Par ch=5 c=64 v=127
453360 Off ch=5 n=74 v=64
453360 On ch=5 n=72 v=119
453600 Off ch=5 n=72 v=64
453600 On ch=5 n=74 v=120
453840 Off ch=5 n=74 v=64
453840 On ch=5 n=76 v=120
454080 Off ch=5 n=76 v=64
454080 On ch=5 n=78 v=120
454320 Off ch=5 n=78 v=64
454320 On ch=5 n=76 v=120
454560 Off ch=5 n=76 v=64
454560 On ch=5 n=78 v=120
454800 Off ch=5 n=78 v=64
454800 On ch=5 n=79 v=120
455040 Off ch=5 n=79 v=64
455040 On ch=5 n=81 v=120
455280 Off ch=5 n=81 v=64
455280 On ch=5 n=79 v=121
455520 Off ch=5 n=79 v=64
455520 On ch=5 n=81 v=121
455760 Off ch=5 n=81 v=64
455760 On ch=5 n=83 v=121
456000 Off ch=5 n=83 v=64
456000 On ch=5 n=86 v=121
456240 Off ch=5 n=86 v=64
456240 On ch=5 n=81 v=121
456480 Off ch=5 n=81 v=64
456480 On ch=5 n=78 v=121
456720 Off ch=5 n=78 v=64
456720 On ch=5 n=74 v=122
456960 Off ch=5 n=74 v=64
456960 On ch=5 n=76 v=122
456960 Par ch=5 c=64 v=0
457008 Par ch=5 c=64 v=127
457200 Off ch=5 n=76 v=64
457200 On ch=5 n=74 v=122
457440 Off ch=5 n=74 v=64
457440 On ch=5 n=76 v=122
457680 Off ch=5 n=76 v=64
457680 On ch=5 n=78 v=122
457920 Off ch=5 n=78 v=64
457920 On ch=5 n=79 v=122
458160 Off ch=5 n=79 v=64
458160 On ch=5 n=78 v=123
458400 Off ch=5 n=78 v=64
458400 On ch=5 n=79 v=123
458640 Off ch=5 n=79 v=64
458640 On ch=5 n=81 v=123
458880 Off ch=5 n=81 v=64
458880 On ch=5 n=83 v=123
459120 Off ch=5 n=83 v=64
459120 On ch=5 n=81 v=123
459360 Off ch=5 n=81 v=64
459360 On ch=5 n=83 v=124
459600 Off ch=5 n=83 v=64
459600 On ch=5 n=86 v=124
459840 Off ch=5 n=86 v=64
459840 On ch=5 n=88 v=124
460080 Off ch=5 n=88 v=64
460080 On ch=5 n=86 v=124
460320 Off ch=5 n=86 v=64
460320 On ch=5 n=88 v=124
460560 Off ch=5 n=88 v=64
460560 On ch=5 n=90 v=125
460800 Off ch=5 n=90 v=64
460800 On ch=5 n=91 v=125
460800 Par ch=5 c=64 v=0
460920 Par ch=5 c=64 v=127
461040 Off ch=5 n=91 v=64
461040 On ch=5 n=90 v=125
461280 Off ch=5 n=90 v=64
461280 On ch=5 n=91 v=125
461520 Off ch=5 n=91 v=64
461520 On ch=5 n=93 v=125
461760 Off ch=5 n=93 v=64
461760 On ch=5 n=95 v=126
462000 Off ch=5 n=95 v=64
462000 On ch=5 n=93 v=126
462240 Off ch=5 n=93 v=64
462240 On ch=5 n=95 v=126
462480 Off ch=5 n=95 v=64
462480 On ch=5 n=98 v=126
462720 Off ch=5 n=98 v=64
462720 On ch=5 n=100 v=126
462960 Off ch=5 n=100 v=64
463328 Par ch=5 c=64 v=0
463680 On ch=5 n=71 v=95
464160 On ch=5 n=74 v=99
464164 Off ch=5 n=71 v=64
464640 Par ch=5 c=64 v=0
464640 On ch=5 n=74 v=95
464640 On ch=5 n=48 v=82
464644 Off ch=5 n=74 v=64
464800 Par ch=5 c=64 v=127
465120 On ch=5 n=76 v=95
465120 On ch=5 n=60 v=70
465364 Off ch=5 n=74 v=64
465600 Off ch=5 n=60 v=64
465600 Off ch=5 n=48 v=64
465600 On ch=5 n=71 v=93
465600 On ch=5 n=64 v=69
465604 Off ch=5 n=76 v=64
466080 Off ch=5 n=64 v=64
466080 On ch=5 n=69 v=93
466080 On ch=5 n=67 v=67
466084 Off ch=5 n=71 v=64
466560 On ch=5 n=71 v=98
466564 Off ch=5 n=69 v=64
467520 On ch=5 n=69 v=95
467564 Off ch=5 n=71 v=64
467860 Off ch=5 n=67 v=64
468000 On ch=5 n=71 v=95
468284 Off ch=5 n=69 v=64
468480 On ch=5 n=74 v=96
468480 On ch=5 n=50 v=80
468480 Par ch=5 c=64 v=0
468484 Off ch=5 n=71 v=64
468576 Par ch=5 c=64 v=127
468960 On ch=5 n=76 v=98
468960 On ch=5 n=57 v=69
469224 Off ch=5 n=74 v=64
469440 Off ch=5 n=57 v=64
469440 Off ch=5 n=50 v=64
469440 On ch=5 n=71 v=94
469440 On ch=5 n=62 v=67
469444 Off ch=5 n=76 v=64
469920 Off ch=5 n=62 v=64
469920 On ch=5 n=69 v=90
469920 On ch=5 n=66 v=67
469924 Off ch=5 n=71 v=64
470400 On ch=5 n=71 v=94
470404 Off ch=5 n=69 v=64
471360 On ch=5 n=69 v=87
471644 Off ch=5 n=71 v=64
471740 Off ch=5 n=66 v=64
471840 On ch=5 n=71 v=91
471844 Off ch=5 n=69 v=64
472320 On ch=5 n=69 v=94
472320 On ch=5 n=52 v=80
472320 Par ch=5 c=64 v=0
472324 Off ch=5 n=71 v=64
472480 Par ch=5 c=64 v=126
472800 On ch=5 n=67 v=89
472800 On ch=5 n=55 v=67
473044 Off ch=5 n=69 v=64
473280 Off ch=5 n=55 v=64
473280 Off ch=5 n=52 v=64
473280 On ch=5 n=66 v=92
473280 On ch=5 n=59 v=67
473304 Off ch=5 n=67 v=64
473744 Off ch=5 n=66 v=64
473760 Off ch=5 n=59 v=64
473760 On ch=5 n=62 v=89
474240 On ch=5 n=64 v=88
474324 Off ch=5 n=62 v=64
474720 On ch=5 n=59 v=67
475200 Off ch=5 n=59 v=64
475200 On ch=5 n=62 v=93
475200 On ch=5 n=55 v=69
475392 Off ch=5 n=64 v=64
475680 Off ch=5 n=55 v=64
475680 On ch=5 n=64 v=90
475680 On ch=5 n=52 v=74
475924 Off ch=5 n=62 v=64
476160 Off ch=5 n=52 v=64
476160 On ch=5 n=66 v=92
476160 On ch=5 n=47 v=67
476160 Par ch=5 c=64 v=0
476164 Off ch=5 n=64 v=64
476352 Par ch=5 c=64 v=127
476640 Off ch=5 n=47 v=64
476640 On ch=5 n=67 v=91
476640 On ch=5 n=52 v=67
476924 Off ch=5 n=66 v=64
477120 Off ch=5 n=52 v=64
477120 On ch=5 n=69 v=89
477120 On ch=5 n=54 v=70
477124 Off ch=5 n=67 v=64
477564 Off ch=5 n=69 v=64
477600 Off ch=5 n=54 v=64
477600 On ch=5 n=71 v=87
477600 On ch=5 n=55 v=68
478044 Off ch=5 n=71 v=64
478080 Off ch=5 n=55 v=64
478080 On ch=5 n=64 v=77
478080 On ch=5 n=55 v=62
479024 Off ch=5 n=64 v=64
479040 Off ch=5 n=55 v=64
479040 On ch=5 n=71 v=83
479040 On ch=5 n=54 v=45
479168 Par ch=5 c=64 v=0
479520 On ch=5 n=74 v=85
479524 Off ch=5 n=71 v=64
480000 Off ch=5 n=54 v=64
480000 On ch=5 n=74 v=83
480000 On ch=5 n=52 v=52
480004 Off ch=5 n=74 v=64
480480 Off ch=5 n=52 v=64
480480 On ch=5 n=76 v=80
480480 On ch=5 n=48 v=52
480524 Off ch=5 n=74 v=64
480960 Off ch=5 n=48 v=64
480960 On ch=5 n=71 v=81
480960 On ch=5 n=52 v=50
480964 Off ch=5 n=76 v=64
481440 Off ch=5 n=52 v=64
481440 On ch=5 n=69 v=78
481440 On ch=5 n=55 v=48
481444 Off ch=5 n=71 v=64
481920 Off ch=5 n=55 v=64
481920 On ch=5 n=71 v=76
481924 Off ch=5 n=69 v=64
482880 On ch=5 n=69 v=76
482924 Off ch=5 n=71 v=64
483360 On ch=5 n=71 v=79
483644 Off ch=5 n=69 v=64
483840 On ch=5 n=74 v=82
483840 On ch=5 n=54 v=52
483844 Off ch=5 n=71 v=64
484320 Off ch=5 n=54 v=64
484320 On ch=5 n=76 v=78
484320 On ch=5 n=50 v=56
484344 Off ch=5 n=74 v=64
484800 Off ch=5 n=50 v=64
484800 On ch=5 n=71 v=78
484800 On ch=5 n=54 v=56
484804 Off ch=5 n=76 v=64
485280 Off ch=5 n=54 v=64
485280 On ch=5 n=69 v=76
485280 On ch=5 n=57 v=53
485284 Off ch=5 n=71 v=64
485760 Off ch=5 n=57 v=64
485760 On ch=5 n=71 v=77
485760 On ch=5 n=59 v=55
485764 Off ch=5 n=69 v=64
486240 Off ch=5 n=59 v=64
486240 On ch=5 n=62 v=56
486720 Off ch=5 n=62 v=64
486720 On ch=5 n=76 v=79
486720 On ch=5 n=64 v=63
487004 Off ch=5 n=71 v=64
487200 On ch=5 n=78 v=78
487200 On ch=5 n=66 v=66
487204 Off ch=5 n=64 v=64
487204 Off ch=5 n=76 v=64
487540 On ch=5 n=67 v=66
487540 On ch=5 n=40 v=67
487560 On ch=5 n=52 v=62
487640 On ch=5 n=71 v=58
487660 On ch=5 n=76 v=63
487680 On ch=5 n=79 v=84
487684 Off ch=5 n=66 v=64
487684 Off ch=5 n=78 v=64
488120 Off ch=5 n=71 v=64
488140 Off ch=5 n=76 v=64
488160 On ch=5 n=78 v=81
488160 On ch=5 n=66 v=65
488204 Off ch=5 n=79 v=64
488264 Off ch=5 n=67 v=64
488640 On ch=5 n=76 v=79
488640 On ch=5 n=64 v=65
488664 Off ch=5 n=66 v=64
488664 Off ch=5 n=78 v=64
489104 Off ch=5 n=64 v=64
489104 Off ch=5 n=76 v=64
489120 On ch=5 n=74 v=76
489120 On ch=5 n=62 v=64
489500 On ch=5 n=64 v=62
489564 Off ch=5 n=62 v=64
489564 Off ch=5 n=74 v=64
489600 On ch=5 n=71 v=75
490100 On ch=5 n=59 v=45
490380 Off ch=5 n=64 v=64
490560 On ch=5 n=69 v=74
490560 On ch=5 n=66 v=49
490580 Off ch=5 n=59 v=64
490752 Off ch=5 n=71 v=64
491000 Off ch=5 n=40 v=64
491020 Off ch=5 n=52 v=64
491040 Off ch=5 n=66 v=64
491040 On ch=5 n=71 v=73
491040 On ch=5 n=59 v=41
491160 On ch=5 n=52 v=56
491284 Off ch=5 n=69 v=64
491420 Off ch=5 n=59 v=64
491520 On ch=5 n=69 v=72
491524 Off ch=5 n=71 v=64
491560 On ch=5 n=59 v=42
491560 On ch=5 n=55 v=44
492000 On ch=5 n=67 v=71
492284 Off ch=5 n=69 v=64
492480 On ch=5 n=66 v=70
492484 Off ch=5 n=67 v=64
492924 Off ch=5 n=66 v=64
492960 On ch=5 n=62 v=69
493080 Off ch=5 n=52 v=64
493404 Off ch=5 n=62 v=64
493440 On ch=5 n=64 v=69
493460 On ch=5 n=40 v=36
493480 Off ch=5 n=55 v=64
493480 Off ch=5 n=59 v=64
494400 On ch=5 n=83 v=65
494410 Off ch=5 n=64 v=64
494450 Off ch=5 n=40 v=64
494880 Off ch=5 n=83 v=64
494880 On ch=5 n=86 v=65
495360 Off ch=5 n=86 v=64
495360 On ch=5 n=86 v=67
495840 Off ch=5 n=86 v=64
495840 On ch=5 n=88 v=68
496320 Off ch=5 n=88 v=64
496320 On ch=5 n=83 v=66
496800 Off ch=5 n=83 v=64
496800 On ch=5 n=81 v=62
497280 Off ch=5 n=81 v=64
497280 On ch=5 n=83 v=64
499780 Off ch=5 n=83 v=64
502080 On ch=5 n=83 v=56
502560 Off ch=5 n=83 v=64
502560 On ch=5 n=86 v=57
503040 Off ch=5 n=86 v=64
503040 On ch=5 n=86 v=58
503040 On ch=5 n=40 v=35
503040 Par ch=5 c=64 v=127
503520 Off ch=5 n=40 v=64
503520 Off ch=5 n=86 v=64
503520 On ch=5 n=88 v=59
503520 On ch=5 n=52 v=33
504000 Off ch=5 n=52 v=64
504000 Off ch=5 n=88 v=64
504000 On ch=5 n=83 v=56
504000 On ch=5 n=57 v=35
504480 Off ch=5 n=57 v=64
504480 Off ch=5 n=83 v=64
504480 On ch=5 n=81 v=52
504480 On ch=5 n=62 v=39
504960 Off ch=5 n=62 v=64
504960 Off ch=5 n=81 v=64
504960 On ch=5 n=83 v=52
504960 On ch=5 n=64 v=40
505440 Off ch=5 n=64 v=64
505440 On ch=5 n=69 v=39
505920 Off ch=5 n=69 v=64
505920 On ch=5 n=71 v=36
506270 Off ch=5 n=83 v=64
506400 Off ch=5 n=71 v=64
506400 On ch=5 n=69 v=34
506810 On ch=5 n=76 v=56
506880 Off ch=5 n=69 v=64
506880 Par ch=5 c=64 v=0
506960 Par ch=5 c=64 v=127
506980 On ch=5 n=80 v=56
507010 On ch=5 n=83 v=56
507020 On ch=5 n=88 v=56
508660 Off ch=5 n=83 v=64
508710 Off ch=5 n=80 v=64
508730 Off ch=5 n=76 v=64
508740 Par ch=5 c=64 v=0
508880 Off ch=5 n=88 v=64
508880 Meta TrkEnd
TrkEnd
MTrk
0 SeqSpec 43 00 01 ff
0 Meta TrkName "Vibraphone"
1920 PrCh ch=6 p=12
1930 Par ch=6 c=7 v=100
1940 Par ch=6 c=10 v=64
1950 Par ch=6 c=11 v=127
1960 Par ch=6 c=20 v=127
1970 Par ch=6 c=91 v=0
1980 Par ch=6 c=93 v=0
1990 Par ch=6 c=94 v=0
2000 Par ch=6 c=101 v=0
2010 Par ch=6 c=100 v=0
2020 Par ch=6 c=6 v=2
2030 Par ch=6 c=101 v=127
2040 Par ch=6 c=100 v=127
157440 Par ch=6 c=7 v=126
158400 On ch=6 n=82 v=99
158660 Off ch=6 n=82 v=64
158880 On ch=6 n=85 v=99
159140 Off ch=6 n=85 v=64
159360 On ch=6 n=85 v=99
159840 On ch=6 n=87 v=99
159860 Off ch=6 n=85 v=64
160100 Off ch=6 n=87 v=64
160320 On ch=6 n=82 v=99
160580 Off ch=6 n=82 v=64
160800 On ch=6 n=80 v=99
161060 Off ch=6 n=80 v=64
161280 On ch=6 n=82 v=99
162060 Off ch=6 n=82 v=64
162240 On ch=6 n=80 v=99
162720 On ch=6 n=82 v=99
162780 Off ch=6 n=80 v=64
162980 Off ch=6 n=82 v=64
163200 On ch=6 n=85 v=99
163680 On ch=6 n=87 v=99
163720 Off ch=6 n=85 v=64
163940 Off ch=6 n=87 v=64
164160 On ch=6 n=82 v=99
164420 Off ch=6 n=82 v=64
164640 On ch=6 n=80 v=99
164900 Off ch=6 n=80 v=64
165120 On ch=6 n=82 v=99
166080 On ch=6 n=80 v=99
166140 Off ch=6 n=82 v=64
166340 Off ch=6 n=80 v=64
166560 On ch=6 n=82 v=99
166820 Off ch=6 n=82 v=64
167040 On ch=6 n=80 v=99
167520 On ch=6 n=78 v=99
167540 Off ch=6 n=80 v=64
167800 Off ch=6 n=78 v=64
168000 On ch=6 n=77 v=99
168240 Off ch=6 n=77 v=64
168480 On ch=6 n=73 v=99
168820 Off ch=6 n=73 v=64
168960 On ch=6 n=75 v=99
169816 Off ch=6 n=75 v=64
169920 On ch=6 n=73 v=99
170400 On ch=6 n=75 v=99
170420 Off ch=6 n=73 v=64
170660 Off ch=6 n=75 v=64
170880 On ch=6 n=77 v=99
171360 On ch=6 n=78 v=99
171420 Off ch=6 n=77 v=64
171620 Off ch=6 n=78 v=64
171840 On ch=6 n=80 v=99
172060 Off ch=6 n=80 v=64
172320 On ch=6 n=82 v=99
172540 Off ch=6 n=82 v=64
172800 On ch=6 n=78 v=99
173520 Off ch=6 n=78 v=64
173760 On ch=6 n=82 v=99
174020 Off ch=6 n=82 v=64
174240 On ch=6 n=85 v=99
174500 Off ch=6 n=85 v=64
174720 On ch=6 n=85 v=99
175200 On ch=6 n=87 v=99
175220 Off ch=6 n=85 v=64
175460 Off ch=6 n=87 v=64
175680 On ch=6 n=82 v=99
175940 Off ch=6 n=82 v=64
176160 On ch=6 n=80 v=99
176420 Off ch=6 n=80 v=64
176640 On ch=6 n=82 v=99
177420 Off ch=6 n=82 v=64
177600 On ch=6 n=80 v=99
178080 On ch=6 n=82 v=99
178140 Off ch=6 n=80 v=64
178340 Off ch=6 n=82 v=64
178560 On ch=6 n=85 v=99
179040 On ch=6 n=87 v=99
179080 Off ch=6 n=85 v=64
179300 Off ch=6 n=87 v=64
179520 On ch=6 n=87 v=99
179780 Off ch=6 n=87 v=64
180000 On ch=6 n=89 v=99
180260 Off ch=6 n=89 v=64
180480 On ch=6 n=90 v=99
180960 On ch=6 n=89 v=99
180980 Off ch=6 n=90 v=64
181240 Off ch=6 n=89 v=64
181440 On ch=6 n=87 v=99
181680 Off ch=6 n=87 v=64
181920 On ch=6 n=85 v=99
182260 Off ch=6 n=85 v=64
182400 On ch=6 n=82 v=99
183328 Off ch=6 n=82 v=64
183360 On ch=6 n=80 v=99
183840 On ch=6 n=82 v=99
183860 Off ch=6 n=80 v=64
184100 Off ch=6 n=82 v=64
184320 On ch=6 n=80 v=99
184800 On ch=6 n=78 v=99
184860 Off ch=6 n=80 v=64
185060 Off ch=6 n=78 v=64
185280 On ch=6 n=77 v=99
185500 Off ch=6 n=77 v=64
185760 On ch=6 n=73 v=99
185980 Off ch=6 n=73 v=64
186240 On ch=6 n=75 v=99
187152 Off ch=6 n=75 v=64
249600 On ch=6 n=75 v=75
249840 Off ch=6 n=75 v=64
250080 On ch=6 n=82 v=75
250320 Off ch=6 n=82 v=64
250560 On ch=6 n=80 v=75
250800 Off ch=6 n=80 v=64
251040 On ch=6 n=82 v=75
251280 Off ch=6 n=82 v=64
251520 On ch=6 n=78 v=75
251760 Off ch=6 n=78 v=64
252000 On ch=6 n=82 v=75
252240 Off ch=6 n=82 v=64
252480 On ch=6 n=77 v=75
252720 Off ch=6 n=77 v=64
252960 On ch=6 n=82 v=75
253200 Off ch=6 n=82 v=64
253440 On ch=6 n=75 v=75
253680 Off ch=6 n=75 v=64
253920 On ch=6 n=82 v=75
254160 Off ch=6 n=82 v=64
254400 On ch=6 n=80 v=75
254640 Off ch=6 n=80 v=64
254880 On ch=6 n=82 v=75
255120 Off ch=6 n=82 v=64
255360 On ch=6 n=78 v=75
255600 Off ch=6 n=78 v=64
255840 On ch=6 n=82 v=75
256080 Off ch=6 n=82 v=64
256320 On ch=6 n=77 v=75
256560 Off ch=6 n=77 v=64
256800 On ch=6 n=82 v=75
257040 Off ch=6 n=82 v=64
257280 On ch=6 n=75 v=75
257520 Off ch=6 n=75 v=64
257760 On ch=6 n=83 v=75
258000 Off ch=6 n=83 v=64
258240 On ch=6 n=82 v=75
258480 Off ch=6 n=82 v=64
258720 On ch=6 n=83 v=75
258960 Off ch=6 n=83 v=64
259200 On ch=6 n=78 v=75
259440 Off ch=6 n=78 v=64
259680 On ch=6 n=83 v=75
259920 Off ch=6 n=83 v=64
260160 On ch=6 n=75 v=75
260400 Off ch=6 n=75 v=64
260640 On ch=6 n=83 v=75
260880 Off ch=6 n=83 v=64
261120 On ch=6 n=77 v=75
261360 Off ch=6 n=77 v=64
261600 On ch=6 n=85 v=75
261840 Off ch=6 n=85 v=64
262080 On ch=6 n=80 v=75
262320 Off ch=6 n=80 v=64
262560 On ch=6 n=85 v=75
262800 Off ch=6 n=85 v=64
263040 On ch=6 n=82 v=75
263280 Off ch=6 n=82 v=64
263520 On ch=6 n=86 v=75
263760 Off ch=6 n=86 v=64
264000 On ch=6 n=77 v=75
264240 Off ch=6 n=77 v=64
264480 On ch=6 n=86 v=75
264720 Off ch=6 n=86 v=64
264960 On ch=6 n=87 v=75
265200 Off ch=6 n=87 v=64
265440 On ch=6 n=82 v=76
265680 Off ch=6 n=82 v=64
265920 On ch=6 n=80 v=76
266160 Off ch=6 n=80 v=64
266400 On ch=6 n=82 v=76
266640 Off ch=6 n=82 v=64
266880 On ch=6 n=78 v=76
267120 Off ch=6 n=78 v=64
267360 On ch=6 n=82 v=76
267600 Off ch=6 n=82 v=64
267840 On ch=6 n=77 v=76
268080 Off ch=6 n=77 v=64
268320 On ch=6 n=82 v=76
268560 Off ch=6 n=82 v=64
268800 On ch=6 n=75 v=76
269040 Off ch=6 n=75 v=64
269280 On ch=6 n=82 v=76
269520 Off ch=6 n=82 v=64
269760 On ch=6 n=80 v=76
270000 Off ch=6 n=80 v=64
270240 On ch=6 n=82 v=76
270480 Off ch=6 n=82 v=64
270720 On ch=6 n=78 v=76
270960 Off ch=6 n=78 v=64
271200 On ch=6 n=82 v=76
271440 Off ch=6 n=82 v=64
271680 On ch=6 n=77 v=77
271920 Off ch=6 n=77 v=64
272160 On ch=6 n=82 v=77
272400 Off ch=6 n=82 v=64
272640 On ch=6 n=75 v=77
272880 Off ch=6 n=75 v=64
273120 On ch=6 n=83 v=77
273360 Off ch=6 n=83 v=64
273600 On ch=6 n=82 v=77
273840 Off ch=6 n=82 v=64
274080 On ch=6 n=83 v=77
274320 Off ch=6 n=83 v=64
274560 On ch=6 n=78 v=77
274800 Off ch=6 n=78 v=64
275040 On ch=6 n=83 v=77
275280 Off ch=6 n=83 v=64
275520 On ch=6 n=75 v=77
275760 Off ch=6 n=75 v=64
276000 On ch=6 n=83 v=77
276240 Off ch=6 n=83 v=64
276480 On ch=6 n=77 v=78
276720 Off ch=6 n=77 v=64
276960 On ch=6 n=85 v=78
277200 Off ch=6 n=85 v=64
277440 On ch=6 n=80 v=78
277680 Off ch=6 n=80 v=64
277920 On ch=6 n=85 v=78
278160 Off ch=6 n=85 v=64
278400 On ch=6 n=82 v=78
278640 Off ch=6 n=82 v=64
278880 On ch=6 n=86 v=78
279120 Off ch=6 n=86 v=64
279360 On ch=6 n=77 v=78
279600 Off ch=6 n=77 v=64
279840 On ch=6 n=86 v=78
280080 Off ch=6 n=86 v=64
280320 On ch=6 n=87 v=78
280800 Off ch=6 n=87 v=64
280800 On ch=6 n=82 v=75
281040 Off ch=6 n=82 v=64
281280 On ch=6 n=80 v=75
281520 Off ch=6 n=80 v=64
281760 On ch=6 n=82 v=75
282000 Off ch=6 n=82 v=64
282240 On ch=6 n=78 v=75
282480 Off ch=6 n=78 v=64
282720 On ch=6 n=82 v=75
282960 Off ch=6 n=82 v=64
283200 On ch=6 n=77 v=75
283440 Off ch=6 n=77 v=64
283680 On ch=6 n=82 v=75
283920 Off ch=6 n=82 v=64
284160 On ch=6 n=75 v=75
284400 Off ch=6 n=75 v=64
284640 On ch=6 n=82 v=75
284880 Off ch=6 n=82 v=64
285120 On ch=6 n=80 v=75
285360 Off ch=6 n=80 v=64
285600 On ch=6 n=82 v=75
285840 Off ch=6 n=82 v=64
286080 On ch=6 n=78 v=75
286320 Off ch=6 n=78 v=64
286560 On ch=6 n=82 v=75
286800 Off ch=6 n=82 v=64
287040 On ch=6 n=77 v=75
287280 Off ch=6 n=77 v=64
287520 On ch=6 n=82 v=75
287760 Off ch=6 n=82 v=64
288000 On ch=6 n=75 v=75
288240 Off ch=6 n=75 v=64
288480 On ch=6 n=83 v=75
288720 Off ch=6 n=83 v=64
288960 On ch=6 n=82 v=75
289200 Off ch=6 n=82 v=64
289440 On ch=6 n=83 v=75
289680 Off ch=6 n=83 v=64
289920 On ch=6 n=78 v=75
290160 Off ch=6 n=78 v=64
290400 On ch=6 n=83 v=75
290640 Off ch=6 n=83 v=64
290880 On ch=6 n=75 v=75
291120 Off ch=6 n=75 v=64
291360 On ch=6 n=83 v=75
291600 Off ch=6 n=83 v=64
291840 On ch=6 n=77 v=75
292080 Off ch=6 n=77 v=64
292320 On ch=6 n=85 v=75
292560 Off ch=6 n=85 v=64
292800 On ch=6 n=80 v=75
293040 Off ch=6 n=80 v=64
293280 On ch=6 n=85 v=75
293520 Off ch=6 n=85 v=64
293760 On ch=6 n=82 v=75
294000 Off ch=6 n=82 v=64
294240 On ch=6 n=86 v=75
294480 Off ch=6 n=86 v=64
294720 On ch=6 n=77 v=75
294960 Off ch=6 n=77 v=64
295200 On ch=6 n=86 v=75
295440 Off ch=6 n=86 v=64
295680 On ch=6 n=87 v=75
295920 Off ch=6 n=87 v=64
296160 On ch=6 n=82 v=75
296400 Off ch=6 n=82 v=64
296640 On ch=6 n=80 v=75
296880 Off ch=6 n=80 v=64
297120 On ch=6 n=82 v=75
297360 Off ch=6 n=82 v=64
297600 On ch=6 n=78 v=75
297840 Off ch=6 n=78 v=64
298080 On ch=6 n=82 v=75
298320 Off ch=6 n=82 v=64
298560 On ch=6 n=77 v=75
298800 Off ch=6 n=77 v=64
299040 On ch=6 n=82 v=75
299280 Off ch=6 n=82 v=64
299520 On ch=6 n=75 v=75
299760 Off ch=6 n=75 v=64
300000 On ch=6 n=82 v=75
300240 Off ch=6 n=82 v=64
300480 On ch=6 n=80 v=75
300720 Off ch=6 n=80 v=64
300960 On ch=6 n=82 v=75
301200 Off ch=6 n=82 v=64
301440 On ch=6 n=78 v=75
301680 Off ch=6 n=78 v=64
301920 On ch=6 n=82 v=75
302160 Off ch=6 n=82 v=64
302400 On ch=6 n=77 v=75
302640 Off ch=6 n=77 v=64
302880 On ch=6 n=82 v=75
303120 Off ch=6 n=82 v=64
303360 On ch=6 n=75 v=75
303600 Off ch=6 n=75 v=64
303840 On ch=6 n=83 v=75
304080 Off ch=6 n=83 v=64
304320 On ch=6 n=82 v=75
304560 Off ch=6 n=82 v=64
304800 On ch=6 n=83 v=75
305040 Off ch=6 n=83 v=64
305280 On ch=6 n=78 v=75
305520 Off ch=6 n=78 v=64
305760 On ch=6 n=83 v=75
306000 Off ch=6 n=83 v=64
306240 On ch=6 n=75 v=75
306480 Off ch=6 n=75 v=64
306720 On ch=6 n=83 v=75
306960 Off ch=6 n=83 v=64
307200 On ch=6 n=77 v=75
307440 Off ch=6 n=77 v=64
307680 On ch=6 n=85 v=75
307920 Off ch=6 n=85 v=64
308160 On ch=6 n=80 v=75
308400 Off ch=6 n=80 v=64
308640 On ch=6 n=85 v=75
308880 Off ch=6 n=85 v=64
309120 On ch=6 n=82 v=75
309360 Off ch=6 n=82 v=64
309600 On ch=6 n=86 v=75
309840 Off ch=6 n=86 v=64
310080 On ch=6 n=77 v=75
310320 Off ch=6 n=77 v=64
310560 On ch=6 n=86 v=75
310800 Off ch=6 n=86 v=64
311040 On ch=6 n=85 v=105
311520 On ch=6 n=87 v=105
311540 Off ch=6 n=85 v=64
311780 Off ch=6 n=87 v=64
312000 On ch=6 n=82 v=105
312260 Off ch=6 n=82 v=64
312480 On ch=6 n=80 v=105
312740 Off ch=6 n=80 v=64
312960 On ch=6 n=82 v=105
313740 Off ch=6 n=82 v=64
313920 On ch=6 n=80 v=105
314400 On ch=6 n=82 v=105
314460 Off ch=6 n=80 v=64
314660 Off ch=6 n=82 v=64
314880 On ch=6 n=85 v=105
315360 On ch=6 n=87 v=105
315400 Off ch=6 n=85 v=64
315620 Off ch=6 n=87 v=64
315840 On ch=6 n=82 v=105
316100 Off ch=6 n=82 v=64
316320 On ch=6 n=80 v=105
316580 Off ch=6 n=80 v=64
316800 On ch=6 n=82 v=105
317760 On ch=6 n=80 v=105
317820 Off ch=6 n=82 v=64
318020 Off ch=6 n=80 v=64
318240 On ch=6 n=82 v=105
318500 Off ch=6 n=82 v=64
318720 On ch=6 n=80 v=105
319200 On ch=6 n=78 v=105
319220 Off ch=6 n=80 v=64
319480 Off ch=6 n=78 v=64
319680 On ch=6 n=77 v=105
319920 Off ch=6 n=77 v=64
320160 On ch=6 n=73 v=105
320500 Off ch=6 n=73 v=64
320640 On ch=6 n=75 v=105
321496 Off ch=6 n=75 v=64
321600 On ch=6 n=73 v=105
322080 On ch=6 n=75 v=105
322100 Off ch=6 n=73 v=64
322340 Off ch=6 n=75 v=64
322560 On ch=6 n=77 v=105
323040 On ch=6 n=78 v=105
323100 Off ch=6 n=77 v=64
323300 Off ch=6 n=78 v=64
323520 On ch=6 n=80 v=105
323740 Off ch=6 n=80 v=64
324000 On ch=6 n=82 v=105
324220 Off ch=6 n=82 v=64
324480 On ch=6 n=75 v=105
325200 Off ch=6 n=75 v=64
325440 On ch=6 n=82 v=105
325700 Off ch=6 n=82 v=64
325920 On ch=6 n=85 v=105
326180 Off ch=6 n=85 v=64
326400 On ch=6 n=85 v=105
326880 On ch=6 n=87 v=105
326900 Off ch=6 n=85 v=64
327140 Off ch=6 n=87 v=64
327360 On ch=6 n=82 v=105
327620 Off ch=6 n=82 v=64
327840 On ch=6 n=80 v=105
328100 Off ch=6 n=80 v=64
328320 On ch=6 n=82 v=105
329100 Off ch=6 n=82 v=64
329280 On ch=6 n=80 v=105
329760 On ch=6 n=82 v=105
329820 Off ch=6 n=80 v=64
330020 Off ch=6 n=82 v=64
330240 On ch=6 n=85 v=105
330720 On ch=6 n=87 v=105
330760 Off ch=6 n=85 v=64
330980 Off ch=6 n=87 v=64
331200 On ch=6 n=82 v=105
331460 Off ch=6 n=82 v=64
331680 On ch=6 n=80 v=105
331940 Off ch=6 n=80 v=64
332160 On ch=6 n=82 v=105
333120 On ch=6 n=80 v=105
333180 Off ch=6 n=82 v=64
333380 Off ch=6 n=80 v=64
333600 On ch=6 n=82 v=105
333860 Off ch=6 n=82 v=64
334080 On ch=6 n=80 v=105
334560 On ch=6 n=78 v=105
334580 Off ch=6 n=80 v=64
334840 Off ch=6 n=78 v=64
335040 On ch=6 n=77 v=105
335280 Off ch=6 n=77 v=64
335520 On ch=6 n=73 v=105
335860 Off ch=6 n=73 v=64
336000 On ch=6 n=75 v=105
336856 Off ch=6 n=75 v=64
336960 On ch=6 n=73 v=105
337440 On ch=6 n=75 v=105
337460 Off ch=6 n=73 v=64
337700 Off ch=6 n=75 v=64
337920 On ch=6 n=77 v=105
338400 On ch=6 n=78 v=105
338460 Off ch=6 n=77 v=64
338660 Off ch=6 n=78 v=64
338880 On ch=6 n=80 v=105
339100 Off ch=6 n=80 v=64
339360 On ch=6 n=82 v=105
339580 Off ch=6 n=82 v=64
339840 On ch=6 n=75 v=105
340560 Off ch=6 n=75 v=64
371520 On ch=6 n=82 v=74
371780 Off ch=6 n=82 v=64
372000 On ch=6 n=85 v=74
372260 Off ch=6 n=85 v=64
372480 On ch=6 n=85 v=74
372960 On ch=6 n=87 v=74
372980 Off ch=6 n=85 v=64
373220 Off ch=6 n=87 v=64
373440 On ch=6 n=82 v=74
373700 Off ch=6 n=82 v=64
373920 On ch=6 n=80 v=74
374180 Off ch=6 n=80 v=64
374400 On ch=6 n=82 v=74
375180 Off ch=6 n=82 v=64
375360 On ch=6 n=80 v=74
375840 On ch=6 n=82 v=74
375900 Off ch=6 n=80 v=64
376100 Off ch=6 n=82 v=64
376320 On ch=6 n=85 v=74
376800 On ch=6 n=87 v=74
376840 Off ch=6 n=85 v=64
377060 Off ch=6 n=87 v=64
377280 On ch=6 n=82 v=74
377540 Off ch=6 n=82 v=64
377760 On ch=6 n=80 v=74
378020 Off ch=6 n=80 v=64
378240 On ch=6 n=82 v=74
379200 On ch=6 n=80 v=74
379260 Off ch=6 n=82 v=64
379460 Off ch=6 n=80 v=64
379680 On ch=6 n=82 v=74
379940 Off ch=6 n=82 v=64
380160 On ch=6 n=80 v=74
380640 On ch=6 n=78 v=74
380660 Off ch=6 n=80 v=64
380920 Off ch=6 n=78 v=64
381120 On ch=6 n=77 v=74
381360 Off ch=6 n=77 v=64
381600 On ch=6 n=73 v=74
381940 Off ch=6 n=73 v=64
382080 On ch=6 n=75 v=74
383040 On ch=6 n=73 v=74
383056 Off ch=6 n=75 v=64
383252 Off ch=6 n=73 v=64
383520 On ch=6 n=75 v=74
383780 Off ch=6 n=75 v=64
384000 On ch=6 n=77 v=74
384480 On ch=6 n=78 v=74
384540 Off ch=6 n=77 v=64
384740 Off ch=6 n=78 v=64
384960 On ch=6 n=80 v=74
385180 Off ch=6 n=80 v=64
385440 On ch=6 n=82 v=74
385660 Off ch=6 n=82 v=64
385920 On ch=6 n=75 v=74
386640 Off ch=6 n=75 v=64
386880 On ch=6 n=82 v=74
387140 Off ch=6 n=82 v=64
387360 On ch=6 n=85 v=74
387620 Off ch=6 n=85 v=64
387840 On ch=6 n=85 v=74
388320 On ch=6 n=87 v=74
388340 Off ch=6 n=85 v=64
388580 Off ch=6 n=87 v=64
388800 On ch=6 n=82 v=74
389060 Off ch=6 n=82 v=64
389280 On ch=6 n=80 v=74
389540 Off ch=6 n=80 v=64
389760 On ch=6 n=82 v=74
390540 Off ch=6 n=82 v=64
390720 On ch=6 n=80 v=74
391200 On ch=6 n=82 v=74
391260 Off ch=6 n=80 v=64
391460 Off ch=6 n=82 v=64
391680 On ch=6 n=85 v=74
392160 On ch=6 n=87 v=74
392200 Off ch=6 n=85 v=64
392420 Off ch=6 n=87 v=64
392640 On ch=6 n=82 v=74
392900 Off ch=6 n=82 v=64
393120 On ch=6 n=80 v=74
393380 Off ch=6 n=80 v=64
393600 On ch=6 n=82 v=74
394560 On ch=6 n=87 v=74
394620 Off ch=6 n=82 v=64
394820 Off ch=6 n=87 v=64
395040 On ch=6 n=89 v=74
395300 Off ch=6 n=89 v=64
395520 On ch=6 n=90 v=74
396000 On ch=6 n=89 v=74
396020 Off ch=6 n=90 v=64
396280 Off ch=6 n=89 v=64
396480 On ch=6 n=87 v=74
396720 Off ch=6 n=87 v=64
396960 On ch=6 n=85 v=74
397156 Off ch=6 n=85 v=64
397440 On ch=6 n=82 v=74
398368 Off ch=6 n=82 v=64
398400 On ch=6 n=80 v=74
398880 On ch=6 n=82 v=74
398900 Off ch=6 n=80 v=64
399140 Off ch=6 n=82 v=64
399360 On ch=6 n=80 v=74
399840 On ch=6 n=78 v=74
399900 Off ch=6 n=80 v=64
400100 Off ch=6 n=78 v=64
400320 On ch=6 n=77 v=74
400540 Off ch=6 n=77 v=64
400800 On ch=6 n=73 v=74
401020 Off ch=6 n=73 v=64
401280 On ch=6 n=75 v=74
402000 Off ch=6 n=75 v=64
498240 On ch=6 n=83 v=27
498720 Off ch=6 n=83 v=64
498720 On ch=6 n=81 v=27
499200 Off ch=6 n=81 v=64
499200 On ch=6 n=83 v=26
502368 Off ch=6 n=83 v=64
502368 Meta TrkEnd
TrkEnd
MTrk
0 SeqSpec 43 00 01 ff
0 Meta TrkName "Violin1"
1920 PrCh ch=7 p=0
1930 Par ch=7 c=7 v=100
1940 Par ch=7 c=10 v=64
1950 Par ch=7 c=11 v=127
1960 Par ch=7 c=20 v=127
1970 Par ch=7 c=91 v=0
1980 Par ch=7 c=93 v=0
1990 Par ch=7 c=94 v=0
2000 Par ch=7 c=101 v=0
2010 Par ch=7 c=100 v=0
2020 Par ch=7 c=6 v=2
2030 Par ch=7 c=101 v=127
2040 Par ch=7 c=100 v=127
65280 On ch=7 n=63 v=88
65280 Par ch=7 c=11 v=108
65280 Par ch=7 c=7 v=92
65520 Par ch=7 c=11 v=107
65640 Par ch=7 c=11 v=106
65700 Par ch=7 c=11 v=105
65760 On ch=7 n=65 v=88
65760 Par ch=7 c=11 v=104
65820 Par ch=7 c=11 v=103
65856 Off ch=7 n=63 v=64
65880 Par ch=7 c=11 v=102
65940 Par ch=7 c=11 v=101
65970 Par ch=7 c=11 v=100
66000 Par ch=7 c=11 v=99
66060 Par ch=7 c=11 v=98
66090 Par ch=7 c=11 v=97
66112 Off ch=7 n=65 v=64
66120 Par ch=7 c=11 v=96
66150 Par ch=7 c=11 v=95
66180 Par ch=7 c=11 v=94
66210 Par ch=7 c=11 v=93
66240 On ch=7 n=66 v=88
66240 Par ch=7 c=11 v=92
66420 Par ch=7 c=11 v=91
66544 Off ch=7 n=66 v=64
66690 Par ch=7 c=11 v=92
66720 On ch=7 n=68 v=88
66800 Par ch=7 c=11 v=93
66992 Off ch=7 n=68 v=64
67100 Par ch=7 c=11 v=94
67200 On ch=7 n=70 v=88
67220 Par ch=7 c=11 v=95
67310 Par ch=7 c=11 v=96
67370 Par ch=7 c=11 v=97
67460 Par ch=7 c=11 v=98
67520 Par ch=7 c=11 v=99
67550 Par ch=7 c=11 v=100
67610 Par ch=7 c=11 v=101
67670 Par ch=7 c=11 v=102
67700 Par ch=7 c=11 v=103
67760 Par ch=7 c=11 v=104
67790 Par ch=7 c=11 v=105
67840 Par ch=7 c=11 v=104
67870 Par ch=7 c=11 v=105
67900 Par ch=7 c=11 v=106
67990 Par ch=7 c=11 v=107
68096 On ch=7 n=63 v=88
68160 On ch=7 n=75 v=88
68160 Par ch=7 c=11 v=106
68192 Off ch=7 n=70 v=64
68336 Off ch=7 n=63 v=64
68460 Par ch=7 c=11 v=105
68580 Par ch=7 c=11 v=104
68640 Off ch=7 n=75 v=64
68640 On ch=7 n=73 v=88
68670 Par ch=7 c=11 v=103
68760 Par ch=7 c=11 v=102
68820 Par ch=7 c=11 v=101
68880 Par ch=7 c=11 v=100
68940 Par ch=7 c=11 v=99
69000 Par ch=7 c=11 v=98
69060 Par ch=7 c=11 v=97
69090 Par ch=7 c=11 v=96
69120 Off ch=7 n=73 v=64
69120 On ch=7 n=70 v=88
69120 Par ch=7 c=11 v=98
69300 Par ch=7 c=11 v=97
69360 Par ch=7 c=11 v=96
69420 Par ch=7 c=11 v=95
69450 Par ch=7 c=11 v=94
69480 Par ch=7 c=11 v=93
69540 Par ch=7 c=11 v=92
69570 Par ch=7 c=11 v=91
69600 Par ch=7 c=11 v=89
69630 Par ch=7 c=11 v=88
69660 Par ch=7 c=11 v=87
69690 Par ch=7 c=11 v=86
69720 Par ch=7 c=11 v=84
69750 Par ch=7 c=11 v=83
69780 Par ch=7 c=11 v=81
69810 Par ch=7 c=11 v=80
69840 Par ch=7 c=11 v=78
69870 Par ch=7 c=11 v=76
69900 Par ch=7 c=11 v=75
69930 Par ch=7 c=11 v=73
69960 Par ch=7 c=11 v=71
69976 Off ch=7 n=70 v=64
69990 Par ch=7 c=11 v=69
70008 Par ch=7 c=11 v=67
70032 Par ch=7 c=11 v=123
70048 On ch=7 n=58 v=88
70080 On ch=7 n=63 v=88
70092 Par ch=7 c=11 v=122
70122 Par ch=7 c=11 v=120
70152 Par ch=7 c=11 v=117
70182 Par ch=7 c=11 v=114
70212 Par ch=7 c=11 v=109
70242 Par ch=7 c=11 v=104
70272 Par ch=7 c=11 v=98
70274 Par ch=7 c=11 v=100
70288 Off ch=7 n=58 v=64
70304 Par ch=7 c=11 v=99
70334 Par ch=7 c=11 v=98
70364 Par ch=7 c=11 v=96
70394 Par ch=7 c=11 v=95
70416 Par ch=7 c=11 v=93
70512 Par ch=7 c=11 v=93
70692 Par ch=7 c=11 v=94
70752 Par ch=7 c=11 v=95
70812 Par ch=7 c=11 v=96
70872 Par ch=7 c=11 v=97
70902 Par ch=7 c=11 v=98
70932 Par ch=7 c=11 v=99
70962 Par ch=7 c=11 v=100
70992 Par ch=7 c=11 v=101
71008 Par ch=7 c=11 v=102
71040 On ch=7 n=70 v=88
71088 Off ch=7 n=63 v=64
71232 Par ch=7 c=11 v=102
71520 Off ch=7 n=70 v=64
71520 On ch=7 n=68 v=88
71802 Par ch=7 c=11 v=101
71840 Off ch=7 n=68 v=64
72000 On ch=7 n=66 v=88
72042 Par ch=7 c=11 v=100
72222 Par ch=7 c=11 v=99
72288 Off ch=7 n=66 v=64
72372 Par ch=7 c=11 v=98
72480 On ch=7 n=65 v=88
72522 Par ch=7 c=11 v=97
72642 Par ch=7 c=11 v=96
72732 Par ch=7 c=11 v=95
72784 Off ch=7 n=65 v=64
72832 Par ch=7 c=11 v=94
72960 On ch=7 n=63 v=88
72960 Par ch=7 c=11 v=104
73050 Par ch=7 c=11 v=103
73080 Par ch=7 c=11 v=102
73110 Par ch=7 c=11 v=101
73140 Par ch=7 c=11 v=99
73170 Par ch=7 c=11 v=98
73200 Par ch=7 c=11 v=95
73368 Par ch=7 c=11 v=96
73440 Off ch=7 n=63 v=64
73440 On ch=7 n=65 v=88
73728 Par ch=7 c=11 v=97
73776 Off ch=7 n=65 v=64
73878 Par ch=7 c=11 v=98
73920 On ch=7 n=66 v=88
73998 Par ch=7 c=11 v=99
74088 Par ch=7 c=11 v=100
74144 Off ch=7 n=66 v=64
74178 Par ch=7 c=11 v=101
74238 Par ch=7 c=11 v=102
74328 Par ch=7 c=11 v=103
74388 Par ch=7 c=11 v=104
74400 On ch=7 n=68 v=88
74448 Par ch=7 c=11 v=105
74508 Par ch=7 c=11 v=106
74568 Par ch=7 c=11 v=107
74576 Off ch=7 n=68 v=64
74598 Par ch=7 c=11 v=108
74658 Par ch=7 c=11 v=109
74688 Par ch=7 c=11 v=110
74856 Par ch=7 c=11 v=92
74880 On ch=7 n=70 v=88
75096 Par ch=7 c=11 v=93
75186 Par ch=7 c=11 v=94
75246 Par ch=7 c=11 v=95
75306 Par ch=7 c=11 v=96
75366 Par ch=7 c=11 v=97
75426 Par ch=7 c=11 v=98
75456 Par ch=7 c=11 v=99
75516 Par ch=7 c=11 v=100
75528 Par ch=7 c=11 v=101
75792 Par ch=7 c=11 v=103
75840 On ch=7 n=68 v=88
75888 Off ch=7 n=70 v=64
76062 Par ch=7 c=11 v=102
76144 Off ch=7 n=68 v=64
76152 Par ch=7 c=11 v=101
76242 Par ch=7 c=11 v=100
76302 Par ch=7 c=11 v=99
76320 On ch=7 n=66 v=88
76362 Par ch=7 c=11 v=98
76422 Par ch=7 c=11 v=97
76452 Par ch=7 c=11 v=96
76512 Par ch=7 c=11 v=95
76542 Par ch=7 c=11 v=94
76602 Par ch=7 c=11 v=93
76608 Off ch=7 n=66 v=64
76632 Par ch=7 c=11 v=92
76656 Par ch=7 c=11 v=91
76800 On ch=7 n=65 v=88
76800 Par ch=7 c=11 v=93
77280 On ch=7 n=63 v=88
77360 Off ch=7 n=65 v=64
77430 Par ch=7 c=11 v=94
77568 Off ch=7 n=63 v=64
77670 Par ch=7 c=11 v=95
77760 On ch=7 n=65 v=88
77850 Par ch=7 c=11 v=96
78016 Off ch=7 n=65 v=64
78030 Par ch=7 c=11 v=97
78150 Par ch=7 c=11 v=98
78240 On ch=7 n=66 v=88
78300 Par ch=7 c=11 v=99
78420 Par ch=7 c=11 v=100
78510 Par ch=7 c=11 v=101
78560 On ch=7 n=65 v=88
78608 Off ch=7 n=66 v=64
78608 Par ch=7 c=11 v=102
78672 Par ch=7 c=11 v=101
78748 On ch=7 n=66 v=88
78816 Off ch=7 n=65 v=64
78894 On ch=7 n=65 v=88
78956 Off ch=7 n=66 v=64
79200 On ch=7 n=63 v=88
79242 Par ch=7 c=11 v=100
79274 Off ch=7 n=65 v=64
79452 Par ch=7 c=11 v=99
79504 Off ch=7 n=63 v=64
79632 Par ch=7 c=11 v=98
79680 On ch=7 n=62 v=88
79782 Par ch=7 c=11 v=97
79902 Par ch=7 c=11 v=96
80022 Par ch=7 c=11 v=95
80064 Par ch=7 c=11 v=95
80094 Par ch=7 c=11 v=96
80124 Par ch=7 c=11 v=97
80160 On ch=7 n=65 v=88
80164 Off ch=7 n=62 v=64
80184 Par ch=7 c=11 v=98
80274 Par ch=7 c=11 v=99
80364 Par ch=7 c=11 v=100
80416 Off ch=7 n=65 v=64
80640 On ch=7 n=63 v=88
80640 Par ch=7 c=11 v=103
81030 Par ch=7 c=11 v=102
81120 On ch=7 n=65 v=88
81180 Par ch=7 c=11 v=101
81216 Off ch=7 n=63 v=64
81270 Par ch=7 c=11 v=100
81390 Par ch=7 c=11 v=99
81450 Par ch=7 c=11 v=98
81472 Off ch=7 n=65 v=64
81540 Par ch=7 c=11 v=97
81600 On ch=7 n=66 v=88
81600 Par ch=7 c=11 v=96
81690 Par ch=7 c=11 v=95
81750 Par ch=7 c=11 v=94
81810 Par ch=7 c=11 v=93
81840 Par ch=7 c=11 v=92
81904 Off ch=7 n=66 v=64
82050 Par ch=7 c=11 v=92
82080 On ch=7 n=68 v=88
82160 Par ch=7 c=11 v=93
82352 Off ch=7 n=68 v=64
82460 Par ch=7 c=11 v=94
82560 On ch=7 n=70 v=88
82580 Par ch=7 c=11 v=95
82670 Par ch=7 c=11 v=96
82730 Par ch=7 c=11 v=97
82820 Par ch=7 c=11 v=98
82880 Par ch=7 c=11 v=99
82910 Par ch=7 c=11 v=100
82970 Par ch=7 c=11 v=101
83030 Par ch=7 c=11 v=102
83060 Par ch=7 c=11 v=103
83120 Par ch=7 c=11 v=104
83150 Par ch=7 c=11 v=105
83200 Par ch=7 c=11 v=104
83230 Par ch=7 c=11 v=105
83260 Par ch=7 c=11 v=106
83350 Par ch=7 c=11 v=107
83456 On ch=7 n=63 v=88
83520 On ch=7 n=75 v=88
83520 Par ch=7 c=11 v=106
83552 Off ch=7 n=70 v=64
83696 Off ch=7 n=63 v=64
83820 Par ch=7 c=11 v=105
83940 Par ch=7 c=11 v=104
84000 Off ch=7 n=75 v=64
84000 On ch=7 n=73 v=88
84030 Par ch=7 c=11 v=103
84120 Par ch=7 c=11 v=102
84180 Par ch=7 c=11 v=101
84240 Par ch=7 c=11 v=100
84300 Par ch=7 c=11 v=99
84360 Par ch=7 c=11 v=98
84420 Par ch=7 c=11 v=97
84450 Par ch=7 c=11 v=96
84480 Off ch=7 n=73 v=64
84480 On ch=7 n=70 v=88
84480 Par ch=7 c=11 v=98
84660 Par ch=7 c=11 v=97
84720 Par ch=7 c=11 v=96
84780 Par ch=7 c=11 v=95
84810 Par ch=7 c=11 v=94
84840 Par ch=7 c=11 v=93
84870 Par ch=7 c=11 v=92
84900 Par ch=7 c=11 v=91
84930 Par ch=7 c=11 v=90
84960 Par ch=7 c=11 v=89
84990 Par ch=7 c=11 v=88
85020 Par ch=7 c=11 v=87
85050 Par ch=7 c=11 v=85
85080 Par ch=7 c=11 v=84
85110 Par ch=7 c=11 v=82
85140 Par ch=7 c=11 v=81
85170 Par ch=7 c=11 v=79
85200 Par ch=7 c=11 v=77
85230 Par ch=7 c=11 v=76
85260 Par ch=7 c=11 v=74
85290 Par ch=7 c=11 v=72
85296 Par ch=7 c=11 v=71
85336 Off ch=7 n=70 v=64
85392 Par ch=7 c=11 v=124
85408 On ch=7 n=58 v=88
85440 On ch=7 n=63 v=88
85452 Par ch=7 c=11 v=122
85482 Par ch=7 c=11 v=119
85512 Par ch=7 c=11 v=115
85542 Par ch=7 c=11 v=109
85560 Par ch=7 c=11 v=105
85604 Par ch=7 c=11 v=101
85634 Par ch=7 c=11 v=100
85648 Off ch=7 n=58 v=64
85664 Par ch=7 c=11 v=99
85694 Par ch=7 c=11 v=98
85724 Par ch=7 c=11 v=96
85754 Par ch=7 c=11 v=95
85776 Par ch=7 c=11 v=93
85872 Par ch=7 c=11 v=93
86052 Par ch=7 c=11 v=94
86112 Par ch=7 c=11 v=95
86172 Par ch=7 c=11 v=96
86232 Par ch=7 c=11 v=97
86262 Par ch=7 c=11 v=98
86292 Par ch=7 c=11 v=99
86322 Par ch=7 c=11 v=100
86352 Par ch=7 c=11 v=101
86368 Par ch=7 c=11 v=102
86400 On ch=7 n=70 v=88
86448 Off ch=7 n=63 v=64
86592 Par ch=7 c=11 v=102
86880 Off ch=7 n=70 v=64
86880 On ch=7 n=68 v=88
87162 Par ch=7 c=11 v=101
87200 Off ch=7 n=68 v=64
87360 On ch=7 n=66 v=88
87402 Par ch=7 c=11 v=100
87582 Par ch=7 c=11 v=99
87648 Off ch=7 n=66 v=64
87732 Par ch=7 c=11 v=98
87840 On ch=7 n=65 v=88
87882 Par ch=7 c=11 v=97
88002 Par ch=7 c=11 v=96
88092 Par ch=7 c=11 v=95
88144 Off ch=7 n=65 v=64
88192 Par ch=7 c=11 v=94
88320 On ch=7 n=63 v=88
88320 Par ch=7 c=11 v=104
88410 Par ch=7 c=11 v=103
88440 Par ch=7 c=11 v=102
88470 Par ch=7 c=11 v=101
88500 Par ch=7 c=11 v=99
88530 Par ch=7 c=11 v=98
88560 Par ch=7 c=11 v=95
88800 Off ch=7 n=63 v=64
88800 On ch=7 n=65 v=88
88890 Par ch=7 c=11 v=95
89100 Par ch=7 c=11 v=96
89136 Off ch=7 n=65 v=64
89280 On ch=7 n=66 v=88
89280 Par ch=7 c=11 v=97
89430 Par ch=7 c=11 v=98
89504 Off ch=7 n=66 v=64
89550 Par ch=7 c=11 v=99
89670 Par ch=7 c=11 v=100
89760 On ch=7 n=68 v=88
89790 Par ch=7 c=11 v=101
89880 Par ch=7 c=11 v=102
89936 Off ch=7 n=68 v=64
89970 Par ch=7 c=11 v=103
90048 Par ch=7 c=11 v=104
90224 Par ch=7 c=11 v=99
90240 On ch=7 n=70 v=88
90464 Par ch=7 c=11 v=100
90554 Par ch=7 c=11 v=101
90614 Par ch=7 c=11 v=102
90674 Par ch=7 c=11 v=103
90704 Par ch=7 c=11 v=104
91152 Par ch=7 c=11 v=103
91200 On ch=7 n=68 v=88
91248 Off ch=7 n=70 v=64
91422 Par ch=7 c=11 v=102
91504 Off ch=7 n=68 v=64
91512 Par ch=7 c=11 v=101
91602 Par ch=7 c=11 v=100
91662 Par ch=7 c=11 v=99
91680 On ch=7 n=66 v=88
91722 Par ch=7 c=11 v=98
91782 Par ch=7 c=11 v=97
91812 Par ch=7 c=11 v=96
91872 Par ch=7 c=11 v=95
91902 Par ch=7 c=11 v=94
91962 Par ch=7 c=11 v=93
91968 Off ch=7 n=66 v=64
91992 Par ch=7 c=11 v=92
92016 Par ch=7 c=11 v=91
92160 On ch=7 n=65 v=88
92160 Par ch=7 c=11 v=97
92400 Off ch=7 n=65 v=64
92880 Par ch=7 c=11 v=98
93120 On ch=7 n=66 v=88
93180 Par ch=7 c=11 v=99
93360 Off ch=7 n=66 v=64
93390 Par ch=7 c=11 v=100
93570 Par ch=7 c=11 v=101
93750 Par ch=7 c=11 v=102
93900 Par ch=7 c=11 v=103
94020 Par ch=7 c=11 v=104
94080 On ch=7 n=68 v=88
94170 Par ch=7 c=11 v=105
94290 Par ch=7 c=11 v=106
94320 Off ch=7 n=68 v=64
94320 On ch=7 n=63 v=88
94380 Par ch=7 c=11 v=107
94500 Par ch=7 c=11 v=108
94560 On ch=7 n=65 v=88
94590 Par ch=7 c=11 v=109
94624 Off ch=7 n=63 v=64
94710 Par ch=7 c=11 v=110
94800 On ch=7 n=66 v=88
94800 Par ch=7 c=11 v=111
94864 Off ch=7 n=65 v=64
94890 Par ch=7 c=11 v=112
94980 Par ch=7 c=11 v=113
95040 On ch=7 n=68 v=88
95070 Par ch=7 c=11 v=114
95104 Off ch=7 n=66 v=64
95160 Par ch=7 c=11 v=115
95220 Par ch=7 c=11 v=116
95280 On ch=7 n=70 v=88
95310 Par ch=7 c=11 v=117
95344 Off ch=7 n=68 v=64
95400 Par ch=7 c=11 v=118
95460 Par ch=7 c=11 v=119
95520 On ch=7 n=72 v=88
95550 Par ch=7 c=11 v=120
95584 Off ch=7 n=70 v=64
95610 Par ch=7 c=11 v=121
95670 Par ch=7 c=11 v=122
95760 On ch=7 n=74 v=88
95760 Par ch=7 c=11 v=123
95820 Par ch=7 c=11 v=124
95824 Off ch=7 n=72 v=64
95880 Par ch=7 c=11 v=125
95940 Par ch=7 c=11 v=126
96000 On ch=7 n=75 v=88
96000 On ch=7 n=63 v=88
96000 Par ch=7 c=11 v=92
96000 Par ch=7 c=7 v=97
96064 Off ch=7 n=74 v=64
96480 On ch=7 n=77 v=88
96480 On ch=7 n=65 v=88
96576 Off ch=7 n=63 v=64
96576 Off ch=7 n=75 v=64
96600 Par ch=7 c=11 v=93
96832 Off ch=7 n=65 v=64
96832 Off ch=7 n=77 v=64
96840 Par ch=7 c=11 v=94
96960 On ch=7 n=78 v=88
96960 On ch=7 n=66 v=88
97050 Par ch=7 c=11 v=95
97200 Par ch=7 c=11 v=96
97264 Off ch=7 n=66 v=64
97264 Off ch=7 n=78 v=64
97320 Par ch=7 c=11 v=97
97440 On ch=7 n=80 v=88
97440 On ch=7 n=68 v=88
97470 Par ch=7 c=11 v=98
97590 Par ch=7 c=11 v=99
97680 Par ch=7 c=11 v=100
97712 Off ch=7 n=68 v=64
97712 Off ch=7 n=80 v=64
97800 Par ch=7 c=11 v=101
97890 Par ch=7 c=11 v=102
97920 On ch=7 n=82 v=88
97920 On ch=7 n=70 v=88
97980 Par ch=7 c=11 v=103
98070 Par ch=7 c=11 v=104
98112 Par ch=7 c=11 v=104
98142 Par ch=7 c=11 v=103
98262 Par ch=7 c=11 v=102
98400 On ch=7 n=58 v=88
98412 Par ch=7 c=11 v=101
98592 Par ch=7 c=11 v=100
98772 Par ch=7 c=11 v=99
98816 On ch=7 n=75 v=88
98816 On ch=7 n=63 v=88
98880 Off ch=7 n=58 v=64
98880 On ch=7 n=87 v=88
98880 On ch=7 n=75 v=88
98920 Off ch=7 n=70 v=64
98984 Off ch=7 n=82 v=64
99042 Par ch=7 c=11 v=98
99056 Off ch=7 n=63 v=64
99056 Off ch=7 n=75 v=64
99360 Off ch=7 n=75 v=64
99360 Off ch=7 n=87 v=64
99360 On ch=7 n=85 v=88
99360 On ch=7 n=73 v=88
99840 Off ch=7 n=73 v=64
99840 Off ch=7 n=85 v=64
99840 On ch=7 n=82 v=88
99840 Par ch=7 c=11 v=101
99840 On ch=7 n=70 v=88
99990 Par ch=7 c=11 v=100
100020 Par ch=7 c=11 v=99
100080 Par ch=7 c=11 v=98
100110 Par ch=7 c=11 v=97
100140 Par ch=7 c=11 v=95
100170 Par ch=7 c=11 v=94
100200 Par ch=7 c=11 v=93
100230 Par ch=7 c=11 v=91
100260 Par ch=7 c=11 v=90
100290 Par ch=7 c=11 v=88
100320 Par ch=7 c=11 v=86
100350 Par ch=7 c=11 v=84
100380 Par ch=7 c=11 v=82
100410 Par ch=7 c=11 v=79
100440 Par ch=7 c=11 v=77
100470 Par ch=7 c=11 v=75
100500 Par ch=7 c=11 v=72
100530 Par ch=7 c=11 v=69
100560 Par ch=7 c=11 v=66
100590 Par ch=7 c=11 v=63
100608 Par ch=7 c=11 v=61
100640 Off ch=7 n=70 v=64
100648 Off ch=7 n=82 v=64
100768 On ch=7 n=70 v=88
100768 On ch=7 n=58 v=88
100784 Par ch=7 c=11 v=99
100800 On ch=7 n=75 v=88
100800 On ch=7 n=63 v=88
100904 Par ch=7 c=11 v=98
100964 Par ch=7 c=11 v=97
100994 Par ch=7 c=11 v=96
101008 Off ch=7 n=58 v=64
101008 Off ch=7 n=70 v=64
101024 Par ch=7 c=11 v=95
101054 Par ch=7 c=11 v=94
101084 Par ch=7 c=11 v=92
101114 Par ch=7 c=11 v=91
101136 Par ch=7 c=11 v=89
101232 Par ch=7 c=11 v=89
101412 Par ch=7 c=11 v=90
101472 Par ch=7 c=11 v=91
101532 Par ch=7 c=11 v=92
101592 Par ch=7 c=11 v=93
101622 Par ch=7 c=11 v=94
101652 Par ch=7 c=11 v=95
101682 Par ch=7 c=11 v=96
101712 Par ch=7 c=11 v=97
101728 Par ch=7 c=11 v=98
101760 On ch=7 n=82 v=88
101760 On ch=7 n=70 v=88
101808 Off ch=7 n=63 v=64
101808 Off ch=7 n=75 v=64
101952 Par ch=7 c=11 v=98
102230 Off ch=7 n=70 v=64
102230 Off ch=7 n=82 v=64
102230 On ch=7 n=68 v=88
102230 On ch=7 n=80 v=88
102522 Par ch=7 c=11 v=97
102543 Off ch=7 n=80 v=64
102543 Off ch=7 n=68 v=64
102700 On ch=7 n=66 v=88
102700 On ch=7 n=78 v=88
102762 Par ch=7 c=11 v=96
102942 Par ch=7 c=11 v=95
102982 Off ch=7 n=78 v=64
102982 Off ch=7 n=66 v=64
103092 Par ch=7 c=11 v=94
103171 On ch=7 n=65 v=88
103171 On ch=7 n=77 v=88
103242 Par ch=7 c=11 v=93
103362 Par ch=7 c=11 v=92
103452 Par ch=7 c=11 v=91
103468 Off ch=7 n=77 v=64
103468 Off ch=7 n=65 v=64
103552 Par ch=7 c=11 v=90
103680 Par ch=7 c=11 v=100
103680 On ch=7 n=63 v=88
103680 On ch=7 n=75 v=88
103770 Par ch=7 c=11 v=99
103800 Par ch=7 c=11 v=98
103830 Par ch=7 c=11 v=97
103860 Par ch=7 c=11 v=95
103890 Par ch=7 c=11 v=94
103920 Par ch=7 c=11 v=91
104150 Off ch=7 n=75 v=64
104150 Off ch=7 n=63 v=64
104151 On ch=7 n=65 v=88
104151 On ch=7 n=77 v=88
104250 Par ch=7 c=11 v=91
104460 Par ch=7 c=11 v=92
104480 Off ch=7 n=77 v=64
104480 Off ch=7 n=65 v=64
104621 On ch=7 n=66 v=88
104621 On ch=7 n=78 v=88
104640 Par ch=7 c=11 v=93
104790 Par ch=7 c=11 v=94
104840 Off ch=7 n=78 v=64
104840 Off ch=7 n=66 v=64
104910 Par ch=7 c=11 v=95
105030 Par ch=7 c=11 v=96
105091 On ch=7 n=68 v=88
105091 On ch=7 n=80 v=88
105150 Par ch=7 c=11 v=97
105240 Par ch=7 c=11 v=98
105263 Off ch=7 n=80 v=64
105263 Off ch=7 n=68 v=64
105330 Par ch=7 c=11 v=99
105408 Par ch=7 c=11 v=100
105584 Par ch=7 c=11 v=95
105600 On ch=7 n=82 v=88
105600 On ch=7 n=70 v=88
105824 Par ch=7 c=11 v=96
105914 Par ch=7 c=11 v=97
105974 Par ch=7 c=11 v=98
106034 Par ch=7 c=11 v=99
106064 Par ch=7 c=11 v=100
106512 Par ch=7 c=11 v=99
106560 On ch=7 n=80 v=88
106560 On ch=7 n=68 v=88
106608 Off ch=7 n=70 v=64
106608 Off ch=7 n=82 v=64
106782 Par ch=7 c=11 v=98
106864 Off ch=7 n=68 v=64
106864 Off ch=7 n=80 v=64
106872 Par ch=7 c=11 v=97
106962 Par ch=7 c=11 v=96
107022 Par ch=7 c=11 v=95
107040 On ch=7 n=78 v=88
107040 On ch=7 n=66 v=88
107082 Par ch=7 c=11 v=94
107142 Par ch=7 c=11 v=93
107172 Par ch=7 c=11 v=92
107232 Par ch=7 c=11 v=91
107262 Par ch=7 c=11 v=90
107322 Par ch=7 c=11 v=89
107328 Off ch=7 n=66 v=64
107328 Off ch=7 n=78 v=64
107352 Par ch=7 c=11 v=88
107376 Par ch=7 c=11 v=87
107520 On ch=7 n=77 v=88
107520 Par ch=7 c=11 v=89
107520 On ch=7 n=65 v=88
108000 On ch=7 n=75 v=88
108000 On ch=7 n=63 v=88
108080 Off ch=7 n=65 v=64
108080 Off ch=7 n=77 v=64
108150 Par ch=7 c=11 v=90
108288 Off ch=7 n=63 v=64
108288 Off ch=7 n=75 v=64
108390 Par ch=7 c=11 v=91
108480 On ch=7 n=77 v=88
108480 On ch=7 n=65 v=88
108570 Par ch=7 c=11 v=92
108736 Off ch=7 n=65 v=64
108736 Off ch=7 n=77 v=64
108750 Par ch=7 c=11 v=93
108870 Par ch=7 c=11 v=94
108960 On ch=7 n=78 v=88
108960 On ch=7 n=66 v=88
109020 Par ch=7 c=11 v=95
109140 Par ch=7 c=11 v=96
109230 Par ch=7 c=11 v=97
109280 On ch=7 n=77 v=88
109280 On ch=7 n=65 v=88
109296 Off ch=7 n=78 v=64
109328 Off ch=7 n=66 v=64
109328 Par ch=7 c=11 v=98
109392 Par ch=7 c=11 v=97
109488 On ch=7 n=78 v=88
109488 On ch=7 n=66 v=88
109536 Off ch=7 n=65 v=64
109536 Off ch=7 n=77 v=64
109744 On ch=7 n=77 v=88
109744 On ch=7 n=65 v=88
109776 Off ch=7 n=66 v=64
109776 Off ch=7 n=78 v=64
109920 On ch=7 n=75 v=88
109920 On ch=7 n=63 v=88
109962 Par ch=7 c=11 v=96
109984 Off ch=7 n=65 v=64
109984 Off ch=7 n=77 v=64
110172 Par ch=7 c=11 v=95
110224 Off ch=7 n=63 v=64
110224 Off ch=7 n=75 v=64
110352 Par ch=7 c=11 v=94
110400 On ch=7 n=74 v=88
110400 On ch=7 n=62 v=88
110502 Par ch=7 c=11 v=93
110622 Par ch=7 c=11 v=92
110742 Par ch=7 c=11 v=91
110784 Par ch=7 c=11 v=91
110814 Par ch=7 c=11 v=92
110844 Par ch=7 c=11 v=93
110880 On ch=7 n=77 v=88
110880 On ch=7 n=65 v=88
110904 Par ch=7 c=11 v=94
110912 Off ch=7 n=74 v=64
110994 Par ch=7 c=11 v=95
111040 Off ch=7 n=62 v=64
111084 Par ch=7 c=11 v=96
111136 Off ch=7 n=65 v=64
111136 Off ch=7 n=77 v=64
111360 On ch=7 n=75 v=88
111360 Par ch=7 c=11 v=104
111360 On ch=7 n=63 v=88
111600 Par ch=7 c=11 v=103
111720 Par ch=7 c=11 v=102
111780 Par ch=7 c=11 v=101
111840 On ch=7 n=77 v=88
111840 Par ch=7 c=11 v=100
111840 On ch=7 n=65 v=88
111900 Par ch=7 c=11 v=99
111936 Off ch=7 n=63 v=64
111936 Off ch=7 n=75 v=64
111960 Par ch=7 c=11 v=98
112020 Par ch=7 c=11 v=97
112050 Par ch=7 c=11 v=96
112080 Par ch=7 c=11 v=95
112140 Par ch=7 c=11 v=94
112170 Par ch=7 c=11 v=93
112192 Off ch=7 n=65 v=64
112192 Off ch=7 n=77 v=64
112200 Par ch=7 c=11 v=92
112230 Par ch=7 c=11 v=91
112260 Par ch=7 c=11 v=90
112290 Par ch=7 c=11 v=89
112320 On ch=7 n=78 v=88
112320 Par ch=7 c=11 v=88
112320 On ch=7 n=66 v=88
112500 Par ch=7 c=11 v=87
112624 Off ch=7 n=66 v=64
112624 Off ch=7 n=78 v=64
112770 Par ch=7 c=11 v=88
112800 On ch=7 n=80 v=88
112800 On ch=7 n=68 v=88
112880 Par ch=7 c=11 v=89
113060 Par ch=7 c=11 v=90
113072 Off ch=7 n=68 v=64
113072 Off ch=7 n=80 v=64
113120 Par ch=7 c=11 v=89
113240 Par ch=7 c=11 v=88
113280 On ch=7 n=82 v=88
113280 On ch=7 n=70 v=88
113420 Par ch=7 c=11 v=87
113540 Par ch=7 c=11 v=86
113720 Par ch=7 c=11 v=85
113760 On ch=7 n=58 v=88
113760 On ch=7 n=75 v=56
113760 On ch=7 n=63 v=56
113824 Off ch=7 n=70 v=64
113840 Par ch=7 c=11 v=84
113856 Off ch=7 n=82 v=64
113908 On ch=7 n=78 v=56
113908 On ch=7 n=66 v=56
113980 Par ch=7 c=11 v=84
113998 Off ch=7 n=63 v=64
113998 Off ch=7 n=75 v=64
114040 Par ch=7 c=11 v=86
114057 On ch=7 n=82 v=56
114057 On ch=7 n=70 v=56
114100 Par ch=7 c=11 v=89
114146 Off ch=7 n=66 v=64
114146 Off ch=7 n=78 v=64
114146 On ch=7 n=75 v=88
114146 On ch=7 n=63 v=88
114160 Par ch=7 c=11 v=92
114200 Par ch=7 c=11 v=94
114206 On ch=7 n=87 v=88
114240 Off ch=7 n=58 v=64
114240 Par ch=7 c=11 v=96
114270 Par ch=7 c=11 v=97
114295 Off ch=7 n=70 v=64
114455 Off ch=7 n=82 v=64
114500 Par ch=7 c=11 v=99
114503 Off ch=7 n=63 v=64
114672 On ch=7 n=85 v=88
114672 On ch=7 n=73 v=88
114811 Off ch=7 n=75 v=64
114812 Off ch=7 n=87 v=64
115100 Par ch=7 c=11 v=100
115136 On ch=7 n=82 v=88
115136 On ch=7 n=70 v=88
115152 Off ch=7 n=73 v=64
115152 Off ch=7 n=85 v=64
115200 Par ch=7 c=11 v=101
115350 Par ch=7 c=11 v=100
115380 Par ch=7 c=11 v=99
115440 Par ch=7 c=11 v=98
115470 Par ch=7 c=11 v=97
115500 Par ch=7 c=11 v=95
115530 Par ch=7 c=11 v=94
115560 Par ch=7 c=11 v=93
115590 Par ch=7 c=11 v=91
115620 Par ch=7 c=11 v=90
115650 Par ch=7 c=11 v=88
115680 Par ch=7 c=11 v=86
115710 Par ch=7 c=11 v=84
115740 Par ch=7 c=11 v=82
115770 Par ch=7 c=11 v=79
115800 Par ch=7 c=11 v=77
115830 Par ch=7 c=11 v=75
115860 Par ch=7 c=11 v=72
115872 Off ch=7 n=70 v=64
115890 Par ch=7 c=11 v=69
115896 Off ch=7 n=82 v=64
115920 Par ch=7 c=11 v=66
115950 Par ch=7 c=11 v=63
115968 Par ch=7 c=11 v=61
116128 On ch=7 n=66 v=88
116128 On ch=7 n=58 v=88
116144 Par ch=7 c=11 v=99
116160 On ch=7 n=75 v=88
116160 On ch=7 n=63 v=88
116264 Par ch=7 c=11 v=98
116324 Par ch=7 c=11 v=97
116354 Par ch=7 c=11 v=96
116368 Off ch=7 n=58 v=64
116368 Off ch=7 n=66 v=64
116384 Par ch=7 c=11 v=95
116414 Par ch=7 c=11 v=94
116444 Par ch=7 c=11 v=92
116474 Par ch=7 c=11 v=91
116496 Par ch=7 c=11 v=89
116592 Par ch=7 c=11 v=89
116772 Par ch=7 c=11 v=90
116832 Par ch=7 c=11 v=91
116892 Par ch=7 c=11 v=92
116952 Par ch=7 c=11 v=93
116982 Par ch=7 c=11 v=94
117012 Par ch=7 c=11 v=95
117042 Par ch=7 c=11 v=96
117072 Par ch=7 c=11 v=97
117088 Par ch=7 c=11 v=98
117120 On ch=7 n=82 v=88
117120 On ch=7 n=70 v=88
117168 Off ch=7 n=63 v=64
117168 Off ch=7 n=75 v=64
117312 Par ch=7 c=11 v=98
117600 Off ch=7 n=70 v=64
117600 Off ch=7 n=82 v=64
117600 On ch=7 n=80 v=88
117600 On ch=7 n=68 v=88
117882 Par ch=7 c=11 v=97
117920 Off ch=7 n=68 v=64
117920 Off ch=7 n=80 v=64
118080 On ch=7 n=78 v=88
118080 On ch=7 n=66 v=88
118122 Par ch=7 c=11 v=96
118302 Par ch=7 c=11 v=95
118368 Off ch=7 n=66 v=64
118368 Off ch=7 n=78 v=64
118452 Par ch=7 c=11 v=94
118560 On ch=7 n=77 v=88
118560 On ch=7 n=65 v=88
118602 Par ch=7 c=11 v=93
118722 Par ch=7 c=11 v=92
118812 Par ch=7 c=11 v=91
118864 Off ch=7 n=65 v=64
118864 Off ch=7 n=77 v=64
118912 Par ch=7 c=11 v=90
119040 On ch=7 n=75 v=88
119040 Par ch=7 c=11 v=100
119040 On ch=7 n=63 v=88
119130 Par ch=7 c=11 v=99
119160 Par ch=7 c=11 v=98
119190 Par ch=7 c=11 v=97
119220 Par ch=7 c=11 v=95
119250 Par ch=7 c=11 v=94
119280 Par ch=7 c=11 v=91
119510 Off ch=7 n=63 v=64
119510 Off ch=7 n=75 v=64
119510 On ch=7 n=77 v=88
119510 On ch=7 n=65 v=88
119610 Par ch=7 c=11 v=91
119820 Par ch=7 c=11 v=92
119839 Off ch=7 n=65 v=64
119839 Off ch=7 n=77 v=64
119980 On ch=7 n=78 v=88
119980 On ch=7 n=66 v=88
120000 Par ch=7 c=11 v=93
120150 Par ch=7 c=11 v=94
120199 Off ch=7 n=66 v=64
120199 Off ch=7 n=78 v=64
120270 Par ch=7 c=11 v=95
120390 Par ch=7 c=11 v=96
120451 On ch=7 n=80 v=88
120451 On ch=7 n=68 v=88
120510 Par ch=7 c=11 v=97
120600 Par ch=7 c=11 v=98
120623 Off ch=7 n=68 v=64
120623 Off ch=7 n=80 v=64
120690 Par ch=7 c=11 v=99
120768 Par ch=7 c=11 v=100
120921 On ch=7 n=82 v=88
120921 On ch=7 n=70 v=88
120944 Par ch=7 c=11 v=95
121184 Par ch=7 c=11 v=96
121274 Par ch=7 c=11 v=97
121334 Par ch=7 c=11 v=98
121394 Par ch=7 c=11 v=99
121424 Par ch=7 c=11 v=100
121608 On ch=7 n=80 v=88
121634 Off ch=7 n=82 v=64
121800 On ch=7 n=82 v=88
121848 Off ch=7 n=80 v=64
121872 Par ch=7 c=11 v=99
121908 Off ch=7 n=70 v=64
121920 On ch=7 n=68 v=88
122000 On ch=7 n=80 v=88
122020 Off ch=7 n=82 v=64
122142 Par ch=7 c=11 v=98
122224 Off ch=7 n=68 v=64
122232 Par ch=7 c=11 v=97
122304 Off ch=7 n=80 v=64
122322 Par ch=7 c=11 v=96
122382 Par ch=7 c=11 v=95
122400 On ch=7 n=78 v=88
122400 On ch=7 n=66 v=88
122442 Par ch=7 c=11 v=94
122502 Par ch=7 c=11 v=93
122532 Par ch=7 c=11 v=92
122592 Par ch=7 c=11 v=91
122622 Par ch=7 c=11 v=90
122682 Par ch=7 c=11 v=89
122688 Off ch=7 n=66 v=64
122688 Off ch=7 n=78 v=64
122712 Par ch=7 c=11 v=88
122736 Par ch=7 c=11 v=87
122880 On ch=7 n=77 v=88
122880 Par ch=7 c=11 v=99
123120 Off ch=7 n=77 v=64
123320 On ch=7 n=70 v=88
123560 Off ch=7 n=70 v=64
123780 Par ch=7 c=11 v=100
123840 On ch=7 n=78 v=88
124080 Off ch=7 n=78 v=64
124170 Par ch=7 c=11 v=101
124260 On ch=7 n=70 v=88
124440 Par ch=7 c=11 v=102
124500 Off ch=7 n=70 v=64
124680 Par ch=7 c=11 v=103
124800 On ch=7 n=80 v=88
124890 Par ch=7 c=11 v=104
125040 Off ch=7 n=80 v=64
125070 Par ch=7 c=11 v=105
125240 On ch=7 n=70 v=88
125250 Par ch=7 c=11 v=106
125430 Par ch=7 c=11 v=107
125480 Off ch=7 n=70 v=64
125580 Par ch=7 c=11 v=108
125620 On ch=7 n=62 v=88
125700 On ch=7 n=70 v=88
125730 Par ch=7 c=11 v=109
125760 On ch=7 n=82 v=88
125784 Par ch=7 c=11 v=95
126000 Off ch=7 n=62 v=64
126084 Par ch=7 c=11 v=96
126174 Par ch=7 c=11 v=97
126264 Par ch=7 c=11 v=98
126354 Par ch=7 c=11 v=99
126414 Par ch=7 c=11 v=100
126474 Par ch=7 c=11 v=101
126504 Par ch=7 c=11 v=102
126564 Par ch=7 c=11 v=103
126624 Par ch=7 c=11 v=104
126654 Par ch=7 c=11 v=105
126684 Par ch=7 c=11 v=106
126720 On ch=7 n=85 v=88
126720 Par ch=7 c=11 v=107
126780 Off ch=7 n=82 v=64
126792 Off ch=7 n=70 v=64
127200 On ch=7 n=87 v=88
127220 Off ch=7 n=85 v=64
127260 Par ch=7 c=11 v=107
127440 Par ch=7 c=11 v=106
127460 Off ch=7 n=87 v=64
127620 Par ch=7 c=11 v=105
127680 On ch=7 n=82 v=88
127740 Par ch=7 c=11 v=104
127860 Par ch=7 c=11 v=103
127940 Off ch=7 n=82 v=64
127980 Par ch=7 c=11 v=102
128100 Par ch=7 c=11 v=101
128140 Par ch=7 c=11 v=100
128160 On ch=7 n=80 v=88
128220 Par ch=7 c=11 v=100
128420 Off ch=7 n=80 v=64
128460 Par ch=7 c=11 v=101
128540 Par ch=7 c=11 v=102
128620 Par ch=7 c=11 v=105
128640 On ch=7 n=82 v=88
128800 Par ch=7 c=11 v=104
128860 Par ch=7 c=11 v=103
128920 Par ch=7 c=11 v=102
128980 Par ch=7 c=11 v=101
129040 Par ch=7 c=11 v=99
129100 Par ch=7 c=11 v=97
129160 Par ch=7 c=11 v=95
129220 Par ch=7 c=11 v=92
129280 Par ch=7 c=11 v=89
129340 Par ch=7 c=11 v=86
129400 Par ch=7 c=11 v=83
129420 Off ch=7 n=82 v=64
129460 Par ch=7 c=11 v=79
129560 Par ch=7 c=11 v=103
129600 On ch=7 n=80 v=88
129860 Par ch=7 c=11 v=102
129920 Par ch=7 c=11 v=101
129980 Par ch=7 c=11 v=100
130020 Par ch=7 c=11 v=101
130080 On ch=7 n=82 v=88
130140 Off ch=7 n=80 v=64
130140 Par ch=7 c=11 v=102
130260 Par ch=7 c=11 v=103
130340 Off ch=7 n=82 v=64
130380 Par ch=7 c=11 v=104
130420 Par ch=7 c=11 v=105
130540 Par ch=7 c=11 v=108
130560 On ch=7 n=85 v=88
131040 On ch=7 n=87 v=88
131080 Off ch=7 n=85 v=64
131260 Par ch=7 c=11 v=107
131300 Off ch=7 n=87 v=64
131500 Par ch=7 c=11 v=106
131520 On ch=7 n=82 v=88
131740 Par ch=7 c=11 v=105
131780 Off ch=7 n=82 v=64
131920 Par ch=7 c=11 v=104
132000 On ch=7 n=80 v=88
132040 Par ch=7 c=11 v=103
132160 Par ch=7 c=11 v=102
132260 Off ch=7 n=80 v=64
132260 Par ch=7 c=11 v=100
132480 On ch=7 n=82 v=88
132500 Par ch=7 c=11 v=93
132560 Par ch=7 c=11 v=92
132620 Par ch=7 c=11 v=91
132640 Par ch=7 c=11 v=90
132740 Par ch=7 c=11 v=90
132860 Par ch=7 c=11 v=91
132980 Par ch=7 c=11 v=92
133040 Par ch=7 c=11 v=93
133160 Par ch=7 c=11 v=94
133220 Par ch=7 c=11 v=95
133280 Par ch=7 c=11 v=96
133340 Par ch=7 c=11 v=97
133400 Par ch=7 c=11 v=98
133420 Par ch=7 c=11 v=99
133440 On ch=7 n=80 v=88
133500 Off ch=7 n=82 v=64
133700 Off ch=7 n=80 v=64
133920 On ch=7 n=82 v=88
134180 Off ch=7 n=82 v=64
134360 Par ch=7 c=11 v=101
134400 On ch=7 n=80 v=88
134880 On ch=7 n=78 v=88
134900 Off ch=7 n=80 v=64
135020 Par ch=7 c=11 v=100
135160 Off ch=7 n=78 v=64
135260 Par ch=7 c=11 v=99
135360 On ch=7 n=77 v=88
135500 Par ch=7 c=11 v=98
135600 Off ch=7 n=77 v=64
135620 Par ch=7 c=11 v=97
135800 Par ch=7 c=11 v=96
135840 On ch=7 n=73 v=88
135900 Par ch=7 c=11 v=95
136020 Par ch=7 c=11 v=97
136180 Off ch=7 n=73 v=64
136200 Par ch=7 c=11 v=98
136260 Par ch=7 c=11 v=100
136280 Par ch=7 c=11 v=101
136320 On ch=7 n=75 v=88
136340 Par ch=7 c=11 v=100
136520 Par ch=7 c=11 v=99
136580 Par ch=7 c=11 v=98
136640 Par ch=7 c=11 v=97
136700 Par ch=7 c=11 v=95
136760 Par ch=7 c=11 v=93
136820 Par ch=7 c=11 v=91
136872 Par ch=7 c=11 v=88
136902 Par ch=7 c=11 v=89
136962 Par ch=7 c=11 v=90
137022 Par ch=7 c=11 v=91
137142 Par ch=7 c=11 v=92
137232 Par ch=7 c=11 v=94
137248 Off ch=7 n=75 v=64
137280 On ch=7 n=73 v=88
137562 Par ch=7 c=11 v=95
137682 Par ch=7 c=11 v=96
137760 On ch=7 n=75 v=88
137780 Off ch=7 n=73 v=64
137802 Par ch=7 c=11 v=97
137892 Par ch=7 c=11 v=98
137952 Par ch=7 c=11 v=99
138012 Par ch=7 c=11 v=100
138020 Off ch=7 n=75 v=64
138072 Par ch=7 c=11 v=101
138220 Par ch=7 c=11 v=99
138240 On ch=7 n=77 v=88
138460 Par ch=7 c=11 v=97
138720 On ch=7 n=78 v=88
138780 Off ch=7 n=77 v=64
138980 Off ch=7 n=78 v=64
139200 On ch=7 n=80 v=88
139300 Par ch=7 c=11 v=96
139420 Off ch=7 n=80 v=64
139600 Par ch=7 c=11 v=95
139680 On ch=7 n=82 v=88
139840 Par ch=7 c=11 v=94
139900 Off ch=7 n=82 v=64
140080 Par ch=7 c=11 v=93
140160 On ch=7 n=75 v=88
140220 Par ch=7 c=11 v=92
140300 Par ch=7 c=11 v=91
140480 Par ch=7 c=11 v=90
140540 Par ch=7 c=11 v=89
140600 Par ch=7 c=11 v=87
140660 Par ch=7 c=11 v=85
140720 Par ch=7 c=11 v=82
140780 Par ch=7 c=11 v=80
140840 Par ch=7 c=11 v=77
140880 Off ch=7 n=75 v=64
140900 Par ch=7 c=11 v=73
140960 Par ch=7 c=11 v=69
141000 Par ch=7 c=11 v=66
141120 On ch=7 n=82 v=88
141120 Par ch=7 c=11 v=95
141380 Off ch=7 n=82 v=64
141390 Par ch=7 c=11 v=96
141510 Par ch=7 c=11 v=97
141570 Par ch=7 c=11 v=98
141600 On ch=7 n=85 v=88
141660 Par ch=7 c=11 v=99
141720 Par ch=7 c=11 v=100
141750 Par ch=7 c=11 v=101
141810 Par ch=7 c=11 v=102
141860 Off ch=7 n=85 v=64
141870 Par ch=7 c=11 v=103
141888 Par ch=7 c=11 v=104
142080 On ch=7 n=85 v=88
142080 Par ch=7 c=11 v=108
142560 On ch=7 n=87 v=88
142580 Off ch=7 n=85 v=64
142620 Par ch=7 c=11 v=107
142800 Par ch=7 c=11 v=106
142820 Off ch=7 n=87 v=64
142980 Par ch=7 c=11 v=105
143040 On ch=7 n=82 v=88
143100 Par ch=7 c=11 v=104
143220 Par ch=7 c=11 v=103
143300 Off ch=7 n=82 v=64
143340 Par ch=7 c=11 v=102
143460 Par ch=7 c=11 v=101
143500 Par ch=7 c=11 v=100
143520 On ch=7 n=80 v=88
143580 Par ch=7 c=11 v=100
143780 Off ch=7 n=80 v=64
143820 Par ch=7 c=11 v=101
143900 Par ch=7 c=11 v=102
143980 Par ch=7 c=11 v=105
144000 On ch=7 n=82 v=88
144160 Par ch=7 c=11 v=104
144220 Par ch=7 c=11 v=103
144280 Par ch=7 c=11 v=102
144340 Par ch=7 c=11 v=101
144400 Par ch=7 c=11 v=99
144460 Par ch=7 c=11 v=97
144520 Par ch=7 c=11 v=95
144580 Par ch=7 c=11 v=92
144640 Par ch=7 c=11 v=89
144700 Par ch=7 c=11 v=86
144760 Par ch=7 c=11 v=83
144780 Off ch=7 n=82 v=64
144820 Par ch=7 c=11 v=79
144920 Par ch=7 c=11 v=103
144960 On ch=7 n=80 v=88
145220 Par ch=7 c=11 v=102
145280 Par ch=7 c=11 v=101
145340 Par ch=7 c=11 v=100
145380 Par ch=7 c=11 v=101
145440 On ch=7 n=82 v=88
145500 Off ch=7 n=80 v=64
145500 Par ch=7 c=11 v=102
145620 Par ch=7 c=11 v=103
145700 Off ch=7 n=82 v=64
145740 Par ch=7 c=11 v=104
145780 Par ch=7 c=11 v=105
145900 Par ch=7 c=11 v=108
145920 On ch=7 n=85 v=88
146400 On ch=7 n=87 v=88
146440 Off ch=7 n=85 v=64
146620 Par ch=7 c=11 v=107
146660 Off ch=7 n=87 v=64
146860 Par ch=7 c=11 v=106
146880 On ch=7 n=82 v=88
147100 Par ch=7 c=11 v=105
147140 Off ch=7 n=82 v=64
147280 Par ch=7 c=11 v=104
147360 On ch=7 n=80 v=88
147400 Par ch=7 c=11 v=103
147520 Par ch=7 c=11 v=102
147620 Off ch=7 n=80 v=64
147620 Par ch=7 c=11 v=100
147840 On ch=7 n=82 v=88
147860 Par ch=7 c=11 v=93
147920 Par ch=7 c=11 v=92
147980 Par ch=7 c=11 v=91
148000 Par ch=7 c=11 v=90
148100 Par ch=7 c=11 v=90
148220 Par ch=7 c=11 v=91
148340 Par ch=7 c=11 v=92
148400 Par ch=7 c=11 v=93
148520 Par ch=7 c=11 v=94
148580 Par ch=7 c=11 v=95
148640 Par ch=7 c=11 v=96
148700 Par ch=7 c=11 v=97
148760 Par ch=7 c=11 v=98
148780 Par ch=7 c=11 v=99
148800 On ch=7 n=80 v=88
148860 Off ch=7 n=82 v=64
149060 Off ch=7 n=80 v=64
149280 On ch=7 n=82 v=88
149540 Off ch=7 n=82 v=64
149720 Par ch=7 c=11 v=101
149760 On ch=7 n=80 v=88
150240 On ch=7 n=78 v=88
150260 Off ch=7 n=80 v=64
150380 Par ch=7 c=11 v=100
150520 Off ch=7 n=78 v=64
150620 Par ch=7 c=11 v=99
150720 On ch=7 n=77 v=88
150860 Par ch=7 c=11 v=98
150960 Off ch=7 n=77 v=64
150980 Par ch=7 c=11 v=97
151160 Par ch=7 c=11 v=96
151200 On ch=7 n=73 v=88
151260 Par ch=7 c=11 v=95
151380 Par ch=7 c=11 v=97
151540 Off ch=7 n=73 v=64
151560 Par ch=7 c=11 v=98
151620 Par ch=7 c=11 v=100
151640 Par ch=7 c=11 v=101
151680 On ch=7 n=75 v=88
151700 Par ch=7 c=11 v=100
151880 Par ch=7 c=11 v=99
151940 Par ch=7 c=11 v=98
152000 Par ch=7 c=11 v=97
152060 Par ch=7 c=11 v=95
152120 Par ch=7 c=11 v=93
152180 Par ch=7 c=11 v=91
152232 Par ch=7 c=11 v=88
152262 Par ch=7 c=11 v=89
152322 Par ch=7 c=11 v=90
152382 Par ch=7 c=11 v=91
152502 Par ch=7 c=11 v=92
152592 Par ch=7 c=11 v=94
152608 Off ch=7 n=75 v=64
152640 On ch=7 n=73 v=88
152922 Par ch=7 c=11 v=95
153042 Par ch=7 c=11 v=96
153120 On ch=7 n=75 v=88
153140 Off ch=7 n=73 v=64
153162 Par ch=7 c=11 v=97
153252 Par ch=7 c=11 v=98
153312 Par ch=7 c=11 v=99
153372 Par ch=7 c=11 v=100
153380 Off ch=7 n=75 v=64
153432 Par ch=7 c=11 v=101
153580 Par ch=7 c=11 v=99
153600 On ch=7 n=77 v=88
153600 Par ch=7 c=11 v=98
153820 Par ch=7 c=11 v=97
154080 On ch=7 n=78 v=88
154140 Off ch=7 n=77 v=64
154340 Off ch=7 n=78 v=64
154560 On ch=7 n=80 v=88
154660 Par ch=7 c=11 v=96
154780 Off ch=7 n=80 v=64
154960 Par ch=7 c=11 v=95
155040 On ch=7 n=82 v=88
155200 Par ch=7 c=11 v=94
155260 Off ch=7 n=82 v=64
155440 Par ch=7 c=11 v=93
155520 On ch=7 n=75 v=88
155580 Par ch=7 c=11 v=92
155660 Par ch=7 c=11 v=91
155840 Par ch=7 c=11 v=90
155900 Par ch=7 c=11 v=89
155960 Par ch=7 c=11 v=87
156020 Par ch=7 c=11 v=85
156080 Par ch=7 c=11 v=82
156140 Par ch=7 c=11 v=80
156200 Par ch=7 c=11 v=77
156240 Off ch=7 n=75 v=64
156260 Par ch=7 c=11 v=73
156320 Par ch=7 c=11 v=69
156360 Par ch=7 c=11 v=66
156456 Par ch=7 c=11 v=97
156480 On ch=7 n=82 v=88
156740 Off ch=7 n=82 v=64
156786 Par ch=7 c=11 v=98
156906 Par ch=7 c=11 v=99
156960 On ch=7 n=85 v=88
156996 Par ch=7 c=11 v=100
157086 Par ch=7 c=11 v=101
157176 Par ch=7 c=11 v=102
157220 Off ch=7 n=85 v=64
157236 Par ch=7 c=11 v=103
157296 Par ch=7 c=11 v=104
157356 Par ch=7 c=11 v=105
157416 Par ch=7 c=11 v=106
157440 On ch=7 n=85 v=88
157440 Par ch=7 c=11 v=107
157920 On ch=7 n=87 v=88
157940 Off ch=7 n=85 v=64
157980 Par ch=7 c=11 v=107
158160 Par ch=7 c=11 v=106
158180 Off ch=7 n=87 v=64
158340 Par ch=7 c=11 v=105
158400 On ch=7 n=82 v=88
158460 Par ch=7 c=11 v=104
158580 Par ch=7 c=11 v=103
158660 Off ch=7 n=82 v=64
158700 Par ch=7 c=11 v=102
158820 Par ch=7 c=11 v=101
158860 Par ch=7 c=11 v=100
158880 On ch=7 n=80 v=88
158940 Par ch=7 c=11 v=100
159140 Off ch=7 n=80 v=64
159180 Par ch=7 c=11 v=101
159260 Par ch=7 c=11 v=102
159340 Par ch=7 c=11 v=105
159360 On ch=7 n=82 v=88
159520 Par ch=7 c=11 v=104
159580 Par ch=7 c=11 v=103
159640 Par ch=7 c=11 v=102
159700 Par ch=7 c=11 v=101
159760 Par ch=7 c=11 v=99
159820 Par ch=7 c=11 v=97
159880 Par ch=7 c=11 v=95
159940 Par ch=7 c=11 v=92
160000 Par ch=7 c=11 v=89
160060 Par ch=7 c=11 v=86
160120 Par ch=7 c=11 v=83
160140 Off ch=7 n=82 v=64
160180 Par ch=7 c=11 v=79
160280 Par ch=7 c=11 v=103
160320 On ch=7 n=80 v=88
160580 Par ch=7 c=11 v=102
160640 Par ch=7 c=11 v=101
160700 Par ch=7 c=11 v=100
160740 Par ch=7 c=11 v=101
160800 On ch=7 n=82 v=88
160860 Off ch=7 n=80 v=64
160860 Par ch=7 c=11 v=102
160980 Par ch=7 c=11 v=103
161060 Off ch=7 n=82 v=64
161100 Par ch=7 c=11 v=104
161140 Par ch=7 c=11 v=105
161260 Par ch=7 c=11 v=108
161280 On ch=7 n=85 v=88
161760 On ch=7 n=87 v=88
161800 Off ch=7 n=85 v=64
161980 Par ch=7 c=11 v=107
162020 Off ch=7 n=87 v=64
162220 Par ch=7 c=11 v=106
162240 On ch=7 n=82 v=88
162460 Par ch=7 c=11 v=105
162500 Off ch=7 n=82 v=64
162640 Par ch=7 c=11 v=104
162720 On ch=7 n=80 v=88
162760 Par ch=7 c=11 v=103
162880 Par ch=7 c=11 v=102
162980 Off ch=7 n=80 v=64
162980 Par ch=7 c=11 v=100
163200 On ch=7 n=82 v=88
163220 Par ch=7 c=11 v=93
163280 Par ch=7 c=11 v=92
163340 Par ch=7 c=11 v=91
163360 Par ch=7 c=11 v=90
163460 Par ch=7 c=11 v=90
163580 Par ch=7 c=11 v=91
163700 Par ch=7 c=11 v=92
163760 Par ch=7 c=11 v=93
163880 Par ch=7 c=11 v=94
163940 Par ch=7 c=11 v=95
164000 Par ch=7 c=11 v=96
164060 Par ch=7 c=11 v=97
164120 Par ch=7 c=11 v=98
164140 Par ch=7 c=11 v=99
164160 On ch=7 n=80 v=88
164220 Off ch=7 n=82 v=64
164420 Off ch=7 n=80 v=64
164640 On ch=7 n=82 v=88
164900 Off ch=7 n=82 v=64
165080 Par ch=7 c=11 v=101
165120 On ch=7 n=80 v=88
165600 On ch=7 n=78 v=88
165620 Off ch=7 n=80 v=64
165740 Par ch=7 c=11 v=100
165880 Off ch=7 n=78 v=64
165980 Par ch=7 c=11 v=99
166080 On ch=7 n=77 v=88
166220 Par ch=7 c=11 v=98
166320 Off ch=7 n=77 v=64
166340 Par ch=7 c=11 v=97
166520 Par ch=7 c=11 v=96
166560 On ch=7 n=73 v=88
166620 Par ch=7 c=11 v=95
166740 Par ch=7 c=11 v=97
166900 Off ch=7 n=73 v=64
166920 Par ch=7 c=11 v=98
166980 Par ch=7 c=11 v=100
167000 Par ch=7 c=11 v=101
167040 On ch=7 n=75 v=88
167060 Par ch=7 c=11 v=100
167240 Par ch=7 c=11 v=99
167300 Par ch=7 c=11 v=98
167360 Par ch=7 c=11 v=97
167420 Par ch=7 c=11 v=95
167480 Par ch=7 c=11 v=93
167540 Par ch=7 c=11 v=91
167592 Par ch=7 c=11 v=88
167622 Par ch=7 c=11 v=89
167682 Par ch=7 c=11 v=90
167742 Par ch=7 c=11 v=91
167862 Par ch=7 c=11 v=92
167952 Par ch=7 c=11 v=94
167968 Off ch=7 n=75 v=64
168000 On ch=7 n=73 v=88
168282 Par ch=7 c=11 v=95
168402 Par ch=7 c=11 v=96
168480 On ch=7 n=75 v=88
168500 Off ch=7 n=73 v=64
168522 Par ch=7 c=11 v=97
168612 Par ch=7 c=11 v=98
168672 Par ch=7 c=11 v=99
168732 Par ch=7 c=11 v=100
168740 Off ch=7 n=75 v=64
168792 Par ch=7 c=11 v=101
168940 Par ch=7 c=11 v=99
168960 On ch=7 n=77 v=88
169180 Par ch=7 c=11 v=97
169440 On ch=7 n=78 v=88
169500 Off ch=7 n=77 v=64
169700 Off ch=7 n=78 v=64
169920 On ch=7 n=80 v=88
170020 Par ch=7 c=11 v=96
170140 Off ch=7 n=80 v=64
170320 Par ch=7 c=11 v=95
170400 On ch=7 n=82 v=88
170560 Par ch=7 c=11 v=94
170620 Off ch=7 n=82 v=64
170800 Par ch=7 c=11 v=93
170880 On ch=7 n=75 v=88
170940 Par ch=7 c=11 v=92
171020 Par ch=7 c=11 v=91
171200 Par ch=7 c=11 v=90
171260 Par ch=7 c=11 v=89
171320 Par ch=7 c=11 v=87
171380 Par ch=7 c=11 v=85
171440 Par ch=7 c=11 v=82
171488 Off ch=7 n=75 v=64
171500 Par ch=7 c=11 v=80
171560 Par ch=7 c=11 v=77
171620 Par ch=7 c=11 v=73
171680 Par ch=7 c=11 v=69
171720 Par ch=7 c=11 v=66
171840 On ch=7 n=82 v=88
171840 Par ch=7 c=11 v=95
172100 Off ch=7 n=82 v=64
172110 Par ch=7 c=11 v=96
172230 Par ch=7 c=11 v=97
172290 Par ch=7 c=11 v=98
172320 On ch=7 n=85 v=88
172380 Par ch=7 c=11 v=99
172440 Par ch=7 c=11 v=100
172470 Par ch=7 c=11 v=101
172530 Par ch=7 c=11 v=102
172580 Off ch=7 n=85 v=64
172590 Par ch=7 c=11 v=103
172608 Par ch=7 c=11 v=104
172800 On ch=7 n=85 v=88
172800 Par ch=7 c=11 v=108
173280 On ch=7 n=87 v=88
173300 Off ch=7 n=85 v=64
173340 Par ch=7 c=11 v=107
173520 Par ch=7 c=11 v=106
173540 Off ch=7 n=87 v=64
173700 Par ch=7 c=11 v=105
173760 On ch=7 n=82 v=88
173820 Par ch=7 c=11 v=104
173940 Par ch=7 c=11 v=103
174020 Off ch=7 n=82 v=64
174060 Par ch=7 c=11 v=102
174180 Par ch=7 c=11 v=101
174220 Par ch=7 c=11 v=100
174240 On ch=7 n=80 v=88
174300 Par ch=7 c=11 v=100
174500 Off ch=7 n=80 v=64
174540 Par ch=7 c=11 v=101
174620 Par ch=7 c=11 v=102
174700 Par ch=7 c=11 v=105
174720 On ch=7 n=82 v=88
174880 Par ch=7 c=11 v=104
174940 Par ch=7 c=11 v=103
175000 Par ch=7 c=11 v=102
175060 Par ch=7 c=11 v=101
175120 Par ch=7 c=11 v=99
175180 Par ch=7 c=11 v=97
175240 Par ch=7 c=11 v=95
175300 Par ch=7 c=11 v=92
175360 Par ch=7 c=11 v=89
175420 Par ch=7 c=11 v=86
175480 Par ch=7 c=11 v=83
175500 Off ch=7 n=82 v=64
175540 Par ch=7 c=11 v=79
175640 Par ch=7 c=11 v=103
175680 On ch=7 n=80 v=88
175940 Par ch=7 c=11 v=102
176000 Par ch=7 c=11 v=101
176060 Par ch=7 c=11 v=100
176100 Par ch=7 c=11 v=101
176160 On ch=7 n=82 v=88
176220 Off ch=7 n=80 v=64
176220 Par ch=7 c=11 v=102
176340 Par ch=7 c=11 v=103
176420 Off ch=7 n=82 v=64
176460 Par ch=7 c=11 v=104
176500 Par ch=7 c=11 v=105
176620 Par ch=7 c=11 v=108
176640 On ch=7 n=85 v=88
176640 Par ch=7 c=11 v=107
177120 On ch=7 n=87 v=88
177160 Off ch=7 n=85 v=64
177380 Off ch=7 n=87 v=64
177600 On ch=7 n=82 v=88
177860 Off ch=7 n=82 v=64
178080 On ch=7 n=80 v=88
178230 Par ch=7 c=11 v=108
178340 Off ch=7 n=80 v=64
178560 On ch=7 n=82 v=88
178860 Par ch=7 c=11 v=109
179370 Par ch=7 c=11 v=110
179520 On ch=7 n=87 v=88
179580 Off ch=7 n=82 v=64
179780 Off ch=7 n=87 v=64
179790 Par ch=7 c=11 v=111
180000 On ch=7 n=89 v=88
180150 Par ch=7 c=11 v=112
180260 Off ch=7 n=89 v=64
180480 On ch=7 n=90 v=88
180480 Par ch=7 c=11 v=118
180960 On ch=7 n=89 v=88
180980 Off ch=7 n=90 v=64
181240 Off ch=7 n=89 v=64
181440 On ch=7 n=87 v=88
181560 Par ch=7 c=11 v=117
181680 Off ch=7 n=87 v=64
181920 On ch=7 n=85 v=88
182010 Par ch=7 c=11 v=116
182140 Off ch=7 n=85 v=64
182340 Par ch=7 c=11 v=115
182400 On ch=7 n=82 v=88
182640 Par ch=7 c=11 v=114
182880 Par ch=7 c=11 v=113
183090 Par ch=7 c=11 v=112
183300 Par ch=7 c=11 v=111
183328 Off ch=7 n=82 v=64
183360 On ch=7 n=80 v=88
183510 Par ch=7 c=11 v=110
183690 Par ch=7 c=11 v=109
183840 On ch=7 n=82 v=88
183860 Off ch=7 n=80 v=64
183870 Par ch=7 c=11 v=108
184020 Par ch=7 c=11 v=107
184100 Off ch=7 n=82 v=64
184170 Par ch=7 c=11 v=106
184320 On ch=7 n=80 v=88
184320 Par ch=7 c=11 v=105
184800 On ch=7 n=78 v=88
184860 Off ch=7 n=80 v=64
184950 Par ch=7 c=11 v=106
185060 Off ch=7 n=78 v=64
185208 Par ch=7 c=11 v=107
185280 On ch=7 n=77 v=88
185328 Par ch=7 c=11 v=107
185500 Off ch=7 n=77 v=64
185658 Par ch=7 c=11 v=106
185760 On ch=7 n=73 v=88
185778 Par ch=7 c=11 v=105
185868 Par ch=7 c=11 v=104
185958 Par ch=7 c=11 v=103
185980 Off ch=7 n=73 v=64
186018 Par ch=7 c=11 v=102
186078 Par ch=7 c=11 v=101
186138 Par ch=7 c=11 v=100
186198 Par ch=7 c=11 v=99
186240 On ch=7 n=75 v=88
186258 Par ch=7 c=11 v=98
186318 Par ch=7 c=11 v=97
186348 Par ch=7 c=11 v=96
186408 Par ch=7 c=11 v=95
186438 Par ch=7 c=11 v=94
186498 Par ch=7 c=11 v=93
186528 Par ch=7 c=11 v=92
186558 Par ch=7 c=11 v=91
186618 Par ch=7 c=11 v=90
186648 Par ch=7 c=11 v=89
186678 Par ch=7 c=11 v=88
186696 Par ch=7 c=11 v=87
186740 Par ch=7 c=11 v=85
186800 Par ch=7 c=11 v=82
186860 Par ch=7 c=11 v=80
186920 Par ch=7 c=11 v=77
186960 Off ch=7 n=75 v=64
186980 Par ch=7 c=11 v=73
187040 Par ch=7 c=11 v=58
187080 Par ch=7 c=11 v=55
187200 On ch=7 n=70 v=88
187200 Par ch=7 c=11 v=72
187440 Par ch=7 c=11 v=73
187460 Off ch=7 n=70 v=64
187560 Par ch=7 c=11 v=74
187620 Par ch=7 c=11 v=75
187680 On ch=7 n=73 v=88
187680 Par ch=7 c=11 v=76
187740 Par ch=7 c=11 v=77
187800 Par ch=7 c=11 v=78
187860 Par ch=7 c=11 v=79
187890 Par ch=7 c=11 v=80
187920 Par ch=7 c=11 v=81
187940 Off ch=7 n=73 v=64
187980 Par ch=7 c=11 v=82
188010 Par ch=7 c=11 v=83
188040 Par ch=7 c=11 v=84
188070 Par ch=7 c=11 v=85
188100 Par ch=7 c=11 v=86
188130 Par ch=7 c=11 v=87
188160 On ch=7 n=73 v=88
188160 Par ch=7 c=11 v=80
188640 On ch=7 n=75 v=88
188660 Off ch=7 n=73 v=64
188700 Par ch=7 c=11 v=82
188880 Par ch=7 c=11 v=81
188900 Off ch=7 n=75 v=64
189060 Par ch=7 c=11 v=80
189120 On ch=7 n=70 v=88
189180 Par ch=7 c=11 v=79
189300 Par ch=7 c=11 v=78
189380 Off ch=7 n=70 v=64
189420 Par ch=7 c=11 v=77
189540 Par ch=7 c=11 v=76
189580 Par ch=7 c=11 v=75
189600 On ch=7 n=68 v=88
189660 Par ch=7 c=11 v=75
189860 Off ch=7 n=68 v=64
189900 Par ch=7 c=11 v=76
189980 Par ch=7 c=11 v=77
190060 Par ch=7 c=11 v=80
190080 On ch=7 n=70 v=88
190240 Par ch=7 c=11 v=79
190300 Par ch=7 c=11 v=78
190360 Par ch=7 c=11 v=77
190420 Par ch=7 c=11 v=76
190480 Par ch=7 c=11 v=74
190540 Par ch=7 c=11 v=72
190600 Par ch=7 c=11 v=70
190660 Par ch=7 c=11 v=67
190720 Par ch=7 c=11 v=64
190780 Par ch=7 c=11 v=61
190840 Par ch=7 c=11 v=58
190900 Par ch=7 c=11 v=54
190988 Off ch=7 n=70 v=64
191040 On ch=7 n=68 v=88
191064 Par ch=7 c=11 v=74
191300 Par ch=7 c=11 v=77
191360 Par ch=7 c=11 v=76
191420 Par ch=7 c=11 v=75
191460 Par ch=7 c=11 v=76
191520 On ch=7 n=70 v=88
191580 Off ch=7 n=68 v=64
191580 Par ch=7 c=11 v=77
191700 Par ch=7 c=11 v=78
191780 Off ch=7 n=70 v=64
191820 Par ch=7 c=11 v=79
191860 Par ch=7 c=11 v=80
191980 Par ch=7 c=11 v=83
192000 On ch=7 n=73 v=88
192480 On ch=7 n=75 v=88
192520 Off ch=7 n=73 v=64
192700 Par ch=7 c=11 v=82
192740 Off ch=7 n=75 v=64
192940 Par ch=7 c=11 v=81
192960 On ch=7 n=70 v=88
193180 Par ch=7 c=11 v=80
193220 Off ch=7 n=70 v=64
193360 Par ch=7 c=11 v=79
193440 On ch=7 n=68 v=88
193480 Par ch=7 c=11 v=78
193600 Par ch=7 c=11 v=77
193700 Off ch=7 n=68 v=64
193700 Par ch=7 c=11 v=75
193920 On ch=7 n=70 v=88
193940 Par ch=7 c=11 v=76
194000 Par ch=7 c=11 v=75
194060 Par ch=7 c=11 v=74
194080 Par ch=7 c=11 v=73
194180 Par ch=7 c=11 v=73
194300 Par ch=7 c=11 v=74
194420 Par ch=7 c=11 v=75
194480 Par ch=7 c=11 v=76
194600 Par ch=7 c=11 v=77
194660 Par ch=7 c=11 v=78
194720 Par ch=7 c=11 v=79
194780 Par ch=7 c=11 v=80
194840 Par ch=7 c=11 v=81
194860 Par ch=7 c=11 v=82
194880 On ch=7 n=68 v=88
194940 Off ch=7 n=70 v=64
195140 Off ch=7 n=68 v=64
195360 On ch=7 n=70 v=88
195620 Off ch=7 n=70 v=64
195800 Par ch=7 c=11 v=84
195840 On ch=7 n=68 v=88
196320 On ch=7 n=66 v=88
196340 Off ch=7 n=68 v=64
196460 Par ch=7 c=11 v=83
196600 Off ch=7 n=66 v=64
196700 Par ch=7 c=11 v=82
196800 On ch=7 n=65 v=88
196940 Par ch=7 c=11 v=81
197040 Off ch=7 n=65 v=64
197060 Par ch=7 c=11 v=80
197240 Par ch=7 c=11 v=79
197280 On ch=7 n=61 v=88
197340 Par ch=7 c=11 v=78
197460 Par ch=7 c=11 v=80
197620 Off ch=7 n=61 v=64
197640 Par ch=7 c=11 v=81
197700 Par ch=7 c=11 v=83
197720 Par ch=7 c=11 v=84
197760 On ch=7 n=63 v=88
197780 Par ch=7 c=11 v=83
197960 Par ch=7 c=11 v=82
198020 Par ch=7 c=11 v=81
198080 Par ch=7 c=11 v=80
198140 Par ch=7 c=11 v=78
198200 Par ch=7 c=11 v=76
198260 Par ch=7 c=11 v=74
198312 Par ch=7 c=11 v=71
198342 Par ch=7 c=11 v=72
198402 Par ch=7 c=11 v=73
198462 Par ch=7 c=11 v=74
198582 Par ch=7 c=11 v=75
198672 Par ch=7 c=11 v=77
198720 On ch=7 n=61 v=88
198736 Off ch=7 n=63 v=64
199002 Par ch=7 c=11 v=78
199122 Par ch=7 c=11 v=79
199200 On ch=7 n=63 v=88
199220 Off ch=7 n=61 v=64
199242 Par ch=7 c=11 v=80
199332 Par ch=7 c=11 v=81
199392 Par ch=7 c=11 v=82
199452 Par ch=7 c=11 v=83
199460 Off ch=7 n=63 v=64
199512 Par ch=7 c=11 v=84
199660 Par ch=7 c=11 v=82
199680 On ch=7 n=65 v=88
199900 Par ch=7 c=11 v=80
200160 On ch=7 n=66 v=88
200220 Off ch=7 n=65 v=64
200420 Off ch=7 n=66 v=64
200640 On ch=7 n=68 v=88
200740 Par ch=7 c=11 v=79
200860 Off ch=7 n=68 v=64
201040 Par ch=7 c=11 v=78
201120 On ch=7 n=70 v=88
201280 Par ch=7 c=11 v=77
201340 Off ch=7 n=70 v=64
201520 Par ch=7 c=11 v=76
201600 On ch=7 n=63 v=88
201660 Par ch=7 c=11 v=75
201740 Par ch=7 c=11 v=74
201920 Par ch=7 c=11 v=73
201980 Par ch=7 c=11 v=72
202040 Par ch=7 c=11 v=70
202100 Par ch=7 c=11 v=68
202160 Par ch=7 c=11 v=65
202220 Par ch=7 c=11 v=63
202280 Par ch=7 c=11 v=60
202320 Off ch=7 n=63 v=64
202340 Par ch=7 c=11 v=56
202400 Par ch=7 c=11 v=52
202440 Par ch=7 c=11 v=49
202560 Par ch=7 c=11 v=70
202560 On ch=7 n=70 v=88
202820 Off ch=7 n=70 v=64
202830 Par ch=7 c=11 v=71
202950 Par ch=7 c=11 v=72
203010 Par ch=7 c=11 v=73
203040 On ch=7 n=73 v=88
203100 Par ch=7 c=11 v=74
203160 Par ch=7 c=11 v=75
203190 Par ch=7 c=11 v=76
203250 Par ch=7 c=11 v=77
203300 Off ch=7 n=73 v=64
203310 Par ch=7 c=11 v=78
203328 Par ch=7 c=11 v=79
203520 Par ch=7 c=11 v=83
203520 On ch=7 n=73 v=88
204000 On ch=7 n=75 v=88
204020 Off ch=7 n=73 v=64
204060 Par ch=7 c=11 v=82
204240 Par ch=7 c=11 v=81
204260 Off ch=7 n=75 v=64
204420 Par ch=7 c=11 v=80
204480 On ch=7 n=70 v=88
204540 Par ch=7 c=11 v=79
204660 Par ch=7 c=11 v=78
204740 Off ch=7 n=70 v=64
204780 Par ch=7 c=11 v=77
204900 Par ch=7 c=11 v=76
204940 Par ch=7 c=11 v=75
204960 On ch=7 n=68 v=88
205020 Par ch=7 c=11 v=75
205220 Off ch=7 n=68 v=64
205260 Par ch=7 c=11 v=76
205340 Par ch=7 c=11 v=77
205420 Par ch=7 c=11 v=80
205440 On ch=7 n=70 v=88
205600 Par ch=7 c=11 v=79
205660 Par ch=7 c=11 v=78
205720 Par ch=7 c=11 v=77
205780 Par ch=7 c=11 v=76
205840 Par ch=7 c=11 v=74
205900 Par ch=7 c=11 v=72
205960 Par ch=7 c=11 v=70
206020 Par ch=7 c=11 v=67
206080 Par ch=7 c=11 v=64
206140 Par ch=7 c=11 v=61
206200 Par ch=7 c=11 v=58
206260 Par ch=7 c=11 v=54
206364 Off ch=7 n=70 v=64
206392 Par ch=7 c=11 v=74
206400 On ch=7 n=68 v=88
206660 Par ch=7 c=11 v=77
206720 Par ch=7 c=11 v=76
206780 Par ch=7 c=11 v=75
206820 Par ch=7 c=11 v=76
206880 On ch=7 n=70 v=88
206940 Off ch=7 n=68 v=64
206940 Par ch=7 c=11 v=77
207060 Par ch=7 c=11 v=78
207140 Off ch=7 n=70 v=64
207180 Par ch=7 c=11 v=79
207220 Par ch=7 c=11 v=80
207340 Par ch=7 c=11 v=83
207360 Par ch=7 c=11 v=82
207360 On ch=7 n=73 v=88
207840 On ch=7 n=75 v=88
207880 Off ch=7 n=73 v=64
208100 Off ch=7 n=75 v=64
208320 On ch=7 n=70 v=88
208580 Off ch=7 n=70 v=64
208800 On ch=7 n=68 v=88
208950 Par ch=7 c=11 v=83
209060 Off ch=7 n=68 v=64
209280 On ch=7 n=70 v=88
209580 Par ch=7 c=11 v=84
210090 Par ch=7 c=11 v=85
210240 On ch=7 n=75 v=88
210300 Off ch=7 n=70 v=64
210500 Off ch=7 n=75 v=64
210510 Par ch=7 c=11 v=86
210720 On ch=7 n=77 v=88
210870 Par ch=7 c=11 v=87
210980 Off ch=7 n=77 v=64
211200 Par ch=7 c=11 v=93
211200 On ch=7 n=78 v=88
211680 On ch=7 n=77 v=88
211700 Off ch=7 n=78 v=64
211960 Off ch=7 n=77 v=64
212160 On ch=7 n=75 v=88
212280 Par ch=7 c=11 v=92
212400 Off ch=7 n=75 v=64
212640 On ch=7 n=73 v=88
212730 Par ch=7 c=11 v=91
212836 Off ch=7 n=73 v=64
213060 Par ch=7 c=11 v=90
213120 On ch=7 n=70 v=88
213360 Par ch=7 c=11 v=89
213600 Par ch=7 c=11 v=88
213810 Par ch=7 c=11 v=87
214020 Par ch=7 c=11 v=86
214080 On ch=7 n=68 v=88
214112 Off ch=7 n=70 v=64
214230 Par ch=7 c=11 v=85
214356 Off ch=7 n=68 v=64
214410 Par ch=7 c=11 v=84
214560 On ch=7 n=70 v=88
214590 Par ch=7 c=11 v=83
214740 Par ch=7 c=11 v=82
214820 Off ch=7 n=70 v=64
214890 Par ch=7 c=11 v=81
215040 Par ch=7 c=11 v=80
215040 On ch=7 n=68 v=88
215520 On ch=7 n=66 v=88
215580 Off ch=7 n=68 v=64
215670 Par ch=7 c=11 v=81
215780 Off ch=7 n=66 v=64
215928 Par ch=7 c=11 v=82
216000 On ch=7 n=65 v=88
216048 Par ch=7 c=11 v=82
216220 Off ch=7 n=65 v=64
216378 Par ch=7 c=11 v=81
216480 On ch=7 n=61 v=88
216498 Par ch=7 c=11 v=80
216588 Par ch=7 c=11 v=79
216678 Par ch=7 c=11 v=78
216700 Off ch=7 n=61 v=64
216738 Par ch=7 c=11 v=77
216798 Par ch=7 c=11 v=76
216858 Par ch=7 c=11 v=75
216918 Par ch=7 c=11 v=74
216960 On ch=7 n=63 v=88
216978 Par ch=7 c=11 v=73
217038 Par ch=7 c=11 v=72
217068 Par ch=7 c=11 v=71
217128 Par ch=7 c=11 v=70
217158 Par ch=7 c=11 v=69
217218 Par ch=7 c=11 v=68
217248 Par ch=7 c=11 v=67
217278 Par ch=7 c=11 v=66
217338 Par ch=7 c=11 v=65
217368 Par ch=7 c=11 v=64
217398 Par ch=7 c=11 v=63
217416 Par ch=7 c=11 v=62
217460 Par ch=7 c=11 v=60
217520 Par ch=7 c=11 v=57
217580 Par ch=7 c=11 v=55
217640 Par ch=7 c=11 v=52
217680 Off ch=7 n=63 v=64
217700 Par ch=7 c=11 v=48
217760 Par ch=7 c=11 v=44
217800 Par ch=7 c=11 v=41
249600 Par ch=7 c=11 v=112
280320 On ch=7 n=58 v=88
280320 Par ch=7 c=11 v=115
280656 Off ch=7 n=58 v=64
280800 On ch=7 n=66 v=88
281040 On ch=7 n=75 v=88
281088 Off ch=7 n=66 v=64
281160 Off ch=7 n=75 v=64
282240 On ch=7 n=58 v=88
282576 Off ch=7 n=58 v=64
282720 On ch=7 n=66 v=88
282960 On ch=7 n=75 v=88
283008 Off ch=7 n=66 v=64
283080 Off ch=7 n=75 v=64
284160 On ch=7 n=58 v=88
284496 Off ch=7 n=58 v=64
284640 On ch=7 n=66 v=88
284880 On ch=7 n=75 v=88
284928 Off ch=7 n=66 v=64
285000 Off ch=7 n=75 v=64
286080 On ch=7 n=58 v=88
286416 Off ch=7 n=58 v=64
286560 On ch=7 n=66 v=88
286800 On ch=7 n=75 v=88
286848 Off ch=7 n=66 v=64
286920 Off ch=7 n=75 v=64
288000 On ch=7 n=58 v=88
288336 Off ch=7 n=58 v=64
288480 On ch=7 n=66 v=88
288720 On ch=7 n=75 v=88
288768 Off ch=7 n=66 v=64
288840 Off ch=7 n=75 v=64
289920 On ch=7 n=58 v=88
290256 Off ch=7 n=58 v=64
290400 On ch=7 n=66 v=88
290640 On ch=7 n=75 v=88
290688 Off ch=7 n=66 v=64
290760 Off ch=7 n=75 v=64
291840 On ch=7 n=58 v=88
292176 Off ch=7 n=58 v=64
292320 On ch=7 n=65 v=88
292560 On ch=7 n=73 v=88
292608 Off ch=7 n=65 v=64
292680 Off ch=7 n=73 v=64
293760 On ch=7 n=58 v=88
294096 Off ch=7 n=58 v=64
294240 On ch=7 n=65 v=88
294480 On ch=7 n=74 v=88
294528 Off ch=7 n=65 v=64
294600 Off ch=7 n=74 v=64
295680 On ch=7 n=58 v=88
296016 Off ch=7 n=58 v=64
296160 On ch=7 n=66 v=88
296400 On ch=7 n=75 v=88
296448 Off ch=7 n=66 v=64
296520 Off ch=7 n=75 v=64
297600 On ch=7 n=58 v=88
297936 Off ch=7 n=58 v=64
298080 On ch=7 n=66 v=88
298320 On ch=7 n=75 v=88
298368 Off ch=7 n=66 v=64
298440 Off ch=7 n=75 v=64
299520 On ch=7 n=58 v=88
299856 Off ch=7 n=58 v=64
300000 On ch=7 n=66 v=88
300240 On ch=7 n=75 v=88
300288 Off ch=7 n=66 v=64
300360 Off ch=7 n=75 v=64
301440 On ch=7 n=58 v=88
301776 Off ch=7 n=58 v=64
301920 On ch=7 n=66 v=88
302160 On ch=7 n=75 v=88
302208 Off ch=7 n=66 v=64
302280 Off ch=7 n=75 v=64
303360 On ch=7 n=58 v=88
303696 Off ch=7 n=58 v=64
303840 On ch=7 n=66 v=88
304080 On ch=7 n=75 v=88
304128 Off ch=7 n=66 v=64
304200 Off ch=7 n=75 v=64
305280 On ch=7 n=58 v=88
305616 Off ch=7 n=58 v=64
305760 On ch=7 n=66 v=88
306000 On ch=7 n=75 v=88
306048 Off ch=7 n=66 v=64
306120 Off ch=7 n=75 v=64
307200 On ch=7 n=58 v=88
307536 Off ch=7 n=58 v=64
307680 On ch=7 n=65 v=88
307920 On ch=7 n=73 v=88
307968 Off ch=7 n=65 v=64
308040 Off ch=7 n=73 v=64
309120 On ch=7 n=58 v=88
309456 Off ch=7 n=58 v=64
309600 On ch=7 n=65 v=88
309840 On ch=7 n=74 v=88
309888 Off ch=7 n=65 v=64
309960 Off ch=7 n=74 v=64
430080 Par ch=7 c=11 v=115
431200 On ch=7 n=64 v=56
431360 Off ch=7 n=64 v=64
431360 On ch=7 n=66 v=56
431520 Off ch=7 n=66 v=64
431520 On ch=7 n=67 v=56
431680 Off ch=7 n=67 v=64
431680 On ch=7 n=69 v=56
431840 Off ch=7 n=69 v=64
431840 On ch=7 n=71 v=56
432000 Off ch=7 n=71 v=64
432000 On ch=7 n=72 v=56
432160 Off ch=7 n=72 v=64
432160 On ch=7 n=74 v=56
432320 Off ch=7 n=74 v=64
432320 On ch=7 n=76 v=56
432480 Off ch=7 n=76 v=64
432480 On ch=7 n=78 v=56
432640 Off ch=7 n=78 v=64
432640 On ch=7 n=79 v=56
432800 Off ch=7 n=79 v=64
432800 On ch=7 n=81 v=56
432960 Off ch=7 n=81 v=64
432960 On ch=7 n=83 v=88
433220 Off ch=7 n=83 v=64
433440 On ch=7 n=86 v=88
433700 Off ch=7 n=86 v=64
433920 On ch=7 n=86 v=88
434400 On ch=7 n=88 v=88
434420 Off ch=7 n=86 v=64
434660 Off ch=7 n=88 v=64
434880 On ch=7 n=83 v=88
435140 Off ch=7 n=83 v=64
435360 On ch=7 n=81 v=88
435620 Off ch=7 n=81 v=64
435840 On ch=7 n=83 v=88
436620 Off ch=7 n=83 v=64
436800 On ch=7 n=81 v=88
437280 On ch=7 n=83 v=88
437340 Off ch=7 n=81 v=64
437540 Off ch=7 n=83 v=64
437760 On ch=7 n=86 v=88
438240 On ch=7 n=88 v=88
438280 Off ch=7 n=86 v=64
438500 Off ch=7 n=88 v=64
438720 On ch=7 n=83 v=88
438980 Off ch=7 n=83 v=64
439200 On ch=7 n=81 v=88
439460 Off ch=7 n=81 v=64
439680 On ch=7 n=83 v=88
440640 On ch=7 n=81 v=88
440700 Off ch=7 n=83 v=64
440900 Off ch=7 n=81 v=64
441120 On ch=7 n=83 v=88
441380 Off ch=7 n=83 v=64
441600 On ch=7 n=81 v=88
442080 On ch=7 n=79 v=88
442100 Off ch=7 n=81 v=64
442360 Off ch=7 n=79 v=64
442560 On ch=7 n=78 v=88
442800 Off ch=7 n=78 v=64
443040 On ch=7 n=74 v=88
443380 Off ch=7 n=74 v=64
443520 On ch=7 n=76 v=88
444448 Off ch=7 n=76 v=64
444480 On ch=7 n=74 v=88
444960 On ch=7 n=76 v=88
444980 Off ch=7 n=74 v=64
445220 Off ch=7 n=76 v=64
445440 On ch=7 n=78 v=88
445920 On ch=7 n=79 v=88
445980 Off ch=7 n=78 v=64
446180 Off ch=7 n=79 v=64
446400 On ch=7 n=81 v=88
446620 Off ch=7 n=81 v=64
446880 On ch=7 n=83 v=88
447100 Off ch=7 n=83 v=64
447360 On ch=7 n=76 v=88
448080 Off ch=7 n=76 v=64
448320 On ch=7 n=83 v=88
448580 Off ch=7 n=83 v=64
448800 On ch=7 n=86 v=88
449060 Off ch=7 n=86 v=64
449280 On ch=7 n=86 v=88
449760 On ch=7 n=88 v=88
449780 Off ch=7 n=86 v=64
450020 Off ch=7 n=88 v=64
450240 On ch=7 n=83 v=88
450500 Off ch=7 n=83 v=64
450720 On ch=7 n=81 v=88
450980 Off ch=7 n=81 v=64
451200 On ch=7 n=83 v=88
451980 Off ch=7 n=83 v=64
452160 On ch=7 n=81 v=88
452640 On ch=7 n=83 v=88
452700 Off ch=7 n=81 v=64
452900 Off ch=7 n=83 v=64
453120 On ch=7 n=86 v=88
453600 On ch=7 n=88 v=88
453640 Off ch=7 n=86 v=64
453860 Off ch=7 n=88 v=64
454080 On ch=7 n=83 v=88
454340 Off ch=7 n=83 v=64
454560 On ch=7 n=81 v=88
454820 Off ch=7 n=81 v=64
455040 On ch=7 n=83 v=88
456000 On ch=7 n=88 v=88
456060 Off ch=7 n=83 v=64
456260 Off ch=7 n=88 v=64
456480 On ch=7 n=90 v=88
456740 Off ch=7 n=90 v=64
456960 On ch=7 n=91 v=88
457440 On ch=7 n=90 v=88
457460 Off ch=7 n=91 v=64
457720 Off ch=7 n=90 v=64
457920 On ch=7 n=88 v=88
458160 Off ch=7 n=88 v=64
458400 On ch=7 n=86 v=88
458620 Off ch=7 n=86 v=64
458880 On ch=7 n=83 v=88
459808 Off ch=7 n=83 v=64
459840 On ch=7 n=81 v=88
460320 On ch=7 n=83 v=88
460340 Off ch=7 n=81 v=64
460580 Off ch=7 n=83 v=64
460800 On ch=7 n=81 v=88
460800 Par ch=7 c=11 v=110
461280 On ch=7 n=79 v=88
461340 Off ch=7 n=81 v=64
461540 Off ch=7 n=79 v=64
461760 On ch=7 n=78 v=88
461980 Off ch=7 n=78 v=64
462240 On ch=7 n=74 v=88
462460 Off ch=7 n=74 v=64
462720 On ch=7 n=76 v=88
462936 Off ch=7 n=76 v=64
464640 On ch=7 n=76 v=56
464640 Par ch=7 c=11 v=38
466740 Par ch=7 c=11 v=39
467610 Par ch=7 c=11 v=40
468270 Par ch=7 c=11 v=41
468840 Par ch=7 c=11 v=42
469320 Par ch=7 c=11 v=43
469770 Par ch=7 c=11 v=44
470160 Par ch=7 c=11 v=45
470550 Par ch=7 c=11 v=46
470910 Par ch=7 c=11 v=47
471240 Par ch=7 c=11 v=48
471570 Par ch=7 c=11 v=49
471870 Par ch=7 c=11 v=50
472160 Par ch=7 c=11 v=51
472320 Par ch=7 c=11 v=51
474120 Par ch=7 c=11 v=50
474840 Par ch=7 c=11 v=49
475410 Par ch=7 c=11 v=48
475890 Par ch=7 c=11 v=47
476310 Par ch=7 c=11 v=46
476670 Par ch=7 c=11 v=45
477030 Par ch=7 c=11 v=44
477360 Par ch=7 c=11 v=43
477660 Par ch=7 c=11 v=42
477930 Par ch=7 c=11 v=41
478200 Par ch=7 c=11 v=40
478470 Par ch=7 c=11 v=39
478740 Par ch=7 c=11 v=38
478980 Par ch=7 c=11 v=37
479190 Par ch=7 c=11 v=36
479430 Par ch=7 c=11 v=35
479640 Par ch=7 c=11 v=34
479840 Par ch=7 c=11 v=33
480000 Off ch=7 n=76 v=64
480000 On ch=7 n=76 v=56
480000 Par ch=7 c=11 v=25
481860 Par ch=7 c=11 v=26
482610 Par ch=7 c=11 v=27
483180 Par ch=7 c=11 v=28
483690 Par ch=7 c=11 v=29
484110 Par ch=7 c=11 v=30
484500 Par ch=7 c=11 v=31
484860 Par ch=7 c=11 v=32
485190 Par ch=7 c=11 v=33
485520 Par ch=7 c=11 v=34
485820 Par ch=7 c=11 v=35
486090 Par ch=7 c=11 v=36
486360 Par ch=7 c=11 v=37
486630 Par ch=7 c=11 v=38
486870 Par ch=7 c=11 v=39
487104 Par ch=7 c=11 v=40
487680 Par ch=7 c=11 v=39
489150 Par ch=7 c=11 v=38
489750 Par ch=7 c=11 v=37
490200 Par ch=7 c=11 v=36
490590 Par ch=7 c=11 v=35
490920 Par ch=7 c=11 v=34
491250 Par ch=7 c=11 v=33
491520 Par ch=7 c=11 v=32
491790 Par ch=7 c=11 v=31
492030 Par ch=7 c=11 v=30
492270 Par ch=7 c=11 v=29
492480 Par ch=7 c=11 v=28
492720 Par ch=7 c=11 v=27
492900 Par ch=7 c=11 v=26
493110 Par ch=7 c=11 v=25
493290 Par ch=7 c=11 v=24
493470 Par ch=7 c=11 v=23
493650 Par ch=7 c=11 v=22
493830 Par ch=7 c=11 v=21
494010 Par ch=7 c=11 v=20
494160 Par ch=7 c=11 v=19
494340 Par ch=7 c=11 v=18
494490 Par ch=7 c=11 v=17
494640 Par ch=7 c=11 v=16
494790 Par ch=7 c=11 v=15
494940 Par ch=7 c=11 v=14
495060 Par ch=7 c=11 v=13
495200 Par ch=7 c=11 v=12
495360 Off ch=7 n=76 v=64
495360 On ch=7 n=76 v=56
495360 Par ch=7 c=11 v=18
497910 Par ch=7 c=11 v=19
498960 Par ch=7 c=11 v=20
499740 Par ch=7 c=11 v=21
500430 Par ch=7 c=11 v=22
501030 Par ch=7 c=11 v=23
501570 Par ch=7 c=11 v=24
502050 Par ch=7 c=11 v=25
502530 Par ch=7 c=11 v=26
502944 Par ch=7 c=11 v=27
503040 Par ch=7 c=11 v=21
503070 Par ch=7 c=11 v=22
503220 Par ch=7 c=11 v=23
503370 Par ch=7 c=11 v=24
503580 Par ch=7 c=11 v=25
503820 Par ch=7 c=11 v=26
504120 Par ch=7 c=11 v=27
504416 Par ch=7 c=11 v=28
505556 Par ch=7 c=11 v=27
506036 Par ch=7 c=11 v=26
506396 Par ch=7 c=11 v=25
506696 Par ch=7 c=11 v=24
506966 Par ch=7 c=11 v=23
507206 Par ch=7 c=11 v=22
507416 Par ch=7 c=11 v=21
507626 Par ch=7 c=11 v=20
507836 Par ch=7 c=11 v=19
508016 Par ch=7 c=11 v=18
508196 Par ch=7 c=11 v=17
508346 Par ch=7 c=11 v=16
508526 Par ch=7 c=11 v=15
508676 Par ch=7 c=11 v=14
508826 Par ch=7 c=11 v=13
508946 Par ch=7 c=11 v=12
509096 Par ch=7 c=11 v=11
509246 Par ch=7 c=11 v=10
509366 Par ch=7 c=11 v=9
509486 Par ch=7 c=11 v=8
509606 Par ch=7 c=11 v=7
509756 Par ch=7 c=11 v=6
509846 Par ch=7 c=11 v=5
509966 Par ch=7 c=11 v=4
510086 Par ch=7 c=11 v=3
510206 Par ch=7 c=11 v=2
510326 Par ch=7 c=11 v=1
510416 Par ch=7 c=11 v=0
510536 Par ch=7 c=11 v=0
510626 Par ch=7 c=11 v=0
510720 Off ch=7 n=76 v=64
510720 Par ch=7 c=11 v=0
510720 Meta TrkEnd
TrkEnd
MTrk
0 SeqSpec 43 00 01 ff
0 Meta TrkName "Violin2"
1920 PrCh ch=8 p=2
1930 Par ch=8 c=7 v=100
1940 Par ch=8 c=10 v=64
1950 Par ch=8 c=11 v=127
1960 Par ch=8 c=20 v=127
1970 Par ch=8 c=91 v=0
1980 Par ch=8 c=93 v=0
1990 Par ch=8 c=94 v=0
2000 Par ch=8 c=101 v=0
2010 Par ch=8 c=100 v=0
2020 Par ch=8 c=6 v=2
2030 Par ch=8 c=101 v=127
2040 Par ch=8 c=100 v=127
65280 On ch=8 n=63 v=88
65280 Par ch=8 c=11 v=109
65280 Par ch=8 c=7 v=93
65520 Par ch=8 c=11 v=108
65640 Par ch=8 c=11 v=107
65700 Par ch=8 c=11 v=106
65760 On ch=8 n=65 v=88
65760 Par ch=8 c=11 v=105
65820 Par ch=8 c=11 v=104
65856 Off ch=8 n=63 v=64
65880 Par ch=8 c=11 v=103
65940 Par ch=8 c=11 v=102
65970 Par ch=8 c=11 v=101
66000 Par ch=8 c=11 v=100
66060 Par ch=8 c=11 v=99
66090 Par ch=8 c=11 v=98
66112 Off ch=8 n=65 v=64
66120 Par ch=8 c=11 v=97
66150 Par ch=8 c=11 v=96
66180 Par ch=8 c=11 v=95
66210 Par ch=8 c=11 v=94
66240 On ch=8 n=66 v=88
66240 Par ch=8 c=11 v=93
66420 Par ch=8 c=11 v=92
66544 Off ch=8 n=66 v=64
66690 Par ch=8 c=11 v=93
66720 On ch=8 n=68 v=88
66800 Par ch=8 c=11 v=94
66992 Off ch=8 n=68 v=64
67100 Par ch=8 c=11 v=95
67200 On ch=8 n=70 v=88
67220 Par ch=8 c=11 v=96
67310 Par ch=8 c=11 v=97
67370 Par ch=8 c=11 v=98
67460 Par ch=8 c=11 v=99
67520 Par ch=8 c=11 v=100
67550 Par ch=8 c=11 v=101
67610 Par ch=8 c=11 v=102
67670 Par ch=8 c=11 v=103
67700 Par ch=8 c=11 v=104
67760 Par ch=8 c=11 v=105
67790 Par ch=8 c=11 v=106
67840 Par ch=8 c=11 v=105
67870 Par ch=8 c=11 v=106
67900 Par ch=8 c=11 v=107
67990 Par ch=8 c=11 v=108
68096 On ch=8 n=63 v=88
68160 On ch=8 n=75 v=88
68160 Par ch=8 c=11 v=107
68192 Off ch=8 n=70 v=64
68336 Off ch=8 n=63 v=64
68460 Par ch=8 c=11 v=106
68580 Par ch=8 c=11 v=105
68640 Off ch=8 n=75 v=64
68640 On ch=8 n=73 v=88
68670 Par ch=8 c=11 v=104
68760 Par ch=8 c=11 v=103
68820 Par ch=8 c=11 v=102
68880 Par ch=8 c=11 v=101
68940 Par ch=8 c=11 v=100
69000 Par ch=8 c=11 v=99
69060 Par ch=8 c=11 v=98
69090 Par ch=8 c=11 v=97
69120 Off ch=8 n=73 v=64
69120 On ch=8 n=70 v=88
69120 Par ch=8 c=11 v=96
69300 Par ch=8 c=11 v=95
69360 Par ch=8 c=11 v=94
69420 Par ch=8 c=11 v=93
69450 Par ch=8 c=11 v=92
69480 Par ch=8 c=11 v=91
69510 Par ch=8 c=11 v=90
69540 Par ch=8 c=11 v=89
69570 Par ch=8 c=11 v=88
69600 Par ch=8 c=11 v=87
69630 Par ch=8 c=11 v=86
69660 Par ch=8 c=11 v=85
69690 Par ch=8 c=11 v=83
69720 Par ch=8 c=11 v=82
69750 Par ch=8 c=11 v=81
69780 Par ch=8 c=11 v=79
69810 Par ch=8 c=11 v=77
69840 Par ch=8 c=11 v=76
69870 Par ch=8 c=11 v=74
69900 Par ch=8 c=11 v=72
69904 Off ch=8 n=70 v=64
69930 Par ch=8 c=11 v=70
69960 Par ch=8 c=11 v=68
69984 Par ch=8 c=11 v=66
70032 Par ch=8 c=11 v=116
70048 On ch=8 n=58 v=88
70080 On ch=8 n=63 v=88
70122 Par ch=8 c=11 v=115
70152 Par ch=8 c=11 v=113
70182 Par ch=8 c=11 v=112
70212 Par ch=8 c=11 v=110
70242 Par ch=8 c=11 v=107
70272 Par ch=8 c=11 v=104
70274 Par ch=8 c=11 v=101
70288 Off ch=8 n=58 v=64
70304 Par ch=8 c=11 v=100
70334 Par ch=8 c=11 v=99
70364 Par ch=8 c=11 v=97
70394 Par ch=8 c=11 v=96
70416 Par ch=8 c=11 v=94
70512 Par ch=8 c=11 v=94
70692 Par ch=8 c=11 v=95
70752 Par ch=8 c=11 v=96
70812 Par ch=8 c=11 v=97
70872 Par ch=8 c=11 v=98
70902 Par ch=8 c=11 v=99
70932 Par ch=8 c=11 v=100
70962 Par ch=8 c=11 v=101
70992 Par ch=8 c=11 v=102
71008 Par ch=8 c=11 v=103
71040 On ch=8 n=70 v=88
71088 Off ch=8 n=63 v=64
71232 Par ch=8 c=11 v=103
71520 Off ch=8 n=70 v=64
71520 On ch=8 n=68 v=88
71802 Par ch=8 c=11 v=102
71840 Off ch=8 n=68 v=64
72000 On ch=8 n=66 v=88
72042 Par ch=8 c=11 v=101
72222 Par ch=8 c=11 v=100
72288 Off ch=8 n=66 v=64
72372 Par ch=8 c=11 v=99
72480 On ch=8 n=65 v=88
72522 Par ch=8 c=11 v=98
72642 Par ch=8 c=11 v=97
72732 Par ch=8 c=11 v=96
72784 Off ch=8 n=65 v=64
72832 Par ch=8 c=11 v=95
72960 On ch=8 n=63 v=88
72960 Par ch=8 c=11 v=105
73050 Par ch=8 c=11 v=104
73080 Par ch=8 c=11 v=103
73110 Par ch=8 c=11 v=102
73140 Par ch=8 c=11 v=100
73170 Par ch=8 c=11 v=99
73200 Par ch=8 c=11 v=96
73296 Par ch=8 c=11 v=95
73440 Off ch=8 n=63 v=64
73440 On ch=8 n=65 v=88
73626 Par ch=8 c=11 v=96
73746 Par ch=8 c=11 v=97
73776 Off ch=8 n=65 v=64
73836 Par ch=8 c=11 v=98
73920 On ch=8 n=66 v=88
73926 Par ch=8 c=11 v=99
74016 Par ch=8 c=11 v=100
74076 Par ch=8 c=11 v=101
74136 Par ch=8 c=11 v=102
74144 Off ch=8 n=66 v=64
74196 Par ch=8 c=11 v=103
74256 Par ch=8 c=11 v=104
74286 Par ch=8 c=11 v=105
74346 Par ch=8 c=11 v=106
74376 Par ch=8 c=11 v=107
74400 On ch=8 n=68 v=88
74436 Par ch=8 c=11 v=108
74466 Par ch=8 c=11 v=109
74526 Par ch=8 c=11 v=110
74556 Par ch=8 c=11 v=111
74576 Off ch=8 n=68 v=64
74586 Par ch=8 c=11 v=112
74616 Par ch=8 c=11 v=113
74688 Par ch=8 c=11 v=105
74864 Par ch=8 c=11 v=100
74880 On ch=8 n=70 v=88
74904 Par ch=8 c=11 v=95
74934 Par ch=8 c=11 v=96
74964 Par ch=8 c=11 v=97
74994 Par ch=8 c=11 v=98
75024 Par ch=8 c=11 v=99
75054 Par ch=8 c=11 v=100
75114 Par ch=8 c=11 v=101
75174 Par ch=8 c=11 v=102
75234 Par ch=8 c=11 v=103
75294 Par ch=8 c=11 v=104
75792 Par ch=8 c=11 v=104
75840 On ch=8 n=68 v=88
75888 Off ch=8 n=70 v=64
76062 Par ch=8 c=11 v=103
76144 Off ch=8 n=68 v=64
76152 Par ch=8 c=11 v=102
76242 Par ch=8 c=11 v=101
76302 Par ch=8 c=11 v=100
76320 On ch=8 n=66 v=88
76362 Par ch=8 c=11 v=99
76422 Par ch=8 c=11 v=98
76452 Par ch=8 c=11 v=97
76512 Par ch=8 c=11 v=96
76542 Par ch=8 c=11 v=95
76602 Par ch=8 c=11 v=94
76608 Off ch=8 n=66 v=64
76632 Par ch=8 c=11 v=93
76656 Par ch=8 c=11 v=92
76800 On ch=8 n=65 v=88
76800 Par ch=8 c=11 v=94
77280 On ch=8 n=63 v=88
77360 Off ch=8 n=65 v=64
77430 Par ch=8 c=11 v=95
77568 Off ch=8 n=63 v=64
77670 Par ch=8 c=11 v=96
77760 On ch=8 n=65 v=88
77850 Par ch=8 c=11 v=97
78016 Off ch=8 n=65 v=64
78030 Par ch=8 c=11 v=98
78150 Par ch=8 c=11 v=99
78240 On ch=8 n=66 v=88
78300 Par ch=8 c=11 v=100
78420 Par ch=8 c=11 v=101
78510 Par ch=8 c=11 v=102
78560 On ch=8 n=65 v=88
78608 Off ch=8 n=66 v=64
78608 Par ch=8 c=11 v=103
78672 Par ch=8 c=11 v=102
78768 On ch=8 n=66 v=88
78816 Off ch=8 n=65 v=64
79024 On ch=8 n=65 v=88
79056 Off ch=8 n=66 v=64
79200 On ch=8 n=63 v=88
79242 Par ch=8 c=11 v=101
79264 Off ch=8 n=65 v=64
79452 Par ch=8 c=11 v=100
79504 Off ch=8 n=63 v=64
79632 Par ch=8 c=11 v=99
79680 On ch=8 n=62 v=88
79782 Par ch=8 c=11 v=98
79902 Par ch=8 c=11 v=97
80022 Par ch=8 c=11 v=96
80064 Par ch=8 c=11 v=96
80094 Par ch=8 c=11 v=97
80124 Par ch=8 c=11 v=98
80160 On ch=8 n=65 v=88
80184 Par ch=8 c=11 v=99
80192 Off ch=8 n=62 v=64
80274 Par ch=8 c=11 v=100
80364 Par ch=8 c=11 v=101
80416 Off ch=8 n=65 v=64
80640 On ch=8 n=63 v=88
80640 Par ch=8 c=11 v=101
81030 Par ch=8 c=11 v=100
81120 On ch=8 n=65 v=88
81210 Par ch=8 c=11 v=99
81216 Off ch=8 n=63 v=64
81330 Par ch=8 c=11 v=98
81420 Par ch=8 c=11 v=97
81472 Off ch=8 n=65 v=64
81510 Par ch=8 c=11 v=96
81600 On ch=8 n=66 v=88
81600 Par ch=8 c=11 v=95
81660 Par ch=8 c=11 v=94
81750 Par ch=8 c=11 v=93
81792 Par ch=8 c=11 v=92
81904 Off ch=8 n=66 v=64
82050 Par ch=8 c=11 v=93
82080 On ch=8 n=68 v=88
82160 Par ch=8 c=11 v=94
82352 Off ch=8 n=68 v=64
82460 Par ch=8 c=11 v=95
82560 On ch=8 n=70 v=88
82580 Par ch=8 c=11 v=96
82670 Par ch=8 c=11 v=97
82730 Par ch=8 c=11 v=98
82820 Par ch=8 c=11 v=99
82880 Par ch=8 c=11 v=100
82910 Par ch=8 c=11 v=101
82970 Par ch=8 c=11 v=102
83030 Par ch=8 c=11 v=103
83060 Par ch=8 c=11 v=104
83120 Par ch=8 c=11 v=105
83150 Par ch=8 c=11 v=106
83200 Par ch=8 c=11 v=105
83230 Par ch=8 c=11 v=106
83260 Par ch=8 c=11 v=107
83350 Par ch=8 c=11 v=108
83456 On ch=8 n=63 v=88
83520 On ch=8 n=75 v=88
83520 Par ch=8 c=11 v=107
83552 Off ch=8 n=70 v=64
83696 Off ch=8 n=63 v=64
83820 Par ch=8 c=11 v=106
83940 Par ch=8 c=11 v=105
84000 Off ch=8 n=75 v=64
84000 On ch=8 n=73 v=88
84030 Par ch=8 c=11 v=104
84120 Par ch=8 c=11 v=103
84180 Par ch=8 c=11 v=102
84240 Par ch=8 c=11 v=101
84300 Par ch=8 c=11 v=100
84360 Par ch=8 c=11 v=99
84420 Par ch=8 c=11 v=98
84450 Par ch=8 c=11 v=97
84480 Off ch=8 n=73 v=64
84480 On ch=8 n=70 v=88
84480 Par ch=8 c=11 v=100
84660 Par ch=8 c=11 v=99
84720 Par ch=8 c=11 v=98
84750 Par ch=8 c=11 v=97
84810 Par ch=8 c=11 v=96
84840 Par ch=8 c=11 v=95
84870 Par ch=8 c=11 v=94
84900 Par ch=8 c=11 v=93
84930 Par ch=8 c=11 v=92
84960 Par ch=8 c=11 v=91
84990 Par ch=8 c=11 v=89
85020 Par ch=8 c=11 v=88
85050 Par ch=8 c=11 v=87
85080 Par ch=8 c=11 v=85
85110 Par ch=8 c=11 v=84
85140 Par ch=8 c=11 v=82
85170 Par ch=8 c=11 v=80
85200 Par ch=8 c=11 v=78
85230 Par ch=8 c=11 v=77
85260 Par ch=8 c=11 v=75
85264 Off ch=8 n=70 v=64
85290 Par ch=8 c=11 v=73
85320 Par ch=8 c=11 v=71
85392 Par ch=8 c=11 v=118
85408 On ch=8 n=58 v=88
85440 On ch=8 n=63 v=88
85452 Par ch=8 c=11 v=117
85482 Par ch=8 c=11 v=115
85512 Par ch=8 c=11 v=113
85542 Par ch=8 c=11 v=110
85572 Par ch=8 c=11 v=106
85584 Par ch=8 c=11 v=104
85604 Par ch=8 c=11 v=102
85634 Par ch=8 c=11 v=101
85648 Off ch=8 n=58 v=64
85664 Par ch=8 c=11 v=100
85694 Par ch=8 c=11 v=99
85724 Par ch=8 c=11 v=97
85754 Par ch=8 c=11 v=96
85776 Par ch=8 c=11 v=94
85872 Par ch=8 c=11 v=94
86052 Par ch=8 c=11 v=95
86112 Par ch=8 c=11 v=96
86172 Par ch=8 c=11 v=97
86232 Par ch=8 c=11 v=98
86262 Par ch=8 c=11 v=99
86292 Par ch=8 c=11 v=100
86322 Par ch=8 c=11 v=101
86352 Par ch=8 c=11 v=102
86368 Par ch=8 c=11 v=103
86400 On ch=8 n=70 v=88
86448 Off ch=8 n=63 v=64
86592 Par ch=8 c=11 v=103
86880 Off ch=8 n=70 v=64
86880 On ch=8 n=68 v=88
87162 Par ch=8 c=11 v=102
87200 Off ch=8 n=68 v=64
87360 On ch=8 n=66 v=88
87402 Par ch=8 c=11 v=101
87582 Par ch=8 c=11 v=100
87648 Off ch=8 n=66 v=64
87732 Par ch=8 c=11 v=99
87840 On ch=8 n=65 v=88
87882 Par ch=8 c=11 v=98
88002 Par ch=8 c=11 v=97
88092 Par ch=8 c=11 v=96
88144 Off ch=8 n=65 v=64
88192 Par ch=8 c=11 v=95
88320 On ch=8 n=63 v=88
88320 Par ch=8 c=11 v=105
88410 Par ch=8 c=11 v=104
88440 Par ch=8 c=11 v=103
88470 Par ch=8 c=11 v=102
88500 Par ch=8 c=11 v=100
88530 Par ch=8 c=11 v=99
88560 Par ch=8 c=11 v=96
88800 Off ch=8 n=63 v=64
88800 On ch=8 n=65 v=88
88890 Par ch=8 c=11 v=96
89100 Par ch=8 c=11 v=97
89136 Off ch=8 n=65 v=64
89280 On ch=8 n=66 v=88
89280 Par ch=8 c=11 v=98
89430 Par ch=8 c=11 v=99
89504 Off ch=8 n=66 v=64
89550 Par ch=8 c=11 v=100
89670 Par ch=8 c=11 v=101
89760 On ch=8 n=68 v=88
89790 Par ch=8 c=11 v=102
89880 Par ch=8 c=11 v=103
89936 Off ch=8 n=68 v=64
89970 Par ch=8 c=11 v=104
90048 Par ch=8 c=11 v=105
90224 Par ch=8 c=11 v=100
90240 On ch=8 n=70 v=88
90464 Par ch=8 c=11 v=101
90554 Par ch=8 c=11 v=102
90614 Par ch=8 c=11 v=103
90674 Par ch=8 c=11 v=104
90704 Par ch=8 c=11 v=105
91152 Par ch=8 c=11 v=104
91200 On ch=8 n=68 v=88
91248 Off ch=8 n=70 v=64
91422 Par ch=8 c=11 v=103
91504 Off ch=8 n=68 v=64
91512 Par ch=8 c=11 v=102
91602 Par ch=8 c=11 v=101
91662 Par ch=8 c=11 v=100
91680 On ch=8 n=66 v=88
91722 Par ch=8 c=11 v=99
91782 Par ch=8 c=11 v=98
91812 Par ch=8 c=11 v=97
91872 Par ch=8 c=11 v=96
91902 Par ch=8 c=11 v=95
91962 Par ch=8 c=11 v=94
91968 Off ch=8 n=66 v=64
91992 Par ch=8 c=11 v=93
92016 Par ch=8 c=11 v=92
92160 On ch=8 n=65 v=88
92160 On ch=8 n=58 v=88
92160 Par ch=8 c=11 v=99
92400 Off ch=8 n=58 v=64
92400 Off ch=8 n=65 v=64
93030 Par ch=8 c=11 v=100
93120 On ch=8 n=66 v=88
93120 On ch=8 n=58 v=88
93360 Off ch=8 n=58 v=64
93360 Off ch=8 n=66 v=64
93390 Par ch=8 c=11 v=101
93660 Par ch=8 c=11 v=102
93900 Par ch=8 c=11 v=103
94080 On ch=8 n=68 v=88
94080 On ch=8 n=58 v=88
94110 Par ch=8 c=11 v=104
94290 Par ch=8 c=11 v=105
94320 Off ch=8 n=58 v=64
94320 Off ch=8 n=68 v=64
94440 Par ch=8 c=11 v=106
94620 Par ch=8 c=11 v=107
94740 Par ch=8 c=11 v=108
94890 Par ch=8 c=11 v=109
95040 On ch=8 n=70 v=88
95040 On ch=8 n=58 v=88
95040 Par ch=8 c=11 v=110
95160 Par ch=8 c=11 v=111
95280 Off ch=8 n=58 v=64
95280 Off ch=8 n=70 v=64
95280 Par ch=8 c=11 v=112
95400 Par ch=8 c=11 v=113
95520 Par ch=8 c=11 v=114
95610 Par ch=8 c=11 v=115
95730 Par ch=8 c=11 v=116
95808 Par ch=8 c=11 v=117
96000 On ch=8 n=66 v=88
96000 Par ch=8 c=11 v=127
96000 Par ch=8 c=7 v=97
96240 Par ch=8 c=11 v=126
96360 Par ch=8 c=11 v=125
96420 Par ch=8 c=11 v=124
96480 On ch=8 n=65 v=88
96480 Par ch=8 c=11 v=123
96540 Par ch=8 c=11 v=122
96576 Off ch=8 n=66 v=64
96600 Par ch=8 c=11 v=121
96660 Par ch=8 c=11 v=120
96690 Par ch=8 c=11 v=119
96720 Par ch=8 c=11 v=118
96780 Par ch=8 c=11 v=117
96810 Par ch=8 c=11 v=116
96832 Off ch=8 n=65 v=64
96840 Par ch=8 c=11 v=115
96870 Par ch=8 c=11 v=114
96900 Par ch=8 c=11 v=113
96930 Par ch=8 c=11 v=112
96960 On ch=8 n=63 v=88
96960 Par ch=8 c=11 v=111
97140 Par ch=8 c=11 v=110
97264 Off ch=8 n=63 v=64
97410 Par ch=8 c=11 v=111
97440 On ch=8 n=65 v=88
97520 Par ch=8 c=11 v=112
97608 Par ch=8 c=11 v=113
97712 Off ch=8 n=65 v=64
97758 Par ch=8 c=11 v=114
97818 Par ch=8 c=11 v=115
97878 Par ch=8 c=11 v=116
97908 Par ch=8 c=11 v=117
97920 On ch=8 n=66 v=88
97938 Par ch=8 c=11 v=118
97968 Par ch=8 c=11 v=119
97998 Par ch=8 c=11 v=120
98028 Par ch=8 c=11 v=122
98058 Par ch=8 c=11 v=123
98064 Par ch=8 c=11 v=124
98094 Par ch=8 c=11 v=123
98154 Par ch=8 c=11 v=122
98244 Par ch=8 c=11 v=121
98334 Par ch=8 c=11 v=120
98400 On ch=8 n=58 v=88
98424 Par ch=8 c=11 v=119
98432 Off ch=8 n=66 v=64
98544 Par ch=8 c=11 v=118
98664 Par ch=8 c=11 v=117
98784 Par ch=8 c=11 v=116
98880 Off ch=8 n=58 v=64
98880 On ch=8 n=63 v=88
98934 Par ch=8 c=11 v=115
99084 Par ch=8 c=11 v=114
99324 Par ch=8 c=11 v=113
99360 Off ch=8 n=63 v=64
99360 On ch=8 n=65 v=88
99840 Off ch=8 n=65 v=64
99840 On ch=8 n=66 v=88
99840 Par ch=8 c=11 v=110
99960 Par ch=8 c=11 v=109
100020 Par ch=8 c=11 v=108
100050 Par ch=8 c=11 v=107
100080 Par ch=8 c=11 v=105
100110 Par ch=8 c=11 v=104
100140 Par ch=8 c=11 v=103
100170 Par ch=8 c=11 v=101
100200 Par ch=8 c=11 v=99
100230 Par ch=8 c=11 v=97
100260 Par ch=8 c=11 v=95
100290 Par ch=8 c=11 v=93
100320 Par ch=8 c=11 v=90
100350 Par ch=8 c=11 v=87
100380 Par ch=8 c=11 v=85
100410 Par ch=8 c=11 v=82
100440 Par ch=8 c=11 v=79
100470 Par ch=8 c=11 v=75
100500 Par ch=8 c=11 v=72
100530 Par ch=8 c=11 v=68
100560 Par ch=8 c=11 v=65
100576 Par ch=8 c=11 v=62
100672 Off ch=8 n=66 v=64
100768 On ch=8 n=58 v=88
100784 Par ch=8 c=11 v=122
100800 On ch=8 n=70 v=88
100904 Par ch=8 c=11 v=121
100964 Par ch=8 c=11 v=120
100994 Par ch=8 c=11 v=119
101008 Off ch=8 n=58 v=64
101024 Par ch=8 c=11 v=118
101054 Par ch=8 c=11 v=117
101084 Par ch=8 c=11 v=115
101114 Par ch=8 c=11 v=114
101136 Par ch=8 c=11 v=112
101232 Par ch=8 c=11 v=112
101412 Par ch=8 c=11 v=113
101472 Par ch=8 c=11 v=114
101532 Par ch=8 c=11 v=115
101592 Par ch=8 c=11 v=116
101622 Par ch=8 c=11 v=117
101652 Par ch=8 c=11 v=118
101682 Par ch=8 c=11 v=119
101712 Off ch=8 n=70 v=64
101712 Par ch=8 c=11 v=120
101728 Par ch=8 c=11 v=121
101760 On ch=8 n=70 v=88
101952 Par ch=8 c=11 v=121
102240 Off ch=8 n=70 v=64
102240 On ch=8 n=71 v=88
102522 Par ch=8 c=11 v=120
102560 Off ch=8 n=71 v=64
102720 On ch=8 n=70 v=88
102762 Par ch=8 c=11 v=119
102942 Par ch=8 c=11 v=118
103008 Off ch=8 n=70 v=64
103092 Par ch=8 c=11 v=117
103200 On ch=8 n=68 v=88
103242 Par ch=8 c=11 v=116
103362 Par ch=8 c=11 v=115
103452 Par ch=8 c=11 v=114
103504 Off ch=8 n=68 v=64
103552 Par ch=8 c=11 v=113
103680 On ch=8 n=66 v=88
103680 Par ch=8 c=11 v=123
103770 Par ch=8 c=11 v=122
103800 Par ch=8 c=11 v=121
103830 Par ch=8 c=11 v=120
103860 Par ch=8 c=11 v=118
103890 Par ch=8 c=11 v=117
103920 Par ch=8 c=11 v=114
104160 Off ch=8 n=66 v=64
104160 On ch=8 n=65 v=88
104250 Par ch=8 c=11 v=114
104460 Par ch=8 c=11 v=115
104496 Off ch=8 n=65 v=64
104640 On ch=8 n=63 v=88
104640 Par ch=8 c=11 v=116
104790 Par ch=8 c=11 v=117
104864 Off ch=8 n=63 v=64
104910 Par ch=8 c=11 v=118
105030 Par ch=8 c=11 v=119
105120 On ch=8 n=65 v=88
105150 Par ch=8 c=11 v=120
105240 Par ch=8 c=11 v=121
105296 Off ch=8 n=65 v=64
105330 Par ch=8 c=11 v=122
105408 Par ch=8 c=11 v=123
105584 Par ch=8 c=11 v=118
105600 On ch=8 n=66 v=88
105824 Par ch=8 c=11 v=119
105914 Par ch=8 c=11 v=120
105974 Par ch=8 c=11 v=121
106034 Par ch=8 c=11 v=122
106064 Par ch=8 c=11 v=123
106512 Par ch=8 c=11 v=122
106560 On ch=8 n=68 v=88
106608 Off ch=8 n=66 v=64
106782 Par ch=8 c=11 v=121
106864 Off ch=8 n=68 v=64
106872 Par ch=8 c=11 v=120
106962 Par ch=8 c=11 v=119
107022 Par ch=8 c=11 v=118
107040 On ch=8 n=70 v=88
107082 Par ch=8 c=11 v=117
107142 Par ch=8 c=11 v=116
107172 Par ch=8 c=11 v=115
107232 Par ch=8 c=11 v=114
107262 Par ch=8 c=11 v=113
107322 Par ch=8 c=11 v=112
107328 Off ch=8 n=70 v=64
107352 Par ch=8 c=11 v=111
107376 Par ch=8 c=11 v=110
107520 On ch=8 n=68 v=88
107520 Par ch=8 c=11 v=112
108000 On ch=8 n=66 v=88
108080 Off ch=8 n=68 v=64
108150 Par ch=8 c=11 v=113
108288 Off ch=8 n=66 v=64
108390 Par ch=8 c=11 v=114
108480 On ch=8 n=68 v=88
108570 Par ch=8 c=11 v=115
108736 Off ch=8 n=68 v=64
108750 Par ch=8 c=11 v=116
108870 Par ch=8 c=11 v=117
108960 On ch=8 n=70 v=88
109020 Par ch=8 c=11 v=118
109140 Par ch=8 c=11 v=119
109230 Par ch=8 c=11 v=120
109280 On ch=8 n=68 v=88
109296 Off ch=8 n=70 v=64
109328 Par ch=8 c=11 v=121
109392 Par ch=8 c=11 v=120
109488 On ch=8 n=70 v=88
109536 Off ch=8 n=68 v=64
109744 On ch=8 n=68 v=88
109776 Off ch=8 n=70 v=64
109920 On ch=8 n=66 v=88
109962 Par ch=8 c=11 v=119
109984 Off ch=8 n=68 v=64
110172 Par ch=8 c=11 v=118
110224 Off ch=8 n=66 v=64
110352 Par ch=8 c=11 v=117
110400 On ch=8 n=65 v=88
110502 Par ch=8 c=11 v=116
110622 Par ch=8 c=11 v=115
110742 Par ch=8 c=11 v=114
110784 Par ch=8 c=11 v=114
110814 Par ch=8 c=11 v=115
110844 Par ch=8 c=11 v=116
110880 On ch=8 n=68 v=88
110904 Par ch=8 c=11 v=117
110976 Off ch=8 n=65 v=64
110994 Par ch=8 c=11 v=118
111084 Par ch=8 c=11 v=119
111136 Off ch=8 n=68 v=64
111360 Par ch=8 c=11 v=113
111360 On ch=8 n=66 v=88
111600 Par ch=8 c=11 v=112
111720 Par ch=8 c=11 v=111
111780 Par ch=8 c=11 v=110
111840 Par ch=8 c=11 v=109
111840 On ch=8 n=65 v=88
111900 Par ch=8 c=11 v=108
111936 Off ch=8 n=66 v=64
111960 Par ch=8 c=11 v=107
112020 Par ch=8 c=11 v=106
112050 Par ch=8 c=11 v=105
112080 Par ch=8 c=11 v=104
112140 Par ch=8 c=11 v=103
112170 Par ch=8 c=11 v=102
112192 Off ch=8 n=65 v=64
112200 Par ch=8 c=11 v=101
112230 Par ch=8 c=11 v=100
112260 Par ch=8 c=11 v=99
112290 Par ch=8 c=11 v=98
112320 Par ch=8 c=11 v=97
112320 On ch=8 n=63 v=88
112500 Par ch=8 c=11 v=96
112624 Off ch=8 n=63 v=64
112770 Par ch=8 c=11 v=97
112800 On ch=8 n=65 v=88
112880 Par ch=8 c=11 v=98
113060 Par ch=8 c=11 v=99
113072 Off ch=8 n=65 v=64
113120 Par ch=8 c=11 v=98
113240 Par ch=8 c=11 v=97
113280 On ch=8 n=66 v=88
113420 Par ch=8 c=11 v=96
113540 Par ch=8 c=11 v=95
113720 Par ch=8 c=11 v=94
113760 On ch=8 n=58 v=88
113792 Off ch=8 n=66 v=64
113840 Par ch=8 c=11 v=93
113980 Par ch=8 c=11 v=93
114040 Par ch=8 c=11 v=95
114100 Par ch=8 c=11 v=98
114160 Par ch=8 c=11 v=101
114200 Par ch=8 c=11 v=103
114240 Off ch=8 n=58 v=64
114240 Par ch=8 c=11 v=105
114240 On ch=8 n=63 v=88
114270 Par ch=8 c=11 v=106
114500 Par ch=8 c=11 v=108
114720 Off ch=8 n=63 v=64
114720 On ch=8 n=65 v=88
115100 Par ch=8 c=11 v=109
115200 Off ch=8 n=65 v=64
115200 Par ch=8 c=11 v=110
115200 On ch=8 n=66 v=88
115350 Par ch=8 c=11 v=109
115380 Par ch=8 c=11 v=108
115440 Par ch=8 c=11 v=107
115470 Par ch=8 c=11 v=106
115500 Par ch=8 c=11 v=104
115530 Par ch=8 c=11 v=103
115552 Off ch=8 n=66 v=64
115560 Par ch=8 c=11 v=102
115590 Par ch=8 c=11 v=100
115620 Par ch=8 c=11 v=99
115650 Par ch=8 c=11 v=97
115680 Par ch=8 c=11 v=95
115710 Par ch=8 c=11 v=93
115740 Par ch=8 c=11 v=91
115770 Par ch=8 c=11 v=88
115800 Par ch=8 c=11 v=86
115830 Par ch=8 c=11 v=84
115860 Par ch=8 c=11 v=81
115890 Par ch=8 c=11 v=78
115920 Par ch=8 c=11 v=75
115950 Par ch=8 c=11 v=72
115968 Par ch=8 c=11 v=70
116128 On ch=8 n=58 v=88
116144 Par ch=8 c=11 v=108
116160 On ch=8 n=70 v=88
116264 Par ch=8 c=11 v=107
116324 Par ch=8 c=11 v=106
116354 Par ch=8 c=11 v=105
116368 Off ch=8 n=58 v=64
116384 Par ch=8 c=11 v=104
116414 Par ch=8 c=11 v=103
116444 Par ch=8 c=11 v=101
116474 Par ch=8 c=11 v=100
116496 Par ch=8 c=11 v=98
116592 Par ch=8 c=11 v=98
116772 Par ch=8 c=11 v=99
116832 Par ch=8 c=11 v=100
116892 Par ch=8 c=11 v=101
116952 Par ch=8 c=11 v=102
116982 Par ch=8 c=11 v=103
117012 Par ch=8 c=11 v=104
117042 Par ch=8 c=11 v=105
117072 Off ch=8 n=70 v=64
117072 Par ch=8 c=11 v=106
117088 Par ch=8 c=11 v=107
117120 On ch=8 n=70 v=88
117312 Par ch=8 c=11 v=107
117600 Off ch=8 n=70 v=64
117600 On ch=8 n=71 v=88
117882 Par ch=8 c=11 v=106
117920 Off ch=8 n=71 v=64
118080 On ch=8 n=70 v=88
118122 Par ch=8 c=11 v=105
118302 Par ch=8 c=11 v=104
118368 Off ch=8 n=70 v=64
118452 Par ch=8 c=11 v=103
118560 On ch=8 n=68 v=88
118602 Par ch=8 c=11 v=102
118722 Par ch=8 c=11 v=101
118812 Par ch=8 c=11 v=100
118864 Off ch=8 n=68 v=64
118912 Par ch=8 c=11 v=99
119040 Par ch=8 c=11 v=109
119040 On ch=8 n=66 v=88
119130 Par ch=8 c=11 v=108
119160 Par ch=8 c=11 v=107
119190 Par ch=8 c=11 v=106
119220 Par ch=8 c=11 v=104
119250 Par ch=8 c=11 v=103
119280 Par ch=8 c=11 v=100
119520 Off ch=8 n=66 v=64
119520 On ch=8 n=65 v=88
119610 Par ch=8 c=11 v=100
119820 Par ch=8 c=11 v=101
119856 Off ch=8 n=65 v=64
120000 Par ch=8 c=11 v=102
120000 On ch=8 n=63 v=88
120150 Par ch=8 c=11 v=103
120224 Off ch=8 n=63 v=64
120270 Par ch=8 c=11 v=104
120390 Par ch=8 c=11 v=105
120480 On ch=8 n=65 v=88
120510 Par ch=8 c=11 v=106
120600 Par ch=8 c=11 v=107
120656 Off ch=8 n=65 v=64
120690 Par ch=8 c=11 v=108
120768 Par ch=8 c=11 v=109
120944 Par ch=8 c=11 v=104
120960 On ch=8 n=66 v=88
121184 Par ch=8 c=11 v=105
121274 Par ch=8 c=11 v=106
121334 Par ch=8 c=11 v=107
121394 Par ch=8 c=11 v=108
121424 Par ch=8 c=11 v=109
121872 Par ch=8 c=11 v=108
121920 On ch=8 n=68 v=88
121968 Off ch=8 n=66 v=64
122142 Par ch=8 c=11 v=107
122224 Off ch=8 n=68 v=64
122232 Par ch=8 c=11 v=106
122322 Par ch=8 c=11 v=105
122382 Par ch=8 c=11 v=104
122400 On ch=8 n=70 v=88
122442 Par ch=8 c=11 v=103
122502 Par ch=8 c=11 v=102
122532 Par ch=8 c=11 v=101
122592 Par ch=8 c=11 v=100
122622 Par ch=8 c=11 v=99
122682 Par ch=8 c=11 v=98
122688 Off ch=8 n=70 v=64
122712 Par ch=8 c=11 v=97
122736 Par ch=8 c=11 v=96
122880 On ch=8 n=68 v=88
122880 Par ch=8 c=11 v=112
123120 Off ch=8 n=68 v=64
123312 On ch=8 n=58 v=88
123552 Off ch=8 n=58 v=64
123840 On ch=8 n=66 v=88
124080 Off ch=8 n=66 v=64
124080 Par ch=8 c=11 v=113
124252 On ch=8 n=58 v=88
124492 Off ch=8 n=58 v=64
124560 Par ch=8 c=11 v=114
124800 On ch=8 n=65 v=88
124920 Par ch=8 c=11 v=115
125040 Off ch=8 n=65 v=64
125232 On ch=8 n=58 v=88
125250 Par ch=8 c=11 v=116
125472 Off ch=8 n=58 v=64
125520 Par ch=8 c=11 v=117
125692 On ch=8 n=58 v=88
125736 Par ch=8 c=11 v=105
125760 On ch=8 n=62 v=88
126000 Off ch=8 n=62 v=64
126096 Par ch=8 c=11 v=106
126246 Par ch=8 c=11 v=107
126272 Off ch=8 n=58 v=64
126366 Par ch=8 c=11 v=108
126456 Par ch=8 c=11 v=109
126516 Par ch=8 c=11 v=110
126606 Par ch=8 c=11 v=111
126666 Par ch=8 c=11 v=112
126720 On ch=8 n=73 v=88
127200 On ch=8 n=75 v=88
127220 Off ch=8 n=73 v=64
127260 Par ch=8 c=11 v=107
127440 Par ch=8 c=11 v=106
127460 Off ch=8 n=75 v=64
127620 Par ch=8 c=11 v=105
127680 On ch=8 n=70 v=88
127740 Par ch=8 c=11 v=104
127860 Par ch=8 c=11 v=103
127940 Off ch=8 n=70 v=64
127980 Par ch=8 c=11 v=102
128100 Par ch=8 c=11 v=101
128140 Par ch=8 c=11 v=100
128160 On ch=8 n=68 v=88
128220 Par ch=8 c=11 v=100
128420 Off ch=8 n=68 v=64
128460 Par ch=8 c=11 v=101
128540 Par ch=8 c=11 v=102
128620 Par ch=8 c=11 v=105
128640 On ch=8 n=70 v=88
128800 Par ch=8 c=11 v=104
128860 Par ch=8 c=11 v=103
128920 Par ch=8 c=11 v=102
128980 Par ch=8 c=11 v=101
129040 Par ch=8 c=11 v=99
129100 Par ch=8 c=11 v=97
129160 Par ch=8 c=11 v=95
129220 Par ch=8 c=11 v=92
129280 Par ch=8 c=11 v=89
129340 Par ch=8 c=11 v=86
129400 Par ch=8 c=11 v=83
129420 Off ch=8 n=70 v=64
129460 Par ch=8 c=11 v=79
129560 Par ch=8 c=11 v=103
129600 On ch=8 n=68 v=88
129860 Par ch=8 c=11 v=102
129920 Par ch=8 c=11 v=101
129980 Par ch=8 c=11 v=100
130020 Par ch=8 c=11 v=101
130080 On ch=8 n=70 v=88
130140 Off ch=8 n=68 v=64
130140 Par ch=8 c=11 v=102
130260 Par ch=8 c=11 v=103
130340 Off ch=8 n=70 v=64
130380 Par ch=8 c=11 v=104
130420 Par ch=8 c=11 v=105
130540 Par ch=8 c=11 v=108
130560 On ch=8 n=73 v=88
131040 On ch=8 n=75 v=88
131080 Off ch=8 n=73 v=64
131260 Par ch=8 c=11 v=107
131300 Off ch=8 n=75 v=64
131500 Par ch=8 c=11 v=106
131520 On ch=8 n=70 v=88
131740 Par ch=8 c=11 v=105
131780 Off ch=8 n=70 v=64
131920 Par ch=8 c=11 v=104
132000 On ch=8 n=68 v=88
132040 Par ch=8 c=11 v=103
132160 Par ch=8 c=11 v=102
132260 Off ch=8 n=68 v=64
132260 Par ch=8 c=11 v=100
132480 On ch=8 n=70 v=88
132500 Par ch=8 c=11 v=93
132560 Par ch=8 c=11 v=92
132620 Par ch=8 c=11 v=91
132640 Par ch=8 c=11 v=90
132740 Par ch=8 c=11 v=90
132860 Par ch=8 c=11 v=91
132980 Par ch=8 c=11 v=92
133040 Par ch=8 c=11 v=93
133160 Par ch=8 c=11 v=94
133220 Par ch=8 c=11 v=95
133280 Par ch=8 c=11 v=96
133340 Par ch=8 c=11 v=97
133400 Par ch=8 c=11 v=98
133420 Par ch=8 c=11 v=99
133440 On ch=8 n=68 v=88
133500 Off ch=8 n=70 v=64
133700 Off ch=8 n=68 v=64
133920 On ch=8 n=70 v=88
134180 Off ch=8 n=70 v=64
134360 Par ch=8 c=11 v=101
134400 On ch=8 n=68 v=88
134880 On ch=8 n=66 v=88
134900 Off ch=8 n=68 v=64
135020 Par ch=8 c=11 v=100
135160 Off ch=8 n=66 v=64
135260 Par ch=8 c=11 v=99
135360 On ch=8 n=65 v=88
135500 Par ch=8 c=11 v=98
135600 Off ch=8 n=65 v=64
135620 Par ch=8 c=11 v=97
135800 Par ch=8 c=11 v=96
135840 On ch=8 n=61 v=88
135900 Par ch=8 c=11 v=95
136020 Par ch=8 c=11 v=97
136180 Off ch=8 n=61 v=64
136200 Par ch=8 c=11 v=98
136260 Par ch=8 c=11 v=100
136280 Par ch=8 c=11 v=101
136320 On ch=8 n=63 v=88
136340 Par ch=8 c=11 v=100
136520 Par ch=8 c=11 v=99
136580 Par ch=8 c=11 v=98
136640 Par ch=8 c=11 v=97
136680 Par ch=8 c=11 v=96
136710 Par ch=8 c=11 v=97
137280 On ch=8 n=61 v=88
137296 Off ch=8 n=63 v=64
137352 Par ch=8 c=11 v=95
137760 On ch=8 n=63 v=88
137780 Off ch=8 n=61 v=64
137922 Par ch=8 c=11 v=96
138020 Off ch=8 n=63 v=64
138144 Par ch=8 c=11 v=97
138220 Par ch=8 c=11 v=99
138240 On ch=8 n=65 v=88
138460 Par ch=8 c=11 v=97
138720 On ch=8 n=66 v=88
138780 Off ch=8 n=65 v=64
138980 Off ch=8 n=66 v=64
139200 On ch=8 n=68 v=88
139300 Par ch=8 c=11 v=96
139420 Off ch=8 n=68 v=64
139600 Par ch=8 c=11 v=95
139680 On ch=8 n=70 v=88
139840 Par ch=8 c=11 v=94
139900 Off ch=8 n=70 v=64
140080 Par ch=8 c=11 v=93
140160 On ch=8 n=63 v=88
140220 Par ch=8 c=11 v=92
140300 Par ch=8 c=11 v=91
140480 Par ch=8 c=11 v=90
140540 Par ch=8 c=11 v=89
140600 Par ch=8 c=11 v=87
140660 Par ch=8 c=11 v=85
140720 Par ch=8 c=11 v=82
140780 Par ch=8 c=11 v=80
140840 Par ch=8 c=11 v=77
140880 Off ch=8 n=63 v=64
140900 Par ch=8 c=11 v=73
140960 Par ch=8 c=11 v=69
141000 Par ch=8 c=11 v=66
141096 Par ch=8 c=11 v=97
141120 On ch=8 n=70 v=88
141380 Off ch=8 n=70 v=64
141426 Par ch=8 c=11 v=98
141546 Par ch=8 c=11 v=99
141600 On ch=8 n=73 v=88
141636 Par ch=8 c=11 v=100
141726 Par ch=8 c=11 v=101
141816 Par ch=8 c=11 v=102
141860 Off ch=8 n=73 v=64
141876 Par ch=8 c=11 v=103
141936 Par ch=8 c=11 v=104
141996 Par ch=8 c=11 v=105
142056 Par ch=8 c=11 v=106
142080 On ch=8 n=73 v=88
142080 Par ch=8 c=11 v=107
142560 On ch=8 n=75 v=88
142580 Off ch=8 n=73 v=64
142620 Par ch=8 c=11 v=107
142800 Par ch=8 c=11 v=106
142820 Off ch=8 n=75 v=64
142980 Par ch=8 c=11 v=105
143040 On ch=8 n=70 v=88
143100 Par ch=8 c=11 v=104
143220 Par ch=8 c=11 v=103
143300 Off ch=8 n=70 v=64
143340 Par ch=8 c=11 v=102
143460 Par ch=8 c=11 v=101
143500 Par ch=8 c=11 v=100
143520 On ch=8 n=68 v=88
143580 Par ch=8 c=11 v=100
143780 Off ch=8 n=68 v=64
143820 Par ch=8 c=11 v=101
143900 Par ch=8 c=11 v=102
143980 Par ch=8 c=11 v=105
144000 On ch=8 n=70 v=88
144160 Par ch=8 c=11 v=104
144220 Par ch=8 c=11 v=103
144280 Par ch=8 c=11 v=102
144340 Par ch=8 c=11 v=101
144400 Par ch=8 c=11 v=99
144460 Par ch=8 c=11 v=97
144520 Par ch=8 c=11 v=95
144580 Par ch=8 c=11 v=92
144640 Par ch=8 c=11 v=89
144700 Par ch=8 c=11 v=86
144760 Par ch=8 c=11 v=83
144780 Off ch=8 n=70 v=64
144820 Par ch=8 c=11 v=79
144920 Par ch=8 c=11 v=103
144960 On ch=8 n=68 v=88
145220 Par ch=8 c=11 v=102
145280 Par ch=8 c=11 v=101
145340 Par ch=8 c=11 v=100
145380 Par ch=8 c=11 v=101
145440 On ch=8 n=70 v=88
145500 Off ch=8 n=68 v=64
145500 Par ch=8 c=11 v=102
145620 Par ch=8 c=11 v=103
145700 Off ch=8 n=70 v=64
145740 Par ch=8 c=11 v=104
145780 Par ch=8 c=11 v=105
145900 Par ch=8 c=11 v=108
145920 On ch=8 n=73 v=88
146400 On ch=8 n=75 v=88
146440 Off ch=8 n=73 v=64
146620 Par ch=8 c=11 v=107
146660 Off ch=8 n=75 v=64
146860 Par ch=8 c=11 v=106
146880 On ch=8 n=70 v=88
147100 Par ch=8 c=11 v=105
147140 Off ch=8 n=70 v=64
147280 Par ch=8 c=11 v=104
147360 On ch=8 n=68 v=88
147400 Par ch=8 c=11 v=103
147520 Par ch=8 c=11 v=102
147620 Off ch=8 n=68 v=64
147620 Par ch=8 c=11 v=100
147840 On ch=8 n=70 v=88
147860 Par ch=8 c=11 v=93
147920 Par ch=8 c=11 v=92
147980 Par ch=8 c=11 v=91
148000 Par ch=8 c=11 v=90
148100 Par ch=8 c=11 v=90
148220 Par ch=8 c=11 v=91
148340 Par ch=8 c=11 v=92
148400 Par ch=8 c=11 v=93
148520 Par ch=8 c=11 v=94
148580 Par ch=8 c=11 v=95
148640 Par ch=8 c=11 v=96
148700 Par ch=8 c=11 v=97
148760 Par ch=8 c=11 v=98
148780 Par ch=8 c=11 v=99
148800 On ch=8 n=68 v=88
148860 Off ch=8 n=70 v=64
149060 Off ch=8 n=68 v=64
149280 On ch=8 n=70 v=88
149540 Off ch=8 n=70 v=64
149720 Par ch=8 c=11 v=101
149760 On ch=8 n=68 v=88
150240 On ch=8 n=66 v=88
150260 Off ch=8 n=68 v=64
150380 Par ch=8 c=11 v=100
150520 Off ch=8 n=66 v=64
150620 Par ch=8 c=11 v=99
150720 On ch=8 n=65 v=88
150860 Par ch=8 c=11 v=98
150960 Off ch=8 n=65 v=64
150980 Par ch=8 c=11 v=97
151160 Par ch=8 c=11 v=96
151200 On ch=8 n=61 v=88
151260 Par ch=8 c=11 v=95
151380 Par ch=8 c=11 v=97
151540 Off ch=8 n=61 v=64
151560 Par ch=8 c=11 v=98
151620 Par ch=8 c=11 v=100
151640 Par ch=8 c=11 v=101
151680 On ch=8 n=63 v=88
151700 Par ch=8 c=11 v=100
151880 Par ch=8 c=11 v=99
151940 Par ch=8 c=11 v=98
152000 Par ch=8 c=11 v=97
152040 Par ch=8 c=11 v=96
152070 Par ch=8 c=11 v=97
152640 On ch=8 n=61 v=88
152656 Off ch=8 n=63 v=64
152712 Par ch=8 c=11 v=95
153120 On ch=8 n=63 v=88
153140 Off ch=8 n=61 v=64
153282 Par ch=8 c=11 v=96
153380 Off ch=8 n=63 v=64
153504 Par ch=8 c=11 v=97
153580 Par ch=8 c=11 v=99
153600 On ch=8 n=65 v=88
153820 Par ch=8 c=11 v=97
154080 On ch=8 n=66 v=88
154140 Off ch=8 n=65 v=64
154340 Off ch=8 n=66 v=64
154560 On ch=8 n=68 v=88
154660 Par ch=8 c=11 v=96
154780 Off ch=8 n=68 v=64
154960 Par ch=8 c=11 v=95
155040 On ch=8 n=70 v=88
155200 Par ch=8 c=11 v=94
155260 Off ch=8 n=70 v=64
155440 Par ch=8 c=11 v=93
155520 On ch=8 n=63 v=88
155580 Par ch=8 c=11 v=92
155660 Par ch=8 c=11 v=91
155840 Par ch=8 c=11 v=90
155900 Par ch=8 c=11 v=89
155960 Par ch=8 c=11 v=87
156020 Par ch=8 c=11 v=85
156080 Par ch=8 c=11 v=82
156140 Par ch=8 c=11 v=80
156200 Par ch=8 c=11 v=77
156240 Off ch=8 n=63 v=64
156260 Par ch=8 c=11 v=73
156320 Par ch=8 c=11 v=69
156360 Par ch=8 c=11 v=66
156480 On ch=8 n=70 v=88
156480 Par ch=8 c=11 v=96
156740 Off ch=8 n=70 v=64
156780 Par ch=8 c=11 v=97
156900 Par ch=8 c=11 v=98
156960 On ch=8 n=73 v=88
157020 Par ch=8 c=11 v=99
157080 Par ch=8 c=11 v=100
157170 Par ch=8 c=11 v=101
157220 Off ch=8 n=73 v=64
157230 Par ch=8 c=11 v=102
157290 Par ch=8 c=11 v=103
157320 Par ch=8 c=11 v=104
157368 Par ch=8 c=11 v=105
157440 On ch=8 n=73 v=88
157440 Par ch=8 c=11 v=108
157920 On ch=8 n=75 v=88
157940 Off ch=8 n=73 v=64
157980 Par ch=8 c=11 v=107
158160 Par ch=8 c=11 v=106
158180 Off ch=8 n=75 v=64
158340 Par ch=8 c=11 v=105
158400 On ch=8 n=70 v=88
158460 Par ch=8 c=11 v=104
158580 Par ch=8 c=11 v=103
158660 Off ch=8 n=70 v=64
158700 Par ch=8 c=11 v=102
158820 Par ch=8 c=11 v=101
158860 Par ch=8 c=11 v=100
158880 On ch=8 n=68 v=88
158940 Par ch=8 c=11 v=100
159140 Off ch=8 n=68 v=64
159180 Par ch=8 c=11 v=101
159260 Par ch=8 c=11 v=102
159340 Par ch=8 c=11 v=105
159360 On ch=8 n=70 v=88
159520 Par ch=8 c=11 v=104
159580 Par ch=8 c=11 v=103
159640 Par ch=8 c=11 v=102
159700 Par ch=8 c=11 v=101
159760 Par ch=8 c=11 v=99
159820 Par ch=8 c=11 v=97
159880 Par ch=8 c=11 v=95
159940 Par ch=8 c=11 v=92
160000 Par ch=8 c=11 v=89
160060 Par ch=8 c=11 v=86
160120 Par ch=8 c=11 v=83
160140 Off ch=8 n=70 v=64
160180 Par ch=8 c=11 v=79
160280 Par ch=8 c=11 v=103
160320 On ch=8 n=68 v=88
160580 Par ch=8 c=11 v=102
160640 Par ch=8 c=11 v=101
160700 Par ch=8 c=11 v=100
160740 Par ch=8 c=11 v=101
160800 On ch=8 n=70 v=88
160860 Off ch=8 n=68 v=64
160860 Par ch=8 c=11 v=102
160980 Par ch=8 c=11 v=103
161060 Off ch=8 n=70 v=64
161100 Par ch=8 c=11 v=104
161140 Par ch=8 c=11 v=105
161260 Par ch=8 c=11 v=108
161280 On ch=8 n=73 v=88
161760 On ch=8 n=75 v=88
161800 Off ch=8 n=73 v=64
161980 Par ch=8 c=11 v=107
162020 Off ch=8 n=75 v=64
162220 Par ch=8 c=11 v=106
162240 On ch=8 n=70 v=88
162460 Par ch=8 c=11 v=105
162500 Off ch=8 n=70 v=64
162640 Par ch=8 c=11 v=104
162720 On ch=8 n=68 v=88
162760 Par ch=8 c=11 v=103
162880 Par ch=8 c=11 v=102
162980 Off ch=8 n=68 v=64
162980 Par ch=8 c=11 v=100
163200 On ch=8 n=70 v=88
163220 Par ch=8 c=11 v=93
163280 Par ch=8 c=11 v=92
163340 Par ch=8 c=11 v=91
163360 Par ch=8 c=11 v=90
163460 Par ch=8 c=11 v=90
163580 Par ch=8 c=11 v=91
163700 Par ch=8 c=11 v=92
163760 Par ch=8 c=11 v=93
163880 Par ch=8 c=11 v=94
163940 Par ch=8 c=11 v=95
164000 Par ch=8 c=11 v=96
164060 Par ch=8 c=11 v=97
164120 Par ch=8 c=11 v=98
164140 Par ch=8 c=11 v=99
164160 On ch=8 n=68 v=88
164220 Off ch=8 n=70 v=64
164420 Off ch=8 n=68 v=64
164640 On ch=8 n=70 v=88
164900 Off ch=8 n=70 v=64
165080 Par ch=8 c=11 v=101
165120 On ch=8 n=68 v=88
165600 On ch=8 n=66 v=88
165620 Off ch=8 n=68 v=64
165740 Par ch=8 c=11 v=100
165880 Off ch=8 n=66 v=64
165980 Par ch=8 c=11 v=99
166080 On ch=8 n=65 v=88
166220 Par ch=8 c=11 v=98
166320 Off ch=8 n=65 v=64
166340 Par ch=8 c=11 v=97
166520 Par ch=8 c=11 v=96
166560 On ch=8 n=61 v=88
166620 Par ch=8 c=11 v=95
166740 Par ch=8 c=11 v=97
166900 Off ch=8 n=61 v=64
166920 Par ch=8 c=11 v=98
166980 Par ch=8 c=11 v=100
167000 Par ch=8 c=11 v=101
167040 On ch=8 n=63 v=88
167060 Par ch=8 c=11 v=100
167240 Par ch=8 c=11 v=99
167300 Par ch=8 c=11 v=98
167360 Par ch=8 c=11 v=97
167420 Par ch=8 c=11 v=95
167480 Par ch=8 c=11 v=93
167540 Par ch=8 c=11 v=91
167592 Par ch=8 c=11 v=88
167622 Par ch=8 c=11 v=89
167682 Par ch=8 c=11 v=90
167742 Par ch=8 c=11 v=91
167862 Par ch=8 c=11 v=92
167952 Par ch=8 c=11 v=94
168000 On ch=8 n=61 v=88
168016 Off ch=8 n=63 v=64
168282 Par ch=8 c=11 v=95
168402 Par ch=8 c=11 v=96
168480 On ch=8 n=63 v=88
168500 Off ch=8 n=61 v=64
168522 Par ch=8 c=11 v=97
168612 Par ch=8 c=11 v=98
168672 Par ch=8 c=11 v=99
168732 Par ch=8 c=11 v=100
168740 Off ch=8 n=63 v=64
168792 Par ch=8 c=11 v=101
168940 Par ch=8 c=11 v=99
168960 On ch=8 n=65 v=88
169180 Par ch=8 c=11 v=97
169440 On ch=8 n=66 v=88
169500 Off ch=8 n=65 v=64
169700 Off ch=8 n=66 v=64
169920 On ch=8 n=68 v=88
170020 Par ch=8 c=11 v=96
170140 Off ch=8 n=68 v=64
170320 Par ch=8 c=11 v=95
170400 On ch=8 n=70 v=88
170560 Par ch=8 c=11 v=94
170620 Off ch=8 n=70 v=64
170800 Par ch=8 c=11 v=93
170880 On ch=8 n=63 v=88
170940 Par ch=8 c=11 v=92
171020 Par ch=8 c=11 v=91
171200 Par ch=8 c=11 v=90
171260 Par ch=8 c=11 v=89
171320 Par ch=8 c=11 v=87
171380 Par ch=8 c=11 v=85
171440 Par ch=8 c=11 v=82
171500 Par ch=8 c=11 v=80
171560 Par ch=8 c=11 v=77
171600 Off ch=8 n=63 v=64
171620 Par ch=8 c=11 v=73
171680 Par ch=8 c=11 v=69
171720 Par ch=8 c=11 v=66
171840 On ch=8 n=70 v=88
171840 Par ch=8 c=11 v=95
172100 Off ch=8 n=70 v=64
172110 Par ch=8 c=11 v=96
172230 Par ch=8 c=11 v=97
172290 Par ch=8 c=11 v=98
172320 On ch=8 n=73 v=88
172380 Par ch=8 c=11 v=99
172440 Par ch=8 c=11 v=100
172470 Par ch=8 c=11 v=101
172530 Par ch=8 c=11 v=102
172580 Off ch=8 n=73 v=64
172590 Par ch=8 c=11 v=103
172608 Par ch=8 c=11 v=104
172800 On ch=8 n=73 v=88
172800 Par ch=8 c=11 v=108
173280 On ch=8 n=75 v=88
173300 Off ch=8 n=73 v=64
173340 Par ch=8 c=11 v=107
173520 Par ch=8 c=11 v=106
173540 Off ch=8 n=75 v=64
173700 Par ch=8 c=11 v=105
173760 On ch=8 n=70 v=88
173820 Par ch=8 c=11 v=104
173940 Par ch=8 c=11 v=103
174020 Off ch=8 n=70 v=64
174060 Par ch=8 c=11 v=102
174180 Par ch=8 c=11 v=101
174220 Par ch=8 c=11 v=100
174240 On ch=8 n=68 v=88
174300 Par ch=8 c=11 v=100
174500 Off ch=8 n=68 v=64
174540 Par ch=8 c=11 v=101
174620 Par ch=8 c=11 v=102
174700 Par ch=8 c=11 v=105
174720 On ch=8 n=70 v=88
174880 Par ch=8 c=11 v=104
174940 Par ch=8 c=11 v=103
175000 Par ch=8 c=11 v=102
175060 Par ch=8 c=11 v=101
175120 Par ch=8 c=11 v=99
175180 Par ch=8 c=11 v=97
175240 Par ch=8 c=11 v=95
175300 Par ch=8 c=11 v=92
175360 Par ch=8 c=11 v=89
175420 Par ch=8 c=11 v=86
175480 Par ch=8 c=11 v=83
175500 Off ch=8 n=70 v=64
175540 Par ch=8 c=11 v=79
175640 Par ch=8 c=11 v=103
175680 On ch=8 n=68 v=88
175940 Par ch=8 c=11 v=102
176000 Par ch=8 c=11 v=101
176060 Par ch=8 c=11 v=100
176100 Par ch=8 c=11 v=101
176160 On ch=8 n=70 v=88
176220 Off ch=8 n=68 v=64
176220 Par ch=8 c=11 v=102
176340 Par ch=8 c=11 v=103
176420 Off ch=8 n=70 v=64
176460 Par ch=8 c=11 v=104
176500 Par ch=8 c=11 v=105
176620 Par ch=8 c=11 v=108
176640 On ch=8 n=73 v=88
176640 Par ch=8 c=11 v=109
177120 On ch=8 n=75 v=88
177160 Off ch=8 n=73 v=64
177380 Off ch=8 n=75 v=64
177600 On ch=8 n=70 v=88
177860 Off ch=8 n=70 v=64
178080 On ch=8 n=68 v=88
178340 Off ch=8 n=68 v=64
178560 On ch=8 n=70 v=88
178560 Par ch=8 c=11 v=110
179340 Par ch=8 c=11 v=111
179520 On ch=8 n=75 v=88
179580 Off ch=8 n=70 v=64
179780 Off ch=8 n=75 v=64
179940 Par ch=8 c=11 v=112
180000 On ch=8 n=77 v=88
180260 Off ch=8 n=77 v=64
180432 Par ch=8 c=11 v=113
180480 On ch=8 n=78 v=88
180480 Par ch=8 c=11 v=114
180960 On ch=8 n=77 v=88
180980 Off ch=8 n=78 v=64
181240 Off ch=8 n=77 v=64
181440 On ch=8 n=75 v=88
181680 Off ch=8 n=75 v=64
181710 Par ch=8 c=11 v=113
181920 On ch=8 n=73 v=88
182116 Off ch=8 n=73 v=64
182220 Par ch=8 c=11 v=112
182400 On ch=8 n=70 v=88
182610 Par ch=8 c=11 v=111
182940 Par ch=8 c=11 v=110
183210 Par ch=8 c=11 v=109
183328 Off ch=8 n=70 v=64
183360 On ch=8 n=68 v=88
183480 Par ch=8 c=11 v=108
183720 Par ch=8 c=11 v=107
183840 On ch=8 n=70 v=88
183860 Off ch=8 n=68 v=64
183960 Par ch=8 c=11 v=106
184100 Off ch=8 n=70 v=64
184140 Par ch=8 c=11 v=105
184320 On ch=8 n=68 v=88
184350 Par ch=8 c=11 v=104
184530 Par ch=8 c=11 v=103
184710 Par ch=8 c=11 v=102
184800 On ch=8 n=66 v=88
184860 Off ch=8 n=68 v=64
184890 Par ch=8 c=11 v=101
185060 Off ch=8 n=66 v=64
185070 Par ch=8 c=11 v=100
185220 Par ch=8 c=11 v=99
185280 On ch=8 n=65 v=88
185370 Par ch=8 c=11 v=98
185500 Off ch=8 n=65 v=64
185520 Par ch=8 c=11 v=97
185670 Par ch=8 c=11 v=96
185760 On ch=8 n=61 v=88
185820 Par ch=8 c=11 v=95
185940 Par ch=8 c=11 v=94
185980 Off ch=8 n=61 v=64
186090 Par ch=8 c=11 v=93
186210 Par ch=8 c=11 v=92
186240 On ch=8 n=63 v=88
186360 Par ch=8 c=11 v=91
186456 Par ch=8 c=11 v=90
186560 Par ch=8 c=11 v=90
186620 Par ch=8 c=11 v=89
186680 Par ch=8 c=11 v=87
186740 Par ch=8 c=11 v=85
186800 Par ch=8 c=11 v=82
186860 Par ch=8 c=11 v=80
186920 Par ch=8 c=11 v=77
186960 Off ch=8 n=63 v=64
186980 Par ch=8 c=11 v=73
187040 Par ch=8 c=11 v=58
187080 Par ch=8 c=11 v=47
187176 Par ch=8 c=11 v=64
187200 On ch=8 n=63 v=56
187200 Par ch=8 c=11 v=81
187350 Par ch=8 c=11 v=80
187380 Par ch=8 c=11 v=79
187440 Par ch=8 c=11 v=78
187470 Par ch=8 c=11 v=77
187500 Par ch=8 c=11 v=76
187530 Par ch=8 c=11 v=74
187560 Par ch=8 c=11 v=73
187590 Par ch=8 c=11 v=72
187620 Par ch=8 c=11 v=70
187648 Par ch=8 c=11 v=68
187656 Par ch=8 c=11 v=67
187680 Off ch=8 n=63 v=64
187680 On ch=8 n=70 v=88
187746 Par ch=8 c=11 v=68
187806 Par ch=8 c=11 v=69
187866 Par ch=8 c=11 v=70
187896 Par ch=8 c=11 v=71
187956 Par ch=8 c=11 v=72
188016 Par ch=8 c=11 v=73
188046 Par ch=8 c=11 v=74
188076 Par ch=8 c=11 v=75
188112 Par ch=8 c=11 v=76
188160 On ch=8 n=68 v=88
188160 Par ch=8 c=11 v=75
188196 Off ch=8 n=70 v=64
188640 On ch=8 n=66 v=88
188660 Off ch=8 n=68 v=64
188700 Par ch=8 c=11 v=75
188880 Par ch=8 c=11 v=74
188900 Off ch=8 n=66 v=64
189060 Par ch=8 c=11 v=73
189120 On ch=8 n=66 v=88
189180 Par ch=8 c=11 v=72
189300 Par ch=8 c=11 v=71
189380 Off ch=8 n=66 v=64
189420 Par ch=8 c=11 v=70
189540 Par ch=8 c=11 v=69
189580 Par ch=8 c=11 v=68
189600 On ch=8 n=65 v=88
189660 Par ch=8 c=11 v=68
189860 Off ch=8 n=65 v=64
189900 Par ch=8 c=11 v=69
189980 Par ch=8 c=11 v=70
190060 Par ch=8 c=11 v=73
190080 On ch=8 n=66 v=88
190240 Par ch=8 c=11 v=72
190300 Par ch=8 c=11 v=71
190360 Par ch=8 c=11 v=70
190420 Par ch=8 c=11 v=69
190480 Par ch=8 c=11 v=67
190540 Par ch=8 c=11 v=65
190600 Par ch=8 c=11 v=63
190660 Par ch=8 c=11 v=60
190720 Par ch=8 c=11 v=57
190780 Par ch=8 c=11 v=54
190840 Par ch=8 c=11 v=51
190892 Off ch=8 n=66 v=64
190900 Par ch=8 c=11 v=47
191000 Par ch=8 c=11 v=71
191040 On ch=8 n=68 v=88
191300 Par ch=8 c=11 v=70
191360 Par ch=8 c=11 v=69
191420 Par ch=8 c=11 v=68
191460 Par ch=8 c=11 v=69
191520 On ch=8 n=70 v=88
191580 Off ch=8 n=68 v=64
191580 Par ch=8 c=11 v=70
191700 Par ch=8 c=11 v=71
191780 Off ch=8 n=70 v=64
191820 Par ch=8 c=11 v=72
191860 Par ch=8 c=11 v=73
191980 Par ch=8 c=11 v=76
192000 On ch=8 n=68 v=88
192480 On ch=8 n=65 v=88
192520 Off ch=8 n=68 v=64
192700 Par ch=8 c=11 v=75
192740 Off ch=8 n=65 v=64
192940 Par ch=8 c=11 v=74
192960 On ch=8 n=65 v=88
193180 Par ch=8 c=11 v=73
193220 Off ch=8 n=65 v=64
193360 Par ch=8 c=11 v=72
193440 On ch=8 n=63 v=88
193480 Par ch=8 c=11 v=71
193600 Par ch=8 c=11 v=70
193700 Off ch=8 n=63 v=64
193700 Par ch=8 c=11 v=68
193920 On ch=8 n=65 v=88
193940 Par ch=8 c=11 v=71
194000 Par ch=8 c=11 v=70
194060 Par ch=8 c=11 v=69
194080 Par ch=8 c=11 v=68
194180 Par ch=8 c=11 v=68
194300 Par ch=8 c=11 v=69
194420 Par ch=8 c=11 v=70
194480 Par ch=8 c=11 v=71
194600 Par ch=8 c=11 v=72
194660 Par ch=8 c=11 v=73
194720 Par ch=8 c=11 v=74
194780 Par ch=8 c=11 v=75
194840 Par ch=8 c=11 v=76
194860 Par ch=8 c=11 v=77
194880 On ch=8 n=65 v=88
194940 Off ch=8 n=65 v=64
195140 Off ch=8 n=65 v=64
195360 On ch=8 n=66 v=88
195620 Off ch=8 n=66 v=64
195800 Par ch=8 c=11 v=79
195840 On ch=8 n=65 v=88
196320 On ch=8 n=63 v=88
196340 Off ch=8 n=65 v=64
196460 Par ch=8 c=11 v=78
196600 Off ch=8 n=63 v=64
196700 Par ch=8 c=11 v=77
196800 On ch=8 n=61 v=88
196940 Par ch=8 c=11 v=76
197060 Par ch=8 c=11 v=75
197240 Par ch=8 c=11 v=74
197340 Par ch=8 c=11 v=73
197460 Par ch=8 c=11 v=75
197620 Off ch=8 n=61 v=64
197640 Par ch=8 c=11 v=76
197700 Par ch=8 c=11 v=78
197720 Par ch=8 c=11 v=79
197760 On ch=8 n=63 v=88
197780 Par ch=8 c=11 v=78
197960 Par ch=8 c=11 v=77
198020 Par ch=8 c=11 v=76
198080 Par ch=8 c=11 v=75
198140 Par ch=8 c=11 v=73
198200 Par ch=8 c=11 v=71
198260 Par ch=8 c=11 v=69
198312 Par ch=8 c=11 v=66
198342 Par ch=8 c=11 v=67
198402 Par ch=8 c=11 v=68
198462 Par ch=8 c=11 v=69
198582 Par ch=8 c=11 v=70
198672 Par ch=8 c=11 v=72
198720 On ch=8 n=56 v=88
198736 Off ch=8 n=63 v=64
199002 Par ch=8 c=11 v=73
199122 Par ch=8 c=11 v=74
199200 On ch=8 n=58 v=88
199220 Off ch=8 n=56 v=64
199242 Par ch=8 c=11 v=75
199332 Par ch=8 c=11 v=76
199392 Par ch=8 c=11 v=77
199452 Par ch=8 c=11 v=78
199460 Off ch=8 n=58 v=64
199512 Par ch=8 c=11 v=79
199660 Par ch=8 c=11 v=77
199680 On ch=8 n=61 v=88
199900 Par ch=8 c=11 v=75
200160 On ch=8 n=63 v=88
200220 Off ch=8 n=61 v=64
200420 Off ch=8 n=63 v=64
200640 On ch=8 n=65 v=88
200740 Par ch=8 c=11 v=74
200860 Off ch=8 n=65 v=64
200864 Par ch=8 c=11 v=74
201120 On ch=8 n=66 v=88
201340 Off ch=8 n=66 v=64
201600 On ch=8 n=66 v=88
201664 Par ch=8 c=11 v=73
201994 Par ch=8 c=11 v=74
202080 On ch=8 n=65 v=56
202096 Off ch=8 n=66 v=64
202144 Par ch=8 c=11 v=75
202234 Par ch=8 c=11 v=76
202304 Off ch=8 n=65 v=64
202324 Par ch=8 c=11 v=77
202414 Par ch=8 c=11 v=78
202474 Par ch=8 c=11 v=79
202534 Par ch=8 c=11 v=80
202560 On ch=8 n=63 v=56
202594 Par ch=8 c=11 v=81
202654 Par ch=8 c=11 v=82
202714 Par ch=8 c=11 v=83
202774 Par ch=8 c=11 v=84
202804 Par ch=8 c=11 v=85
202864 Par ch=8 c=11 v=86
202894 Par ch=8 c=11 v=87
202954 Par ch=8 c=11 v=88
202984 Par ch=8 c=11 v=89
203008 Par ch=8 c=11 v=90
203040 On ch=8 n=70 v=56
203040 Par ch=8 c=11 v=87
203070 Par ch=8 c=11 v=85
203100 Par ch=8 c=11 v=84
203104 Off ch=8 n=63 v=64
203130 Par ch=8 c=11 v=83
203190 Par ch=8 c=11 v=82
203220 Par ch=8 c=11 v=81
203250 Par ch=8 c=11 v=80
203310 Par ch=8 c=11 v=79
203370 Par ch=8 c=11 v=78
203520 Off ch=8 n=70 v=64
203520 On ch=8 n=68 v=88
204000 On ch=8 n=66 v=88
204020 Off ch=8 n=68 v=64
204060 Par ch=8 c=11 v=75
204240 Par ch=8 c=11 v=74
204260 Off ch=8 n=66 v=64
204420 Par ch=8 c=11 v=73
204480 On ch=8 n=66 v=88
204540 Par ch=8 c=11 v=72
204660 Par ch=8 c=11 v=71
204740 Off ch=8 n=66 v=64
204780 Par ch=8 c=11 v=70
204900 Par ch=8 c=11 v=69
204940 Par ch=8 c=11 v=68
204960 On ch=8 n=65 v=88
205020 Par ch=8 c=11 v=68
205220 Off ch=8 n=65 v=64
205260 Par ch=8 c=11 v=69
205340 Par ch=8 c=11 v=70
205420 Par ch=8 c=11 v=73
205440 On ch=8 n=66 v=88
205600 Par ch=8 c=11 v=72
205660 Par ch=8 c=11 v=71
205720 Par ch=8 c=11 v=70
205780 Par ch=8 c=11 v=69
205840 Par ch=8 c=11 v=67
205900 Par ch=8 c=11 v=65
205960 Par ch=8 c=11 v=63
206020 Par ch=8 c=11 v=60
206080 Par ch=8 c=11 v=57
206140 Par ch=8 c=11 v=54
206200 Par ch=8 c=11 v=51
206252 Off ch=8 n=66 v=64
206260 Par ch=8 c=11 v=47
206360 Par ch=8 c=11 v=71
206400 On ch=8 n=68 v=88
206660 Par ch=8 c=11 v=70
206720 Par ch=8 c=11 v=69
206780 Par ch=8 c=11 v=68
206820 Par ch=8 c=11 v=69
206880 On ch=8 n=70 v=88
206940 Off ch=8 n=68 v=64
206940 Par ch=8 c=11 v=70
207060 Par ch=8 c=11 v=71
207140 Off ch=8 n=70 v=64
207180 Par ch=8 c=11 v=72
207220 Par ch=8 c=11 v=73
207340 Par ch=8 c=11 v=76
207360 Par ch=8 c=11 v=75
207360 On ch=8 n=68 v=88
207840 On ch=8 n=65 v=88
207880 Off ch=8 n=68 v=64
208100 Off ch=8 n=65 v=64
208320 On ch=8 n=65 v=88
208580 Off ch=8 n=65 v=64
208800 On ch=8 n=63 v=88
208950 Par ch=8 c=11 v=76
209060 Off ch=8 n=63 v=64
209280 On ch=8 n=65 v=88
209580 Par ch=8 c=11 v=77
210090 Par ch=8 c=11 v=78
210240 On ch=8 n=66 v=88
210300 Off ch=8 n=65 v=64
210500 Off ch=8 n=66 v=64
210510 Par ch=8 c=11 v=79
210720 On ch=8 n=68 v=88
210870 Par ch=8 c=11 v=80
210980 Off ch=8 n=68 v=64
211200 Par ch=8 c=11 v=86
211200 On ch=8 n=70 v=88
211680 On ch=8 n=68 v=88
211700 Off ch=8 n=70 v=64
211960 Off ch=8 n=68 v=64
212160 On ch=8 n=66 v=88
212280 Par ch=8 c=11 v=85
212400 Off ch=8 n=66 v=64
212640 On ch=8 n=65 v=88
212730 Par ch=8 c=11 v=84
212836 Off ch=8 n=65 v=64
213060 Par ch=8 c=11 v=83
213120 On ch=8 n=63 v=88
213360 Par ch=8 c=11 v=82
213600 Par ch=8 c=11 v=81
213810 Par ch=8 c=11 v=80
214020 Par ch=8 c=11 v=79
214080 On ch=8 n=65 v=88
214112 Off ch=8 n=63 v=64
214230 Par ch=8 c=11 v=78
214356 Off ch=8 n=65 v=64
214410 Par ch=8 c=11 v=77
214560 On ch=8 n=66 v=88
214590 Par ch=8 c=11 v=76
214740 Par ch=8 c=11 v=75
214820 Off ch=8 n=66 v=64
214890 Par ch=8 c=11 v=74
215040 Par ch=8 c=11 v=73
215040 On ch=8 n=65 v=88
215520 On ch=8 n=63 v=88
215580 Off ch=8 n=65 v=64
215670 Par ch=8 c=11 v=74
215780 Off ch=8 n=63 v=64
215928 Par ch=8 c=11 v=75
216000 On ch=8 n=61 v=88
216048 Par ch=8 c=11 v=75
216378 Par ch=8 c=11 v=74
216498 Par ch=8 c=11 v=73
216588 Par ch=8 c=11 v=72
216678 Par ch=8 c=11 v=71
216738 Par ch=8 c=11 v=70
216798 Par ch=8 c=11 v=69
216858 Par ch=8 c=11 v=68
216918 Par ch=8 c=11 v=67
216960 On ch=8 n=63 v=88
216978 Par ch=8 c=11 v=66
217020 Off ch=8 n=61 v=64
217038 Par ch=8 c=11 v=65
217068 Par ch=8 c=11 v=64
217128 Par ch=8 c=11 v=63
217158 Par ch=8 c=11 v=62
217218 Par ch=8 c=11 v=61
217248 Par ch=8 c=11 v=60
217278 Par ch=8 c=11 v=59
217338 Par ch=8 c=11 v=58
217368 Par ch=8 c=11 v=57
217398 Par ch=8 c=11 v=56
217416 Par ch=8 c=11 v=55
217460 Par ch=8 c=11 v=53
217520 Par ch=8 c=11 v=50
217580 Par ch=8 c=11 v=48
217640 Par ch=8 c=11 v=45
217680 Off ch=8 n=63 v=64
217700 Par ch=8 c=11 v=41
217760 Par ch=8 c=11 v=37
217800 Par ch=8 c=11 v=34
249600 Par ch=8 c=11 v=85
280320 Par ch=8 c=11 v=115
281520 On ch=8 n=63 v=93
281760 On ch=8 n=61 v=93
281824 Off ch=8 n=63 v=100
282000 On ch=8 n=63 v=92
282064 Off ch=8 n=61 v=100
282224 On ch=8 n=58 v=91
282304 Off ch=8 n=63 v=100
282584 Off ch=8 n=58 v=64
283440 On ch=8 n=63 v=93
283680 On ch=8 n=61 v=93
283744 Off ch=8 n=63 v=100
283920 On ch=8 n=63 v=92
283984 Off ch=8 n=61 v=100
284144 On ch=8 n=58 v=91
284224 Off ch=8 n=63 v=100
284504 Off ch=8 n=58 v=64
285360 On ch=8 n=63 v=93
285600 On ch=8 n=61 v=93
285664 Off ch=8 n=63 v=100
285840 On ch=8 n=63 v=92
285904 Off ch=8 n=61 v=100
286064 On ch=8 n=58 v=91
286144 Off ch=8 n=63 v=100
286424 Off ch=8 n=58 v=64
287280 On ch=8 n=63 v=93
287520 On ch=8 n=61 v=93
287584 Off ch=8 n=63 v=100
287760 On ch=8 n=63 v=92
287824 Off ch=8 n=61 v=100
287984 On ch=8 n=59 v=91
288064 Off ch=8 n=63 v=100
288344 Off ch=8 n=59 v=64
289200 On ch=8 n=63 v=93
289440 On ch=8 n=61 v=93
289504 Off ch=8 n=63 v=100
289680 On ch=8 n=63 v=92
289744 Off ch=8 n=61 v=100
289904 On ch=8 n=59 v=91
289984 Off ch=8 n=63 v=100
290264 Off ch=8 n=59 v=64
291120 On ch=8 n=63 v=93
291360 On ch=8 n=61 v=93
291424 Off ch=8 n=63 v=100
291600 On ch=8 n=63 v=92
291664 Off ch=8 n=61 v=100
291824 On ch=8 n=56 v=91
291904 Off ch=8 n=63 v=100
292184 Off ch=8 n=56 v=64
293040 On ch=8 n=61 v=93
293280 On ch=8 n=63 v=93
293344 Off ch=8 n=61 v=100
293520 On ch=8 n=61 v=92
293584 Off ch=8 n=63 v=100
293744 On ch=8 n=56 v=91
293824 Off ch=8 n=61 v=100
294104 Off ch=8 n=56 v=64
294704 On ch=8 n=56 v=88
294704 On ch=8 n=65 v=88
294936 Off ch=8 n=65 v=64
294936 Off ch=8 n=56 v=64
296864 On ch=8 n=63 v=93
297104 On ch=8 n=61 v=93
297168 Off ch=8 n=63 v=100
297344 On ch=8 n=63 v=92
297408 Off ch=8 n=61 v=100
297568 On ch=8 n=58 v=91
297648 Off ch=8 n=63 v=100
297928 Off ch=8 n=58 v=64
298784 On ch=8 n=63 v=93
299024 On ch=8 n=61 v=93
299088 Off ch=8 n=63 v=100
299264 On ch=8 n=63 v=92
299328 Off ch=8 n=61 v=100
299488 On ch=8 n=58 v=91
299568 Off ch=8 n=63 v=100
299848 Off ch=8 n=58 v=64
300704 On ch=8 n=63 v=93
300944 On ch=8 n=61 v=93
301008 Off ch=8 n=63 v=100
301184 On ch=8 n=63 v=92
301248 Off ch=8 n=61 v=100
301408 On ch=8 n=58 v=91
301488 Off ch=8 n=63 v=100
301768 Off ch=8 n=58 v=64
302624 On ch=8 n=63 v=93
302864 On ch=8 n=61 v=93
302928 Off ch=8 n=63 v=100
303104 On ch=8 n=63 v=92
303168 Off ch=8 n=61 v=100
303328 On ch=8 n=59 v=91
303408 Off ch=8 n=63 v=100
303688 Off ch=8 n=59 v=64
304544 On ch=8 n=63 v=93
304784 On ch=8 n=61 v=93
304848 Off ch=8 n=63 v=100
305024 On ch=8 n=63 v=92
305088 Off ch=8 n=61 v=100
305248 On ch=8 n=59 v=91
305328 Off ch=8 n=63 v=100
305608 Off ch=8 n=59 v=64
306464 On ch=8 n=63 v=93
306704 On ch=8 n=61 v=93
306768 Off ch=8 n=63 v=100
306944 On ch=8 n=63 v=92
307008 Off ch=8 n=61 v=100
307168 On ch=8 n=56 v=91
307248 Off ch=8 n=63 v=100
307528 Off ch=8 n=56 v=64
308384 On ch=8 n=61 v=93
308624 On ch=8 n=63 v=93
308688 Off ch=8 n=61 v=100
308864 On ch=8 n=61 v=92
308928 Off ch=8 n=63 v=100
309088 On ch=8 n=56 v=91
309168 Off ch=8 n=61 v=100
309448 Off ch=8 n=56 v=64
310048 On ch=8 n=65 v=88
310048 On ch=8 n=56 v=88
310280 Off ch=8 n=56 v=64
310280 Off ch=8 n=65 v=64
417280 Par ch=8 c=11 v=99
417600 On ch=8 n=71 v=101
417860 Off ch=8 n=71 v=64
418080 On ch=8 n=74 v=101
418340 Off ch=8 n=74 v=64
418560 On ch=8 n=74 v=102
419040 On ch=8 n=76 v=102
419060 Off ch=8 n=74 v=64
419300 Off ch=8 n=76 v=64
419520 On ch=8 n=71 v=102
419780 Off ch=8 n=71 v=64
420000 On ch=8 n=69 v=102
420260 Off ch=8 n=69 v=64
420480 On ch=8 n=71 v=102
421260 Off ch=8 n=71 v=64
421440 On ch=8 n=69 v=102
421920 On ch=8 n=71 v=102
421980 Off ch=8 n=69 v=64
422180 Off ch=8 n=71 v=64
422400 On ch=8 n=74 v=102
422880 On ch=8 n=76 v=102
422920 Off ch=8 n=74 v=64
423140 Off ch=8 n=76 v=64
423360 On ch=8 n=71 v=102
423620 Off ch=8 n=71 v=64
423840 On ch=8 n=69 v=102
424100 Off ch=8 n=69 v=64
424320 On ch=8 n=71 v=102
425280 On ch=8 n=76 v=102
425340 Off ch=8 n=71 v=64
425540 Off ch=8 n=76 v=64
425760 On ch=8 n=78 v=102
426020 Off ch=8 n=78 v=64
426240 On ch=8 n=79 v=102
426720 On ch=8 n=78 v=102
426740 Off ch=8 n=79 v=64
427000 Off ch=8 n=78 v=64
427200 On ch=8 n=76 v=102
427440 Off ch=8 n=76 v=64
427680 On ch=8 n=74 v=102
427900 Off ch=8 n=74 v=64
428160 On ch=8 n=71 v=102
429088 Off ch=8 n=71 v=64
429120 On ch=8 n=69 v=102
429600 On ch=8 n=71 v=102
429620 Off ch=8 n=69 v=64
429860 Off ch=8 n=71 v=64
430080 On ch=8 n=69 v=102
430080 Par ch=8 c=11 v=115
430560 On ch=8 n=67 v=102
430620 Off ch=8 n=69 v=64
430820 Off ch=8 n=67 v=64
431040 On ch=8 n=66 v=102
431260 Off ch=8 n=66 v=64
431520 On ch=8 n=62 v=102
431740 Off ch=8 n=62 v=64
432000 On ch=8 n=64 v=102
432400 Off ch=8 n=64 v=64
432960 On ch=8 n=71 v=88
432960 On ch=8 n=64 v=56
433220 Off ch=8 n=71 v=64
433440 Off ch=8 n=64 v=64
433440 On ch=8 n=74 v=88
433440 On ch=8 n=71 v=88
433700 Off ch=8 n=74 v=64
433920 On ch=8 n=74 v=88
433920 On ch=8 n=69 v=88
433956 Off ch=8 n=71 v=64
434400 On ch=8 n=76 v=88
434400 On ch=8 n=67 v=88
434420 Off ch=8 n=69 v=64
434420 Off ch=8 n=74 v=64
434660 Off ch=8 n=67 v=64
434660 Off ch=8 n=76 v=64
434880 On ch=8 n=71 v=88
434880 On ch=8 n=67 v=88
435140 Off ch=8 n=67 v=64
435140 Off ch=8 n=71 v=64
435360 On ch=8 n=69 v=88
435360 On ch=8 n=66 v=88
435620 Off ch=8 n=66 v=64
435620 Off ch=8 n=69 v=64
435840 On ch=8 n=71 v=88
435840 On ch=8 n=67 v=88
436620 Off ch=8 n=71 v=64
436652 Off ch=8 n=67 v=64
436800 On ch=8 n=69 v=88
437280 On ch=8 n=71 v=88
437340 Off ch=8 n=69 v=64
437540 Off ch=8 n=71 v=64
437760 On ch=8 n=74 v=88
437760 On ch=8 n=69 v=88
438240 On ch=8 n=76 v=88
438240 On ch=8 n=66 v=88
438280 Off ch=8 n=69 v=64
438280 Off ch=8 n=74 v=64
438500 Off ch=8 n=66 v=64
438500 Off ch=8 n=76 v=64
438720 On ch=8 n=71 v=88
438720 On ch=8 n=66 v=88
438980 Off ch=8 n=66 v=64
438980 Off ch=8 n=71 v=64
439200 On ch=8 n=69 v=88
439200 On ch=8 n=64 v=88
439460 Off ch=8 n=64 v=64
439460 Off ch=8 n=69 v=64
439680 On ch=8 n=71 v=88
439680 On ch=8 n=66 v=88
440640 On ch=8 n=69 v=88
440640 On ch=8 n=66 v=88
440700 Off ch=8 n=66 v=64
440700 Off ch=8 n=71 v=64
440900 Off ch=8 n=66 v=64
440900 Off ch=8 n=69 v=64
441120 On ch=8 n=71 v=88
441120 On ch=8 n=67 v=88
441380 Off ch=8 n=67 v=64
441380 Off ch=8 n=71 v=64
441600 On ch=8 n=69 v=88
441600 On ch=8 n=66 v=88
442080 On ch=8 n=67 v=88
442080 On ch=8 n=64 v=88
442100 Off ch=8 n=66 v=64
442100 Off ch=8 n=69 v=64
442360 Off ch=8 n=64 v=64
442360 Off ch=8 n=67 v=64
442560 On ch=8 n=66 v=88
442560 On ch=8 n=62 v=88
442800 Off ch=8 n=66 v=64
443040 On ch=8 n=62 v=88
443380 Off ch=8 n=62 v=64
443380 Off ch=8 n=62 v=64
443520 On ch=8 n=64 v=88
444448 Off ch=8 n=64 v=64
444480 On ch=8 n=62 v=88
444480 On ch=8 n=57 v=88
444960 On ch=8 n=64 v=88
444960 On ch=8 n=59 v=88
444980 Off ch=8 n=57 v=64
444980 Off ch=8 n=62 v=64
445220 Off ch=8 n=59 v=64
445220 Off ch=8 n=64 v=64
445440 On ch=8 n=66 v=88
445440 On ch=8 n=62 v=88
445920 On ch=8 n=67 v=88
445920 On ch=8 n=64 v=88
445980 Off ch=8 n=62 v=64
445980 Off ch=8 n=66 v=64
446180 Off ch=8 n=64 v=64
446180 Off ch=8 n=67 v=64
446400 On ch=8 n=69 v=88
446400 On ch=8 n=66 v=88
446620 Off ch=8 n=66 v=64
446620 Off ch=8 n=69 v=64
446880 On ch=8 n=71 v=88
446880 On ch=8 n=67 v=88
447100 Off ch=8 n=67 v=64
447100 Off ch=8 n=71 v=64
447360 On ch=8 n=64 v=88
447360 On ch=8 n=67 v=88
447840 On ch=8 n=66 v=56
447856 Off ch=8 n=67 v=64
448064 Off ch=8 n=66 v=64
448080 Off ch=8 n=64 v=64
448320 On ch=8 n=71 v=88
448320 On ch=8 n=64 v=56
448580 Off ch=8 n=71 v=64
448800 On ch=8 n=74 v=88
448800 On ch=8 n=71 v=56
448864 Off ch=8 n=64 v=64
449060 Off ch=8 n=74 v=64
449280 Off ch=8 n=71 v=64
449280 On ch=8 n=74 v=88
449280 On ch=8 n=69 v=88
449760 On ch=8 n=76 v=88
449760 On ch=8 n=67 v=88
449780 Off ch=8 n=69 v=64
449780 Off ch=8 n=74 v=64
450020 Off ch=8 n=67 v=64
450020 Off ch=8 n=76 v=64
450240 On ch=8 n=71 v=88
450240 On ch=8 n=67 v=88
450500 Off ch=8 n=67 v=64
450500 Off ch=8 n=71 v=64
450720 On ch=8 n=69 v=88
450720 On ch=8 n=66 v=88
450980 Off ch=8 n=66 v=64
450980 Off ch=8 n=69 v=64
451200 On ch=8 n=71 v=88
451200 On ch=8 n=67 v=88
451980 Off ch=8 n=71 v=64
452012 Off ch=8 n=67 v=64
452160 On ch=8 n=69 v=88
452640 On ch=8 n=71 v=88
452700 Off ch=8 n=69 v=64
452900 Off ch=8 n=71 v=64
453120 On ch=8 n=74 v=88
453120 On ch=8 n=69 v=88
453600 On ch=8 n=76 v=88
453600 On ch=8 n=66 v=88
453640 Off ch=8 n=69 v=64
453640 Off ch=8 n=74 v=64
453860 Off ch=8 n=66 v=64
453860 Off ch=8 n=76 v=64
454080 On ch=8 n=71 v=88
454080 On ch=8 n=66 v=88
454340 Off ch=8 n=66 v=64
454340 Off ch=8 n=71 v=64
454560 On ch=8 n=69 v=88
454560 On ch=8 n=64 v=88
454820 Off ch=8 n=64 v=64
454820 Off ch=8 n=69 v=64
455040 On ch=8 n=71 v=88
455040 On ch=8 n=66 v=88
456000 On ch=8 n=76 v=88
456000 On ch=8 n=67 v=88
456060 Off ch=8 n=66 v=64
456060 Off ch=8 n=71 v=64
456260 Off ch=8 n=67 v=64
456260 Off ch=8 n=76 v=64
456480 On ch=8 n=78 v=88
456480 On ch=8 n=69 v=88
456740 Off ch=8 n=69 v=64
456740 Off ch=8 n=78 v=64
456960 On ch=8 n=79 v=88
456960 On ch=8 n=71 v=88
457440 On ch=8 n=78 v=88
457440 On ch=8 n=69 v=88
457460 Off ch=8 n=71 v=64
457460 Off ch=8 n=79 v=64
457720 Off ch=8 n=69 v=64
457720 Off ch=8 n=78 v=64
457920 On ch=8 n=76 v=88
457920 On ch=8 n=67 v=88
458160 Off ch=8 n=67 v=64
458160 Off ch=8 n=76 v=64
458400 On ch=8 n=74 v=88
458400 On ch=8 n=66 v=88
458596 Off ch=8 n=66 v=64
458620 Off ch=8 n=74 v=64
458880 On ch=8 n=71 v=88
458880 On ch=8 n=64 v=88
459808 Off ch=8 n=71 v=64
459840 On ch=8 n=69 v=88
459840 On ch=8 n=66 v=88
459872 Off ch=8 n=64 v=64
460116 Off ch=8 n=66 v=64
460320 On ch=8 n=71 v=88
460320 On ch=8 n=67 v=88
460340 Off ch=8 n=69 v=64
460580 Off ch=8 n=67 v=64
460580 Off ch=8 n=71 v=64
460800 On ch=8 n=69 v=88
460800 Par ch=8 c=11 v=115
460800 On ch=8 n=66 v=88
461280 On ch=8 n=67 v=88
461280 On ch=8 n=64 v=88
461340 Off ch=8 n=66 v=64
461340 Off ch=8 n=69 v=64
461540 Off ch=8 n=64 v=64
461540 Off ch=8 n=67 v=64
461760 On ch=8 n=66 v=88
461760 On ch=8 n=62 v=88
461980 Off ch=8 n=66 v=64
462240 On ch=8 n=62 v=88
462460 Off ch=8 n=62 v=64
462720 On ch=8 n=64 v=88
462780 Off ch=8 n=62 v=64
462936 Off ch=8 n=64 v=64
464640 On ch=8 n=67 v=56
464640 Par ch=8 c=11 v=39
466740 Par ch=8 c=11 v=40
467610 Par ch=8 c=11 v=41
468270 Par ch=8 c=11 v=42
468480 Off ch=8 n=67 v=64
468480 On ch=8 n=66 v=56
468840 Par ch=8 c=11 v=43
469320 Par ch=8 c=11 v=44
469770 Par ch=8 c=11 v=45
470160 Par ch=8 c=11 v=46
470550 Par ch=8 c=11 v=47
470910 Par ch=8 c=11 v=48
471240 Par ch=8 c=11 v=49
471570 Par ch=8 c=11 v=50
471870 Par ch=8 c=11 v=51
472160 Par ch=8 c=11 v=52
472320 Off ch=8 n=66 v=64
472320 On ch=8 n=67 v=56
472320 Par ch=8 c=11 v=52
474120 Par ch=8 c=11 v=51
474840 Par ch=8 c=11 v=50
475410 Par ch=8 c=11 v=49
475890 Par ch=8 c=11 v=48
476310 Par ch=8 c=11 v=47
476670 Par ch=8 c=11 v=46
477030 Par ch=8 c=11 v=45
477360 Par ch=8 c=11 v=44
477660 Par ch=8 c=11 v=43
477930 Par ch=8 c=11 v=42
478200 Par ch=8 c=11 v=41
478470 Par ch=8 c=11 v=40
478740 Par ch=8 c=11 v=39
478980 Par ch=8 c=11 v=38
479190 Par ch=8 c=11 v=37
479430 Par ch=8 c=11 v=36
479640 Par ch=8 c=11 v=35
479840 Par ch=8 c=11 v=34
480000 Off ch=8 n=67 v=64
480000 On ch=8 n=67 v=56
480000 Par ch=8 c=11 v=33
481860 Par ch=8 c=11 v=34
482610 Par ch=8 c=11 v=35
483180 Par ch=8 c=11 v=36
483690 Par ch=8 c=11 v=37
483840 Off ch=8 n=67 v=64
483840 On ch=8 n=66 v=56
484110 Par ch=8 c=11 v=38
484500 Par ch=8 c=11 v=39
484860 Par ch=8 c=11 v=40
485190 Par ch=8 c=11 v=41
485520 Par ch=8 c=11 v=42
485820 Par ch=8 c=11 v=43
486090 Par ch=8 c=11 v=44
486360 Par ch=8 c=11 v=45
486630 Par ch=8 c=11 v=46
486870 Par ch=8 c=11 v=47
487104 Par ch=8 c=11 v=48
487680 Off ch=8 n=66 v=64
487680 On ch=8 n=67 v=56
487680 Par ch=8 c=11 v=47
489150 Par ch=8 c=11 v=46
489750 Par ch=8 c=11 v=45
490200 Par ch=8 c=11 v=44
490590 Par ch=8 c=11 v=43
490920 Par ch=8 c=11 v=42
491250 Par ch=8 c=11 v=41
491520 Par ch=8 c=11 v=40
491790 Par ch=8 c=11 v=39
492030 Par ch=8 c=11 v=38
492270 Par ch=8 c=11 v=37
492480 Par ch=8 c=11 v=36
492720 Par ch=8 c=11 v=35
492900 Par ch=8 c=11 v=34
493110 Par ch=8 c=11 v=33
493290 Par ch=8 c=11 v=32
493470 Par ch=8 c=11 v=31
493650 Par ch=8 c=11 v=30
493830 Par ch=8 c=11 v=29
494010 Par ch=8 c=11 v=28
494160 Par ch=8 c=11 v=27
494340 Par ch=8 c=11 v=26
494490 Par ch=8 c=11 v=25
494640 Par ch=8 c=11 v=24
494790 Par ch=8 c=11 v=23
494940 Par ch=8 c=11 v=22
495060 Par ch=8 c=11 v=21
495200 Par ch=8 c=11 v=20
495360 Off ch=8 n=67 v=64
495360 On ch=8 n=67 v=56
495360 Par ch=8 c=11 v=28
497910 Par ch=8 c=11 v=29
498960 Par ch=8 c=11 v=30
499200 Off ch=8 n=67 v=64
499200 On ch=8 n=66 v=56
499740 Par ch=8 c=11 v=31
500430 Par ch=8 c=11 v=32
501030 Par ch=8 c=11 v=33
501570 Par ch=8 c=11 v=34
502050 Par ch=8 c=11 v=35
502530 Par ch=8 c=11 v=36
502944 Par ch=8 c=11 v=37
503040 Off ch=8 n=66 v=64
503040 On ch=8 n=69 v=56
503040 Par ch=8 c=11 v=31
503070 Par ch=8 c=11 v=32
503220 Par ch=8 c=11 v=33
503370 Par ch=8 c=11 v=34
503580 Par ch=8 c=11 v=35
503820 Par ch=8 c=11 v=36
504120 Par ch=8 c=11 v=37
504864 Par ch=8 c=11 v=35
505854 Par ch=8 c=11 v=34
506274 Par ch=8 c=11 v=33
506574 Par ch=8 c=11 v=32
506844 Par ch=8 c=11 v=31
506880 Off ch=8 n=69 v=64
506880 On ch=8 n=68 v=56
507054 Par ch=8 c=11 v=30
507264 Par ch=8 c=11 v=29
507474 Par ch=8 c=11 v=28
507654 Par ch=8 c=11 v=27
507804 Par ch=8 c=11 v=26
507984 Par ch=8 c=11 v=25
508134 Par ch=8 c=11 v=24
508284 Par ch=8 c=11 v=23
508404 Par ch=8 c=11 v=22
508554 Par ch=8 c=11 v=21
508674 Par ch=8 c=11 v=20
508794 Par ch=8 c=11 v=19
508914 Par ch=8 c=11 v=18
509034 Par ch=8 c=11 v=17
509154 Par ch=8 c=11 v=16
509244 Par ch=8 c=11 v=15
509364 Par ch=8 c=11 v=14
509484 Par ch=8 c=11 v=13
509574 Par ch=8 c=11 v=12
509664 Par ch=8 c=11 v=11
509784 Par ch=8 c=11 v=10
509874 Par ch=8 c=11 v=9
509964 Par ch=8 c=11 v=8
510054 Par ch=8 c=11 v=7
510144 Par ch=8 c=11 v=6
510234 Par ch=8 c=11 v=5
510324 Par ch=8 c=11 v=4
510414 Par ch=8 c=11 v=3
510504 Par ch=8 c=11 v=2
510594 Par ch=8 c=11 v=1
510656 Par ch=8 c=11 v=0
510720 Off ch=8 n=68 v=64
510720 Meta TrkEnd
TrkEnd
MTrk
0 SeqSpec 43 00 01 ff
0 Meta TrkName "Viola"
1920 PrCh ch=9 p=4
1930 Par ch=9 c=7 v=100
1940 Par ch=9 c=10 v=64
1950 Par ch=9 c=11 v=127
1960 Par ch=9 c=20 v=127
1970 Par ch=9 c=91 v=0
1980 Par ch=9 c=93 v=0
1990 Par ch=9 c=94 v=0
2000 Par ch=9 c=101 v=0
2010 Par ch=9 c=100 v=0
2020 Par ch=9 c=6 v=2
2030 Par ch=9 c=101 v=127
2040 Par ch=9 c=100 v=127
34560 Par ch=9 c=11 v=107
35776 On ch=9 n=51 v=93
36016 On ch=9 n=49 v=93
36080 Off ch=9 n=51 v=100
36240 On ch=9 n=58 v=91
36256 On ch=9 n=51 v=92
36320 Off ch=9 n=49 v=100
36560 Off ch=9 n=51 v=100
36600 Off ch=9 n=58 v=64
37696 On ch=9 n=51 v=93
37936 On ch=9 n=49 v=93
38000 Off ch=9 n=51 v=100
38176 On ch=9 n=51 v=92
38240 Off ch=9 n=49 v=100
38400 On ch=9 n=58 v=91
38480 Off ch=9 n=51 v=100
38760 Off ch=9 n=58 v=64
39616 On ch=9 n=51 v=93
39856 On ch=9 n=49 v=93
39920 Off ch=9 n=51 v=100
40096 On ch=9 n=51 v=92
40160 Off ch=9 n=49 v=100
40320 On ch=9 n=58 v=91
40400 Off ch=9 n=51 v=100
40680 Off ch=9 n=58 v=64
41536 On ch=9 n=51 v=93
41776 On ch=9 n=49 v=93
41840 Off ch=9 n=51 v=100
42016 On ch=9 n=51 v=92
42080 Off ch=9 n=49 v=100
42240 On ch=9 n=58 v=91
42320 Off ch=9 n=51 v=100
42600 Off ch=9 n=58 v=64
43456 On ch=9 n=51 v=93
43696 On ch=9 n=49 v=93
43760 Off ch=9 n=51 v=100
43920 On ch=9 n=58 v=91
43936 On ch=9 n=51 v=92
44000 Off ch=9 n=49 v=100
44240 Off ch=9 n=51 v=100
44280 Off ch=9 n=58 v=64
45376 On ch=9 n=51 v=93
45616 On ch=9 n=49 v=93
45680 Off ch=9 n=51 v=100
45856 On ch=9 n=51 v=92
45920 Off ch=9 n=49 v=100
46080 On ch=9 n=58 v=91
46160 Off ch=9 n=51 v=100
46440 Off ch=9 n=58 v=64
47296 On ch=9 n=51 v=93
47536 On ch=9 n=49 v=93
47600 Off ch=9 n=51 v=100
47776 On ch=9 n=51 v=92
47840 Off ch=9 n=49 v=100
48000 On ch=9 n=58 v=91
48080 Off ch=9 n=51 v=100
48360 Off ch=9 n=58 v=64
49216 On ch=9 n=51 v=93
49456 On ch=9 n=49 v=93
49520 Off ch=9 n=51 v=100
49696 On ch=9 n=51 v=92
49760 Off ch=9 n=49 v=100
49920 On ch=9 n=58 v=91
50000 Off ch=9 n=51 v=100
50280 Off ch=9 n=58 v=64
51136 On ch=9 n=51 v=93
51376 On ch=9 n=49 v=93
51440 Off ch=9 n=51 v=100
51600 On ch=9 n=58 v=91
51616 On ch=9 n=51 v=92
51680 Off ch=9 n=49 v=100
51920 Off ch=9 n=51 v=100
51960 Off ch=9 n=58 v=64
53056 On ch=9 n=51 v=93
53296 On ch=9 n=49 v=93
53360 Off ch=9 n=51 v=100
53536 On ch=9 n=51 v=92
53600 Off ch=9 n=49 v=100
53760 On ch=9 n=58 v=91
53840 Off ch=9 n=51 v=100
54120 Off ch=9 n=58 v=64
54976 On ch=9 n=51 v=93
55216 On ch=9 n=49 v=93
55280 Off ch=9 n=51 v=100
55456 On ch=9 n=51 v=92
55520 Off ch=9 n=49 v=100
55680 On ch=9 n=58 v=91
55760 Off ch=9 n=51 v=100
56040 Off ch=9 n=58 v=64
56896 On ch=9 n=51 v=93
57136 On ch=9 n=49 v=93
57200 Off ch=9 n=51 v=100
57376 On ch=9 n=51 v=92
57440 Off ch=9 n=49 v=100
57600 On ch=9 n=58 v=91
57680 Off ch=9 n=51 v=100
57960 Off ch=9 n=58 v=64
58816 On ch=9 n=51 v=93
59056 On ch=9 n=49 v=93
59120 Off ch=9 n=51 v=100
59280 On ch=9 n=58 v=91
59296 On ch=9 n=51 v=92
59360 Off ch=9 n=49 v=100
59600 Off ch=9 n=51 v=100
59640 Off ch=9 n=58 v=64
60736 On ch=9 n=51 v=93
60976 On ch=9 n=49 v=93
61040 Off ch=9 n=51 v=100
61216 On ch=9 n=51 v=92
61280 Off ch=9 n=49 v=100
61440 On ch=9 n=58 v=91
61520 Off ch=9 n=51 v=100
61800 Off ch=9 n=58 v=64
62656 On ch=9 n=51 v=93
62896 On ch=9 n=49 v=93
62960 Off ch=9 n=51 v=100
63136 On ch=9 n=51 v=92
63200 Off ch=9 n=49 v=100
63360 On ch=9 n=58 v=91
63440 Off ch=9 n=51 v=100
63720 Off ch=9 n=58 v=64
64576 On ch=9 n=51 v=93
64816 On ch=9 n=49 v=93
64880 Off ch=9 n=51 v=100
65056 On ch=9 n=51 v=92
65120 Off ch=9 n=49 v=100
65280 Par ch=9 c=11 v=94
65280 On ch=9 n=58 v=91
65360 Off ch=9 n=51 v=100
65640 Off ch=9 n=58 v=64
66496 On ch=9 n=51 v=93
66736 On ch=9 n=49 v=93
66800 Off ch=9 n=51 v=100
66976 On ch=9 n=51 v=92
67040 Off ch=9 n=49 v=100
67200 On ch=9 n=58 v=91
67280 Off ch=9 n=51 v=100
67560 Off ch=9 n=58 v=64
68416 On ch=9 n=51 v=93
68656 On ch=9 n=49 v=93
68720 Off ch=9 n=51 v=100
68896 On ch=9 n=51 v=92
68960 Off ch=9 n=49 v=100
69120 On ch=9 n=58 v=91
69200 Off ch=9 n=51 v=100
69480 Off ch=9 n=58 v=64
70336 On ch=9 n=51 v=93
70576 On ch=9 n=49 v=93
70640 Off ch=9 n=51 v=100
70816 On ch=9 n=51 v=92
70880 Off ch=9 n=49 v=100
71040 On ch=9 n=58 v=91
71120 Off ch=9 n=51 v=100
71400 Off ch=9 n=58 v=64
72256 On ch=9 n=51 v=93
72496 On ch=9 n=49 v=93
72560 Off ch=9 n=51 v=100
72736 On ch=9 n=51 v=92
72800 Off ch=9 n=49 v=100
72960 On ch=9 n=59 v=91
73040 Off ch=9 n=51 v=100
73320 Off ch=9 n=59 v=64
74176 On ch=9 n=51 v=93
74416 On ch=9 n=49 v=93
74480 Off ch=9 n=51 v=100
74656 On ch=9 n=51 v=92
74720 Off ch=9 n=49 v=100
74880 On ch=9 n=59 v=91
74960 Off ch=9 n=51 v=100
75240 Off ch=9 n=59 v=64
76096 On ch=9 n=51 v=93
76336 On ch=9 n=49 v=93
76400 Off ch=9 n=51 v=100
76576 On ch=9 n=51 v=92
76640 Off ch=9 n=49 v=100
76800 On ch=9 n=56 v=91
76880 Off ch=9 n=51 v=100
77160 Off ch=9 n=56 v=64
78016 On ch=9 n=49 v=93
78256 On ch=9 n=51 v=93
78320 Off ch=9 n=49 v=100
78496 On ch=9 n=49 v=92
78560 Off ch=9 n=51 v=100
78720 On ch=9 n=56 v=91
78800 Off ch=9 n=49 v=100
79080 Off ch=9 n=56 v=64
79680 On ch=9 n=53 v=88
79680 On ch=9 n=56 v=88
79912 Off ch=9 n=56 v=64
79912 Off ch=9 n=53 v=64
81840 On ch=9 n=51 v=93
82080 On ch=9 n=49 v=93
82144 Off ch=9 n=51 v=100
82320 On ch=9 n=51 v=92
82384 Off ch=9 n=49 v=100
82544 On ch=9 n=58 v=91
82624 Off ch=9 n=51 v=100
82904 Off ch=9 n=58 v=64
83760 On ch=9 n=51 v=93
84000 On ch=9 n=49 v=93
84064 Off ch=9 n=51 v=100
84240 On ch=9 n=51 v=92
84304 Off ch=9 n=49 v=100
84464 On ch=9 n=58 v=91
84544 Off ch=9 n=51 v=100
84824 Off ch=9 n=58 v=64
85680 On ch=9 n=51 v=93
85920 On ch=9 n=49 v=93
85984 Off ch=9 n=51 v=100
86160 On ch=9 n=51 v=92
86224 Off ch=9 n=49 v=100
86384 On ch=9 n=58 v=91
86464 Off ch=9 n=51 v=100
86744 Off ch=9 n=58 v=64
87600 On ch=9 n=51 v=93
87840 On ch=9 n=49 v=93
87904 Off ch=9 n=51 v=100
88080 On ch=9 n=51 v=92
88144 Off ch=9 n=49 v=100
88304 On ch=9 n=59 v=91
88384 Off ch=9 n=51 v=100
88664 Off ch=9 n=59 v=64
89520 On ch=9 n=51 v=93
89760 On ch=9 n=49 v=93
89824 Off ch=9 n=51 v=100
90000 On ch=9 n=51 v=92
90064 Off ch=9 n=49 v=100
90224 On ch=9 n=59 v=91
90304 Off ch=9 n=51 v=100
90584 Off ch=9 n=59 v=64
91440 On ch=9 n=51 v=93
91680 On ch=9 n=49 v=93
91744 Off ch=9 n=51 v=100
91920 On ch=9 n=51 v=92
91984 Off ch=9 n=49 v=100
92144 On ch=9 n=56 v=91
92224 Off ch=9 n=51 v=100
92504 Off ch=9 n=56 v=64
93360 On ch=9 n=49 v=93
93600 On ch=9 n=51 v=93
93664 Off ch=9 n=49 v=100
93840 On ch=9 n=49 v=92
93904 Off ch=9 n=51 v=100
94064 On ch=9 n=56 v=91
94144 Off ch=9 n=49 v=100
94424 Off ch=9 n=56 v=64
95024 On ch=9 n=56 v=88
95024 On ch=9 n=53 v=88
95256 Off ch=9 n=53 v=64
95256 Off ch=9 n=56 v=64
96000 Par ch=9 c=11 v=101
97200 On ch=9 n=63 v=93
97200 On ch=9 n=51 v=93
97440 On ch=9 n=61 v=93
97440 On ch=9 n=49 v=93
97504 Off ch=9 n=51 v=100
97504 Off ch=9 n=63 v=100
97680 On ch=9 n=63 v=92
97680 On ch=9 n=51 v=92
97744 Off ch=9 n=49 v=100
97744 Off ch=9 n=61 v=100
97904 On ch=9 n=58 v=91
97984 Off ch=9 n=51 v=100
97984 Off ch=9 n=63 v=100
98264 Off ch=9 n=58 v=64
99120 On ch=9 n=63 v=93
99120 On ch=9 n=51 v=93
99360 On ch=9 n=61 v=93
99360 On ch=9 n=49 v=93
99424 Off ch=9 n=51 v=100
99424 Off ch=9 n=63 v=100
99600 On ch=9 n=63 v=92
99600 On ch=9 n=51 v=92
99664 Off ch=9 n=49 v=100
99664 Off ch=9 n=61 v=100
99824 On ch=9 n=58 v=91
99904 Off ch=9 n=51 v=100
99904 Off ch=9 n=63 v=100
100184 Off ch=9 n=58 v=64
101040 On ch=9 n=63 v=93
101040 On ch=9 n=51 v=93
101280 On ch=9 n=61 v=93
101280 On ch=9 n=49 v=93
101344 Off ch=9 n=51 v=100
101344 Off ch=9 n=63 v=100
101520 On ch=9 n=63 v=92
101520 On ch=9 n=51 v=92
101584 Off ch=9 n=49 v=100
101584 Off ch=9 n=61 v=100
101744 On ch=9 n=58 v=91
101824 Off ch=9 n=51 v=100
101824 Off ch=9 n=63 v=100
102104 Off ch=9 n=58 v=64
102960 On ch=9 n=63 v=93
102960 On ch=9 n=51 v=93
103200 On ch=9 n=61 v=93
103200 On ch=9 n=49 v=93
103264 Off ch=9 n=51 v=100
103264 Off ch=9 n=63 v=100
103440 On ch=9 n=63 v=92
103440 On ch=9 n=51 v=92
103504 Off ch=9 n=49 v=100
103504 Off ch=9 n=61 v=100
103664 On ch=9 n=59 v=91
103744 Off ch=9 n=51 v=100
103744 Off ch=9 n=63 v=100
104024 Off ch=9 n=59 v=64
104880 On ch=9 n=63 v=93
104880 On ch=9 n=51 v=93
105120 On ch=9 n=61 v=93
105120 On ch=9 n=49 v=93
105184 Off ch=9 n=51 v=100
105184 Off ch=9 n=63 v=100
105360 On ch=9 n=63 v=92
105360 On ch=9 n=51 v=92
105424 Off ch=9 n=49 v=100
105424 Off ch=9 n=61 v=100
105584 On ch=9 n=59 v=91
105664 Off ch=9 n=51 v=100
105664 Off ch=9 n=63 v=100
105944 Off ch=9 n=59 v=64
106800 On ch=9 n=63 v=93
106800 On ch=9 n=51 v=93
107040 On ch=9 n=61 v=93
107040 On ch=9 n=49 v=93
107104 Off ch=9 n=51 v=100
107104 Off ch=9 n=63 v=100
107280 On ch=9 n=63 v=92
107280 On ch=9 n=51 v=92
107344 Off ch=9 n=49 v=100
107344 Off ch=9 n=61 v=100
107504 On ch=9 n=58 v=91
107584 Off ch=9 n=51 v=100
107584 Off ch=9 n=63 v=100
107864 Off ch=9 n=58 v=64
108720 On ch=9 n=63 v=93
108720 On ch=9 n=51 v=93
108960 On ch=9 n=61 v=93
108960 On ch=9 n=49 v=93
109024 Off ch=9 n=51 v=100
109024 Off ch=9 n=63 v=100
109200 On ch=9 n=63 v=92
109200 On ch=9 n=51 v=92
109264 Off ch=9 n=49 v=100
109264 Off ch=9 n=61 v=100
109424 On ch=9 n=58 v=91
109504 Off ch=9 n=51 v=100
109504 Off ch=9 n=63 v=100
109784 Off ch=9 n=58 v=64
110384 On ch=9 n=56 v=88
110384 On ch=9 n=58 v=88
110616 Off ch=9 n=58 v=64
110616 Off ch=9 n=56 v=64
112560 On ch=9 n=51 v=93
112560 On ch=9 n=63 v=93
112800 On ch=9 n=49 v=93
112800 On ch=9 n=61 v=93
112864 Off ch=9 n=63 v=100
112864 Off ch=9 n=51 v=100
113040 On ch=9 n=51 v=92
113040 On ch=9 n=63 v=92
113104 Off ch=9 n=61 v=100
113104 Off ch=9 n=49 v=100
113264 On ch=9 n=58 v=91
113344 Off ch=9 n=63 v=100
113344 Off ch=9 n=51 v=100
113624 Off ch=9 n=58 v=64
114480 On ch=9 n=51 v=93
114480 On ch=9 n=63 v=93
114720 On ch=9 n=49 v=93
114720 On ch=9 n=61 v=93
114784 Off ch=9 n=63 v=100
114784 Off ch=9 n=51 v=100
114960 On ch=9 n=51 v=92
114960 On ch=9 n=63 v=92
115024 Off ch=9 n=61 v=100
115024 Off ch=9 n=49 v=100
115184 On ch=9 n=58 v=91
115264 Off ch=9 n=63 v=100
115264 Off ch=9 n=51 v=100
115544 Off ch=9 n=58 v=64
116400 On ch=9 n=51 v=93
116400 On ch=9 n=63 v=93
116640 On ch=9 n=49 v=93
116640 On ch=9 n=61 v=93
116704 Off ch=9 n=63 v=100
116704 Off ch=9 n=51 v=100
116880 On ch=9 n=51 v=92
116880 On ch=9 n=63 v=92
116944 Off ch=9 n=61 v=100
116944 Off ch=9 n=49 v=100
117104 On ch=9 n=58 v=91
117184 Off ch=9 n=63 v=100
117184 Off ch=9 n=51 v=100
117464 Off ch=9 n=58 v=64
118320 On ch=9 n=51 v=93
118320 On ch=9 n=63 v=93
118560 On ch=9 n=49 v=93
118560 On ch=9 n=61 v=93
118624 Off ch=9 n=63 v=100
118624 Off ch=9 n=51 v=100
118800 On ch=9 n=51 v=92
118800 On ch=9 n=63 v=92
118864 Off ch=9 n=61 v=100
118864 Off ch=9 n=49 v=100
119024 On ch=9 n=59 v=91
119104 Off ch=9 n=63 v=100
119104 Off ch=9 n=51 v=100
119384 Off ch=9 n=59 v=64
120240 On ch=9 n=51 v=93
120240 On ch=9 n=63 v=93
120480 On ch=9 n=49 v=93
120480 On ch=9 n=61 v=93
120544 Off ch=9 n=63 v=100
120544 Off ch=9 n=51 v=100
120720 On ch=9 n=51 v=92
120720 On ch=9 n=63 v=92
120784 Off ch=9 n=61 v=100
120784 Off ch=9 n=49 v=100
120944 On ch=9 n=59 v=91
121024 Off ch=9 n=63 v=100
121024 Off ch=9 n=51 v=100
121304 Off ch=9 n=59 v=64
122160 On ch=9 n=51 v=93
122160 On ch=9 n=63 v=93
122400 On ch=9 n=49 v=93
122400 On ch=9 n=61 v=93
122464 Off ch=9 n=63 v=100
122464 Off ch=9 n=51 v=100
122640 On ch=9 n=51 v=92
122640 On ch=9 n=63 v=92
122704 Off ch=9 n=61 v=100
122704 Off ch=9 n=49 v=100
122864 On ch=9 n=58 v=91
122944 Off ch=9 n=63 v=100
122944 Off ch=9 n=51 v=100
123224 Off ch=9 n=58 v=64
124080 On ch=9 n=51 v=93
124080 On ch=9 n=63 v=93
124320 On ch=9 n=49 v=93
124320 On ch=9 n=61 v=93
124384 Off ch=9 n=63 v=100
124384 Off ch=9 n=51 v=100
124560 On ch=9 n=51 v=92
124560 On ch=9 n=63 v=92
124624 Off ch=9 n=61 v=100
124624 Off ch=9 n=49 v=100
124784 On ch=9 n=58 v=91
124864 Off ch=9 n=63 v=100
124864 Off ch=9 n=51 v=100
125144 Off ch=9 n=58 v=64
125744 On ch=9 n=58 v=88
125744 On ch=9 n=56 v=88
125976 Off ch=9 n=56 v=64
125976 Off ch=9 n=58 v=64
127920 On ch=9 n=63 v=93
127920 On ch=9 n=51 v=93
128160 On ch=9 n=61 v=93
128160 On ch=9 n=49 v=93
128224 Off ch=9 n=51 v=100
128224 Off ch=9 n=63 v=100
128400 On ch=9 n=63 v=92
128400 On ch=9 n=51 v=92
128464 Off ch=9 n=49 v=100
128464 Off ch=9 n=61 v=100
128624 On ch=9 n=54 v=91
128704 Off ch=9 n=51 v=100
128704 Off ch=9 n=63 v=100
128984 Off ch=9 n=54 v=64
129840 On ch=9 n=63 v=93
129840 On ch=9 n=51 v=93
130080 On ch=9 n=61 v=93
130080 On ch=9 n=49 v=93
130144 Off ch=9 n=51 v=100
130144 Off ch=9 n=63 v=100
130320 On ch=9 n=63 v=92
130320 On ch=9 n=51 v=92
130384 Off ch=9 n=49 v=100
130384 Off ch=9 n=61 v=100
130544 On ch=9 n=56 v=91
130624 Off ch=9 n=51 v=100
130624 Off ch=9 n=63 v=100
130904 Off ch=9 n=56 v=64
131760 On ch=9 n=63 v=93
131760 On ch=9 n=51 v=93
132000 On ch=9 n=61 v=93
132000 On ch=9 n=49 v=93
132064 Off ch=9 n=51 v=100
132064 Off ch=9 n=63 v=100
132240 On ch=9 n=63 v=92
132240 On ch=9 n=51 v=92
132304 Off ch=9 n=49 v=100
132304 Off ch=9 n=61 v=100
132464 On ch=9 n=56 v=91
132544 Off ch=9 n=51 v=100
132544 Off ch=9 n=63 v=100
132824 Off ch=9 n=56 v=64
133680 On ch=9 n=63 v=93
133680 On ch=9 n=51 v=93
133920 On ch=9 n=61 v=93
133920 On ch=9 n=49 v=93
133984 Off ch=9 n=51 v=100
133984 Off ch=9 n=63 v=100
134160 On ch=9 n=63 v=92
134160 On ch=9 n=51 v=92
134224 Off ch=9 n=49 v=100
134224 Off ch=9 n=61 v=100
134384 On ch=9 n=58 v=91
134464 Off ch=9 n=51 v=100
134464 Off ch=9 n=63 v=100
134744 Off ch=9 n=58 v=64
135600 On ch=9 n=63 v=93
135600 On ch=9 n=51 v=93
135840 On ch=9 n=61 v=93
135840 On ch=9 n=49 v=93
135904 Off ch=9 n=51 v=100
135904 Off ch=9 n=63 v=100
136080 On ch=9 n=63 v=92
136080 On ch=9 n=51 v=92
136144 Off ch=9 n=49 v=100
136144 Off ch=9 n=61 v=100
136304 On ch=9 n=58 v=91
136384 Off ch=9 n=51 v=100
136384 Off ch=9 n=63 v=100
136664 Off ch=9 n=58 v=64
137520 On ch=9 n=63 v=93
137520 On ch=9 n=51 v=93
137760 On ch=9 n=61 v=93
137760 On ch=9 n=49 v=93
137824 Off ch=9 n=51 v=100
137824 Off ch=9 n=63 v=100
138000 On ch=9 n=63 v=92
138000 On ch=9 n=51 v=92
138064 Off ch=9 n=49 v=100
138064 Off ch=9 n=61 v=100
138240 On ch=9 n=58 v=91
138304 Off ch=9 n=51 v=100
138304 Off ch=9 n=63 v=100
138600 Off ch=9 n=58 v=64
139456 On ch=9 n=51 v=93
139456 On ch=9 n=63 v=93
139696 On ch=9 n=49 v=93
139696 On ch=9 n=61 v=93
139760 Off ch=9 n=63 v=100
139760 Off ch=9 n=51 v=100
139936 On ch=9 n=51 v=92
139936 On ch=9 n=63 v=92
140000 Off ch=9 n=61 v=100
140000 Off ch=9 n=49 v=100
140160 On ch=9 n=58 v=91
140240 Off ch=9 n=63 v=100
140240 Off ch=9 n=51 v=100
140520 Off ch=9 n=58 v=64
141376 On ch=9 n=51 v=93
141376 On ch=9 n=63 v=93
141616 On ch=9 n=49 v=93
141616 On ch=9 n=61 v=93
141680 Off ch=9 n=63 v=100
141680 Off ch=9 n=51 v=100
141856 On ch=9 n=51 v=92
141856 On ch=9 n=63 v=92
141920 Off ch=9 n=61 v=100
141920 Off ch=9 n=49 v=100
142160 Off ch=9 n=63 v=100
142160 Off ch=9 n=51 v=100
143280 On ch=9 n=51 v=93
143280 On ch=9 n=63 v=93
143520 On ch=9 n=49 v=93
143520 On ch=9 n=61 v=93
143584 Off ch=9 n=63 v=100
143584 Off ch=9 n=51 v=100
143760 On ch=9 n=51 v=92
143760 On ch=9 n=63 v=92
143824 Off ch=9 n=61 v=100
143824 Off ch=9 n=49 v=100
143984 On ch=9 n=54 v=91
144064 Off ch=9 n=63 v=100
144064 Off ch=9 n=51 v=100
144344 Off ch=9 n=54 v=64
145200 On ch=9 n=51 v=93
145200 On ch=9 n=63 v=93
145440 On ch=9 n=49 v=93
145440 On ch=9 n=61 v=93
145504 Off ch=9 n=63 v=100
145504 Off ch=9 n=51 v=100
145680 On ch=9 n=51 v=92
145680 On ch=9 n=63 v=92
145744 Off ch=9 n=61 v=100
145744 Off ch=9 n=49 v=100
145904 On ch=9 n=56 v=91
145984 Off ch=9 n=63 v=100
145984 Off ch=9 n=51 v=100
146264 Off ch=9 n=56 v=64
147120 On ch=9 n=51 v=93
147120 On ch=9 n=63 v=93
147360 On ch=9 n=49 v=93
147360 On ch=9 n=61 v=93
147424 Off ch=9 n=63 v=100
147424 Off ch=9 n=51 v=100
147600 On ch=9 n=51 v=92
147600 On ch=9 n=63 v=92
147664 Off ch=9 n=61 v=100
147664 Off ch=9 n=49 v=100
147824 On ch=9 n=56 v=91
147904 Off ch=9 n=63 v=100
147904 Off ch=9 n=51 v=100
148184 Off ch=9 n=56 v=64
149040 On ch=9 n=51 v=93
149040 On ch=9 n=63 v=93
149280 On ch=9 n=49 v=93
149280 On ch=9 n=61 v=93
149344 Off ch=9 n=63 v=100
149344 Off ch=9 n=51 v=100
149520 On ch=9 n=51 v=92
149520 On ch=9 n=63 v=92
149584 Off ch=9 n=61 v=100
149584 Off ch=9 n=49 v=100
149744 On ch=9 n=58 v=91
149824 Off ch=9 n=63 v=100
149824 Off ch=9 n=51 v=100
150104 Off ch=9 n=58 v=64
150960 On ch=9 n=51 v=93
150960 On ch=9 n=63 v=93
151200 On ch=9 n=49 v=93
151200 On ch=9 n=61 v=93
151264 Off ch=9 n=63 v=100
151264 Off ch=9 n=51 v=100
151440 On ch=9 n=51 v=92
151440 On ch=9 n=63 v=92
151504 Off ch=9 n=61 v=100
151504 Off ch=9 n=49 v=100
151664 On ch=9 n=58 v=91
151744 Off ch=9 n=63 v=100
151744 Off ch=9 n=51 v=100
152024 Off ch=9 n=58 v=64
152880 On ch=9 n=51 v=93
152880 On ch=9 n=63 v=93
153120 On ch=9 n=49 v=93
153120 On ch=9 n=61 v=93
153184 Off ch=9 n=63 v=100
153184 Off ch=9 n=51 v=100
153360 On ch=9 n=51 v=92
153360 On ch=9 n=63 v=92
153424 Off ch=9 n=61 v=100
153424 Off ch=9 n=49 v=100
153600 On ch=9 n=58 v=91
153664 Off ch=9 n=63 v=100
153664 Off ch=9 n=51 v=100
153960 Off ch=9 n=58 v=64
154816 On ch=9 n=63 v=93
154816 On ch=9 n=51 v=93
155056 On ch=9 n=61 v=93
155056 On ch=9 n=49 v=93
155120 Off ch=9 n=51 v=100
155120 Off ch=9 n=63 v=100
155296 On ch=9 n=63 v=92
155296 On ch=9 n=51 v=92
155360 Off ch=9 n=49 v=100
155360 Off ch=9 n=61 v=100
155520 On ch=9 n=58 v=91
155600 Off ch=9 n=51 v=100
155600 Off ch=9 n=63 v=100
155880 Off ch=9 n=58 v=64
156736 On ch=9 n=63 v=93
156736 On ch=9 n=51 v=93
156976 On ch=9 n=61 v=93
156976 On ch=9 n=49 v=93
157040 Off ch=9 n=51 v=100
157040 Off ch=9 n=63 v=100
157216 On ch=9 n=63 v=92
157216 On ch=9 n=51 v=92
157280 Off ch=9 n=49 v=100
157280 Off ch=9 n=61 v=100
157520 Off ch=9 n=51 v=100
157520 Off ch=9 n=63 v=100
158640 On ch=9 n=51 v=93
158640 On ch=9 n=63 v=93
158880 On ch=9 n=49 v=93
158880 On ch=9 n=61 v=93
158944 Off ch=9 n=63 v=100
158944 Off ch=9 n=51 v=100
159120 On ch=9 n=51 v=92
159120 On ch=9 n=63 v=92
159184 Off ch=9 n=61 v=100
159184 Off ch=9 n=49 v=100
159344 On ch=9 n=54 v=91
159424 Off ch=9 n=63 v=100
159424 Off ch=9 n=51 v=100
159704 Off ch=9 n=54 v=64
160560 On ch=9 n=51 v=93
160560 On ch=9 n=63 v=93
160800 On ch=9 n=49 v=93
160800 On ch=9 n=61 v=93
160864 Off ch=9 n=63 v=100
160864 Off ch=9 n=51 v=100
161040 On ch=9 n=51 v=92
161040 On ch=9 n=63 v=92
161104 Off ch=9 n=61 v=100
161104 Off ch=9 n=49 v=100
161264 On ch=9 n=56 v=91
161344 Off ch=9 n=63 v=100
161344 Off ch=9 n=51 v=100
161624 Off ch=9 n=56 v=64
162480 On ch=9 n=51 v=93
162480 On ch=9 n=63 v=93
162720 On ch=9 n=49 v=93
162720 On ch=9 n=61 v=93
162784 Off ch=9 n=63 v=100
162784 Off ch=9 n=51 v=100
162960 On ch=9 n=51 v=92
162960 On ch=9 n=63 v=92
163024 Off ch=9 n=61 v=100
163024 Off ch=9 n=49 v=100
163184 On ch=9 n=56 v=91
163264 Off ch=9 n=63 v=100
163264 Off ch=9 n=51 v=100
163544 Off ch=9 n=56 v=64
164400 On ch=9 n=51 v=93
164400 On ch=9 n=63 v=93
164640 On ch=9 n=49 v=93
164640 On ch=9 n=61 v=93
164704 Off ch=9 n=63 v=100
164704 Off ch=9 n=51 v=100
164880 On ch=9 n=51 v=92
164880 On ch=9 n=63 v=92
164944 Off ch=9 n=61 v=100
164944 Off ch=9 n=49 v=100
165104 On ch=9 n=58 v=91
165184 Off ch=9 n=63 v=100
165184 Off ch=9 n=51 v=100
165464 Off ch=9 n=58 v=64
166320 On ch=9 n=51 v=93
166320 On ch=9 n=63 v=93
166560 On ch=9 n=49 v=93
166560 On ch=9 n=61 v=93
166624 Off ch=9 n=63 v=100
166624 Off ch=9 n=51 v=100
166800 On ch=9 n=51 v=92
166800 On ch=9 n=63 v=92
166864 Off ch=9 n=61 v=100
166864 Off ch=9 n=49 v=100
167024 On ch=9 n=58 v=91
167104 Off ch=9 n=63 v=100
167104 Off ch=9 n=51 v=100
167384 Off ch=9 n=58 v=64
168240 On ch=9 n=51 v=93
168240 On ch=9 n=63 v=93
168480 On ch=9 n=49 v=93
168480 On ch=9 n=61 v=93
168544 Off ch=9 n=63 v=100
168544 Off ch=9 n=51 v=100
168720 On ch=9 n=51 v=92
168720 On ch=9 n=63 v=92
168784 Off ch=9 n=61 v=100
168784 Off ch=9 n=49 v=100
168960 On ch=9 n=58 v=91
169024 Off ch=9 n=63 v=100
169024 Off ch=9 n=51 v=100
169320 Off ch=9 n=58 v=64
170176 On ch=9 n=63 v=93
170176 On ch=9 n=51 v=93
170416 On ch=9 n=61 v=93
170416 On ch=9 n=49 v=93
170480 Off ch=9 n=51 v=100
170480 Off ch=9 n=63 v=100
170656 On ch=9 n=63 v=92
170656 On ch=9 n=51 v=92
170720 Off ch=9 n=49 v=100
170720 Off ch=9 n=61 v=100
170880 On ch=9 n=58 v=91
170960 Off ch=9 n=51 v=100
170960 Off ch=9 n=63 v=100
171240 Off ch=9 n=58 v=64
172096 On ch=9 n=63 v=93
172096 On ch=9 n=51 v=93
172336 On ch=9 n=61 v=93
172336 On ch=9 n=49 v=93
172400 Off ch=9 n=51 v=100
172400 Off ch=9 n=63 v=100
172576 On ch=9 n=63 v=92
172576 On ch=9 n=51 v=92
172640 Off ch=9 n=49 v=100
172640 Off ch=9 n=61 v=100
172880 Off ch=9 n=51 v=100
172880 Off ch=9 n=63 v=100
174000 On ch=9 n=63 v=93
174000 On ch=9 n=51 v=93
174240 On ch=9 n=61 v=93
174240 On ch=9 n=49 v=93
174304 Off ch=9 n=51 v=100
174304 Off ch=9 n=63 v=100
174480 On ch=9 n=63 v=92
174480 On ch=9 n=51 v=92
174544 Off ch=9 n=49 v=100
174544 Off ch=9 n=61 v=100
174704 On ch=9 n=54 v=91
174784 Off ch=9 n=51 v=100
174784 Off ch=9 n=63 v=100
175064 Off ch=9 n=54 v=64
175920 On ch=9 n=63 v=93
175920 On ch=9 n=51 v=93
176160 On ch=9 n=61 v=93
176160 On ch=9 n=49 v=93
176224 Off ch=9 n=51 v=100
176224 Off ch=9 n=63 v=100
176400 On ch=9 n=63 v=92
176400 On ch=9 n=51 v=92
176464 Off ch=9 n=49 v=100
176464 Off ch=9 n=61 v=100
176624 On ch=9 n=56 v=91
176704 Off ch=9 n=51 v=100
176704 Off ch=9 n=63 v=100
176984 Off ch=9 n=56 v=64
177840 On ch=9 n=63 v=93
177840 On ch=9 n=51 v=93
178080 On ch=9 n=61 v=93
178080 On ch=9 n=49 v=93
178144 Off ch=9 n=51 v=100
178144 Off ch=9 n=63 v=100
178320 On ch=9 n=63 v=92
178320 On ch=9 n=51 v=92
178384 Off ch=9 n=49 v=100
178384 Off ch=9 n=61 v=100
178544 On ch=9 n=56 v=91
178624 Off ch=9 n=51 v=100
178624 Off ch=9 n=63 v=100
178904 Off ch=9 n=56 v=64
179760 On ch=9 n=63 v=93
179760 On ch=9 n=51 v=93
180000 On ch=9 n=61 v=93
180000 On ch=9 n=49 v=93
180064 Off ch=9 n=51 v=100
180064 Off ch=9 n=63 v=100
180240 On ch=9 n=63 v=92
180240 On ch=9 n=51 v=92
180304 Off ch=9 n=49 v=100
180304 Off ch=9 n=61 v=100
180464 On ch=9 n=58 v=91
180544 Off ch=9 n=51 v=100
180544 Off ch=9 n=63 v=100
180824 Off ch=9 n=58 v=64
181680 On ch=9 n=63 v=93
181680 On ch=9 n=51 v=93
181920 On ch=9 n=61 v=93
181920 On ch=9 n=49 v=93
181984 Off ch=9 n=51 v=100
181984 Off ch=9 n=63 v=100
182160 On ch=9 n=63 v=92
182160 On ch=9 n=51 v=92
182224 Off ch=9 n=49 v=100
182224 Off ch=9 n=61 v=100
182384 On ch=9 n=58 v=91
182464 Off ch=9 n=51 v=100
182464 Off ch=9 n=63 v=100
182744 Off ch=9 n=58 v=64
183600 On ch=9 n=63 v=93
183600 On ch=9 n=51 v=93
183840 On ch=9 n=61 v=93
183840 On ch=9 n=49 v=93
183904 Off ch=9 n=51 v=100
183904 Off ch=9 n=63 v=100
184080 On ch=9 n=63 v=92
184080 On ch=9 n=51 v=92
184144 Off ch=9 n=49 v=100
184144 Off ch=9 n=61 v=100
184320 On ch=9 n=58 v=91
184320 Par ch=9 c=11 v=101
184384 Off ch=9 n=51 v=100
184384 Off ch=9 n=63 v=100
184680 Off ch=9 n=58 v=64
185536 On ch=9 n=51 v=93
185536 On ch=9 n=63 v=93
185776 On ch=9 n=49 v=93
185776 On ch=9 n=61 v=93
185840 Off ch=9 n=63 v=100
185840 Off ch=9 n=51 v=100
186016 On ch=9 n=51 v=92
186016 On ch=9 n=63 v=92
186080 Off ch=9 n=61 v=100
186080 Off ch=9 n=49 v=100
186240 On ch=9 n=58 v=91
186320 Off ch=9 n=63 v=100
186320 Off ch=9 n=51 v=100
186600 Off ch=9 n=58 v=64
187128 Par ch=9 c=11 v=73
187200 On ch=9 n=56 v=88
187200 On ch=9 n=53 v=88
187458 Par ch=9 c=11 v=72
187578 Par ch=9 c=11 v=71
187668 Par ch=9 c=11 v=70
187758 Par ch=9 c=11 v=69
187818 Par ch=9 c=11 v=68
187878 Par ch=9 c=11 v=67
187938 Par ch=9 c=11 v=66
187998 Par ch=9 c=11 v=65
188040 Par ch=9 c=11 v=64
188160 Off ch=9 n=53 v=64
188160 Off ch=9 n=56 v=64
188160 On ch=9 n=51 v=88
188160 On ch=9 n=54 v=88
188160 Par ch=9 c=11 v=54
189060 Par ch=9 c=11 v=55
189420 Par ch=9 c=11 v=56
189690 Par ch=9 c=11 v=57
189930 Par ch=9 c=11 v=58
190140 Par ch=9 c=11 v=59
190320 Par ch=9 c=11 v=60
190470 Par ch=9 c=11 v=61
190650 Par ch=9 c=11 v=62
190800 Par ch=9 c=11 v=63
190920 Par ch=9 c=11 v=64
191070 Par ch=9 c=11 v=65
191190 Par ch=9 c=11 v=66
191310 Par ch=9 c=11 v=67
191424 Par ch=9 c=11 v=68
192000 Off ch=9 n=54 v=64
192000 Off ch=9 n=51 v=64
192000 On ch=9 n=53 v=88
192000 On ch=9 n=56 v=88
192000 Par ch=9 c=11 v=57
193110 Par ch=9 c=11 v=58
193560 Par ch=9 c=11 v=59
193920 Par ch=9 c=11 v=60
194220 Par ch=9 c=11 v=61
194490 Par ch=9 c=11 v=62
194730 Par ch=9 c=11 v=63
194940 Par ch=9 c=11 v=64
195120 Par ch=9 c=11 v=65
195330 Par ch=9 c=11 v=66
195488 Par ch=9 c=11 v=67
195840 Off ch=9 n=56 v=64
195840 Off ch=9 n=53 v=64
195840 On ch=9 n=54 v=88
195840 On ch=9 n=58 v=88
195840 Par ch=9 c=11 v=57
195870 Par ch=9 c=11 v=58
195960 Par ch=9 c=11 v=59
196080 Par ch=9 c=11 v=60
196200 Par ch=9 c=11 v=61
196350 Par ch=9 c=11 v=62
196500 Par ch=9 c=11 v=63
196740 Par ch=9 c=11 v=64
197504 Par ch=9 c=11 v=65
199184 Par ch=9 c=11 v=64
199744 Par ch=9 c=11 v=65
200614 Par ch=9 c=11 v=64
200944 Par ch=9 c=11 v=63
201214 Par ch=9 c=11 v=62
201454 Par ch=9 c=11 v=61
201634 Par ch=9 c=11 v=60
201814 Par ch=9 c=11 v=59
201994 Par ch=9 c=11 v=58
202144 Par ch=9 c=11 v=57
202294 Par ch=9 c=11 v=56
202444 Par ch=9 c=11 v=55
202564 Par ch=9 c=11 v=54
202684 Par ch=9 c=11 v=53
202804 Par ch=9 c=11 v=52
202924 Par ch=9 c=11 v=51
203044 Par ch=9 c=11 v=50
203134 Par ch=9 c=11 v=49
203254 Par ch=9 c=11 v=48
203344 Par ch=9 c=11 v=47
203400 Off ch=9 n=58 v=64
203400 Off ch=9 n=54 v=64
203434 Par ch=9 c=11 v=46
203520 On ch=9 n=51 v=88
203520 On ch=9 n=54 v=88
203520 Par ch=9 c=11 v=45
204930 Par ch=9 c=11 v=52
205500 Par ch=9 c=11 v=53
205950 Par ch=9 c=11 v=54
206340 Par ch=9 c=11 v=55
206670 Par ch=9 c=11 v=56
206944 Par ch=9 c=11 v=57
207360 Off ch=9 n=54 v=64
207360 Off ch=9 n=51 v=64
207360 On ch=9 n=53 v=88
207360 On ch=9 n=56 v=88
207360 Par ch=9 c=11 v=49
208290 Par ch=9 c=11 v=50
208650 Par ch=9 c=11 v=51
208950 Par ch=9 c=11 v=52
209190 Par ch=9 c=11 v=53
209400 Par ch=9 c=11 v=54
209610 Par ch=9 c=11 v=55
209790 Par ch=9 c=11 v=56
209940 Par ch=9 c=11 v=57
210090 Par ch=9 c=11 v=58
210240 Par ch=9 c=11 v=59
210390 Par ch=9 c=11 v=60
210510 Par ch=9 c=11 v=61
210660 Par ch=9 c=11 v=62
210780 Par ch=9 c=11 v=63
210880 Par ch=9 c=11 v=64
211200 Off ch=9 n=56 v=64
211200 Off ch=9 n=53 v=64
211200 On ch=9 n=54 v=88
211200 On ch=9 n=58 v=88
211200 Par ch=9 c=11 v=60
211230 Par ch=9 c=11 v=61
211320 Par ch=9 c=11 v=62
211440 Par ch=9 c=11 v=63
211560 Par ch=9 c=11 v=64
211680 Par ch=9 c=11 v=65
211860 Par ch=9 c=11 v=66
212070 Par ch=9 c=11 v=67
213248 Par ch=9 c=11 v=67
214268 Par ch=9 c=11 v=66
214688 Par ch=9 c=11 v=65
214988 Par ch=9 c=11 v=64
215258 Par ch=9 c=11 v=63
215498 Par ch=9 c=11 v=62
215708 Par ch=9 c=11 v=61
215918 Par ch=9 c=11 v=60
216098 Par ch=9 c=11 v=59
216278 Par ch=9 c=11 v=58
216428 Par ch=9 c=11 v=57
216578 Par ch=9 c=11 v=56
216728 Par ch=9 c=11 v=55
216878 Par ch=9 c=11 v=54
216984 Off ch=9 n=58 v=64
216992 Par ch=9 c=11 v=53
217080 Off ch=9 n=54 v=64
219520 Par ch=9 c=11 v=87
220096 On ch=9 n=63 v=93
220096 On ch=9 n=51 v=93
220336 On ch=9 n=61 v=93
220336 On ch=9 n=49 v=93
220400 Off ch=9 n=51 v=100
220400 Off ch=9 n=63 v=100
220576 On ch=9 n=63 v=92
220576 On ch=9 n=51 v=92
220640 Off ch=9 n=49 v=100
220640 Off ch=9 n=61 v=100
220800 On ch=9 n=58 v=91
220880 Off ch=9 n=51 v=100
220880 Off ch=9 n=63 v=100
221160 Off ch=9 n=58 v=64
222016 On ch=9 n=63 v=93
222016 On ch=9 n=51 v=93
222256 On ch=9 n=61 v=93
222256 On ch=9 n=49 v=93
222320 Off ch=9 n=51 v=100
222320 Off ch=9 n=63 v=100
222496 On ch=9 n=63 v=92
222496 On ch=9 n=51 v=92
222560 Off ch=9 n=49 v=100
222560 Off ch=9 n=61 v=100
222720 On ch=9 n=58 v=91
222800 Off ch=9 n=51 v=100
222800 Off ch=9 n=63 v=100
223080 Off ch=9 n=58 v=64
223936 On ch=9 n=63 v=93
223936 On ch=9 n=51 v=93
224176 On ch=9 n=61 v=93
224176 On ch=9 n=49 v=93
224240 Off ch=9 n=51 v=100
224240 Off ch=9 n=63 v=100
224416 On ch=9 n=63 v=92
224416 On ch=9 n=51 v=92
224480 Off ch=9 n=49 v=100
224480 Off ch=9 n=61 v=100
224640 On ch=9 n=58 v=91
224720 Off ch=9 n=51 v=100
224720 Off ch=9 n=63 v=100
225000 Off ch=9 n=58 v=64
225856 On ch=9 n=63 v=93
225856 On ch=9 n=51 v=93
226096 On ch=9 n=61 v=93
226096 On ch=9 n=49 v=93
226160 Off ch=9 n=51 v=100
226160 Off ch=9 n=63 v=100
226336 On ch=9 n=63 v=92
226336 On ch=9 n=51 v=92
226400 Off ch=9 n=49 v=100
226400 Off ch=9 n=61 v=100
226560 On ch=9 n=58 v=91
226640 Off ch=9 n=51 v=100
226640 Off ch=9 n=63 v=100
226920 Off ch=9 n=58 v=64
227776 On ch=9 n=63 v=93
227776 On ch=9 n=51 v=93
228016 On ch=9 n=61 v=93
228016 On ch=9 n=49 v=93
228080 Off ch=9 n=51 v=100
228080 Off ch=9 n=63 v=100
228256 On ch=9 n=63 v=92
228256 On ch=9 n=51 v=92
228320 Off ch=9 n=49 v=100
228320 Off ch=9 n=61 v=100
228480 On ch=9 n=58 v=91
228560 Off ch=9 n=51 v=100
228560 Off ch=9 n=63 v=100
228840 Off ch=9 n=58 v=64
229696 On ch=9 n=63 v=93
229696 On ch=9 n=51 v=93
229936 On ch=9 n=61 v=93
229936 On ch=9 n=49 v=93
230000 Off ch=9 n=51 v=100
230000 Off ch=9 n=63 v=100
230176 On ch=9 n=63 v=92
230176 On ch=9 n=51 v=92
230240 Off ch=9 n=49 v=100
230240 Off ch=9 n=61 v=100
230416 On ch=9 n=58 v=91
230480 Off ch=9 n=51 v=100
230480 Off ch=9 n=63 v=100
230776 Off ch=9 n=58 v=64
231632 On ch=9 n=51 v=93
231632 On ch=9 n=63 v=93
231872 On ch=9 n=49 v=93
231872 On ch=9 n=61 v=93
231936 Off ch=9 n=63 v=100
231936 Off ch=9 n=51 v=100
232112 On ch=9 n=51 v=92
232112 On ch=9 n=63 v=92
232176 Off ch=9 n=61 v=100
232176 Off ch=9 n=49 v=100
232336 On ch=9 n=58 v=91
232416 Off ch=9 n=63 v=100
232416 Off ch=9 n=51 v=100
232696 Off ch=9 n=58 v=64
233552 On ch=9 n=51 v=93
233552 On ch=9 n=63 v=93
233792 On ch=9 n=49 v=93
233792 On ch=9 n=61 v=93
233856 Off ch=9 n=63 v=100
233856 Off ch=9 n=51 v=100
234032 On ch=9 n=51 v=92
234032 On ch=9 n=63 v=92
234096 Off ch=9 n=61 v=100
234096 Off ch=9 n=49 v=100
234336 Off ch=9 n=63 v=100
234336 Off ch=9 n=51 v=100
235456 On ch=9 n=51 v=93
235456 On ch=9 n=63 v=93
235696 On ch=9 n=49 v=93
235696 On ch=9 n=61 v=93
235760 Off ch=9 n=63 v=100
235760 Off ch=9 n=51 v=100
235936 On ch=9 n=51 v=92
235936 On ch=9 n=63 v=92
236000 Off ch=9 n=61 v=100
236000 Off ch=9 n=49 v=100
236160 On ch=9 n=58 v=91
236240 Off ch=9 n=63 v=100
236240 Off ch=9 n=51 v=100
236520 Off ch=9 n=58 v=64
237376 On ch=9 n=51 v=93
237376 On ch=9 n=63 v=93
237616 On ch=9 n=49 v=93
237616 On ch=9 n=61 v=93
237680 Off ch=9 n=63 v=100
237680 Off ch=9 n=51 v=100
237856 On ch=9 n=51 v=92
237856 On ch=9 n=63 v=92
237920 Off ch=9 n=61 v=100
237920 Off ch=9 n=49 v=100
238080 On ch=9 n=58 v=91
238160 Off ch=9 n=63 v=100
238160 Off ch=9 n=51 v=100
238440 Off ch=9 n=58 v=64
239296 On ch=9 n=51 v=93
239296 On ch=9 n=63 v=93
239536 On ch=9 n=49 v=93
239536 On ch=9 n=61 v=93
239600 Off ch=9 n=63 v=100
239600 Off ch=9 n=51 v=100
239776 On ch=9 n=51 v=92
239776 On ch=9 n=63 v=92
239840 Off ch=9 n=61 v=100
239840 Off ch=9 n=49 v=100
240000 On ch=9 n=58 v=91
240080 Off ch=9 n=63 v=100
240080 Off ch=9 n=51 v=100
240360 Off ch=9 n=58 v=64
241216 On ch=9 n=51 v=93
241216 On ch=9 n=63 v=93
241456 On ch=9 n=49 v=93
241456 On ch=9 n=61 v=93
241520 Off ch=9 n=63 v=100
241520 Off ch=9 n=51 v=100
241696 On ch=9 n=51 v=92
241696 On ch=9 n=63 v=92
241760 Off ch=9 n=61 v=100
241760 Off ch=9 n=49 v=100
241920 On ch=9 n=58 v=91
242000 Off ch=9 n=63 v=100
242000 Off ch=9 n=51 v=100
242280 Off ch=9 n=58 v=64
243136 On ch=9 n=51 v=93
243136 On ch=9 n=63 v=93
243376 On ch=9 n=49 v=93
243376 On ch=9 n=61 v=93
243440 Off ch=9 n=63 v=100
243440 Off ch=9 n=51 v=100
243616 On ch=9 n=51 v=92
243616 On ch=9 n=63 v=92
243680 Off ch=9 n=61 v=100
243680 Off ch=9 n=49 v=100
243840 On ch=9 n=58 v=91
243920 Off ch=9 n=63 v=100
243920 Off ch=9 n=51 v=100
244200 Off ch=9 n=58 v=64
245056 On ch=9 n=51 v=93
245056 On ch=9 n=63 v=93
245296 On ch=9 n=49 v=93
245296 On ch=9 n=61 v=93
245360 Off ch=9 n=63 v=100
245360 Off ch=9 n=51 v=100
245536 On ch=9 n=51 v=92
245536 On ch=9 n=63 v=92
245600 Off ch=9 n=61 v=100
245600 Off ch=9 n=49 v=100
245776 On ch=9 n=58 v=91
245840 Off ch=9 n=63 v=100
245840 Off ch=9 n=51 v=100
246136 Off ch=9 n=58 v=64
246992 On ch=9 n=63 v=93
246992 On ch=9 n=51 v=93
247232 On ch=9 n=61 v=93
247232 On ch=9 n=49 v=93
247296 Off ch=9 n=51 v=100
247296 Off ch=9 n=63 v=100
247472 On ch=9 n=63 v=92
247472 On ch=9 n=51 v=92
247536 Off ch=9 n=49 v=100
247536 Off ch=9 n=61 v=100
247696 On ch=9 n=58 v=91
247776 Off ch=9 n=51 v=100
247776 Off ch=9 n=63 v=100
248056 Off ch=9 n=58 v=64
248912 On ch=9 n=63 v=93
248912 On ch=9 n=51 v=93
249152 On ch=9 n=61 v=93
249152 On ch=9 n=49 v=93
249216 Off ch=9 n=51 v=100
249216 Off ch=9 n=63 v=100
249392 On ch=9 n=63 v=92
249392 On ch=9 n=51 v=92
249456 Off ch=9 n=49 v=100
249456 Off ch=9 n=61 v=100
249600 Par ch=9 c=11 v=82
249696 Off ch=9 n=51 v=100
249696 Off ch=9 n=63 v=100
250816 On ch=9 n=51 v=93
251056 On ch=9 n=49 v=93
251120 Off ch=9 n=51 v=100
251296 On ch=9 n=51 v=92
251360 Off ch=9 n=49 v=100
251520 On ch=9 n=58 v=91
251600 Off ch=9 n=51 v=100
251880 Off ch=9 n=58 v=64
252736 On ch=9 n=51 v=93
252976 On ch=9 n=49 v=93
253040 Off ch=9 n=51 v=100
253216 On ch=9 n=51 v=92
253280 Off ch=9 n=49 v=100
253440 On ch=9 n=58 v=91
253520 Off ch=9 n=51 v=100
253800 Off ch=9 n=58 v=64
254656 On ch=9 n=51 v=93
254896 On ch=9 n=49 v=93
254960 Off ch=9 n=51 v=100
255136 On ch=9 n=51 v=92
255200 Off ch=9 n=49 v=100
255360 On ch=9 n=58 v=91
255440 Off ch=9 n=51 v=100
255720 Off ch=9 n=58 v=64
256576 On ch=9 n=51 v=93
256816 On ch=9 n=49 v=93
256880 Off ch=9 n=51 v=100
257056 On ch=9 n=51 v=92
257120 Off ch=9 n=49 v=100
257280 On ch=9 n=59 v=91
257360 Off ch=9 n=51 v=100
257640 Off ch=9 n=59 v=64
258120 Par ch=9 c=11 v=83
258496 On ch=9 n=51 v=93
258736 On ch=9 n=49 v=93
258800 Off ch=9 n=51 v=100
258976 On ch=9 n=51 v=92
259040 Off ch=9 n=49 v=100
259200 On ch=9 n=59 v=91
259280 Off ch=9 n=51 v=100
259560 Off ch=9 n=59 v=64
260416 On ch=9 n=51 v=93
260656 On ch=9 n=49 v=93
260720 Off ch=9 n=51 v=100
260896 On ch=9 n=51 v=92
260960 Off ch=9 n=49 v=100
261120 On ch=9 n=56 v=91
261200 Off ch=9 n=51 v=100
261480 Off ch=9 n=56 v=64
261630 Par ch=9 c=11 v=84
262336 On ch=9 n=49 v=93
262576 On ch=9 n=51 v=93
262640 Off ch=9 n=49 v=100
262816 On ch=9 n=49 v=92
262880 Off ch=9 n=51 v=100
263040 On ch=9 n=56 v=91
263120 Off ch=9 n=49 v=100
263400 Off ch=9 n=56 v=64
264000 On ch=9 n=56 v=88
264000 On ch=9 n=53 v=88
264232 Off ch=9 n=53 v=64
264232 Off ch=9 n=56 v=64
264330 Par ch=9 c=11 v=85
266160 On ch=9 n=51 v=93
266400 On ch=9 n=49 v=93
266464 Off ch=9 n=51 v=100
266610 Par ch=9 c=11 v=86
266640 On ch=9 n=51 v=92
266704 Off ch=9 n=49 v=100
266864 On ch=9 n=58 v=91
266944 Off ch=9 n=51 v=100
267224 Off ch=9 n=58 v=64
268080 On ch=9 n=51 v=93
268320 On ch=9 n=49 v=93
268384 Off ch=9 n=51 v=100
268560 On ch=9 n=51 v=92
268620 Par ch=9 c=11 v=87
268624 Off ch=9 n=49 v=100
268784 On ch=9 n=58 v=91
268864 Off ch=9 n=51 v=100
269144 Off ch=9 n=58 v=64
270000 On ch=9 n=51 v=93
270240 On ch=9 n=49 v=93
270304 Off ch=9 n=51 v=100
270420 Par ch=9 c=11 v=88
270480 On ch=9 n=51 v=92
270544 Off ch=9 n=49 v=100
270704 On ch=9 n=58 v=91
270784 Off ch=9 n=51 v=100
271064 Off ch=9 n=58 v=64
271920 On ch=9 n=51 v=93
272100 Par ch=9 c=11 v=89
272160 On ch=9 n=49 v=93
272224 Off ch=9 n=51 v=100
272400 On ch=9 n=51 v=92
272464 Off ch=9 n=49 v=100
272624 On ch=9 n=59 v=91
272704 Off ch=9 n=51 v=100
272984 Off ch=9 n=59 v=64
273630 Par ch=9 c=11 v=90
273840 On ch=9 n=51 v=93
274080 On ch=9 n=49 v=93
274144 Off ch=9 n=51 v=100
274320 On ch=9 n=51 v=92
274384 Off ch=9 n=49 v=100
274544 On ch=9 n=59 v=91
274624 Off ch=9 n=51 v=100
274904 Off ch=9 n=59 v=64
275100 Par ch=9 c=11 v=91
275760 On ch=9 n=51 v=93
276000 On ch=9 n=49 v=93
276064 Off ch=9 n=51 v=100
276240 On ch=9 n=51 v=92
276304 Off ch=9 n=49 v=100
276464 On ch=9 n=56 v=91
276480 Par ch=9 c=11 v=92
276544 Off ch=9 n=51 v=100
276824 Off ch=9 n=56 v=64
277680 On ch=9 n=49 v=93
277770 Par ch=9 c=11 v=93
277920 On ch=9 n=51 v=93
277984 Off ch=9 n=49 v=100
278160 On ch=9 n=49 v=92
278224 Off ch=9 n=51 v=100
278384 On ch=9 n=56 v=91
278464 Off ch=9 n=49 v=100
278744 Off ch=9 n=56 v=64
279030 Par ch=9 c=11 v=94
279344 On ch=9 n=53 v=88
279344 On ch=9 n=56 v=88
279576 Off ch=9 n=56 v=64
279576 Off ch=9 n=53 v=64
280224 Par ch=9 c=11 v=95
280320 Par ch=9 c=11 v=99
281536 On ch=9 n=51 v=93
281776 On ch=9 n=49 v=93
281840 Off ch=9 n=51 v=100
282016 On ch=9 n=51 v=92
282080 Off ch=9 n=49 v=100
282240 On ch=9 n=58 v=91
282320 Off ch=9 n=51 v=100
282600 Off ch=9 n=58 v=64
283456 On ch=9 n=51 v=93
283696 On ch=9 n=49 v=93
283760 Off ch=9 n=51 v=100
283936 On ch=9 n=51 v=92
284000 Off ch=9 n=49 v=100
284160 On ch=9 n=58 v=91
284240 Off ch=9 n=51 v=100
284520 Off ch=9 n=58 v=64
285376 On ch=9 n=51 v=93
285616 On ch=9 n=49 v=93
285680 Off ch=9 n=51 v=100
285856 On ch=9 n=51 v=92
285920 Off ch=9 n=49 v=100
286080 On ch=9 n=58 v=91
286160 Off ch=9 n=51 v=100
286440 Off ch=9 n=58 v=64
287296 On ch=9 n=51 v=93
287536 On ch=9 n=49 v=93
287600 Off ch=9 n=51 v=100
287776 On ch=9 n=51 v=92
287840 Off ch=9 n=49 v=100
288000 On ch=9 n=59 v=91
288080 Off ch=9 n=51 v=100
288360 Off ch=9 n=59 v=64
289216 On ch=9 n=51 v=93
289456 On ch=9 n=49 v=93
289520 Off ch=9 n=51 v=100
289696 On ch=9 n=51 v=92
289760 Off ch=9 n=49 v=100
289920 On ch=9 n=59 v=91
290000 Off ch=9 n=51 v=100
290280 Off ch=9 n=59 v=64
291136 On ch=9 n=51 v=93
291376 On ch=9 n=49 v=93
291440 Off ch=9 n=51 v=100
291616 On ch=9 n=51 v=92
291680 Off ch=9 n=49 v=100
291840 On ch=9 n=56 v=91
291920 Off ch=9 n=51 v=100
292200 Off ch=9 n=56 v=64
293056 On ch=9 n=49 v=93
293296 On ch=9 n=51 v=93
293360 Off ch=9 n=49 v=100
293536 On ch=9 n=49 v=92
293600 Off ch=9 n=51 v=100
293760 On ch=9 n=56 v=91
293840 Off ch=9 n=49 v=100
294120 Off ch=9 n=56 v=64
294720 On ch=9 n=53 v=88
294720 On ch=9 n=56 v=88
294952 Off ch=9 n=56 v=64
294952 Off ch=9 n=53 v=64
296880 On ch=9 n=51 v=93
297120 On ch=9 n=49 v=93
297184 Off ch=9 n=51 v=100
297360 On ch=9 n=51 v=92
297424 Off ch=9 n=49 v=100
297584 On ch=9 n=58 v=91
297664 Off ch=9 n=51 v=100
297944 Off ch=9 n=58 v=64
298800 On ch=9 n=51 v=93
299040 On ch=9 n=49 v=93
299104 Off ch=9 n=51 v=100
299280 On ch=9 n=51 v=92
299344 Off ch=9 n=49 v=100
299504 On ch=9 n=58 v=91
299584 Off ch=9 n=51 v=100
299864 Off ch=9 n=58 v=64
300720 On ch=9 n=51 v=93
300960 On ch=9 n=49 v=93
301024 Off ch=9 n=51 v=100
301200 On ch=9 n=51 v=92
301264 Off ch=9 n=49 v=100
301424 On ch=9 n=58 v=91
301504 Off ch=9 n=51 v=100
301784 Off ch=9 n=58 v=64
302640 On ch=9 n=51 v=93
302880 On ch=9 n=49 v=93
302944 Off ch=9 n=51 v=100
303120 On ch=9 n=51 v=92
303184 Off ch=9 n=49 v=100
303344 On ch=9 n=59 v=91
303424 Off ch=9 n=51 v=100
303704 Off ch=9 n=59 v=64
304560 On ch=9 n=51 v=93
304800 On ch=9 n=49 v=93
304864 Off ch=9 n=51 v=100
305040 On ch=9 n=51 v=92
305104 Off ch=9 n=49 v=100
305264 On ch=9 n=59 v=91
305344 Off ch=9 n=51 v=100
305624 Off ch=9 n=59 v=64
306480 On ch=9 n=51 v=93
306720 On ch=9 n=49 v=93
306784 Off ch=9 n=51 v=100
306960 On ch=9 n=51 v=92
307024 Off ch=9 n=49 v=100
307184 On ch=9 n=56 v=91
307264 Off ch=9 n=51 v=100
307544 Off ch=9 n=56 v=64
308400 On ch=9 n=49 v=93
308640 On ch=9 n=51 v=93
308704 Off ch=9 n=49 v=100
308880 On ch=9 n=49 v=92
308944 Off ch=9 n=51 v=100
309104 On ch=9 n=56 v=91
309184 Off ch=9 n=49 v=100
309464 Off ch=9 n=56 v=64
310064 On ch=9 n=56 v=88
310064 On ch=9 n=53 v=88
310296 Off ch=9 n=53 v=64
310296 Off ch=9 n=56 v=64
402240 On ch=9 n=59 v=87
402500 Off ch=9 n=59 v=64
402720 On ch=9 n=62 v=87
402980 Off ch=9 n=62 v=64
403200 On ch=9 n=62 v=87
403680 On ch=9 n=64 v=87
403700 Off ch=9 n=62 v=64
403940 Off ch=9 n=64 v=64
404160 On ch=9 n=59 v=87
404420 Off ch=9 n=59 v=64
404640 On ch=9 n=57 v=87
404900 Off ch=9 n=57 v=64
405120 On ch=9 n=59 v=87
405900 Off ch=9 n=59 v=64
406080 On ch=9 n=57 v=87
406560 On ch=9 n=59 v=87
406620 Off ch=9 n=57 v=64
406820 Off ch=9 n=59 v=64
407040 On ch=9 n=62 v=87
407520 On ch=9 n=64 v=87
407560 Off ch=9 n=62 v=64
407780 Off ch=9 n=64 v=64
408000 On ch=9 n=59 v=87
408260 Off ch=9 n=59 v=64
408480 On ch=9 n=57 v=87
408740 Off ch=9 n=57 v=64
408960 On ch=9 n=59 v=87
409920 On ch=9 n=57 v=87
409980 Off ch=9 n=59 v=64
410180 Off ch=9 n=57 v=64
410400 On ch=9 n=59 v=87
410660 Off ch=9 n=59 v=64
410880 On ch=9 n=57 v=87
411360 On ch=9 n=55 v=87
411380 Off ch=9 n=57 v=64
411640 Off ch=9 n=55 v=64
411840 On ch=9 n=54 v=87
412080 Off ch=9 n=54 v=64
412320 On ch=9 n=50 v=87
412660 Off ch=9 n=50 v=64
412800 On ch=9 n=52 v=87
413760 On ch=9 n=50 v=87
413776 Off ch=9 n=52 v=64
413972 Off ch=9 n=50 v=64
414240 On ch=9 n=52 v=87
414500 Off ch=9 n=52 v=64
414720 On ch=9 n=54 v=87
415200 On ch=9 n=55 v=87
415260 Off ch=9 n=54 v=64
415460 Off ch=9 n=55 v=64
415680 On ch=9 n=57 v=87
415900 Off ch=9 n=57 v=64
416160 On ch=9 n=59 v=87
416380 Off ch=9 n=59 v=64
416640 On ch=9 n=52 v=87
417600 On ch=9 n=59 v=87
417640 Off ch=9 n=52 v=64
417860 Off ch=9 n=59 v=64
418080 On ch=9 n=62 v=87
418340 Off ch=9 n=62 v=64
418560 On ch=9 n=62 v=88
419040 On ch=9 n=64 v=88
419060 Off ch=9 n=62 v=64
419300 Off ch=9 n=64 v=64
419520 On ch=9 n=59 v=88
419780 Off ch=9 n=59 v=64
420000 On ch=9 n=57 v=88
420260 Off ch=9 n=57 v=64
420480 On ch=9 n=59 v=88
421260 Off ch=9 n=59 v=64
421440 On ch=9 n=57 v=88
421920 On ch=9 n=59 v=88
421980 Off ch=9 n=57 v=64
422180 Off ch=9 n=59 v=64
422400 On ch=9 n=62 v=88
422880 On ch=9 n=64 v=88
422920 Off ch=9 n=62 v=64
423140 Off ch=9 n=64 v=64
423360 On ch=9 n=59 v=88
423620 Off ch=9 n=59 v=64
423840 On ch=9 n=57 v=88
424100 Off ch=9 n=57 v=64
424320 On ch=9 n=59 v=88
425280 On ch=9 n=64 v=88
425340 Off ch=9 n=59 v=64
425540 Off ch=9 n=64 v=64
425760 On ch=9 n=66 v=88
426020 Off ch=9 n=66 v=64
426240 On ch=9 n=67 v=88
426720 On ch=9 n=66 v=88
426740 Off ch=9 n=67 v=64
427000 Off ch=9 n=66 v=64
427200 On ch=9 n=64 v=88
427440 Off ch=9 n=64 v=64
427680 On ch=9 n=62 v=88
427900 Off ch=9 n=62 v=64
428160 On ch=9 n=59 v=88
429088 Off ch=9 n=59 v=64
429120 On ch=9 n=57 v=88
429600 On ch=9 n=59 v=88
429620 Off ch=9 n=57 v=64
429860 Off ch=9 n=59 v=64
430080 On ch=9 n=57 v=88
430080 Par ch=9 c=11 v=101
430560 On ch=9 n=55 v=88
430620 Off ch=9 n=57 v=64
430820 Off ch=9 n=55 v=64
431040 On ch=9 n=54 v=88
431260 Off ch=9 n=54 v=64
431520 On ch=9 n=50 v=88
431740 Off ch=9 n=50 v=64
432000 On ch=9 n=52 v=88
432368 Off ch=9 n=52 v=64
432960 On ch=9 n=59 v=88
432960 On ch=9 n=64 v=56
433220 Off ch=9 n=59 v=64
433440 Off ch=9 n=64 v=64
433440 On ch=9 n=62 v=88
433440 On ch=9 n=71 v=88
433700 Off ch=9 n=62 v=64
433920 On ch=9 n=62 v=88
433920 On ch=9 n=69 v=88
433956 Off ch=9 n=71 v=64
434400 On ch=9 n=64 v=88
434400 On ch=9 n=67 v=88
434420 Off ch=9 n=69 v=64
434420 Off ch=9 n=62 v=64
434660 Off ch=9 n=67 v=64
434660 Off ch=9 n=64 v=64
434880 On ch=9 n=59 v=88
434880 On ch=9 n=67 v=88
435140 Off ch=9 n=67 v=64
435140 Off ch=9 n=59 v=64
435360 On ch=9 n=57 v=88
435360 On ch=9 n=66 v=88
435620 Off ch=9 n=66 v=64
435620 Off ch=9 n=57 v=64
435840 On ch=9 n=59 v=88
435840 On ch=9 n=67 v=88
436620 Off ch=9 n=59 v=64
436652 Off ch=9 n=67 v=64
436800 On ch=9 n=57 v=88
436800 On ch=9 n=69 v=88
437280 On ch=9 n=59 v=88
437280 On ch=9 n=71 v=88
437340 Off ch=9 n=69 v=64
437340 Off ch=9 n=57 v=64
437540 Off ch=9 n=71 v=64
437540 Off ch=9 n=59 v=64
437760 On ch=9 n=62 v=88
437760 On ch=9 n=69 v=88
438240 On ch=9 n=64 v=88
438240 On ch=9 n=66 v=88
438280 Off ch=9 n=69 v=64
438280 Off ch=9 n=62 v=64
438500 Off ch=9 n=66 v=64
438500 Off ch=9 n=64 v=64
438720 On ch=9 n=59 v=88
438720 On ch=9 n=66 v=88
438980 Off ch=9 n=66 v=64
438980 Off ch=9 n=59 v=64
439200 On ch=9 n=57 v=88
439200 On ch=9 n=64 v=88
439460 Off ch=9 n=64 v=64
439460 Off ch=9 n=57 v=64
439680 On ch=9 n=59 v=88
439680 On ch=9 n=66 v=88
440640 On ch=9 n=57 v=88
440640 On ch=9 n=66 v=88
440700 Off ch=9 n=66 v=64
440700 Off ch=9 n=59 v=64
440900 Off ch=9 n=66 v=64
440900 Off ch=9 n=57 v=64
441120 On ch=9 n=59 v=88
441120 On ch=9 n=67 v=88
441380 Off ch=9 n=67 v=64
441380 Off ch=9 n=59 v=64
441600 On ch=9 n=57 v=88
441600 On ch=9 n=66 v=88
442080 On ch=9 n=55 v=88
442080 On ch=9 n=64 v=88
442100 Off ch=9 n=66 v=64
442100 Off ch=9 n=57 v=64
442360 Off ch=9 n=64 v=64
442360 Off ch=9 n=55 v=64
442560 On ch=9 n=54 v=88
442560 On ch=9 n=62 v=88
442800 Off ch=9 n=54 v=64
443040 On ch=9 n=50 v=88
443380 Off ch=9 n=50 v=64
443380 Off ch=9 n=62 v=64
443520 On ch=9 n=52 v=88
443520 On ch=9 n=64 v=88
444448 Off ch=9 n=52 v=64
444480 On ch=9 n=50 v=88
444480 On ch=9 n=57 v=88
444496 Off ch=9 n=64 v=64
444960 On ch=9 n=52 v=88
444960 On ch=9 n=59 v=88
444980 Off ch=9 n=57 v=64
444980 Off ch=9 n=50 v=64
445220 Off ch=9 n=59 v=64
445220 Off ch=9 n=52 v=64
445440 On ch=9 n=54 v=88
445440 On ch=9 n=62 v=88
445920 On ch=9 n=55 v=88
445920 On ch=9 n=64 v=88
445980 Off ch=9 n=62 v=64
445980 Off ch=9 n=54 v=64
446180 Off ch=9 n=64 v=64
446180 Off ch=9 n=55 v=64
446400 On ch=9 n=57 v=88
446400 On ch=9 n=66 v=88
446620 Off ch=9 n=66 v=64
446620 Off ch=9 n=57 v=64
446880 On ch=9 n=59 v=88
446880 On ch=9 n=67 v=88
447100 Off ch=9 n=67 v=64
447100 Off ch=9 n=59 v=64
447360 On ch=9 n=52 v=88
447360 On ch=9 n=67 v=88
447840 On ch=9 n=66 v=56
447856 Off ch=9 n=67 v=64
448064 Off ch=9 n=66 v=64
448080 Off ch=9 n=52 v=64
448320 On ch=9 n=59 v=88
448320 On ch=9 n=64 v=56
448580 Off ch=9 n=59 v=64
448800 On ch=9 n=62 v=88
448800 On ch=9 n=71 v=56
448864 Off ch=9 n=64 v=64
449060 Off ch=9 n=62 v=64
449280 Off ch=9 n=71 v=64
449280 On ch=9 n=62 v=88
449280 On ch=9 n=69 v=88
449760 On ch=9 n=64 v=88
449760 On ch=9 n=67 v=88
449780 Off ch=9 n=69 v=64
449780 Off ch=9 n=62 v=64
450020 Off ch=9 n=67 v=64
450020 Off ch=9 n=64 v=64
450240 On ch=9 n=59 v=88
450240 On ch=9 n=67 v=88
450500 Off ch=9 n=67 v=64
450500 Off ch=9 n=59 v=64
450720 On ch=9 n=57 v=88
450720 On ch=9 n=66 v=88
450980 Off ch=9 n=66 v=64
450980 Off ch=9 n=57 v=64
451200 On ch=9 n=59 v=88
451200 On ch=9 n=67 v=88
451980 Off ch=9 n=59 v=64
452012 Off ch=9 n=67 v=64
452160 On ch=9 n=57 v=88
452160 On ch=9 n=69 v=88
452640 On ch=9 n=59 v=88
452640 On ch=9 n=71 v=88
452700 Off ch=9 n=69 v=64
452700 Off ch=9 n=57 v=64
452900 Off ch=9 n=71 v=64
452900 Off ch=9 n=59 v=64
453120 On ch=9 n=62 v=88
453120 On ch=9 n=69 v=88
453600 On ch=9 n=64 v=88
453600 On ch=9 n=66 v=88
453640 Off ch=9 n=69 v=64
453640 Off ch=9 n=62 v=64
453860 Off ch=9 n=66 v=64
453860 Off ch=9 n=64 v=64
454080 On ch=9 n=59 v=88
454080 On ch=9 n=66 v=88
454340 Off ch=9 n=66 v=64
454340 Off ch=9 n=59 v=64
454560 On ch=9 n=57 v=88
454560 On ch=9 n=64 v=88
454820 Off ch=9 n=64 v=64
454820 Off ch=9 n=57 v=64
455040 On ch=9 n=59 v=88
455040 On ch=9 n=66 v=88
456000 On ch=9 n=64 v=88
456000 On ch=9 n=67 v=88
456060 Off ch=9 n=66 v=64
456060 Off ch=9 n=59 v=64
456260 Off ch=9 n=67 v=64
456260 Off ch=9 n=64 v=64
456480 On ch=9 n=66 v=88
456480 On ch=9 n=69 v=88
456740 Off ch=9 n=69 v=64
456740 Off ch=9 n=66 v=64
456960 On ch=9 n=67 v=88
456960 On ch=9 n=71 v=88
457440 On ch=9 n=66 v=88
457440 On ch=9 n=69 v=88
457460 Off ch=9 n=71 v=64
457460 Off ch=9 n=67 v=64
457720 Off ch=9 n=69 v=64
457720 Off ch=9 n=66 v=64
457920 On ch=9 n=64 v=88
457920 On ch=9 n=67 v=88
458160 Off ch=9 n=67 v=64
458160 Off ch=9 n=64 v=64
458400 On ch=9 n=62 v=88
458400 On ch=9 n=66 v=88
458596 Off ch=9 n=66 v=64
458620 Off ch=9 n=62 v=64
458880 On ch=9 n=59 v=88
458880 On ch=9 n=64 v=88
459808 Off ch=9 n=59 v=64
459840 On ch=9 n=57 v=88
459840 On ch=9 n=66 v=88
459872 Off ch=9 n=64 v=64
460116 Off ch=9 n=66 v=64
460320 On ch=9 n=59 v=88
460320 On ch=9 n=67 v=88
460340 Off ch=9 n=57 v=64
460580 Off ch=9 n=67 v=64
460580 Off ch=9 n=59 v=64
460800 On ch=9 n=57 v=88
460800 On ch=9 n=66 v=88
461280 On ch=9 n=55 v=88
461280 On ch=9 n=64 v=88
461340 Off ch=9 n=66 v=64
461340 Off ch=9 n=57 v=64
461540 Off ch=9 n=64 v=64
461540 Off ch=9 n=55 v=64
461760 On ch=9 n=54 v=88
461760 On ch=9 n=62 v=88
461980 Off ch=9 n=54 v=64
462240 On ch=9 n=50 v=88
462460 Off ch=9 n=50 v=64
462720 On ch=9 n=52 v=88
462720 On ch=9 n=64 v=88
462780 Off ch=9 n=62 v=64
462960 Off ch=9 n=52 v=64
462992 Off ch=9 n=64 v=64
464640 On ch=9 n=60 v=56
464640 Par ch=9 c=11 v=39
466740 Par ch=9 c=11 v=40
467610 Par ch=9 c=11 v=41
468270 Par ch=9 c=11 v=42
468480 Off ch=9 n=60 v=64
468480 On ch=9 n=57 v=56
468840 Par ch=9 c=11 v=43
469320 Par ch=9 c=11 v=44
469770 Par ch=9 c=11 v=45
470160 Par ch=9 c=11 v=46
470550 Par ch=9 c=11 v=47
470910 Par ch=9 c=11 v=48
471240 Par ch=9 c=11 v=49
471570 Par ch=9 c=11 v=50
471870 Par ch=9 c=11 v=51
472160 Par ch=9 c=11 v=52
472320 Off ch=9 n=57 v=64
472320 On ch=9 n=59 v=56
472320 Par ch=9 c=11 v=52
474120 Par ch=9 c=11 v=51
474840 Par ch=9 c=11 v=50
475410 Par ch=9 c=11 v=49
475890 Par ch=9 c=11 v=48
476310 Par ch=9 c=11 v=47
476670 Par ch=9 c=11 v=46
477030 Par ch=9 c=11 v=45
477360 Par ch=9 c=11 v=44
477660 Par ch=9 c=11 v=43
477930 Par ch=9 c=11 v=42
478200 Par ch=9 c=11 v=41
478470 Par ch=9 c=11 v=40
478740 Par ch=9 c=11 v=39
478980 Par ch=9 c=11 v=38
479190 Par ch=9 c=11 v=37
479430 Par ch=9 c=11 v=36
479640 Par ch=9 c=11 v=35
479840 Par ch=9 c=11 v=34
480000 Off ch=9 n=59 v=64
480000 On ch=9 n=60 v=56
480000 Par ch=9 c=11 v=34
481860 Par ch=9 c=11 v=35
482610 Par ch=9 c=11 v=36
483180 Par ch=9 c=11 v=37
483690 Par ch=9 c=11 v=38
483840 Off ch=9 n=60 v=64
483840 On ch=9 n=57 v=56
484110 Par ch=9 c=11 v=39
484500 Par ch=9 c=11 v=40
484860 Par ch=9 c=11 v=41
485190 Par ch=9 c=11 v=42
485520 Par ch=9 c=11 v=43
485820 Par ch=9 c=11 v=44
486090 Par ch=9 c=11 v=45
486360 Par ch=9 c=11 v=46
486630 Par ch=9 c=11 v=47
486870 Par ch=9 c=11 v=48
487104 Par ch=9 c=11 v=49
487680 Off ch=9 n=57 v=64
487680 On ch=9 n=59 v=56
487680 Par ch=9 c=11 v=48
489150 Par ch=9 c=11 v=47
489750 Par ch=9 c=11 v=46
490200 Par ch=9 c=11 v=45
490590 Par ch=9 c=11 v=44
490920 Par ch=9 c=11 v=43
491250 Par ch=9 c=11 v=42
491520 Par ch=9 c=11 v=41
491790 Par ch=9 c=11 v=40
492030 Par ch=9 c=11 v=39
492270 Par ch=9 c=11 v=38
492480 Par ch=9 c=11 v=37
492720 Par ch=9 c=11 v=36
492900 Par ch=9 c=11 v=35
493110 Par ch=9 c=11 v=34
493290 Par ch=9 c=11 v=33
493470 Par ch=9 c=11 v=32
493650 Par ch=9 c=11 v=31
493830 Par ch=9 c=11 v=30
494010 Par ch=9 c=11 v=29
494160 Par ch=9 c=11 v=28
494340 Par ch=9 c=11 v=27
494490 Par ch=9 c=11 v=26
494640 Par ch=9 c=11 v=25
494790 Par ch=9 c=11 v=24
494940 Par ch=9 c=11 v=23
495060 Par ch=9 c=11 v=22
495200 Par ch=9 c=11 v=21
495360 Off ch=9 n=59 v=64
495360 On ch=9 n=60 v=56
495360 Par ch=9 c=11 v=28
497910 Par ch=9 c=11 v=29
498960 Par ch=9 c=11 v=30
499200 Off ch=9 n=60 v=64
499200 On ch=9 n=57 v=56
499740 Par ch=9 c=11 v=31
500430 Par ch=9 c=11 v=32
501030 Par ch=9 c=11 v=33
501570 Par ch=9 c=11 v=34
502050 Par ch=9 c=11 v=35
502530 Par ch=9 c=11 v=36
502944 Par ch=9 c=11 v=37
503040 Off ch=9 n=57 v=64
503040 On ch=9 n=59 v=56
503040 Par ch=9 c=11 v=31
503070 Par ch=9 c=11 v=32
503220 Par ch=9 c=11 v=33
503370 Par ch=9 c=11 v=34
503580 Par ch=9 c=11 v=35
503820 Par ch=9 c=11 v=36
504120 Par ch=9 c=11 v=37
504864 Par ch=9 c=11 v=35
505854 Par ch=9 c=11 v=34
506274 Par ch=9 c=11 v=33
506574 Par ch=9 c=11 v=32
506844 Par ch=9 c=11 v=31
507054 Par ch=9 c=11 v=30
507264 Par ch=9 c=11 v=29
507474 Par ch=9 c=11 v=28
507654 Par ch=9 c=11 v=27
507804 Par ch=9 c=11 v=26
507984 Par ch=9 c=11 v=25
508134 Par ch=9 c=11 v=24
508284 Par ch=9 c=11 v=23
508404 Par ch=9 c=11 v=22
508554 Par ch=9 c=11 v=21
508674 Par ch=9 c=11 v=20
508794 Par ch=9 c=11 v=19
508914 Par ch=9 c=11 v=18
509034 Par ch=9 c=11 v=17
509154 Par ch=9 c=11 v=16
509244 Par ch=9 c=11 v=15
509364 Par ch=9 c=11 v=14
509484 Par ch=9 c=11 v=13
509574 Par ch=9 c=11 v=12
509664 Par ch=9 c=11 v=11
509784 Par ch=9 c=11 v=10
509874 Par ch=9 c=11 v=9
509964 Par ch=9 c=11 v=8
510054 Par ch=9 c=11 v=7
510144 Par ch=9 c=11 v=6
510234 Par ch=9 c=11 v=5
510324 Par ch=9 c=11 v=4
510414 Par ch=9 c=11 v=3
510504 Par ch=9 c=11 v=2
510594 Par ch=9 c=11 v=1
510656 Par ch=9 c=11 v=0
510720 Off ch=9 n=59 v=64
510720 Meta TrkEnd
TrkEnd
MTrk
0 SeqSpec 43 00 01 ff
0 Meta TrkName "Violoncello"
1920 PrCh ch=10 p=6
1930 Par ch=10 c=7 v=100
1940 Par ch=10 c=10 v=64
1950 Par ch=10 c=11 v=127
1960 Par ch=10 c=20 v=127
1970 Par ch=10 c=91 v=0
1980 Par ch=10 c=93 v=0
1990 Par ch=10 c=94 v=0
2000 Par ch=10 c=101 v=0
2010 Par ch=10 c=100 v=0
2020 Par ch=10 c=6 v=2
2030 Par ch=10 c=101 v=127
2040 Par ch=10 c=100 v=127
34560 On ch=10 n=39 v=100
34560 Par ch=10 c=11 v=120
34912 Off ch=10 n=39 v=100
35040 On ch=10 n=39 v=100
35280 Off ch=10 n=39 v=100
35280 On ch=10 n=51 v=100
35520 Off ch=10 n=51 v=100
36480 On ch=10 n=39 v=100
36832 Off ch=10 n=39 v=100
36960 On ch=10 n=39 v=100
37200 Off ch=10 n=39 v=100
37200 On ch=10 n=51 v=100
37440 Off ch=10 n=51 v=100
38400 On ch=10 n=39 v=100
38752 Off ch=10 n=39 v=100
38880 On ch=10 n=39 v=100
39120 Off ch=10 n=39 v=100
39120 On ch=10 n=51 v=100
39360 Off ch=10 n=51 v=100
40320 On ch=10 n=39 v=100
40608 Off ch=10 n=39 v=100
40800 On ch=10 n=51 v=100
41088 Off ch=10 n=51 v=100
41280 On ch=10 n=44 v=100
41568 Off ch=10 n=44 v=100
41760 On ch=10 n=56 v=100
42048 Off ch=10 n=56 v=100
42240 On ch=10 n=39 v=100
42592 Off ch=10 n=39 v=100
42720 On ch=10 n=39 v=100
42960 Off ch=10 n=39 v=100
42960 On ch=10 n=51 v=100
43200 Off ch=10 n=51 v=100
44160 On ch=10 n=39 v=100
44512 Off ch=10 n=39 v=100
44640 On ch=10 n=39 v=100
44880 Off ch=10 n=39 v=100
44880 On ch=10 n=51 v=100
45120 Off ch=10 n=51 v=100
46080 On ch=10 n=39 v=100
46432 Off ch=10 n=39 v=100
46560 On ch=10 n=39 v=100
46800 Off ch=10 n=39 v=100
46800 On ch=10 n=51 v=100
47040 Off ch=10 n=51 v=100
48000 On ch=10 n=44 v=100
48320 Off ch=10 n=44 v=100
48480 On ch=10 n=56 v=100
48800 Off ch=10 n=56 v=100
48960 On ch=10 n=42 v=100
49280 Off ch=10 n=42 v=100
49440 On ch=10 n=54 v=100
49760 Off ch=10 n=54 v=100
49920 On ch=10 n=39 v=100
50272 Off ch=10 n=39 v=100
50400 On ch=10 n=39 v=100
50640 Off ch=10 n=39 v=100
50640 On ch=10 n=51 v=100
50880 Off ch=10 n=51 v=100
51840 On ch=10 n=39 v=100
52192 Off ch=10 n=39 v=100
52320 On ch=10 n=39 v=100
52560 Off ch=10 n=39 v=100
52560 On ch=10 n=51 v=100
52800 Off ch=10 n=51 v=100
53760 On ch=10 n=39 v=100
54112 Off ch=10 n=39 v=100
54240 On ch=10 n=39 v=100
54480 Off ch=10 n=39 v=100
54480 On ch=10 n=51 v=100
54720 Off ch=10 n=51 v=100
55680 On ch=10 n=39 v=100
55968 Off ch=10 n=39 v=100
56160 On ch=10 n=51 v=100
56448 Off ch=10 n=51 v=100
56640 On ch=10 n=44 v=100
56928 Off ch=10 n=44 v=100
57120 On ch=10 n=56 v=100
57408 Off ch=10 n=56 v=100
57600 On ch=10 n=39 v=100
57952 Off ch=10 n=39 v=100
58080 On ch=10 n=39 v=100
58320 Off ch=10 n=39 v=100
58320 On ch=10 n=51 v=100
58560 Off ch=10 n=51 v=100
59520 On ch=10 n=39 v=100
59872 Off ch=10 n=39 v=100
60000 On ch=10 n=39 v=100
60240 Off ch=10 n=39 v=100
60240 On ch=10 n=51 v=100
60480 Off ch=10 n=51 v=100
61440 On ch=10 n=39 v=100
61792 Off ch=10 n=39 v=100
61920 On ch=10 n=39 v=100
62160 Off ch=10 n=39 v=100
62160 On ch=10 n=51 v=100
62400 Off ch=10 n=51 v=100
63360 On ch=10 n=44 v=100
63680 Off ch=10 n=44 v=100
63840 On ch=10 n=56 v=100
64160 Off ch=10 n=56 v=100
64320 On ch=10 n=42 v=100
64640 Off ch=10 n=42 v=100
64800 On ch=10 n=54 v=100
65120 Off ch=10 n=54 v=100
65280 On ch=10 n=51 v=100
65280 Par ch=10 c=11 v=113
65632 Off ch=10 n=51 v=100
65760 On ch=10 n=51 v=100
66000 Off ch=10 n=51 v=100
66000 On ch=10 n=63 v=100
66240 Off ch=10 n=63 v=100
67200 On ch=10 n=51 v=100
67552 Off ch=10 n=51 v=100
67680 On ch=10 n=51 v=100
67920 Off ch=10 n=51 v=100
67920 On ch=10 n=63 v=100
68160 Off ch=10 n=63 v=100
69120 On ch=10 n=51 v=100
69472 Off ch=10 n=51 v=100
69600 On ch=10 n=51 v=100
69840 Off ch=10 n=51 v=100
69840 On ch=10 n=63 v=100
70080 Off ch=10 n=63 v=100
71040 On ch=10 n=51 v=100
71328 Off ch=10 n=51 v=100
71520 On ch=10 n=63 v=100
71808 Off ch=10 n=63 v=100
72000 On ch=10 n=56 v=100
72288 Off ch=10 n=56 v=100
72480 On ch=10 n=44 v=100
72768 Off ch=10 n=44 v=100
72960 On ch=10 n=47 v=100
73312 Off ch=10 n=47 v=100
73440 On ch=10 n=47 v=100
73680 Off ch=10 n=47 v=100
73680 On ch=10 n=59 v=100
73920 Off ch=10 n=59 v=100
74880 On ch=10 n=47 v=100
75232 Off ch=10 n=47 v=100
75360 On ch=10 n=47 v=100
75600 Off ch=10 n=47 v=100
75600 On ch=10 n=59 v=100
75840 Off ch=10 n=59 v=100
76800 On ch=10 n=49 v=100
77152 Off ch=10 n=49 v=100
77280 On ch=10 n=49 v=100
77520 Off ch=10 n=49 v=100
77520 On ch=10 n=61 v=100
77760 Off ch=10 n=61 v=100
78720 On ch=10 n=50 v=100
79040 Off ch=10 n=50 v=100
79200 On ch=10 n=62 v=100
79520 Off ch=10 n=62 v=100
79680 On ch=10 n=56 v=100
80000 Off ch=10 n=56 v=100
80160 On ch=10 n=44 v=100
80480 Off ch=10 n=44 v=100
80640 On ch=10 n=51 v=100
80992 Off ch=10 n=51 v=100
81120 On ch=10 n=51 v=100
81360 Off ch=10 n=51 v=100
81360 On ch=10 n=63 v=100
81600 Off ch=10 n=63 v=100
82560 On ch=10 n=51 v=100
82912 Off ch=10 n=51 v=100
83040 On ch=10 n=51 v=100
83280 Off ch=10 n=51 v=100
83280 On ch=10 n=63 v=100
83520 Off ch=10 n=63 v=100
84480 On ch=10 n=51 v=100
84832 Off ch=10 n=51 v=100
84960 On ch=10 n=51 v=100
85200 Off ch=10 n=51 v=100
85200 On ch=10 n=63 v=100
85440 Off ch=10 n=63 v=100
86400 On ch=10 n=51 v=100
86688 Off ch=10 n=51 v=100
86880 On ch=10 n=63 v=100
87168 Off ch=10 n=63 v=100
87360 On ch=10 n=56 v=100
87648 Off ch=10 n=56 v=100
87840 On ch=10 n=44 v=100
88128 Off ch=10 n=44 v=100
88320 On ch=10 n=47 v=100
88672 Off ch=10 n=47 v=100
88800 On ch=10 n=47 v=100
89040 Off ch=10 n=47 v=100
89040 On ch=10 n=59 v=100
89280 Off ch=10 n=59 v=100
90240 On ch=10 n=47 v=100
90592 Off ch=10 n=47 v=100
90720 On ch=10 n=47 v=100
90960 Off ch=10 n=47 v=100
90960 On ch=10 n=59 v=100
91200 Off ch=10 n=59 v=100
92160 On ch=10 n=49 v=100
92512 Off ch=10 n=49 v=100
92640 On ch=10 n=49 v=100
92880 Off ch=10 n=49 v=100
92880 On ch=10 n=61 v=100
93120 Off ch=10 n=61 v=100
94080 On ch=10 n=50 v=100
94400 Off ch=10 n=50 v=100
94560 On ch=10 n=62 v=100
94880 Off ch=10 n=62 v=100
95040 On ch=10 n=56 v=100
95360 Off ch=10 n=56 v=100
95520 On ch=10 n=44 v=100
95840 Off ch=10 n=44 v=100
96000 On ch=10 n=51 v=100
96352 Off ch=10 n=51 v=100
96480 On ch=10 n=51 v=100
96720 Off ch=10 n=51 v=100
96720 On ch=10 n=63 v=100
96960 Off ch=10 n=63 v=100
97920 On ch=10 n=51 v=100
98272 Off ch=10 n=51 v=100
98400 On ch=10 n=51 v=100
98640 Off ch=10 n=51 v=100
98640 On ch=10 n=63 v=100
98880 Off ch=10 n=63 v=100
99840 On ch=10 n=51 v=100
100192 Off ch=10 n=51 v=100
100320 On ch=10 n=51 v=100
100560 Off ch=10 n=51 v=100
100560 On ch=10 n=63 v=100
100800 Off ch=10 n=63 v=100
101760 On ch=10 n=51 v=100
102048 Off ch=10 n=51 v=100
102240 On ch=10 n=63 v=100
102528 Off ch=10 n=63 v=100
102720 On ch=10 n=56 v=100
103008 Off ch=10 n=56 v=100
103200 On ch=10 n=44 v=100
103488 Off ch=10 n=44 v=100
103680 On ch=10 n=47 v=100
104032 Off ch=10 n=47 v=100
104160 On ch=10 n=47 v=100
104400 Off ch=10 n=47 v=100
104400 On ch=10 n=59 v=100
104640 Off ch=10 n=59 v=100
105600 On ch=10 n=47 v=100
105952 Off ch=10 n=47 v=100
106080 On ch=10 n=47 v=100
106320 Off ch=10 n=47 v=100
106320 On ch=10 n=59 v=100
106560 Off ch=10 n=59 v=100
107520 On ch=10 n=49 v=100
107872 Off ch=10 n=49 v=100
108000 On ch=10 n=49 v=100
108240 Off ch=10 n=49 v=100
108240 On ch=10 n=61 v=100
108480 Off ch=10 n=61 v=100
109440 On ch=10 n=50 v=100
109760 Off ch=10 n=50 v=100
109920 On ch=10 n=62 v=100
110240 Off ch=10 n=62 v=100
110400 On ch=10 n=56 v=100
110720 Off ch=10 n=56 v=100
110880 On ch=10 n=44 v=100
111200 Off ch=10 n=44 v=100
111360 On ch=10 n=51 v=100
111712 Off ch=10 n=51 v=100
111840 On ch=10 n=51 v=100
112080 Off ch=10 n=51 v=100
112080 On ch=10 n=63 v=100
112320 Off ch=10 n=63 v=100
113280 On ch=10 n=51 v=100
113632 Off ch=10 n=51 v=100
113760 On ch=10 n=51 v=100
114000 Off ch=10 n=51 v=100
114000 On ch=10 n=63 v=100
114240 Off ch=10 n=63 v=100
115200 On ch=10 n=51 v=100
115552 Off ch=10 n=51 v=100
115680 On ch=10 n=51 v=100
115920 Off ch=10 n=51 v=100
115920 On ch=10 n=63 v=100
116160 Off ch=10 n=63 v=100
117120 On ch=10 n=51 v=100
117408 Off ch=10 n=51 v=100
117600 On ch=10 n=63 v=100
117888 Off ch=10 n=63 v=100
118080 On ch=10 n=56 v=100
118368 Off ch=10 n=56 v=100
118560 On ch=10 n=44 v=100
118848 Off ch=10 n=44 v=100
119040 On ch=10 n=47 v=100
119392 Off ch=10 n=47 v=100
119520 On ch=10 n=47 v=100
119760 Off ch=10 n=47 v=100
119760 On ch=10 n=59 v=100
120000 Off ch=10 n=59 v=100
120960 On ch=10 n=47 v=100
121312 Off ch=10 n=47 v=100
121440 On ch=10 n=47 v=100
121680 Off ch=10 n=47 v=100
121680 On ch=10 n=59 v=100
121920 Off ch=10 n=59 v=100
122880 On ch=10 n=49 v=100
123232 Off ch=10 n=49 v=100
123360 On ch=10 n=49 v=100
123600 Off ch=10 n=49 v=100
123600 On ch=10 n=61 v=100
123840 Off ch=10 n=61 v=100
124800 On ch=10 n=50 v=100
125120 Off ch=10 n=50 v=100
125280 On ch=10 n=62 v=100
125600 Off ch=10 n=62 v=100
125760 On ch=10 n=56 v=100
126080 Off ch=10 n=56 v=100
126240 On ch=10 n=44 v=100
126560 Off ch=10 n=44 v=100
126720 On ch=10 n=47 v=100
127072 Off ch=10 n=47 v=100
127200 On ch=10 n=47 v=100
127440 Off ch=10 n=47 v=100
127440 On ch=10 n=59 v=100
127680 Off ch=10 n=59 v=100
128640 On ch=10 n=47 v=100
128992 Off ch=10 n=47 v=100
129120 On ch=10 n=47 v=100
129360 Off ch=10 n=47 v=100
129360 On ch=10 n=59 v=100
129600 Off ch=10 n=59 v=100
130560 On ch=10 n=49 v=100
130912 Off ch=10 n=49 v=100
131040 On ch=10 n=49 v=100
131280 Off ch=10 n=49 v=100
131280 On ch=10 n=61 v=100
131520 Off ch=10 n=61 v=100
132480 On ch=10 n=49 v=100
132768 Off ch=10 n=49 v=100
132960 On ch=10 n=61 v=100
133248 Off ch=10 n=61 v=100
133440 On ch=10 n=56 v=100
133728 Off ch=10 n=56 v=100
133920 On ch=10 n=44 v=100
134208 Off ch=10 n=44 v=100
134400 On ch=10 n=51 v=100
134752 Off ch=10 n=51 v=100
134880 On ch=10 n=51 v=100
135120 Off ch=10 n=51 v=100
135120 On ch=10 n=63 v=100
135360 Off ch=10 n=63 v=100
136320 On ch=10 n=51 v=100
136672 Off ch=10 n=51 v=100
136800 On ch=10 n=51 v=100
137040 Off ch=10 n=51 v=100
137040 On ch=10 n=63 v=100
137280 Off ch=10 n=63 v=100
138240 On ch=10 n=51 v=100
138592 Off ch=10 n=51 v=100
138720 On ch=10 n=51 v=100
138960 Off ch=10 n=51 v=100
138960 On ch=10 n=63 v=100
139200 Off ch=10 n=63 v=100
140160 On ch=10 n=51 v=100
140480 Off ch=10 n=51 v=100
140640 On ch=10 n=63 v=100
140960 Off ch=10 n=63 v=100
141120 On ch=10 n=58 v=100
141440 Off ch=10 n=58 v=100
141600 On ch=10 n=46 v=100
141920 Off ch=10 n=46 v=100
142080 On ch=10 n=47 v=100
142432 Off ch=10 n=47 v=100
142560 On ch=10 n=47 v=100
142800 Off ch=10 n=47 v=100
142800 On ch=10 n=59 v=100
143040 Off ch=10 n=59 v=100
144000 On ch=10 n=47 v=100
144352 Off ch=10 n=47 v=100
144480 On ch=10 n=47 v=100
144720 Off ch=10 n=47 v=100
144720 On ch=10 n=59 v=100
144960 Off ch=10 n=59 v=100
145920 On ch=10 n=49 v=100
146272 Off ch=10 n=49 v=100
146400 On ch=10 n=49 v=100
146640 Off ch=10 n=49 v=100
146640 On ch=10 n=61 v=100
146880 Off ch=10 n=61 v=100
147840 On ch=10 n=49 v=100
148128 Off ch=10 n=49 v=100
148320 On ch=10 n=61 v=100
148608 Off ch=10 n=61 v=100
148800 On ch=10 n=56 v=100
149088 Off ch=10 n=56 v=100
149280 On ch=10 n=44 v=100
149568 Off ch=10 n=44 v=100
149760 On ch=10 n=51 v=100
150112 Off ch=10 n=51 v=100
150240 On ch=10 n=51 v=100
150480 Off ch=10 n=51 v=100
150480 On ch=10 n=63 v=100
150720 Off ch=10 n=63 v=100
151680 On ch=10 n=51 v=100
152032 Off ch=10 n=51 v=100
152160 On ch=10 n=51 v=100
152400 Off ch=10 n=51 v=100
152400 On ch=10 n=63 v=100
152640 Off ch=10 n=63 v=100
153600 On ch=10 n=51 v=100
153952 Off ch=10 n=51 v=100
154080 On ch=10 n=51 v=100
154320 Off ch=10 n=51 v=100
154320 On ch=10 n=63 v=100
154560 Off ch=10 n=63 v=100
155520 On ch=10 n=51 v=100
155840 Off ch=10 n=51 v=100
156000 On ch=10 n=63 v=100
156320 Off ch=10 n=63 v=100
156480 On ch=10 n=58 v=100
156800 Off ch=10 n=58 v=100
156960 On ch=10 n=46 v=100
157280 Off ch=10 n=46 v=100
157440 On ch=10 n=47 v=100
157792 Off ch=10 n=47 v=100
157920 On ch=10 n=47 v=100
158160 Off ch=10 n=47 v=100
158160 On ch=10 n=59 v=100
158400 Off ch=10 n=59 v=100
159360 On ch=10 n=47 v=100
159712 Off ch=10 n=47 v=100
159840 On ch=10 n=47 v=100
160080 Off ch=10 n=47 v=100
160080 On ch=10 n=59 v=100
160320 Off ch=10 n=59 v=100
161280 On ch=10 n=49 v=100
161632 Off ch=10 n=49 v=100
161760 On ch=10 n=49 v=100
162000 Off ch=10 n=49 v=100
162000 On ch=10 n=61 v=100
162240 Off ch=10 n=61 v=100
163200 On ch=10 n=49 v=100
163488 Off ch=10 n=49 v=100
163680 On ch=10 n=61 v=100
163968 Off ch=10 n=61 v=100
164160 On ch=10 n=56 v=100
164448 Off ch=10 n=56 v=100
164640 On ch=10 n=44 v=100
164928 Off ch=10 n=44 v=100
165120 On ch=10 n=51 v=100
165472 Off ch=10 n=51 v=100
165600 On ch=10 n=51 v=100
165840 Off ch=10 n=51 v=100
165840 On ch=10 n=63 v=100
166080 Off ch=10 n=63 v=100
167040 On ch=10 n=51 v=100
167392 Off ch=10 n=51 v=100
167520 On ch=10 n=51 v=100
167760 Off ch=10 n=51 v=100
167760 On ch=10 n=63 v=100
168000 Off ch=10 n=63 v=100
168960 On ch=10 n=51 v=100
169312 Off ch=10 n=51 v=100
169440 On ch=10 n=51 v=100
169680 Off ch=10 n=51 v=100
169680 On ch=10 n=63 v=100
169920 Off ch=10 n=63 v=100
170880 On ch=10 n=51 v=100
171200 Off ch=10 n=51 v=100
171360 On ch=10 n=63 v=100
171680 Off ch=10 n=63 v=100
171840 On ch=10 n=58 v=100
172160 Off ch=10 n=58 v=100
172320 On ch=10 n=46 v=100
172640 Off ch=10 n=46 v=100
184320 Par ch=10 c=11 v=112
188160 On ch=10 n=47 v=88
188160 Par ch=10 c=11 v=54
189060 Par ch=10 c=11 v=55
189420 Par ch=10 c=11 v=56
189690 Par ch=10 c=11 v=57
189930 Par ch=10 c=11 v=58
190140 Par ch=10 c=11 v=59
190320 Par ch=10 c=11 v=60
190470 Par ch=10 c=11 v=61
190650 Par ch=10 c=11 v=62
190800 Par ch=10 c=11 v=63
190920 Par ch=10 c=11 v=64
191070 Par ch=10 c=11 v=65
191190 Par ch=10 c=11 v=66
191310 Par ch=10 c=11 v=67
191424 Par ch=10 c=11 v=68
192000 Off ch=10 n=47 v=64
192000 On ch=10 n=49 v=88
192000 Par ch=10 c=11 v=57
193110 Par ch=10 c=11 v=58
193560 Par ch=10 c=11 v=59
193920 Par ch=10 c=11 v=60
194220 Par ch=10 c=11 v=61
194490 Par ch=10 c=11 v=62
194730 Par ch=10 c=11 v=63
194940 Par ch=10 c=11 v=64
195120 Par ch=10 c=11 v=65
195330 Par ch=10 c=11 v=66
195488 Par ch=10 c=11 v=67
195840 Off ch=10 n=49 v=64
195840 On ch=10 n=51 v=88
195840 Par ch=10 c=11 v=57
195870 Par ch=10 c=11 v=58
195960 Par ch=10 c=11 v=59
196080 Par ch=10 c=11 v=60
196200 Par ch=10 c=11 v=61
196350 Par ch=10 c=11 v=62
196500 Par ch=10 c=11 v=63
196740 Par ch=10 c=11 v=64
197504 Par ch=10 c=11 v=65
199184 Par ch=10 c=11 v=64
199680 Par ch=10 c=11 v=67
200370 Par ch=10 c=11 v=66
200640 Par ch=10 c=11 v=65
200850 Par ch=10 c=11 v=64
201030 Par ch=10 c=11 v=63
201210 Par ch=10 c=11 v=62
201330 Par ch=10 c=11 v=61
201480 Par ch=10 c=11 v=60
201600 Par ch=10 c=11 v=59
201720 Par ch=10 c=11 v=58
201810 Par ch=10 c=11 v=57
201930 Par ch=10 c=11 v=56
202020 Par ch=10 c=11 v=55
202110 Par ch=10 c=11 v=54
202200 Par ch=10 c=11 v=53
202290 Par ch=10 c=11 v=52
202380 Par ch=10 c=11 v=51
202470 Par ch=10 c=11 v=50
202560 Par ch=10 c=11 v=49
202620 Par ch=10 c=11 v=48
202710 Par ch=10 c=11 v=47
202770 Par ch=10 c=11 v=46
202860 Par ch=10 c=11 v=45
202920 Par ch=10 c=11 v=44
202980 Par ch=10 c=11 v=43
203040 Par ch=10 c=11 v=42
203130 Par ch=10 c=11 v=41
203190 Par ch=10 c=11 v=40
203250 Par ch=10 c=11 v=39
203310 Par ch=10 c=11 v=38
203400 Off ch=10 n=51 v=64
203520 On ch=10 n=47 v=88
203520 Par ch=10 c=11 v=48
204810 Par ch=10 c=11 v=49
205350 Par ch=10 c=11 v=50
205740 Par ch=10 c=11 v=51
206100 Par ch=10 c=11 v=52
206400 Par ch=10 c=11 v=53
206656 Par ch=10 c=11 v=54
206670 Par ch=10 c=11 v=56
206944 Par ch=10 c=11 v=57
207360 Off ch=10 n=47 v=64
207360 On ch=10 n=49 v=88
207360 Par ch=10 c=11 v=49
208290 Par ch=10 c=11 v=50
208650 Par ch=10 c=11 v=51
208950 Par ch=10 c=11 v=52
209190 Par ch=10 c=11 v=53
209400 Par ch=10 c=11 v=54
209610 Par ch=10 c=11 v=55
209790 Par ch=10 c=11 v=56
209940 Par ch=10 c=11 v=57
210090 Par ch=10 c=11 v=58
210240 Par ch=10 c=11 v=59
210390 Par ch=10 c=11 v=60
210510 Par ch=10 c=11 v=61
210660 Par ch=10 c=11 v=62
210780 Par ch=10 c=11 v=63
210880 Par ch=10 c=11 v=64
211200 Off ch=10 n=49 v=64
211200 On ch=10 n=51 v=88
211200 Par ch=10 c=11 v=60
211230 Par ch=10 c=11 v=61
211320 Par ch=10 c=11 v=62
211440 Par ch=10 c=11 v=63
211560 Par ch=10 c=11 v=64
211680 Par ch=10 c=11 v=65
211860 Par ch=10 c=11 v=66
212070 Par ch=10 c=11 v=67
212800 Par ch=10 c=11 v=67
213610 Par ch=10 c=11 v=66
213970 Par ch=10 c=11 v=65
214210 Par ch=10 c=11 v=64
214420 Par ch=10 c=11 v=63
214630 Par ch=10 c=11 v=62
214780 Par ch=10 c=11 v=61
214960 Par ch=10 c=11 v=60
215110 Par ch=10 c=11 v=59
215230 Par ch=10 c=11 v=58
215380 Par ch=10 c=11 v=57
215500 Par ch=10 c=11 v=56
215620 Par ch=10 c=11 v=55
215710 Par ch=10 c=11 v=54
215830 Par ch=10 c=11 v=53
215950 Par ch=10 c=11 v=52
216040 Par ch=10 c=11 v=51
216130 Par ch=10 c=11 v=50
216250 Par ch=10 c=11 v=49
216340 Par ch=10 c=11 v=48
216430 Par ch=10 c=11 v=47
216520 Par ch=10 c=11 v=46
216610 Par ch=10 c=11 v=45
216670 Par ch=10 c=11 v=44
216696 Off ch=10 n=51 v=64
216760 Par ch=10 c=11 v=43
216850 Par ch=10 c=11 v=42
216960 On ch=10 n=44 v=100
216960 Par ch=10 c=11 v=99
217280 Off ch=10 n=44 v=100
217440 On ch=10 n=56 v=100
217760 Off ch=10 n=56 v=100
217920 On ch=10 n=42 v=100
218240 Off ch=10 n=42 v=100
218400 On ch=10 n=54 v=100
218720 Off ch=10 n=54 v=100
218880 On ch=10 n=39 v=100
219232 Off ch=10 n=39 v=100
219360 On ch=10 n=39 v=100
219600 Off ch=10 n=39 v=100
219600 On ch=10 n=51 v=100
219840 Off ch=10 n=51 v=100
220800 On ch=10 n=39 v=100
221152 Off ch=10 n=39 v=100
221280 On ch=10 n=39 v=100
221520 Off ch=10 n=39 v=100
221520 On ch=10 n=51 v=100
221760 Off ch=10 n=51 v=100
222720 On ch=10 n=39 v=100
223072 Off ch=10 n=39 v=100
223200 On ch=10 n=39 v=100
223440 Off ch=10 n=39 v=100
223440 On ch=10 n=51 v=100
223680 Off ch=10 n=51 v=100
224640 On ch=10 n=39 v=100
224928 Off ch=10 n=39 v=100
225120 On ch=10 n=51 v=100
225408 Off ch=10 n=51 v=100
225600 On ch=10 n=44 v=100
225888 Off ch=10 n=44 v=100
226080 On ch=10 n=56 v=100
226368 Off ch=10 n=56 v=100
226560 On ch=10 n=39 v=100
226912 Off ch=10 n=39 v=100
227040 On ch=10 n=39 v=100
227280 Off ch=10 n=39 v=100
227280 On ch=10 n=51 v=100
227520 Off ch=10 n=51 v=100
228480 On ch=10 n=39 v=100
228832 Off ch=10 n=39 v=100
228960 On ch=10 n=39 v=100
229200 Off ch=10 n=39 v=100
229200 On ch=10 n=51 v=100
229440 Off ch=10 n=51 v=100
230400 On ch=10 n=39 v=100
230752 Off ch=10 n=39 v=100
230880 On ch=10 n=39 v=100
231120 Off ch=10 n=39 v=100
231120 On ch=10 n=51 v=100
231360 Off ch=10 n=51 v=100
232320 On ch=10 n=44 v=100
232640 Off ch=10 n=44 v=100
232800 On ch=10 n=56 v=100
233120 Off ch=10 n=56 v=100
233280 On ch=10 n=42 v=100
233600 Off ch=10 n=42 v=100
233760 On ch=10 n=54 v=100
234080 Off ch=10 n=54 v=100
234240 On ch=10 n=39 v=100
234592 Off ch=10 n=39 v=100
234720 On ch=10 n=39 v=100
234960 Off ch=10 n=39 v=100
234960 On ch=10 n=51 v=100
235200 Off ch=10 n=51 v=100
236160 On ch=10 n=39 v=100
236512 Off ch=10 n=39 v=100
236640 On ch=10 n=39 v=100
236880 Off ch=10 n=39 v=100
236880 On ch=10 n=51 v=100
237120 Off ch=10 n=51 v=100
238080 On ch=10 n=39 v=100
238432 Off ch=10 n=39 v=100
238560 On ch=10 n=39 v=100
238800 Off ch=10 n=39 v=100
238800 On ch=10 n=51 v=100
239040 Off ch=10 n=51 v=100
240000 On ch=10 n=39 v=100
240288 Off ch=10 n=39 v=100
240480 On ch=10 n=51 v=100
240768 Off ch=10 n=51 v=100
240960 On ch=10 n=44 v=100
241248 Off ch=10 n=44 v=100
241440 On ch=10 n=56 v=100
241728 Off ch=10 n=56 v=100
241920 On ch=10 n=39 v=100
242272 Off ch=10 n=39 v=100
242400 On ch=10 n=39 v=100
242640 Off ch=10 n=39 v=100
242640 On ch=10 n=51 v=100
242880 Off ch=10 n=51 v=100
243840 On ch=10 n=39 v=100
244192 Off ch=10 n=39 v=100
244320 On ch=10 n=39 v=100
244560 Off ch=10 n=39 v=100
244560 On ch=10 n=51 v=100
244800 Off ch=10 n=51 v=100
245760 On ch=10 n=39 v=100
246112 Off ch=10 n=39 v=100
246240 On ch=10 n=39 v=100
246480 Off ch=10 n=39 v=100
246480 On ch=10 n=51 v=100
246720 Off ch=10 n=51 v=100
247680 On ch=10 n=44 v=100
248000 Off ch=10 n=44 v=100
248160 On ch=10 n=56 v=100
248480 Off ch=10 n=56 v=100
248640 On ch=10 n=42 v=100
248960 Off ch=10 n=42 v=100
249120 On ch=10 n=54 v=100
249440 Off ch=10 n=54 v=100
249600 On ch=10 n=51 v=100
249600 Par ch=10 c=11 v=88
249952 Off ch=10 n=51 v=100
250080 On ch=10 n=51 v=100
250320 Off ch=10 n=51 v=100
250320 On ch=10 n=63 v=100
250560 Off ch=10 n=63 v=100
251520 On ch=10 n=51 v=100
251872 Off ch=10 n=51 v=100
252000 On ch=10 n=51 v=100
252240 Off ch=10 n=51 v=100
252240 On ch=10 n=63 v=100
252480 Off ch=10 n=63 v=100
253440 On ch=10 n=51 v=100
253792 Off ch=10 n=51 v=100
253920 On ch=10 n=51 v=100
254160 Off ch=10 n=51 v=100
254160 On ch=10 n=63 v=100
254400 Off ch=10 n=63 v=100
255360 On ch=10 n=51 v=100
255648 Off ch=10 n=51 v=100
255840 On ch=10 n=63 v=100
256128 Off ch=10 n=63 v=100
256320 On ch=10 n=56 v=100
256608 Off ch=10 n=56 v=100
256800 On ch=10 n=44 v=100
257088 Off ch=10 n=44 v=100
257280 On ch=10 n=47 v=100
257632 Off ch=10 n=47 v=100
257760 On ch=10 n=47 v=100
258000 Off ch=10 n=47 v=100
258000 On ch=10 n=59 v=100
258240 Off ch=10 n=59 v=100
259200 On ch=10 n=47 v=100
259552 Off ch=10 n=47 v=100
259680 On ch=10 n=47 v=100
259920 Off ch=10 n=47 v=100
259920 On ch=10 n=59 v=100
260160 Off ch=10 n=59 v=100
261120 On ch=10 n=49 v=100
261472 Off ch=10 n=49 v=100
261600 On ch=10 n=49 v=100
261840 Off ch=10 n=49 v=100
261840 On ch=10 n=61 v=100
262080 Off ch=10 n=61 v=100
263040 On ch=10 n=50 v=100
263360 Off ch=10 n=50 v=100
263520 On ch=10 n=62 v=100
263840 Off ch=10 n=62 v=100
264000 On ch=10 n=56 v=100
264320 Off ch=10 n=56 v=100
264480 On ch=10 n=44 v=100
264800 Off ch=10 n=44 v=100
264960 On ch=10 n=51 v=100
265312 Off ch=10 n=51 v=100
265440 On ch=10 n=51 v=100
265680 Off ch=10 n=51 v=100
265680 On ch=10 n=63 v=100
265920 Off ch=10 n=63 v=100
266880 On ch=10 n=51 v=100
267232 Off ch=10 n=51 v=100
267360 On ch=10 n=51 v=100
267600 Off ch=10 n=51 v=100
267600 On ch=10 n=63 v=100
267840 Off ch=10 n=63 v=100
268800 On ch=10 n=51 v=100
269152 Off ch=10 n=51 v=100
269280 On ch=10 n=51 v=100
269520 Off ch=10 n=51 v=100
269520 On ch=10 n=63 v=100
269760 Off ch=10 n=63 v=100
270720 On ch=10 n=51 v=100
271008 Off ch=10 n=51 v=100
271200 On ch=10 n=63 v=100
271488 Off ch=10 n=63 v=100
271680 On ch=10 n=56 v=100
271968 Off ch=10 n=56 v=100
272160 On ch=10 n=44 v=100
272448 Off ch=10 n=44 v=100
272640 On ch=10 n=47 v=100
272992 Off ch=10 n=47 v=100
273120 On ch=10 n=47 v=100
273360 Off ch=10 n=47 v=100
273360 On ch=10 n=59 v=100
273600 Off ch=10 n=59 v=100
274560 On ch=10 n=47 v=100
274912 Off ch=10 n=47 v=100
275040 On ch=10 n=47 v=100
275280 Off ch=10 n=47 v=100
275280 On ch=10 n=59 v=100
275520 Off ch=10 n=59 v=100
276480 On ch=10 n=49 v=100
276832 Off ch=10 n=49 v=100
276960 On ch=10 n=49 v=100
277200 Off ch=10 n=49 v=100
277200 On ch=10 n=61 v=100
277440 Off ch=10 n=61 v=100
278400 On ch=10 n=50 v=100
278720 Off ch=10 n=50 v=100
278880 On ch=10 n=62 v=100
279200 Off ch=10 n=62 v=100
279360 On ch=10 n=56 v=100
279680 Off ch=10 n=56 v=100
279840 On ch=10 n=44 v=100
280000 Par ch=10 c=11 v=89
280160 Off ch=10 n=44 v=100
280320 On ch=10 n=51 v=100
280672 Off ch=10 n=51 v=100
280800 On ch=10 n=51 v=100
281040 Off ch=10 n=51 v=100
281040 On ch=10 n=63 v=100
281280 Off ch=10 n=63 v=100
282240 On ch=10 n=51 v=100
282592 Off ch=10 n=51 v=100
282720 On ch=10 n=51 v=100
282960 Off ch=10 n=51 v=100
282960 On ch=10 n=63 v=100
283200 Off ch=10 n=63 v=100
284160 On ch=10 n=51 v=100
284512 Off ch=10 n=51 v=100
284640 On ch=10 n=51 v=100
284880 Off ch=10 n=51 v=100
284880 On ch=10 n=63 v=100
285120 Off ch=10 n=63 v=100
286080 On ch=10 n=51 v=100
286368 Off ch=10 n=51 v=100
286560 On ch=10 n=63 v=100
286848 Off ch=10 n=63 v=100
287040 On ch=10 n=56 v=100
287328 Off ch=10 n=56 v=100
287520 On ch=10 n=44 v=100
287808 Off ch=10 n=44 v=100
288000 On ch=10 n=47 v=100
288352 Off ch=10 n=47 v=100
288480 On ch=10 n=47 v=100
288720 Off ch=10 n=47 v=100
288720 On ch=10 n=59 v=100
288960 Off ch=10 n=59 v=100
289920 On ch=10 n=47 v=100
290272 Off ch=10 n=47 v=100
290400 On ch=10 n=47 v=100
290640 Off ch=10 n=47 v=100
290640 On ch=10 n=59 v=100
290880 Off ch=10 n=59 v=100
291840 On ch=10 n=49 v=100
292192 Off ch=10 n=49 v=100
292320 On ch=10 n=49 v=100
292560 Off ch=10 n=49 v=100
292560 On ch=10 n=61 v=100
292800 Off ch=10 n=61 v=100
293760 On ch=10 n=50 v=100
294080 Off ch=10 n=50 v=100
294240 On ch=10 n=62 v=100
294560 Off ch=10 n=62 v=100
294720 On ch=10 n=56 v=100
295040 Off ch=10 n=56 v=100
295200 On ch=10 n=44 v=100
295520 Off ch=10 n=44 v=100
295680 On ch=10 n=51 v=100
296032 Off ch=10 n=51 v=100
296160 On ch=10 n=51 v=100
296400 Off ch=10 n=51 v=100
296400 On ch=10 n=63 v=100
296640 Off ch=10 n=63 v=100
297600 On ch=10 n=51 v=100
297952 Off ch=10 n=51 v=100
298080 On ch=10 n=51 v=100
298320 Off ch=10 n=51 v=100
298320 On ch=10 n=63 v=100
298560 Off ch=10 n=63 v=100
299520 On ch=10 n=51 v=100
299872 Off ch=10 n=51 v=100
300000 On ch=10 n=51 v=100
300240 Off ch=10 n=51 v=100
300240 On ch=10 n=63 v=100
300480 Off ch=10 n=63 v=100
301440 On ch=10 n=51 v=100
301728 Off ch=10 n=51 v=100
301920 On ch=10 n=63 v=100
302208 Off ch=10 n=63 v=100
302400 On ch=10 n=56 v=100
302688 Off ch=10 n=56 v=100
302880 On ch=10 n=44 v=100
303168 Off ch=10 n=44 v=100
303360 On ch=10 n=47 v=100
303712 Off ch=10 n=47 v=100
303840 On ch=10 n=47 v=100
304080 Off ch=10 n=47 v=100
304080 On ch=10 n=59 v=100
304320 Off ch=10 n=59 v=100
305280 On ch=10 n=47 v=100
305632 Off ch=10 n=47 v=100
305760 On ch=10 n=47 v=100
306000 Off ch=10 n=47 v=100
306000 On ch=10 n=59 v=100
306240 Off ch=10 n=59 v=100
307200 On ch=10 n=49 v=100
307552 Off ch=10 n=49 v=100
307680 On ch=10 n=49 v=100
307920 Off ch=10 n=49 v=100
307920 On ch=10 n=61 v=100
308160 Off ch=10 n=61 v=100
309120 On ch=10 n=50 v=100
309440 Off ch=10 n=50 v=100
309600 On ch=10 n=62 v=100
309920 Off ch=10 n=62 v=100
310080 On ch=10 n=56 v=100
310400 Off ch=10 n=56 v=100
310560 On ch=10 n=44 v=100
310880 Off ch=10 n=44 v=100
311040 On ch=10 n=47 v=112
311040 Par ch=10 c=11 v=95
311304 Off ch=10 n=47 v=64
311520 On ch=10 n=51 v=104
311784 Off ch=10 n=51 v=64
312000 On ch=10 n=59 v=104
312264 Off ch=10 n=59 v=64
312480 On ch=10 n=54 v=104
312744 Off ch=10 n=54 v=64
312960 On ch=10 n=47 v=111
313224 Off ch=10 n=47 v=64
313440 On ch=10 n=51 v=104
313704 Off ch=10 n=51 v=64
313920 On ch=10 n=59 v=104
314184 Off ch=10 n=59 v=64
314400 On ch=10 n=54 v=104
314664 Off ch=10 n=54 v=64
314880 On ch=10 n=49 v=111
315144 Off ch=10 n=49 v=64
315360 On ch=10 n=53 v=104
315624 Off ch=10 n=53 v=64
315840 On ch=10 n=61 v=104
316104 Off ch=10 n=61 v=64
316320 On ch=10 n=56 v=104
316584 Off ch=10 n=56 v=64
316800 On ch=10 n=49 v=112
317064 Off ch=10 n=49 v=64
317280 On ch=10 n=53 v=104
317544 Off ch=10 n=53 v=64
317760 On ch=10 n=61 v=104
318024 Off ch=10 n=61 v=64
318240 On ch=10 n=56 v=104
318504 Off ch=10 n=56 v=64
318720 On ch=10 n=51 v=113
318984 Off ch=10 n=51 v=64
319200 On ch=10 n=54 v=104
319464 Off ch=10 n=54 v=64
319680 On ch=10 n=63 v=104
319944 Off ch=10 n=63 v=64
320160 On ch=10 n=58 v=104
320424 Off ch=10 n=58 v=64
320640 On ch=10 n=51 v=113
320904 Off ch=10 n=51 v=64
321120 On ch=10 n=54 v=104
321384 Off ch=10 n=54 v=64
321600 On ch=10 n=63 v=104
321864 Off ch=10 n=63 v=64
322080 On ch=10 n=58 v=104
322344 Off ch=10 n=58 v=64
322560 On ch=10 n=51 v=111
322824 Off ch=10 n=51 v=64
323040 On ch=10 n=54 v=104
323304 Off ch=10 n=54 v=64
323520 On ch=10 n=63 v=104
323784 Off ch=10 n=63 v=64
324000 On ch=10 n=58 v=104
324264 Off ch=10 n=58 v=64
324480 On ch=10 n=51 v=111
324744 Off ch=10 n=51 v=64
324960 On ch=10 n=54 v=104
325224 Off ch=10 n=54 v=64
325440 On ch=10 n=63 v=104
325704 Off ch=10 n=63 v=64
325920 On ch=10 n=58 v=104
326184 Off ch=10 n=58 v=64
326400 On ch=10 n=47 v=112
326664 Off ch=10 n=47 v=64
326880 On ch=10 n=51 v=104
327144 Off ch=10 n=51 v=64
327360 On ch=10 n=59 v=104
327624 Off ch=10 n=59 v=64
327840 On ch=10 n=54 v=104
328104 Off ch=10 n=54 v=64
328320 On ch=10 n=47 v=111
328584 Off ch=10 n=47 v=64
328800 On ch=10 n=51 v=104
329064 Off ch=10 n=51 v=64
329280 On ch=10 n=59 v=104
329544 Off ch=10 n=59 v=64
329760 On ch=10 n=54 v=104
330024 Off ch=10 n=54 v=64
330240 On ch=10 n=49 v=111
330504 Off ch=10 n=49 v=64
330720 On ch=10 n=53 v=104
330984 Off ch=10 n=53 v=64
331200 On ch=10 n=61 v=104
331464 Off ch=10 n=61 v=64
331680 On ch=10 n=56 v=104
331944 Off ch=10 n=56 v=64
332160 On ch=10 n=49 v=112
332424 Off ch=10 n=49 v=64
332640 On ch=10 n=53 v=104
332904 Off ch=10 n=53 v=64
333120 On ch=10 n=61 v=104
333384 Off ch=10 n=61 v=64
333600 On ch=10 n=56 v=104
333864 Off ch=10 n=56 v=64
334080 On ch=10 n=51 v=113
334344 Off ch=10 n=51 v=64
334560 On ch=10 n=54 v=104
334824 Off ch=10 n=54 v=64
335040 On ch=10 n=63 v=104
335304 Off ch=10 n=63 v=64
335520 On ch=10 n=58 v=104
335784 Off ch=10 n=58 v=64
336000 On ch=10 n=51 v=113
336264 Off ch=10 n=51 v=64
336480 On ch=10 n=54 v=104
336744 Off ch=10 n=54 v=64
336960 On ch=10 n=63 v=104
337224 Off ch=10 n=63 v=64
337440 On ch=10 n=58 v=104
337704 Off ch=10 n=58 v=64
337920 On ch=10 n=51 v=111
338184 Off ch=10 n=51 v=64
338400 On ch=10 n=54 v=104
338664 Off ch=10 n=54 v=64
338880 On ch=10 n=63 v=104
339144 Off ch=10 n=63 v=64
339360 On ch=10 n=58 v=104
339624 Off ch=10 n=58 v=64
339840 On ch=10 n=51 v=111
340104 Off ch=10 n=51 v=64
340320 On ch=10 n=54 v=104
340584 Off ch=10 n=54 v=64
340800 On ch=10 n=63 v=104
341064 Off ch=10 n=63 v=64
341280 On ch=10 n=58 v=104
341544 Off ch=10 n=58 v=64
341760 On ch=10 n=47 v=112
341760 Par ch=10 c=11 v=103
342024 Off ch=10 n=47 v=64
342240 On ch=10 n=51 v=104
342504 Off ch=10 n=51 v=64
342720 On ch=10 n=59 v=104
342984 Off ch=10 n=59 v=64
343200 On ch=10 n=54 v=104
343464 Off ch=10 n=54 v=64
343680 On ch=10 n=47 v=111
343944 Off ch=10 n=47 v=64
344160 On ch=10 n=51 v=104
344424 Off ch=10 n=51 v=64
344640 On ch=10 n=59 v=104
344904 Off ch=10 n=59 v=64
345120 On ch=10 n=54 v=104
345384 Off ch=10 n=54 v=64
345600 On ch=10 n=49 v=111
345864 Off ch=10 n=49 v=64
346080 On ch=10 n=53 v=104
346344 Off ch=10 n=53 v=64
346560 On ch=10 n=61 v=104
346824 Off ch=10 n=61 v=64
347040 On ch=10 n=56 v=104
347304 Off ch=10 n=56 v=64
347520 On ch=10 n=49 v=112
347784 Off ch=10 n=49 v=64
348000 On ch=10 n=53 v=104
348264 Off ch=10 n=53 v=64
348480 On ch=10 n=61 v=104
348744 Off ch=10 n=61 v=64
348960 On ch=10 n=56 v=104
349224 Off ch=10 n=56 v=64
349440 On ch=10 n=51 v=113
349704 Off ch=10 n=51 v=64
349920 On ch=10 n=54 v=104
350184 Off ch=10 n=54 v=64
350400 On ch=10 n=63 v=104
350664 Off ch=10 n=63 v=64
350880 On ch=10 n=58 v=104
351144 Off ch=10 n=58 v=64
351360 On ch=10 n=51 v=113
351624 Off ch=10 n=51 v=64
351840 On ch=10 n=54 v=104
352104 Off ch=10 n=54 v=64
352320 On ch=10 n=63 v=104
352584 Off ch=10 n=63 v=64
352800 On ch=10 n=58 v=104
353064 Off ch=10 n=58 v=64
353280 On ch=10 n=51 v=111
353544 Off ch=10 n=51 v=64
353760 On ch=10 n=54 v=104
354024 Off ch=10 n=54 v=64
354240 On ch=10 n=63 v=104
354504 Off ch=10 n=63 v=64
354720 On ch=10 n=58 v=104
354984 Off ch=10 n=58 v=64
355200 On ch=10 n=51 v=111
355464 Off ch=10 n=51 v=64
355680 On ch=10 n=54 v=104
355944 Off ch=10 n=54 v=64
356160 On ch=10 n=63 v=104
356424 Off ch=10 n=63 v=64
356640 On ch=10 n=58 v=104
356904 Off ch=10 n=58 v=64
357120 On ch=10 n=47 v=112
357384 Off ch=10 n=47 v=64
357600 On ch=10 n=51 v=104
357864 Off ch=10 n=51 v=64
358080 On ch=10 n=59 v=104
358344 Off ch=10 n=59 v=64
358560 On ch=10 n=54 v=104
358824 Off ch=10 n=54 v=64
359040 On ch=10 n=47 v=111
359304 Off ch=10 n=47 v=64
359520 On ch=10 n=51 v=104
359784 Off ch=10 n=51 v=64
360000 On ch=10 n=59 v=104
360264 Off ch=10 n=59 v=64
360480 On ch=10 n=54 v=104
360744 Off ch=10 n=54 v=64
360960 On ch=10 n=49 v=111
361224 Off ch=10 n=49 v=64
361440 On ch=10 n=53 v=104
361704 Off ch=10 n=53 v=64
361920 On ch=10 n=61 v=104
362184 Off ch=10 n=61 v=64
362400 On ch=10 n=56 v=104
362664 Off ch=10 n=56 v=64
362880 On ch=10 n=49 v=112
363144 Off ch=10 n=49 v=64
363360 On ch=10 n=53 v=104
363624 Off ch=10 n=53 v=64
363840 On ch=10 n=61 v=104
364104 Off ch=10 n=61 v=64
364320 On ch=10 n=56 v=104
364584 Off ch=10 n=56 v=64
364800 On ch=10 n=51 v=113
365064 Off ch=10 n=51 v=64
365280 On ch=10 n=54 v=104
365544 Off ch=10 n=54 v=64
365760 On ch=10 n=63 v=104
366024 Off ch=10 n=63 v=64
366240 On ch=10 n=58 v=104
366504 Off ch=10 n=58 v=64
366720 On ch=10 n=51 v=113
366984 Off ch=10 n=51 v=64
367200 On ch=10 n=54 v=104
367464 Off ch=10 n=54 v=64
367680 On ch=10 n=63 v=104
367944 Off ch=10 n=63 v=64
368160 On ch=10 n=58 v=104
368424 Off ch=10 n=58 v=64
368640 On ch=10 n=51 v=111
368904 Off ch=10 n=51 v=64
369120 On ch=10 n=54 v=104
369384 Off ch=10 n=54 v=64
369600 On ch=10 n=63 v=104
369864 Off ch=10 n=63 v=64
370080 On ch=10 n=58 v=104
370344 Off ch=10 n=58 v=64
370560 On ch=10 n=51 v=111
370824 Off ch=10 n=51 v=64
402240 On ch=10 n=47 v=101
402500 Off ch=10 n=47 v=64
402720 On ch=10 n=50 v=101
402980 Off ch=10 n=50 v=64
403200 On ch=10 n=50 v=101
403680 On ch=10 n=52 v=101
403700 Off ch=10 n=50 v=64
403940 Off ch=10 n=52 v=64
404160 On ch=10 n=47 v=101
404420 Off ch=10 n=47 v=64
404640 On ch=10 n=45 v=101
404900 Off ch=10 n=45 v=64
405120 On ch=10 n=47 v=101
405900 Off ch=10 n=47 v=64
406080 On ch=10 n=45 v=101
406560 On ch=10 n=47 v=101
406620 Off ch=10 n=45 v=64
406820 Off ch=10 n=47 v=64
407040 On ch=10 n=50 v=101
407520 On ch=10 n=52 v=101
407560 Off ch=10 n=50 v=64
407780 Off ch=10 n=52 v=64
408000 On ch=10 n=47 v=101
408260 Off ch=10 n=47 v=64
408480 On ch=10 n=45 v=101
408740 Off ch=10 n=45 v=64
408960 On ch=10 n=47 v=101
409920 On ch=10 n=45 v=101
409980 Off ch=10 n=47 v=64
410180 Off ch=10 n=45 v=64
410400 On ch=10 n=47 v=101
410660 Off ch=10 n=47 v=64
410880 On ch=10 n=45 v=101
411360 On ch=10 n=43 v=101
411380 Off ch=10 n=45 v=64
411640 Off ch=10 n=43 v=64
411840 On ch=10 n=42 v=101
412080 Off ch=10 n=42 v=64
412320 On ch=10 n=38 v=101
412660 Off ch=10 n=38 v=64
412800 On ch=10 n=40 v=101
413760 On ch=10 n=38 v=101
413776 Off ch=10 n=40 v=64
413972 Off ch=10 n=38 v=64
414240 On ch=10 n=40 v=101
414500 Off ch=10 n=40 v=64
414720 On ch=10 n=42 v=101
415200 On ch=10 n=43 v=101
415260 Off ch=10 n=42 v=64
415460 Off ch=10 n=43 v=64
415680 On ch=10 n=45 v=101
415900 Off ch=10 n=45 v=64
416160 On ch=10 n=47 v=101
416380 Off ch=10 n=47 v=64
416640 On ch=10 n=40 v=101
417600 On ch=10 n=47 v=101
417700 Off ch=10 n=40 v=64
417860 Off ch=10 n=47 v=64
418080 On ch=10 n=50 v=101
418340 Off ch=10 n=50 v=64
418560 On ch=10 n=50 v=101
419040 On ch=10 n=52 v=101
419060 Off ch=10 n=50 v=64
419300 Off ch=10 n=52 v=64
419520 On ch=10 n=47 v=101
419780 Off ch=10 n=47 v=64
420000 On ch=10 n=45 v=101
420260 Off ch=10 n=45 v=64
420480 On ch=10 n=47 v=101
421260 Off ch=10 n=47 v=64
421440 On ch=10 n=45 v=101
421920 On ch=10 n=47 v=101
421980 Off ch=10 n=45 v=64
422180 Off ch=10 n=47 v=64
422400 On ch=10 n=50 v=101
422880 On ch=10 n=52 v=101
422920 Off ch=10 n=50 v=64
423140 Off ch=10 n=52 v=64
423360 On ch=10 n=47 v=101
423620 Off ch=10 n=47 v=64
423840 On ch=10 n=45 v=101
424100 Off ch=10 n=45 v=64
424320 On ch=10 n=47 v=101
425280 On ch=10 n=52 v=101
425340 Off ch=10 n=47 v=64
425540 Off ch=10 n=52 v=64
425760 On ch=10 n=54 v=101
426020 Off ch=10 n=54 v=64
426240 On ch=10 n=55 v=101
426720 On ch=10 n=54 v=101
426740 Off ch=10 n=55 v=64
427000 Off ch=10 n=54 v=64
427200 On ch=10 n=52 v=101
427440 Off ch=10 n=52 v=64
427680 On ch=10 n=50 v=101
427900 Off ch=10 n=50 v=64
428160 On ch=10 n=47 v=101
429088 Off ch=10 n=47 v=64
429120 On ch=10 n=45 v=101
429600 On ch=10 n=47 v=101
429620 Off ch=10 n=45 v=64
429860 Off ch=10 n=47 v=64
430080 On ch=10 n=45 v=101
430080 Par ch=10 c=11 v=106
430560 On ch=10 n=43 v=101
430620 Off ch=10 n=45 v=64
430820 Off ch=10 n=43 v=64
431040 On ch=10 n=42 v=101
431260 Off ch=10 n=42 v=64
431520 On ch=10 n=38 v=101
431740 Off ch=10 n=38 v=64
432000 On ch=10 n=40 v=101
432464 Off ch=10 n=40 v=64
432960 On ch=10 n=47 v=88
433220 Off ch=10 n=47 v=64
433440 On ch=10 n=50 v=88
433700 Off ch=10 n=50 v=64
433920 On ch=10 n=50 v=88
434400 On ch=10 n=52 v=88
434420 Off ch=10 n=50 v=64
434660 Off ch=10 n=52 v=64
434880 On ch=10 n=47 v=88
435140 Off ch=10 n=47 v=64
435360 On ch=10 n=45 v=88
435620 Off ch=10 n=45 v=64
435840 On ch=10 n=47 v=88
436620 Off ch=10 n=47 v=64
436800 On ch=10 n=45 v=88
437280 On ch=10 n=47 v=88
437340 Off ch=10 n=45 v=64
437540 Off ch=10 n=47 v=64
437760 On ch=10 n=50 v=88
438240 On ch=10 n=52 v=88
438280 Off ch=10 n=50 v=64
438500 Off ch=10 n=52 v=64
438720 On ch=10 n=47 v=88
438980 Off ch=10 n=47 v=64
439200 On ch=10 n=45 v=88
439460 Off ch=10 n=45 v=64
439680 On ch=10 n=47 v=88
440640 On ch=10 n=45 v=88
440700 Off ch=10 n=47 v=64
440900 Off ch=10 n=45 v=64
441120 On ch=10 n=47 v=88
441380 Off ch=10 n=47 v=64
441600 On ch=10 n=45 v=88
442080 On ch=10 n=43 v=88
442100 Off ch=10 n=45 v=64
442360 Off ch=10 n=43 v=64
442560 On ch=10 n=42 v=88
442800 Off ch=10 n=42 v=64
443040 On ch=10 n=38 v=88
443380 Off ch=10 n=38 v=64
443520 On ch=10 n=40 v=88
444448 Off ch=10 n=40 v=64
444480 On ch=10 n=38 v=88
444960 On ch=10 n=40 v=88
444980 Off ch=10 n=38 v=64
445220 Off ch=10 n=40 v=64
445440 On ch=10 n=42 v=88
445920 On ch=10 n=43 v=88
445980 Off ch=10 n=42 v=64
446180 Off ch=10 n=43 v=64
446400 On ch=10 n=45 v=88
446620 Off ch=10 n=45 v=64
446880 On ch=10 n=47 v=88
447100 Off ch=10 n=47 v=64
447360 On ch=10 n=40 v=88
448080 Off ch=10 n=40 v=64
448320 On ch=10 n=47 v=88
448580 Off ch=10 n=47 v=64
448800 On ch=10 n=50 v=88
449060 Off ch=10 n=50 v=64
449280 On ch=10 n=50 v=88
449760 On ch=10 n=52 v=88
449780 Off ch=10 n=50 v=64
450020 Off ch=10 n=52 v=64
450240 On ch=10 n=47 v=88
450500 Off ch=10 n=47 v=64
450720 On ch=10 n=45 v=88
450980 Off ch=10 n=45 v=64
451200 On ch=10 n=47 v=88
451980 Off ch=10 n=47 v=64
452160 On ch=10 n=45 v=88
452640 On ch=10 n=47 v=88
452700 Off ch=10 n=45 v=64
452900 Off ch=10 n=47 v=64
453120 On ch=10 n=50 v=88
453600 On ch=10 n=52 v=88
453640 Off ch=10 n=50 v=64
453860 Off ch=10 n=52 v=64
454080 On ch=10 n=47 v=88
454340 Off ch=10 n=47 v=64
454560 On ch=10 n=45 v=88
454820 Off ch=10 n=45 v=64
455040 On ch=10 n=47 v=88
456000 On ch=10 n=52 v=88
456060 Off ch=10 n=47 v=64
456260 Off ch=10 n=52 v=64
456480 On ch=10 n=54 v=88
456740 Off ch=10 n=54 v=64
456960 On ch=10 n=55 v=88
457440 On ch=10 n=54 v=88
457460 Off ch=10 n=55 v=64
457720 Off ch=10 n=54 v=64
457920 On ch=10 n=52 v=88
458160 Off ch=10 n=52 v=64
458400 On ch=10 n=50 v=88
458620 Off ch=10 n=50 v=64
458880 On ch=10 n=47 v=88
459808 Off ch=10 n=47 v=64
459840 On ch=10 n=45 v=88
460320 On ch=10 n=47 v=88
460340 Off ch=10 n=45 v=64
460580 Off ch=10 n=47 v=64
460800 On ch=10 n=45 v=88
460800 Par ch=10 c=11 v=103
461280 On ch=10 n=43 v=88
461340 Off ch=10 n=45 v=64
461540 Off ch=10 n=43 v=64
461760 On ch=10 n=42 v=88
461980 Off ch=10 n=42 v=64
462240 On ch=10 n=38 v=88
462460 Off ch=10 n=38 v=64
462496 Par ch=10 c=11 v=93
462528 Par ch=10 c=11 v=71
462720 On ch=10 n=45 v=107
463098 Par ch=10 c=11 v=72
463308 Par ch=10 c=11 v=73
463488 Par ch=10 c=11 v=74
463638 Par ch=10 c=11 v=75
463648 Par ch=10 c=11 v=71
463678 Par ch=10 c=11 v=70
463680 Off ch=10 n=45 v=64
463680 On ch=10 n=43 v=107
463708 Par ch=10 c=11 v=69
463768 Par ch=10 c=11 v=68
463858 Par ch=10 c=11 v=67
463918 Par ch=10 c=11 v=66
464008 Par ch=10 c=11 v=65
464068 Par ch=10 c=11 v=64
464188 Par ch=10 c=11 v=63
464338 Par ch=10 c=11 v=62
464640 Off ch=10 n=43 v=64
464640 On ch=10 n=36 v=107
464640 Par ch=10 c=11 v=48
464790 Par ch=10 c=11 v=47
464850 Par ch=10 c=11 v=46
464880 Par ch=10 c=11 v=45
464940 Par ch=10 c=11 v=44
464970 Par ch=10 c=11 v=43
465000 Par ch=10 c=11 v=41
465024 Par ch=10 c=11 v=40
466200 Par ch=10 c=11 v=41
466830 Par ch=10 c=11 v=42
467310 Par ch=10 c=11 v=43
467730 Par ch=10 c=11 v=44
468090 Par ch=10 c=11 v=45
468420 Par ch=10 c=11 v=46
468480 Off ch=10 n=36 v=64
468480 On ch=10 n=38 v=107
468720 Par ch=10 c=11 v=47
468990 Par ch=10 c=11 v=48
469260 Par ch=10 c=11 v=49
469500 Par ch=10 c=11 v=50
469740 Par ch=10 c=11 v=51
469950 Par ch=10 c=11 v=52
470190 Par ch=10 c=11 v=53
470370 Par ch=10 c=11 v=54
470580 Par ch=10 c=11 v=55
470790 Par ch=10 c=11 v=56
470970 Par ch=10 c=11 v=57
471136 Par ch=10 c=11 v=58
472320 Off ch=10 n=38 v=64
472320 On ch=10 n=40 v=107
472320 Par ch=10 c=11 v=44
472350 Par ch=10 c=11 v=45
472410 Par ch=10 c=11 v=46
472500 Par ch=10 c=11 v=47
472590 Par ch=10 c=11 v=48
472680 Par ch=10 c=11 v=49
472800 Par ch=10 c=11 v=50
472890 Par ch=10 c=11 v=51
473010 Par ch=10 c=11 v=52
473160 Par ch=10 c=11 v=53
473340 Par ch=10 c=11 v=54
473550 Par ch=10 c=11 v=55
475136 Par ch=10 c=11 v=55
476246 Par ch=10 c=11 v=54
476696 Par ch=10 c=11 v=53
477056 Par ch=10 c=11 v=52
477356 Par ch=10 c=11 v=51
477626 Par ch=10 c=11 v=50
477836 Par ch=10 c=11 v=49
478076 Par ch=10 c=11 v=48
478256 Par ch=10 c=11 v=47
478466 Par ch=10 c=11 v=46
478646 Par ch=10 c=11 v=45
478796 Par ch=10 c=11 v=44
478976 Par ch=10 c=11 v=43
479126 Par ch=10 c=11 v=42
479276 Par ch=10 c=11 v=41
479426 Par ch=10 c=11 v=40
479546 Par ch=10 c=11 v=39
479696 Par ch=10 c=11 v=38
479808 Par ch=10 c=11 v=37
479904 Off ch=10 n=40 v=64
480000 On ch=10 n=36 v=107
480000 Par ch=10 c=11 v=36
481860 Par ch=10 c=11 v=37
482610 Par ch=10 c=11 v=38
483180 Par ch=10 c=11 v=39
483690 Par ch=10 c=11 v=40
483840 Off ch=10 n=36 v=64
483840 On ch=10 n=38 v=107
484110 Par ch=10 c=11 v=41
484500 Par ch=10 c=11 v=42
484860 Par ch=10 c=11 v=43
485190 Par ch=10 c=11 v=44
485520 Par ch=10 c=11 v=45
485820 Par ch=10 c=11 v=46
486090 Par ch=10 c=11 v=47
486360 Par ch=10 c=11 v=48
486630 Par ch=10 c=11 v=49
486870 Par ch=10 c=11 v=50
487104 Par ch=10 c=11 v=51
487680 Off ch=10 n=38 v=64
487680 On ch=10 n=40 v=107
487680 Par ch=10 c=11 v=50
489150 Par ch=10 c=11 v=49
489750 Par ch=10 c=11 v=48
490200 Par ch=10 c=11 v=47
490590 Par ch=10 c=11 v=46
490920 Par ch=10 c=11 v=45
491250 Par ch=10 c=11 v=44
491520 Par ch=10 c=11 v=43
491790 Par ch=10 c=11 v=42
492030 Par ch=10 c=11 v=41
492270 Par ch=10 c=11 v=40
492480 Par ch=10 c=11 v=39
492720 Par ch=10 c=11 v=38
492900 Par ch=10 c=11 v=37
493110 Par ch=10 c=11 v=36
493290 Par ch=10 c=11 v=35
493470 Par ch=10 c=11 v=34
493650 Par ch=10 c=11 v=33
493830 Par ch=10 c=11 v=32
494010 Par ch=10 c=11 v=31
494160 Par ch=10 c=11 v=30
494340 Par ch=10 c=11 v=29
494490 Par ch=10 c=11 v=28
494640 Par ch=10 c=11 v=27
494790 Par ch=10 c=11 v=26
494940 Par ch=10 c=11 v=25
495060 Par ch=10 c=11 v=24
495200 Par ch=10 c=11 v=23
495264 Off ch=10 n=40 v=64
495360 On ch=10 n=36 v=107
495360 Par ch=10 c=11 v=28
497910 Par ch=10 c=11 v=29
498960 Par ch=10 c=11 v=30
499200 Off ch=10 n=36 v=64
499200 On ch=10 n=38 v=107
499740 Par ch=10 c=11 v=31
500430 Par ch=10 c=11 v=32
501030 Par ch=10 c=11 v=33
501570 Par ch=10 c=11 v=34
502050 Par ch=10 c=11 v=35
502530 Par ch=10 c=11 v=36
502944 Par ch=10 c=11 v=37
503040 Off ch=10 n=38 v=64
503040 On ch=10 n=40 v=107
503040 Par ch=10 c=11 v=31
503070 Par ch=10 c=11 v=32
503220 Par ch=10 c=11 v=33
503370 Par ch=10 c=11 v=34
503580 Par ch=10 c=11 v=35
503820 Par ch=10 c=11 v=36
504120 Par ch=10 c=11 v=37
504864 Par ch=10 c=11 v=35
505854 Par ch=10 c=11 v=34
506274 Par ch=10 c=11 v=33
506574 Par ch=10 c=11 v=32
506844 Par ch=10 c=11 v=31
507054 Par ch=10 c=11 v=30
507264 Par ch=10 c=11 v=29
507474 Par ch=10 c=11 v=28
507654 Par ch=10 c=11 v=27
507804 Par ch=10 c=11 v=26
507984 Par ch=10 c=11 v=25
508134 Par ch=10 c=11 v=24
508284 Par ch=10 c=11 v=23
508404 Par ch=10 c=11 v=22
508554 Par ch=10 c=11 v=21
508674 Par ch=10 c=11 v=20
508794 Par ch=10 c=11 v=19
508914 Par ch=10 c=11 v=18
509034 Par ch=10 c=11 v=17
509154 Par ch=10 c=11 v=16
509244 Par ch=10 c=11 v=15
509364 Par ch=10 c=11 v=14
509484 Par ch=10 c=11 v=13
509574 Par ch=10 c=11 v=12
509664 Par ch=10 c=11 v=11
509784 Par ch=10 c=11 v=10
509874 Par ch=10 c=11 v=9
509964 Par ch=10 c=11 v=8
510054 Par ch=10 c=11 v=7
510144 Par ch=10 c=11 v=6
510234 Par ch=10 c=11 v=5
510324 Par ch=10 c=11 v=4
510414 Par ch=10 c=11 v=3
510504 Par ch=10 c=11 v=2
510594 Par ch=10 c=11 v=1
510624 Off ch=10 n=40 v=64
510656 Par ch=10 c=11 v=0
510656 Meta TrkEnd
TrkEnd
MTrk
0 SeqSpec 43 00 01 ff
0 Meta TrkName "Contrabass"
1920 PrCh ch=11 p=8
1930 Par ch=11 c=7 v=100
1940 Par ch=11 c=10 v=64
1950 Par ch=11 c=11 v=127
1960 Par ch=11 c=20 v=127
1970 Par ch=11 c=91 v=0
1980 Par ch=11 c=93 v=0
1990 Par ch=11 c=94 v=0
2000 Par ch=11 c=101 v=0
2010 Par ch=11 c=100 v=0
2020 Par ch=11 c=6 v=2
2030 Par ch=11 c=101 v=127
2040 Par ch=11 c=100 v=127
34560 On ch=11 n=51 v=100
34560 Par ch=11 c=11 v=106
34912 Off ch=11 n=51 v=100
35040 On ch=11 n=51 v=100
35280 Off ch=11 n=51 v=100
35280 On ch=11 n=63 v=100
35520 Off ch=11 n=63 v=100
36480 On ch=11 n=51 v=100
36832 Off ch=11 n=51 v=100
36960 On ch=11 n=51 v=100
37200 Off ch=11 n=51 v=100
37200 On ch=11 n=63 v=100
37440 Off ch=11 n=63 v=100
38400 On ch=11 n=51 v=100
38752 Off ch=11 n=51 v=100
38880 On ch=11 n=51 v=100
39120 Off ch=11 n=51 v=100
39120 On ch=11 n=63 v=100
39360 Off ch=11 n=63 v=100
40320 On ch=11 n=51 v=100
40608 Off ch=11 n=51 v=100
40800 On ch=11 n=63 v=100
41088 Off ch=11 n=63 v=100
41280 On ch=11 n=56 v=100
41568 Off ch=11 n=56 v=100
41760 On ch=11 n=68 v=100
42048 Off ch=11 n=68 v=100
42240 On ch=11 n=51 v=100
42592 Off ch=11 n=51 v=100
42720 On ch=11 n=51 v=100
42960 Off ch=11 n=51 v=100
42960 On ch=11 n=63 v=100
43200 Off ch=11 n=63 v=100
44160 On ch=11 n=51 v=100
44512 Off ch=11 n=51 v=100
44640 On ch=11 n=51 v=100
44880 Off ch=11 n=51 v=100
44880 On ch=11 n=63 v=100
45120 Off ch=11 n=63 v=100
46080 On ch=11 n=51 v=100
46432 Off ch=11 n=51 v=100
46560 On ch=11 n=51 v=100
46800 Off ch=11 n=51 v=100
46800 On ch=11 n=63 v=100
47040 Off ch=11 n=63 v=100
48000 On ch=11 n=56 v=100
48288 Off ch=11 n=56 v=100
48480 On ch=11 n=68 v=100
48768 Off ch=11 n=68 v=100
48960 On ch=11 n=54 v=100
49248 Off ch=11 n=54 v=100
49440 On ch=11 n=66 v=100
49728 Off ch=11 n=66 v=100
49920 On ch=11 n=51 v=100
50272 Off ch=11 n=51 v=100
50400 On ch=11 n=51 v=100
50640 Off ch=11 n=51 v=100
50640 On ch=11 n=63 v=100
50880 Off ch=11 n=63 v=100
51840 On ch=11 n=51 v=100
52192 Off ch=11 n=51 v=100
52320 On ch=11 n=51 v=100
52560 Off ch=11 n=51 v=100
52560 On ch=11 n=63 v=100
52800 Off ch=11 n=63 v=100
53760 On ch=11 n=51 v=100
54112 Off ch=11 n=51 v=100
54240 On ch=11 n=51 v=100
54480 Off ch=11 n=51 v=100
54480 On ch=11 n=63 v=100
54720 Off ch=11 n=63 v=100
55680 On ch=11 n=51 v=100
55968 Off ch=11 n=51 v=100
56160 On ch=11 n=63 v=100
56448 Off ch=11 n=63 v=100
56640 On ch=11 n=56 v=100
56928 Off ch=11 n=56 v=100
57120 On ch=11 n=68 v=100
57408 Off ch=11 n=68 v=100
57600 On ch=11 n=51 v=100
57952 Off ch=11 n=51 v=100
58080 On ch=11 n=51 v=100
58320 Off ch=11 n=51 v=100
58320 On ch=11 n=63 v=100
58560 Off ch=11 n=63 v=100
59520 On ch=11 n=51 v=100
59872 Off ch=11 n=51 v=100
60000 On ch=11 n=51 v=100
60240 Off ch=11 n=51 v=100
60240 On ch=11 n=63 v=100
60480 Off ch=11 n=63 v=100
61440 On ch=11 n=51 v=100
61792 Off ch=11 n=51 v=100
61920 On ch=11 n=51 v=100
62160 Off ch=11 n=51 v=100
62160 On ch=11 n=63 v=100
62400 Off ch=11 n=63 v=100
63360 On ch=11 n=56 v=100
63648 Off ch=11 n=56 v=100
63840 On ch=11 n=68 v=100
64128 Off ch=11 n=68 v=100
64320 On ch=11 n=54 v=100
64608 Off ch=11 n=54 v=100
64800 On ch=11 n=66 v=100
65088 Off ch=11 n=66 v=100
65280 Par ch=11 c=11 v=98
65280 On ch=11 n=51 v=100
65632 Off ch=11 n=51 v=100
65760 On ch=11 n=51 v=100
66000 Off ch=11 n=51 v=100
66000 On ch=11 n=63 v=100
66240 Off ch=11 n=63 v=100
67200 On ch=11 n=51 v=100
67552 Off ch=11 n=51 v=100
67680 On ch=11 n=51 v=100
67920 Off ch=11 n=51 v=100
67920 On ch=11 n=63 v=100
68160 Off ch=11 n=63 v=100
69120 On ch=11 n=51 v=100
69472 Off ch=11 n=51 v=100
69600 On ch=11 n=51 v=100
69840 Off ch=11 n=51 v=100
69840 On ch=11 n=63 v=100
70080 Off ch=11 n=63 v=100
71040 On ch=11 n=51 v=100
71328 Off ch=11 n=51 v=100
71520 On ch=11 n=63 v=100
71808 Off ch=11 n=63 v=100
72000 On ch=11 n=56 v=100
72288 Off ch=11 n=56 v=100
72480 On ch=11 n=44 v=100
72768 Off ch=11 n=44 v=100
72960 On ch=11 n=47 v=100
73312 Off ch=11 n=47 v=100
73440 On ch=11 n=47 v=100
73680 Off ch=11 n=47 v=100
73680 On ch=11 n=59 v=100
73920 Off ch=11 n=59 v=100
74880 On ch=11 n=47 v=100
75232 Off ch=11 n=47 v=100
75360 On ch=11 n=47 v=100
75600 Off ch=11 n=47 v=100
75600 On ch=11 n=59 v=100
75840 Off ch=11 n=59 v=100
76800 On ch=11 n=49 v=100
77152 Off ch=11 n=49 v=100
77280 On ch=11 n=49 v=100
77520 Off ch=11 n=49 v=100
77520 On ch=11 n=61 v=100
77760 Off ch=11 n=61 v=100
78720 On ch=11 n=50 v=100
79008 Off ch=11 n=50 v=100
79200 On ch=11 n=62 v=100
79488 Off ch=11 n=62 v=100
79680 On ch=11 n=56 v=100
79968 Off ch=11 n=56 v=100
80160 On ch=11 n=44 v=100
80448 Off ch=11 n=44 v=100
80640 On ch=11 n=51 v=100
80992 Off ch=11 n=51 v=100
81120 On ch=11 n=51 v=100
81360 Off ch=11 n=51 v=100
81360 On ch=11 n=63 v=100
81600 Off ch=11 n=63 v=100
82560 On ch=11 n=51 v=100
82912 Off ch=11 n=51 v=100
83040 On ch=11 n=51 v=100
83280 Off ch=11 n=51 v=100
83280 On ch=11 n=63 v=100
83520 Off ch=11 n=63 v=100
84480 On ch=11 n=51 v=100
84832 Off ch=11 n=51 v=100
84960 On ch=11 n=51 v=100
85200 Off ch=11 n=51 v=100
85200 On ch=11 n=63 v=100
85440 Off ch=11 n=63 v=100
86400 On ch=11 n=51 v=100
86688 Off ch=11 n=51 v=100
86880 On ch=11 n=63 v=100
87168 Off ch=11 n=63 v=100
87360 On ch=11 n=56 v=100
87648 Off ch=11 n=56 v=100
87840 On ch=11 n=44 v=100
88128 Off ch=11 n=44 v=100
88320 On ch=11 n=47 v=100
88672 Off ch=11 n=47 v=100
88800 On ch=11 n=47 v=100
89040 Off ch=11 n=47 v=100
89040 On ch=11 n=59 v=100
89280 Off ch=11 n=59 v=100
90240 On ch=11 n=47 v=100
90592 Off ch=11 n=47 v=100
90720 On ch=11 n=47 v=100
90960 Off ch=11 n=47 v=100
90960 On ch=11 n=59 v=100
91200 Off ch=11 n=59 v=100
92160 On ch=11 n=49 v=100
92512 Off ch=11 n=49 v=100
92640 On ch=11 n=49 v=100
92880 Off ch=11 n=49 v=100
92880 On ch=11 n=61 v=100
93120 Off ch=11 n=61 v=100
94080 On ch=11 n=50 v=100
94368 Off ch=11 n=50 v=100
94560 On ch=11 n=62 v=100
94848 Off ch=11 n=62 v=100
95040 On ch=11 n=56 v=100
95328 Off ch=11 n=56 v=100
95520 On ch=11 n=44 v=100
95808 Off ch=11 n=44 v=100
96000 On ch=11 n=51 v=100
96352 Off ch=11 n=51 v=100
96480 On ch=11 n=51 v=100
96720 Off ch=11 n=51 v=100
96720 On ch=11 n=63 v=100
96960 Off ch=11 n=63 v=100
97920 On ch=11 n=51 v=100
98272 Off ch=11 n=51 v=100
98400 On ch=11 n=51 v=100
98640 Off ch=11 n=51 v=100
98640 On ch=11 n=63 v=100
98880 Off ch=11 n=63 v=100
99840 On ch=11 n=51 v=100
100192 Off ch=11 n=51 v=100
100320 On ch=11 n=51 v=100
100560 Off ch=11 n=51 v=100
100560 On ch=11 n=63 v=100
100800 Off ch=11 n=63 v=100
101760 On ch=11 n=51 v=100
102048 Off ch=11 n=51 v=100
102240 On ch=11 n=63 v=100
102528 Off ch=11 n=63 v=100
102720 On ch=11 n=56 v=100
103008 Off ch=11 n=56 v=100
103200 On ch=11 n=44 v=100
103488 Off ch=11 n=44 v=100
103680 On ch=11 n=47 v=100
104032 Off ch=11 n=47 v=100
104160 On ch=11 n=47 v=100
104400 Off ch=11 n=47 v=100
104400 On ch=11 n=59 v=100
104640 Off ch=11 n=59 v=100
105600 On ch=11 n=47 v=100
105952 Off ch=11 n=47 v=100
106080 On ch=11 n=47 v=100
106320 Off ch=11 n=47 v=100
106320 On ch=11 n=59 v=100
106560 Off ch=11 n=59 v=100
107520 On ch=11 n=49 v=100
107872 Off ch=11 n=49 v=100
108000 On ch=11 n=49 v=100
108240 Off ch=11 n=49 v=100
108240 On ch=11 n=61 v=100
108480 Off ch=11 n=61 v=100
109440 On ch=11 n=50 v=100
109728 Off ch=11 n=50 v=100
109920 On ch=11 n=62 v=100
110208 Off ch=11 n=62 v=100
110400 On ch=11 n=56 v=100
110688 Off ch=11 n=56 v=100
110880 On ch=11 n=44 v=100
111168 Off ch=11 n=44 v=100
111360 On ch=11 n=51 v=100
111712 Off ch=11 n=51 v=100
111840 On ch=11 n=51 v=100
112080 Off ch=11 n=51 v=100
112080 On ch=11 n=63 v=100
112320 Off ch=11 n=63 v=100
113280 On ch=11 n=51 v=100
113632 Off ch=11 n=51 v=100
113760 On ch=11 n=51 v=100
114000 Off ch=11 n=51 v=100
114000 On ch=11 n=63 v=100
114240 Off ch=11 n=63 v=100
115200 On ch=11 n=51 v=100
115552 Off ch=11 n=51 v=100
115680 On ch=11 n=51 v=100
115920 Off ch=11 n=51 v=100
115920 On ch=11 n=63 v=100
116160 Off ch=11 n=63 v=100
117120 On ch=11 n=51 v=100
117408 Off ch=11 n=51 v=100
117600 On ch=11 n=63 v=100
117888 Off ch=11 n=63 v=100
118080 On ch=11 n=56 v=100
118368 Off ch=11 n=56 v=100
118560 On ch=11 n=44 v=100
118848 Off ch=11 n=44 v=100
119040 On ch=11 n=47 v=100
119392 Off ch=11 n=47 v=100
119520 On ch=11 n=47 v=100
119760 Off ch=11 n=47 v=100
119760 On ch=11 n=59 v=100
120000 Off ch=11 n=59 v=100
120960 On ch=11 n=47 v=100
121312 Off ch=11 n=47 v=100
121440 On ch=11 n=47 v=100
121680 Off ch=11 n=47 v=100
121680 On ch=11 n=59 v=100
121920 Off ch=11 n=59 v=100
122880 On ch=11 n=49 v=100
123232 Off ch=11 n=49 v=100
123360 On ch=11 n=49 v=100
123600 Off ch=11 n=49 v=100
123600 On ch=11 n=61 v=100
123840 Off ch=11 n=61 v=100
124800 On ch=11 n=50 v=100
125088 Off ch=11 n=50 v=100
125280 On ch=11 n=62 v=100
125568 Off ch=11 n=62 v=100
125760 On ch=11 n=56 v=100
126048 Off ch=11 n=56 v=100
126240 On ch=11 n=44 v=100
126528 Off ch=11 n=44 v=100
126720 On ch=11 n=47 v=100
127072 Off ch=11 n=47 v=100
127200 On ch=11 n=47 v=100
127440 Off ch=11 n=47 v=100
127440 On ch=11 n=59 v=100
127680 Off ch=11 n=59 v=100
128640 On ch=11 n=47 v=100
128992 Off ch=11 n=47 v=100
129120 On ch=11 n=47 v=100
129360 Off ch=11 n=47 v=100
129360 On ch=11 n=59 v=100
129600 Off ch=11 n=59 v=100
130560 On ch=11 n=49 v=100
130912 Off ch=11 n=49 v=100
131040 On ch=11 n=49 v=100
131280 Off ch=11 n=49 v=100
131280 On ch=11 n=61 v=100
131520 Off ch=11 n=61 v=100
132480 On ch=11 n=49 v=100
132768 Off ch=11 n=49 v=100
132960 On ch=11 n=61 v=100
133248 Off ch=11 n=61 v=100
133440 On ch=11 n=56 v=100
133728 Off ch=11 n=56 v=100
133920 On ch=11 n=44 v=100
134208 Off ch=11 n=44 v=100
134400 On ch=11 n=51 v=100
134752 Off ch=11 n=51 v=100
134880 On ch=11 n=51 v=100
135120 Off ch=11 n=51 v=100
135120 On ch=11 n=63 v=100
135360 Off ch=11 n=63 v=100
136320 On ch=11 n=51 v=100
136672 Off ch=11 n=51 v=100
136800 On ch=11 n=51 v=100
137040 Off ch=11 n=51 v=100
137040 On ch=11 n=63 v=100
137280 Off ch=11 n=63 v=100
138240 On ch=11 n=51 v=100
138592 Off ch=11 n=51 v=100
138720 On ch=11 n=51 v=100
138960 Off ch=11 n=51 v=100
138960 On ch=11 n=63 v=100
139200 Off ch=11 n=63 v=100
140160 On ch=11 n=51 v=100
140448 Off ch=11 n=51 v=100
140640 On ch=11 n=63 v=100
140928 Off ch=11 n=63 v=100
141120 On ch=11 n=58 v=100
141408 Off ch=11 n=58 v=100
141600 On ch=11 n=46 v=100
141888 Off ch=11 n=46 v=100
142080 On ch=11 n=47 v=100
142432 Off ch=11 n=47 v=100
142560 On ch=11 n=47 v=100
142800 Off ch=11 n=47 v=100
142800 On ch=11 n=59 v=100
143040 Off ch=11 n=59 v=100
144000 On ch=11 n=47 v=100
144352 Off ch=11 n=47 v=100
144480 On ch=11 n=47 v=100
144720 Off ch=11 n=47 v=100
144720 On ch=11 n=59 v=100
144960 Off ch=11 n=59 v=100
145920 On ch=11 n=49 v=100
146272 Off ch=11 n=49 v=100
146400 On ch=11 n=49 v=100
146640 Off ch=11 n=49 v=100
146640 On ch=11 n=61 v=100
146880 Off ch=11 n=61 v=100
147840 On ch=11 n=49 v=100
148128 Off ch=11 n=49 v=100
148320 On ch=11 n=61 v=100
148608 Off ch=11 n=61 v=100
148800 On ch=11 n=56 v=100
149088 Off ch=11 n=56 v=100
149280 On ch=11 n=44 v=100
149568 Off ch=11 n=44 v=100
149760 On ch=11 n=51 v=100
150112 Off ch=11 n=51 v=100
150240 On ch=11 n=51 v=100
150480 Off ch=11 n=51 v=100
150480 On ch=11 n=63 v=100
150720 Off ch=11 n=63 v=100
151680 On ch=11 n=51 v=100
152032 Off ch=11 n=51 v=100
152160 On ch=11 n=51 v=100
152400 Off ch=11 n=51 v=100
152400 On ch=11 n=63 v=100
152640 Off ch=11 n=63 v=100
153600 On ch=11 n=51 v=100
153952 Off ch=11 n=51 v=100
154080 On ch=11 n=51 v=100
154320 Off ch=11 n=51 v=100
154320 On ch=11 n=63 v=100
154560 Off ch=11 n=63 v=100
155520 On ch=11 n=51 v=100
155808 Off ch=11 n=51 v=100
156000 On ch=11 n=63 v=100
156288 Off ch=11 n=63 v=100
156480 On ch=11 n=58 v=100
156768 Off ch=11 n=58 v=100
156960 On ch=11 n=46 v=100
157248 Off ch=11 n=46 v=100
157440 On ch=11 n=47 v=100
157792 Off ch=11 n=47 v=100
157920 On ch=11 n=47 v=100
158160 Off ch=11 n=47 v=100
158160 On ch=11 n=59 v=100
158400 Off ch=11 n=59 v=100
159360 On ch=11 n=47 v=100
159712 Off ch=11 n=47 v=100
159840 On ch=11 n=47 v=100
160080 Off ch=11 n=47 v=100
160080 On ch=11 n=59 v=100
160320 Off ch=11 n=59 v=100
161280 On ch=11 n=49 v=100
161632 Off ch=11 n=49 v=100
161760 On ch=11 n=49 v=100
162000 Off ch=11 n=49 v=100
162000 On ch=11 n=61 v=100
162240 Off ch=11 n=61 v=100
163200 On ch=11 n=49 v=100
163488 Off ch=11 n=49 v=100
163680 On ch=11 n=61 v=100
163968 Off ch=11 n=61 v=100
164160 On ch=11 n=56 v=100
164448 Off ch=11 n=56 v=100
164640 On ch=11 n=44 v=100
164928 Off ch=11 n=44 v=100
165120 On ch=11 n=51 v=100
165472 Off ch=11 n=51 v=100
165600 On ch=11 n=51 v=100
165840 Off ch=11 n=51 v=100
165840 On ch=11 n=63 v=100
166080 Off ch=11 n=63 v=100
167040 On ch=11 n=51 v=100
167392 Off ch=11 n=51 v=100
167520 On ch=11 n=51 v=100
167760 Off ch=11 n=51 v=100
167760 On ch=11 n=63 v=100
168000 Off ch=11 n=63 v=100
168960 On ch=11 n=51 v=100
169312 Off ch=11 n=51 v=100
169440 On ch=11 n=51 v=100
169680 Off ch=11 n=51 v=100
169680 On ch=11 n=63 v=100
169920 Off ch=11 n=63 v=100
170880 On ch=11 n=51 v=100
171168 Off ch=11 n=51 v=100
171360 On ch=11 n=63 v=100
171648 Off ch=11 n=63 v=100
171840 On ch=11 n=58 v=100
172128 Off ch=11 n=58 v=100
172320 On ch=11 n=46 v=100
172608 Off ch=11 n=46 v=100
184320 Par ch=11 c=11 v=98
188160 On ch=11 n=47 v=88
188160 Par ch=11 c=11 v=54
189060 Par ch=11 c=11 v=55
189420 Par ch=11 c=11 v=56
189690 Par ch=11 c=11 v=57
189930 Par ch=11 c=11 v=58
190140 Par ch=11 c=11 v=59
190320 Par ch=11 c=11 v=60
190470 Par ch=11 c=11 v=61
190650 Par ch=11 c=11 v=62
190800 Par ch=11 c=11 v=63
190920 Par ch=11 c=11 v=64
191070 Par ch=11 c=11 v=65
191190 Par ch=11 c=11 v=66
191310 Par ch=11 c=11 v=67
191424 Par ch=11 c=11 v=68
192000 Off ch=11 n=47 v=64
192000 On ch=11 n=49 v=88
192000 Par ch=11 c=11 v=57
193110 Par ch=11 c=11 v=58
193560 Par ch=11 c=11 v=59
193920 Par ch=11 c=11 v=60
194220 Par ch=11 c=11 v=61
194490 Par ch=11 c=11 v=62
194730 Par ch=11 c=11 v=63
194940 Par ch=11 c=11 v=64
195120 Par ch=11 c=11 v=65
195330 Par ch=11 c=11 v=66
195488 Par ch=11 c=11 v=67
195840 Off ch=11 n=49 v=64
195840 On ch=11 n=51 v=88
195840 Par ch=11 c=11 v=57
195870 Par ch=11 c=11 v=58
195960 Par ch=11 c=11 v=59
196080 Par ch=11 c=11 v=60
196200 Par ch=11 c=11 v=61
196350 Par ch=11 c=11 v=62
196500 Par ch=11 c=11 v=63
196740 Par ch=11 c=11 v=64
197504 Par ch=11 c=11 v=65
199184 Par ch=11 c=11 v=64
199680 Par ch=11 c=11 v=65
200520 Par ch=11 c=11 v=64
200850 Par ch=11 c=11 v=63
201120 Par ch=11 c=11 v=62
201330 Par ch=11 c=11 v=61
201540 Par ch=11 c=11 v=60
201690 Par ch=11 c=11 v=59
201870 Par ch=11 c=11 v=58
202020 Par ch=11 c=11 v=57
202140 Par ch=11 c=11 v=56
202290 Par ch=11 c=11 v=55
202410 Par ch=11 c=11 v=54
202530 Par ch=11 c=11 v=53
202650 Par ch=11 c=11 v=52
202770 Par ch=11 c=11 v=51
202860 Par ch=11 c=11 v=50
202980 Par ch=11 c=11 v=49
203070 Par ch=11 c=11 v=48
203160 Par ch=11 c=11 v=47
203250 Par ch=11 c=11 v=46
203370 Par ch=11 c=11 v=45
203400 Off ch=11 n=51 v=64
203460 Par ch=11 c=11 v=44
203520 On ch=11 n=47 v=88
203520 Par ch=11 c=11 v=45
204420 Par ch=11 c=11 v=46
204780 Par ch=11 c=11 v=47
205050 Par ch=11 c=11 v=48
205290 Par ch=11 c=11 v=49
205500 Par ch=11 c=11 v=50
205680 Par ch=11 c=11 v=51
205860 Par ch=11 c=11 v=52
206010 Par ch=11 c=11 v=53
206160 Par ch=11 c=11 v=54
206310 Par ch=11 c=11 v=55
206430 Par ch=11 c=11 v=56
206580 Par ch=11 c=11 v=57
206700 Par ch=11 c=11 v=58
206820 Par ch=11 c=11 v=59
206912 Par ch=11 c=11 v=60
206944 Par ch=11 c=11 v=57
207360 Off ch=11 n=47 v=64
207360 On ch=11 n=49 v=88
207360 Par ch=11 c=11 v=49
208290 Par ch=11 c=11 v=50
208650 Par ch=11 c=11 v=51
208950 Par ch=11 c=11 v=52
209190 Par ch=11 c=11 v=53
209400 Par ch=11 c=11 v=54
209610 Par ch=11 c=11 v=55
209790 Par ch=11 c=11 v=56
209940 Par ch=11 c=11 v=57
210090 Par ch=11 c=11 v=58
210240 Par ch=11 c=11 v=59
210390 Par ch=11 c=11 v=60
210510 Par ch=11 c=11 v=61
210660 Par ch=11 c=11 v=62
210780 Par ch=11 c=11 v=63
210880 Par ch=11 c=11 v=64
211200 Off ch=11 n=49 v=64
211200 On ch=11 n=51 v=88
211200 Par ch=11 c=11 v=60
211230 Par ch=11 c=11 v=61
211320 Par ch=11 c=11 v=62
211440 Par ch=11 c=11 v=63
211560 Par ch=11 c=11 v=64
211680 Par ch=11 c=11 v=65
211860 Par ch=11 c=11 v=66
212070 Par ch=11 c=11 v=67
212448 Par ch=11 c=11 v=67
213378 Par ch=11 c=11 v=66
213768 Par ch=11 c=11 v=65
214068 Par ch=11 c=11 v=64
214308 Par ch=11 c=11 v=63
214548 Par ch=11 c=11 v=62
214728 Par ch=11 c=11 v=61
214908 Par ch=11 c=11 v=60
215088 Par ch=11 c=11 v=59
215238 Par ch=11 c=11 v=58
215388 Par ch=11 c=11 v=57
215538 Par ch=11 c=11 v=56
215688 Par ch=11 c=11 v=55
215808 Par ch=11 c=11 v=54
215928 Par ch=11 c=11 v=53
216048 Par ch=11 c=11 v=52
216168 Par ch=11 c=11 v=51
216288 Par ch=11 c=11 v=50
216408 Par ch=11 c=11 v=49
216498 Par ch=11 c=11 v=48
216618 Par ch=11 c=11 v=47
216696 Off ch=11 n=51 v=64
216704 Par ch=11 c=11 v=46
216960 On ch=11 n=44 v=100
216992 Par ch=11 c=11 v=90
217248 Off ch=11 n=44 v=100
217440 On ch=11 n=56 v=100
217728 Off ch=11 n=56 v=100
217920 On ch=11 n=42 v=100
218208 Off ch=11 n=42 v=100
218400 On ch=11 n=54 v=100
218688 Off ch=11 n=54 v=100
218880 On ch=11 n=39 v=100
219232 Off ch=11 n=39 v=100
219360 On ch=11 n=39 v=100
219600 Off ch=11 n=39 v=100
219600 On ch=11 n=51 v=100
219840 Off ch=11 n=51 v=100
220800 On ch=11 n=39 v=100
221152 Off ch=11 n=39 v=100
221280 On ch=11 n=39 v=100
221520 Off ch=11 n=39 v=100
221520 On ch=11 n=51 v=100
221760 Off ch=11 n=51 v=100
222720 On ch=11 n=39 v=100
223072 Off ch=11 n=39 v=100
223200 On ch=11 n=39 v=100
223440 Off ch=11 n=39 v=100
223440 On ch=11 n=51 v=100
223680 Off ch=11 n=51 v=100
224640 On ch=11 n=39 v=100
224928 Off ch=11 n=39 v=100
225120 On ch=11 n=51 v=100
225408 Off ch=11 n=51 v=100
225600 On ch=11 n=44 v=100
225888 Off ch=11 n=44 v=100
226080 On ch=11 n=56 v=100
226368 Off ch=11 n=56 v=100
226560 On ch=11 n=39 v=100
226912 Off ch=11 n=39 v=100
227040 On ch=11 n=39 v=100
227280 Off ch=11 n=39 v=100
227280 On ch=11 n=51 v=100
227520 Off ch=11 n=51 v=100
228480 On ch=11 n=39 v=100
228832 Off ch=11 n=39 v=100
228960 On ch=11 n=39 v=100
229200 Off ch=11 n=39 v=100
229200 On ch=11 n=51 v=100
229440 Off ch=11 n=51 v=100
230400 On ch=11 n=39 v=100
230752 Off ch=11 n=39 v=100
230880 On ch=11 n=39 v=100
231120 Off ch=11 n=39 v=100
231120 On ch=11 n=51 v=100
231360 Off ch=11 n=51 v=100
232320 On ch=11 n=44 v=100
232608 Off ch=11 n=44 v=100
232800 On ch=11 n=56 v=100
233088 Off ch=11 n=56 v=100
233280 On ch=11 n=42 v=100
233568 Off ch=11 n=42 v=100
233760 On ch=11 n=54 v=100
234048 Off ch=11 n=54 v=100
234240 On ch=11 n=39 v=100
234592 Off ch=11 n=39 v=100
234720 On ch=11 n=39 v=100
234960 Off ch=11 n=39 v=100
234960 On ch=11 n=51 v=100
235200 Off ch=11 n=51 v=100
236160 On ch=11 n=39 v=100
236512 Off ch=11 n=39 v=100
236640 On ch=11 n=39 v=100
236880 Off ch=11 n=39 v=100
236880 On ch=11 n=51 v=100
237120 Off ch=11 n=51 v=100
238080 On ch=11 n=39 v=100
238432 Off ch=11 n=39 v=100
238560 On ch=11 n=39 v=100
238800 Off ch=11 n=39 v=100
238800 On ch=11 n=51 v=100
239040 Off ch=11 n=51 v=100
240000 On ch=11 n=39 v=100
240288 Off ch=11 n=39 v=100
240480 On ch=11 n=51 v=100
240768 Off ch=11 n=51 v=100
240960 On ch=11 n=44 v=100
241248 Off ch=11 n=44 v=100
241440 On ch=11 n=56 v=100
241728 Off ch=11 n=56 v=100
241920 On ch=11 n=39 v=100
242272 Off ch=11 n=39 v=100
242400 On ch=11 n=39 v=100
242640 Off ch=11 n=39 v=100
242640 On ch=11 n=51 v=100
242880 Off ch=11 n=51 v=100
243840 On ch=11 n=39 v=100
244192 Off ch=11 n=39 v=100
244320 On ch=11 n=39 v=100
244560 Off ch=11 n=39 v=100
244560 On ch=11 n=51 v=100
244800 Off ch=11 n=51 v=100
245760 On ch=11 n=39 v=100
246112 Off ch=11 n=39 v=100
246240 On ch=11 n=39 v=100
246480 Off ch=11 n=39 v=100
246480 On ch=11 n=51 v=100
246720 Off ch=11 n=51 v=100
247680 On ch=11 n=44 v=100
247968 Off ch=11 n=44 v=100
248160 On ch=11 n=56 v=100
248448 Off ch=11 n=56 v=100
248640 On ch=11 n=42 v=100
248928 Off ch=11 n=42 v=100
249120 On ch=11 n=54 v=100
249408 Off ch=11 n=54 v=100
249600 On ch=11 n=51 v=100
249600 Par ch=11 c=11 v=90
249952 Off ch=11 n=51 v=100
250080 On ch=11 n=51 v=100
250320 Off ch=11 n=51 v=100
250320 On ch=11 n=63 v=100
250560 Off ch=11 n=63 v=100
251520 On ch=11 n=51 v=100
251872 Off ch=11 n=51 v=100
252000 On ch=11 n=51 v=100
252240 Off ch=11 n=51 v=100
252240 On ch=11 n=63 v=100
252480 Off ch=11 n=63 v=100
253440 On ch=11 n=51 v=100
253792 Off ch=11 n=51 v=100
253920 On ch=11 n=51 v=100
254160 Off ch=11 n=51 v=100
254160 On ch=11 n=63 v=100
254400 Off ch=11 n=63 v=100
255360 On ch=11 n=51 v=100
255648 Off ch=11 n=51 v=100
255840 On ch=11 n=63 v=100
256128 Off ch=11 n=63 v=100
256320 On ch=11 n=56 v=100
256608 Off ch=11 n=56 v=100
256800 On ch=11 n=44 v=100
257088 Off ch=11 n=44 v=100
257280 On ch=11 n=47 v=100
257632 Off ch=11 n=47 v=100
257760 On ch=11 n=47 v=100
258000 Off ch=11 n=47 v=100
258000 On ch=11 n=59 v=100
258240 Off ch=11 n=59 v=100
259200 On ch=11 n=47 v=100
259552 Off ch=11 n=47 v=100
259680 On ch=11 n=47 v=100
259920 Off ch=11 n=47 v=100
259920 On ch=11 n=59 v=100
260160 Off ch=11 n=59 v=100
261120 On ch=11 n=49 v=100
261472 Off ch=11 n=49 v=100
261600 On ch=11 n=49 v=100
261840 Off ch=11 n=49 v=100
261840 On ch=11 n=61 v=100
262080 Off ch=11 n=61 v=100
263040 On ch=11 n=50 v=100
263310 Par ch=11 c=11 v=91
263328 Off ch=11 n=50 v=100
263520 On ch=11 n=62 v=100
263808 Off ch=11 n=62 v=100
264000 On ch=11 n=56 v=100
264288 Off ch=11 n=56 v=100
264480 On ch=11 n=44 v=100
264768 Off ch=11 n=44 v=100
264960 On ch=11 n=51 v=100
265312 Off ch=11 n=51 v=100
265440 On ch=11 n=51 v=100
265680 Off ch=11 n=51 v=100
265680 On ch=11 n=63 v=100
265920 Off ch=11 n=63 v=100
266880 On ch=11 n=51 v=100
267232 Off ch=11 n=51 v=100
267360 On ch=11 n=51 v=100
267600 Off ch=11 n=51 v=100
267600 On ch=11 n=63 v=100
267840 Off ch=11 n=63 v=100
268800 On ch=11 n=51 v=100
268950 Par ch=11 c=11 v=92
269152 Off ch=11 n=51 v=100
269280 On ch=11 n=51 v=100
269520 Off ch=11 n=51 v=100
269520 On ch=11 n=63 v=100
269760 Off ch=11 n=63 v=100
270720 On ch=11 n=51 v=100
271008 Off ch=11 n=51 v=100
271200 On ch=11 n=63 v=100
271488 Off ch=11 n=63 v=100
271680 On ch=11 n=56 v=100
271968 Off ch=11 n=56 v=100
272160 On ch=11 n=44 v=100
272448 Off ch=11 n=44 v=100
272640 On ch=11 n=47 v=100
272992 Off ch=11 n=47 v=100
273120 On ch=11 n=47 v=100
273300 Par ch=11 c=11 v=93
273360 Off ch=11 n=47 v=100
273360 On ch=11 n=59 v=100
273600 Off ch=11 n=59 v=100
274560 On ch=11 n=47 v=100
274912 Off ch=11 n=47 v=100
275040 On ch=11 n=47 v=100
275280 Off ch=11 n=47 v=100
275280 On ch=11 n=59 v=100
275520 Off ch=11 n=59 v=100
276480 On ch=11 n=49 v=100
276832 Off ch=11 n=49 v=100
276960 On ch=11 n=49 v=100
276990 Par ch=11 c=11 v=94
277200 Off ch=11 n=49 v=100
277200 On ch=11 n=61 v=100
277440 Off ch=11 n=61 v=100
278400 On ch=11 n=50 v=100
278688 Off ch=11 n=50 v=100
278880 On ch=11 n=62 v=100
279168 Off ch=11 n=62 v=100
279360 On ch=11 n=56 v=100
279648 Off ch=11 n=56 v=100
279840 On ch=11 n=44 v=100
280128 Off ch=11 n=44 v=100
280192 Par ch=11 c=11 v=95
280320 On ch=11 n=51 v=100
280672 Off ch=11 n=51 v=100
280800 On ch=11 n=51 v=100
281040 Off ch=11 n=51 v=100
281040 On ch=11 n=63 v=100
281280 Off ch=11 n=63 v=100
282240 On ch=11 n=51 v=100
282592 Off ch=11 n=51 v=100
282720 On ch=11 n=51 v=100
282960 Off ch=11 n=51 v=100
282960 On ch=11 n=63 v=100
283200 Off ch=11 n=63 v=100
284160 On ch=11 n=51 v=100
284512 Off ch=11 n=51 v=100
284640 On ch=11 n=51 v=100
284880 Off ch=11 n=51 v=100
284880 On ch=11 n=63 v=100
285120 Off ch=11 n=63 v=100
286080 On ch=11 n=51 v=100
286368 Off ch=11 n=51 v=100
286560 On ch=11 n=63 v=100
286848 Off ch=11 n=63 v=100
287040 On ch=11 n=56 v=100
287328 Off ch=11 n=56 v=100
287520 On ch=11 n=44 v=100
287808 Off ch=11 n=44 v=100
288000 On ch=11 n=47 v=100
288352 Off ch=11 n=47 v=100
288480 On ch=11 n=47 v=100
288720 Off ch=11 n=47 v=100
288720 On ch=11 n=59 v=100
288960 Off ch=11 n=59 v=100
289920 On ch=11 n=47 v=100
290272 Off ch=11 n=47 v=100
290400 On ch=11 n=47 v=100
290640 Off ch=11 n=47 v=100
290640 On ch=11 n=59 v=100
290880 Off ch=11 n=59 v=100
291840 On ch=11 n=49 v=100
292192 Off ch=11 n=49 v=100
292320 On ch=11 n=49 v=100
292560 Off ch=11 n=49 v=100
292560 On ch=11 n=61 v=100
292800 Off ch=11 n=61 v=100
293760 On ch=11 n=50 v=100
294048 Off ch=11 n=50 v=100
294240 On ch=11 n=62 v=100
294528 Off ch=11 n=62 v=100
294720 On ch=11 n=56 v=100
295008 Off ch=11 n=56 v=100
295200 On ch=11 n=44 v=100
295488 Off ch=11 n=44 v=100
295680 On ch=11 n=51 v=100
296032 Off ch=11 n=51 v=100
296160 On ch=11 n=51 v=100
296400 Off ch=11 n=51 v=100
296400 On ch=11 n=63 v=100
296640 Off ch=11 n=63 v=100
297600 On ch=11 n=51 v=100
297952 Off ch=11 n=51 v=100
298080 On ch=11 n=51 v=100
298320 Off ch=11 n=51 v=100
298320 On ch=11 n=63 v=100
298560 Off ch=11 n=63 v=100
299520 On ch=11 n=51 v=100
299872 Off ch=11 n=51 v=100
300000 On ch=11 n=51 v=100
300240 Off ch=11 n=51 v=100
300240 On ch=11 n=63 v=100
300480 Off ch=11 n=63 v=100
301440 On ch=11 n=51 v=100
301728 Off ch=11 n=51 v=100
301920 On ch=11 n=63 v=100
302208 Off ch=11 n=63 v=100
302400 On ch=11 n=56 v=100
302688 Off ch=11 n=56 v=100
302880 On ch=11 n=44 v=100
303168 Off ch=11 n=44 v=100
303360 On ch=11 n=47 v=100
303712 Off ch=11 n=47 v=100
303840 On ch=11 n=47 v=100
304080 Off ch=11 n=47 v=100
304080 On ch=11 n=59 v=100
304320 Off ch=11 n=59 v=100
305280 On ch=11 n=47 v=100
305632 Off ch=11 n=47 v=100
305760 On ch=11 n=47 v=100
306000 Off ch=11 n=47 v=100
306000 On ch=11 n=59 v=100
306240 Off ch=11 n=59 v=100
307200 On ch=11 n=49 v=100
307552 Off ch=11 n=49 v=100
307680 On ch=11 n=49 v=100
307920 Off ch=11 n=49 v=100
307920 On ch=11 n=61 v=100
308160 Off ch=11 n=61 v=100
309120 On ch=11 n=50 v=100
309408 Off ch=11 n=50 v=100
309600 On ch=11 n=62 v=100
309888 Off ch=11 n=62 v=100
310080 On ch=11 n=56 v=100
310368 Off ch=11 n=56 v=100
310560 On ch=11 n=44 v=100
310848 Off ch=11 n=44 v=100
311040 On ch=11 n=47 v=123
311040 Par ch=11 c=11 v=99
311376 Off ch=11 n=47 v=64
311520 On ch=11 n=51 v=115
311856 Off ch=11 n=51 v=64
312000 On ch=11 n=59 v=115
312336 Off ch=11 n=59 v=64
312480 On ch=11 n=54 v=115
312816 Off ch=11 n=54 v=64
312960 On ch=11 n=47 v=122
313296 Off ch=11 n=47 v=64
313440 On ch=11 n=51 v=115
313776 Off ch=11 n=51 v=64
313920 On ch=11 n=59 v=115
314256 Off ch=11 n=59 v=64
314400 On ch=11 n=54 v=115
314736 Off ch=11 n=54 v=64
314880 On ch=11 n=49 v=122
315216 Off ch=11 n=49 v=64
315360 On ch=11 n=53 v=115
315696 Off ch=11 n=53 v=64
315840 On ch=11 n=61 v=115
316176 Off ch=11 n=61 v=64
316320 On ch=11 n=56 v=115
316656 Off ch=11 n=56 v=64
316800 On ch=11 n=49 v=123
317136 Off ch=11 n=49 v=64
317280 On ch=11 n=53 v=115
317616 Off ch=11 n=53 v=64
317760 On ch=11 n=61 v=115
318096 Off ch=11 n=61 v=64
318240 On ch=11 n=56 v=115
318576 Off ch=11 n=56 v=64
318720 On ch=11 n=51 v=124
319056 Off ch=11 n=51 v=64
319200 On ch=11 n=54 v=115
319536 Off ch=11 n=54 v=64
319680 On ch=11 n=63 v=115
320016 Off ch=11 n=63 v=64
320160 On ch=11 n=58 v=115
320496 Off ch=11 n=58 v=64
320640 On ch=11 n=51 v=124
320976 Off ch=11 n=51 v=64
321120 On ch=11 n=54 v=115
321456 Off ch=11 n=54 v=64
321600 On ch=11 n=63 v=115
321936 Off ch=11 n=63 v=64
322080 On ch=11 n=58 v=115
322416 Off ch=11 n=58 v=64
322560 On ch=11 n=51 v=122
322896 Off ch=11 n=51 v=64
323040 On ch=11 n=54 v=115
323376 Off ch=11 n=54 v=64
323520 On ch=11 n=63 v=115
323856 Off ch=11 n=63 v=64
324000 On ch=11 n=58 v=115
324336 Off ch=11 n=58 v=64
324480 On ch=11 n=51 v=122
324816 Off ch=11 n=51 v=64
324960 On ch=11 n=54 v=115
325296 Off ch=11 n=54 v=64
325440 On ch=11 n=63 v=115
325776 Off ch=11 n=63 v=64
325920 On ch=11 n=58 v=115
326256 Off ch=11 n=58 v=64
326400 On ch=11 n=47 v=123
326736 Off ch=11 n=47 v=64
326880 On ch=11 n=51 v=115
327216 Off ch=11 n=51 v=64
327360 On ch=11 n=59 v=115
327696 Off ch=11 n=59 v=64
327840 On ch=11 n=54 v=115
328176 Off ch=11 n=54 v=64
328320 On ch=11 n=47 v=122
328656 Off ch=11 n=47 v=64
328800 On ch=11 n=51 v=115
329136 Off ch=11 n=51 v=64
329280 On ch=11 n=59 v=115
329616 Off ch=11 n=59 v=64
329760 On ch=11 n=54 v=115
330096 Off ch=11 n=54 v=64
330240 On ch=11 n=49 v=122
330576 Off ch=11 n=49 v=64
330720 On ch=11 n=53 v=115
331056 Off ch=11 n=53 v=64
331200 On ch=11 n=61 v=115
331536 Off ch=11 n=61 v=64
331680 On ch=11 n=56 v=115
332016 Off ch=11 n=56 v=64
332160 On ch=11 n=49 v=123
332496 Off ch=11 n=49 v=64
332640 On ch=11 n=53 v=115
332976 Off ch=11 n=53 v=64
333120 On ch=11 n=61 v=115
333456 Off ch=11 n=61 v=64
333600 On ch=11 n=56 v=115
333936 Off ch=11 n=56 v=64
334080 On ch=11 n=51 v=124
334416 Off ch=11 n=51 v=64
334560 On ch=11 n=54 v=115
334896 Off ch=11 n=54 v=64
335040 On ch=11 n=63 v=115
335376 Off ch=11 n=63 v=64
335520 On ch=11 n=58 v=115
335856 Off ch=11 n=58 v=64
336000 On ch=11 n=51 v=124
336336 Off ch=11 n=51 v=64
336480 On ch=11 n=54 v=115
336816 Off ch=11 n=54 v=64
336960 On ch=11 n=63 v=115
337296 Off ch=11 n=63 v=64
337440 On ch=11 n=58 v=115
337776 Off ch=11 n=58 v=64
337920 On ch=11 n=51 v=122
338256 Off ch=11 n=51 v=64
338400 On ch=11 n=54 v=115
338736 Off ch=11 n=54 v=64
338880 On ch=11 n=63 v=115
339216 Off ch=11 n=63 v=64
339360 On ch=11 n=58 v=115
339696 Off ch=11 n=58 v=64
339840 On ch=11 n=51 v=122
340176 Off ch=11 n=51 v=64
340320 On ch=11 n=54 v=115
340656 Off ch=11 n=54 v=64
340800 On ch=11 n=63 v=115
341136 Off ch=11 n=63 v=64
341280 On ch=11 n=58 v=115
341616 Off ch=11 n=58 v=64
341760 On ch=11 n=47 v=123
341760 Par ch=11 c=11 v=106
342096 Off ch=11 n=47 v=64
342240 On ch=11 n=51 v=115
342576 Off ch=11 n=51 v=64
342720 On ch=11 n=59 v=115
343056 Off ch=11 n=59 v=64
343200 On ch=11 n=54 v=115
343536 Off ch=11 n=54 v=64
343680 On ch=11 n=47 v=122
344016 Off ch=11 n=47 v=64
344160 On ch=11 n=51 v=115
344496 Off ch=11 n=51 v=64
344640 On ch=11 n=59 v=115
344976 Off ch=11 n=59 v=64
345120 On ch=11 n=54 v=115
345456 Off ch=11 n=54 v=64
345600 On ch=11 n=49 v=122
345936 Off ch=11 n=49 v=64
346080 On ch=11 n=53 v=115
346416 Off ch=11 n=53 v=64
346560 On ch=11 n=61 v=115
346896 Off ch=11 n=61 v=64
347040 On ch=11 n=56 v=115
347376 Off ch=11 n=56 v=64
347520 On ch=11 n=49 v=123
347856 Off ch=11 n=49 v=64
348000 On ch=11 n=53 v=115
348336 Off ch=11 n=53 v=64
348480 On ch=11 n=61 v=115
348816 Off ch=11 n=61 v=64
348960 On ch=11 n=56 v=115
349296 Off ch=11 n=56 v=64
349440 On ch=11 n=51 v=124
349776 Off ch=11 n=51 v=64
349920 On ch=11 n=54 v=115
350256 Off ch=11 n=54 v=64
350400 On ch=11 n=63 v=115
350736 Off ch=11 n=63 v=64
350880 On ch=11 n=58 v=115
351216 Off ch=11 n=58 v=64
351360 On ch=11 n=51 v=124
351696 Off ch=11 n=51 v=64
351840 On ch=11 n=54 v=115
352176 Off ch=11 n=54 v=64
352320 On ch=11 n=63 v=115
352656 Off ch=11 n=63 v=64
352800 On ch=11 n=58 v=115
353136 Off ch=11 n=58 v=64
353280 On ch=11 n=51 v=122
353616 Off ch=11 n=51 v=64
353760 On ch=11 n=54 v=115
354096 Off ch=11 n=54 v=64
354240 On ch=11 n=63 v=115
354576 Off ch=11 n=63 v=64
354720 On ch=11 n=58 v=115
355056 Off ch=11 n=58 v=64
355200 On ch=11 n=51 v=122
355536 Off ch=11 n=51 v=64
355680 On ch=11 n=54 v=115
356016 Off ch=11 n=54 v=64
356160 On ch=11 n=63 v=115
356496 Off ch=11 n=63 v=64
356640 On ch=11 n=58 v=115
356976 Off ch=11 n=58 v=64
357120 On ch=11 n=47 v=123
357456 Off ch=11 n=47 v=64
357600 On ch=11 n=51 v=115
357936 Off ch=11 n=51 v=64
358080 On ch=11 n=59 v=115
358416 Off ch=11 n=59 v=64
358560 On ch=11 n=54 v=115
358896 Off ch=11 n=54 v=64
359040 On ch=11 n=47 v=122
359376 Off ch=11 n=47 v=64
359520 On ch=11 n=51 v=115
359856 Off ch=11 n=51 v=64
360000 On ch=11 n=59 v=115
360336 Off ch=11 n=59 v=64
360480 On ch=11 n=54 v=115
360816 Off ch=11 n=54 v=64
360960 On ch=11 n=49 v=122
361296 Off ch=11 n=49 v=64
361440 On ch=11 n=53 v=115
361776 Off ch=11 n=53 v=64
361920 On ch=11 n=61 v=115
362256 Off ch=11 n=61 v=64
362400 On ch=11 n=56 v=115
362736 Off ch=11 n=56 v=64
362880 On ch=11 n=49 v=123
363216 Off ch=11 n=49 v=64
363360 On ch=11 n=53 v=115
363696 Off ch=11 n=53 v=64
363840 On ch=11 n=61 v=115
364176 Off ch=11 n=61 v=64
364320 On ch=11 n=56 v=115
364656 Off ch=11 n=56 v=64
364800 On ch=11 n=51 v=124
365136 Off ch=11 n=51 v=64
365280 On ch=11 n=54 v=115
365616 Off ch=11 n=54 v=64
365760 On ch=11 n=63 v=115
366096 Off ch=11 n=63 v=64
366240 On ch=11 n=58 v=115
366576 Off ch=11 n=58 v=64
366720 On ch=11 n=51 v=124
367056 Off ch=11 n=51 v=64
367200 On ch=11 n=54 v=115
367536 Off ch=11 n=54 v=64
367680 On ch=11 n=63 v=115
368016 Off ch=11 n=63 v=64
368160 On ch=11 n=58 v=115
368496 Off ch=11 n=58 v=64
368640 On ch=11 n=51 v=122
368976 Off ch=11 n=51 v=64
369120 On ch=11 n=54 v=115
369456 Off ch=11 n=54 v=64
369600 On ch=11 n=63 v=115
369936 Off ch=11 n=63 v=64
370080 On ch=11 n=58 v=115
370416 Off ch=11 n=58 v=64
370560 On ch=11 n=51 v=122
370896 Off ch=11 n=51 v=64
460800 Par ch=11 c=11 v=104
462624 Par ch=11 c=11 v=85
462720 On ch=11 n=57 v=107
463314 Par ch=11 c=11 v=86
463584 Par ch=11 c=11 v=87
463680 Off ch=11 n=57 v=64
463680 On ch=11 n=55 v=107
463712 Par ch=11 c=11 v=88
463742 Par ch=11 c=11 v=86
463772 Par ch=11 c=11 v=85
463802 Par ch=11 c=11 v=84
463832 Par ch=11 c=11 v=83
463862 Par ch=11 c=11 v=82
463892 Par ch=11 c=11 v=81
463922 Par ch=11 c=11 v=80
463952 Par ch=11 c=11 v=79
463982 Par ch=11 c=11 v=78
464012 Par ch=11 c=11 v=77
464042 Par ch=11 c=11 v=76
464072 Par ch=11 c=11 v=75
464132 Par ch=11 c=11 v=74
464162 Par ch=11 c=11 v=73
464222 Par ch=11 c=11 v=72
464282 Par ch=11 c=11 v=71
464372 Par ch=11 c=11 v=70
464640 Off ch=11 n=55 v=64
464640 On ch=11 n=48 v=107
464640 Par ch=11 c=11 v=73
464730 Par ch=11 c=11 v=72
464790 Par ch=11 c=11 v=71
464820 Par ch=11 c=11 v=69
464850 Par ch=11 c=11 v=68
464880 Par ch=11 c=11 v=66
464910 Par ch=11 c=11 v=64
464940 Par ch=11 c=11 v=62
464960 Par ch=11 c=11 v=60
467850 Par ch=11 c=11 v=58
468480 Off ch=11 n=48 v=64
468480 On ch=11 n=50 v=107
469200 Par ch=11 c=11 v=59
470220 Par ch=11 c=11 v=60
471060 Par ch=11 c=11 v=61
471808 Par ch=11 c=11 v=62
472320 Off ch=11 n=50 v=64
472320 On ch=11 n=52 v=107
472320 Par ch=11 c=11 v=56
472350 Par ch=11 c=11 v=57
472500 Par ch=11 c=11 v=58
472710 Par ch=11 c=11 v=59
472980 Par ch=11 c=11 v=60
474752 Par ch=11 c=11 v=62
475652 Par ch=11 c=11 v=61
476012 Par ch=11 c=11 v=60
476312 Par ch=11 c=11 v=59
476552 Par ch=11 c=11 v=58
476762 Par ch=11 c=11 v=57
476942 Par ch=11 c=11 v=56
477122 Par ch=11 c=11 v=55
477272 Par ch=11 c=11 v=54
477422 Par ch=11 c=11 v=53
477572 Par ch=11 c=11 v=52
477692 Par ch=11 c=11 v=51
477842 Par ch=11 c=11 v=50
477962 Par ch=11 c=11 v=49
478082 Par ch=11 c=11 v=48
478202 Par ch=11 c=11 v=47
478322 Par ch=11 c=11 v=46
478412 Par ch=11 c=11 v=45
478532 Par ch=11 c=11 v=44
478622 Par ch=11 c=11 v=43
478742 Par ch=11 c=11 v=42
478832 Par ch=11 c=11 v=41
478922 Par ch=11 c=11 v=40
479012 Par ch=11 c=11 v=39
479102 Par ch=11 c=11 v=38
479192 Par ch=11 c=11 v=37
479282 Par ch=11 c=11 v=36
479372 Par ch=11 c=11 v=35
479462 Par ch=11 c=11 v=34
479522 Par ch=11 c=11 v=33
479612 Par ch=11 c=11 v=32
479702 Par ch=11 c=11 v=31
479792 Par ch=11 c=11 v=30
479840 Par ch=11 c=11 v=29
479904 Off ch=11 n=52 v=64
480000 On ch=11 n=48 v=107
480000 Par ch=11 c=11 v=36
481860 Par ch=11 c=11 v=37
482610 Par ch=11 c=11 v=38
483180 Par ch=11 c=11 v=39
483690 Par ch=11 c=11 v=40
483840 Off ch=11 n=48 v=64
483840 On ch=11 n=50 v=107
484110 Par ch=11 c=11 v=41
484500 Par ch=11 c=11 v=42
484860 Par ch=11 c=11 v=43
485190 Par ch=11 c=11 v=44
485520 Par ch=11 c=11 v=45
485820 Par ch=11 c=11 v=46
486090 Par ch=11 c=11 v=47
486360 Par ch=11 c=11 v=48
486630 Par ch=11 c=11 v=49
486870 Par ch=11 c=11 v=50
487104 Par ch=11 c=11 v=51
487680 Off ch=11 n=50 v=64
487680 On ch=11 n=52 v=107
487680 Par ch=11 c=11 v=50
489150 Par ch=11 c=11 v=49
489750 Par ch=11 c=11 v=48
490200 Par ch=11 c=11 v=47
490590 Par ch=11 c=11 v=46
490920 Par ch=11 c=11 v=45
491250 Par ch=11 c=11 v=44
491520 Par ch=11 c=11 v=43
491790 Par ch=11 c=11 v=42
492030 Par ch=11 c=11 v=41
492270 Par ch=11 c=11 v=40
492480 Par ch=11 c=11 v=39
492720 Par ch=11 c=11 v=38
492900 Par ch=11 c=11 v=37
493110 Par ch=11 c=11 v=36
493290 Par ch=11 c=11 v=35
493470 Par ch=11 c=11 v=34
493650 Par ch=11 c=11 v=33
493830 Par ch=11 c=11 v=32
494010 Par ch=11 c=11 v=31
494160 Par ch=11 c=11 v=30
494340 Par ch=11 c=11 v=29
494490 Par ch=11 c=11 v=28
494640 Par ch=11 c=11 v=27
494790 Par ch=11 c=11 v=26
494940 Par ch=11 c=11 v=25
495060 Par ch=11 c=11 v=24
495200 Par ch=11 c=11 v=23
495264 Off ch=11 n=52 v=64
495360 On ch=11 n=48 v=107
495360 Par ch=11 c=11 v=28
497910 Par ch=11 c=11 v=29
498960 Par ch=11 c=11 v=30
499200 Off ch=11 n=48 v=64
499200 On ch=11 n=50 v=107
499740 Par ch=11 c=11 v=31
500430 Par ch=11 c=11 v=32
501030 Par ch=11 c=11 v=33
501570 Par ch=11 c=11 v=34
502050 Par ch=11 c=11 v=35
502530 Par ch=11 c=11 v=36
502944 Par ch=11 c=11 v=37
503040 Off ch=11 n=50 v=64
503040 On ch=11 n=52 v=107
503040 Par ch=11 c=11 v=31
503070 Par ch=11 c=11 v=32
503220 Par ch=11 c=11 v=33
503370 Par ch=11 c=11 v=34
503580 Par ch=11 c=11 v=35
503820 Par ch=11 c=11 v=36
504120 Par ch=11 c=11 v=37
504864 Par ch=11 c=11 v=35
505854 Par ch=11 c=11 v=34
506274 Par ch=11 c=11 v=33
506574 Par ch=11 c=11 v=32
506844 Par ch=11 c=11 v=31
507054 Par ch=11 c=11 v=30
507264 Par ch=11 c=11 v=29
507474 Par ch=11 c=11 v=28
507654 Par ch=11 c=11 v=27
507804 Par ch=11 c=11 v=26
507984 Par ch=11 c=11 v=25
508134 Par ch=11 c=11 v=24
508284 Par ch=11 c=11 v=23
508404 Par ch=11 c=11 v=22
508554 Par ch=11 c=11 v=21
508674 Par ch=11 c=11 v=20
508794 Par ch=11 c=11 v=19
508914 Par ch=11 c=11 v=18
509034 Par ch=11 c=11 v=17
509154 Par ch=11 c=11 v=16
509244 Par ch=11 c=11 v=15
509364 Par ch=11 c=11 v=14
509484 Par ch=11 c=11 v=13
509574 Par ch=11 c=11 v=12
509664 Par ch=11 c=11 v=11
509784 Par ch=11 c=11 v=10
509874 Par ch=11 c=11 v=9
509964 Par ch=11 c=11 v=8
510054 Par ch=11 c=11 v=7
510144 Par ch=11 c=11 v=6
510234 Par ch=11 c=11 v=5
510324 Par ch=11 c=11 v=4
510414 Par ch=11 c=11 v=3
510504 Par ch=11 c=11 v=2
510594 Par ch=11 c=11 v=1
510624 Off ch=11 n=52 v=64
510656 Par ch=11 c=11 v=0
510656 Meta TrkEnd
TrkEnd
MTrk
0 SeqSpec 43 00 01 ff
0 Meta TrkName "Violin(s)"
1920 PrCh ch=12 p=4
1930 Par ch=12 c=7 v=100
1940 Par ch=12 c=10 v=64
1950 Par ch=12 c=11 v=127
1960 Par ch=12 c=20 v=127
1970 Par ch=12 c=91 v=0
1980 Par ch=12 c=93 v=0
1990 Par ch=12 c=94 v=0
2000 Par ch=12 c=101 v=0
2010 Par ch=12 c=100 v=0
2020 Par ch=12 c=6 v=2
2030 Par ch=12 c=101 v=127
2040 Par ch=12 c=100 v=127
65280 On ch=12 n=63 v=53
65760 On ch=12 n=65 v=53
65856 Off ch=12 n=63 v=64
66112 Off ch=12 n=65 v=64
66240 On ch=12 n=66 v=53
66544 Off ch=12 n=66 v=64
66720 On ch=12 n=68 v=53
66992 Off ch=12 n=68 v=64
67200 On ch=12 n=70 v=53
68096 On ch=12 n=63 v=84
68096 On ch=12 n=75 v=53
68160 On ch=12 n=75 v=53
68192 Off ch=12 n=70 v=64
68336 Off ch=12 n=75 v=64
68336 Off ch=12 n=63 v=64
68640 Off ch=12 n=75 v=64
68640 On ch=12 n=73 v=53
69120 Off ch=12 n=73 v=64
69120 On ch=12 n=70 v=53
69976 Off ch=12 n=70 v=64
70048 On ch=12 n=58 v=76
70080 On ch=12 n=63 v=76
70288 Off ch=12 n=58 v=64
71040 On ch=12 n=70 v=53
71088 Off ch=12 n=63 v=64
71520 Off ch=12 n=70 v=64
71520 On ch=12 n=68 v=53
71840 Off ch=12 n=68 v=64
72000 On ch=12 n=66 v=53
72288 Off ch=12 n=66 v=64
72480 On ch=12 n=65 v=53
72784 Off ch=12 n=65 v=64
72960 On ch=12 n=63 v=53
73440 Off ch=12 n=63 v=64
73440 On ch=12 n=65 v=53
73776 Off ch=12 n=65 v=64
73920 On ch=12 n=66 v=53
74144 Off ch=12 n=66 v=64
74400 On ch=12 n=68 v=53
74576 Off ch=12 n=68 v=64
74880 On ch=12 n=70 v=53
75840 On ch=12 n=68 v=53
75888 Off ch=12 n=70 v=64
76144 Off ch=12 n=68 v=64
76320 On ch=12 n=66 v=53
76608 Off ch=12 n=66 v=64
76800 On ch=12 n=65 v=53
77280 On ch=12 n=63 v=53
77360 Off ch=12 n=65 v=64
77568 Off ch=12 n=63 v=64
77760 On ch=12 n=65 v=53
78016 Off ch=12 n=65 v=64
78240 On ch=12 n=66 v=53
78512 Off ch=12 n=66 v=64
78700 On ch=12 n=65 v=53
78956 Off ch=12 n=65 v=64
79680 On ch=12 n=62 v=53
79940 Off ch=12 n=62 v=64
80160 On ch=12 n=65 v=53
80416 Off ch=12 n=65 v=64
80640 On ch=12 n=63 v=52
81120 On ch=12 n=65 v=52
81216 Off ch=12 n=63 v=64
81472 Off ch=12 n=65 v=64
81600 On ch=12 n=66 v=52
81904 Off ch=12 n=66 v=64
82080 On ch=12 n=68 v=52
82352 Off ch=12 n=68 v=64
82560 On ch=12 n=70 v=52
83456 On ch=12 n=63 v=52
83520 On ch=12 n=75 v=52
83552 Off ch=12 n=70 v=64
83696 Off ch=12 n=63 v=64
84000 Off ch=12 n=75 v=64
84000 On ch=12 n=73 v=52
84480 Off ch=12 n=73 v=64
84480 On ch=12 n=70 v=52
85264 Off ch=12 n=70 v=64
85408 On ch=12 n=58 v=52
85440 On ch=12 n=63 v=52
85648 Off ch=12 n=58 v=64
86400 On ch=12 n=70 v=52
86448 Off ch=12 n=63 v=64
86880 Off ch=12 n=70 v=64
86880 On ch=12 n=68 v=52
87200 Off ch=12 n=68 v=64
87360 On ch=12 n=66 v=52
87648 Off ch=12 n=66 v=64
87840 On ch=12 n=65 v=52
88144 Off ch=12 n=65 v=64
88320 On ch=12 n=63 v=52
88800 Off ch=12 n=63 v=64
88800 On ch=12 n=65 v=52
89136 Off ch=12 n=65 v=64
89280 On ch=12 n=66 v=52
89504 Off ch=12 n=66 v=64
89760 On ch=12 n=68 v=52
89936 Off ch=12 n=68 v=64
90240 On ch=12 n=70 v=52
91200 On ch=12 n=68 v=52
91248 Off ch=12 n=70 v=64
91504 Off ch=12 n=68 v=64
91680 On ch=12 n=66 v=52
91968 Off ch=12 n=66 v=64
92160 On ch=12 n=58 v=52
92160 On ch=12 n=65 v=52
92400 Off ch=12 n=65 v=64
92400 Off ch=12 n=58 v=64
93120 On ch=12 n=58 v=52
93120 On ch=12 n=66 v=52
93360 Off ch=12 n=66 v=64
93360 Off ch=12 n=58 v=64
94080 On ch=12 n=58 v=52
94080 On ch=12 n=68 v=52
94320 Off ch=12 n=68 v=64
94320 Off ch=12 n=58 v=64
95040 On ch=12 n=58 v=52
95040 On ch=12 n=70 v=52
95280 Off ch=12 n=70 v=64
95280 Off ch=12 n=58 v=64
96000 On ch=12 n=63 v=52
96000 On ch=12 n=75 v=52
96000 On ch=12 n=66 v=69
96480 On ch=12 n=77 v=52
96480 On ch=12 n=65 v=69
96576 Off ch=12 n=66 v=64
96576 Off ch=12 n=75 v=64
96576 Off ch=12 n=63 v=64
96832 Off ch=12 n=65 v=64
96832 Off ch=12 n=77 v=64
96960 On ch=12 n=66 v=52
96960 On ch=12 n=78 v=52
96960 On ch=12 n=63 v=69
97264 Off ch=12 n=63 v=64
97264 Off ch=12 n=78 v=64
97264 Off ch=12 n=66 v=64
97440 On ch=12 n=68 v=52
97440 On ch=12 n=80 v=52
97440 On ch=12 n=65 v=69
97712 Off ch=12 n=65 v=64
97712 Off ch=12 n=80 v=64
97712 Off ch=12 n=68 v=64
97920 On ch=12 n=70 v=52
97920 On ch=12 n=82 v=52
97920 On ch=12 n=66 v=69
98400 On ch=12 n=58 v=52
98432 Off ch=12 n=66 v=64
98696 Off ch=12 n=82 v=64
98816 On ch=12 n=63 v=52
98816 On ch=12 n=75 v=52
98880 Off ch=12 n=58 v=64
98880 On ch=12 n=75 v=52
98880 On ch=12 n=87 v=52
98880 On ch=12 n=63 v=69
98920 Off ch=12 n=70 v=64
99056 Off ch=12 n=75 v=64
99056 Off ch=12 n=63 v=64
99360 Off ch=12 n=63 v=64
99360 Off ch=12 n=87 v=64
99360 Off ch=12 n=75 v=64
99360 On ch=12 n=73 v=52
99360 On ch=12 n=85 v=52
99360 On ch=12 n=65 v=69
99840 Off ch=12 n=65 v=64
99840 Off ch=12 n=85 v=64
99840 Off ch=12 n=73 v=64
99840 On ch=12 n=70 v=52
99840 On ch=12 n=82 v=52
99840 On ch=12 n=66 v=69
100192 Off ch=12 n=66 v=64
100192 Off ch=12 n=70 v=64
100552 Off ch=12 n=82 v=64
100768 On ch=12 n=70 v=52
100768 On ch=12 n=58 v=66
100800 On ch=12 n=63 v=66
100800 On ch=12 n=75 v=52
100800 On ch=12 n=70 v=69
101008 Off ch=12 n=58 v=64
101008 Off ch=12 n=70 v=64
101712 Off ch=12 n=70 v=64
101760 On ch=12 n=82 v=52
101760 On ch=12 n=70 v=69
101808 Off ch=12 n=75 v=64
101808 Off ch=12 n=63 v=64
102240 Off ch=12 n=70 v=64
102240 Off ch=12 n=82 v=64
102240 On ch=12 n=68 v=52
102240 On ch=12 n=80 v=52
102240 On ch=12 n=71 v=69
102560 Off ch=12 n=71 v=64
102560 Off ch=12 n=80 v=64
102560 Off ch=12 n=68 v=64
102720 On ch=12 n=66 v=52
102720 On ch=12 n=78 v=52
102720 On ch=12 n=70 v=69
103008 Off ch=12 n=70 v=64
103008 Off ch=12 n=78 v=64
103008 Off ch=12 n=66 v=64
103200 On ch=12 n=65 v=52
103200 On ch=12 n=77 v=52
103200 On ch=12 n=68 v=69
103504 Off ch=12 n=68 v=64
103504 Off ch=12 n=77 v=64
103504 Off ch=12 n=65 v=64
103680 On ch=12 n=63 v=52
103680 On ch=12 n=75 v=52
103680 On ch=12 n=66 v=69
104160 Off ch=12 n=66 v=64
104160 Off ch=12 n=75 v=64
104160 Off ch=12 n=63 v=64
104160 On ch=12 n=77 v=52
104160 On ch=12 n=65 v=69
104496 Off ch=12 n=65 v=64
104496 Off ch=12 n=77 v=64
104640 On ch=12 n=78 v=52
104640 On ch=12 n=66 v=52
104640 On ch=12 n=63 v=69
104864 Off ch=12 n=63 v=64
104864 Off ch=12 n=66 v=64
104864 Off ch=12 n=78 v=64
105120 On ch=12 n=68 v=52
105120 On ch=12 n=80 v=52
105120 On ch=12 n=65 v=69
105296 Off ch=12 n=65 v=64
105296 Off ch=12 n=80 v=64
105296 Off ch=12 n=68 v=64
105600 On ch=12 n=70 v=52
105600 On ch=12 n=82 v=52
105600 On ch=12 n=66 v=69
106560 On ch=12 n=80 v=52
106560 On ch=12 n=68 v=69
106608 Off ch=12 n=66 v=64
106608 Off ch=12 n=82 v=64
106608 Off ch=12 n=70 v=64
106864 Off ch=12 n=68 v=64
106864 Off ch=12 n=80 v=64
107040 On ch=12 n=66 v=52
107040 On ch=12 n=78 v=52
107040 On ch=12 n=70 v=69
107328 Off ch=12 n=70 v=64
107328 Off ch=12 n=78 v=64
107328 Off ch=12 n=66 v=64
107520 On ch=12 n=65 v=52
107520 On ch=12 n=77 v=52
107520 On ch=12 n=68 v=69
108000 On ch=12 n=63 v=52
108000 On ch=12 n=75 v=52
108000 On ch=12 n=66 v=69
108080 Off ch=12 n=68 v=64
108080 Off ch=12 n=77 v=64
108080 Off ch=12 n=65 v=64
108288 Off ch=12 n=66 v=64
108288 Off ch=12 n=75 v=64
108288 Off ch=12 n=63 v=64
108480 On ch=12 n=65 v=52
108480 On ch=12 n=77 v=52
108480 On ch=12 n=68 v=69
108736 Off ch=12 n=68 v=64
108736 Off ch=12 n=77 v=64
108736 Off ch=12 n=65 v=64
108960 On ch=12 n=66 v=52
108960 On ch=12 n=78 v=52
108960 On ch=12 n=70 v=69
109232 Off ch=12 n=70 v=64
109232 Off ch=12 n=78 v=64
109232 Off ch=12 n=66 v=64
109920 On ch=12 n=63 v=52
109920 On ch=12 n=75 v=52
109920 On ch=12 n=66 v=69
110224 Off ch=12 n=66 v=64
110224 Off ch=12 n=75 v=64
110224 Off ch=12 n=63 v=64
110400 On ch=12 n=62 v=52
110400 On ch=12 n=74 v=52
110400 On ch=12 n=65 v=69
110720 Off ch=12 n=65 v=64
110720 Off ch=12 n=74 v=64
110720 Off ch=12 n=62 v=64
110880 On ch=12 n=65 v=52
110880 On ch=12 n=77 v=52
110880 On ch=12 n=68 v=69
111136 Off ch=12 n=68 v=64
111136 Off ch=12 n=77 v=64
111136 Off ch=12 n=65 v=64
111360 On ch=12 n=63 v=52
111360 On ch=12 n=75 v=52
111360 On ch=12 n=66 v=69
111840 On ch=12 n=77 v=52
111840 On ch=12 n=65 v=69
111936 Off ch=12 n=66 v=64
111936 Off ch=12 n=75 v=64
111936 Off ch=12 n=63 v=64
112192 Off ch=12 n=65 v=64
112192 Off ch=12 n=77 v=64
112320 On ch=12 n=66 v=52
112320 On ch=12 n=78 v=52
112320 On ch=12 n=63 v=69
112624 Off ch=12 n=63 v=64
112624 Off ch=12 n=78 v=64
112624 Off ch=12 n=66 v=64
112800 On ch=12 n=68 v=52
112800 On ch=12 n=80 v=52
112800 On ch=12 n=65 v=69
113072 Off ch=12 n=65 v=64
113072 Off ch=12 n=80 v=64
113072 Off ch=12 n=68 v=64
113280 On ch=12 n=70 v=52
113280 On ch=12 n=82 v=52
113280 On ch=12 n=66 v=69
113760 On ch=12 n=58 v=76
113760 On ch=12 n=70 v=52
113792 Off ch=12 n=66 v=64
114176 On ch=12 n=63 v=52
114176 On ch=12 n=75 v=52
114240 Off ch=12 n=58 v=64
114240 Off ch=12 n=70 v=64
114240 On ch=12 n=75 v=52
114240 On ch=12 n=87 v=52
114240 On ch=12 n=63 v=69
114272 Off ch=12 n=70 v=64
114272 Off ch=12 n=82 v=64
114416 Off ch=12 n=75 v=64
114416 Off ch=12 n=63 v=64
114720 Off ch=12 n=63 v=64
114720 Off ch=12 n=87 v=64
114720 Off ch=12 n=75 v=64
114720 On ch=12 n=73 v=52
114720 On ch=12 n=85 v=52
114720 On ch=12 n=65 v=69
115200 Off ch=12 n=65 v=64
115200 Off ch=12 n=85 v=64
115200 Off ch=12 n=73 v=64
115200 On ch=12 n=70 v=52
115200 On ch=12 n=82 v=52
115200 On ch=12 n=66 v=69
115552 Off ch=12 n=66 v=64
115936 Off ch=12 n=70 v=64
115960 Off ch=12 n=82 v=64
116128 On ch=12 n=66 v=52
116128 On ch=12 n=58 v=80
116160 On ch=12 n=63 v=63
116160 On ch=12 n=75 v=52
116160 On ch=12 n=70 v=69
116368 Off ch=12 n=58 v=64
116368 Off ch=12 n=66 v=64
117072 Off ch=12 n=70 v=64
117120 On ch=12 n=82 v=52
117120 On ch=12 n=70 v=69
117168 Off ch=12 n=75 v=64
117168 Off ch=12 n=63 v=64
117600 Off ch=12 n=70 v=64
117600 Off ch=12 n=82 v=64
117600 On ch=12 n=68 v=52
117600 On ch=12 n=80 v=52
117600 On ch=12 n=71 v=69
117920 Off ch=12 n=71 v=64
117920 Off ch=12 n=80 v=64
117920 Off ch=12 n=68 v=64
118080 On ch=12 n=66 v=52
118080 On ch=12 n=78 v=52
118080 On ch=12 n=70 v=69
118368 Off ch=12 n=70 v=64
118368 Off ch=12 n=78 v=64
118368 Off ch=12 n=66 v=64
118560 On ch=12 n=65 v=52
118560 On ch=12 n=77 v=52
118560 On ch=12 n=68 v=69
118864 Off ch=12 n=68 v=64
118864 Off ch=12 n=77 v=64
118864 Off ch=12 n=65 v=64
119040 On ch=12 n=63 v=52
119040 On ch=12 n=75 v=52
119040 On ch=12 n=66 v=69
119520 Off ch=12 n=66 v=64
119520 Off ch=12 n=75 v=64
119520 Off ch=12 n=63 v=64
119520 On ch=12 n=77 v=52
119520 On ch=12 n=65 v=69
119856 Off ch=12 n=65 v=64
119856 Off ch=12 n=77 v=64
120000 On ch=12 n=66 v=52
120000 On ch=12 n=78 v=52
120000 On ch=12 n=63 v=69
120224 Off ch=12 n=63 v=64
120224 Off ch=12 n=78 v=64
120224 Off ch=12 n=66 v=64
120480 On ch=12 n=68 v=52
120480 On ch=12 n=80 v=52
120480 On ch=12 n=65 v=69
120656 Off ch=12 n=65 v=64
120656 Off ch=12 n=80 v=64
120656 Off ch=12 n=68 v=64
120960 On ch=12 n=70 v=52
120960 On ch=12 n=82 v=52
120960 On ch=12 n=66 v=69
121688 Off ch=12 n=82 v=64
121920 On ch=12 n=68 v=69
121968 Off ch=12 n=66 v=64
121968 Off ch=12 n=70 v=64
122224 Off ch=12 n=68 v=64
122400 On ch=12 n=66 v=52
122400 On ch=12 n=78 v=52
122400 On ch=12 n=70 v=69
122688 Off ch=12 n=70 v=64
122688 Off ch=12 n=78 v=64
122688 Off ch=12 n=66 v=64
122880 On ch=12 n=77 v=52
122880 On ch=12 n=68 v=69
123120 Off ch=12 n=68 v=64
123120 Off ch=12 n=77 v=64
123312 On ch=12 n=58 v=69
123320 On ch=12 n=70 v=52
123552 Off ch=12 n=58 v=64
123560 Off ch=12 n=70 v=64
123840 On ch=12 n=78 v=52
123840 On ch=12 n=66 v=69
124080 Off ch=12 n=66 v=64
124080 Off ch=12 n=78 v=64
124252 On ch=12 n=58 v=69
124260 On ch=12 n=70 v=52
124492 Off ch=12 n=58 v=64
124500 Off ch=12 n=70 v=64
124800 On ch=12 n=80 v=52
124800 On ch=12 n=65 v=69
125040 Off ch=12 n=65 v=64
125040 Off ch=12 n=80 v=64
125232 On ch=12 n=58 v=69
125240 On ch=12 n=70 v=52
125472 Off ch=12 n=58 v=64
125480 Off ch=12 n=70 v=64
125692 On ch=12 n=58 v=69
125700 On ch=12 n=70 v=52
125760 On ch=12 n=82 v=52
125760 On ch=12 n=62 v=69
126000 Off ch=12 n=62 v=64
126272 Off ch=12 n=58 v=64
126280 Off ch=12 n=70 v=64
126720 On ch=12 n=73 v=71
126720 On ch=12 n=85 v=71
126780 Off ch=12 n=82 v=64
127200 On ch=12 n=75 v=71
127200 On ch=12 n=87 v=71
127220 Off ch=12 n=85 v=64
127220 Off ch=12 n=73 v=64
127460 Off ch=12 n=87 v=64
127460 Off ch=12 n=75 v=64
127680 On ch=12 n=70 v=71
127680 On ch=12 n=82 v=71
127940 Off ch=12 n=82 v=64
127940 Off ch=12 n=70 v=64
128160 On ch=12 n=68 v=71
128160 On ch=12 n=80 v=71
128420 Off ch=12 n=80 v=64
128420 Off ch=12 n=68 v=64
128640 On ch=12 n=70 v=71
128640 On ch=12 n=82 v=71
129420 Off ch=12 n=82 v=64
129420 Off ch=12 n=70 v=64
129600 On ch=12 n=68 v=71
129600 On ch=12 n=80 v=71
130080 On ch=12 n=70 v=71
130080 On ch=12 n=82 v=71
130140 Off ch=12 n=80 v=64
130140 Off ch=12 n=68 v=64
130340 Off ch=12 n=82 v=64
130340 Off ch=12 n=70 v=64
130560 On ch=12 n=73 v=71
130560 On ch=12 n=85 v=71
131040 On ch=12 n=75 v=71
131040 On ch=12 n=87 v=71
131080 Off ch=12 n=85 v=64
131080 Off ch=12 n=73 v=64
131300 Off ch=12 n=87 v=64
131300 Off ch=12 n=75 v=64
131520 On ch=12 n=70 v=71
131520 On ch=12 n=82 v=71
131780 Off ch=12 n=82 v=64
131780 Off ch=12 n=70 v=64
132000 On ch=12 n=68 v=71
132000 On ch=12 n=80 v=71
132260 Off ch=12 n=80 v=64
132260 Off ch=12 n=68 v=64
132480 On ch=12 n=70 v=71
132480 On ch=12 n=82 v=71
133440 On ch=12 n=68 v=71
133440 On ch=12 n=80 v=71
133500 Off ch=12 n=82 v=64
133500 Off ch=12 n=70 v=64
133700 Off ch=12 n=80 v=64
133700 Off ch=12 n=68 v=64
133920 On ch=12 n=70 v=71
133920 On ch=12 n=82 v=71
134180 Off ch=12 n=82 v=64
134180 Off ch=12 n=70 v=64
134400 On ch=12 n=68 v=71
134400 On ch=12 n=80 v=71
134880 On ch=12 n=66 v=71
134880 On ch=12 n=78 v=71
134900 Off ch=12 n=80 v=64
134900 Off ch=12 n=68 v=64
135160 Off ch=12 n=78 v=64
135160 Off ch=12 n=66 v=64
135360 On ch=12 n=65 v=71
135360 On ch=12 n=77 v=71
135600 Off ch=12 n=77 v=64
135600 Off ch=12 n=65 v=64
135840 On ch=12 n=61 v=71
135840 On ch=12 n=73 v=71
136180 Off ch=12 n=73 v=64
136180 Off ch=12 n=61 v=64
136320 On ch=12 n=63 v=71
136320 On ch=12 n=75 v=71
137280 On ch=12 n=61 v=71
137280 On ch=12 n=73 v=71
137296 Off ch=12 n=75 v=64
137296 Off ch=12 n=63 v=64
137760 On ch=12 n=63 v=71
137760 On ch=12 n=75 v=71
137780 Off ch=12 n=73 v=64
137780 Off ch=12 n=61 v=64
138020 Off ch=12 n=75 v=64
138020 Off ch=12 n=63 v=64
138240 On ch=12 n=65 v=71
138240 On ch=12 n=77 v=71
138720 On ch=12 n=66 v=71
138720 On ch=12 n=78 v=71
138780 Off ch=12 n=77 v=64
138780 Off ch=12 n=65 v=64
138980 Off ch=12 n=78 v=64
138980 Off ch=12 n=66 v=64
139200 On ch=12 n=68 v=71
139200 On ch=12 n=80 v=71
139420 Off ch=12 n=80 v=64
139420 Off ch=12 n=68 v=64
139680 On ch=12 n=70 v=71
139680 On ch=12 n=82 v=71
139900 Off ch=12 n=82 v=64
139900 Off ch=12 n=70 v=64
140160 On ch=12 n=63 v=71
140160 On ch=12 n=75 v=71
140880 Off ch=12 n=75 v=64
140880 Off ch=12 n=63 v=64
141120 On ch=12 n=70 v=71
141120 On ch=12 n=82 v=71
141380 Off ch=12 n=82 v=64
141380 Off ch=12 n=70 v=64
141600 On ch=12 n=73 v=71
141600 On ch=12 n=85 v=71
141860 Off ch=12 n=85 v=64
141860 Off ch=12 n=73 v=64
142080 On ch=12 n=73 v=71
142080 On ch=12 n=85 v=71
142560 On ch=12 n=75 v=71
142560 On ch=12 n=87 v=71
142580 Off ch=12 n=85 v=64
142580 Off ch=12 n=73 v=64
142820 Off ch=12 n=87 v=64
142820 Off ch=12 n=75 v=64
143040 On ch=12 n=70 v=71
143040 On ch=12 n=82 v=71
143300 Off ch=12 n=82 v=64
143300 Off ch=12 n=70 v=64
143520 On ch=12 n=68 v=71
143520 On ch=12 n=80 v=71
143780 Off ch=12 n=80 v=64
143780 Off ch=12 n=68 v=64
144000 On ch=12 n=70 v=71
144000 On ch=12 n=82 v=71
144780 Off ch=12 n=82 v=64
144780 Off ch=12 n=70 v=64
144960 On ch=12 n=68 v=71
144960 On ch=12 n=80 v=71
145440 On ch=12 n=70 v=71
145440 On ch=12 n=82 v=71
145500 Off ch=12 n=80 v=64
145500 Off ch=12 n=68 v=64
145700 Off ch=12 n=82 v=64
145700 Off ch=12 n=70 v=64
145920 On ch=12 n=73 v=71
145920 On ch=12 n=85 v=71
146400 On ch=12 n=75 v=71
146400 On ch=12 n=87 v=71
146440 Off ch=12 n=85 v=64
146440 Off ch=12 n=73 v=64
146660 Off ch=12 n=87 v=64
146660 Off ch=12 n=75 v=64
146880 On ch=12 n=70 v=71
146880 On ch=12 n=82 v=71
147140 Off ch=12 n=82 v=64
147140 Off ch=12 n=70 v=64
147360 On ch=12 n=68 v=71
147360 On ch=12 n=80 v=71
147620 Off ch=12 n=80 v=64
147620 Off ch=12 n=68 v=64
147840 On ch=12 n=70 v=71
147840 On ch=12 n=82 v=71
148800 On ch=12 n=68 v=71
148800 On ch=12 n=80 v=71
148860 Off ch=12 n=82 v=64
148860 Off ch=12 n=70 v=64
149060 Off ch=12 n=80 v=64
149060 Off ch=12 n=68 v=64
149280 On ch=12 n=70 v=71
149280 On ch=12 n=82 v=71
149540 Off ch=12 n=82 v=64
149540 Off ch=12 n=70 v=64
149760 On ch=12 n=68 v=71
149760 On ch=12 n=80 v=71
150240 On ch=12 n=66 v=71
150240 On ch=12 n=78 v=71
150260 Off ch=12 n=80 v=64
150260 Off ch=12 n=68 v=64
150520 Off ch=12 n=78 v=64
150520 Off ch=12 n=66 v=64
150720 On ch=12 n=65 v=71
150720 On ch=12 n=77 v=71
150960 Off ch=12 n=77 v=64
150960 Off ch=12 n=65 v=64
151200 On ch=12 n=61 v=71
151200 On ch=12 n=73 v=71
151540 Off ch=12 n=73 v=64
151540 Off ch=12 n=61 v=64
151680 On ch=12 n=63 v=71
151680 On ch=12 n=75 v=71
152640 On ch=12 n=61 v=71
152640 On ch=12 n=73 v=71
152656 Off ch=12 n=75 v=64
152656 Off ch=12 n=63 v=64
153120 On ch=12 n=63 v=71
153120 On ch=12 n=75 v=71
153140 Off ch=12 n=73 v=64
153140 Off ch=12 n=61 v=64
153380 Off ch=12 n=75 v=64
153380 Off ch=12 n=63 v=64
153600 On ch=12 n=65 v=71
153600 On ch=12 n=77 v=71
154080 On ch=12 n=66 v=71
154080 On ch=12 n=78 v=71
154140 Off ch=12 n=77 v=64
154140 Off ch=12 n=65 v=64
154340 Off ch=12 n=78 v=64
154340 Off ch=12 n=66 v=64
154560 On ch=12 n=68 v=71
154560 On ch=12 n=80 v=71
154780 Off ch=12 n=80 v=64
154780 Off ch=12 n=68 v=64
155040 On ch=12 n=70 v=71
155040 On ch=12 n=82 v=71
155260 Off ch=12 n=82 v=64
155260 Off ch=12 n=70 v=64
155520 On ch=12 n=63 v=71
155520 On ch=12 n=75 v=71
156240 Off ch=12 n=75 v=64
156240 Off ch=12 n=63 v=64
156480 On ch=12 n=70 v=71
156480 On ch=12 n=82 v=71
156740 Off ch=12 n=82 v=64
156740 Off ch=12 n=70 v=64
156960 On ch=12 n=73 v=71
156960 On ch=12 n=85 v=71
157220 Off ch=12 n=85 v=64
157220 Off ch=12 n=73 v=64
157440 On ch=12 n=73 v=71
157440 On ch=12 n=85 v=71
157920 On ch=12 n=75 v=71
157920 On ch=12 n=87 v=71
157940 Off ch=12 n=85 v=64
157940 Off ch=12 n=73 v=64
158180 Off ch=12 n=87 v=64
158180 Off ch=12 n=75 v=64
158400 On ch=12 n=70 v=71
158400 On ch=12 n=82 v=71
158660 Off ch=12 n=82 v=64
158660 Off ch=12 n=70 v=64
158880 On ch=12 n=68 v=71
158880 On ch=12 n=80 v=71
159140 Off ch=12 n=80 v=64
159140 Off ch=12 n=68 v=64
159360 On ch=12 n=70 v=71
159360 On ch=12 n=82 v=71
160140 Off ch=12 n=82 v=64
160140 Off ch=12 n=70 v=64
160320 On ch=12 n=68 v=71
160320 On ch=12 n=80 v=71
160800 On ch=12 n=70 v=71
160800 On ch=12 n=82 v=71
160860 Off ch=12 n=80 v=64
160860 Off ch=12 n=68 v=64
161060 Off ch=12 n=82 v=64
161060 Off ch=12 n=70 v=64
161280 On ch=12 n=73 v=71
161280 On ch=12 n=85 v=71
161760 On ch=12 n=75 v=71
161760 On ch=12 n=87 v=71
161800 Off ch=12 n=85 v=64
161800 Off ch=12 n=73 v=64
162020 Off ch=12 n=87 v=64
162020 Off ch=12 n=75 v=64
162240 On ch=12 n=70 v=71
162240 On ch=12 n=82 v=71
162500 Off ch=12 n=82 v=64
162500 Off ch=12 n=70 v=64
162720 On ch=12 n=68 v=71
162720 On ch=12 n=80 v=71
162980 Off ch=12 n=80 v=64
162980 Off ch=12 n=68 v=64
163200 On ch=12 n=70 v=71
163200 On ch=12 n=82 v=71
164160 On ch=12 n=68 v=71
164160 On ch=12 n=80 v=71
164220 Off ch=12 n=82 v=64
164220 Off ch=12 n=70 v=64
164420 Off ch=12 n=80 v=64
164420 Off ch=12 n=68 v=64
164640 On ch=12 n=70 v=71
164640 On ch=12 n=82 v=71
164900 Off ch=12 n=82 v=64
164900 Off ch=12 n=70 v=64
165120 On ch=12 n=68 v=71
165120 On ch=12 n=80 v=71
165600 On ch=12 n=66 v=71
165600 On ch=12 n=78 v=71
165620 Off ch=12 n=80 v=64
165620 Off ch=12 n=68 v=64
165880 Off ch=12 n=78 v=64
165880 Off ch=12 n=66 v=64
166080 On ch=12 n=65 v=71
166080 On ch=12 n=77 v=71
166320 Off ch=12 n=77 v=64
166320 Off ch=12 n=65 v=64
166560 On ch=12 n=61 v=71
166560 On ch=12 n=73 v=71
166900 Off ch=12 n=73 v=64
166900 Off ch=12 n=61 v=64
167040 On ch=12 n=63 v=71
167040 On ch=12 n=75 v=71
168000 On ch=12 n=61 v=71
168000 On ch=12 n=73 v=71
168016 Off ch=12 n=75 v=64
168016 Off ch=12 n=63 v=64
168480 On ch=12 n=63 v=71
168480 On ch=12 n=75 v=71
168500 Off ch=12 n=73 v=64
168500 Off ch=12 n=61 v=64
168740 Off ch=12 n=75 v=64
168740 Off ch=12 n=63 v=64
168960 On ch=12 n=65 v=71
168960 On ch=12 n=77 v=71
169440 On ch=12 n=66 v=71
169440 On ch=12 n=78 v=71
169500 Off ch=12 n=77 v=64
169500 Off ch=12 n=65 v=64
169700 Off ch=12 n=78 v=64
169700 Off ch=12 n=66 v=64
169920 On ch=12 n=68 v=71
169920 On ch=12 n=80 v=71
170140 Off ch=12 n=80 v=64
170140 Off ch=12 n=68 v=64
170400 On ch=12 n=70 v=71
170400 On ch=12 n=82 v=71
170620 Off ch=12 n=82 v=64
170620 Off ch=12 n=70 v=64
170880 On ch=12 n=63 v=71
170880 On ch=12 n=75 v=71
171600 Off ch=12 n=75 v=64
171600 Off ch=12 n=63 v=64
171840 On ch=12 n=70 v=71
171840 On ch=12 n=82 v=71
172100 Off ch=12 n=82 v=64
172100 Off ch=12 n=70 v=64
172320 On ch=12 n=73 v=71
172320 On ch=12 n=85 v=71
172580 Off ch=12 n=85 v=64
172580 Off ch=12 n=73 v=64
172800 On ch=12 n=73 v=71
172800 On ch=12 n=85 v=71
173280 On ch=12 n=75 v=71
173280 On ch=12 n=87 v=71
173300 Off ch=12 n=85 v=64
173300 Off ch=12 n=73 v=64
173540 Off ch=12 n=87 v=64
173540 Off ch=12 n=75 v=64
173760 On ch=12 n=70 v=71
173760 On ch=12 n=82 v=71
174020 Off ch=12 n=82 v=64
174020 Off ch=12 n=70 v=64
174240 On ch=12 n=68 v=71
174240 On ch=12 n=80 v=71
174500 Off ch=12 n=80 v=64
174500 Off ch=12 n=68 v=64
174720 On ch=12 n=70 v=71
174720 On ch=12 n=82 v=71
175500 Off ch=12 n=82 v=64
175500 Off ch=12 n=70 v=64
175680 On ch=12 n=68 v=71
175680 On ch=12 n=80 v=71
176160 On ch=12 n=70 v=71
176160 On ch=12 n=82 v=71
176220 Off ch=12 n=80 v=64
176220 Off ch=12 n=68 v=64
176420 Off ch=12 n=82 v=64
176420 Off ch=12 n=70 v=64
176640 On ch=12 n=73 v=71
176640 On ch=12 n=85 v=71
177120 On ch=12 n=75 v=71
177120 On ch=12 n=87 v=71
177160 Off ch=12 n=85 v=64
177160 Off ch=12 n=73 v=64
177380 Off ch=12 n=87 v=64
177380 Off ch=12 n=75 v=64
177600 On ch=12 n=70 v=71
177600 On ch=12 n=82 v=71
177860 Off ch=12 n=82 v=64
177860 Off ch=12 n=70 v=64
178080 On ch=12 n=68 v=71
178080 On ch=12 n=80 v=71
178340 Off ch=12 n=80 v=64
178340 Off ch=12 n=68 v=64
178560 On ch=12 n=70 v=71
178560 On ch=12 n=82 v=71
179520 On ch=12 n=75 v=71
179520 On ch=12 n=87 v=71
179580 Off ch=12 n=82 v=64
179580 Off ch=12 n=70 v=64
179780 Off ch=12 n=87 v=64
179780 Off ch=12 n=75 v=64
180000 On ch=12 n=77 v=71
180000 On ch=12 n=89 v=71
180260 Off ch=12 n=89 v=64
180260 Off ch=12 n=77 v=64
180480 On ch=12 n=78 v=71
180480 On ch=12 n=90 v=71
180960 On ch=12 n=77 v=71
180960 On ch=12 n=89 v=71
180980 Off ch=12 n=90 v=64
180980 Off ch=12 n=78 v=64
181240 Off ch=12 n=89 v=64
181240 Off ch=12 n=77 v=64
181440 On ch=12 n=75 v=71
181440 On ch=12 n=87 v=71
181680 Off ch=12 n=87 v=64
181680 Off ch=12 n=75 v=64
181920 On ch=12 n=73 v=71
181920 On ch=12 n=85 v=71
182116 Off ch=12 n=85 v=64
182116 Off ch=12 n=73 v=64
182400 On ch=12 n=70 v=71
182400 On ch=12 n=82 v=71
183328 Off ch=12 n=82 v=64
183328 Off ch=12 n=70 v=64
183360 On ch=12 n=68 v=71
183360 On ch=12 n=80 v=71
183840 On ch=12 n=70 v=71
183840 On ch=12 n=82 v=71
183860 Off ch=12 n=80 v=64
183860 Off ch=12 n=68 v=64
184100 Off ch=12 n=82 v=64
184100 Off ch=12 n=70 v=64
184320 On ch=12 n=68 v=71
184320 On ch=12 n=80 v=71
184800 On ch=12 n=66 v=71
184800 On ch=12 n=78 v=71
184860 Off ch=12 n=80 v=64
184860 Off ch=12 n=68 v=64
185060 Off ch=12 n=78 v=64
185060 Off ch=12 n=66 v=64
185280 On ch=12 n=65 v=71
185280 On ch=12 n=77 v=71
185500 Off ch=12 n=77 v=64
185500 Off ch=12 n=65 v=64
185760 On ch=12 n=61 v=71
185760 On ch=12 n=73 v=71
185980 Off ch=12 n=73 v=64
185980 Off ch=12 n=61 v=64
186240 On ch=12 n=63 v=71
186240 On ch=12 n=75 v=71
186960 Off ch=12 n=75 v=64
186960 Off ch=12 n=63 v=64
187200 On ch=12 n=70 v=23
187460 Off ch=12 n=70 v=64
187680 On ch=12 n=73 v=23
187940 Off ch=12 n=73 v=64
188160 On ch=12 n=73 v=23
188640 On ch=12 n=75 v=23
188660 Off ch=12 n=73 v=64
188900 Off ch=12 n=75 v=64
189120 On ch=12 n=70 v=23
189380 Off ch=12 n=70 v=64
189600 On ch=12 n=68 v=23
189860 Off ch=12 n=68 v=64
190080 On ch=12 n=70 v=23
190860 Off ch=12 n=70 v=64
191040 On ch=12 n=68 v=23
191520 On ch=12 n=70 v=23
191580 Off ch=12 n=68 v=64
191780 Off ch=12 n=70 v=64
192000 On ch=12 n=73 v=23
192480 On ch=12 n=75 v=23
192520 Off ch=12 n=73 v=64
192740 Off ch=12 n=75 v=64
192960 On ch=12 n=70 v=23
193220 Off ch=12 n=70 v=64
193440 On ch=12 n=68 v=23
193700 Off ch=12 n=68 v=64
193920 On ch=12 n=70 v=23
194880 On ch=12 n=68 v=23
194940 Off ch=12 n=70 v=64
195140 Off ch=12 n=68 v=64
195360 On ch=12 n=70 v=23
195620 Off ch=12 n=70 v=64
195840 On ch=12 n=68 v=23
196320 On ch=12 n=66 v=23
196340 Off ch=12 n=68 v=64
196600 Off ch=12 n=66 v=64
196800 On ch=12 n=65 v=23
197040 Off ch=12 n=65 v=64
197280 On ch=12 n=61 v=23
197620 Off ch=12 n=61 v=64
197760 On ch=12 n=63 v=23
198720 On ch=12 n=61 v=23
198736 Off ch=12 n=63 v=64
199200 On ch=12 n=63 v=23
199220 Off ch=12 n=61 v=64
199460 Off ch=12 n=63 v=64
199680 On ch=12 n=65 v=23
200160 On ch=12 n=66 v=23
200220 Off ch=12 n=65 v=64
200420 Off ch=12 n=66 v=64
200640 On ch=12 n=68 v=23
200860 Off ch=12 n=68 v=64
201120 On ch=12 n=70 v=23
201340 Off ch=12 n=70 v=64
201600 On ch=12 n=63 v=23
202320 Off ch=12 n=63 v=64
202560 On ch=12 n=70 v=23
202820 Off ch=12 n=70 v=64
203040 On ch=12 n=73 v=23
203300 Off ch=12 n=73 v=64
203520 On ch=12 n=73 v=23
204000 On ch=12 n=75 v=23
204020 Off ch=12 n=73 v=64
204260 Off ch=12 n=75 v=64
204480 On ch=12 n=70 v=23
204740 Off ch=12 n=70 v=64
204960 On ch=12 n=68 v=23
205220 Off ch=12 n=68 v=64
205440 On ch=12 n=70 v=23
206220 Off ch=12 n=70 v=64
206400 On ch=12 n=68 v=23
206880 On ch=12 n=70 v=23
206940 Off ch=12 n=68 v=64
207140 Off ch=12 n=70 v=64
207360 On ch=12 n=73 v=23
207840 On ch=12 n=75 v=23
207880 Off ch=12 n=73 v=64
208100 Off ch=12 n=75 v=64
208320 On ch=12 n=70 v=23
208580 Off ch=12 n=70 v=64
208800 On ch=12 n=68 v=23
209060 Off ch=12 n=68 v=64
209280 On ch=12 n=70 v=23
210240 On ch=12 n=75 v=23
210300 Off ch=12 n=70 v=64
210500 Off ch=12 n=75 v=64
210720 On ch=12 n=77 v=23
210980 Off ch=12 n=77 v=64
211200 On ch=12 n=78 v=23
211680 On ch=12 n=77 v=23
211700 Off ch=12 n=78 v=64
211960 Off ch=12 n=77 v=64
212160 On ch=12 n=75 v=23
212400 Off ch=12 n=75 v=64
212640 On ch=12 n=73 v=23
212836 Off ch=12 n=73 v=64
213120 On ch=12 n=70 v=23
214048 Off ch=12 n=70 v=64
214080 On ch=12 n=68 v=23
214560 On ch=12 n=70 v=23
214580 Off ch=12 n=68 v=64
214820 Off ch=12 n=70 v=64
215040 On ch=12 n=68 v=23
215520 On ch=12 n=66 v=23
215580 Off ch=12 n=68 v=64
215780 Off ch=12 n=66 v=64
216000 On ch=12 n=65 v=23
216220 Off ch=12 n=65 v=64
216480 On ch=12 n=61 v=23
216700 Off ch=12 n=61 v=64
216960 On ch=12 n=63 v=23
217680 Off ch=12 n=63 v=64
311040 On ch=12 n=71 v=73
311040 On ch=12 n=63 v=73
311040 On ch=12 n=75 v=73
311040 On ch=12 n=66 v=73
311280 Off ch=12 n=66 v=64
311280 Off ch=12 n=75 v=64
311280 Off ch=12 n=63 v=64
311280 Off ch=12 n=71 v=64
311520 On ch=12 n=71 v=66
311520 On ch=12 n=63 v=66
311520 On ch=12 n=75 v=66
311520 On ch=12 n=66 v=66
311760 Off ch=12 n=66 v=64
311760 Off ch=12 n=75 v=64
311760 Off ch=12 n=63 v=64
311760 Off ch=12 n=71 v=64
312000 On ch=12 n=71 v=73
312000 On ch=12 n=63 v=73
312000 On ch=12 n=75 v=73
312000 On ch=12 n=66 v=73
312240 Off ch=12 n=66 v=64
312240 Off ch=12 n=75 v=64
312240 Off ch=12 n=63 v=64
312240 Off ch=12 n=71 v=64
312480 On ch=12 n=71 v=67
312480 On ch=12 n=63 v=67
312480 On ch=12 n=75 v=67
312480 On ch=12 n=66 v=67
312720 Off ch=12 n=66 v=64
312720 Off ch=12 n=75 v=64
312720 Off ch=12 n=63 v=64
312720 Off ch=12 n=71 v=64
312960 On ch=12 n=71 v=74
312960 On ch=12 n=63 v=74
312960 On ch=12 n=75 v=74
312960 On ch=12 n=66 v=74
313200 Off ch=12 n=66 v=64
313200 Off ch=12 n=75 v=64
313200 Off ch=12 n=63 v=64
313200 Off ch=12 n=71 v=64
313440 On ch=12 n=71 v=67
313440 On ch=12 n=75 v=67
313440 On ch=12 n=63 v=67
313440 On ch=12 n=66 v=67
313680 Off ch=12 n=66 v=64
313680 Off ch=12 n=63 v=64
313680 Off ch=12 n=75 v=64
313680 Off ch=12 n=71 v=64
313920 On ch=12 n=71 v=75
313920 On ch=12 n=75 v=75
313920 On ch=12 n=63 v=75
313920 On ch=12 n=66 v=75
314160 Off ch=12 n=66 v=64
314160 Off ch=12 n=63 v=64
314160 Off ch=12 n=75 v=64
314160 Off ch=12 n=71 v=64
314400 On ch=12 n=71 v=69
314400 On ch=12 n=75 v=69
314400 On ch=12 n=63 v=69
314400 On ch=12 n=66 v=69
314640 Off ch=12 n=66 v=64
314640 Off ch=12 n=63 v=64
314640 Off ch=12 n=75 v=64
314640 Off ch=12 n=71 v=64
314880 On ch=12 n=73 v=73
314880 On ch=12 n=61 v=73
314880 On ch=12 n=65 v=73
314880 On ch=12 n=75 v=73
315120 Off ch=12 n=75 v=64
315120 Off ch=12 n=65 v=64
315120 Off ch=12 n=61 v=64
315120 Off ch=12 n=73 v=64
315360 On ch=12 n=73 v=66
315360 On ch=12 n=61 v=66
315360 On ch=12 n=65 v=66
315360 On ch=12 n=75 v=66
315600 Off ch=12 n=75 v=64
315600 Off ch=12 n=65 v=64
315600 Off ch=12 n=61 v=64
315600 Off ch=12 n=73 v=64
315840 On ch=12 n=73 v=73
315840 On ch=12 n=61 v=73
315840 On ch=12 n=65 v=73
315840 On ch=12 n=75 v=73
316080 Off ch=12 n=75 v=64
316080 Off ch=12 n=65 v=64
316080 Off ch=12 n=61 v=64
316080 Off ch=12 n=73 v=64
316320 On ch=12 n=73 v=67
316320 On ch=12 n=61 v=67
316320 On ch=12 n=65 v=67
316320 On ch=12 n=75 v=67
316560 Off ch=12 n=75 v=64
316560 Off ch=12 n=65 v=64
316560 Off ch=12 n=61 v=64
316560 Off ch=12 n=73 v=64
316800 On ch=12 n=73 v=74
316800 On ch=12 n=61 v=74
316800 On ch=12 n=65 v=74
316800 On ch=12 n=75 v=74
317040 Off ch=12 n=75 v=64
317040 Off ch=12 n=65 v=64
317040 Off ch=12 n=61 v=64
317040 Off ch=12 n=73 v=64
317280 On ch=12 n=73 v=67
317280 On ch=12 n=65 v=67
317280 On ch=12 n=61 v=67
317280 On ch=12 n=75 v=67
317520 Off ch=12 n=75 v=64
317520 Off ch=12 n=61 v=64
317520 Off ch=12 n=65 v=64
317520 Off ch=12 n=73 v=64
317760 On ch=12 n=73 v=75
317760 On ch=12 n=65 v=75
317760 On ch=12 n=61 v=75
317760 On ch=12 n=75 v=75
318000 Off ch=12 n=75 v=64
318000 Off ch=12 n=61 v=64
318000 Off ch=12 n=65 v=64
318000 Off ch=12 n=73 v=64
318240 On ch=12 n=73 v=69
318240 On ch=12 n=65 v=69
318240 On ch=12 n=61 v=69
318240 On ch=12 n=75 v=69
318480 Off ch=12 n=75 v=64
318480 Off ch=12 n=61 v=64
318480 Off ch=12 n=65 v=64
318480 Off ch=12 n=73 v=64
318720 On ch=12 n=70 v=73
318720 On ch=12 n=63 v=73
318720 On ch=12 n=66 v=73
318720 On ch=12 n=75 v=73
318960 Off ch=12 n=75 v=64
318960 Off ch=12 n=66 v=64
318960 Off ch=12 n=63 v=64
318960 Off ch=12 n=70 v=64
319200 On ch=12 n=70 v=66
319200 On ch=12 n=63 v=66
319200 On ch=12 n=66 v=66
319200 On ch=12 n=75 v=66
319440 Off ch=12 n=75 v=64
319440 Off ch=12 n=66 v=64
319440 Off ch=12 n=63 v=64
319440 Off ch=12 n=70 v=64
319680 On ch=12 n=70 v=73
319680 On ch=12 n=63 v=73
319680 On ch=12 n=66 v=73
319680 On ch=12 n=75 v=73
319920 Off ch=12 n=75 v=64
319920 Off ch=12 n=66 v=64
319920 Off ch=12 n=63 v=64
319920 Off ch=12 n=70 v=64
320160 On ch=12 n=70 v=67
320160 On ch=12 n=63 v=67
320160 On ch=12 n=66 v=67
320160 On ch=12 n=75 v=67
320400 Off ch=12 n=75 v=64
320400 Off ch=12 n=66 v=64
320400 Off ch=12 n=63 v=64
320400 Off ch=12 n=70 v=64
320640 On ch=12 n=70 v=74
320640 On ch=12 n=63 v=74
320640 On ch=12 n=66 v=74
320640 On ch=12 n=75 v=74
320880 Off ch=12 n=75 v=64
320880 Off ch=12 n=66 v=64
320880 Off ch=12 n=63 v=64
320880 Off ch=12 n=70 v=64
321120 On ch=12 n=70 v=67
321120 On ch=12 n=66 v=67
321120 On ch=12 n=63 v=67
321120 On ch=12 n=75 v=67
321360 Off ch=12 n=75 v=64
321360 Off ch=12 n=63 v=64
321360 Off ch=12 n=66 v=64
321360 Off ch=12 n=70 v=64
321600 On ch=12 n=70 v=75
321600 On ch=12 n=66 v=75
321600 On ch=12 n=63 v=75
321600 On ch=12 n=75 v=75
321840 Off ch=12 n=75 v=64
321840 Off ch=12 n=63 v=64
321840 Off ch=12 n=66 v=64
321840 Off ch=12 n=70 v=64
322080 On ch=12 n=70 v=69
322080 On ch=12 n=66 v=69
322080 On ch=12 n=63 v=69
322080 On ch=12 n=75 v=69
322320 Off ch=12 n=75 v=64
322320 Off ch=12 n=63 v=64
322320 Off ch=12 n=66 v=64
322320 Off ch=12 n=70 v=64
322560 On ch=12 n=75 v=73
322560 On ch=12 n=66 v=73
322560 On ch=12 n=63 v=73
322560 On ch=12 n=70 v=73
322800 Off ch=12 n=70 v=64
322800 Off ch=12 n=63 v=64
322800 Off ch=12 n=66 v=64
322800 Off ch=12 n=75 v=64
323040 On ch=12 n=75 v=66
323040 On ch=12 n=66 v=66
323040 On ch=12 n=63 v=66
323040 On ch=12 n=70 v=66
323280 Off ch=12 n=70 v=64
323280 Off ch=12 n=63 v=64
323280 Off ch=12 n=66 v=64
323280 Off ch=12 n=75 v=64
323520 On ch=12 n=75 v=73
323520 On ch=12 n=66 v=73
323520 On ch=12 n=63 v=73
323520 On ch=12 n=70 v=73
323760 Off ch=12 n=70 v=64
323760 Off ch=12 n=63 v=64
323760 Off ch=12 n=66 v=64
323760 Off ch=12 n=75 v=64
324000 On ch=12 n=75 v=67
324000 On ch=12 n=66 v=67
324000 On ch=12 n=63 v=67
324000 On ch=12 n=70 v=67
324240 Off ch=12 n=70 v=64
324240 Off ch=12 n=63 v=64
324240 Off ch=12 n=66 v=64
324240 Off ch=12 n=75 v=64
324480 On ch=12 n=75 v=74
324480 On ch=12 n=66 v=74
324480 On ch=12 n=63 v=74
324480 On ch=12 n=70 v=74
324720 Off ch=12 n=70 v=64
324720 Off ch=12 n=63 v=64
324720 Off ch=12 n=66 v=64
324720 Off ch=12 n=75 v=64
324960 On ch=12 n=75 v=67
324960 On ch=12 n=63 v=67
324960 On ch=12 n=66 v=67
324960 On ch=12 n=70 v=67
325200 Off ch=12 n=70 v=64
325200 Off ch=12 n=66 v=64
325200 Off ch=12 n=63 v=64
325200 Off ch=12 n=75 v=64
325440 On ch=12 n=75 v=75
325440 On ch=12 n=63 v=75
325440 On ch=12 n=66 v=75
325440 On ch=12 n=70 v=75
325680 Off ch=12 n=70 v=64
325680 Off ch=12 n=66 v=64
325680 Off ch=12 n=63 v=64
325680 Off ch=12 n=75 v=64
325920 On ch=12 n=75 v=69
325920 On ch=12 n=63 v=69
325920 On ch=12 n=66 v=69
325920 On ch=12 n=70 v=69
326160 Off ch=12 n=70 v=64
326160 Off ch=12 n=66 v=64
326160 Off ch=12 n=63 v=64
326160 Off ch=12 n=75 v=64
326400 On ch=12 n=66 v=73
326400 On ch=12 n=75 v=73
326400 On ch=12 n=63 v=73
326400 On ch=12 n=71 v=73
326640 Off ch=12 n=71 v=64
326640 Off ch=12 n=63 v=64
326640 Off ch=12 n=75 v=64
326640 Off ch=12 n=66 v=64
326880 On ch=12 n=66 v=66
326880 On ch=12 n=75 v=66
326880 On ch=12 n=63 v=66
326880 On ch=12 n=71 v=66
327120 Off ch=12 n=71 v=64
327120 Off ch=12 n=63 v=64
327120 Off ch=12 n=75 v=64
327120 Off ch=12 n=66 v=64
327360 On ch=12 n=66 v=73
327360 On ch=12 n=75 v=73
327360 On ch=12 n=63 v=73
327360 On ch=12 n=71 v=73
327600 Off ch=12 n=71 v=64
327600 Off ch=12 n=63 v=64
327600 Off ch=12 n=75 v=64
327600 Off ch=12 n=66 v=64
327840 On ch=12 n=66 v=67
327840 On ch=12 n=75 v=67
327840 On ch=12 n=63 v=67
327840 On ch=12 n=71 v=67
328080 Off ch=12 n=71 v=64
328080 Off ch=12 n=63 v=64
328080 Off ch=12 n=75 v=64
328080 Off ch=12 n=66 v=64
328320 On ch=12 n=66 v=74
328320 On ch=12 n=75 v=74
328320 On ch=12 n=63 v=74
328320 On ch=12 n=71 v=74
328560 Off ch=12 n=71 v=64
328560 Off ch=12 n=63 v=64
328560 Off ch=12 n=75 v=64
328560 Off ch=12 n=66 v=64
328800 On ch=12 n=66 v=67
328800 On ch=12 n=63 v=67
328800 On ch=12 n=75 v=67
328800 On ch=12 n=71 v=67
329040 Off ch=12 n=71 v=64
329040 Off ch=12 n=75 v=64
329040 Off ch=12 n=63 v=64
329040 Off ch=12 n=66 v=64
329280 On ch=12 n=66 v=75
329280 On ch=12 n=63 v=75
329280 On ch=12 n=75 v=75
329280 On ch=12 n=71 v=75
329520 Off ch=12 n=71 v=64
329520 Off ch=12 n=75 v=64
329520 Off ch=12 n=63 v=64
329520 Off ch=12 n=66 v=64
329760 On ch=12 n=66 v=69
329760 On ch=12 n=63 v=69
329760 On ch=12 n=75 v=69
329760 On ch=12 n=71 v=69
330000 Off ch=12 n=71 v=64
330000 Off ch=12 n=75 v=64
330000 Off ch=12 n=63 v=64
330000 Off ch=12 n=66 v=64
330240 On ch=12 n=75 v=73
330240 On ch=12 n=65 v=73
330240 On ch=12 n=61 v=73
330240 On ch=12 n=73 v=73
330480 Off ch=12 n=73 v=64
330480 Off ch=12 n=61 v=64
330480 Off ch=12 n=65 v=64
330480 Off ch=12 n=75 v=64
330720 On ch=12 n=75 v=66
330720 On ch=12 n=65 v=66
330720 On ch=12 n=61 v=66
330720 On ch=12 n=73 v=66
330960 Off ch=12 n=73 v=64
330960 Off ch=12 n=61 v=64
330960 Off ch=12 n=65 v=64
330960 Off ch=12 n=75 v=64
331200 On ch=12 n=75 v=73
331200 On ch=12 n=65 v=73
331200 On ch=12 n=61 v=73
331200 On ch=12 n=73 v=73
331440 Off ch=12 n=73 v=64
331440 Off ch=12 n=61 v=64
331440 Off ch=12 n=65 v=64
331440 Off ch=12 n=75 v=64
331680 On ch=12 n=75 v=67
331680 On ch=12 n=65 v=67
331680 On ch=12 n=61 v=67
331680 On ch=12 n=73 v=67
331920 Off ch=12 n=73 v=64
331920 Off ch=12 n=61 v=64
331920 Off ch=12 n=65 v=64
331920 Off ch=12 n=75 v=64
332160 On ch=12 n=75 v=74
332160 On ch=12 n=65 v=74
332160 On ch=12 n=61 v=74
332160 On ch=12 n=73 v=74
332400 Off ch=12 n=73 v=64
332400 Off ch=12 n=61 v=64
332400 Off ch=12 n=65 v=64
332400 Off ch=12 n=75 v=64
332640 On ch=12 n=75 v=67
332640 On ch=12 n=61 v=67
332640 On ch=12 n=65 v=67
332640 On ch=12 n=73 v=67
332880 Off ch=12 n=73 v=64
332880 Off ch=12 n=65 v=64
332880 Off ch=12 n=61 v=64
332880 Off ch=12 n=75 v=64
333120 On ch=12 n=75 v=75
333120 On ch=12 n=61 v=75
333120 On ch=12 n=65 v=75
333120 On ch=12 n=73 v=75
333360 Off ch=12 n=73 v=64
333360 Off ch=12 n=65 v=64
333360 Off ch=12 n=61 v=64
333360 Off ch=12 n=75 v=64
333600 On ch=12 n=75 v=69
333600 On ch=12 n=61 v=69
333600 On ch=12 n=65 v=69
333600 On ch=12 n=73 v=69
333840 Off ch=12 n=73 v=64
333840 Off ch=12 n=65 v=64
333840 Off ch=12 n=61 v=64
333840 Off ch=12 n=75 v=64
334080 On ch=12 n=75 v=73
334080 On ch=12 n=66 v=73
334080 On ch=12 n=63 v=73
334080 On ch=12 n=70 v=73
334320 Off ch=12 n=70 v=64
334320 Off ch=12 n=63 v=64
334320 Off ch=12 n=66 v=64
334320 Off ch=12 n=75 v=64
334560 On ch=12 n=75 v=66
334560 On ch=12 n=66 v=66
334560 On ch=12 n=63 v=66
334560 On ch=12 n=70 v=66
334800 Off ch=12 n=70 v=64
334800 Off ch=12 n=63 v=64
334800 Off ch=12 n=66 v=64
334800 Off ch=12 n=75 v=64
335040 On ch=12 n=75 v=73
335040 On ch=12 n=66 v=73
335040 On ch=12 n=63 v=73
335040 On ch=12 n=70 v=73
335280 Off ch=12 n=70 v=64
335280 Off ch=12 n=63 v=64
335280 Off ch=12 n=66 v=64
335280 Off ch=12 n=75 v=64
335520 On ch=12 n=75 v=67
335520 On ch=12 n=66 v=67
335520 On ch=12 n=63 v=67
335520 On ch=12 n=70 v=67
335760 Off ch=12 n=70 v=64
335760 Off ch=12 n=63 v=64
335760 Off ch=12 n=66 v=64
335760 Off ch=12 n=75 v=64
336000 On ch=12 n=75 v=74
336000 On ch=12 n=66 v=74
336000 On ch=12 n=63 v=74
336000 On ch=12 n=70 v=74
336240 Off ch=12 n=70 v=64
336240 Off ch=12 n=63 v=64
336240 Off ch=12 n=66 v=64
336240 Off ch=12 n=75 v=64
336480 On ch=12 n=75 v=67
336480 On ch=12 n=63 v=67
336480 On ch=12 n=66 v=67
336480 On ch=12 n=70 v=67
336720 Off ch=12 n=70 v=64
336720 Off ch=12 n=66 v=64
336720 Off ch=12 n=63 v=64
336720 Off ch=12 n=75 v=64
336960 On ch=12 n=75 v=75
336960 On ch=12 n=63 v=75
336960 On ch=12 n=66 v=75
336960 On ch=12 n=70 v=75
337200 Off ch=12 n=70 v=64
337200 Off ch=12 n=66 v=64
337200 Off ch=12 n=63 v=64
337200 Off ch=12 n=75 v=64
337440 On ch=12 n=75 v=69
337440 On ch=12 n=63 v=69
337440 On ch=12 n=66 v=69
337440 On ch=12 n=70 v=69
337680 Off ch=12 n=70 v=64
337680 Off ch=12 n=66 v=64
337680 Off ch=12 n=63 v=64
337680 Off ch=12 n=75 v=64
337920 On ch=12 n=70 v=73
337920 On ch=12 n=63 v=73
337920 On ch=12 n=66 v=73
337920 On ch=12 n=75 v=73
338160 Off ch=12 n=75 v=64
338160 Off ch=12 n=66 v=64
338160 Off ch=12 n=63 v=64
338160 Off ch=12 n=70 v=64
338400 On ch=12 n=70 v=66
338400 On ch=12 n=63 v=66
338400 On ch=12 n=66 v=66
338400 On ch=12 n=75 v=66
338640 Off ch=12 n=75 v=64
338640 Off ch=12 n=66 v=64
338640 Off ch=12 n=63 v=64
338640 Off ch=12 n=70 v=64
338880 On ch=12 n=70 v=73
338880 On ch=12 n=63 v=73
338880 On ch=12 n=66 v=73
338880 On ch=12 n=75 v=73
339120 Off ch=12 n=75 v=64
339120 Off ch=12 n=66 v=64
339120 Off ch=12 n=63 v=64
339120 Off ch=12 n=70 v=64
339360 On ch=12 n=70 v=67
339360 On ch=12 n=63 v=67
339360 On ch=12 n=66 v=67
339360 On ch=12 n=75 v=67
339600 Off ch=12 n=75 v=64
339600 Off ch=12 n=66 v=64
339600 Off ch=12 n=63 v=64
339600 Off ch=12 n=70 v=64
339840 On ch=12 n=70 v=74
339840 On ch=12 n=63 v=74
339840 On ch=12 n=66 v=74
339840 On ch=12 n=75 v=74
340080 Off ch=12 n=75 v=64
340080 Off ch=12 n=66 v=64
340080 Off ch=12 n=63 v=64
340080 Off ch=12 n=70 v=64
340320 On ch=12 n=70 v=67
340320 On ch=12 n=66 v=67
340320 On ch=12 n=63 v=67
340320 On ch=12 n=75 v=67
340560 Off ch=12 n=75 v=64
340560 Off ch=12 n=63 v=64
340560 Off ch=12 n=66 v=64
340560 Off ch=12 n=70 v=64
340800 On ch=12 n=70 v=75
340800 On ch=12 n=66 v=75
340800 On ch=12 n=63 v=75
340800 On ch=12 n=75 v=75
341040 Off ch=12 n=75 v=64
341040 Off ch=12 n=63 v=64
341040 Off ch=12 n=66 v=64
341040 Off ch=12 n=70 v=64
341280 On ch=12 n=70 v=69
341280 On ch=12 n=66 v=69
341280 On ch=12 n=63 v=69
341280 On ch=12 n=75 v=69
341520 Off ch=12 n=75 v=64
341520 Off ch=12 n=63 v=64
341520 Off ch=12 n=66 v=64
341520 Off ch=12 n=70 v=64
341760 On ch=12 n=71 v=73
341760 On ch=12 n=63 v=73
341760 On ch=12 n=75 v=73
341760 On ch=12 n=66 v=73
342000 Off ch=12 n=66 v=64
342000 Off ch=12 n=75 v=64
342000 Off ch=12 n=63 v=64
342000 Off ch=12 n=71 v=64
342240 On ch=12 n=71 v=66
342240 On ch=12 n=63 v=66
342240 On ch=12 n=75 v=66
342240 On ch=12 n=66 v=66
342480 Off ch=12 n=66 v=64
342480 Off ch=12 n=75 v=64
342480 Off ch=12 n=63 v=64
342480 Off ch=12 n=71 v=64
342720 On ch=12 n=71 v=73
342720 On ch=12 n=63 v=73
342720 On ch=12 n=75 v=73
342720 On ch=12 n=66 v=73
342960 Off ch=12 n=66 v=64
342960 Off ch=12 n=75 v=64
342960 Off ch=12 n=63 v=64
342960 Off ch=12 n=71 v=64
343200 On ch=12 n=71 v=67
343200 On ch=12 n=63 v=67
343200 On ch=12 n=75 v=67
343200 On ch=12 n=66 v=67
343440 Off ch=12 n=66 v=64
343440 Off ch=12 n=75 v=64
343440 Off ch=12 n=63 v=64
343440 Off ch=12 n=71 v=64
343680 On ch=12 n=71 v=74
343680 On ch=12 n=63 v=74
343680 On ch=12 n=75 v=74
343680 On ch=12 n=66 v=74
343920 Off ch=12 n=66 v=64
343920 Off ch=12 n=75 v=64
343920 Off ch=12 n=63 v=64
343920 Off ch=12 n=71 v=64
344160 On ch=12 n=71 v=67
344160 On ch=12 n=75 v=67
344160 On ch=12 n=63 v=67
344160 On ch=12 n=66 v=67
344400 Off ch=12 n=66 v=64
344400 Off ch=12 n=63 v=64
344400 Off ch=12 n=75 v=64
344400 Off ch=12 n=71 v=64
344640 On ch=12 n=71 v=75
344640 On ch=12 n=75 v=75
344640 On ch=12 n=63 v=75
344640 On ch=12 n=66 v=75
344880 Off ch=12 n=66 v=64
344880 Off ch=12 n=63 v=64
344880 Off ch=12 n=75 v=64
344880 Off ch=12 n=71 v=64
345120 On ch=12 n=71 v=69
345120 On ch=12 n=75 v=69
345120 On ch=12 n=63 v=69
345120 On ch=12 n=66 v=69
345360 Off ch=12 n=66 v=64
345360 Off ch=12 n=63 v=64
345360 Off ch=12 n=75 v=64
345360 Off ch=12 n=71 v=64
345600 On ch=12 n=73 v=73
345600 On ch=12 n=61 v=73
345600 On ch=12 n=65 v=73
345600 On ch=12 n=75 v=73
345840 Off ch=12 n=75 v=64
345840 Off ch=12 n=65 v=64
345840 Off ch=12 n=61 v=64
345840 Off ch=12 n=73 v=64
346080 On ch=12 n=73 v=66
346080 On ch=12 n=61 v=66
346080 On ch=12 n=65 v=66
346080 On ch=12 n=75 v=66
346320 Off ch=12 n=75 v=64
346320 Off ch=12 n=65 v=64
346320 Off ch=12 n=61 v=64
346320 Off ch=12 n=73 v=64
346560 On ch=12 n=73 v=73
346560 On ch=12 n=61 v=73
346560 On ch=12 n=65 v=73
346560 On ch=12 n=75 v=73
346800 Off ch=12 n=75 v=64
346800 Off ch=12 n=65 v=64
346800 Off ch=12 n=61 v=64
346800 Off ch=12 n=73 v=64
347040 On ch=12 n=73 v=67
347040 On ch=12 n=61 v=67
347040 On ch=12 n=65 v=67
347040 On ch=12 n=75 v=67
347280 Off ch=12 n=75 v=64
347280 Off ch=12 n=65 v=64
347280 Off ch=12 n=61 v=64
347280 Off ch=12 n=73 v=64
347520 On ch=12 n=73 v=74
347520 On ch=12 n=61 v=74
347520 On ch=12 n=65 v=74
347520 On ch=12 n=75 v=74
347760 Off ch=12 n=75 v=64
347760 Off ch=12 n=65 v=64
347760 Off ch=12 n=61 v=64
347760 Off ch=12 n=73 v=64
348000 On ch=12 n=73 v=67
348000 On ch=12 n=65 v=67
348000 On ch=12 n=61 v=67
348000 On ch=12 n=75 v=67
348240 Off ch=12 n=75 v=64
348240 Off ch=12 n=61 v=64
348240 Off ch=12 n=65 v=64
348240 Off ch=12 n=73 v=64
348480 On ch=12 n=73 v=75
348480 On ch=12 n=65 v=75
348480 On ch=12 n=61 v=75
348480 On ch=12 n=75 v=75
348720 Off ch=12 n=75 v=64
348720 Off ch=12 n=61 v=64
348720 Off ch=12 n=65 v=64
348720 Off ch=12 n=73 v=64
348960 On ch=12 n=73 v=69
348960 On ch=12 n=65 v=69
348960 On ch=12 n=61 v=69
348960 On ch=12 n=75 v=69
349200 Off ch=12 n=75 v=64
349200 Off ch=12 n=61 v=64
349200 Off ch=12 n=65 v=64
349200 Off ch=12 n=73 v=64
349440 On ch=12 n=70 v=73
349440 On ch=12 n=63 v=73
349440 On ch=12 n=66 v=73
349440 On ch=12 n=75 v=73
349680 Off ch=12 n=75 v=64
349680 Off ch=12 n=66 v=64
349680 Off ch=12 n=63 v=64
349680 Off ch=12 n=70 v=64
349920 On ch=12 n=70 v=66
349920 On ch=12 n=63 v=66
349920 On ch=12 n=66 v=66
349920 On ch=12 n=75 v=66
350160 Off ch=12 n=75 v=64
350160 Off ch=12 n=66 v=64
350160 Off ch=12 n=63 v=64
350160 Off ch=12 n=70 v=64
350400 On ch=12 n=70 v=73
350400 On ch=12 n=63 v=73
350400 On ch=12 n=66 v=73
350400 On ch=12 n=75 v=73
350640 Off ch=12 n=75 v=64
350640 Off ch=12 n=66 v=64
350640 Off ch=12 n=63 v=64
350640 Off ch=12 n=70 v=64
350880 On ch=12 n=70 v=67
350880 On ch=12 n=63 v=67
350880 On ch=12 n=66 v=67
350880 On ch=12 n=75 v=67
351120 Off ch=12 n=75 v=64
351120 Off ch=12 n=66 v=64
351120 Off ch=12 n=63 v=64
351120 Off ch=12 n=70 v=64
351360 On ch=12 n=70 v=74
351360 On ch=12 n=63 v=74
351360 On ch=12 n=66 v=74
351360 On ch=12 n=75 v=74
351600 Off ch=12 n=75 v=64
351600 Off ch=12 n=66 v=64
351600 Off ch=12 n=63 v=64
351600 Off ch=12 n=70 v=64
351840 On ch=12 n=70 v=67
351840 On ch=12 n=66 v=67
351840 On ch=12 n=63 v=67
351840 On ch=12 n=75 v=67
352080 Off ch=12 n=75 v=64
352080 Off ch=12 n=63 v=64
352080 Off ch=12 n=66 v=64
352080 Off ch=12 n=70 v=64
352320 On ch=12 n=70 v=75
352320 On ch=12 n=66 v=75
352320 On ch=12 n=63 v=75
352320 On ch=12 n=75 v=75
352560 Off ch=12 n=75 v=64
352560 Off ch=12 n=63 v=64
352560 Off ch=12 n=66 v=64
352560 Off ch=12 n=70 v=64
352800 On ch=12 n=70 v=69
352800 On ch=12 n=66 v=69
352800 On ch=12 n=63 v=69
352800 On ch=12 n=75 v=69
353040 Off ch=12 n=75 v=64
353040 Off ch=12 n=63 v=64
353040 Off ch=12 n=66 v=64
353040 Off ch=12 n=70 v=64
353280 On ch=12 n=75 v=73
353280 On ch=12 n=66 v=73
353280 On ch=12 n=63 v=73
353280 On ch=12 n=70 v=73
353520 Off ch=12 n=70 v=64
353520 Off ch=12 n=63 v=64
353520 Off ch=12 n=66 v=64
353520 Off ch=12 n=75 v=64
353760 On ch=12 n=75 v=66
353760 On ch=12 n=66 v=66
353760 On ch=12 n=63 v=66
353760 On ch=12 n=70 v=66
354000 Off ch=12 n=70 v=64
354000 Off ch=12 n=63 v=64
354000 Off ch=12 n=66 v=64
354000 Off ch=12 n=75 v=64
354240 On ch=12 n=75 v=73
354240 On ch=12 n=66 v=73
354240 On ch=12 n=63 v=73
354240 On ch=12 n=70 v=73
354480 Off ch=12 n=70 v=64
354480 Off ch=12 n=63 v=64
354480 Off ch=12 n=66 v=64
354480 Off ch=12 n=75 v=64
354720 On ch=12 n=75 v=67
354720 On ch=12 n=66 v=67
354720 On ch=12 n=63 v=67
354720 On ch=12 n=70 v=67
354960 Off ch=12 n=70 v=64
354960 Off ch=12 n=63 v=64
354960 Off ch=12 n=66 v=64
354960 Off ch=12 n=75 v=64
355200 On ch=12 n=75 v=74
355200 On ch=12 n=66 v=74
355200 On ch=12 n=63 v=74
355200 On ch=12 n=70 v=74
355440 Off ch=12 n=70 v=64
355440 Off ch=12 n=63 v=64
355440 Off ch=12 n=66 v=64
355440 Off ch=12 n=75 v=64
355680 On ch=12 n=75 v=67
355680 On ch=12 n=63 v=67
355680 On ch=12 n=66 v=67
355680 On ch=12 n=70 v=67
355920 Off ch=12 n=70 v=64
355920 Off ch=12 n=66 v=64
355920 Off ch=12 n=63 v=64
355920 Off ch=12 n=75 v=64
356160 On ch=12 n=75 v=75
356160 On ch=12 n=63 v=75
356160 On ch=12 n=66 v=75
356160 On ch=12 n=70 v=75
356400 Off ch=12 n=70 v=64
356400 Off ch=12 n=66 v=64
356400 Off ch=12 n=63 v=64
356400 Off ch=12 n=75 v=64
356640 On ch=12 n=75 v=69
356640 On ch=12 n=63 v=69
356640 On ch=12 n=66 v=69
356640 On ch=12 n=70 v=69
356880 Off ch=12 n=70 v=64
356880 Off ch=12 n=66 v=64
356880 Off ch=12 n=63 v=64
356880 Off ch=12 n=75 v=64
357120 On ch=12 n=66 v=73
357120 On ch=12 n=75 v=73
357120 On ch=12 n=63 v=73
357120 On ch=12 n=71 v=73
357360 Off ch=12 n=71 v=64
357360 Off ch=12 n=63 v=64
357360 Off ch=12 n=75 v=64
357360 Off ch=12 n=66 v=64
357600 On ch=12 n=66 v=66
357600 On ch=12 n=75 v=66
357600 On ch=12 n=63 v=66
357600 On ch=12 n=71 v=66
357840 Off ch=12 n=71 v=64
357840 Off ch=12 n=63 v=64
357840 Off ch=12 n=75 v=64
357840 Off ch=12 n=66 v=64
358080 On ch=12 n=66 v=73
358080 On ch=12 n=75 v=73
358080 On ch=12 n=63 v=73
358080 On ch=12 n=71 v=73
358320 Off ch=12 n=71 v=64
358320 Off ch=12 n=63 v=64
358320 Off ch=12 n=75 v=64
358320 Off ch=12 n=66 v=64
358560 On ch=12 n=66 v=67
358560 On ch=12 n=75 v=67
358560 On ch=12 n=63 v=67
358560 On ch=12 n=71 v=67
358800 Off ch=12 n=71 v=64
358800 Off ch=12 n=63 v=64
358800 Off ch=12 n=75 v=64
358800 Off ch=12 n=66 v=64
359040 On ch=12 n=66 v=74
359040 On ch=12 n=75 v=74
359040 On ch=12 n=63 v=74
359040 On ch=12 n=71 v=74
359280 Off ch=12 n=71 v=64
359280 Off ch=12 n=63 v=64
359280 Off ch=12 n=75 v=64
359280 Off ch=12 n=66 v=64
359520 On ch=12 n=66 v=67
359520 On ch=12 n=63 v=67
359520 On ch=12 n=75 v=67
359520 On ch=12 n=71 v=67
359760 Off ch=12 n=71 v=64
359760 Off ch=12 n=75 v=64
359760 Off ch=12 n=63 v=64
359760 Off ch=12 n=66 v=64
360000 On ch=12 n=66 v=75
360000 On ch=12 n=63 v=75
360000 On ch=12 n=75 v=75
360000 On ch=12 n=71 v=75
360240 Off ch=12 n=71 v=64
360240 Off ch=12 n=75 v=64
360240 Off ch=12 n=63 v=64
360240 Off ch=12 n=66 v=64
360480 On ch=12 n=66 v=69
360480 On ch=12 n=63 v=69
360480 On ch=12 n=75 v=69
360480 On ch=12 n=71 v=69
360720 Off ch=12 n=71 v=64
360720 Off ch=12 n=75 v=64
360720 Off ch=12 n=63 v=64
360720 Off ch=12 n=66 v=64
360960 On ch=12 n=75 v=73
360960 On ch=12 n=65 v=73
360960 On ch=12 n=61 v=73
360960 On ch=12 n=73 v=73
361200 Off ch=12 n=73 v=64
361200 Off ch=12 n=61 v=64
361200 Off ch=12 n=65 v=64
361200 Off ch=12 n=75 v=64
361440 On ch=12 n=75 v=66
361440 On ch=12 n=65 v=66
361440 On ch=12 n=61 v=66
361440 On ch=12 n=73 v=66
361680 Off ch=12 n=73 v=64
361680 Off ch=12 n=61 v=64
361680 Off ch=12 n=65 v=64
361680 Off ch=12 n=75 v=64
361920 On ch=12 n=75 v=73
361920 On ch=12 n=65 v=73
361920 On ch=12 n=61 v=73
361920 On ch=12 n=73 v=73
362160 Off ch=12 n=73 v=64
362160 Off ch=12 n=61 v=64
362160 Off ch=12 n=65 v=64
362160 Off ch=12 n=75 v=64
362400 On ch=12 n=75 v=67
362400 On ch=12 n=65 v=67
362400 On ch=12 n=61 v=67
362400 On ch=12 n=73 v=67
362640 Off ch=12 n=73 v=64
362640 Off ch=12 n=61 v=64
362640 Off ch=12 n=65 v=64
362640 Off ch=12 n=75 v=64
362880 On ch=12 n=75 v=74
362880 On ch=12 n=65 v=74
362880 On ch=12 n=61 v=74
362880 On ch=12 n=73 v=74
363120 Off ch=12 n=73 v=64
363120 Off ch=12 n=61 v=64
363120 Off ch=12 n=65 v=64
363120 Off ch=12 n=75 v=64
363360 On ch=12 n=75 v=67
363360 On ch=12 n=61 v=67
363360 On ch=12 n=65 v=67
363360 On ch=12 n=73 v=67
363600 Off ch=12 n=73 v=64
363600 Off ch=12 n=65 v=64
363600 Off ch=12 n=61 v=64
363600 Off ch=12 n=75 v=64
363840 On ch=12 n=75 v=75
363840 On ch=12 n=61 v=75
363840 On ch=12 n=65 v=75
363840 On ch=12 n=73 v=75
364080 Off ch=12 n=73 v=64
364080 Off ch=12 n=65 v=64
364080 Off ch=12 n=61 v=64
364080 Off ch=12 n=75 v=64
364320 On ch=12 n=75 v=69
364320 On ch=12 n=61 v=69
364320 On ch=12 n=65 v=69
364320 On ch=12 n=73 v=69
364560 Off ch=12 n=73 v=64
364560 Off ch=12 n=65 v=64
364560 Off ch=12 n=61 v=64
364560 Off ch=12 n=75 v=64
364800 On ch=12 n=75 v=73
364800 On ch=12 n=66 v=73
364800 On ch=12 n=63 v=73
364800 On ch=12 n=70 v=73
365040 Off ch=12 n=70 v=64
365040 Off ch=12 n=63 v=64
365040 Off ch=12 n=66 v=64
365040 Off ch=12 n=75 v=64
365280 On ch=12 n=75 v=66
365280 On ch=12 n=66 v=66
365280 On ch=12 n=63 v=66
365280 On ch=12 n=70 v=66
365520 Off ch=12 n=70 v=64
365520 Off ch=12 n=63 v=64
365520 Off ch=12 n=66 v=64
365520 Off ch=12 n=75 v=64
365760 On ch=12 n=75 v=73
365760 On ch=12 n=66 v=73
365760 On ch=12 n=63 v=73
365760 On ch=12 n=70 v=73
366000 Off ch=12 n=70 v=64
366000 Off ch=12 n=63 v=64
366000 Off ch=12 n=66 v=64
366000 Off ch=12 n=75 v=64
366240 On ch=12 n=75 v=67
366240 On ch=12 n=66 v=67
366240 On ch=12 n=63 v=67
366240 On ch=12 n=70 v=67
366480 Off ch=12 n=70 v=64
366480 Off ch=12 n=63 v=64
366480 Off ch=12 n=66 v=64
366480 Off ch=12 n=75 v=64
366720 On ch=12 n=75 v=74
366720 On ch=12 n=66 v=74
366720 On ch=12 n=63 v=74
366720 On ch=12 n=70 v=74
366960 Off ch=12 n=70 v=64
366960 Off ch=12 n=63 v=64
366960 Off ch=12 n=66 v=64
366960 Off ch=12 n=75 v=64
367200 On ch=12 n=75 v=67
367200 On ch=12 n=63 v=67
367200 On ch=12 n=66 v=67
367200 On ch=12 n=70 v=67
367440 Off ch=12 n=70 v=64
367440 Off ch=12 n=66 v=64
367440 Off ch=12 n=63 v=64
367440 Off ch=12 n=75 v=64
367680 On ch=12 n=75 v=75
367680 On ch=12 n=63 v=75
367680 On ch=12 n=66 v=75
367680 On ch=12 n=70 v=75
367920 Off ch=12 n=70 v=64
367920 Off ch=12 n=66 v=64
367920 Off ch=12 n=63 v=64
367920 Off ch=12 n=75 v=64
368160 On ch=12 n=75 v=69
368160 On ch=12 n=63 v=69
368160 On ch=12 n=66 v=69
368160 On ch=12 n=70 v=69
368400 Off ch=12 n=70 v=64
368400 Off ch=12 n=66 v=64
368400 Off ch=12 n=63 v=64
368400 Off ch=12 n=75 v=64
368640 On ch=12 n=70 v=73
368640 On ch=12 n=63 v=73
368640 On ch=12 n=66 v=73
368640 On ch=12 n=75 v=73
368880 Off ch=12 n=75 v=64
368880 Off ch=12 n=66 v=64
368880 Off ch=12 n=63 v=64
368880 Off ch=12 n=70 v=64
369120 On ch=12 n=70 v=66
369120 On ch=12 n=63 v=66
369120 On ch=12 n=66 v=66
369120 On ch=12 n=75 v=66
369360 Off ch=12 n=75 v=64
369360 Off ch=12 n=66 v=64
369360 Off ch=12 n=63 v=64
369360 Off ch=12 n=70 v=64
369600 On ch=12 n=70 v=73
369600 On ch=12 n=63 v=73
369600 On ch=12 n=66 v=73
369600 On ch=12 n=75 v=73
369840 Off ch=12 n=75 v=64
369840 Off ch=12 n=66 v=64
369840 Off ch=12 n=63 v=64
369840 Off ch=12 n=70 v=64
370080 On ch=12 n=70 v=67
370080 On ch=12 n=63 v=67
370080 On ch=12 n=66 v=67
370080 On ch=12 n=75 v=67
370320 Off ch=12 n=75 v=64
370320 Off ch=12 n=66 v=64
370320 Off ch=12 n=63 v=64
370320 Off ch=12 n=70 v=64
370560 On ch=12 n=70 v=74
370560 On ch=12 n=63 v=74
370560 On ch=12 n=66 v=74
370560 On ch=12 n=75 v=74
370800 Off ch=12 n=75 v=64
370800 Off ch=12 n=66 v=64
370800 Off ch=12 n=63 v=64
370800 Off ch=12 n=70 v=64
417600 On ch=12 n=71 v=69
417860 Off ch=12 n=71 v=64
418080 On ch=12 n=74 v=69
418340 Off ch=12 n=74 v=64
418560 On ch=12 n=74 v=70
419040 On ch=12 n=76 v=70
419060 Off ch=12 n=74 v=64
419300 Off ch=12 n=76 v=64
419520 On ch=12 n=71 v=70
419780 Off ch=12 n=71 v=64
420000 On ch=12 n=69 v=70
420260 Off ch=12 n=69 v=64
420480 On ch=12 n=71 v=70
421260 Off ch=12 n=71 v=64
421440 On ch=12 n=69 v=70
421920 On ch=12 n=71 v=70
421980 Off ch=12 n=69 v=64
422180 Off ch=12 n=71 v=64
422400 On ch=12 n=74 v=70
422880 On ch=12 n=76 v=70
422920 Off ch=12 n=74 v=64
423140 Off ch=12 n=76 v=64
423360 On ch=12 n=71 v=70
423620 Off ch=12 n=71 v=64
423840 On ch=12 n=69 v=70
424100 Off ch=12 n=69 v=64
424320 On ch=12 n=71 v=70
425280 On ch=12 n=76 v=70
425340 Off ch=12 n=71 v=64
425540 Off ch=12 n=76 v=64
425760 On ch=12 n=78 v=70
426020 Off ch=12 n=78 v=64
426240 On ch=12 n=79 v=70
426720 On ch=12 n=78 v=70
426740 Off ch=12 n=79 v=64
427000 Off ch=12 n=78 v=64
427200 On ch=12 n=76 v=70
427440 Off ch=12 n=76 v=64
427680 On ch=12 n=74 v=70
427900 Off ch=12 n=74 v=64
428160 On ch=12 n=71 v=70
429088 Off ch=12 n=71 v=64
429120 On ch=12 n=69 v=70
429600 On ch=12 n=71 v=70
429620 Off ch=12 n=69 v=64
429860 Off ch=12 n=71 v=64
430080 On ch=12 n=69 v=70
430560 On ch=12 n=67 v=70
430620 Off ch=12 n=69 v=64
430820 Off ch=12 n=67 v=64
431040 On ch=12 n=66 v=70
431260 Off ch=12 n=66 v=64
431520 On ch=12 n=62 v=70
431740 Off ch=12 n=62 v=64
432000 On ch=12 n=64 v=70
432720 Off ch=12 n=64 v=64
432960 On ch=12 n=71 v=71
432960 On ch=12 n=83 v=78
433220 Off ch=12 n=83 v=64
433220 Off ch=12 n=71 v=64
433440 On ch=12 n=74 v=71
433440 On ch=12 n=86 v=78
433700 Off ch=12 n=86 v=64
433700 Off ch=12 n=74 v=64
433920 On ch=12 n=74 v=71
433920 On ch=12 n=86 v=78
434400 On ch=12 n=76 v=71
434400 On ch=12 n=88 v=78
434420 Off ch=12 n=86 v=64
434420 Off ch=12 n=74 v=64
434660 Off ch=12 n=88 v=64
434660 Off ch=12 n=76 v=64
434880 On ch=12 n=71 v=71
434880 On ch=12 n=83 v=78
435140 Off ch=12 n=83 v=64
435140 Off ch=12 n=71 v=64
435360 On ch=12 n=69 v=71
435360 On ch=12 n=81 v=78
435620 Off ch=12 n=81 v=64
435620 Off ch=12 n=69 v=64
435840 On ch=12 n=71 v=71
435840 On ch=12 n=83 v=78
436620 Off ch=12 n=83 v=64
436620 Off ch=12 n=71 v=64
436800 On ch=12 n=69 v=71
436800 On ch=12 n=81 v=78
437280 On ch=12 n=71 v=71
437280 On ch=12 n=83 v=78
437340 Off ch=12 n=81 v=64
437340 Off ch=12 n=69 v=64
437540 Off ch=12 n=83 v=64
437540 Off ch=12 n=71 v=64
437760 On ch=12 n=74 v=71
437760 On ch=12 n=86 v=78
438240 On ch=12 n=76 v=71
438240 On ch=12 n=88 v=78
438280 Off ch=12 n=86 v=64
438280 Off ch=12 n=74 v=64
438500 Off ch=12 n=88 v=64
438500 Off ch=12 n=76 v=64
438720 On ch=12 n=71 v=71
438720 On ch=12 n=83 v=78
438980 Off ch=12 n=83 v=64
438980 Off ch=12 n=71 v=64
439200 On ch=12 n=69 v=71
439200 On ch=12 n=81 v=78
439460 Off ch=12 n=81 v=64
439460 Off ch=12 n=69 v=64
439680 On ch=12 n=71 v=71
439680 On ch=12 n=83 v=78
440640 On ch=12 n=69 v=71
440640 On ch=12 n=81 v=78
440700 Off ch=12 n=83 v=64
440700 Off ch=12 n=71 v=64
440900 Off ch=12 n=81 v=64
440900 Off ch=12 n=69 v=64
441120 On ch=12 n=71 v=71
441120 On ch=12 n=83 v=78
441380 Off ch=12 n=83 v=64
441380 Off ch=12 n=71 v=64
441600 On ch=12 n=69 v=71
441600 On ch=12 n=81 v=78
442080 On ch=12 n=67 v=71
442080 On ch=12 n=79 v=78
442100 Off ch=12 n=81 v=64
442100 Off ch=12 n=69 v=64
442360 Off ch=12 n=79 v=64
442360 Off ch=12 n=67 v=64
442560 On ch=12 n=66 v=71
442560 On ch=12 n=78 v=78
442800 Off ch=12 n=78 v=64
442800 Off ch=12 n=66 v=64
443040 On ch=12 n=62 v=71
443040 On ch=12 n=74 v=78
443380 Off ch=12 n=74 v=64
443380 Off ch=12 n=62 v=64
443520 On ch=12 n=64 v=71
443520 On ch=12 n=76 v=78
444448 Off ch=12 n=76 v=64
444448 Off ch=12 n=64 v=64
444480 On ch=12 n=62 v=71
444480 On ch=12 n=74 v=78
444960 On ch=12 n=64 v=71
444960 On ch=12 n=76 v=78
444980 Off ch=12 n=74 v=64
444980 Off ch=12 n=62 v=64
445220 Off ch=12 n=76 v=64
445220 Off ch=12 n=64 v=64
445440 On ch=12 n=66 v=71
445440 On ch=12 n=78 v=78
445920 On ch=12 n=67 v=71
445920 On ch=12 n=79 v=78
445980 Off ch=12 n=78 v=64
445980 Off ch=12 n=66 v=64
446180 Off ch=12 n=79 v=64
446180 Off ch=12 n=67 v=64
446400 On ch=12 n=69 v=71
446400 On ch=12 n=81 v=78
446620 Off ch=12 n=81 v=64
446620 Off ch=12 n=69 v=64
446880 On ch=12 n=71 v=71
446880 On ch=12 n=83 v=78
447100 Off ch=12 n=83 v=64
447100 Off ch=12 n=71 v=64
447360 On ch=12 n=64 v=71
447360 On ch=12 n=76 v=78
448080 Off ch=12 n=76 v=64
448080 Off ch=12 n=64 v=64
448320 On ch=12 n=71 v=71
448320 On ch=12 n=83 v=78
448580 Off ch=12 n=83 v=64
448580 Off ch=12 n=71 v=64
448800 On ch=12 n=74 v=71
448800 On ch=12 n=86 v=78
449060 Off ch=12 n=86 v=64
449060 Off ch=12 n=74 v=64
449280 On ch=12 n=74 v=71
449280 On ch=12 n=86 v=78
449760 On ch=12 n=76 v=71
449760 On ch=12 n=88 v=78
449780 Off ch=12 n=86 v=64
449780 Off ch=12 n=74 v=64
450020 Off ch=12 n=88 v=64
450020 Off ch=12 n=76 v=64
450240 On ch=12 n=71 v=71
450240 On ch=12 n=83 v=78
450500 Off ch=12 n=83 v=64
450500 Off ch=12 n=71 v=64
450720 On ch=12 n=69 v=71
450720 On ch=12 n=81 v=78
450980 Off ch=12 n=81 v=64
450980 Off ch=12 n=69 v=64
451200 On ch=12 n=71 v=71
451200 On ch=12 n=83 v=78
451980 Off ch=12 n=83 v=64
451980 Off ch=12 n=71 v=64
452160 On ch=12 n=69 v=71
452160 On ch=12 n=81 v=78
452640 On ch=12 n=71 v=71
452640 On ch=12 n=83 v=78
452700 Off ch=12 n=81 v=64
452700 Off ch=12 n=69 v=64
452900 Off ch=12 n=83 v=64
452900 Off ch=12 n=71 v=64
453120 On ch=12 n=74 v=71
453120 On ch=12 n=86 v=78
453600 On ch=12 n=76 v=71
453600 On ch=12 n=88 v=78
453640 Off ch=12 n=86 v=64
453640 Off ch=12 n=74 v=64
453860 Off ch=12 n=88 v=64
453860 Off ch=12 n=76 v=64
454080 On ch=12 n=71 v=71
454080 On ch=12 n=83 v=78
454340 Off ch=12 n=83 v=64
454340 Off ch=12 n=71 v=64
454560 On ch=12 n=69 v=71
454560 On ch=12 n=81 v=78
454820 Off ch=12 n=81 v=64
454820 Off ch=12 n=69 v=64
455040 On ch=12 n=71 v=71
455040 On ch=12 n=83 v=78
456000 On ch=12 n=76 v=71
456000 On ch=12 n=88 v=78
456060 Off ch=12 n=83 v=64
456060 Off ch=12 n=71 v=64
456260 Off ch=12 n=88 v=64
456260 Off ch=12 n=76 v=64
456480 On ch=12 n=78 v=71
456480 On ch=12 n=90 v=78
456740 Off ch=12 n=90 v=64
456740 Off ch=12 n=78 v=64
456960 On ch=12 n=79 v=71
456960 On ch=12 n=91 v=78
457440 On ch=12 n=78 v=71
457440 On ch=12 n=90 v=78
457460 Off ch=12 n=91 v=64
457460 Off ch=12 n=79 v=64
457720 Off ch=12 n=90 v=64
457720 Off ch=12 n=78 v=64
457920 On ch=12 n=76 v=71
457920 On ch=12 n=88 v=78
458160 Off ch=12 n=88 v=64
458160 Off ch=12 n=76 v=64
458400 On ch=12 n=74 v=71
458400 On ch=12 n=86 v=78
458620 Off ch=12 n=86 v=64
458620 Off ch=12 n=74 v=64
458880 On ch=12 n=71 v=71
458880 On ch=12 n=83 v=78
459808 Off ch=12 n=83 v=64
459808 Off ch=12 n=71 v=64
459840 On ch=12 n=69 v=71
459840 On ch=12 n=81 v=78
460320 On ch=12 n=71 v=71
460320 On ch=12 n=83 v=78
460340 Off ch=12 n=81 v=64
460340 Off ch=12 n=69 v=64
460580 Off ch=12 n=83 v=64
460580 Off ch=12 n=71 v=64
460800 On ch=12 n=69 v=71
460800 On ch=12 n=81 v=78
461280 On ch=12 n=67 v=71
461280 On ch=12 n=79 v=78
461340 Off ch=12 n=81 v=64
461340 Off ch=12 n=69 v=64
461540 Off ch=12 n=79 v=64
461540 Off ch=12 n=67 v=64
461760 On ch=12 n=66 v=71
461760 On ch=12 n=78 v=78
461980 Off ch=12 n=78 v=64
461980 Off ch=12 n=66 v=64
462240 On ch=12 n=62 v=71
462240 On ch=12 n=74 v=78
462460 Off ch=12 n=74 v=64
462460 Off ch=12 n=62 v=64
462720 On ch=12 n=64 v=71
462720 On ch=12 n=76 v=78
462936 Off ch=12 n=76 v=64
462936 Off ch=12 n=64 v=64
462936 Meta TrkEnd
TrkEnd
MTrk
0 SeqSpec 43 00 01 ff
0 Meta TrkName "Viola(s)"
1920 PrCh ch=13 p=5
1930 Par ch=13 c=7 v=100
1940 Par ch=13 c=10 v=64
1950 Par ch=13 c=11 v=127
1960 Par ch=13 c=20 v=127
1970 Par ch=13 c=91 v=0
1980 Par ch=13 c=93 v=0
1990 Par ch=13 c=94 v=0
2000 Par ch=13 c=101 v=0
2010 Par ch=13 c=100 v=0
2020 Par ch=13 c=6 v=2
2030 Par ch=13 c=101 v=127
2040 Par ch=13 c=100 v=127
65760 On ch=13 n=58 v=72
65760 On ch=13 n=54 v=72
66088 Off ch=13 n=54 v=64
66088 Off ch=13 n=58 v=64
66720 On ch=13 n=58 v=72
66720 On ch=13 n=54 v=72
67048 Off ch=13 n=54 v=64
67048 Off ch=13 n=58 v=64
67680 On ch=13 n=58 v=72
67680 On ch=13 n=54 v=72
68008 Off ch=13 n=54 v=64
68008 Off ch=13 n=58 v=64
68640 On ch=13 n=58 v=72
68640 On ch=13 n=54 v=72
68968 Off ch=13 n=54 v=64
68968 Off ch=13 n=58 v=64
69600 On ch=13 n=58 v=72
69600 On ch=13 n=54 v=72
69928 Off ch=13 n=54 v=64
69928 Off ch=13 n=58 v=64
70560 On ch=13 n=54 v=72
70560 On ch=13 n=58 v=72
70888 Off ch=13 n=58 v=64
70888 Off ch=13 n=54 v=64
71520 On ch=13 n=58 v=72
71520 On ch=13 n=54 v=72
71848 Off ch=13 n=54 v=64
71848 Off ch=13 n=58 v=64
72480 On ch=13 n=54 v=72
72480 On ch=13 n=58 v=72
72808 Off ch=13 n=58 v=64
72808 Off ch=13 n=54 v=64
73440 On ch=13 n=54 v=72
73440 On ch=13 n=59 v=72
73768 Off ch=13 n=59 v=64
73768 Off ch=13 n=54 v=64
74400 On ch=13 n=54 v=72
74400 On ch=13 n=59 v=72
74728 Off ch=13 n=59 v=64
74728 Off ch=13 n=54 v=64
75360 On ch=13 n=59 v=72
75360 On ch=13 n=54 v=72
75688 Off ch=13 n=54 v=64
75688 Off ch=13 n=59 v=64
76320 On ch=13 n=59 v=72
76320 On ch=13 n=54 v=72
76648 Off ch=13 n=54 v=64
76648 Off ch=13 n=59 v=64
77280 On ch=13 n=56 v=72
77280 On ch=13 n=53 v=72
77608 Off ch=13 n=53 v=64
77608 Off ch=13 n=56 v=64
78240 On ch=13 n=53 v=72
78240 On ch=13 n=56 v=72
78568 Off ch=13 n=56 v=64
78568 Off ch=13 n=53 v=64
79200 On ch=13 n=56 v=72
79200 On ch=13 n=53 v=72
79528 Off ch=13 n=53 v=64
79528 Off ch=13 n=56 v=64
80160 On ch=13 n=53 v=72
80160 On ch=13 n=56 v=72
80488 Off ch=13 n=56 v=64
80488 Off ch=13 n=53 v=64
81120 On ch=13 n=54 v=72
81120 On ch=13 n=58 v=72
81448 Off ch=13 n=58 v=64
81448 Off ch=13 n=54 v=64
82080 On ch=13 n=54 v=72
82080 On ch=13 n=58 v=72
82408 Off ch=13 n=58 v=64
82408 Off ch=13 n=54 v=64
83040 On ch=13 n=54 v=72
83040 On ch=13 n=58 v=72
83368 Off ch=13 n=58 v=64
83368 Off ch=13 n=54 v=64
84000 On ch=13 n=54 v=72
84000 On ch=13 n=58 v=72
84328 Off ch=13 n=58 v=64
84328 Off ch=13 n=54 v=64
84960 On ch=13 n=54 v=72
84960 On ch=13 n=58 v=72
85288 Off ch=13 n=58 v=64
85288 Off ch=13 n=54 v=64
85920 On ch=13 n=58 v=72
85920 On ch=13 n=54 v=72
86248 Off ch=13 n=54 v=64
86248 Off ch=13 n=58 v=64
86880 On ch=13 n=54 v=72
86880 On ch=13 n=58 v=72
87208 Off ch=13 n=58 v=64
87208 Off ch=13 n=54 v=64
87840 On ch=13 n=58 v=72
87840 On ch=13 n=54 v=72
88168 Off ch=13 n=54 v=64
88168 Off ch=13 n=58 v=64
88800 On ch=13 n=59 v=72
88800 On ch=13 n=54 v=72
89128 Off ch=13 n=54 v=64
89128 Off ch=13 n=59 v=64
89760 On ch=13 n=59 v=72
89760 On ch=13 n=54 v=72
90088 Off ch=13 n=54 v=64
90088 Off ch=13 n=59 v=64
90720 On ch=13 n=54 v=72
90720 On ch=13 n=59 v=72
91048 Off ch=13 n=59 v=64
91048 Off ch=13 n=54 v=64
91680 On ch=13 n=54 v=72
91680 On ch=13 n=59 v=72
92008 Off ch=13 n=59 v=64
92008 Off ch=13 n=54 v=64
92640 On ch=13 n=53 v=72
92640 On ch=13 n=56 v=72
92968 Off ch=13 n=56 v=64
92968 Off ch=13 n=53 v=64
93600 On ch=13 n=56 v=72
93600 On ch=13 n=53 v=72
93928 Off ch=13 n=53 v=64
93928 Off ch=13 n=56 v=64
94560 On ch=13 n=53 v=72
94560 On ch=13 n=56 v=72
94888 Off ch=13 n=56 v=64
94888 Off ch=13 n=53 v=64
95520 On ch=13 n=56 v=72
95520 On ch=13 n=53 v=72
95848 Off ch=13 n=53 v=64
95848 Off ch=13 n=56 v=64
96480 On ch=13 n=54 v=74
96480 On ch=13 n=58 v=74
96808 Off ch=13 n=58 v=64
96808 Off ch=13 n=54 v=64
97440 On ch=13 n=54 v=74
97440 On ch=13 n=58 v=74
97768 Off ch=13 n=58 v=64
97768 Off ch=13 n=54 v=64
98400 On ch=13 n=54 v=74
98400 On ch=13 n=58 v=74
98728 Off ch=13 n=58 v=64
98728 Off ch=13 n=54 v=64
99360 On ch=13 n=54 v=74
99360 On ch=13 n=58 v=74
99688 Off ch=13 n=58 v=64
99688 Off ch=13 n=54 v=64
100320 On ch=13 n=54 v=74
100320 On ch=13 n=58 v=74
100648 Off ch=13 n=58 v=64
100648 Off ch=13 n=54 v=64
101280 On ch=13 n=58 v=74
101280 On ch=13 n=54 v=74
101608 Off ch=13 n=54 v=64
101608 Off ch=13 n=58 v=64
102240 On ch=13 n=54 v=74
102240 On ch=13 n=58 v=74
102568 Off ch=13 n=58 v=64
102568 Off ch=13 n=54 v=64
103200 On ch=13 n=58 v=74
103200 On ch=13 n=54 v=74
103528 Off ch=13 n=54 v=64
103528 Off ch=13 n=58 v=64
104160 On ch=13 n=59 v=74
104160 On ch=13 n=54 v=74
104488 Off ch=13 n=54 v=64
104488 Off ch=13 n=59 v=64
105120 On ch=13 n=59 v=74
105120 On ch=13 n=54 v=74
105448 Off ch=13 n=54 v=64
105448 Off ch=13 n=59 v=64
106080 On ch=13 n=54 v=74
106080 On ch=13 n=59 v=74
106408 Off ch=13 n=59 v=64
106408 Off ch=13 n=54 v=64
107040 On ch=13 n=54 v=74
107040 On ch=13 n=59 v=74
107368 Off ch=13 n=59 v=64
107368 Off ch=13 n=54 v=64
108000 On ch=13 n=53 v=74
108000 On ch=13 n=56 v=74
108328 Off ch=13 n=56 v=64
108328 Off ch=13 n=53 v=64
108960 On ch=13 n=56 v=74
108960 On ch=13 n=53 v=74
109288 Off ch=13 n=53 v=64
109288 Off ch=13 n=56 v=64
109920 On ch=13 n=53 v=74
109920 On ch=13 n=56 v=74
110248 Off ch=13 n=56 v=64
110248 Off ch=13 n=53 v=64
110880 On ch=13 n=56 v=74
110880 On ch=13 n=53 v=74
111208 Off ch=13 n=53 v=64
111208 Off ch=13 n=56 v=64
111840 On ch=13 n=58 v=74
111840 On ch=13 n=54 v=74
112168 Off ch=13 n=54 v=64
112168 Off ch=13 n=58 v=64
112800 On ch=13 n=58 v=74
112800 On ch=13 n=54 v=74
113128 Off ch=13 n=54 v=64
113128 Off ch=13 n=58 v=64
113760 On ch=13 n=58 v=74
113760 On ch=13 n=54 v=74
114088 Off ch=13 n=54 v=64
114088 Off ch=13 n=58 v=64
114720 On ch=13 n=58 v=74
114720 On ch=13 n=54 v=74
115048 Off ch=13 n=54 v=64
115048 Off ch=13 n=58 v=64
115680 On ch=13 n=58 v=74
115680 On ch=13 n=54 v=74
116008 Off ch=13 n=54 v=64
116008 Off ch=13 n=58 v=64
116640 On ch=13 n=54 v=74
116640 On ch=13 n=58 v=74
116968 Off ch=13 n=58 v=64
116968 Off ch=13 n=54 v=64
117600 On ch=13 n=58 v=74
117600 On ch=13 n=54 v=74
117928 Off ch=13 n=54 v=64
117928 Off ch=13 n=58 v=64
118560 On ch=13 n=54 v=74
118560 On ch=13 n=58 v=74
118888 Off ch=13 n=58 v=64
118888 Off ch=13 n=54 v=64
119520 On ch=13 n=54 v=74
119520 On ch=13 n=59 v=74
119848 Off ch=13 n=59 v=64
119848 Off ch=13 n=54 v=64
120480 On ch=13 n=54 v=74
120480 On ch=13 n=59 v=74
120808 Off ch=13 n=59 v=64
120808 Off ch=13 n=54 v=64
121440 On ch=13 n=59 v=74
121440 On ch=13 n=54 v=74
121768 Off ch=13 n=54 v=64
121768 Off ch=13 n=59 v=64
122400 On ch=13 n=59 v=74
122400 On ch=13 n=54 v=74
122728 Off ch=13 n=54 v=64
122728 Off ch=13 n=59 v=64
123360 On ch=13 n=56 v=74
123360 On ch=13 n=53 v=74
123688 Off ch=13 n=53 v=64
123688 Off ch=13 n=56 v=64
124320 On ch=13 n=53 v=74
124320 On ch=13 n=56 v=74
124648 Off ch=13 n=56 v=64
124648 Off ch=13 n=53 v=64
125280 On ch=13 n=56 v=74
125280 On ch=13 n=53 v=74
125608 Off ch=13 n=53 v=64
125608 Off ch=13 n=56 v=64
126240 On ch=13 n=53 v=74
126240 On ch=13 n=56 v=74
126568 Off ch=13 n=56 v=64
126568 Off ch=13 n=53 v=64
127200 On ch=13 n=66 v=75
127200 On ch=13 n=59 v=75
127408 Off ch=13 n=59 v=64
127408 Off ch=13 n=66 v=64
128160 On ch=13 n=66 v=73
128160 On ch=13 n=59 v=73
128368 Off ch=13 n=59 v=64
128368 Off ch=13 n=66 v=64
129120 On ch=13 n=66 v=75
129120 On ch=13 n=59 v=75
129328 Off ch=13 n=59 v=64
129328 Off ch=13 n=66 v=64
130080 On ch=13 n=66 v=73
130080 On ch=13 n=59 v=73
130288 Off ch=13 n=59 v=64
130288 Off ch=13 n=66 v=64
131040 On ch=13 n=65 v=75
131040 On ch=13 n=56 v=73
131248 Off ch=13 n=56 v=64
131248 Off ch=13 n=65 v=64
132000 On ch=13 n=65 v=73
132000 On ch=13 n=56 v=69
132208 Off ch=13 n=56 v=64
132208 Off ch=13 n=65 v=64
132960 On ch=13 n=65 v=75
132960 On ch=13 n=56 v=73
133168 Off ch=13 n=56 v=64
133168 Off ch=13 n=65 v=64
133920 On ch=13 n=65 v=73
133920 On ch=13 n=56 v=71
134128 Off ch=13 n=56 v=64
134128 Off ch=13 n=65 v=64
134880 On ch=13 n=66 v=75
134880 On ch=13 n=58 v=75
135088 Off ch=13 n=58 v=64
135088 Off ch=13 n=66 v=64
135840 On ch=13 n=66 v=73
135840 On ch=13 n=58 v=73
136048 Off ch=13 n=58 v=64
136048 Off ch=13 n=66 v=64
136800 On ch=13 n=66 v=75
136800 On ch=13 n=58 v=75
137008 Off ch=13 n=58 v=64
137008 Off ch=13 n=66 v=64
137760 On ch=13 n=66 v=73
137760 On ch=13 n=58 v=73
137968 Off ch=13 n=58 v=64
137968 Off ch=13 n=66 v=64
138720 On ch=13 n=66 v=73
138720 On ch=13 n=58 v=73
138928 Off ch=13 n=58 v=64
138928 Off ch=13 n=66 v=64
139680 On ch=13 n=66 v=69
139680 On ch=13 n=58 v=69
139888 Off ch=13 n=58 v=64
139888 Off ch=13 n=66 v=64
140640 On ch=13 n=66 v=73
140640 On ch=13 n=58 v=73
140848 Off ch=13 n=58 v=64
140848 Off ch=13 n=66 v=64
141600 On ch=13 n=66 v=71
141600 On ch=13 n=58 v=71
141808 Off ch=13 n=58 v=64
141808 Off ch=13 n=66 v=64
142560 On ch=13 n=59 v=75
142560 On ch=13 n=66 v=75
142768 Off ch=13 n=66 v=64
142768 Off ch=13 n=59 v=64
143520 On ch=13 n=59 v=73
143520 On ch=13 n=66 v=73
143728 Off ch=13 n=66 v=64
143728 Off ch=13 n=59 v=64
144480 On ch=13 n=59 v=75
144480 On ch=13 n=66 v=75
144688 Off ch=13 n=66 v=64
144688 Off ch=13 n=59 v=64
145440 On ch=13 n=59 v=73
145440 On ch=13 n=66 v=73
145648 Off ch=13 n=66 v=64
145648 Off ch=13 n=59 v=64
146400 On ch=13 n=56 v=73
146400 On ch=13 n=65 v=75
146608 Off ch=13 n=65 v=64
146608 Off ch=13 n=56 v=64
147360 On ch=13 n=56 v=69
147360 On ch=13 n=65 v=73
147568 Off ch=13 n=65 v=64
147568 Off ch=13 n=56 v=64
148320 On ch=13 n=56 v=73
148320 On ch=13 n=65 v=75
148528 Off ch=13 n=65 v=64
148528 Off ch=13 n=56 v=64
149280 On ch=13 n=56 v=71
149280 On ch=13 n=65 v=73
149488 Off ch=13 n=65 v=64
149488 Off ch=13 n=56 v=64
150240 On ch=13 n=58 v=75
150240 On ch=13 n=66 v=75
150448 Off ch=13 n=66 v=64
150448 Off ch=13 n=58 v=64
151200 On ch=13 n=58 v=73
151200 On ch=13 n=66 v=73
151408 Off ch=13 n=66 v=64
151408 Off ch=13 n=58 v=64
152160 On ch=13 n=58 v=75
152160 On ch=13 n=66 v=75
152368 Off ch=13 n=66 v=64
152368 Off ch=13 n=58 v=64
153120 On ch=13 n=58 v=73
153120 On ch=13 n=66 v=73
153328 Off ch=13 n=66 v=64
153328 Off ch=13 n=58 v=64
154080 On ch=13 n=58 v=73
154080 On ch=13 n=66 v=73
154288 Off ch=13 n=66 v=64
154288 Off ch=13 n=58 v=64
155040 On ch=13 n=58 v=69
155040 On ch=13 n=66 v=69
155248 Off ch=13 n=66 v=64
155248 Off ch=13 n=58 v=64
156000 On ch=13 n=58 v=73
156000 On ch=13 n=66 v=73
156208 Off ch=13 n=66 v=64
156208 Off ch=13 n=58 v=64
156960 On ch=13 n=58 v=71
156960 On ch=13 n=66 v=71
157168 Off ch=13 n=66 v=64
157168 Off ch=13 n=58 v=64
157920 On ch=13 n=59 v=75
157920 On ch=13 n=66 v=75
158128 Off ch=13 n=66 v=64
158128 Off ch=13 n=59 v=64
158880 On ch=13 n=59 v=73
158880 On ch=13 n=66 v=73
159088 Off ch=13 n=66 v=64
159088 Off ch=13 n=59 v=64
159840 On ch=13 n=59 v=75
159840 On ch=13 n=66 v=75
160048 Off ch=13 n=66 v=64
160048 Off ch=13 n=59 v=64
160800 On ch=13 n=59 v=73
160800 On ch=13 n=66 v=73
161008 Off ch=13 n=66 v=64
161008 Off ch=13 n=59 v=64
161760 On ch=13 n=56 v=73
161760 On ch=13 n=65 v=75
161968 Off ch=13 n=65 v=64
161968 Off ch=13 n=56 v=64
162720 On ch=13 n=56 v=69
162720 On ch=13 n=65 v=73
162928 Off ch=13 n=65 v=64
162928 Off ch=13 n=56 v=64
163680 On ch=13 n=56 v=73
163680 On ch=13 n=65 v=75
163888 Off ch=13 n=65 v=64
163888 Off ch=13 n=56 v=64
164640 On ch=13 n=56 v=71
164640 On ch=13 n=65 v=73
164848 Off ch=13 n=65 v=64
164848 Off ch=13 n=56 v=64
165600 On ch=13 n=58 v=75
165600 On ch=13 n=66 v=75
165808 Off ch=13 n=66 v=64
165808 Off ch=13 n=58 v=64
166560 On ch=13 n=58 v=73
166560 On ch=13 n=66 v=73
166768 Off ch=13 n=66 v=64
166768 Off ch=13 n=58 v=64
167520 On ch=13 n=58 v=75
167520 On ch=13 n=66 v=75
167728 Off ch=13 n=66 v=64
167728 Off ch=13 n=58 v=64
168480 On ch=13 n=58 v=73
168480 On ch=13 n=66 v=73
168688 Off ch=13 n=66 v=64
168688 Off ch=13 n=58 v=64
169440 On ch=13 n=58 v=73
169440 On ch=13 n=66 v=73
169648 Off ch=13 n=66 v=64
169648 Off ch=13 n=58 v=64
170400 On ch=13 n=58 v=69
170400 On ch=13 n=66 v=69
170608 Off ch=13 n=66 v=64
170608 Off ch=13 n=58 v=64
171360 On ch=13 n=58 v=73
171360 On ch=13 n=66 v=73
171568 Off ch=13 n=66 v=64
171568 Off ch=13 n=58 v=64
172320 On ch=13 n=58 v=71
172320 On ch=13 n=66 v=71
172528 Off ch=13 n=66 v=64
172528 Off ch=13 n=58 v=64
173280 On ch=13 n=66 v=75
173280 On ch=13 n=59 v=75
173488 Off ch=13 n=59 v=64
173488 Off ch=13 n=66 v=64
174240 On ch=13 n=66 v=73
174240 On ch=13 n=59 v=73
174448 Off ch=13 n=59 v=64
174448 Off ch=13 n=66 v=64
175200 On ch=13 n=66 v=75
175200 On ch=13 n=59 v=75
175408 Off ch=13 n=59 v=64
175408 Off ch=13 n=66 v=64
176160 On ch=13 n=66 v=73
176160 On ch=13 n=59 v=73
176368 Off ch=13 n=59 v=64
176368 Off ch=13 n=66 v=64
177120 On ch=13 n=65 v=75
177120 On ch=13 n=56 v=73
177328 Off ch=13 n=56 v=64
177328 Off ch=13 n=65 v=64
178080 On ch=13 n=65 v=73
178080 On ch=13 n=56 v=69
178288 Off ch=13 n=56 v=64
178288 Off ch=13 n=65 v=64
179040 On ch=13 n=65 v=75
179040 On ch=13 n=56 v=73
179248 Off ch=13 n=56 v=64
179248 Off ch=13 n=65 v=64
180000 On ch=13 n=65 v=73
180000 On ch=13 n=56 v=71
180208 Off ch=13 n=56 v=64
180208 Off ch=13 n=65 v=64
180960 On ch=13 n=66 v=75
180960 On ch=13 n=58 v=75
181168 Off ch=13 n=58 v=64
181168 Off ch=13 n=66 v=64
181920 On ch=13 n=66 v=73
181920 On ch=13 n=58 v=73
182128 Off ch=13 n=58 v=64
182128 Off ch=13 n=66 v=64
182880 On ch=13 n=66 v=75
182880 On ch=13 n=58 v=75
183088 Off ch=13 n=58 v=64
183088 Off ch=13 n=66 v=64
183840 On ch=13 n=66 v=73
183840 On ch=13 n=58 v=73
184048 Off ch=13 n=58 v=64
184048 Off ch=13 n=66 v=64
184800 On ch=13 n=66 v=73
184800 On ch=13 n=58 v=73
185008 Off ch=13 n=58 v=64
185008 Off ch=13 n=66 v=64
185760 On ch=13 n=66 v=69
185760 On ch=13 n=58 v=69
185968 Off ch=13 n=58 v=64
185968 Off ch=13 n=66 v=64
250080 On ch=13 n=54 v=73
250080 On ch=13 n=58 v=73
250408 Off ch=13 n=58 v=64
250408 Off ch=13 n=54 v=64
251040 On ch=13 n=54 v=73
251040 On ch=13 n=58 v=73
251368 Off ch=13 n=58 v=64
251368 Off ch=13 n=54 v=64
252000 On ch=13 n=54 v=73
252000 On ch=13 n=58 v=73
252328 Off ch=13 n=58 v=64
252328 Off ch=13 n=54 v=64
252960 On ch=13 n=54 v=73
252960 On ch=13 n=58 v=73
253288 Off ch=13 n=58 v=64
253288 Off ch=13 n=54 v=64
253920 On ch=13 n=54 v=73
253920 On ch=13 n=58 v=73
254248 Off ch=13 n=58 v=64
254248 Off ch=13 n=54 v=64
254880 On ch=13 n=58 v=73
254880 On ch=13 n=54 v=73
255208 Off ch=13 n=54 v=64
255208 Off ch=13 n=58 v=64
255840 On ch=13 n=54 v=73
255840 On ch=13 n=58 v=73
256168 Off ch=13 n=58 v=64
256168 Off ch=13 n=54 v=64
256800 On ch=13 n=58 v=73
256800 On ch=13 n=54 v=73
257128 Off ch=13 n=54 v=64
257128 Off ch=13 n=58 v=64
257760 On ch=13 n=59 v=73
257760 On ch=13 n=54 v=73
258088 Off ch=13 n=54 v=64
258088 Off ch=13 n=59 v=64
258720 On ch=13 n=59 v=73
258720 On ch=13 n=54 v=73
259048 Off ch=13 n=54 v=64
259048 Off ch=13 n=59 v=64
259680 On ch=13 n=54 v=73
259680 On ch=13 n=59 v=73
260008 Off ch=13 n=59 v=64
260008 Off ch=13 n=54 v=64
260640 On ch=13 n=54 v=73
260640 On ch=13 n=59 v=73
260968 Off ch=13 n=59 v=64
260968 Off ch=13 n=54 v=64
261600 On ch=13 n=53 v=73
261600 On ch=13 n=56 v=73
261928 Off ch=13 n=56 v=64
261928 Off ch=13 n=53 v=64
262560 On ch=13 n=56 v=74
262560 On ch=13 n=53 v=74
262888 Off ch=13 n=53 v=64
262888 Off ch=13 n=56 v=64
263520 On ch=13 n=53 v=74
263520 On ch=13 n=56 v=74
263848 Off ch=13 n=56 v=64
263848 Off ch=13 n=53 v=64
264480 On ch=13 n=56 v=74
264480 On ch=13 n=53 v=74
264808 Off ch=13 n=53 v=64
264808 Off ch=13 n=56 v=64
265440 On ch=13 n=58 v=74
265440 On ch=13 n=54 v=74
265768 Off ch=13 n=54 v=64
265768 Off ch=13 n=58 v=64
266400 On ch=13 n=58 v=74
266400 On ch=13 n=54 v=74
266728 Off ch=13 n=54 v=64
266728 Off ch=13 n=58 v=64
267360 On ch=13 n=58 v=75
267360 On ch=13 n=54 v=75
267688 Off ch=13 n=54 v=64
267688 Off ch=13 n=58 v=64
268320 On ch=13 n=58 v=75
268320 On ch=13 n=54 v=75
268648 Off ch=13 n=54 v=64
268648 Off ch=13 n=58 v=64
269280 On ch=13 n=58 v=75
269280 On ch=13 n=54 v=75
269608 Off ch=13 n=54 v=64
269608 Off ch=13 n=58 v=64
270240 On ch=13 n=54 v=75
270240 On ch=13 n=58 v=75
270568 Off ch=13 n=58 v=64
270568 Off ch=13 n=54 v=64
271200 On ch=13 n=58 v=75
271200 On ch=13 n=54 v=75
271528 Off ch=13 n=54 v=64
271528 Off ch=13 n=58 v=64
272160 On ch=13 n=54 v=76
272160 On ch=13 n=58 v=76
272488 Off ch=13 n=58 v=64
272488 Off ch=13 n=54 v=64
273120 On ch=13 n=54 v=76
273120 On ch=13 n=59 v=76
273448 Off ch=13 n=59 v=64
273448 Off ch=13 n=54 v=64
274080 On ch=13 n=54 v=76
274080 On ch=13 n=59 v=76
274408 Off ch=13 n=59 v=64
274408 Off ch=13 n=54 v=64
275040 On ch=13 n=59 v=77
275040 On ch=13 n=54 v=77
275368 Off ch=13 n=54 v=64
275368 Off ch=13 n=59 v=64
276000 On ch=13 n=59 v=77
276000 On ch=13 n=54 v=77
276328 Off ch=13 n=54 v=64
276328 Off ch=13 n=59 v=64
276960 On ch=13 n=56 v=77
276960 On ch=13 n=53 v=77
277288 Off ch=13 n=53 v=64
277288 Off ch=13 n=56 v=64
277920 On ch=13 n=53 v=78
277920 On ch=13 n=56 v=78
278248 Off ch=13 n=56 v=64
278248 Off ch=13 n=53 v=64
278880 On ch=13 n=56 v=78
278880 On ch=13 n=53 v=78
279208 Off ch=13 n=53 v=64
279208 Off ch=13 n=56 v=64
279840 On ch=13 n=53 v=78
279840 On ch=13 n=56 v=78
280168 Off ch=13 n=56 v=64
280168 Off ch=13 n=53 v=64
280800 On ch=13 n=58 v=79
280800 On ch=13 n=66 v=79
281128 Off ch=13 n=66 v=64
281128 Off ch=13 n=58 v=64
281760 On ch=13 n=58 v=79
281760 On ch=13 n=66 v=79
282088 Off ch=13 n=66 v=64
282088 Off ch=13 n=58 v=64
282720 On ch=13 n=58 v=79
282720 On ch=13 n=66 v=79
283048 Off ch=13 n=66 v=64
283048 Off ch=13 n=58 v=64
283680 On ch=13 n=58 v=79
283680 On ch=13 n=66 v=79
284008 Off ch=13 n=66 v=64
284008 Off ch=13 n=58 v=64
284640 On ch=13 n=58 v=79
284640 On ch=13 n=66 v=79
284968 Off ch=13 n=66 v=64
284968 Off ch=13 n=58 v=64
285600 On ch=13 n=66 v=79
285600 On ch=13 n=58 v=79
285928 Off ch=13 n=58 v=64
285928 Off ch=13 n=66 v=64
286560 On ch=13 n=58 v=79
286560 On ch=13 n=66 v=79
286888 Off ch=13 n=66 v=64
286888 Off ch=13 n=58 v=64
287520 On ch=13 n=66 v=79
287520 On ch=13 n=58 v=79
287848 Off ch=13 n=58 v=64
287848 Off ch=13 n=66 v=64
288480 On ch=13 n=66 v=79
288480 On ch=13 n=59 v=79
288808 Off ch=13 n=59 v=64
288808 Off ch=13 n=66 v=64
289440 On ch=13 n=66 v=79
289440 On ch=13 n=59 v=79
289768 Off ch=13 n=59 v=64
289768 Off ch=13 n=66 v=64
290400 On ch=13 n=59 v=79
290400 On ch=13 n=66 v=79
290728 Off ch=13 n=66 v=64
290728 Off ch=13 n=59 v=64
291360 On ch=13 n=59 v=79
291360 On ch=13 n=66 v=79
291688 Off ch=13 n=66 v=64
291688 Off ch=13 n=59 v=64
292320 On ch=13 n=56 v=79
292320 On ch=13 n=65 v=79
292648 Off ch=13 n=65 v=64
292648 Off ch=13 n=56 v=64
293280 On ch=13 n=65 v=79
293280 On ch=13 n=56 v=79
293608 Off ch=13 n=56 v=64
293608 Off ch=13 n=65 v=64
294240 On ch=13 n=56 v=80
294240 On ch=13 n=65 v=80
294568 Off ch=13 n=65 v=64
294568 Off ch=13 n=56 v=64
295200 On ch=13 n=65 v=80
295200 On ch=13 n=56 v=80
295528 Off ch=13 n=56 v=64
295528 Off ch=13 n=65 v=64
296160 On ch=13 n=66 v=80
296160 On ch=13 n=58 v=80
296488 Off ch=13 n=58 v=64
296488 Off ch=13 n=66 v=64
297120 On ch=13 n=66 v=80
297120 On ch=13 n=58 v=80
297448 Off ch=13 n=58 v=64
297448 Off ch=13 n=66 v=64
298080 On ch=13 n=66 v=80
298080 On ch=13 n=58 v=80
298408 Off ch=13 n=58 v=64
298408 Off ch=13 n=66 v=64
299040 On ch=13 n=66 v=80
299040 On ch=13 n=58 v=80
299368 Off ch=13 n=58 v=64
299368 Off ch=13 n=66 v=64
300000 On ch=13 n=66 v=81
300000 On ch=13 n=58 v=81
300328 Off ch=13 n=58 v=64
300328 Off ch=13 n=66 v=64
300960 On ch=13 n=58 v=81
300960 On ch=13 n=66 v=81
301288 Off ch=13 n=66 v=64
301288 Off ch=13 n=58 v=64
301920 On ch=13 n=66 v=81
301920 On ch=13 n=58 v=81
302248 Off ch=13 n=58 v=64
302248 Off ch=13 n=66 v=64
302880 On ch=13 n=58 v=81
302880 On ch=13 n=66 v=81
303208 Off ch=13 n=66 v=64
303208 Off ch=13 n=58 v=64
303840 On ch=13 n=59 v=81
303840 On ch=13 n=66 v=81
304168 Off ch=13 n=66 v=64
304168 Off ch=13 n=59 v=64
304800 On ch=13 n=59 v=82
304800 On ch=13 n=66 v=82
305128 Off ch=13 n=66 v=64
305128 Off ch=13 n=59 v=64
305760 On ch=13 n=66 v=82
305760 On ch=13 n=59 v=82
306088 Off ch=13 n=59 v=64
306088 Off ch=13 n=66 v=64
306720 On ch=13 n=66 v=82
306720 On ch=13 n=59 v=82
307048 Off ch=13 n=59 v=64
307048 Off ch=13 n=66 v=64
307680 On ch=13 n=65 v=83
307680 On ch=13 n=56 v=83
308008 Off ch=13 n=56 v=64
308008 Off ch=13 n=65 v=64
308640 On ch=13 n=56 v=83
308640 On ch=13 n=65 v=83
308968 Off ch=13 n=65 v=64
308968 Off ch=13 n=56 v=64
309600 On ch=13 n=65 v=83
309600 On ch=13 n=56 v=83
309928 Off ch=13 n=56 v=64
309928 Off ch=13 n=65 v=64
310560 On ch=13 n=56 v=83
310560 On ch=13 n=65 v=83
310888 Off ch=13 n=65 v=64
310888 Off ch=13 n=56 v=64
311040 On ch=13 n=63 v=71
311040 On ch=13 n=66 v=71
311280 Off ch=13 n=66 v=64
311280 Off ch=13 n=63 v=64
311520 On ch=13 n=63 v=64
311520 On ch=13 n=66 v=64
311760 Off ch=13 n=66 v=64
311760 Off ch=13 n=63 v=64
312000 On ch=13 n=63 v=71
312000 On ch=13 n=66 v=71
312240 Off ch=13 n=66 v=64
312240 Off ch=13 n=63 v=64
312480 On ch=13 n=63 v=65
312480 On ch=13 n=66 v=65
312720 Off ch=13 n=66 v=64
312720 Off ch=13 n=63 v=64
312960 On ch=13 n=63 v=72
312960 On ch=13 n=66 v=72
313200 Off ch=13 n=66 v=64
313200 Off ch=13 n=63 v=64
313440 On ch=13 n=63 v=65
313440 On ch=13 n=66 v=65
313680 Off ch=13 n=66 v=64
313680 Off ch=13 n=63 v=64
313920 On ch=13 n=63 v=73
313920 On ch=13 n=66 v=73
314160 Off ch=13 n=66 v=64
314160 Off ch=13 n=63 v=64
314400 On ch=13 n=63 v=67
314400 On ch=13 n=66 v=67
314640 Off ch=13 n=66 v=64
314640 Off ch=13 n=63 v=64
314880 On ch=13 n=61 v=71
314880 On ch=13 n=65 v=71
315120 Off ch=13 n=65 v=64
315120 Off ch=13 n=61 v=64
315360 On ch=13 n=61 v=64
315360 On ch=13 n=65 v=64
315600 Off ch=13 n=65 v=64
315600 Off ch=13 n=61 v=64
315840 On ch=13 n=61 v=71
315840 On ch=13 n=65 v=71
316080 Off ch=13 n=65 v=64
316080 Off ch=13 n=61 v=64
316320 On ch=13 n=61 v=65
316320 On ch=13 n=65 v=65
316560 Off ch=13 n=65 v=64
316560 Off ch=13 n=61 v=64
316800 On ch=13 n=61 v=72
316800 On ch=13 n=65 v=72
317040 Off ch=13 n=65 v=64
317040 Off ch=13 n=61 v=64
317280 On ch=13 n=61 v=65
317280 On ch=13 n=65 v=65
317520 Off ch=13 n=65 v=64
317520 Off ch=13 n=61 v=64
317760 On ch=13 n=61 v=73
317760 On ch=13 n=65 v=73
318000 Off ch=13 n=65 v=64
318000 Off ch=13 n=61 v=64
318240 On ch=13 n=61 v=67
318240 On ch=13 n=65 v=67
318480 Off ch=13 n=65 v=64
318480 Off ch=13 n=61 v=64
318720 On ch=13 n=63 v=71
318720 On ch=13 n=66 v=71
318960 Off ch=13 n=66 v=64
318960 Off ch=13 n=63 v=64
319200 On ch=13 n=63 v=64
319200 On ch=13 n=66 v=64
319440 Off ch=13 n=66 v=64
319440 Off ch=13 n=63 v=64
319680 On ch=13 n=63 v=71
319680 On ch=13 n=66 v=71
319920 Off ch=13 n=66 v=64
319920 Off ch=13 n=63 v=64
320160 On ch=13 n=63 v=65
320160 On ch=13 n=66 v=65
320400 Off ch=13 n=66 v=64
320400 Off ch=13 n=63 v=64
320640 On ch=13 n=63 v=72
320640 On ch=13 n=66 v=72
320880 Off ch=13 n=66 v=64
320880 Off ch=13 n=63 v=64
321120 On ch=13 n=63 v=65
321120 On ch=13 n=66 v=65
321360 Off ch=13 n=66 v=64
321360 Off ch=13 n=63 v=64
321600 On ch=13 n=63 v=73
321600 On ch=13 n=66 v=73
321840 Off ch=13 n=66 v=64
321840 Off ch=13 n=63 v=64
322080 On ch=13 n=63 v=67
322080 On ch=13 n=66 v=67
322320 Off ch=13 n=66 v=64
322320 Off ch=13 n=63 v=64
322560 On ch=13 n=63 v=71
322560 On ch=13 n=66 v=71
322800 Off ch=13 n=66 v=64
322800 Off ch=13 n=63 v=64
323040 On ch=13 n=63 v=64
323040 On ch=13 n=66 v=64
323280 Off ch=13 n=66 v=64
323280 Off ch=13 n=63 v=64
323520 On ch=13 n=63 v=71
323520 On ch=13 n=66 v=71
323760 Off ch=13 n=66 v=64
323760 Off ch=13 n=63 v=64
324000 On ch=13 n=63 v=65
324000 On ch=13 n=66 v=65
324240 Off ch=13 n=66 v=64
324240 Off ch=13 n=63 v=64
324480 On ch=13 n=63 v=72
324480 On ch=13 n=66 v=72
324720 Off ch=13 n=66 v=64
324720 Off ch=13 n=63 v=64
324960 On ch=13 n=63 v=65
324960 On ch=13 n=66 v=65
325200 Off ch=13 n=66 v=64
325200 Off ch=13 n=63 v=64
325440 On ch=13 n=63 v=73
325440 On ch=13 n=66 v=73
325680 Off ch=13 n=66 v=64
325680 Off ch=13 n=63 v=64
325920 On ch=13 n=63 v=67
325920 On ch=13 n=66 v=67
326160 Off ch=13 n=66 v=64
326160 Off ch=13 n=63 v=64
326400 On ch=13 n=66 v=71
326400 On ch=13 n=63 v=71
326640 Off ch=13 n=63 v=64
326640 Off ch=13 n=66 v=64
326880 On ch=13 n=66 v=64
326880 On ch=13 n=63 v=64
327120 Off ch=13 n=63 v=64
327120 Off ch=13 n=66 v=64
327360 On ch=13 n=66 v=71
327360 On ch=13 n=63 v=71
327600 Off ch=13 n=63 v=64
327600 Off ch=13 n=66 v=64
327840 On ch=13 n=66 v=65
327840 On ch=13 n=63 v=65
328080 Off ch=13 n=63 v=64
328080 Off ch=13 n=66 v=64
328320 On ch=13 n=66 v=72
328320 On ch=13 n=63 v=72
328560 Off ch=13 n=63 v=64
328560 Off ch=13 n=66 v=64
328800 On ch=13 n=66 v=65
328800 On ch=13 n=63 v=65
329040 Off ch=13 n=63 v=64
329040 Off ch=13 n=66 v=64
329280 On ch=13 n=66 v=73
329280 On ch=13 n=63 v=73
329520 Off ch=13 n=63 v=64
329520 Off ch=13 n=66 v=64
329760 On ch=13 n=66 v=67
329760 On ch=13 n=63 v=67
330000 Off ch=13 n=63 v=64
330000 Off ch=13 n=66 v=64
330240 On ch=13 n=65 v=71
330240 On ch=13 n=61 v=71
330480 Off ch=13 n=61 v=64
330480 Off ch=13 n=65 v=64
330720 On ch=13 n=65 v=64
330720 On ch=13 n=61 v=64
330960 Off ch=13 n=61 v=64
330960 Off ch=13 n=65 v=64
331200 On ch=13 n=65 v=71
331200 On ch=13 n=61 v=71
331440 Off ch=13 n=61 v=64
331440 Off ch=13 n=65 v=64
331680 On ch=13 n=65 v=65
331680 On ch=13 n=61 v=65
331920 Off ch=13 n=61 v=64
331920 Off ch=13 n=65 v=64
332160 On ch=13 n=65 v=72
332160 On ch=13 n=61 v=72
332400 Off ch=13 n=61 v=64
332400 Off ch=13 n=65 v=64
332640 On ch=13 n=65 v=65
332640 On ch=13 n=61 v=65
332880 Off ch=13 n=61 v=64
332880 Off ch=13 n=65 v=64
333120 On ch=13 n=65 v=73
333120 On ch=13 n=61 v=73
333360 Off ch=13 n=61 v=64
333360 Off ch=13 n=65 v=64
333600 On ch=13 n=65 v=67
333600 On ch=13 n=61 v=67
333840 Off ch=13 n=61 v=64
333840 Off ch=13 n=65 v=64
334080 On ch=13 n=66 v=71
334080 On ch=13 n=63 v=71
334320 Off ch=13 n=63 v=64
334320 Off ch=13 n=66 v=64
334560 On ch=13 n=66 v=64
334560 On ch=13 n=63 v=64
334800 Off ch=13 n=63 v=64
334800 Off ch=13 n=66 v=64
335040 On ch=13 n=66 v=71
335040 On ch=13 n=63 v=71
335280 Off ch=13 n=63 v=64
335280 Off ch=13 n=66 v=64
335520 On ch=13 n=66 v=65
335520 On ch=13 n=63 v=65
335760 Off ch=13 n=63 v=64
335760 Off ch=13 n=66 v=64
336000 On ch=13 n=66 v=72
336000 On ch=13 n=63 v=72
336240 Off ch=13 n=63 v=64
336240 Off ch=13 n=66 v=64
336480 On ch=13 n=66 v=65
336480 On ch=13 n=63 v=65
336720 Off ch=13 n=63 v=64
336720 Off ch=13 n=66 v=64
336960 On ch=13 n=66 v=73
336960 On ch=13 n=63 v=73
337200 Off ch=13 n=63 v=64
337200 Off ch=13 n=66 v=64
337440 On ch=13 n=66 v=67
337440 On ch=13 n=63 v=67
337680 Off ch=13 n=63 v=64
337680 Off ch=13 n=66 v=64
337920 On ch=13 n=66 v=71
337920 On ch=13 n=63 v=71
338160 Off ch=13 n=63 v=64
338160 Off ch=13 n=66 v=64
338400 On ch=13 n=66 v=64
338400 On ch=13 n=63 v=64
338640 Off ch=13 n=63 v=64
338640 Off ch=13 n=66 v=64
338880 On ch=13 n=66 v=71
338880 On ch=13 n=63 v=71
339120 Off ch=13 n=63 v=64
339120 Off ch=13 n=66 v=64
339360 On ch=13 n=66 v=65
339360 On ch=13 n=63 v=65
339600 Off ch=13 n=63 v=64
339600 Off ch=13 n=66 v=64
339840 On ch=13 n=66 v=72
339840 On ch=13 n=63 v=72
340080 Off ch=13 n=63 v=64
340080 Off ch=13 n=66 v=64
340320 On ch=13 n=66 v=65
340320 On ch=13 n=63 v=65
340560 Off ch=13 n=63 v=64
340560 Off ch=13 n=66 v=64
340800 On ch=13 n=66 v=73
340800 On ch=13 n=63 v=73
341040 Off ch=13 n=63 v=64
341040 Off ch=13 n=66 v=64
341280 On ch=13 n=66 v=67
341280 On ch=13 n=63 v=67
341520 Off ch=13 n=63 v=64
341520 Off ch=13 n=66 v=64
341760 On ch=13 n=63 v=71
341760 On ch=13 n=66 v=71
342000 Off ch=13 n=66 v=64
342000 Off ch=13 n=63 v=64
342240 On ch=13 n=63 v=64
342240 On ch=13 n=66 v=64
342480 Off ch=13 n=66 v=64
342480 Off ch=13 n=63 v=64
342720 On ch=13 n=63 v=71
342720 On ch=13 n=66 v=71
342960 Off ch=13 n=66 v=64
342960 Off ch=13 n=63 v=64
343200 On ch=13 n=63 v=65
343200 On ch=13 n=66 v=65
343440 Off ch=13 n=66 v=64
343440 Off ch=13 n=63 v=64
343680 On ch=13 n=63 v=72
343680 On ch=13 n=66 v=72
343920 Off ch=13 n=66 v=64
343920 Off ch=13 n=63 v=64
344160 On ch=13 n=63 v=65
344160 On ch=13 n=66 v=65
344400 Off ch=13 n=66 v=64
344400 Off ch=13 n=63 v=64
344640 On ch=13 n=63 v=73
344640 On ch=13 n=66 v=73
344880 Off ch=13 n=66 v=64
344880 Off ch=13 n=63 v=64
345120 On ch=13 n=63 v=67
345120 On ch=13 n=66 v=67
345360 Off ch=13 n=66 v=64
345360 Off ch=13 n=63 v=64
345600 On ch=13 n=61 v=71
345600 On ch=13 n=65 v=71
345840 Off ch=13 n=65 v=64
345840 Off ch=13 n=61 v=64
346080 On ch=13 n=61 v=64
346080 On ch=13 n=65 v=64
346320 Off ch=13 n=65 v=64
346320 Off ch=13 n=61 v=64
346560 On ch=13 n=61 v=71
346560 On ch=13 n=65 v=71
346800 Off ch=13 n=65 v=64
346800 Off ch=13 n=61 v=64
347040 On ch=13 n=61 v=65
347040 On ch=13 n=65 v=65
347280 Off ch=13 n=65 v=64
347280 Off ch=13 n=61 v=64
347520 On ch=13 n=61 v=72
347520 On ch=13 n=65 v=72
347760 Off ch=13 n=65 v=64
347760 Off ch=13 n=61 v=64
348000 On ch=13 n=61 v=65
348000 On ch=13 n=65 v=65
348240 Off ch=13 n=65 v=64
348240 Off ch=13 n=61 v=64
348480 On ch=13 n=61 v=73
348480 On ch=13 n=65 v=73
348720 Off ch=13 n=65 v=64
348720 Off ch=13 n=61 v=64
348960 On ch=13 n=61 v=67
348960 On ch=13 n=65 v=67
349200 Off ch=13 n=65 v=64
349200 Off ch=13 n=61 v=64
349440 On ch=13 n=63 v=71
349440 On ch=13 n=66 v=71
349680 Off ch=13 n=66 v=64
349680 Off ch=13 n=63 v=64
349920 On ch=13 n=63 v=64
349920 On ch=13 n=66 v=64
350160 Off ch=13 n=66 v=64
350160 Off ch=13 n=63 v=64
350400 On ch=13 n=63 v=71
350400 On ch=13 n=66 v=71
350640 Off ch=13 n=66 v=64
350640 Off ch=13 n=63 v=64
350880 On ch=13 n=63 v=65
350880 On ch=13 n=66 v=65
351120 Off ch=13 n=66 v=64
351120 Off ch=13 n=63 v=64
351360 On ch=13 n=63 v=72
351360 On ch=13 n=66 v=72
351600 Off ch=13 n=66 v=64
351600 Off ch=13 n=63 v=64
351840 On ch=13 n=63 v=65
351840 On ch=13 n=66 v=65
352080 Off ch=13 n=66 v=64
352080 Off ch=13 n=63 v=64
352320 On ch=13 n=63 v=73
352320 On ch=13 n=66 v=73
352560 Off ch=13 n=66 v=64
352560 Off ch=13 n=63 v=64
352800 On ch=13 n=63 v=67
352800 On ch=13 n=66 v=67
353040 Off ch=13 n=66 v=64
353040 Off ch=13 n=63 v=64
353280 On ch=13 n=63 v=71
353280 On ch=13 n=66 v=71
353520 Off ch=13 n=66 v=64
353520 Off ch=13 n=63 v=64
353760 On ch=13 n=63 v=64
353760 On ch=13 n=66 v=64
354000 Off ch=13 n=66 v=64
354000 Off ch=13 n=63 v=64
354240 On ch=13 n=63 v=71
354240 On ch=13 n=66 v=71
354480 Off ch=13 n=66 v=64
354480 Off ch=13 n=63 v=64
354720 On ch=13 n=63 v=65
354720 On ch=13 n=66 v=65
354960 Off ch=13 n=66 v=64
354960 Off ch=13 n=63 v=64
355200 On ch=13 n=63 v=72
355200 On ch=13 n=66 v=72
355440 Off ch=13 n=66 v=64
355440 Off ch=13 n=63 v=64
355680 On ch=13 n=63 v=65
355680 On ch=13 n=66 v=65
355920 Off ch=13 n=66 v=64
355920 Off ch=13 n=63 v=64
356160 On ch=13 n=63 v=73
356160 On ch=13 n=66 v=73
356400 Off ch=13 n=66 v=64
356400 Off ch=13 n=63 v=64
356640 On ch=13 n=63 v=67
356640 On ch=13 n=66 v=67
356880 Off ch=13 n=66 v=64
356880 Off ch=13 n=63 v=64
357120 On ch=13 n=66 v=71
357120 On ch=13 n=63 v=71
357360 Off ch=13 n=63 v=64
357360 Off ch=13 n=66 v=64
357600 On ch=13 n=66 v=64
357600 On ch=13 n=63 v=64
357840 Off ch=13 n=63 v=64
357840 Off ch=13 n=66 v=64
358080 On ch=13 n=66 v=71
358080 On ch=13 n=63 v=71
358320 Off ch=13 n=63 v=64
358320 Off ch=13 n=66 v=64
358560 On ch=13 n=66 v=65
358560 On ch=13 n=63 v=65
358800 Off ch=13 n=63 v=64
358800 Off ch=13 n=66 v=64
359040 On ch=13 n=66 v=72
359040 On ch=13 n=63 v=72
359280 Off ch=13 n=63 v=64
359280 Off ch=13 n=66 v=64
359520 On ch=13 n=66 v=65
359520 On ch=13 n=63 v=65
359760 Off ch=13 n=63 v=64
359760 Off ch=13 n=66 v=64
360000 On ch=13 n=66 v=73
360000 On ch=13 n=63 v=73
360240 Off ch=13 n=63 v=64
360240 Off ch=13 n=66 v=64
360480 On ch=13 n=66 v=67
360480 On ch=13 n=63 v=67
360720 Off ch=13 n=63 v=64
360720 Off ch=13 n=66 v=64
360960 On ch=13 n=65 v=71
360960 On ch=13 n=61 v=71
361200 Off ch=13 n=61 v=64
361200 Off ch=13 n=65 v=64
361440 On ch=13 n=65 v=64
361440 On ch=13 n=61 v=64
361680 Off ch=13 n=61 v=64
361680 Off ch=13 n=65 v=64
361920 On ch=13 n=65 v=71
361920 On ch=13 n=61 v=71
362160 Off ch=13 n=61 v=64
362160 Off ch=13 n=65 v=64
362400 On ch=13 n=65 v=65
362400 On ch=13 n=61 v=65
362640 Off ch=13 n=61 v=64
362640 Off ch=13 n=65 v=64
362880 On ch=13 n=65 v=72
362880 On ch=13 n=61 v=72
363120 Off ch=13 n=61 v=64
363120 Off ch=13 n=65 v=64
363360 On ch=13 n=65 v=65
363360 On ch=13 n=61 v=65
363600 Off ch=13 n=61 v=64
363600 Off ch=13 n=65 v=64
363840 On ch=13 n=65 v=73
363840 On ch=13 n=61 v=73
364080 Off ch=13 n=61 v=64
364080 Off ch=13 n=65 v=64
364320 On ch=13 n=65 v=67
364320 On ch=13 n=61 v=67
364560 Off ch=13 n=61 v=64
364560 Off ch=13 n=65 v=64
364800 On ch=13 n=66 v=71
364800 On ch=13 n=63 v=71
365040 Off ch=13 n=63 v=64
365040 Off ch=13 n=66 v=64
365280 On ch=13 n=66 v=64
365280 On ch=13 n=63 v=64
365520 Off ch=13 n=63 v=64
365520 Off ch=13 n=66 v=64
365760 On ch=13 n=66 v=71
365760 On ch=13 n=63 v=71
366000 Off ch=13 n=63 v=64
366000 Off ch=13 n=66 v=64
366240 On ch=13 n=66 v=65
366240 On ch=13 n=63 v=65
366480 Off ch=13 n=63 v=64
366480 Off ch=13 n=66 v=64
366720 On ch=13 n=66 v=72
366720 On ch=13 n=63 v=72
366960 Off ch=13 n=63 v=64
366960 Off ch=13 n=66 v=64
367200 On ch=13 n=66 v=65
367200 On ch=13 n=63 v=65
367440 Off ch=13 n=63 v=64
367440 Off ch=13 n=66 v=64
367680 On ch=13 n=66 v=73
367680 On ch=13 n=63 v=73
367920 Off ch=13 n=63 v=64
367920 Off ch=13 n=66 v=64
368160 On ch=13 n=66 v=67
368160 On ch=13 n=63 v=67
368400 Off ch=13 n=63 v=64
368400 Off ch=13 n=66 v=64
368640 On ch=13 n=66 v=71
368640 On ch=13 n=63 v=71
368880 Off ch=13 n=63 v=64
368880 Off ch=13 n=66 v=64
369120 On ch=13 n=66 v=64
369120 On ch=13 n=63 v=64
369360 Off ch=13 n=63 v=64
369360 Off ch=13 n=66 v=64
369600 On ch=13 n=66 v=71
369600 On ch=13 n=63 v=71
369840 Off ch=13 n=63 v=64
369840 Off ch=13 n=66 v=64
370080 On ch=13 n=66 v=65
370080 On ch=13 n=63 v=65
370320 Off ch=13 n=63 v=64
370320 Off ch=13 n=66 v=64
370560 On ch=13 n=66 v=72
370560 On ch=13 n=63 v=72
370800 Off ch=13 n=63 v=64
370800 Off ch=13 n=66 v=64
402240 On ch=13 n=59 v=72
402500 Off ch=13 n=59 v=64
402720 On ch=13 n=62 v=72
402980 Off ch=13 n=62 v=64
403200 On ch=13 n=62 v=72
403680 On ch=13 n=64 v=72
403700 Off ch=13 n=62 v=64
403940 Off ch=13 n=64 v=64
404160 On ch=13 n=59 v=72
404420 Off ch=13 n=59 v=64
404640 On ch=13 n=57 v=72
404900 Off ch=13 n=57 v=64
405120 On ch=13 n=59 v=72
405900 Off ch=13 n=59 v=64
406080 On ch=13 n=57 v=72
406560 On ch=13 n=59 v=72
406620 Off ch=13 n=57 v=64
406820 Off ch=13 n=59 v=64
407040 On ch=13 n=62 v=72
407520 On ch=13 n=64 v=72
407560 Off ch=13 n=62 v=64
407780 Off ch=13 n=64 v=64
408000 On ch=13 n=59 v=72
408260 Off ch=13 n=59 v=64
408480 On ch=13 n=57 v=72
408740 Off ch=13 n=57 v=64
408960 On ch=13 n=59 v=72
409920 On ch=13 n=57 v=72
409980 Off ch=13 n=59 v=64
410180 Off ch=13 n=57 v=64
410400 On ch=13 n=59 v=72
410660 Off ch=13 n=59 v=64
410880 On ch=13 n=57 v=72
411360 On ch=13 n=55 v=72
411380 Off ch=13 n=57 v=64
411640 Off ch=13 n=55 v=64
411840 On ch=13 n=54 v=72
412080 Off ch=13 n=54 v=64
412320 On ch=13 n=50 v=72
412660 Off ch=13 n=50 v=64
412800 On ch=13 n=52 v=72
413760 On ch=13 n=50 v=72
413776 Off ch=13 n=52 v=64
413972 Off ch=13 n=50 v=64
414240 On ch=13 n=52 v=72
414500 Off ch=13 n=52 v=64
414720 On ch=13 n=54 v=72
415200 On ch=13 n=55 v=72
415260 Off ch=13 n=54 v=64
415460 Off ch=13 n=55 v=64
415680 On ch=13 n=57 v=72
415900 Off ch=13 n=57 v=64
416160 On ch=13 n=59 v=72
416380 Off ch=13 n=59 v=64
416640 On ch=13 n=52 v=72
417360 Off ch=13 n=52 v=64
417600 On ch=13 n=59 v=72
417860 Off ch=13 n=59 v=64
418080 On ch=13 n=62 v=72
418340 Off ch=13 n=62 v=64
418560 On ch=13 n=62 v=73
419040 On ch=13 n=64 v=73
419060 Off ch=13 n=62 v=64
419300 Off ch=13 n=64 v=64
419520 On ch=13 n=59 v=73
419780 Off ch=13 n=59 v=64
420000 On ch=13 n=57 v=73
420260 Off ch=13 n=57 v=64
420480 On ch=13 n=59 v=73
421260 Off ch=13 n=59 v=64
421440 On ch=13 n=57 v=73
421920 On ch=13 n=59 v=73
421980 Off ch=13 n=57 v=64
422180 Off ch=13 n=59 v=64
422400 On ch=13 n=62 v=73
422880 On ch=13 n=64 v=73
422920 Off ch=13 n=62 v=64
423140 Off ch=13 n=64 v=64
423360 On ch=13 n=59 v=73
423620 Off ch=13 n=59 v=64
423840 On ch=13 n=57 v=73
424100 Off ch=13 n=57 v=64
424320 On ch=13 n=59 v=73
425280 On ch=13 n=64 v=73
425340 Off ch=13 n=59 v=64
425540 Off ch=13 n=64 v=64
425760 On ch=13 n=66 v=73
426020 Off ch=13 n=66 v=64
426240 On ch=13 n=67 v=73
426720 On ch=13 n=66 v=73
426740 Off ch=13 n=67 v=64
427000 Off ch=13 n=66 v=64
427200 On ch=13 n=64 v=73
427440 Off ch=13 n=64 v=64
427680 On ch=13 n=62 v=73
427900 Off ch=13 n=62 v=64
428160 On ch=13 n=59 v=73
429088 Off ch=13 n=59 v=64
429120 On ch=13 n=57 v=73
429600 On ch=13 n=59 v=73
429620 Off ch=13 n=57 v=64
429860 Off ch=13 n=59 v=64
430080 On ch=13 n=57 v=73
430560 On ch=13 n=55 v=73
430620 Off ch=13 n=57 v=64
430820 Off ch=13 n=55 v=64
431040 On ch=13 n=54 v=73
431260 Off ch=13 n=54 v=64
431520 On ch=13 n=50 v=73
431740 Off ch=13 n=50 v=64
432000 On ch=13 n=52 v=73
432720 Off ch=13 n=52 v=64
432960 On ch=13 n=59 v=73
433220 Off ch=13 n=59 v=64
433440 On ch=13 n=62 v=73
433700 Off ch=13 n=62 v=64
433920 On ch=13 n=62 v=73
434400 On ch=13 n=64 v=73
434420 Off ch=13 n=62 v=64
434660 Off ch=13 n=64 v=64
434880 On ch=13 n=59 v=73
435140 Off ch=13 n=59 v=64
435360 On ch=13 n=57 v=73
435620 Off ch=13 n=57 v=64
435840 On ch=13 n=59 v=73
436620 Off ch=13 n=59 v=64
436800 On ch=13 n=57 v=73
437280 On ch=13 n=59 v=73
437340 Off ch=13 n=57 v=64
437540 Off ch=13 n=59 v=64
437760 On ch=13 n=62 v=73
438240 On ch=13 n=64 v=73
438280 Off ch=13 n=62 v=64
438500 Off ch=13 n=64 v=64
438720 On ch=13 n=59 v=73
438980 Off ch=13 n=59 v=64
439200 On ch=13 n=57 v=73
439460 Off ch=13 n=57 v=64
439680 On ch=13 n=59 v=73
440640 On ch=13 n=57 v=73
440700 Off ch=13 n=59 v=64
440900 Off ch=13 n=57 v=64
441120 On ch=13 n=59 v=73
441380 Off ch=13 n=59 v=64
441600 On ch=13 n=57 v=73
442080 On ch=13 n=55 v=73
442100 Off ch=13 n=57 v=64
442360 Off ch=13 n=55 v=64
442560 On ch=13 n=54 v=73
442800 Off ch=13 n=54 v=64
443040 On ch=13 n=50 v=73
443380 Off ch=13 n=50 v=64
443520 On ch=13 n=52 v=73
444448 Off ch=13 n=52 v=64
444480 On ch=13 n=50 v=73
444960 On ch=13 n=52 v=73
444980 Off ch=13 n=50 v=64
445220 Off ch=13 n=52 v=64
445440 On ch=13 n=54 v=73
445920 On ch=13 n=55 v=73
445980 Off ch=13 n=54 v=64
446180 Off ch=13 n=55 v=64
446400 On ch=13 n=57 v=73
446620 Off ch=13 n=57 v=64
446880 On ch=13 n=59 v=73
447100 Off ch=13 n=59 v=64
447360 On ch=13 n=52 v=73
448080 Off ch=13 n=52 v=64
448320 On ch=13 n=59 v=73
448580 Off ch=13 n=59 v=64
448800 On ch=13 n=62 v=73
449060 Off ch=13 n=62 v=64
449280 On ch=13 n=62 v=73
449760 On ch=13 n=64 v=73
449780 Off ch=13 n=62 v=64
450020 Off ch=13 n=64 v=64
450240 On ch=13 n=59 v=73
450500 Off ch=13 n=59 v=64
450720 On ch=13 n=57 v=73
450980 Off ch=13 n=57 v=64
451200 On ch=13 n=59 v=73
451980 Off ch=13 n=59 v=64
452160 On ch=13 n=57 v=73
452640 On ch=13 n=59 v=73
452700 Off ch=13 n=57 v=64
452900 Off ch=13 n=59 v=64
453120 On ch=13 n=62 v=73
453600 On ch=13 n=64 v=73
453640 Off ch=13 n=62 v=64
453860 Off ch=13 n=64 v=64
454080 On ch=13 n=59 v=73
454340 Off ch=13 n=59 v=64
454560 On ch=13 n=57 v=73
454820 Off ch=13 n=57 v=64
455040 On ch=13 n=59 v=73
456000 On ch=13 n=64 v=73
456060 Off ch=13 n=59 v=64
456260 Off ch=13 n=64 v=64
456480 On ch=13 n=66 v=73
456740 Off ch=13 n=66 v=64
456960 On ch=13 n=67 v=73
457440 On ch=13 n=66 v=73
457460 Off ch=13 n=67 v=64
457720 Off ch=13 n=66 v=64
457920 On ch=13 n=64 v=73
458160 Off ch=13 n=64 v=64
458400 On ch=13 n=62 v=73
458620 Off ch=13 n=62 v=64
458880 On ch=13 n=59 v=73
459808 Off ch=13 n=59 v=64
459840 On ch=13 n=57 v=73
460320 On ch=13 n=59 v=73
460340 Off ch=13 n=57 v=64
460580 Off ch=13 n=59 v=64
460800 On ch=13 n=57 v=73
461280 On ch=13 n=55 v=73
461340 Off ch=13 n=57 v=64
461540 Off ch=13 n=55 v=64
461760 On ch=13 n=54 v=73
461980 Off ch=13 n=54 v=64
462240 On ch=13 n=50 v=73
462460 Off ch=13 n=50 v=64
462720 On ch=13 n=52 v=73
462960 Off ch=13 n=52 v=64
462960 Meta TrkEnd
TrkEnd
MTrk
0 SeqSpec 43 00 01 ff
0 Meta TrkName "Violoncello(s)"
1920 PrCh ch=14 p=6
1930 Par ch=14 c=7 v=100
1940 Par ch=14 c=10 v=64
1950 Par ch=14 c=11 v=127
1960 Par ch=14 c=20 v=127
1970 Par ch=14 c=91 v=0
1980 Par ch=14 c=93 v=0
1990 Par ch=14 c=94 v=0
2000 Par ch=14 c=101 v=0
2010 Par ch=14 c=100 v=0
2020 Par ch=14 c=6 v=2
2030 Par ch=14 c=101 v=127
2040 Par ch=14 c=100 v=127
34560 On ch=14 n=39 v=88
35424 Off ch=14 n=39 v=100
36480 On ch=14 n=39 v=88
37344 Off ch=14 n=39 v=100
38400 On ch=14 n=39 v=88
39264 Off ch=14 n=39 v=100
40320 On ch=14 n=39 v=88
41184 Off ch=14 n=39 v=100
41280 On ch=14 n=44 v=88
42144 Off ch=14 n=44 v=100
42240 On ch=14 n=39 v=88
43104 Off ch=14 n=39 v=100
44160 On ch=14 n=39 v=88
45024 Off ch=14 n=39 v=100
46080 On ch=14 n=39 v=88
46944 Off ch=14 n=39 v=100
48000 On ch=14 n=44 v=88
48864 Off ch=14 n=44 v=100
48960 On ch=14 n=42 v=88
49824 Off ch=14 n=42 v=100
49920 On ch=14 n=39 v=88
50784 Off ch=14 n=39 v=100
51840 On ch=14 n=39 v=88
52704 Off ch=14 n=39 v=100
53760 On ch=14 n=39 v=88
54624 Off ch=14 n=39 v=100
55680 On ch=14 n=39 v=88
56544 Off ch=14 n=39 v=100
56640 On ch=14 n=44 v=88
57504 Off ch=14 n=44 v=100
57600 On ch=14 n=39 v=88
58464 Off ch=14 n=39 v=100
59520 On ch=14 n=39 v=88
60384 Off ch=14 n=39 v=100
61440 On ch=14 n=39 v=88
62304 Off ch=14 n=39 v=100
63360 On ch=14 n=44 v=88
64224 Off ch=14 n=44 v=100
64320 On ch=14 n=42 v=88
65184 Off ch=14 n=42 v=100
65280 On ch=14 n=51 v=75
66144 Off ch=14 n=51 v=100
67200 On ch=14 n=51 v=75
68064 Off ch=14 n=51 v=100
69120 On ch=14 n=51 v=75
69984 Off ch=14 n=51 v=100
71040 On ch=14 n=51 v=75
71520 On ch=14 n=63 v=75
71904 Off ch=14 n=51 v=100
72000 On ch=14 n=56 v=75
72384 Off ch=14 n=63 v=100
72480 On ch=14 n=44 v=75
72864 Off ch=14 n=56 v=100
72960 On ch=14 n=47 v=75
73344 Off ch=14 n=44 v=100
73824 Off ch=14 n=47 v=100
74880 On ch=14 n=47 v=75
75744 Off ch=14 n=47 v=100
76800 On ch=14 n=49 v=75
77664 Off ch=14 n=49 v=100
78720 On ch=14 n=50 v=75
79200 On ch=14 n=62 v=75
79584 Off ch=14 n=50 v=100
79680 On ch=14 n=56 v=75
80064 Off ch=14 n=62 v=100
80160 On ch=14 n=44 v=75
80544 Off ch=14 n=56 v=100
80640 On ch=14 n=51 v=75
81024 Off ch=14 n=44 v=100
81504 Off ch=14 n=51 v=100
82560 On ch=14 n=51 v=75
83424 Off ch=14 n=51 v=100
84480 On ch=14 n=51 v=75
85344 Off ch=14 n=51 v=100
86400 On ch=14 n=51 v=75
86880 On ch=14 n=63 v=75
87264 Off ch=14 n=51 v=100
87360 On ch=14 n=56 v=75
87744 Off ch=14 n=63 v=100
87840 On ch=14 n=44 v=75
88224 Off ch=14 n=56 v=100
88320 On ch=14 n=47 v=75
88704 Off ch=14 n=44 v=100
89184 Off ch=14 n=47 v=100
90240 On ch=14 n=47 v=75
91104 Off ch=14 n=47 v=100
92160 On ch=14 n=49 v=75
93024 Off ch=14 n=49 v=100
94080 On ch=14 n=50 v=75
94560 On ch=14 n=62 v=75
94944 Off ch=14 n=50 v=100
95040 On ch=14 n=56 v=75
95424 Off ch=14 n=62 v=100
95520 On ch=14 n=44 v=75
95904 Off ch=14 n=56 v=100
96000 On ch=14 n=51 v=75
96384 Off ch=14 n=44 v=100
96864 Off ch=14 n=51 v=100
97920 On ch=14 n=51 v=75
98784 Off ch=14 n=51 v=100
99840 On ch=14 n=51 v=75
100704 Off ch=14 n=51 v=100
101760 On ch=14 n=51 v=75
102240 On ch=14 n=63 v=75
102624 Off ch=14 n=51 v=100
102720 On ch=14 n=56 v=75
103104 Off ch=14 n=63 v=100
103200 On ch=14 n=44 v=75
103584 Off ch=14 n=56 v=100
103680 On ch=14 n=47 v=75
104064 Off ch=14 n=44 v=100
104544 Off ch=14 n=47 v=100
105600 On ch=14 n=47 v=75
106464 Off ch=14 n=47 v=100
107520 On ch=14 n=49 v=75
108384 Off ch=14 n=49 v=100
109440 On ch=14 n=50 v=75
109920 On ch=14 n=62 v=75
110304 Off ch=14 n=50 v=100
110400 On ch=14 n=56 v=75
110784 Off ch=14 n=62 v=100
110880 On ch=14 n=44 v=75
111264 Off ch=14 n=56 v=100
111360 On ch=14 n=51 v=75
111744 Off ch=14 n=44 v=100
112224 Off ch=14 n=51 v=100
113280 On ch=14 n=51 v=75
114144 Off ch=14 n=51 v=100
115200 On ch=14 n=51 v=75
116064 Off ch=14 n=51 v=100
117120 On ch=14 n=51 v=75
117600 On ch=14 n=63 v=75
117984 Off ch=14 n=51 v=100
118080 On ch=14 n=56 v=75
118464 Off ch=14 n=63 v=100
118560 On ch=14 n=44 v=75
118944 Off ch=14 n=56 v=100
119040 On ch=14 n=47 v=75
119424 Off ch=14 n=44 v=100
119904 Off ch=14 n=47 v=100
120960 On ch=14 n=47 v=75
121824 Off ch=14 n=47 v=100
122880 On ch=14 n=49 v=75
123744 Off ch=14 n=49 v=100
124800 On ch=14 n=50 v=75
125280 On ch=14 n=62 v=75
125664 Off ch=14 n=50 v=100
125760 On ch=14 n=56 v=75
126144 Off ch=14 n=62 v=100
126240 On ch=14 n=44 v=75
126624 Off ch=14 n=56 v=100
126720 On ch=14 n=47 v=75
127104 Off ch=14 n=44 v=100
127584 Off ch=14 n=47 v=100
128640 On ch=14 n=47 v=75
129504 Off ch=14 n=47 v=100
130560 On ch=14 n=49 v=75
131424 Off ch=14 n=49 v=100
132480 On ch=14 n=49 v=75
132960 On ch=14 n=61 v=75
133344 Off ch=14 n=49 v=100
133440 On ch=14 n=56 v=75
133824 Off ch=14 n=61 v=100
133920 On ch=14 n=44 v=75
134304 Off ch=14 n=56 v=100
134400 On ch=14 n=51 v=75
134784 Off ch=14 n=44 v=100
135264 Off ch=14 n=51 v=100
136320 On ch=14 n=51 v=75
137184 Off ch=14 n=51 v=100
138240 On ch=14 n=51 v=75
139104 Off ch=14 n=51 v=100
140160 On ch=14 n=51 v=75
140640 On ch=14 n=63 v=75
141024 Off ch=14 n=51 v=100
141120 On ch=14 n=58 v=75
141504 Off ch=14 n=63 v=100
141600 On ch=14 n=46 v=75
141984 Off ch=14 n=58 v=100
142080 On ch=14 n=47 v=75
142464 Off ch=14 n=46 v=100
142944 Off ch=14 n=47 v=100
144000 On ch=14 n=47 v=75
144864 Off ch=14 n=47 v=100
145920 On ch=14 n=49 v=75
146784 Off ch=14 n=49 v=100
147840 On ch=14 n=49 v=75
148320 On ch=14 n=61 v=75
148704 Off ch=14 n=49 v=100
148800 On ch=14 n=56 v=75
149184 Off ch=14 n=61 v=100
149280 On ch=14 n=44 v=75
149664 Off ch=14 n=56 v=100
149760 On ch=14 n=51 v=75
150144 Off ch=14 n=44 v=100
150624 Off ch=14 n=51 v=100
151680 On ch=14 n=51 v=75
152544 Off ch=14 n=51 v=100
153600 On ch=14 n=51 v=75
154464 Off ch=14 n=51 v=100
155520 On ch=14 n=51 v=75
156000 On ch=14 n=63 v=75
156384 Off ch=14 n=51 v=100
156480 On ch=14 n=58 v=75
156864 Off ch=14 n=63 v=100
156960 On ch=14 n=46 v=75
157344 Off ch=14 n=58 v=100
157440 On ch=14 n=47 v=75
157824 Off ch=14 n=46 v=100
158304 Off ch=14 n=47 v=100
159360 On ch=14 n=47 v=75
160224 Off ch=14 n=47 v=100
161280 On ch=14 n=49 v=75
162144 Off ch=14 n=49 v=100
163200 On ch=14 n=49 v=75
163680 On ch=14 n=61 v=75
164064 Off ch=14 n=49 v=100
164160 On ch=14 n=56 v=75
164544 Off ch=14 n=61 v=100
164640 On ch=14 n=44 v=75
165024 Off ch=14 n=56 v=100
165120 On ch=14 n=51 v=75
165504 Off ch=14 n=44 v=100
165984 Off ch=14 n=51 v=100
167040 On ch=14 n=51 v=75
167904 Off ch=14 n=51 v=100
168960 On ch=14 n=51 v=75
169824 Off ch=14 n=51 v=100
170880 On ch=14 n=51 v=75
171360 On ch=14 n=63 v=75
171744 Off ch=14 n=51 v=100
171840 On ch=14 n=58 v=75
172224 Off ch=14 n=63 v=100
172320 On ch=14 n=46 v=75
172704 Off ch=14 n=58 v=100
172800 On ch=14 n=47 v=75
173184 Off ch=14 n=46 v=100
173664 Off ch=14 n=47 v=100
174720 On ch=14 n=47 v=75
175584 Off ch=14 n=47 v=100
176640 On ch=14 n=49 v=75
177504 Off ch=14 n=49 v=100
178560 On ch=14 n=49 v=75
179040 On ch=14 n=61 v=75
179424 Off ch=14 n=49 v=100
179520 On ch=14 n=56 v=75
179904 Off ch=14 n=61 v=100
180000 On ch=14 n=44 v=75
180384 Off ch=14 n=56 v=100
180480 On ch=14 n=51 v=75
180864 Off ch=14 n=44 v=100
181344 Off ch=14 n=51 v=100
182400 On ch=14 n=51 v=75
183264 Off ch=14 n=51 v=100
184320 On ch=14 n=51 v=75
185184 Off ch=14 n=51 v=100
186240 On ch=14 n=51 v=75
187104 Off ch=14 n=51 v=100
216960 On ch=14 n=44 v=99
217824 Off ch=14 n=44 v=100
217920 On ch=14 n=42 v=103
218784 Off ch=14 n=42 v=100
218880 On ch=14 n=39 v=114
219744 Off ch=14 n=39 v=100
220800 On ch=14 n=39 v=114
221664 Off ch=14 n=39 v=100
222720 On ch=14 n=39 v=114
223584 Off ch=14 n=39 v=100
224640 On ch=14 n=39 v=114
225504 Off ch=14 n=39 v=100
225600 On ch=14 n=44 v=114
226464 Off ch=14 n=44 v=100
226560 On ch=14 n=39 v=114
227424 Off ch=14 n=39 v=100
228480 On ch=14 n=39 v=114
229344 Off ch=14 n=39 v=100
230400 On ch=14 n=39 v=114
231264 Off ch=14 n=39 v=100
232320 On ch=14 n=44 v=114
233184 Off ch=14 n=44 v=100
233280 On ch=14 n=42 v=114
234144 Off ch=14 n=42 v=100
234240 On ch=14 n=39 v=114
235104 Off ch=14 n=39 v=100
236160 On ch=14 n=39 v=114
237024 Off ch=14 n=39 v=100
238080 On ch=14 n=39 v=114
238944 Off ch=14 n=39 v=100
240000 On ch=14 n=39 v=114
240864 Off ch=14 n=39 v=100
240960 On ch=14 n=44 v=114
241824 Off ch=14 n=44 v=100
241920 On ch=14 n=39 v=114
242784 Off ch=14 n=39 v=100
243840 On ch=14 n=39 v=114
244704 Off ch=14 n=39 v=100
245760 On ch=14 n=39 v=114
246624 Off ch=14 n=39 v=100
247680 On ch=14 n=44 v=114
248544 Off ch=14 n=44 v=100
248640 On ch=14 n=42 v=114
249504 Off ch=14 n=42 v=100
249600 On ch=14 n=51 v=79
250464 Off ch=14 n=51 v=100
251520 On ch=14 n=51 v=79
252384 Off ch=14 n=51 v=100
253440 On ch=14 n=51 v=79
254304 Off ch=14 n=51 v=100
255360 On ch=14 n=51 v=79
255840 On ch=14 n=63 v=79
256224 Off ch=14 n=51 v=100
256320 On ch=14 n=56 v=79
256704 Off ch=14 n=63 v=100
256800 On ch=14 n=44 v=79
257184 Off ch=14 n=56 v=100
257280 On ch=14 n=47 v=79
257664 Off ch=14 n=44 v=100
258144 Off ch=14 n=47 v=100
259200 On ch=14 n=47 v=79
260064 Off ch=14 n=47 v=100
261120 On ch=14 n=49 v=79
261984 Off ch=14 n=49 v=100
263040 On ch=14 n=50 v=79
263520 On ch=14 n=62 v=80
263904 Off ch=14 n=50 v=100
264000 On ch=14 n=56 v=80
264384 Off ch=14 n=62 v=100
264480 On ch=14 n=44 v=80
264864 Off ch=14 n=56 v=100
264960 On ch=14 n=51 v=80
265344 Off ch=14 n=44 v=100
265824 Off ch=14 n=51 v=100
266880 On ch=14 n=51 v=80
267744 Off ch=14 n=51 v=100
268800 On ch=14 n=51 v=80
269664 Off ch=14 n=51 v=100
270720 On ch=14 n=51 v=81
271200 On ch=14 n=63 v=81
271584 Off ch=14 n=51 v=100
271680 On ch=14 n=56 v=81
272064 Off ch=14 n=63 v=100
272160 On ch=14 n=44 v=81
272544 Off ch=14 n=56 v=100
272640 On ch=14 n=47 v=81
273024 Off ch=14 n=44 v=100
273504 Off ch=14 n=47 v=100
274560 On ch=14 n=47 v=82
275424 Off ch=14 n=47 v=100
276480 On ch=14 n=49 v=82
277344 Off ch=14 n=49 v=100
278400 On ch=14 n=50 v=83
278880 On ch=14 n=62 v=83
279264 Off ch=14 n=50 v=100
279360 On ch=14 n=56 v=83
279744 Off ch=14 n=62 v=100
279840 On ch=14 n=44 v=83
280224 Off ch=14 n=56 v=100
280320 On ch=14 n=51 v=87
280704 Off ch=14 n=44 v=100
281184 Off ch=14 n=51 v=100
282240 On ch=14 n=51 v=87
283104 Off ch=14 n=51 v=100
284160 On ch=14 n=51 v=87
285024 Off ch=14 n=51 v=100
286080 On ch=14 n=51 v=87
286560 On ch=14 n=63 v=87
286944 Off ch=14 n=51 v=100
287040 On ch=14 n=56 v=87
287424 Off ch=14 n=63 v=100
287520 On ch=14 n=44 v=87
287904 Off ch=14 n=56 v=100
288000 On ch=14 n=47 v=87
288384 Off ch=14 n=44 v=100
288864 Off ch=14 n=47 v=100
289920 On ch=14 n=47 v=88
290784 Off ch=14 n=47 v=100
291840 On ch=14 n=49 v=88
292704 Off ch=14 n=49 v=100
293760 On ch=14 n=50 v=89
294240 On ch=14 n=62 v=89
294624 Off ch=14 n=50 v=100
294720 On ch=14 n=56 v=89
295104 Off ch=14 n=62 v=100
295200 On ch=14 n=44 v=89
295584 Off ch=14 n=56 v=100
295680 On ch=14 n=51 v=89
296064 Off ch=14 n=44 v=100
296544 Off ch=14 n=51 v=100
297600 On ch=14 n=51 v=90
298464 Off ch=14 n=51 v=100
299520 On ch=14 n=51 v=91
300384 Off ch=14 n=51 v=100
301440 On ch=14 n=51 v=92
301920 On ch=14 n=63 v=92
302304 Off ch=14 n=51 v=100
302400 On ch=14 n=56 v=92
302784 Off ch=14 n=63 v=100
302880 On ch=14 n=44 v=92
303264 Off ch=14 n=56 v=100
303360 On ch=14 n=47 v=93
303744 Off ch=14 n=44 v=100
304224 Off ch=14 n=47 v=100
305280 On ch=14 n=47 v=94
306144 Off ch=14 n=47 v=100
307200 On ch=14 n=49 v=95
308064 Off ch=14 n=49 v=100
309120 On ch=14 n=50 v=96
309600 On ch=14 n=62 v=97
309984 Off ch=14 n=50 v=100
310080 On ch=14 n=56 v=97
310464 Off ch=14 n=62 v=100
310560 On ch=14 n=44 v=97
310944 Off ch=14 n=56 v=100
311040 On ch=14 n=47 v=98
311424 Off ch=14 n=44 v=100
311520 Off ch=14 n=47 v=64
311520 On ch=14 n=51 v=90
312000 Off ch=14 n=51 v=64
312000 On ch=14 n=59 v=90
312480 Off ch=14 n=59 v=64
312480 On ch=14 n=54 v=90
312960 Off ch=14 n=54 v=64
312960 On ch=14 n=47 v=97
313440 Off ch=14 n=47 v=64
313440 On ch=14 n=51 v=90
313920 Off ch=14 n=51 v=64
313920 On ch=14 n=59 v=90
314400 Off ch=14 n=59 v=64
314400 On ch=14 n=54 v=90
314880 Off ch=14 n=54 v=64
314880 On ch=14 n=49 v=97
315360 Off ch=14 n=49 v=64
315360 On ch=14 n=53 v=90
315840 Off ch=14 n=53 v=64
315840 On ch=14 n=61 v=90
316320 Off ch=14 n=61 v=64
316320 On ch=14 n=56 v=90
316800 Off ch=14 n=56 v=64
316800 On ch=14 n=49 v=98
317280 Off ch=14 n=49 v=64
317280 On ch=14 n=53 v=90
317760 Off ch=14 n=53 v=64
317760 On ch=14 n=61 v=90
318240 Off ch=14 n=61 v=64
318240 On ch=14 n=56 v=90
318720 Off ch=14 n=56 v=64
318720 On ch=14 n=51 v=99
319200 Off ch=14 n=51 v=64
319200 On ch=14 n=54 v=90
319680 Off ch=14 n=54 v=64
319680 On ch=14 n=63 v=90
320160 Off ch=14 n=63 v=64
320160 On ch=14 n=58 v=90
320640 Off ch=14 n=58 v=64
320640 On ch=14 n=51 v=99
321120 Off ch=14 n=51 v=64
321120 On ch=14 n=54 v=90
321600 Off ch=14 n=54 v=64
321600 On ch=14 n=63 v=90
322080 Off ch=14 n=63 v=64
322080 On ch=14 n=58 v=90
322560 Off ch=14 n=58 v=64
322560 On ch=14 n=51 v=97
323040 Off ch=14 n=51 v=64
323040 On ch=14 n=54 v=90
323520 Off ch=14 n=54 v=64
323520 On ch=14 n=63 v=90
324000 Off ch=14 n=63 v=64
324000 On ch=14 n=58 v=90
324480 Off ch=14 n=58 v=64
324480 On ch=14 n=51 v=97
324960 Off ch=14 n=51 v=64
324960 On ch=14 n=54 v=90
325440 Off ch=14 n=54 v=64
325440 On ch=14 n=63 v=90
325920 Off ch=14 n=63 v=64
325920 On ch=14 n=58 v=90
326400 Off ch=14 n=58 v=64
326400 On ch=14 n=47 v=98
326880 Off ch=14 n=47 v=64
326880 On ch=14 n=51 v=90
327360 Off ch=14 n=51 v=64
327360 On ch=14 n=59 v=90
327840 Off ch=14 n=59 v=64
327840 On ch=14 n=54 v=90
328320 Off ch=14 n=54 v=64
328320 On ch=14 n=47 v=97
328800 Off ch=14 n=47 v=64
328800 On ch=14 n=51 v=90
329280 Off ch=14 n=51 v=64
329280 On ch=14 n=59 v=90
329760 Off ch=14 n=59 v=64
329760 On ch=14 n=54 v=90
330240 Off ch=14 n=54 v=64
330240 On ch=14 n=49 v=97
330720 Off ch=14 n=49 v=64
330720 On ch=14 n=53 v=90
331200 Off ch=14 n=53 v=64
331200 On ch=14 n=61 v=90
331680 Off ch=14 n=61 v=64
331680 On ch=14 n=56 v=90
332160 Off ch=14 n=56 v=64
332160 On ch=14 n=49 v=98
332640 Off ch=14 n=49 v=64
332640 On ch=14 n=53 v=90
333120 Off ch=14 n=53 v=64
333120 On ch=14 n=61 v=90
333600 Off ch=14 n=61 v=64
333600 On ch=14 n=56 v=90
334080 Off ch=14 n=56 v=64
334080 On ch=14 n=51 v=99
334560 Off ch=14 n=51 v=64
334560 On ch=14 n=54 v=90
335040 Off ch=14 n=54 v=64
335040 On ch=14 n=63 v=90
335520 Off ch=14 n=63 v=64
335520 On ch=14 n=58 v=90
336000 Off ch=14 n=58 v=64
336000 On ch=14 n=51 v=99
336480 Off ch=14 n=51 v=64
336480 On ch=14 n=54 v=90
336960 Off ch=14 n=54 v=64
336960 On ch=14 n=63 v=90
337440 Off ch=14 n=63 v=64
337440 On ch=14 n=58 v=90
337920 Off ch=14 n=58 v=64
337920 On ch=14 n=51 v=97
338400 Off ch=14 n=51 v=64
338400 On ch=14 n=54 v=90
338880 Off ch=14 n=54 v=64
338880 On ch=14 n=63 v=90
339360 Off ch=14 n=63 v=64
339360 On ch=14 n=58 v=90
339840 Off ch=14 n=58 v=64
339840 On ch=14 n=51 v=97
340320 Off ch=14 n=51 v=64
340320 On ch=14 n=54 v=90
340800 Off ch=14 n=54 v=64
340800 On ch=14 n=63 v=90
341280 Off ch=14 n=63 v=64
341280 On ch=14 n=58 v=90
341760 Off ch=14 n=58 v=64
341760 On ch=14 n=47 v=98
342240 Off ch=14 n=47 v=64
342240 On ch=14 n=51 v=90
342720 Off ch=14 n=51 v=64
342720 On ch=14 n=59 v=90
343200 Off ch=14 n=59 v=64
343200 On ch=14 n=54 v=90
343680 Off ch=14 n=54 v=64
343680 On ch=14 n=47 v=97
344160 Off ch=14 n=47 v=64
344160 On ch=14 n=51 v=90
344640 Off ch=14 n=51 v=64
344640 On ch=14 n=59 v=90
345120 Off ch=14 n=59 v=64
345120 On ch=14 n=54 v=90
345600 Off ch=14 n=54 v=64
345600 On ch=14 n=49 v=97
346080 Off ch=14 n=49 v=64
346080 On ch=14 n=53 v=90
346560 Off ch=14 n=53 v=64
346560 On ch=14 n=61 v=90
347040 Off ch=14 n=61 v=64
347040 On ch=14 n=56 v=90
347520 Off ch=14 n=56 v=64
347520 On ch=14 n=49 v=98
348000 Off ch=14 n=49 v=64
348000 On ch=14 n=53 v=90
348480 Off ch=14 n=53 v=64
348480 On ch=14 n=61 v=90
348960 Off ch=14 n=61 v=64
348960 On ch=14 n=56 v=90
349440 Off ch=14 n=56 v=64
349440 On ch=14 n=51 v=99
349920 Off ch=14 n=51 v=64
349920 On ch=14 n=54 v=90
350400 Off ch=14 n=54 v=64
350400 On ch=14 n=63 v=90
350880 Off ch=14 n=63 v=64
350880 On ch=14 n=58 v=90
351360 Off ch=14 n=58 v=64
351360 On ch=14 n=51 v=99
351840 Off ch=14 n=51 v=64
351840 On ch=14 n=54 v=90
352320 Off ch=14 n=54 v=64
352320 On ch=14 n=63 v=90
352800 Off ch=14 n=63 v=64
352800 On ch=14 n=58 v=90
353280 Off ch=14 n=58 v=64
353280 On ch=14 n=51 v=97
353760 Off ch=14 n=51 v=64
353760 On ch=14 n=54 v=90
354240 Off ch=14 n=54 v=64
354240 On ch=14 n=63 v=90
354720 Off ch=14 n=63 v=64
354720 On ch=14 n=58 v=90
355200 Off ch=14 n=58 v=64
355200 On ch=14 n=51 v=97
355680 Off ch=14 n=51 v=64
355680 On ch=14 n=54 v=90
356160 Off ch=14 n=54 v=64
356160 On ch=14 n=63 v=90
356640 Off ch=14 n=63 v=64
356640 On ch=14 n=58 v=90
357120 Off ch=14 n=58 v=64
357120 On ch=14 n=47 v=98
357600 Off ch=14 n=47 v=64
357600 On ch=14 n=51 v=90
358080 Off ch=14 n=51 v=64
358080 On ch=14 n=59 v=90
358560 Off ch=14 n=59 v=64
358560 On ch=14 n=54 v=90
359040 Off ch=14 n=54 v=64
359040 On ch=14 n=47 v=97
359520 Off ch=14 n=47 v=64
359520 On ch=14 n=51 v=90
360000 Off ch=14 n=51 v=64
360000 On ch=14 n=59 v=90
360480 Off ch=14 n=59 v=64
360480 On ch=14 n=54 v=90
360960 Off ch=14 n=54 v=64
360960 On ch=14 n=49 v=97
361440 Off ch=14 n=49 v=64
361440 On ch=14 n=53 v=90
361920 Off ch=14 n=53 v=64
361920 On ch=14 n=61 v=90
362400 Off ch=14 n=61 v=64
362400 On ch=14 n=56 v=90
362880 Off ch=14 n=56 v=64
362880 On ch=14 n=49 v=98
363360 Off ch=14 n=49 v=64
363360 On ch=14 n=53 v=90
363840 Off ch=14 n=53 v=64
363840 On ch=14 n=61 v=90
364320 Off ch=14 n=61 v=64
364320 On ch=14 n=56 v=90
364800 Off ch=14 n=56 v=64
364800 On ch=14 n=51 v=99
365280 Off ch=14 n=51 v=64
365280 On ch=14 n=54 v=90
365760 Off ch=14 n=54 v=64
365760 On ch=14 n=63 v=90
366240 Off ch=14 n=63 v=64
366240 On ch=14 n=58 v=90
366720 Off ch=14 n=58 v=64
366720 On ch=14 n=51 v=99
367200 Off ch=14 n=51 v=64
367200 On ch=14 n=54 v=90
367680 Off ch=14 n=54 v=64
367680 On ch=14 n=63 v=90
368160 Off ch=14 n=63 v=64
368160 On ch=14 n=58 v=90
368640 Off ch=14 n=58 v=64
368640 On ch=14 n=51 v=97
369120 Off ch=14 n=51 v=64
369120 On ch=14 n=54 v=90
369600 Off ch=14 n=54 v=64
369600 On ch=14 n=63 v=90
370080 Off ch=14 n=63 v=64
370080 On ch=14 n=58 v=90
370560 Off ch=14 n=58 v=64
370560 On ch=14 n=51 v=97
371040 Off ch=14 n=51 v=64
403200 On ch=14 n=48 v=76
404160 Off ch=14 n=48 v=64
404160 On ch=14 n=48 v=67
405120 Off ch=14 n=48 v=64
405120 On ch=14 n=48 v=71
406080 Off ch=14 n=48 v=64
406080 On ch=14 n=48 v=69
407040 Off ch=14 n=48 v=64
407040 On ch=14 n=50 v=76
408000 Off ch=14 n=50 v=64
408000 On ch=14 n=50 v=67
408960 Off ch=14 n=50 v=64
408960 On ch=14 n=50 v=71
409920 Off ch=14 n=50 v=64
409920 On ch=14 n=50 v=69
410880 Off ch=14 n=50 v=64
410880 On ch=14 n=52 v=76
411840 Off ch=14 n=52 v=64
411840 On ch=14 n=52 v=67
412800 Off ch=14 n=52 v=64
412800 On ch=14 n=52 v=71
413760 Off ch=14 n=52 v=64
413760 On ch=14 n=52 v=69
414720 Off ch=14 n=52 v=64
414720 On ch=14 n=52 v=76
415680 Off ch=14 n=52 v=64
415680 On ch=14 n=52 v=67
416640 Off ch=14 n=52 v=64
416640 On ch=14 n=52 v=71
417600 Off ch=14 n=52 v=64
417600 On ch=14 n=52 v=69
418560 Off ch=14 n=52 v=64
418560 On ch=14 n=48 v=76
419520 Off ch=14 n=48 v=64
419520 On ch=14 n=48 v=67
420480 Off ch=14 n=48 v=64
420480 On ch=14 n=48 v=71
421440 Off ch=14 n=48 v=64
421440 On ch=14 n=48 v=69
422400 Off ch=14 n=48 v=64
422400 On ch=14 n=50 v=76
423360 Off ch=14 n=50 v=64
423360 On ch=14 n=50 v=67
424320 Off ch=14 n=50 v=64
424320 On ch=14 n=50 v=71
425280 Off ch=14 n=50 v=64
425280 On ch=14 n=50 v=69
426240 Off ch=14 n=50 v=64
426240 On ch=14 n=52 v=76
427200 Off ch=14 n=52 v=64
427200 On ch=14 n=52 v=67
428160 Off ch=14 n=52 v=64
428160 On ch=14 n=52 v=71
429120 Off ch=14 n=52 v=64
429120 On ch=14 n=52 v=69
430080 Off ch=14 n=52 v=64
430080 On ch=14 n=52 v=76
431040 Off ch=14 n=52 v=64
431040 On ch=14 n=52 v=67
432000 Off ch=14 n=52 v=64
432000 On ch=14 n=52 v=71
432960 Off ch=14 n=52 v=64
432960 On ch=14 n=52 v=69
433920 Off ch=14 n=52 v=64
433920 On ch=14 n=48 v=95
434880 Off ch=14 n=48 v=64
434880 On ch=14 n=48 v=86
435840 Off ch=14 n=48 v=64
435840 On ch=14 n=48 v=90
436800 Off ch=14 n=48 v=64
436800 On ch=14 n=48 v=88
437760 Off ch=14 n=48 v=64
437760 On ch=14 n=50 v=95
438720 Off ch=14 n=50 v=64
438720 On ch=14 n=50 v=86
439680 Off ch=14 n=50 v=64
439680 On ch=14 n=50 v=90
440640 Off ch=14 n=50 v=64
440640 On ch=14 n=50 v=88
441600 Off ch=14 n=50 v=64
441600 On ch=14 n=52 v=95
442560 Off ch=14 n=52 v=64
442560 On ch=14 n=52 v=86
443520 Off ch=14 n=52 v=64
443520 On ch=14 n=52 v=90
444480 Off ch=14 n=52 v=64
444480 On ch=14 n=52 v=88
445440 Off ch=14 n=52 v=64
445440 On ch=14 n=52 v=95
446400 Off ch=14 n=52 v=64
446400 On ch=14 n=52 v=86
447360 Off ch=14 n=52 v=64
447360 On ch=14 n=52 v=90
448320 Off ch=14 n=52 v=64
448320 On ch=14 n=52 v=88
449280 Off ch=14 n=52 v=64
449280 On ch=14 n=48 v=95
450240 Off ch=14 n=48 v=64
450240 On ch=14 n=48 v=86
451200 Off ch=14 n=48 v=64
451200 On ch=14 n=48 v=90
452160 Off ch=14 n=48 v=64
452160 On ch=14 n=48 v=88
453120 Off ch=14 n=48 v=64
453120 On ch=14 n=50 v=95
454080 Off ch=14 n=50 v=64
454080 On ch=14 n=50 v=86
455040 Off ch=14 n=50 v=64
455040 On ch=14 n=50 v=90
456000 Off ch=14 n=50 v=64
456000 On ch=14 n=50 v=88
456960 Off ch=14 n=50 v=64
456960 On ch=14 n=52 v=95
457920 Off ch=14 n=52 v=64
457920 On ch=14 n=52 v=86
458880 Off ch=14 n=52 v=64
458880 On ch=14 n=52 v=90
459840 Off ch=14 n=52 v=64
459840 On ch=14 n=52 v=88
460800 Off ch=14 n=52 v=64
460800 On ch=14 n=52 v=95
461760 Off ch=14 n=52 v=64
461760 On ch=14 n=52 v=86
462720 Off ch=14 n=52 v=64
462720 On ch=14 n=45 v=50
463680 Off ch=14 n=45 v=64
463680 On ch=14 n=43 v=55
464640 Off ch=14 n=43 v=64
464640 On ch=14 n=36 v=28
465600 Off ch=14 n=36 v=64
465600 Meta TrkEnd
TrkEnd
MTrk
0 SeqSpec 43 00 01 ff
0 Meta TrkName "Contrabass(s)"
1920 PrCh ch=15 p=7
1930 Par ch=15 c=7 v=100
1940 Par ch=15 c=10 v=64
1950 Par ch=15 c=11 v=127
1960 Par ch=15 c=20 v=127
1970 Par ch=15 c=91 v=0
1980 Par ch=15 c=93 v=0
1990 Par ch=15 c=94 v=0
2000 Par ch=15 c=101 v=0
2010 Par ch=15 c=100 v=0
2020 Par ch=15 c=6 v=2
2030 Par ch=15 c=101 v=127
2040 Par ch=15 c=100 v=127
34560 On ch=15 n=51 v=101
35296 Off ch=15 n=51 v=100
36480 On ch=15 n=51 v=101
37216 Off ch=15 n=51 v=100
38400 On ch=15 n=51 v=101
39136 Off ch=15 n=51 v=100
40320 On ch=15 n=51 v=101
41184 Off ch=15 n=51 v=100
41280 On ch=15 n=56 v=101
42144 Off ch=15 n=56 v=100
42240 On ch=15 n=51 v=101
42976 Off ch=15 n=51 v=100
44160 On ch=15 n=51 v=101
44896 Off ch=15 n=51 v=100
46080 On ch=15 n=51 v=101
46816 Off ch=15 n=51 v=100
48000 On ch=15 n=56 v=101
48864 Off ch=15 n=56 v=100
48960 On ch=15 n=54 v=101
49824 Off ch=15 n=54 v=100
49920 On ch=15 n=51 v=101
50656 Off ch=15 n=51 v=100
51840 On ch=15 n=51 v=101
52576 Off ch=15 n=51 v=100
53760 On ch=15 n=51 v=101
54496 Off ch=15 n=51 v=100
55680 On ch=15 n=51 v=101
56544 Off ch=15 n=51 v=100
56640 On ch=15 n=56 v=101
57504 Off ch=15 n=56 v=100
57600 On ch=15 n=51 v=101
58336 Off ch=15 n=51 v=100
59520 On ch=15 n=51 v=101
60256 Off ch=15 n=51 v=100
61440 On ch=15 n=51 v=101
62176 Off ch=15 n=51 v=100
63360 On ch=15 n=56 v=101
64224 Off ch=15 n=56 v=100
64320 On ch=15 n=54 v=101
65184 Off ch=15 n=54 v=100
65280 On ch=15 n=51 v=87
66016 Off ch=15 n=51 v=100
67200 On ch=15 n=51 v=87
67936 Off ch=15 n=51 v=100
69120 On ch=15 n=51 v=87
69856 Off ch=15 n=51 v=100
71040 On ch=15 n=51 v=87
71520 On ch=15 n=63 v=87
71904 Off ch=15 n=51 v=100
72000 On ch=15 n=56 v=87
72384 Off ch=15 n=63 v=100
72480 On ch=15 n=44 v=87
72864 Off ch=15 n=56 v=100
72960 On ch=15 n=47 v=87
73344 Off ch=15 n=44 v=100
73696 Off ch=15 n=47 v=100
74880 On ch=15 n=47 v=87
75616 Off ch=15 n=47 v=100
76800 On ch=15 n=49 v=87
77536 Off ch=15 n=49 v=100
78720 On ch=15 n=50 v=87
79200 On ch=15 n=62 v=87
79584 Off ch=15 n=50 v=100
79680 On ch=15 n=56 v=87
80064 Off ch=15 n=62 v=100
80160 On ch=15 n=44 v=87
80544 Off ch=15 n=56 v=100
80640 On ch=15 n=51 v=87
81024 Off ch=15 n=44 v=100
81376 Off ch=15 n=51 v=100
82560 On ch=15 n=51 v=87
83296 Off ch=15 n=51 v=100
84480 On ch=15 n=51 v=87
85216 Off ch=15 n=51 v=100
86400 On ch=15 n=51 v=87
86880 On ch=15 n=63 v=87
87264 Off ch=15 n=51 v=100
87360 On ch=15 n=56 v=87
87744 Off ch=15 n=63 v=100
87840 On ch=15 n=44 v=87
88224 Off ch=15 n=56 v=100
88320 On ch=15 n=47 v=87
88704 Off ch=15 n=44 v=100
89056 Off ch=15 n=47 v=100
90240 On ch=15 n=47 v=87
90976 Off ch=15 n=47 v=100
92160 On ch=15 n=49 v=87
92896 Off ch=15 n=49 v=100
94080 On ch=15 n=50 v=87
94560 On ch=15 n=62 v=87
94944 Off ch=15 n=50 v=100
95040 On ch=15 n=56 v=87
95424 Off ch=15 n=62 v=100
95520 On ch=15 n=44 v=87
95904 Off ch=15 n=56 v=100
96000 On ch=15 n=51 v=87
96384 Off ch=15 n=44 v=100
96736 Off ch=15 n=51 v=100
97920 On ch=15 n=51 v=87
98656 Off ch=15 n=51 v=100
99840 On ch=15 n=51 v=87
100576 Off ch=15 n=51 v=100
101760 On ch=15 n=51 v=87
102240 On ch=15 n=63 v=87
102624 Off ch=15 n=51 v=100
102720 On ch=15 n=56 v=87
103104 Off ch=15 n=63 v=100
103200 On ch=15 n=44 v=87
103584 Off ch=15 n=56 v=100
103680 On ch=15 n=47 v=87
104064 Off ch=15 n=44 v=100
104416 Off ch=15 n=47 v=100
105600 On ch=15 n=47 v=87
106336 Off ch=15 n=47 v=100
107520 On ch=15 n=49 v=87
108256 Off ch=15 n=49 v=100
109440 On ch=15 n=50 v=87
109920 On ch=15 n=62 v=87
110304 Off ch=15 n=50 v=100
110400 On ch=15 n=56 v=87
110784 Off ch=15 n=62 v=100
110880 On ch=15 n=44 v=87
111264 Off ch=15 n=56 v=100
111360 On ch=15 n=51 v=87
111744 Off ch=15 n=44 v=100
112096 Off ch=15 n=51 v=100
113280 On ch=15 n=51 v=87
114016 Off ch=15 n=51 v=100
115200 On ch=15 n=51 v=87
115936 Off ch=15 n=51 v=100
117120 On ch=15 n=51 v=87
117600 On ch=15 n=63 v=87
117984 Off ch=15 n=51 v=100
118080 On ch=15 n=56 v=87
118464 Off ch=15 n=63 v=100
118560 On ch=15 n=44 v=87
118944 Off ch=15 n=56 v=100
119040 On ch=15 n=47 v=87
119424 Off ch=15 n=44 v=100
119776 Off ch=15 n=47 v=100
120960 On ch=15 n=47 v=87
121696 Off ch=15 n=47 v=100
122880 On ch=15 n=49 v=87
123616 Off ch=15 n=49 v=100
124800 On ch=15 n=50 v=87
125280 On ch=15 n=62 v=87
125664 Off ch=15 n=50 v=100
125760 On ch=15 n=56 v=87
126144 Off ch=15 n=62 v=100
126240 On ch=15 n=44 v=87
126624 Off ch=15 n=56 v=100
126720 On ch=15 n=47 v=87
127104 Off ch=15 n=44 v=100
127456 Off ch=15 n=47 v=100
128640 On ch=15 n=47 v=87
129376 Off ch=15 n=47 v=100
130560 On ch=15 n=49 v=87
131296 Off ch=15 n=49 v=100
132480 On ch=15 n=49 v=87
132960 On ch=15 n=61 v=87
133344 Off ch=15 n=49 v=100
133440 On ch=15 n=56 v=87
133824 Off ch=15 n=61 v=100
133920 On ch=15 n=44 v=87
134304 Off ch=15 n=56 v=100
134400 On ch=15 n=51 v=87
134784 Off ch=15 n=44 v=100
135136 Off ch=15 n=51 v=100
136320 On ch=15 n=51 v=87
137056 Off ch=15 n=51 v=100
138240 On ch=15 n=51 v=87
138976 Off ch=15 n=51 v=100
140160 On ch=15 n=51 v=87
140640 On ch=15 n=63 v=87
141024 Off ch=15 n=51 v=100
141120 On ch=15 n=58 v=87
141504 Off ch=15 n=63 v=100
141600 On ch=15 n=46 v=87
141984 Off ch=15 n=58 v=100
142080 On ch=15 n=47 v=87
142464 Off ch=15 n=46 v=100
142816 Off ch=15 n=47 v=100
144000 On ch=15 n=47 v=87
144736 Off ch=15 n=47 v=100
145920 On ch=15 n=49 v=87
146656 Off ch=15 n=49 v=100
147840 On ch=15 n=49 v=87
148320 On ch=15 n=61 v=87
148704 Off ch=15 n=49 v=100
148800 On ch=15 n=56 v=87
149184 Off ch=15 n=61 v=100
149280 On ch=15 n=44 v=87
149664 Off ch=15 n=56 v=100
149760 On ch=15 n=51 v=87
150144 Off ch=15 n=44 v=100
150496 Off ch=15 n=51 v=100
151680 On ch=15 n=51 v=87
152416 Off ch=15 n=51 v=100
153600 On ch=15 n=51 v=87
154336 Off ch=15 n=51 v=100
155520 On ch=15 n=51 v=87
156000 On ch=15 n=63 v=87
156384 Off ch=15 n=51 v=100
156480 On ch=15 n=58 v=87
156864 Off ch=15 n=63 v=100
156960 On ch=15 n=46 v=87
157344 Off ch=15 n=58 v=100
157440 On ch=15 n=47 v=87
157824 Off ch=15 n=46 v=100
158176 Off ch=15 n=47 v=100
159360 On ch=15 n=47 v=87
160096 Off ch=15 n=47 v=100
161280 On ch=15 n=49 v=87
162016 Off ch=15 n=49 v=100
163200 On ch=15 n=49 v=87
163680 On ch=15 n=61 v=87
164064 Off ch=15 n=49 v=100
164160 On ch=15 n=56 v=87
164544 Off ch=15 n=61 v=100
164640 On ch=15 n=44 v=87
165024 Off ch=15 n=56 v=100
165120 On ch=15 n=51 v=87
165504 Off ch=15 n=44 v=100
165856 Off ch=15 n=51 v=100
167040 On ch=15 n=51 v=87
167776 Off ch=15 n=51 v=100
168960 On ch=15 n=51 v=87
169696 Off ch=15 n=51 v=100
170880 On ch=15 n=51 v=87
171360 On ch=15 n=63 v=87
171744 Off ch=15 n=51 v=100
171840 On ch=15 n=58 v=87
172224 Off ch=15 n=63 v=100
172320 On ch=15 n=46 v=87
172704 Off ch=15 n=58 v=100
172800 On ch=15 n=47 v=87
173184 Off ch=15 n=46 v=100
173536 Off ch=15 n=47 v=100
174720 On ch=15 n=47 v=87
175456 Off ch=15 n=47 v=100
176640 On ch=15 n=49 v=87
177376 Off ch=15 n=49 v=100
178560 On ch=15 n=49 v=87
179040 On ch=15 n=61 v=87
179424 Off ch=15 n=49 v=100
179520 On ch=15 n=56 v=87
179904 Off ch=15 n=61 v=100
180000 On ch=15 n=44 v=87
180384 Off ch=15 n=56 v=100
180480 On ch=15 n=51 v=87
180864 Off ch=15 n=44 v=100
181216 Off ch=15 n=51 v=100
182400 On ch=15 n=51 v=87
183136 Off ch=15 n=51 v=100
184320 On ch=15 n=51 v=87
185056 Off ch=15 n=51 v=100
186240 On ch=15 n=51 v=87
187104 Off ch=15 n=51 v=100
216960 On ch=15 n=44 v=103
217824 Off ch=15 n=44 v=100
217920 On ch=15 n=42 v=106
218784 Off ch=15 n=42 v=100
218880 On ch=15 n=39 v=117
219616 Off ch=15 n=39 v=100
220800 On ch=15 n=39 v=117
221536 Off ch=15 n=39 v=100
222720 On ch=15 n=39 v=117
223456 Off ch=15 n=39 v=100
224640 On ch=15 n=39 v=117
225504 Off ch=15 n=39 v=100
225600 On ch=15 n=44 v=117
226464 Off ch=15 n=44 v=100
226560 On ch=15 n=39 v=117
227296 Off ch=15 n=39 v=100
228480 On ch=15 n=39 v=117
229216 Off ch=15 n=39 v=100
230400 On ch=15 n=39 v=117
231136 Off ch=15 n=39 v=100
232320 On ch=15 n=44 v=117
233184 Off ch=15 n=44 v=100
233280 On ch=15 n=42 v=117
234144 Off ch=15 n=42 v=100
234240 On ch=15 n=39 v=116
234976 Off ch=15 n=39 v=100
236160 On ch=15 n=39 v=116
236896 Off ch=15 n=39 v=100
238080 On ch=15 n=39 v=116
238816 Off ch=15 n=39 v=100
240000 On ch=15 n=39 v=116
240864 Off ch=15 n=39 v=100
240960 On ch=15 n=44 v=115
241824 Off ch=15 n=44 v=100
241920 On ch=15 n=39 v=115
242656 Off ch=15 n=39 v=100
243840 On ch=15 n=39 v=115
244576 Off ch=15 n=39 v=100
245760 On ch=15 n=39 v=114
246496 Off ch=15 n=39 v=100
247680 On ch=15 n=44 v=114
248544 Off ch=15 n=44 v=100
248640 On ch=15 n=42 v=114
249504 Off ch=15 n=42 v=100
249600 On ch=15 n=51 v=95
250336 Off ch=15 n=51 v=100
251520 On ch=15 n=51 v=95
252256 Off ch=15 n=51 v=100
253440 On ch=15 n=51 v=95
254176 Off ch=15 n=51 v=100
255360 On ch=15 n=51 v=95
255840 On ch=15 n=63 v=95
256224 Off ch=15 n=51 v=100
256320 On ch=15 n=56 v=95
256704 Off ch=15 n=63 v=100
256800 On ch=15 n=44 v=95
257184 Off ch=15 n=56 v=100
257280 On ch=15 n=47 v=95
257664 Off ch=15 n=44 v=100
258016 Off ch=15 n=47 v=100
259200 On ch=15 n=47 v=95
259936 Off ch=15 n=47 v=100
261120 On ch=15 n=49 v=95
261856 Off ch=15 n=49 v=100
263040 On ch=15 n=50 v=95
263520 On ch=15 n=62 v=95
263904 Off ch=15 n=50 v=100
264000 On ch=15 n=56 v=95
264384 Off ch=15 n=62 v=100
264480 On ch=15 n=44 v=95
264864 Off ch=15 n=56 v=100
264960 On ch=15 n=51 v=95
265344 Off ch=15 n=44 v=100
265696 Off ch=15 n=51 v=100
266880 On ch=15 n=51 v=95
267616 Off ch=15 n=51 v=100
268800 On ch=15 n=51 v=95
269536 Off ch=15 n=51 v=100
270720 On ch=15 n=51 v=95
271200 On ch=15 n=63 v=95
271584 Off ch=15 n=51 v=100
271680 On ch=15 n=56 v=96
272064 Off ch=15 n=63 v=100
272160 On ch=15 n=44 v=96
272544 Off ch=15 n=56 v=100
272640 On ch=15 n=47 v=96
273024 Off ch=15 n=44 v=100
273376 Off ch=15 n=47 v=100
274560 On ch=15 n=47 v=96
275296 Off ch=15 n=47 v=100
276480 On ch=15 n=49 v=96
277216 Off ch=15 n=49 v=100
278400 On ch=15 n=50 v=96
278880 On ch=15 n=62 v=96
279264 Off ch=15 n=50 v=100
279360 On ch=15 n=56 v=96
279744 Off ch=15 n=62 v=100
279840 On ch=15 n=44 v=96
280224 Off ch=15 n=56 v=100
280320 On ch=15 n=51 v=97
280704 Off ch=15 n=44 v=100
281056 Off ch=15 n=51 v=100
282240 On ch=15 n=51 v=99
282976 Off ch=15 n=51 v=100
284160 On ch=15 n=51 v=99
284896 Off ch=15 n=51 v=100
286080 On ch=15 n=51 v=99
286560 On ch=15 n=63 v=99
286944 Off ch=15 n=51 v=100
287040 On ch=15 n=56 v=99
287424 Off ch=15 n=63 v=100
287520 On ch=15 n=44 v=99
287904 Off ch=15 n=56 v=100
288000 On ch=15 n=47 v=99
288384 Off ch=15 n=44 v=100
288736 Off ch=15 n=47 v=100
289920 On ch=15 n=47 v=99
290656 Off ch=15 n=47 v=100
291840 On ch=15 n=49 v=100
292576 Off ch=15 n=49 v=100
293760 On ch=15 n=50 v=100
294240 On ch=15 n=62 v=100
294624 Off ch=15 n=50 v=100
294720 On ch=15 n=56 v=101
295104 Off ch=15 n=62 v=100
295200 On ch=15 n=44 v=101
295584 Off ch=15 n=56 v=100
295680 On ch=15 n=51 v=101
296064 Off ch=15 n=44 v=100
296416 Off ch=15 n=51 v=100
297600 On ch=15 n=51 v=102
298336 Off ch=15 n=51 v=100
299520 On ch=15 n=51 v=103
300256 Off ch=15 n=51 v=100
301440 On ch=15 n=51 v=103
301920 On ch=15 n=63 v=104
302304 Off ch=15 n=51 v=100
302400 On ch=15 n=56 v=104
302784 Off ch=15 n=63 v=100
302880 On ch=15 n=44 v=104
303264 Off ch=15 n=56 v=100
303360 On ch=15 n=47 v=105
303744 Off ch=15 n=44 v=100
304096 Off ch=15 n=47 v=100
305280 On ch=15 n=47 v=106
306016 Off ch=15 n=47 v=100
307200 On ch=15 n=49 v=107
307936 Off ch=15 n=49 v=100
309120 On ch=15 n=50 v=108
309600 On ch=15 n=62 v=109
309984 Off ch=15 n=50 v=100
310080 On ch=15 n=56 v=109
310464 Off ch=15 n=62 v=100
310560 On ch=15 n=44 v=109
310944 Off ch=15 n=56 v=100
311040 On ch=15 n=47 v=110
311424 Off ch=15 n=44 v=100
311520 Off ch=15 n=47 v=64
311520 On ch=15 n=51 v=102
312000 Off ch=15 n=51 v=64
312000 On ch=15 n=59 v=102
312480 Off ch=15 n=59 v=64
312480 On ch=15 n=54 v=102
312960 Off ch=15 n=54 v=64
312960 On ch=15 n=47 v=109
313440 Off ch=15 n=47 v=64
313440 On ch=15 n=51 v=102
313920 Off ch=15 n=51 v=64
313920 On ch=15 n=59 v=102
314400 Off ch=15 n=59 v=64
314400 On ch=15 n=54 v=102
314880 Off ch=15 n=54 v=64
314880 On ch=15 n=49 v=109
315360 Off ch=15 n=49 v=64
315360 On ch=15 n=53 v=102
315840 Off ch=15 n=53 v=64
315840 On ch=15 n=61 v=102
316320 Off ch=15 n=61 v=64
316320 On ch=15 n=56 v=102
316800 Off ch=15 n=56 v=64
316800 On ch=15 n=49 v=110
317280 Off ch=15 n=49 v=64
317280 On ch=15 n=53 v=102
317760 Off ch=15 n=53 v=64
317760 On ch=15 n=61 v=102
318240 Off ch=15 n=61 v=64
318240 On ch=15 n=56 v=102
318720 Off ch=15 n=56 v=64
318720 On ch=15 n=51 v=111
319200 Off ch=15 n=51 v=64
319200 On ch=15 n=54 v=102
319680 Off ch=15 n=54 v=64
319680 On ch=15 n=63 v=102
320160 Off ch=15 n=63 v=64
320160 On ch=15 n=58 v=102
320640 Off ch=15 n=58 v=64
320640 On ch=15 n=51 v=111
321120 Off ch=15 n=51 v=64
321120 On ch=15 n=54 v=102
321600 Off ch=15 n=54 v=64
321600 On ch=15 n=63 v=102
322080 Off ch=15 n=63 v=64
322080 On ch=15 n=58 v=102
322560 Off ch=15 n=58 v=64
322560 On ch=15 n=51 v=109
323040 Off ch=15 n=51 v=64
323040 On ch=15 n=54 v=102
323520 Off ch=15 n=54 v=64
323520 On ch=15 n=63 v=102
324000 Off ch=15 n=63 v=64
324000 On ch=15 n=58 v=102
324480 Off ch=15 n=58 v=64
324480 On ch=15 n=51 v=109
324960 Off ch=15 n=51 v=64
324960 On ch=15 n=54 v=102
325440 Off ch=15 n=54 v=64
325440 On ch=15 n=63 v=102
325920 Off ch=15 n=63 v=64
325920 On ch=15 n=58 v=102
326400 Off ch=15 n=58 v=64
326400 On ch=15 n=47 v=110
326880 Off ch=15 n=47 v=64
326880 On ch=15 n=51 v=102
327360 Off ch=15 n=51 v=64
327360 On ch=15 n=59 v=102
327840 Off ch=15 n=59 v=64
327840 On ch=15 n=54 v=102
328320 Off ch=15 n=54 v=64
328320 On ch=15 n=47 v=109
328800 Off ch=15 n=47 v=64
328800 On ch=15 n=51 v=102
329280 Off ch=15 n=51 v=64
329280 On ch=15 n=59 v=102
329760 Off ch=15 n=59 v=64
329760 On ch=15 n=54 v=102
330240 Off ch=15 n=54 v=64
330240 On ch=15 n=49 v=109
330720 Off ch=15 n=49 v=64
330720 On ch=15 n=53 v=102
331200 Off ch=15 n=53 v=64
331200 On ch=15 n=61 v=102
331680 Off ch=15 n=61 v=64
331680 On ch=15 n=56 v=102
332160 Off ch=15 n=56 v=64
332160 On ch=15 n=49 v=110
332640 Off ch=15 n=49 v=64
332640 On ch=15 n=53 v=102
333120 Off ch=15 n=53 v=64
333120 On ch=15 n=61 v=102
333600 Off ch=15 n=61 v=64
333600 On ch=15 n=56 v=102
334080 Off ch=15 n=56 v=64
334080 On ch=15 n=51 v=111
334560 Off ch=15 n=51 v=64
334560 On ch=15 n=54 v=102
335040 Off ch=15 n=54 v=64
335040 On ch=15 n=63 v=102
335520 Off ch=15 n=63 v=64
335520 On ch=15 n=58 v=102
336000 Off ch=15 n=58 v=64
336000 On ch=15 n=51 v=111
336480 Off ch=15 n=51 v=64
336480 On ch=15 n=54 v=102
336960 Off ch=15 n=54 v=64
336960 On ch=15 n=63 v=102
337440 Off ch=15 n=63 v=64
337440 On ch=15 n=58 v=102
337920 Off ch=15 n=58 v=64
337920 On ch=15 n=51 v=109
338400 Off ch=15 n=51 v=64
338400 On ch=15 n=54 v=102
338880 Off ch=15 n=54 v=64
338880 On ch=15 n=63 v=102
339360 Off ch=15 n=63 v=64
339360 On ch=15 n=58 v=102
339840 Off ch=15 n=58 v=64
339840 On ch=15 n=51 v=109
340320 Off ch=15 n=51 v=64
340320 On ch=15 n=54 v=102
340800 Off ch=15 n=54 v=64
340800 On ch=15 n=63 v=102
341280 Off ch=15 n=63 v=64
341280 On ch=15 n=58 v=102
341760 Off ch=15 n=58 v=64
341760 On ch=15 n=47 v=110
342240 Off ch=15 n=47 v=64
342240 On ch=15 n=51 v=102
342720 Off ch=15 n=51 v=64
342720 On ch=15 n=59 v=102
343200 Off ch=15 n=59 v=64
343200 On ch=15 n=54 v=102
343680 Off ch=15 n=54 v=64
343680 On ch=15 n=47 v=109
344160 Off ch=15 n=47 v=64
344160 On ch=15 n=51 v=102
344640 Off ch=15 n=51 v=64
344640 On ch=15 n=59 v=102
345120 Off ch=15 n=59 v=64
345120 On ch=15 n=54 v=102
345600 Off ch=15 n=54 v=64
345600 On ch=15 n=49 v=109
346080 Off ch=15 n=49 v=64
346080 On ch=15 n=53 v=102
346560 Off ch=15 n=53 v=64
346560 On ch=15 n=61 v=102
347040 Off ch=15 n=61 v=64
347040 On ch=15 n=56 v=102
347520 Off ch=15 n=56 v=64
347520 On ch=15 n=49 v=110
348000 Off ch=15 n=49 v=64
348000 On ch=15 n=53 v=102
348480 Off ch=15 n=53 v=64
348480 On ch=15 n=61 v=102
348960 Off ch=15 n=61 v=64
348960 On ch=15 n=56 v=102
349440 Off ch=15 n=56 v=64
349440 On ch=15 n=51 v=111
349920 Off ch=15 n=51 v=64
349920 On ch=15 n=54 v=102
350400 Off ch=15 n=54 v=64
350400 On ch=15 n=63 v=102
350880 Off ch=15 n=63 v=64
350880 On ch=15 n=58 v=102
351360 Off ch=15 n=58 v=64
351360 On ch=15 n=51 v=111
351840 Off ch=15 n=51 v=64
351840 On ch=15 n=54 v=102
352320 Off ch=15 n=54 v=64
352320 On ch=15 n=63 v=102
352800 Off ch=15 n=63 v=64
352800 On ch=15 n=58 v=102
353280 Off ch=15 n=58 v=64
353280 On ch=15 n=51 v=109
353760 Off ch=15 n=51 v=64
353760 On ch=15 n=54 v=102
354240 Off ch=15 n=54 v=64
354240 On ch=15 n=63 v=102
354720 Off ch=15 n=63 v=64
354720 On ch=15 n=58 v=102
355200 Off ch=15 n=58 v=64
355200 On ch=15 n=51 v=109
355680 Off ch=15 n=51 v=64
355680 On ch=15 n=54 v=102
356160 Off ch=15 n=54 v=64
356160 On ch=15 n=63 v=102
356640 Off ch=15 n=63 v=64
356640 On ch=15 n=58 v=102
357120 Off ch=15 n=58 v=64
357120 On ch=15 n=47 v=110
357600 Off ch=15 n=47 v=64
357600 On ch=15 n=51 v=102
358080 Off ch=15 n=51 v=64
358080 On ch=15 n=59 v=102
358560 Off ch=15 n=59 v=64
358560 On ch=15 n=54 v=102
359040 Off ch=15 n=54 v=64
359040 On ch=15 n=47 v=109
359520 Off ch=15 n=47 v=64
359520 On ch=15 n=51 v=102
360000 Off ch=15 n=51 v=64
360000 On ch=15 n=59 v=102
360480 Off ch=15 n=59 v=64
360480 On ch=15 n=54 v=102
360960 Off ch=15 n=54 v=64
360960 On ch=15 n=49 v=109
361440 Off ch=15 n=49 v=64
361440 On ch=15 n=53 v=102
361920 Off ch=15 n=53 v=64
361920 On ch=15 n=61 v=102
362400 Off ch=15 n=61 v=64
362400 On ch=15 n=56 v=102
362880 Off ch=15 n=56 v=64
362880 On ch=15 n=49 v=110
363360 Off ch=15 n=49 v=64
363360 On ch=15 n=53 v=102
363840 Off ch=15 n=53 v=64
363840 On ch=15 n=61 v=102
364320 Off ch=15 n=61 v=64
364320 On ch=15 n=56 v=102
364800 Off ch=15 n=56 v=64
364800 On ch=15 n=51 v=111
365280 Off ch=15 n=51 v=64
365280 On ch=15 n=54 v=102
365760 Off ch=15 n=54 v=64
365760 On ch=15 n=63 v=102
366240 Off ch=15 n=63 v=64
366240 On ch=15 n=58 v=102
366720 Off ch=15 n=58 v=64
366720 On ch=15 n=51 v=111
367200 Off ch=15 n=51 v=64
367200 On ch=15 n=54 v=102
367680 Off ch=15 n=54 v=64
367680 On ch=15 n=63 v=102
368160 Off ch=15 n=63 v=64
368160 On ch=15 n=58 v=102
368640 Off ch=15 n=58 v=64
368640 On ch=15 n=51 v=109
369120 Off ch=15 n=51 v=64
369120 On ch=15 n=54 v=102
369600 Off ch=15 n=54 v=64
369600 On ch=15 n=63 v=102
370080 Off ch=15 n=63 v=64
370080 On ch=15 n=58 v=102
370560 Off ch=15 n=58 v=64
370560 On ch=15 n=51 v=109
371040 Off ch=15 n=51 v=64
403200 On ch=15 n=48 v=85
404160 Off ch=15 n=48 v=64
404160 On ch=15 n=48 v=76
405120 Off ch=15 n=48 v=64
405120 On ch=15 n=48 v=80
406080 Off ch=15 n=48 v=64
406080 On ch=15 n=48 v=78
407040 Off ch=15 n=48 v=64
407040 On ch=15 n=50 v=85
408000 Off ch=15 n=50 v=64
408000 On ch=15 n=50 v=76
408960 Off ch=15 n=50 v=64
408960 On ch=15 n=50 v=80
409920 Off ch=15 n=50 v=64
409920 On ch=15 n=50 v=78
410880 Off ch=15 n=50 v=64
410880 On ch=15 n=52 v=85
411840 Off ch=15 n=52 v=64
411840 On ch=15 n=52 v=76
412800 Off ch=15 n=52 v=64
412800 On ch=15 n=52 v=80
413760 Off ch=15 n=52 v=64
413760 On ch=15 n=52 v=78
414720 Off ch=15 n=52 v=64
414720 On ch=15 n=52 v=85
415680 Off ch=15 n=52 v=64
415680 On ch=15 n=52 v=76
416640 Off ch=15 n=52 v=64
416640 On ch=15 n=52 v=80
417600 Off ch=15 n=52 v=64
417600 On ch=15 n=52 v=78
418560 Off ch=15 n=52 v=64
418560 On ch=15 n=48 v=85
419520 Off ch=15 n=48 v=64
419520 On ch=15 n=48 v=76
420480 Off ch=15 n=48 v=64
420480 On ch=15 n=48 v=80
421440 Off ch=15 n=48 v=64
421440 On ch=15 n=48 v=78
422400 Off ch=15 n=48 v=64
422400 On ch=15 n=50 v=85
423360 Off ch=15 n=50 v=64
423360 On ch=15 n=50 v=76
424320 Off ch=15 n=50 v=64
424320 On ch=15 n=50 v=80
425280 Off ch=15 n=50 v=64
425280 On ch=15 n=50 v=78
426240 Off ch=15 n=50 v=64
426240 On ch=15 n=52 v=85
427200 Off ch=15 n=52 v=64
427200 On ch=15 n=52 v=76
428160 Off ch=15 n=52 v=64
428160 On ch=15 n=52 v=80
429120 Off ch=15 n=52 v=64
429120 On ch=15 n=52 v=78
430080 Off ch=15 n=52 v=64
430080 On ch=15 n=52 v=85
431040 Off ch=15 n=52 v=64
431040 On ch=15 n=52 v=76
432000 Off ch=15 n=52 v=64
432000 On ch=15 n=52 v=80
432960 Off ch=15 n=52 v=64
432960 On ch=15 n=52 v=78
433920 Off ch=15 n=52 v=64
433920 On ch=15 n=48 v=109
434880 Off ch=15 n=48 v=64
434880 On ch=15 n=48 v=100
435840 Off ch=15 n=48 v=64
435840 On ch=15 n=48 v=104
436800 Off ch=15 n=48 v=64
436800 On ch=15 n=48 v=102
437760 Off ch=15 n=48 v=64
437760 On ch=15 n=50 v=109
438720 Off ch=15 n=50 v=64
438720 On ch=15 n=50 v=100
439680 Off ch=15 n=50 v=64
439680 On ch=15 n=50 v=104
440640 Off ch=15 n=50 v=64
440640 On ch=15 n=50 v=102
441600 Off ch=15 n=50 v=64
441600 On ch=15 n=52 v=109
442560 Off ch=15 n=52 v=64
442560 On ch=15 n=52 v=100
443520 Off ch=15 n=52 v=64
443520 On ch=15 n=52 v=104
444480 Off ch=15 n=52 v=64
444480 On ch=15 n=52 v=102
445440 Off ch=15 n=52 v=64
445440 On ch=15 n=52 v=109
446400 Off ch=15 n=52 v=64
446400 On ch=15 n=52 v=100
447360 Off ch=15 n=52 v=64
447360 On ch=15 n=52 v=104
448320 Off ch=15 n=52 v=64
448320 On ch=15 n=52 v=102
449280 Off ch=15 n=52 v=64
449280 On ch=15 n=48 v=109
450240 Off ch=15 n=48 v=64
450240 On ch=15 n=48 v=100
451200 Off ch=15 n=48 v=64
451200 On ch=15 n=48 v=104
452160 Off ch=15 n=48 v=64
452160 On ch=15 n=48 v=102
453120 Off ch=15 n=48 v=64
453120 On ch=15 n=50 v=109
454080 Off ch=15 n=50 v=64
454080 On ch=15 n=50 v=100
455040 Off ch=15 n=50 v=64
455040 On ch=15 n=50 v=104
456000 Off ch=15 n=50 v=64
456000 On ch=15 n=50 v=102
456960 Off ch=15 n=50 v=64
456960 On ch=15 n=52 v=109
457920 Off ch=15 n=52 v=64
457920 On ch=15 n=52 v=100
458880 Off ch=15 n=52 v=64
458880 On ch=15 n=52 v=104
459840 Off ch=15 n=52 v=64
459840 On ch=15 n=52 v=102
460800 Off ch=15 n=52 v=64
460800 On ch=15 n=52 v=109
461760 Off ch=15 n=52 v=64
461760 On ch=15 n=52 v=100
462720 Off ch=15 n=52 v=64
462720 On ch=15 n=57 v=47
463680 Off ch=15 n=57 v=64
463680 On ch=15 n=55 v=53
464640 Off ch=15 n=55 v=64
464640 On ch=15 n=48 v=41
465600 Off ch=15 n=48 v=64
465600 Meta TrkEnd
TrkEnd
]]

end