PLUGIN.Name = "Flowering_strpattern_c"
PLUGIN.DefaultOn = false
PLUGIN.Description = ""
PLUGIN.Trigger = true

function PLUGIN:Load()
GUNSTRUMENTAL_CH1 = "1"
GUNSTRUMENTAL_CH2 = "2"
GUNSTRUMENTAL_DELAYBASE = 120
GUNSTRUMENTAL_NODELAYFILTER = true
GUNSTRUMENTAL_TAB =  [[MFile 1 2 960
MTrk
3840 On ch=1 n=71 v=100
3840 Tempo 500000
3840 KeySig 2 major
4068 Off ch=1 n=71 v=100
4320 On ch=1 n=79 v=100
4776 Off ch=1 n=79 v=100
4800 On ch=1 n=78 v=100
5028 Off ch=1 n=78 v=100
5040 On ch=1 n=79 v=100
5268 Off ch=1 n=79 v=100
5280 On ch=1 n=78 v=100
5736 Off ch=1 n=78 v=100
5760 On ch=1 n=81 v=100
5988 Off ch=1 n=81 v=100
6240 On ch=1 n=79 v=100
6696 Off ch=1 n=79 v=100
6720 On ch=1 n=78 v=100
6948 Off ch=1 n=78 v=100
6960 On ch=1 n=79 v=100
7188 Off ch=1 n=79 v=100
7200 On ch=1 n=78 v=100
7428 Off ch=1 n=78 v=100
7440 On ch=1 n=74 v=100
7668 Off ch=1 n=74 v=100
7680 On ch=1 n=76 v=100
7908 Off ch=1 n=76 v=100
8160 On ch=1 n=83 v=100
8616 Off ch=1 n=83 v=100
8640 On ch=1 n=81 v=100
8868 Off ch=1 n=81 v=100
8880 On ch=1 n=83 v=100
9108 Off ch=1 n=83 v=100
9120 On ch=1 n=81 v=100
9348 Off ch=1 n=81 v=100
9360 On ch=1 n=83 v=100
9588 Off ch=1 n=83 v=100
9600 On ch=1 n=86 v=100
9828 Off ch=1 n=86 v=100
10080 On ch=1 n=83 v=100
10536 Off ch=1 n=83 v=100
10560 On ch=1 n=81 v=100
10788 Off ch=1 n=81 v=100
11040 On ch=1 n=83 v=100
11496 Off ch=1 n=83 v=100
11520 On ch=1 n=71 v=100
11748 Off ch=1 n=71 v=100
12000 On ch=1 n=79 v=100
12456 Off ch=1 n=79 v=100
12480 On ch=1 n=78 v=100
12708 Off ch=1 n=78 v=100
12720 On ch=1 n=79 v=100
12948 Off ch=1 n=79 v=100
12960 On ch=1 n=78 v=100
13416 Off ch=1 n=78 v=100
13440 On ch=1 n=81 v=100
13668 Off ch=1 n=81 v=100
13920 On ch=1 n=79 v=100
14376 Off ch=1 n=79 v=100
14400 On ch=1 n=78 v=100
14628 Off ch=1 n=78 v=100
14640 On ch=1 n=79 v=100
14868 Off ch=1 n=79 v=100
14880 On ch=1 n=78 v=100
15108 Off ch=1 n=78 v=100
15120 On ch=1 n=74 v=100
15348 Off ch=1 n=74 v=100
15360 On ch=1 n=76 v=100
15588 Off ch=1 n=76 v=100
15840 On ch=1 n=83 v=100
16296 Off ch=1 n=83 v=100
16320 On ch=1 n=81 v=100
16548 Off ch=1 n=81 v=100
16560 On ch=1 n=83 v=100
16788 Off ch=1 n=83 v=100
16800 On ch=1 n=81 v=100
17028 Off ch=1 n=81 v=100
17040 On ch=1 n=83 v=100
17268 Off ch=1 n=83 v=100
17280 On ch=1 n=87 v=100
17508 Off ch=1 n=87 v=100
17760 On ch=1 n=83 v=100
18216 Off ch=1 n=83 v=100
18240 On ch=1 n=81 v=100
18468 Off ch=1 n=81 v=100
18720 On ch=1 n=83 v=100
19176 Off ch=1 n=83 v=100
19200 On ch=1 n=71 v=100
19428 Off ch=1 n=71 v=100
19680 On ch=1 n=79 v=100
20136 Off ch=1 n=79 v=100
20160 On ch=1 n=78 v=100
20388 Off ch=1 n=78 v=100
20400 On ch=1 n=79 v=100
20628 Off ch=1 n=79 v=100
20640 On ch=1 n=78 v=100
21096 Off ch=1 n=78 v=100
21120 On ch=1 n=81 v=100
21348 Off ch=1 n=81 v=100
21600 On ch=1 n=79 v=100
22056 Off ch=1 n=79 v=100
22080 On ch=1 n=78 v=100
22308 Off ch=1 n=78 v=100
22320 On ch=1 n=79 v=100
22548 Off ch=1 n=79 v=100
22560 On ch=1 n=78 v=100
22788 Off ch=1 n=78 v=100
22800 On ch=1 n=74 v=100
23028 Off ch=1 n=74 v=100
23040 On ch=1 n=76 v=100
23268 Off ch=1 n=76 v=100
23520 On ch=1 n=83 v=100
23976 Off ch=1 n=83 v=100
24000 On ch=1 n=81 v=100
24228 Off ch=1 n=81 v=100
24240 On ch=1 n=83 v=100
24468 Off ch=1 n=83 v=100
24480 On ch=1 n=81 v=100
24708 Off ch=1 n=81 v=100
24720 On ch=1 n=83 v=100
24948 Off ch=1 n=83 v=100
24960 On ch=1 n=86 v=100
25188 Off ch=1 n=86 v=100
25440 On ch=1 n=83 v=100
25896 Off ch=1 n=83 v=100
25920 On ch=1 n=81 v=100
26148 Off ch=1 n=81 v=100
26400 On ch=1 n=83 v=100
26856 Off ch=1 n=83 v=100
26880 On ch=1 n=71 v=100
27108 Off ch=1 n=71 v=100
27360 On ch=1 n=79 v=100
27816 Off ch=1 n=79 v=100
27840 On ch=1 n=78 v=100
28068 Off ch=1 n=78 v=100
28080 On ch=1 n=79 v=100
28308 Off ch=1 n=79 v=100
28320 On ch=1 n=78 v=100
28776 Off ch=1 n=78 v=100
28800 On ch=1 n=81 v=100
29028 Off ch=1 n=81 v=100
29280 On ch=1 n=79 v=100
29736 Off ch=1 n=79 v=100
29760 On ch=1 n=78 v=100
29988 Off ch=1 n=78 v=100
30000 On ch=1 n=79 v=100
30228 Off ch=1 n=79 v=100
30240 On ch=1 n=78 v=100
30468 Off ch=1 n=78 v=100
30480 On ch=1 n=74 v=100
30708 Off ch=1 n=74 v=100
30720 On ch=1 n=76 v=100
30948 Off ch=1 n=76 v=100
31200 On ch=1 n=83 v=100
31656 Off ch=1 n=83 v=100
31680 On ch=1 n=81 v=100
31908 Off ch=1 n=81 v=100
31920 On ch=1 n=83 v=100
32148 Off ch=1 n=83 v=100
32160 On ch=1 n=81 v=100
32388 Off ch=1 n=81 v=100
32400 On ch=1 n=83 v=100
32628 Off ch=1 n=83 v=100
32640 On ch=1 n=86 v=100
33552 Off ch=1 n=86 v=100
33600 On ch=1 n=88 v=100
34056 Off ch=1 n=88 v=100
34560 On ch=1 n=72 v=100
34560 KeySig 252 major
34788 Off ch=1 n=72 v=100
35040 On ch=1 n=80 v=100
35496 Off ch=1 n=80 v=100
35520 On ch=1 n=79 v=100
35748 Off ch=1 n=79 v=100
35760 On ch=1 n=80 v=100
35988 Off ch=1 n=80 v=100
36000 On ch=1 n=79 v=100
36456 Off ch=1 n=79 v=100
36480 On ch=1 n=82 v=100
36708 Off ch=1 n=82 v=100
36960 On ch=1 n=80 v=100
37416 Off ch=1 n=80 v=100
37440 On ch=1 n=79 v=100
37668 Off ch=1 n=79 v=100
37680 On ch=1 n=80 v=100
37908 Off ch=1 n=80 v=100
37920 On ch=1 n=79 v=100
38148 Off ch=1 n=79 v=100
38160 On ch=1 n=75 v=100
38388 Off ch=1 n=75 v=100
38400 On ch=1 n=77 v=100
38628 Off ch=1 n=77 v=100
38880 On ch=1 n=84 v=100
39336 Off ch=1 n=84 v=100
39360 On ch=1 n=82 v=100
39588 Off ch=1 n=82 v=100
39600 On ch=1 n=84 v=100
39828 Off ch=1 n=84 v=100
39840 On ch=1 n=82 v=100
40068 Off ch=1 n=82 v=100
40080 On ch=1 n=84 v=100
40308 Off ch=1 n=84 v=100
40320 On ch=1 n=87 v=100
40548 Off ch=1 n=87 v=100
40800 On ch=1 n=84 v=100
41256 Off ch=1 n=84 v=100
41280 On ch=1 n=82 v=100
41508 Off ch=1 n=82 v=100
41760 On ch=1 n=84 v=100
42216 Off ch=1 n=84 v=100
42240 On ch=1 n=72 v=100
42468 Off ch=1 n=72 v=100
42720 On ch=1 n=80 v=100
43176 Off ch=1 n=80 v=100
43200 On ch=1 n=79 v=100
43428 Off ch=1 n=79 v=100
43440 On ch=1 n=80 v=100
43668 Off ch=1 n=80 v=100
43680 On ch=1 n=79 v=100
44136 Off ch=1 n=79 v=100
44160 On ch=1 n=82 v=100
44388 Off ch=1 n=82 v=100
44640 On ch=1 n=80 v=100
45096 Off ch=1 n=80 v=100
45120 On ch=1 n=79 v=100
45348 Off ch=1 n=79 v=100
45360 On ch=1 n=80 v=100
45588 Off ch=1 n=80 v=100
45600 On ch=1 n=79 v=100
45828 Off ch=1 n=79 v=100
45840 On ch=1 n=75 v=100
46068 Off ch=1 n=75 v=100
46080 On ch=1 n=77 v=100
46308 Off ch=1 n=77 v=100
46560 On ch=1 n=84 v=100
47016 Off ch=1 n=84 v=100
47040 On ch=1 n=82 v=100
47268 Off ch=1 n=82 v=100
47280 On ch=1 n=84 v=100
47508 Off ch=1 n=84 v=100
47520 On ch=1 n=82 v=100
47748 Off ch=1 n=82 v=100
47760 On ch=1 n=84 v=100
47988 Off ch=1 n=84 v=100
48000 On ch=1 n=88 v=100
48228 Off ch=1 n=88 v=100
48480 On ch=1 n=84 v=100
48936 Off ch=1 n=84 v=100
48960 On ch=1 n=82 v=100
49188 Off ch=1 n=82 v=100
49440 On ch=1 n=84 v=100
49896 Off ch=1 n=84 v=100
49920 On ch=1 n=72 v=100
50148 Off ch=1 n=72 v=100
50400 On ch=1 n=80 v=100
50856 Off ch=1 n=80 v=100
50880 On ch=1 n=79 v=100
51108 Off ch=1 n=79 v=100
51120 On ch=1 n=80 v=100
51348 Off ch=1 n=80 v=100
51360 On ch=1 n=79 v=100
51816 Off ch=1 n=79 v=100
51840 On ch=1 n=82 v=100
52068 Off ch=1 n=82 v=100
52320 On ch=1 n=80 v=100
52776 Off ch=1 n=80 v=100
52800 On ch=1 n=79 v=100
53028 Off ch=1 n=79 v=100
53040 On ch=1 n=80 v=100
53268 Off ch=1 n=80 v=100
53280 On ch=1 n=79 v=100
53508 Off ch=1 n=79 v=100
53520 On ch=1 n=75 v=100
53748 Off ch=1 n=75 v=100
53760 On ch=1 n=77 v=100
53988 Off ch=1 n=77 v=100
54240 On ch=1 n=84 v=100
54696 Off ch=1 n=84 v=100
54720 On ch=1 n=82 v=100
54948 Off ch=1 n=82 v=100
54960 On ch=1 n=84 v=100
55188 Off ch=1 n=84 v=100
55200 On ch=1 n=82 v=100
55428 Off ch=1 n=82 v=100
55440 On ch=1 n=84 v=100
55668 Off ch=1 n=84 v=100
55680 On ch=1 n=87 v=100
55908 Off ch=1 n=87 v=100
56160 On ch=1 n=84 v=100
56616 Off ch=1 n=84 v=100
56640 On ch=1 n=82 v=100
56868 Off ch=1 n=82 v=100
57120 On ch=1 n=84 v=100
57576 Off ch=1 n=84 v=100
57600 On ch=1 n=72 v=100
57828 Off ch=1 n=72 v=100
58080 On ch=1 n=80 v=100
58536 Off ch=1 n=80 v=100
58560 On ch=1 n=79 v=100
58788 Off ch=1 n=79 v=100
58800 On ch=1 n=80 v=100
59028 Off ch=1 n=80 v=100
59040 On ch=1 n=79 v=100
59496 Off ch=1 n=79 v=100
59520 On ch=1 n=82 v=100
59748 Off ch=1 n=82 v=100
60000 On ch=1 n=80 v=100
60456 Off ch=1 n=80 v=100
60480 On ch=1 n=79 v=100
60708 Off ch=1 n=79 v=100
60720 On ch=1 n=80 v=100
60948 Off ch=1 n=80 v=100
60960 On ch=1 n=79 v=100
61188 Off ch=1 n=79 v=100
61200 On ch=1 n=75 v=100
61428 Off ch=1 n=75 v=100
61440 On ch=1 n=77 v=100
61668 Off ch=1 n=77 v=100
61920 On ch=1 n=84 v=100
62376 Off ch=1 n=84 v=100
62400 On ch=1 n=82 v=100
62628 Off ch=1 n=82 v=100
62640 On ch=1 n=84 v=100
62868 Off ch=1 n=84 v=100
62880 On ch=1 n=82 v=100
63108 Off ch=1 n=82 v=100
63120 On ch=1 n=84 v=100
63348 Off ch=1 n=84 v=100
63360 On ch=1 n=87 v=100
64272 Off ch=1 n=87 v=100
64320 On ch=1 n=89 v=100
64776 Off ch=1 n=89 v=100
65280 On ch=1 n=72 v=100
65508 Off ch=1 n=72 v=100
65760 On ch=1 n=80 v=100
66216 Off ch=1 n=80 v=100
66240 On ch=1 n=79 v=100
66468 Off ch=1 n=79 v=100
66480 On ch=1 n=80 v=100
66708 Off ch=1 n=80 v=100
66720 On ch=1 n=79 v=100
67176 Off ch=1 n=79 v=100
67200 On ch=1 n=82 v=100
67428 Off ch=1 n=82 v=100
67680 On ch=1 n=80 v=100
68136 Off ch=1 n=80 v=100
68160 On ch=1 n=79 v=100
68388 Off ch=1 n=79 v=100
68400 On ch=1 n=80 v=100
68628 Off ch=1 n=80 v=100
68640 On ch=1 n=79 v=100
68868 Off ch=1 n=79 v=100
68880 On ch=1 n=75 v=100
69108 Off ch=1 n=75 v=100
69120 On ch=1 n=77 v=100
69348 Off ch=1 n=77 v=100
69600 On ch=1 n=84 v=100
70056 Off ch=1 n=84 v=100
70080 On ch=1 n=82 v=100
70308 Off ch=1 n=82 v=100
70320 On ch=1 n=84 v=100
70548 Off ch=1 n=84 v=100
70560 On ch=1 n=82 v=100
70788 Off ch=1 n=82 v=100
70800 On ch=1 n=84 v=100
71028 Off ch=1 n=84 v=100
71040 On ch=1 n=87 v=100
71268 Off ch=1 n=87 v=100
71520 On ch=1 n=84 v=100
71976 Off ch=1 n=84 v=100
72000 On ch=1 n=82 v=100
72228 Off ch=1 n=82 v=100
72480 On ch=1 n=84 v=100
72936 Off ch=1 n=84 v=100
72960 On ch=1 n=72 v=100
73188 Off ch=1 n=72 v=100
73440 On ch=1 n=80 v=100
73896 Off ch=1 n=80 v=100
73920 On ch=1 n=79 v=100
74148 Off ch=1 n=79 v=100
74160 On ch=1 n=80 v=100
74388 Off ch=1 n=80 v=100
74400 On ch=1 n=79 v=100
74856 Off ch=1 n=79 v=100
74880 On ch=1 n=82 v=100
75108 Off ch=1 n=82 v=100
75360 On ch=1 n=80 v=100
75816 Off ch=1 n=80 v=100
75840 On ch=1 n=79 v=100
76068 Off ch=1 n=79 v=100
76080 On ch=1 n=80 v=100
76308 Off ch=1 n=80 v=100
76320 On ch=1 n=79 v=100
76548 Off ch=1 n=79 v=100
76560 On ch=1 n=75 v=100
76788 Off ch=1 n=75 v=100
76800 On ch=1 n=77 v=100
77028 Off ch=1 n=77 v=100
77280 On ch=1 n=84 v=100
77736 Off ch=1 n=84 v=100
77760 On ch=1 n=82 v=100
77988 Off ch=1 n=82 v=100
78000 On ch=1 n=84 v=100
78228 Off ch=1 n=84 v=100
78240 On ch=1 n=82 v=100
78468 Off ch=1 n=82 v=100
78480 On ch=1 n=84 v=100
78708 Off ch=1 n=84 v=100
78720 On ch=1 n=88 v=100
78948 Off ch=1 n=88 v=100
79200 On ch=1 n=84 v=100
79656 Off ch=1 n=84 v=100
79680 On ch=1 n=82 v=100
79908 Off ch=1 n=82 v=100
80160 On ch=1 n=84 v=100
80616 Off ch=1 n=84 v=100
80640 On ch=1 n=72 v=100
80868 Off ch=1 n=72 v=100
81120 On ch=1 n=80 v=100
81576 Off ch=1 n=80 v=100
81600 On ch=1 n=79 v=100
81828 Off ch=1 n=79 v=100
81840 On ch=1 n=80 v=100
82068 Off ch=1 n=80 v=100
82080 On ch=1 n=79 v=100
82536 Off ch=1 n=79 v=100
82560 On ch=1 n=82 v=100
82788 Off ch=1 n=82 v=100
83040 On ch=1 n=80 v=100
83496 Off ch=1 n=80 v=100
83520 On ch=1 n=79 v=100
83748 Off ch=1 n=79 v=100
83760 On ch=1 n=80 v=100
83988 Off ch=1 n=80 v=100
84000 On ch=1 n=79 v=100
84228 Off ch=1 n=79 v=100
84240 On ch=1 n=75 v=100
84468 Off ch=1 n=75 v=100
84480 On ch=1 n=77 v=100
84708 Off ch=1 n=77 v=100
84960 On ch=1 n=84 v=100
85416 Off ch=1 n=84 v=100
85440 On ch=1 n=82 v=100
85668 Off ch=1 n=82 v=100
85680 On ch=1 n=84 v=100
85908 Off ch=1 n=84 v=100
85920 On ch=1 n=82 v=100
86148 Off ch=1 n=82 v=100
86160 On ch=1 n=84 v=100
86388 Off ch=1 n=84 v=100
86400 On ch=1 n=87 v=100
86628 Off ch=1 n=87 v=100
86880 On ch=1 n=84 v=100
87336 Off ch=1 n=84 v=100
87360 On ch=1 n=82 v=100
87588 Off ch=1 n=82 v=100
87840 On ch=1 n=84 v=100
88296 Off ch=1 n=84 v=100
88320 On ch=1 n=72 v=100
88548 Off ch=1 n=72 v=100
88800 On ch=1 n=80 v=100
89256 Off ch=1 n=80 v=100
89280 On ch=1 n=79 v=100
89508 Off ch=1 n=79 v=100
89520 On ch=1 n=80 v=100
89748 Off ch=1 n=80 v=100
89760 On ch=1 n=79 v=100
90216 Off ch=1 n=79 v=100
90240 On ch=1 n=82 v=100
90468 Off ch=1 n=82 v=100
90720 On ch=1 n=80 v=100
91176 Off ch=1 n=80 v=100
91200 On ch=1 n=79 v=100
91428 Off ch=1 n=79 v=100
91440 On ch=1 n=80 v=100
91668 Off ch=1 n=80 v=100
91680 On ch=1 n=79 v=100
91908 Off ch=1 n=79 v=100
91920 On ch=1 n=75 v=100
92148 Off ch=1 n=75 v=100
92160 On ch=1 n=77 v=100
92388 Off ch=1 n=77 v=100
92640 On ch=1 n=84 v=100
93096 Off ch=1 n=84 v=100
93120 On ch=1 n=82 v=100
93348 Off ch=1 n=82 v=100
93360 On ch=1 n=84 v=100
93588 Off ch=1 n=84 v=100
93600 On ch=1 n=82 v=100
93828 Off ch=1 n=82 v=100
93840 On ch=1 n=84 v=100
94068 Off ch=1 n=84 v=100
94080 On ch=1 n=87 v=100
94992 Off ch=1 n=87 v=100
95040 On ch=1 n=89 v=100
95496 Off ch=1 n=89 v=100
96000 On ch=1 n=79 v=100
96000 KeySig 254 major
96456 Off ch=1 n=79 v=100
96480 On ch=1 n=74 v=100
96936 Off ch=1 n=74 v=100
96960 On ch=1 n=82 v=100
97416 Off ch=1 n=82 v=100
97440 On ch=1 n=74 v=100
97896 Off ch=1 n=74 v=100
97920 On ch=1 n=81 v=100
98376 Off ch=1 n=81 v=100
98400 On ch=1 n=74 v=100
98856 Off ch=1 n=74 v=100
98880 On ch=1 n=79 v=100
99336 Off ch=1 n=79 v=100
99360 On ch=1 n=74 v=100
99816 Off ch=1 n=74 v=100
99840 On ch=1 n=78 v=100
100296 Off ch=1 n=78 v=100
100320 On ch=1 n=74 v=100
100776 Off ch=1 n=74 v=100
100800 On ch=1 n=86 v=100
101256 Off ch=1 n=86 v=100
101280 On ch=1 n=74 v=100
101736 Off ch=1 n=74 v=100
101760 On ch=1 n=81 v=100
102216 Off ch=1 n=81 v=100
102240 On ch=1 n=74 v=100
102696 Off ch=1 n=74 v=100
102720 On ch=1 n=78 v=100
103176 Off ch=1 n=78 v=100
103200 On ch=1 n=74 v=100
103656 Off ch=1 n=74 v=100
103680 On ch=1 n=79 v=100
104136 Off ch=1 n=79 v=100
104160 On ch=1 n=74 v=100
104616 Off ch=1 n=74 v=100
104640 On ch=1 n=82 v=100
105096 Off ch=1 n=82 v=100
105120 On ch=1 n=74 v=100
105576 Off ch=1 n=74 v=100
105600 On ch=1 n=81 v=100
106056 Off ch=1 n=81 v=100
106080 On ch=1 n=74 v=100
106536 Off ch=1 n=74 v=100
106560 On ch=1 n=79 v=100
107016 Off ch=1 n=79 v=100
107040 On ch=1 n=74 v=100
107496 Off ch=1 n=74 v=100
107520 On ch=1 n=78 v=100
107976 Off ch=1 n=78 v=100
108000 On ch=1 n=74 v=100
108456 Off ch=1 n=74 v=100
108480 On ch=1 n=86 v=100
108936 Off ch=1 n=86 v=100
108960 On ch=1 n=74 v=100
109416 Off ch=1 n=74 v=100
109440 On ch=1 n=78 v=100
110808 Off ch=1 n=78 v=100
110880 On ch=1 n=79 v=100
111792 Off ch=1 n=79 v=100
111840 On ch=1 n=74 v=100
112296 Off ch=1 n=74 v=100
112320 On ch=1 n=82 v=100
112776 Off ch=1 n=82 v=100
112800 On ch=1 n=74 v=100
113256 Off ch=1 n=74 v=100
113280 On ch=1 n=81 v=100
113736 Off ch=1 n=81 v=100
113760 On ch=1 n=74 v=100
114216 Off ch=1 n=74 v=100
114240 On ch=1 n=79 v=100
114696 Off ch=1 n=79 v=100
114720 On ch=1 n=78 v=100
115632 Off ch=1 n=78 v=100
115680 On ch=1 n=74 v=100
116136 Off ch=1 n=74 v=100
116160 On ch=1 n=86 v=100
116616 Off ch=1 n=86 v=100
116640 On ch=1 n=74 v=100
117096 Off ch=1 n=74 v=100
117120 On ch=1 n=81 v=100
117576 Off ch=1 n=81 v=100
117600 On ch=1 n=74 v=100
118056 Off ch=1 n=74 v=100
118080 On ch=1 n=78 v=100
118536 Off ch=1 n=78 v=100
118560 On ch=1 n=74 v=100
119016 Off ch=1 n=74 v=100
119040 On ch=1 n=79 v=100
119496 Off ch=1 n=79 v=100
119520 On ch=1 n=74 v=100
119976 Off ch=1 n=74 v=100
120000 On ch=1 n=82 v=100
120456 Off ch=1 n=82 v=100
120480 On ch=1 n=74 v=100
120936 Off ch=1 n=74 v=100
120960 On ch=1 n=84 v=100
121416 Off ch=1 n=84 v=100
121440 On ch=1 n=77 v=100
121896 Off ch=1 n=77 v=100
121920 On ch=1 n=84 v=100
122376 Off ch=1 n=84 v=100
122400 On ch=1 n=81 v=100
122856 Off ch=1 n=81 v=100
122880 On ch=1 n=79 v=100
126072 Off ch=1 n=79 v=100
126240 On ch=1 n=79 v=100
127152 Off ch=1 n=79 v=100
127200 On ch=1 n=74 v=100
127656 Off ch=1 n=74 v=100
127680 On ch=1 n=82 v=100
128136 Off ch=1 n=82 v=100
128160 On ch=1 n=74 v=100
128616 Off ch=1 n=74 v=100
128640 On ch=1 n=81 v=100
129096 Off ch=1 n=81 v=100
129120 On ch=1 n=74 v=100
129576 Off ch=1 n=74 v=100
129600 On ch=1 n=79 v=100
130056 Off ch=1 n=79 v=100
130080 On ch=1 n=78 v=100
130992 Off ch=1 n=78 v=100
131040 On ch=1 n=74 v=100
131496 Off ch=1 n=74 v=100
131520 On ch=1 n=86 v=100
131976 Off ch=1 n=86 v=100
132000 On ch=1 n=74 v=100
132456 Off ch=1 n=74 v=100
132480 On ch=1 n=81 v=100
132936 Off ch=1 n=81 v=100
132960 On ch=1 n=74 v=100
133416 Off ch=1 n=74 v=100
133440 On ch=1 n=78 v=100
133896 Off ch=1 n=78 v=100
133920 On ch=1 n=79 v=100
134832 Off ch=1 n=79 v=100
134880 On ch=1 n=74 v=100
135336 Off ch=1 n=74 v=100
135360 On ch=1 n=82 v=100
135816 Off ch=1 n=82 v=100
135840 On ch=1 n=74 v=100
136296 Off ch=1 n=74 v=100
136320 On ch=1 n=81 v=100
136776 Off ch=1 n=81 v=100
136800 On ch=1 n=74 v=100
137256 Off ch=1 n=74 v=100
137280 On ch=1 n=79 v=100
137736 Off ch=1 n=79 v=100
137760 On ch=1 n=78 v=100
138672 Off ch=1 n=78 v=100
138720 On ch=1 n=74 v=100
139176 Off ch=1 n=74 v=100
139200 On ch=1 n=86 v=100
139656 Off ch=1 n=86 v=100
139680 On ch=1 n=74 v=100
140136 Off ch=1 n=74 v=100
140160 On ch=1 n=78 v=100
141528 Off ch=1 n=78 v=100
141600 On ch=1 n=79 v=100
142512 Off ch=1 n=79 v=100
142560 On ch=1 n=74 v=100
143016 Off ch=1 n=74 v=100
143040 On ch=1 n=82 v=100
143496 Off ch=1 n=82 v=100
143520 On ch=1 n=74 v=100
143976 Off ch=1 n=74 v=100
144000 On ch=1 n=81 v=100
144456 Off ch=1 n=81 v=100
144480 On ch=1 n=74 v=100
144936 Off ch=1 n=74 v=100
144960 On ch=1 n=79 v=100
145416 Off ch=1 n=79 v=100
145440 On ch=1 n=78 v=100
146352 Off ch=1 n=78 v=100
146400 On ch=1 n=74 v=100
146856 Off ch=1 n=74 v=100
146880 On ch=1 n=86 v=100
147336 Off ch=1 n=86 v=100
147360 On ch=1 n=74 v=100
147816 Off ch=1 n=74 v=100
147840 On ch=1 n=81 v=100
148296 Off ch=1 n=81 v=100
148320 On ch=1 n=74 v=100
148776 Off ch=1 n=74 v=100
148800 On ch=1 n=78 v=100
149256 Off ch=1 n=78 v=100
149280 On ch=1 n=82 v=100
150192 Off ch=1 n=82 v=100
150240 On ch=1 n=74 v=100
150696 Off ch=1 n=74 v=100
150720 On ch=1 n=82 v=100
151176 Off ch=1 n=82 v=100
151200 On ch=1 n=84 v=100
152112 Off ch=1 n=84 v=100
152160 On ch=1 n=86 v=100
152616 Off ch=1 n=86 v=100
152640 On ch=1 n=89 v=100
153096 Off ch=1 n=89 v=100
153120 On ch=1 n=91 v=100
157224 Off ch=1 n=91 v=100
157440 On ch=1 n=74 v=100
157668 Off ch=1 n=74 v=100
157920 On ch=1 n=82 v=100
158376 Off ch=1 n=82 v=100
158400 On ch=1 n=81 v=100
158628 Off ch=1 n=81 v=100
158640 On ch=1 n=82 v=100
158868 Off ch=1 n=82 v=100
158880 On ch=1 n=81 v=100
159336 Off ch=1 n=81 v=100
159360 On ch=1 n=84 v=100
159588 Off ch=1 n=84 v=100
159840 On ch=1 n=82 v=100
160296 Off ch=1 n=82 v=100
160320 On ch=1 n=81 v=100
160548 Off ch=1 n=81 v=100
160560 On ch=1 n=82 v=100
160788 Off ch=1 n=82 v=100
160800 On ch=1 n=81 v=100
161028 Off ch=1 n=81 v=100
161040 On ch=1 n=77 v=100
161268 Off ch=1 n=77 v=100
161280 On ch=1 n=79 v=100
161508 Off ch=1 n=79 v=100
161760 On ch=1 n=86 v=100
162216 Off ch=1 n=86 v=100
162240 On ch=1 n=84 v=100
162468 Off ch=1 n=84 v=100
162480 On ch=1 n=86 v=100
162708 Off ch=1 n=86 v=100
162720 On ch=1 n=84 v=100
162948 Off ch=1 n=84 v=100
162960 On ch=1 n=86 v=100
163188 Off ch=1 n=86 v=100
163200 On ch=1 n=89 v=100
163428 Off ch=1 n=89 v=100
163680 On ch=1 n=86 v=100
164136 Off ch=1 n=86 v=100
164160 On ch=1 n=84 v=100
164388 Off ch=1 n=84 v=100
164640 On ch=1 n=86 v=100
165096 Off ch=1 n=86 v=100
165120 On ch=1 n=74 v=100
165348 Off ch=1 n=74 v=100
165600 On ch=1 n=82 v=100
166056 Off ch=1 n=82 v=100
166080 On ch=1 n=81 v=100
166308 Off ch=1 n=81 v=100
166320 On ch=1 n=82 v=100
166548 Off ch=1 n=82 v=100
166560 On ch=1 n=81 v=100
167016 Off ch=1 n=81 v=100
167040 On ch=1 n=84 v=100
167268 Off ch=1 n=84 v=100
167520 On ch=1 n=82 v=100
167976 Off ch=1 n=82 v=100
168000 On ch=1 n=81 v=100
168228 Off ch=1 n=81 v=100
168240 On ch=1 n=82 v=100
168468 Off ch=1 n=82 v=100
168480 On ch=1 n=81 v=100
168708 Off ch=1 n=81 v=100
168720 On ch=1 n=77 v=100
168948 Off ch=1 n=77 v=100
168960 On ch=1 n=79 v=100
169188 Off ch=1 n=79 v=100
169440 On ch=1 n=86 v=100
169896 Off ch=1 n=86 v=100
169920 On ch=1 n=84 v=100
170148 Off ch=1 n=84 v=100
170160 On ch=1 n=86 v=100
170388 Off ch=1 n=86 v=100
170400 On ch=1 n=84 v=100
170628 Off ch=1 n=84 v=100
170640 On ch=1 n=86 v=100
170868 Off ch=1 n=86 v=100
170880 On ch=1 n=90 v=100
171108 Off ch=1 n=90 v=100
171360 On ch=1 n=86 v=100
171816 Off ch=1 n=86 v=100
171840 On ch=1 n=84 v=100
172068 Off ch=1 n=84 v=100
172320 On ch=1 n=86 v=100
172776 Off ch=1 n=86 v=100
172800 On ch=1 n=74 v=100
173028 Off ch=1 n=74 v=100
173280 On ch=1 n=82 v=100
173736 Off ch=1 n=82 v=100
173760 On ch=1 n=81 v=100
173988 Off ch=1 n=81 v=100
174000 On ch=1 n=82 v=100
174228 Off ch=1 n=82 v=100
174240 On ch=1 n=81 v=100
174696 Off ch=1 n=81 v=100
174720 On ch=1 n=84 v=100
174948 Off ch=1 n=84 v=100
175200 On ch=1 n=82 v=100
175656 Off ch=1 n=82 v=100
175680 On ch=1 n=81 v=100
175908 Off ch=1 n=81 v=100
175920 On ch=1 n=82 v=100
176148 Off ch=1 n=82 v=100
176160 On ch=1 n=81 v=100
176388 Off ch=1 n=81 v=100
176400 On ch=1 n=77 v=100
176628 Off ch=1 n=77 v=100
176640 On ch=1 n=79 v=100
176868 Off ch=1 n=79 v=100
177120 On ch=1 n=86 v=100
177576 Off ch=1 n=86 v=100
177600 On ch=1 n=84 v=100
177828 Off ch=1 n=84 v=100
177840 On ch=1 n=86 v=100
178068 Off ch=1 n=86 v=100
178080 On ch=1 n=84 v=100
178308 Off ch=1 n=84 v=100
178320 On ch=1 n=86 v=100
178548 Off ch=1 n=86 v=100
178560 On ch=1 n=89 v=100
178788 Off ch=1 n=89 v=100
179040 On ch=1 n=86 v=100
179496 Off ch=1 n=86 v=100
179520 On ch=1 n=84 v=100
179748 Off ch=1 n=84 v=100
180000 On ch=1 n=86 v=100
180456 Off ch=1 n=86 v=100
180480 On ch=1 n=74 v=100
180708 Off ch=1 n=74 v=100
180960 On ch=1 n=82 v=100
181416 Off ch=1 n=82 v=100
181440 On ch=1 n=81 v=100
181668 Off ch=1 n=81 v=100
181680 On ch=1 n=82 v=100
181908 Off ch=1 n=82 v=100
181920 On ch=1 n=81 v=100
182376 Off ch=1 n=81 v=100
182400 On ch=1 n=84 v=100
182628 Off ch=1 n=84 v=100
182880 On ch=1 n=82 v=100
183336 Off ch=1 n=82 v=100
183360 On ch=1 n=81 v=100
183588 Off ch=1 n=81 v=100
183600 On ch=1 n=82 v=100
183828 Off ch=1 n=82 v=100
183840 On ch=1 n=81 v=100
184068 Off ch=1 n=81 v=100
184080 On ch=1 n=77 v=100
184308 Off ch=1 n=77 v=100
184320 On ch=1 n=79 v=100
184548 Off ch=1 n=79 v=100
184800 On ch=1 n=86 v=100
185256 Off ch=1 n=86 v=100
185280 On ch=1 n=84 v=100
185508 Off ch=1 n=84 v=100
185520 On ch=1 n=86 v=100
185748 Off ch=1 n=86 v=100
185760 On ch=1 n=84 v=100
185988 Off ch=1 n=84 v=100
186000 On ch=1 n=86 v=100
186228 Off ch=1 n=86 v=100
186240 On ch=1 n=89 v=100
187152 Off ch=1 n=89 v=100
187200 On ch=1 n=91 v=100
187656 Off ch=1 n=91 v=100
188160 On ch=1 n=74 v=100
188388 Off ch=1 n=74 v=100
188640 On ch=1 n=82 v=100
189096 Off ch=1 n=82 v=100
189120 On ch=1 n=81 v=100
189348 Off ch=1 n=81 v=100
189360 On ch=1 n=82 v=100
189588 Off ch=1 n=82 v=100
189600 On ch=1 n=81 v=100
190056 Off ch=1 n=81 v=100
190080 On ch=1 n=84 v=100
190308 Off ch=1 n=84 v=100
190560 On ch=1 n=82 v=100
191016 Off ch=1 n=82 v=100
191040 On ch=1 n=81 v=100
191268 Off ch=1 n=81 v=100
191280 On ch=1 n=82 v=100
191508 Off ch=1 n=82 v=100
191520 On ch=1 n=81 v=100
191748 Off ch=1 n=81 v=100
191760 On ch=1 n=77 v=100
191988 Off ch=1 n=77 v=100
192000 On ch=1 n=79 v=100
192228 Off ch=1 n=79 v=100
192480 On ch=1 n=86 v=100
192936 Off ch=1 n=86 v=100
192960 On ch=1 n=84 v=100
193188 Off ch=1 n=84 v=100
193200 On ch=1 n=86 v=100
193428 Off ch=1 n=86 v=100
193440 On ch=1 n=84 v=100
193668 Off ch=1 n=84 v=100
193680 On ch=1 n=86 v=100
193908 Off ch=1 n=86 v=100
193920 On ch=1 n=89 v=100
194148 Off ch=1 n=89 v=100
194400 On ch=1 n=86 v=100
194856 Off ch=1 n=86 v=100
194880 On ch=1 n=84 v=100
195108 Off ch=1 n=84 v=100
195360 On ch=1 n=86 v=100
195816 Off ch=1 n=86 v=100
195840 On ch=1 n=74 v=100
196068 Off ch=1 n=74 v=100
196320 On ch=1 n=82 v=100
196776 Off ch=1 n=82 v=100
196800 On ch=1 n=81 v=100
197028 Off ch=1 n=81 v=100
197040 On ch=1 n=82 v=100
197268 Off ch=1 n=82 v=100
197280 On ch=1 n=81 v=100
197736 Off ch=1 n=81 v=100
197760 On ch=1 n=84 v=100
197988 Off ch=1 n=84 v=100
198240 On ch=1 n=82 v=100
198696 Off ch=1 n=82 v=100
198720 On ch=1 n=81 v=100
198948 Off ch=1 n=81 v=100
198960 On ch=1 n=82 v=100
199188 Off ch=1 n=82 v=100
199200 On ch=1 n=81 v=100
199428 Off ch=1 n=81 v=100
199440 On ch=1 n=77 v=100
199668 Off ch=1 n=77 v=100
199680 On ch=1 n=79 v=100
199908 Off ch=1 n=79 v=100
200160 On ch=1 n=86 v=100
200616 Off ch=1 n=86 v=100
200640 On ch=1 n=84 v=100
200868 Off ch=1 n=84 v=100
200880 On ch=1 n=86 v=100
201108 Off ch=1 n=86 v=100
201120 On ch=1 n=84 v=100
201348 Off ch=1 n=84 v=100
201360 On ch=1 n=86 v=100
201588 Off ch=1 n=86 v=100
201600 On ch=1 n=90 v=100
201828 Off ch=1 n=90 v=100
202080 On ch=1 n=86 v=100
202536 Off ch=1 n=86 v=100
202560 On ch=1 n=84 v=100
202788 Off ch=1 n=84 v=100
203040 On ch=1 n=86 v=100
203496 Off ch=1 n=86 v=100
203520 On ch=1 n=74 v=100
203748 Off ch=1 n=74 v=100
204000 On ch=1 n=82 v=100
204456 Off ch=1 n=82 v=100
204480 On ch=1 n=81 v=100
204708 Off ch=1 n=81 v=100
204720 On ch=1 n=82 v=100
204948 Off ch=1 n=82 v=100
204960 On ch=1 n=81 v=100
205416 Off ch=1 n=81 v=100
205440 On ch=1 n=84 v=100
205668 Off ch=1 n=84 v=100
205920 On ch=1 n=82 v=100
206376 Off ch=1 n=82 v=100
206400 On ch=1 n=81 v=100
206628 Off ch=1 n=81 v=100
206640 On ch=1 n=82 v=100
206868 Off ch=1 n=82 v=100
206880 On ch=1 n=81 v=100
207108 Off ch=1 n=81 v=100
207120 On ch=1 n=77 v=100
207348 Off ch=1 n=77 v=100
207360 On ch=1 n=79 v=100
207588 Off ch=1 n=79 v=100
207840 On ch=1 n=86 v=100
208296 Off ch=1 n=86 v=100
208320 On ch=1 n=84 v=100
208548 Off ch=1 n=84 v=100
208560 On ch=1 n=86 v=100
208788 Off ch=1 n=86 v=100
208800 On ch=1 n=84 v=100
209028 Off ch=1 n=84 v=100
209040 On ch=1 n=86 v=100
209268 Off ch=1 n=86 v=100
209280 On ch=1 n=89 v=100
209508 Off ch=1 n=89 v=100
209760 On ch=1 n=86 v=100
210216 Off ch=1 n=86 v=100
210240 On ch=1 n=84 v=100
210468 Off ch=1 n=84 v=100
210720 On ch=1 n=86 v=100
211176 Off ch=1 n=86 v=100
211200 On ch=1 n=74 v=100
211428 Off ch=1 n=74 v=100
211680 On ch=1 n=82 v=100
212136 Off ch=1 n=82 v=100
212160 On ch=1 n=81 v=100
212388 Off ch=1 n=81 v=100
212400 On ch=1 n=82 v=100
212628 Off ch=1 n=82 v=100
212640 On ch=1 n=81 v=100
213096 Off ch=1 n=81 v=100
213120 On ch=1 n=84 v=100
213348 Off ch=1 n=84 v=100
213600 On ch=1 n=82 v=100
214056 Off ch=1 n=82 v=100
214080 On ch=1 n=81 v=100
214308 Off ch=1 n=81 v=100
214320 On ch=1 n=82 v=100
214548 Off ch=1 n=82 v=100
214560 On ch=1 n=81 v=100
214788 Off ch=1 n=81 v=100
214800 On ch=1 n=77 v=100
215028 Off ch=1 n=77 v=100
215040 On ch=1 n=79 v=100
215268 Off ch=1 n=79 v=100
215520 On ch=1 n=86 v=100
215976 Off ch=1 n=86 v=100
216000 On ch=1 n=84 v=100
216228 Off ch=1 n=84 v=100
216240 On ch=1 n=86 v=100
216468 Off ch=1 n=86 v=100
216480 On ch=1 n=84 v=100
216708 Off ch=1 n=84 v=100
216720 On ch=1 n=86 v=100
216948 Off ch=1 n=86 v=100
216960 On ch=1 n=89 v=100
217872 Off ch=1 n=89 v=100
217920 On ch=1 n=91 v=100
218376 Off ch=1 n=91 v=100
218880 Tempo 1000000
218880 KeySig 1 major
219840 On ch=1 n=60 v=100
220068 Off ch=1 n=60 v=100
220080 On ch=1 n=62 v=100
220308 Off ch=1 n=62 v=100
220320 On ch=1 n=64 v=100
220548 Off ch=1 n=64 v=100
220560 On ch=1 n=67 v=100
220788 Off ch=1 n=67 v=100
220800 On ch=1 n=72 v=100
221028 Off ch=1 n=72 v=100
221040 On ch=1 n=67 v=100
221268 Off ch=1 n=67 v=100
221280 On ch=1 n=74 v=100
221508 Off ch=1 n=74 v=100
221520 On ch=1 n=67 v=100
221748 Off ch=1 n=67 v=100
221760 On ch=1 n=76 v=100
221988 Off ch=1 n=76 v=100
222000 On ch=1 n=67 v=100
222228 Off ch=1 n=67 v=100
222240 On ch=1 n=79 v=100
222468 Off ch=1 n=79 v=100
222480 On ch=1 n=81 v=100
222708 Off ch=1 n=81 v=100
222720 On ch=1 n=78 v=100
222948 Off ch=1 n=78 v=100
222960 On ch=1 n=79 v=100
223188 Off ch=1 n=79 v=100
223200 On ch=1 n=76 v=100
223428 Off ch=1 n=76 v=100
223440 On ch=1 n=78 v=100
223668 Off ch=1 n=78 v=100
223680 On ch=1 n=75 v=100
223908 Off ch=1 n=75 v=100
223920 On ch=1 n=76 v=100
224148 Off ch=1 n=76 v=100
224160 On ch=1 n=69 v=100
224388 Off ch=1 n=69 v=100
224400 On ch=1 n=75 v=100
224628 Off ch=1 n=75 v=100
224640 On ch=1 n=66 v=100
224868 Off ch=1 n=66 v=100
224880 On ch=1 n=69 v=100
225108 Off ch=1 n=69 v=100
225120 On ch=1 n=64 v=100
225348 Off ch=1 n=64 v=100
225360 On ch=1 n=67 v=100
225588 Off ch=1 n=67 v=100
225600 On ch=1 n=66 v=100
225828 Off ch=1 n=66 v=100
225840 On ch=1 n=63 v=100
226068 Off ch=1 n=63 v=100
226080 On ch=1 n=59 v=100
226308 Off ch=1 n=59 v=100
226320 On ch=1 n=63 v=100
226548 Off ch=1 n=63 v=100
227520 On ch=1 n=60 v=100
227748 Off ch=1 n=60 v=100
227760 On ch=1 n=62 v=100
227988 Off ch=1 n=62 v=100
228000 On ch=1 n=64 v=100
228228 Off ch=1 n=64 v=100
228240 On ch=1 n=67 v=100
228468 Off ch=1 n=67 v=100
228480 On ch=1 n=64 v=100
228708 Off ch=1 n=64 v=100
228720 On ch=1 n=66 v=100
228948 Off ch=1 n=66 v=100
228960 On ch=1 n=67 v=100
229188 Off ch=1 n=67 v=100
229200 On ch=1 n=69 v=100
229428 Off ch=1 n=69 v=100
229440 On ch=1 n=71 v=100
229668 Off ch=1 n=71 v=100
229680 On ch=1 n=67 v=100
229908 Off ch=1 n=67 v=100
229920 On ch=1 n=66 v=100
230148 Off ch=1 n=66 v=100
230160 On ch=1 n=67 v=100
230388 Off ch=1 n=67 v=100
230400 On ch=1 n=78 v=100
230628 Off ch=1 n=78 v=100
230640 On ch=1 n=66 v=100
230868 Off ch=1 n=66 v=100
230880 On ch=1 n=63 v=100
231108 Off ch=1 n=63 v=100
231120 On ch=1 n=66 v=100
231348 Off ch=1 n=66 v=100
231360 On ch=1 n=59 v=100
231588 Off ch=1 n=59 v=100
231600 On ch=1 n=63 v=100
231828 Off ch=1 n=63 v=100
231840 On ch=1 n=57 v=100
232068 Off ch=1 n=57 v=100
232080 On ch=1 n=63 v=100
232308 Off ch=1 n=63 v=100
232320 On ch=1 n=55 v=100
232548 Off ch=1 n=55 v=100
232560 On ch=1 n=63 v=100
232788 Off ch=1 n=63 v=100
232800 On ch=1 n=54 v=100
233028 Off ch=1 n=54 v=100
233040 On ch=1 n=63 v=100
233268 Off ch=1 n=63 v=100
233280 On ch=1 n=59 v=100
233508 Off ch=1 n=59 v=100
233520 On ch=1 n=55 v=100
233748 Off ch=1 n=55 v=100
233760 On ch=1 n=54 v=100
233988 Off ch=1 n=54 v=100
234000 On ch=1 n=55 v=100
234228 Off ch=1 n=55 v=100
235200 On ch=1 n=60 v=100
235428 Off ch=1 n=60 v=100
235440 On ch=1 n=62 v=100
235668 Off ch=1 n=62 v=100
235680 On ch=1 n=64 v=100
235908 Off ch=1 n=64 v=100
235920 On ch=1 n=67 v=100
236148 Off ch=1 n=67 v=100
236160 On ch=1 n=72 v=100
236388 Off ch=1 n=72 v=100
236400 On ch=1 n=67 v=100
236628 Off ch=1 n=67 v=100
236640 On ch=1 n=74 v=100
236868 Off ch=1 n=74 v=100
236880 On ch=1 n=67 v=100
237108 Off ch=1 n=67 v=100
237120 On ch=1 n=76 v=100
237348 Off ch=1 n=76 v=100
237360 On ch=1 n=67 v=100
237588 Off ch=1 n=67 v=100
237600 On ch=1 n=79 v=100
237828 Off ch=1 n=79 v=100
237840 On ch=1 n=81 v=100
238068 Off ch=1 n=81 v=100
238080 On ch=1 n=78 v=100
238308 Off ch=1 n=78 v=100
238320 On ch=1 n=79 v=100
238548 Off ch=1 n=79 v=100
238560 On ch=1 n=76 v=100
238788 Off ch=1 n=76 v=100
238800 On ch=1 n=78 v=100
239028 Off ch=1 n=78 v=100
239040 On ch=1 n=75 v=100
239268 Off ch=1 n=75 v=100
239280 On ch=1 n=76 v=100
239508 Off ch=1 n=76 v=100
239520 On ch=1 n=69 v=100
239748 Off ch=1 n=69 v=100
239760 On ch=1 n=75 v=100
239988 Off ch=1 n=75 v=100
240000 On ch=1 n=66 v=100
240228 Off ch=1 n=66 v=100
240240 On ch=1 n=69 v=100
240468 Off ch=1 n=69 v=100
240480 On ch=1 n=64 v=100
240708 Off ch=1 n=64 v=100
240720 On ch=1 n=67 v=100
240948 Off ch=1 n=67 v=100
240960 On ch=1 n=66 v=100
241188 Off ch=1 n=66 v=100
241200 On ch=1 n=63 v=100
241428 Off ch=1 n=63 v=100
241440 On ch=1 n=59 v=100
241668 Off ch=1 n=59 v=100
241680 On ch=1 n=63 v=100
241908 Off ch=1 n=63 v=100
241920 On ch=1 n=60 v=100
242148 Off ch=1 n=60 v=100
242160 On ch=1 n=62 v=100
242388 Off ch=1 n=62 v=100
242400 On ch=1 n=64 v=100
242628 Off ch=1 n=64 v=100
242640 On ch=1 n=67 v=100
242868 Off ch=1 n=67 v=100
242880 On ch=1 n=72 v=100
243108 Off ch=1 n=72 v=100
243120 On ch=1 n=74 v=100
243348 Off ch=1 n=74 v=100
243360 On ch=1 n=76 v=100
243588 Off ch=1 n=76 v=100
243600 On ch=1 n=79 v=100
243828 Off ch=1 n=79 v=100
243840 On ch=1 n=81 v=100
244068 Off ch=1 n=81 v=100
244080 On ch=1 n=62 v=100
244308 Off ch=1 n=62 v=100
244320 On ch=1 n=64 v=100
244548 Off ch=1 n=64 v=100
244560 On ch=1 n=66 v=100
244788 Off ch=1 n=66 v=100
244800 On ch=1 n=67 v=100
245028 Off ch=1 n=67 v=100
245040 On ch=1 n=69 v=100
245268 Off ch=1 n=69 v=100
245280 On ch=1 n=74 v=100
245508 Off ch=1 n=74 v=100
245520 On ch=1 n=78 v=100
245748 Off ch=1 n=78 v=100
245760 On ch=1 n=83 v=100
245988 Off ch=1 n=83 v=100
246000 On ch=1 n=64 v=100
246228 Off ch=1 n=64 v=100
246240 On ch=1 n=66 v=100
246468 Off ch=1 n=66 v=100
246480 On ch=1 n=67 v=100
246708 Off ch=1 n=67 v=100
246720 On ch=1 n=71 v=100
246948 Off ch=1 n=71 v=100
246960 On ch=1 n=76 v=100
247188 Off ch=1 n=76 v=100
247200 On ch=1 n=78 v=100
247428 Off ch=1 n=78 v=100
247440 On ch=1 n=79 v=100
247668 Off ch=1 n=79 v=100
247680 On ch=1 n=83 v=100
247908 Off ch=1 n=83 v=100
247920 On ch=1 n=78 v=100
248148 Off ch=1 n=78 v=100
248160 On ch=1 n=79 v=100
248388 Off ch=1 n=79 v=100
248400 On ch=1 n=76 v=100
248628 Off ch=1 n=76 v=100
248640 On ch=1 n=78 v=100
248868 Off ch=1 n=78 v=100
248880 On ch=1 n=74 v=100
249108 Off ch=1 n=74 v=100
249120 On ch=1 n=76 v=100
249600 Tempo 500000
250032 Off ch=1 n=76 v=100
250080 On ch=1 n=71 v=100
250536 Off ch=1 n=71 v=100
250560 On ch=1 n=79 v=100
251016 Off ch=1 n=79 v=100
251040 On ch=1 n=71 v=100
251496 Off ch=1 n=71 v=100
251520 On ch=1 n=78 v=100
251976 Off ch=1 n=78 v=100
252000 On ch=1 n=71 v=100
252456 Off ch=1 n=71 v=100
252480 On ch=1 n=76 v=100
252936 Off ch=1 n=76 v=100
252960 On ch=1 n=75 v=100
253872 Off ch=1 n=75 v=100
253920 On ch=1 n=71 v=100
254376 Off ch=1 n=71 v=100
254400 On ch=1 n=83 v=100
254856 Off ch=1 n=83 v=100
254880 On ch=1 n=71 v=100
255336 Off ch=1 n=71 v=100
255360 On ch=1 n=78 v=100
255816 Off ch=1 n=78 v=100
255840 On ch=1 n=71 v=100
256296 Off ch=1 n=71 v=100
256320 On ch=1 n=75 v=100
256776 Off ch=1 n=75 v=100
256800 On ch=1 n=76 v=100
257712 Off ch=1 n=76 v=100
257760 On ch=1 n=71 v=100
258216 Off ch=1 n=71 v=100
258240 On ch=1 n=79 v=100
258696 Off ch=1 n=79 v=100
258720 On ch=1 n=71 v=100
259176 Off ch=1 n=71 v=100
259200 On ch=1 n=78 v=100
259656 Off ch=1 n=78 v=100
259680 On ch=1 n=71 v=100
260136 Off ch=1 n=71 v=100
260160 On ch=1 n=76 v=100
260616 Off ch=1 n=76 v=100
260640 On ch=1 n=75 v=100
261552 Off ch=1 n=75 v=100
261600 On ch=1 n=71 v=100
262056 Off ch=1 n=71 v=100
262080 On ch=1 n=83 v=100
262536 Off ch=1 n=83 v=100
262560 On ch=1 n=71 v=100
263016 Off ch=1 n=71 v=100
263040 On ch=1 n=75 v=100
264408 Off ch=1 n=75 v=100
264480 On ch=1 n=76 v=100
265392 Off ch=1 n=76 v=100
265440 On ch=1 n=71 v=100
265896 Off ch=1 n=71 v=100
265920 On ch=1 n=79 v=100
266376 Off ch=1 n=79 v=100
266400 On ch=1 n=71 v=100
266856 Off ch=1 n=71 v=100
266880 On ch=1 n=78 v=100
267336 Off ch=1 n=78 v=100
267360 On ch=1 n=71 v=100
267816 Off ch=1 n=71 v=100
267840 On ch=1 n=76 v=100
268296 Off ch=1 n=76 v=100
268320 On ch=1 n=75 v=100
269232 Off ch=1 n=75 v=100
269280 On ch=1 n=71 v=100
269736 Off ch=1 n=71 v=100
269760 On ch=1 n=83 v=100
270216 Off ch=1 n=83 v=100
270240 On ch=1 n=71 v=100
270696 Off ch=1 n=71 v=100
270720 On ch=1 n=78 v=100
271176 Off ch=1 n=78 v=100
271200 On ch=1 n=71 v=100
271656 Off ch=1 n=71 v=100
271680 On ch=1 n=75 v=100
272136 Off ch=1 n=75 v=100
272160 On ch=1 n=79 v=100
273072 Off ch=1 n=79 v=100
273120 On ch=1 n=71 v=100
273576 Off ch=1 n=71 v=100
273600 On ch=1 n=79 v=100
274056 Off ch=1 n=79 v=100
274080 On ch=1 n=81 v=100
274992 Off ch=1 n=81 v=100
275040 On ch=1 n=83 v=100
275496 Off ch=1 n=83 v=100
275520 On ch=1 n=86 v=100
275976 Off ch=1 n=86 v=100
276000 On ch=1 n=88 v=100
276000 On ch=1 n=83 v=100
280104 Off ch=1 n=88 v=100
280104 Off ch=1 n=83 v=100
280320 Meta TrkEnd
TrkEnd
MTrk
3840 On ch=1 n=59 v=95
3840 On ch=2 n=52 v=95
5664 Off ch=1 n=59 v=100
5664 Off ch=2 n=52 v=100
5760 On ch=2 n=50 v=95
5760 On ch=2 n=59 v=95
7584 Off ch=2 n=50 v=100
7584 Off ch=2 n=59 v=100
7680 On ch=2 n=49 v=95
7680 On ch=2 n=57 v=95
9504 Off ch=2 n=49 v=100
9504 Off ch=2 n=57 v=100
9600 On ch=2 n=48 v=95
9600 On ch=2 n=55 v=95
10512 Off ch=2 n=48 v=100
10512 Off ch=2 n=55 v=100
10560 On ch=2 n=50 v=95
10560 On ch=2 n=57 v=95
11472 Off ch=2 n=50 v=100
11472 Off ch=2 n=57 v=100
11520 On ch=2 n=45 v=95
11520 On ch=2 n=52 v=95
13344 Off ch=2 n=45 v=100
13344 Off ch=2 n=52 v=100
13440 On ch=2 n=47 v=95
13440 On ch=2 n=54 v=95
15264 Off ch=2 n=47 v=100
15264 Off ch=2 n=54 v=100
15360 On ch=2 n=48 v=95
15360 On ch=2 n=55 v=95
17184 Off ch=2 n=48 v=100
17184 Off ch=2 n=55 v=100
17280 On ch=2 n=57 v=95
17280 On ch=2 n=51 v=95
18192 Off ch=2 n=57 v=100
18192 Off ch=2 n=51 v=100
18240 On ch=2 n=59 v=95
18240 On ch=2 n=51 v=95
19152 Off ch=2 n=59 v=100
19152 Off ch=2 n=51 v=100
19200 On ch=1 n=59 v=95
19200 On ch=2 n=52 v=95
21024 Off ch=1 n=59 v=100
21024 Off ch=2 n=52 v=100
21120 On ch=2 n=50 v=95
21120 On ch=2 n=59 v=95
22944 Off ch=2 n=50 v=100
22944 Off ch=2 n=59 v=100
23040 On ch=2 n=49 v=95
23040 On ch=2 n=57 v=95
24864 Off ch=2 n=49 v=100
24864 Off ch=2 n=57 v=100
24960 On ch=2 n=48 v=95
24960 On ch=2 n=55 v=95
25872 Off ch=2 n=48 v=100
25872 Off ch=2 n=55 v=100
25920 On ch=2 n=50 v=95
25920 On ch=2 n=57 v=95
26832 Off ch=2 n=50 v=100
26832 Off ch=2 n=57 v=100
26880 On ch=2 n=45 v=95
26880 On ch=2 n=52 v=95
28704 Off ch=2 n=45 v=100
28704 Off ch=2 n=52 v=100
28800 On ch=2 n=47 v=95
28800 On ch=2 n=54 v=95
30624 Off ch=2 n=47 v=100
30624 Off ch=2 n=54 v=100
30720 On ch=2 n=48 v=95
30720 On ch=2 n=55 v=95
32544 Off ch=2 n=48 v=100
32544 Off ch=2 n=55 v=100
32640 On ch=2 n=57 v=95
32640 On ch=2 n=50 v=95
33552 Off ch=2 n=57 v=100
33552 Off ch=2 n=50 v=100
33600 On ch=2 n=59 v=95
33600 On ch=2 n=52 v=95
34056 Off ch=2 n=59 v=100
34056 Off ch=2 n=52 v=100
34560 On ch=2 n=53 v=95
35016 Off ch=2 n=53 v=100
35040 On ch=2 n=60 v=95
35496 Off ch=2 n=60 v=100
35520 On ch=2 n=53 v=95
35976 Off ch=2 n=53 v=100
36000 On ch=2 n=60 v=95
36456 Off ch=2 n=60 v=100
36480 On ch=2 n=51 v=95
36936 Off ch=2 n=51 v=100
36960 On ch=2 n=58 v=95
37416 Off ch=2 n=58 v=100
37440 On ch=2 n=51 v=95
37896 Off ch=2 n=51 v=100
37920 On ch=2 n=58 v=95
38376 Off ch=2 n=58 v=100
38400 On ch=2 n=50 v=95
38856 Off ch=2 n=50 v=100
38880 On ch=2 n=58 v=95
39336 Off ch=2 n=58 v=100
39360 On ch=2 n=50 v=95
39816 Off ch=2 n=50 v=100
39840 On ch=2 n=58 v=95
40296 Off ch=2 n=58 v=100
40320 On ch=2 n=49 v=95
40776 Off ch=2 n=49 v=100
40800 On ch=2 n=56 v=95
41256 Off ch=2 n=56 v=100
41280 On ch=2 n=51 v=95
41736 Off ch=2 n=51 v=100
41760 On ch=2 n=58 v=95
42216 Off ch=2 n=58 v=100
42240 On ch=2 n=46 v=95
42696 Off ch=2 n=46 v=100
42720 On ch=2 n=53 v=95
43176 Off ch=2 n=53 v=100
43200 On ch=2 n=46 v=95
43656 Off ch=2 n=46 v=100
43680 On ch=2 n=53 v=95
44136 Off ch=2 n=53 v=100
44160 On ch=2 n=48 v=95
44616 Off ch=2 n=48 v=100
44640 On ch=2 n=55 v=95
45096 Off ch=2 n=55 v=100
45120 On ch=2 n=48 v=95
45576 Off ch=2 n=48 v=100
45600 On ch=2 n=55 v=95
46056 Off ch=2 n=55 v=100
46080 On ch=2 n=49 v=95
46536 Off ch=2 n=49 v=100
46560 On ch=2 n=56 v=95
47016 Off ch=2 n=56 v=100
47040 On ch=2 n=49 v=95
47496 Off ch=2 n=49 v=100
47520 On ch=2 n=56 v=95
47976 Off ch=2 n=56 v=100
48000 On ch=2 n=52 v=95
48456 Off ch=2 n=52 v=100
48480 On ch=2 n=58 v=95
48936 Off ch=2 n=58 v=100
48960 On ch=2 n=52 v=95
49416 Off ch=2 n=52 v=100
49440 On ch=2 n=60 v=95
49896 Off ch=2 n=60 v=100
49920 On ch=2 n=53 v=95
50376 Off ch=2 n=53 v=100
50400 On ch=2 n=60 v=95
50856 Off ch=2 n=60 v=100
50880 On ch=2 n=53 v=95
51336 Off ch=2 n=53 v=100
51360 On ch=2 n=60 v=95
51816 Off ch=2 n=60 v=100
51840 On ch=2 n=51 v=95
52296 Off ch=2 n=51 v=100
52320 On ch=2 n=58 v=95
52776 Off ch=2 n=58 v=100
52800 On ch=2 n=51 v=95
53256 Off ch=2 n=51 v=100
53280 On ch=2 n=58 v=95
53736 Off ch=2 n=58 v=100
53760 On ch=2 n=50 v=95
54216 Off ch=2 n=50 v=100
54240 On ch=2 n=58 v=95
54696 Off ch=2 n=58 v=100
54720 On ch=2 n=50 v=95
55176 Off ch=2 n=50 v=100
55200 On ch=2 n=58 v=95
55656 Off ch=2 n=58 v=100
55680 On ch=2 n=49 v=95
56136 Off ch=2 n=49 v=100
56160 On ch=2 n=56 v=95
56616 Off ch=2 n=56 v=100
56640 On ch=2 n=51 v=95
57096 Off ch=2 n=51 v=100
57120 On ch=2 n=58 v=95
57576 Off ch=2 n=58 v=100
57600 On ch=2 n=46 v=95
58056 Off ch=2 n=46 v=100
58080 On ch=2 n=53 v=95
58536 Off ch=2 n=53 v=100
58560 On ch=2 n=46 v=95
59016 Off ch=2 n=46 v=100
59040 On ch=2 n=53 v=95
59496 Off ch=2 n=53 v=100
59520 On ch=2 n=48 v=95
59976 Off ch=2 n=48 v=100
60000 On ch=2 n=55 v=95
60456 Off ch=2 n=55 v=100
60480 On ch=2 n=48 v=95
60936 Off ch=2 n=48 v=100
60960 On ch=2 n=55 v=95
61416 Off ch=2 n=55 v=100
61440 On ch=2 n=49 v=95
61896 Off ch=2 n=49 v=100
61920 On ch=2 n=56 v=95
62376 Off ch=2 n=56 v=100
62400 On ch=2 n=49 v=95
62856 Off ch=2 n=49 v=100
62880 On ch=2 n=56 v=95
63336 Off ch=2 n=56 v=100
63360 On ch=2 n=51 v=95
63816 Off ch=2 n=51 v=100
63840 On ch=2 n=58 v=95
64296 Off ch=2 n=58 v=100
64320 On ch=2 n=53 v=95
64776 Off ch=2 n=53 v=100
65280 On ch=1 n=60 v=95
65280 On ch=2 n=53 v=95
67104 Off ch=1 n=60 v=100
67104 Off ch=2 n=53 v=100
67200 On ch=2 n=51 v=95
67200 On ch=2 n=60 v=95
69024 Off ch=2 n=51 v=100
69024 Off ch=2 n=60 v=100
69120 On ch=2 n=50 v=95
69120 On ch=2 n=58 v=95
70944 Off ch=2 n=50 v=100
70944 Off ch=2 n=58 v=100
71040 On ch=2 n=49 v=95
71040 On ch=2 n=56 v=95
71952 Off ch=2 n=49 v=100
71952 Off ch=2 n=56 v=100
72000 On ch=2 n=51 v=95
72000 On ch=2 n=58 v=95
72912 Off ch=2 n=51 v=100
72912 Off ch=2 n=58 v=100
72960 On ch=2 n=46 v=95
72960 On ch=2 n=53 v=95
74784 Off ch=2 n=46 v=100
74784 Off ch=2 n=53 v=100
74880 On ch=2 n=48 v=95
74880 On ch=2 n=55 v=95
76704 Off ch=2 n=48 v=100
76704 Off ch=2 n=55 v=100
76800 On ch=2 n=49 v=95
76800 On ch=2 n=56 v=95
78624 Off ch=2 n=49 v=100
78624 Off ch=2 n=56 v=100
78720 On ch=2 n=58 v=95
78720 On ch=2 n=52 v=95
79632 Off ch=2 n=58 v=100
79632 Off ch=2 n=52 v=100
79680 On ch=2 n=60 v=95
79680 On ch=2 n=52 v=95
80592 Off ch=2 n=60 v=100
80592 Off ch=2 n=52 v=100
80640 On ch=2 n=53 v=95
81096 Off ch=2 n=53 v=100
81120 On ch=2 n=60 v=95
81576 Off ch=2 n=60 v=100
81600 On ch=2 n=53 v=95
82056 Off ch=2 n=53 v=100
82080 On ch=2 n=60 v=95
82536 Off ch=2 n=60 v=100
82560 On ch=2 n=51 v=95
83016 Off ch=2 n=51 v=100
83040 On ch=2 n=58 v=95
83496 Off ch=2 n=58 v=100
83520 On ch=2 n=51 v=95
83976 Off ch=2 n=51 v=100
84000 On ch=2 n=58 v=95
84456 Off ch=2 n=58 v=100
84480 On ch=2 n=50 v=95
84936 Off ch=2 n=50 v=100
84960 On ch=2 n=58 v=95
85416 Off ch=2 n=58 v=100
85440 On ch=2 n=50 v=95
85896 Off ch=2 n=50 v=100
85920 On ch=2 n=58 v=95
86376 Off ch=2 n=58 v=100
86400 On ch=2 n=49 v=95
86856 Off ch=2 n=49 v=100
86880 On ch=2 n=56 v=95
87336 Off ch=2 n=56 v=100
87360 On ch=2 n=51 v=95
87816 Off ch=2 n=51 v=100
87840 On ch=2 n=58 v=95
88296 Off ch=2 n=58 v=100
88320 On ch=2 n=46 v=95
88776 Off ch=2 n=46 v=100
88800 On ch=2 n=53 v=95
89256 Off ch=2 n=53 v=100
89280 On ch=2 n=46 v=95
89736 Off ch=2 n=46 v=100
89760 On ch=2 n=53 v=95
90216 Off ch=2 n=53 v=100
90240 On ch=2 n=48 v=95
90696 Off ch=2 n=48 v=100
90720 On ch=2 n=55 v=95
91176 Off ch=2 n=55 v=100
91200 On ch=2 n=48 v=95
91656 Off ch=2 n=48 v=100
91680 On ch=2 n=55 v=95
92136 Off ch=2 n=55 v=100
92160 On ch=2 n=49 v=95
92616 Off ch=2 n=49 v=100
92640 On ch=2 n=56 v=95
93096 Off ch=2 n=56 v=100
93120 On ch=2 n=49 v=95
93576 Off ch=2 n=49 v=100
93600 On ch=2 n=56 v=95
94056 Off ch=2 n=56 v=100
94080 On ch=2 n=51 v=95
94536 Off ch=2 n=51 v=100
94560 On ch=2 n=58 v=95
95016 Off ch=2 n=58 v=100
95040 On ch=2 n=53 v=95
95496 Off ch=2 n=53 v=100
96000 On ch=2 n=58 v=95
96000 On ch=2 n=51 v=95
99648 Off ch=2 n=58 v=100
99648 Off ch=2 n=51 v=100
99840 On ch=2 n=50 v=95
99840 On ch=2 n=57 v=95
103488 Off ch=2 n=50 v=100
103488 Off ch=2 n=57 v=100
103680 On ch=2 n=58 v=95
103680 On ch=2 n=51 v=95
107328 Off ch=2 n=58 v=100
107328 Off ch=2 n=51 v=100
107520 On ch=2 n=50 v=95
107520 On ch=2 n=57 v=95
111168 Off ch=2 n=50 v=100
111168 Off ch=2 n=57 v=100
111360 On ch=2 n=58 v=95
111360 On ch=2 n=51 v=95
115008 Off ch=2 n=58 v=100
115008 Off ch=2 n=51 v=100
115200 On ch=2 n=50 v=95
115200 On ch=2 n=57 v=95
118848 Off ch=2 n=50 v=100
118848 Off ch=2 n=57 v=100
119040 On ch=2 n=58 v=95
119040 On ch=2 n=51 v=95
120864 Off ch=2 n=58 v=100
120864 Off ch=2 n=51 v=100
120960 On ch=2 n=60 v=95
120960 On ch=2 n=53 v=95
122784 Off ch=2 n=60 v=100
122784 Off ch=2 n=53 v=100
122880 On ch=2 n=55 v=95
122880 On ch=2 n=50 v=95
126528 Off ch=2 n=55 v=100
126528 Off ch=2 n=50 v=100
126720 On ch=2 n=51 v=95
126720 On ch=2 n=58 v=95
129912 Off ch=2 n=51 v=100
129912 Off ch=2 n=58 v=100
130080 On ch=2 n=50 v=95
130080 On ch=2 n=57 v=95
133728 Off ch=2 n=50 v=100
133728 Off ch=2 n=57 v=100
133920 On ch=2 n=51 v=95
133920 On ch=2 n=58 v=95
137568 Off ch=2 n=51 v=100
137568 Off ch=2 n=58 v=100
137760 On ch=2 n=50 v=95
137760 On ch=2 n=57 v=95
141408 Off ch=2 n=50 v=100
141408 Off ch=2 n=57 v=100
141600 On ch=2 n=51 v=95
141600 On ch=2 n=58 v=95
145248 Off ch=2 n=51 v=100
145248 Off ch=2 n=58 v=100
145440 On ch=2 n=50 v=95
145440 On ch=2 n=57 v=95
149088 Off ch=2 n=50 v=100
149088 Off ch=2 n=57 v=100
149280 On ch=2 n=51 v=95
149280 On ch=2 n=58 v=95
151104 Off ch=2 n=51 v=100
151104 Off ch=2 n=58 v=100
151200 On ch=2 n=53 v=95
151200 On ch=2 n=60 v=95
153024 Off ch=2 n=53 v=100
153024 Off ch=2 n=60 v=100
153120 On ch=2 n=55 v=95
153120 On ch=2 n=62 v=95
157224 Off ch=2 n=55 v=100
157224 Off ch=2 n=62 v=100
157440 On ch=2 n=55 v=95
157896 Off ch=2 n=55 v=100
157920 On ch=2 n=62 v=95
158376 Off ch=2 n=62 v=100
158400 On ch=2 n=55 v=95
158856 Off ch=2 n=55 v=100
158880 On ch=2 n=62 v=95
159336 Off ch=2 n=62 v=100
159360 On ch=2 n=53 v=95
159816 Off ch=2 n=53 v=100
159840 On ch=2 n=60 v=95
160296 Off ch=2 n=60 v=100
160320 On ch=2 n=53 v=95
160776 Off ch=2 n=53 v=100
160800 On ch=2 n=60 v=95
161256 Off ch=2 n=60 v=100
161280 On ch=2 n=52 v=95
161736 Off ch=2 n=52 v=100
161760 On ch=2 n=60 v=95
162216 Off ch=2 n=60 v=100
162240 On ch=2 n=52 v=95
162696 Off ch=2 n=52 v=100
162720 On ch=2 n=60 v=95
163176 Off ch=2 n=60 v=100
163200 On ch=2 n=51 v=95
163656 Off ch=2 n=51 v=100
163680 On ch=2 n=58 v=95
164136 Off ch=2 n=58 v=100
164160 On ch=2 n=53 v=95
164616 Off ch=2 n=53 v=100
164640 On ch=2 n=60 v=95
165096 Off ch=2 n=60 v=100
165120 On ch=2 n=48 v=95
165576 Off ch=2 n=48 v=100
165600 On ch=2 n=55 v=95
166056 Off ch=2 n=55 v=100
166080 On ch=2 n=48 v=95
166536 Off ch=2 n=48 v=100
166560 On ch=2 n=55 v=95
167016 Off ch=2 n=55 v=100
167040 On ch=2 n=50 v=95
167496 Off ch=2 n=50 v=100
167520 On ch=2 n=57 v=95
167976 Off ch=2 n=57 v=100
168000 On ch=2 n=50 v=95
168456 Off ch=2 n=50 v=100
168480 On ch=2 n=57 v=95
168936 Off ch=2 n=57 v=100
168960 On ch=2 n=51 v=95
169416 Off ch=2 n=51 v=100
169440 On ch=2 n=58 v=95
169896 Off ch=2 n=58 v=100
169920 On ch=2 n=51 v=95
170376 Off ch=2 n=51 v=100
170400 On ch=2 n=58 v=95
170856 Off ch=2 n=58 v=100
170880 On ch=2 n=54 v=95
171336 Off ch=2 n=54 v=100
171360 On ch=2 n=60 v=95
171816 Off ch=2 n=60 v=100
171840 On ch=2 n=54 v=95
172296 Off ch=2 n=54 v=100
172320 On ch=2 n=62 v=95
172776 Off ch=2 n=62 v=100
172800 On ch=2 n=55 v=95
173256 Off ch=2 n=55 v=100
173280 On ch=2 n=62 v=95
173736 Off ch=2 n=62 v=100
173760 On ch=2 n=55 v=95
174216 Off ch=2 n=55 v=100
174240 On ch=2 n=62 v=95
174696 Off ch=2 n=62 v=100
174720 On ch=2 n=53 v=95
175176 Off ch=2 n=53 v=100
175200 On ch=2 n=60 v=95
175656 Off ch=2 n=60 v=100
175680 On ch=2 n=53 v=95
176136 Off ch=2 n=53 v=100
176160 On ch=2 n=60 v=95
176616 Off ch=2 n=60 v=100
176640 On ch=2 n=52 v=95
177096 Off ch=2 n=52 v=100
177120 On ch=2 n=60 v=95
177576 Off ch=2 n=60 v=100
177600 On ch=2 n=52 v=95
178056 Off ch=2 n=52 v=100
178080 On ch=2 n=60 v=95
178536 Off ch=2 n=60 v=100
178560 On ch=2 n=51 v=95
179016 Off ch=2 n=51 v=100
179040 On ch=2 n=58 v=95
179496 Off ch=2 n=58 v=100
179520 On ch=2 n=53 v=95
179976 Off ch=2 n=53 v=100
180000 On ch=2 n=60 v=95
180456 Off ch=2 n=60 v=100
180480 On ch=2 n=48 v=95
180936 Off ch=2 n=48 v=100
180960 On ch=2 n=55 v=95
181416 Off ch=2 n=55 v=100
181440 On ch=2 n=48 v=95
181896 Off ch=2 n=48 v=100
181920 On ch=2 n=55 v=95
182376 Off ch=2 n=55 v=100
182400 On ch=2 n=50 v=95
182856 Off ch=2 n=50 v=100
182880 On ch=2 n=57 v=95
183336 Off ch=2 n=57 v=100
183360 On ch=2 n=50 v=95
183816 Off ch=2 n=50 v=100
183840 On ch=2 n=57 v=95
184296 Off ch=2 n=57 v=100
184320 On ch=2 n=51 v=95
184776 Off ch=2 n=51 v=100
184800 On ch=2 n=58 v=95
185256 Off ch=2 n=58 v=100
185280 On ch=2 n=51 v=95
185736 Off ch=2 n=51 v=100
185760 On ch=2 n=58 v=95
186216 Off ch=2 n=58 v=100
186240 On ch=2 n=53 v=95
186696 Off ch=2 n=53 v=100
186720 On ch=2 n=60 v=95
187176 Off ch=2 n=60 v=100
187200 On ch=2 n=55 v=95
187656 Off ch=2 n=55 v=100
188160 On ch=2 n=55 v=95
188616 Off ch=2 n=55 v=100
188640 On ch=2 n=62 v=95
189096 Off ch=2 n=62 v=100
189120 On ch=2 n=55 v=95
189576 Off ch=2 n=55 v=100
189600 On ch=2 n=62 v=95
190056 Off ch=2 n=62 v=100
190080 On ch=2 n=53 v=95
190536 Off ch=2 n=53 v=100
190560 On ch=2 n=60 v=95
191016 Off ch=2 n=60 v=100
191040 On ch=2 n=53 v=95
191496 Off ch=2 n=53 v=100
191520 On ch=2 n=60 v=95
191976 Off ch=2 n=60 v=100
192000 On ch=2 n=52 v=95
192456 Off ch=2 n=52 v=100
192480 On ch=2 n=60 v=95
192936 Off ch=2 n=60 v=100
192960 On ch=2 n=52 v=95
193416 Off ch=2 n=52 v=100
193440 On ch=2 n=60 v=95
193896 Off ch=2 n=60 v=100
193920 On ch=2 n=51 v=95
194376 Off ch=2 n=51 v=100
194400 On ch=2 n=58 v=95
194856 Off ch=2 n=58 v=100
194880 On ch=2 n=53 v=95
195336 Off ch=2 n=53 v=100
195360 On ch=2 n=60 v=95
195816 Off ch=2 n=60 v=100
195840 On ch=2 n=48 v=95
196296 Off ch=2 n=48 v=100
196320 On ch=2 n=55 v=95
196776 Off ch=2 n=55 v=100
196800 On ch=2 n=48 v=95
197256 Off ch=2 n=48 v=100
197280 On ch=2 n=55 v=95
197736 Off ch=2 n=55 v=100
197760 On ch=2 n=50 v=95
198216 Off ch=2 n=50 v=100
198240 On ch=2 n=57 v=95
198696 Off ch=2 n=57 v=100
198720 On ch=2 n=50 v=95
199176 Off ch=2 n=50 v=100
199200 On ch=2 n=57 v=95
199656 Off ch=2 n=57 v=100
199680 On ch=2 n=51 v=95
200136 Off ch=2 n=51 v=100
200160 On ch=2 n=58 v=95
200616 Off ch=2 n=58 v=100
200640 On ch=2 n=51 v=95
201096 Off ch=2 n=51 v=100
201120 On ch=2 n=58 v=95
201576 Off ch=2 n=58 v=100
201600 On ch=2 n=54 v=95
202056 Off ch=2 n=54 v=100
202080 On ch=2 n=60 v=95
202536 Off ch=2 n=60 v=100
202560 On ch=2 n=54 v=95
203016 Off ch=2 n=54 v=100
203040 On ch=2 n=62 v=95
203496 Off ch=2 n=62 v=100
203520 On ch=2 n=55 v=95
203976 Off ch=2 n=55 v=100
204000 On ch=2 n=62 v=95
204456 Off ch=2 n=62 v=100
204480 On ch=2 n=55 v=95
204936 Off ch=2 n=55 v=100
204960 On ch=2 n=62 v=95
205416 Off ch=2 n=62 v=100
205440 On ch=2 n=53 v=95
205896 Off ch=2 n=53 v=100
205920 On ch=2 n=60 v=95
206376 Off ch=2 n=60 v=100
206400 On ch=2 n=53 v=95
206856 Off ch=2 n=53 v=100
206880 On ch=2 n=60 v=95
207336 Off ch=2 n=60 v=100
207360 On ch=2 n=52 v=95
207816 Off ch=2 n=52 v=100
207840 On ch=2 n=60 v=95
208296 Off ch=2 n=60 v=100
208320 On ch=2 n=52 v=95
208776 Off ch=2 n=52 v=100
208800 On ch=2 n=60 v=95
209256 Off ch=2 n=60 v=100
209280 On ch=2 n=51 v=95
209736 Off ch=2 n=51 v=100
209760 On ch=2 n=58 v=95
210216 Off ch=2 n=58 v=100
210240 On ch=2 n=53 v=95
210696 Off ch=2 n=53 v=100
210720 On ch=2 n=60 v=95
211176 Off ch=2 n=60 v=100
211200 On ch=2 n=48 v=95
211656 Off ch=2 n=48 v=100
211680 On ch=2 n=55 v=95
212136 Off ch=2 n=55 v=100
212160 On ch=2 n=48 v=95
212616 Off ch=2 n=48 v=100
212640 On ch=2 n=55 v=95
213096 Off ch=2 n=55 v=100
213120 On ch=2 n=50 v=95
213576 Off ch=2 n=50 v=100
213600 On ch=2 n=57 v=95
214056 Off ch=2 n=57 v=100
214080 On ch=2 n=50 v=95
214536 Off ch=2 n=50 v=100
214560 On ch=2 n=57 v=95
215016 Off ch=2 n=57 v=100
215040 On ch=2 n=51 v=95
215496 Off ch=2 n=51 v=100
215520 On ch=2 n=58 v=95
215976 Off ch=2 n=58 v=100
216000 On ch=2 n=51 v=95
216456 Off ch=2 n=51 v=100
216480 On ch=2 n=58 v=95
216936 Off ch=2 n=58 v=100
216960 On ch=2 n=53 v=95
217416 Off ch=2 n=53 v=100
217440 On ch=2 n=60 v=95
217896 Off ch=2 n=60 v=100
217920 On ch=2 n=55 v=95
218376 Off ch=2 n=55 v=100
218880 On ch=2 n=48 v=95
222528 Off ch=2 n=48 v=100
222720 On ch=2 n=47 v=95
226368 Off ch=2 n=47 v=100
226560 On ch=2 n=48 v=95
230208 Off ch=2 n=48 v=100
230400 On ch=2 n=47 v=95
234048 Off ch=2 n=47 v=100
234240 On ch=2 n=48 v=95
237888 Off ch=2 n=48 v=100
238080 On ch=2 n=47 v=95
241728 Off ch=2 n=47 v=100
241920 On ch=2 n=48 v=95
243744 Off ch=2 n=48 v=100
243840 On ch=2 n=50 v=95
245664 Off ch=2 n=50 v=100
245760 On ch=2 n=52 v=95
249408 Off ch=2 n=52 v=100
249600 On ch=2 n=55 v=95
249600 On ch=2 n=48 v=95
252792 Off ch=2 n=55 v=100
252792 Off ch=2 n=48 v=100
252960 On ch=2 n=47 v=95
252960 On ch=2 n=54 v=95
256608 Off ch=2 n=47 v=100
256608 Off ch=2 n=54 v=100
256800 On ch=2 n=48 v=95
256800 On ch=2 n=55 v=95
260448 Off ch=2 n=48 v=100
260448 Off ch=2 n=55 v=100
260640 On ch=2 n=47 v=95
260640 On ch=2 n=54 v=95
264288 Off ch=2 n=47 v=100
264288 Off ch=2 n=54 v=100
264480 On ch=2 n=48 v=95
264480 On ch=2 n=55 v=95
268128 Off ch=2 n=48 v=100
268128 Off ch=2 n=55 v=100
268320 On ch=2 n=47 v=95
268320 On ch=2 n=54 v=95
271968 Off ch=2 n=47 v=100
271968 Off ch=2 n=54 v=100
272160 On ch=2 n=48 v=95
272160 On ch=2 n=55 v=95
273984 Off ch=2 n=48 v=100
273984 Off ch=2 n=55 v=100
274080 On ch=2 n=50 v=95
274080 On ch=2 n=57 v=95
275904 Off ch=2 n=50 v=100
275904 Off ch=2 n=57 v=100
276000 On ch=2 n=52 v=95
276000 On ch=2 n=59 v=95
280104 Off ch=2 n=52 v=100
280104 Off ch=2 n=59 v=100
280320 Meta TrkEnd
TrkEnd
]]

end