PLUGIN.Name = "necro_strpattern_c"
PLUGIN.DefaultOn = false
PLUGIN.Description = ""
PLUGIN.Trigger = true

function PLUGIN:Load()
GUNSTRUMENTAL_CH1 = {"1"}
GUNSTRUMENTAL_CH2 = {"100","2","4","3"}
GUNSTRUMENTAL_DELAYBASE = 120
GUNSTRUMENTAL_NODELAYFILTER = true
GUNSTRUMENTAL_TAB =  [[MFile 1 2 960
MTrk
0 Tempo 416666
0 KeySig 5 major
2880 On ch=1 n=73 v=100
3120 Off ch=1 n=73 v=100
3120 On ch=1 n=80 v=100
3360 Off ch=1 n=80 v=100
3360 On ch=1 n=76 v=100
3600 Off ch=1 n=76 v=100
3600 On ch=1 n=75 v=100
3840 Off ch=1 n=75 v=100
3840 On ch=1 n=73 v=100
4320 Off ch=1 n=73 v=100
4320 On ch=1 n=76 v=100
4800 Off ch=1 n=76 v=100
4800 On ch=1 n=80 v=100
5280 Off ch=1 n=80 v=100
5280 On ch=1 n=75 v=100
6240 Off ch=1 n=75 v=100
6240 On ch=1 n=78 v=100
6720 Off ch=1 n=78 v=100
6720 On ch=1 n=83 v=100
7200 Off ch=1 n=83 v=100
7200 On ch=1 n=80 v=100
8160 Off ch=1 n=80 v=100
8160 On ch=1 n=78 v=100
8640 Off ch=1 n=78 v=100
8640 On ch=1 n=76 v=100
9120 Off ch=1 n=76 v=100
9120 On ch=1 n=75 v=100
10080 Off ch=1 n=75 v=100
10080 On ch=1 n=76 v=100
10560 Off ch=1 n=76 v=100
10560 On ch=1 n=75 v=100
11040 Off ch=1 n=75 v=100
11040 On ch=1 n=71 v=100
11520 Off ch=1 n=71 v=100
11520 On ch=1 n=68 v=100
12000 Off ch=1 n=68 v=100
12000 On ch=1 n=73 v=100
12480 Off ch=1 n=73 v=100
12480 On ch=1 n=76 v=100
12960 Off ch=1 n=76 v=100
12960 On ch=1 n=72 v=100
13920 Off ch=1 n=72 v=100
13920 On ch=1 n=75 v=100
14400 Off ch=1 n=75 v=100
14400 On ch=1 n=80 v=100
14880 Off ch=1 n=80 v=100
14880 On ch=1 n=76 v=100
15840 Off ch=1 n=76 v=100
15840 On ch=1 n=73 v=100
16320 Off ch=1 n=73 v=100
16320 On ch=1 n=69 v=100
16800 Off ch=1 n=69 v=100
16800 On ch=1 n=76 v=100
17280 Off ch=1 n=76 v=100
17280 On ch=1 n=75 v=100
17520 Off ch=1 n=75 v=100
17520 On ch=1 n=76 v=100
17640 Off ch=1 n=76 v=100
17640 On ch=1 n=75 v=100
17760 Off ch=1 n=75 v=100
17760 On ch=1 n=75 v=100
18240 Off ch=1 n=75 v=100
18240 On ch=1 n=73 v=100
18720 Off ch=1 n=73 v=100
18720 On ch=1 n=75 v=100
19200 Off ch=1 n=75 v=100
19200 On ch=1 n=76 v=100
19680 Off ch=1 n=76 v=100
19680 On ch=1 n=78 v=100
20160 Off ch=1 n=78 v=100
20160 On ch=1 n=80 v=100
20640 Off ch=1 n=80 v=100
20640 On ch=1 n=78 v=100
21600 Off ch=1 n=78 v=100
21600 On ch=1 n=83 v=100
22080 Off ch=1 n=83 v=100
22080 On ch=1 n=85 v=100
22560 Off ch=1 n=85 v=100
22560 On ch=1 n=80 v=100
23520 Off ch=1 n=80 v=100
23520 On ch=1 n=83 v=100
24000 Off ch=1 n=83 v=100
24000 On ch=1 n=78 v=100
24480 Off ch=1 n=78 v=100
24480 On ch=1 n=80 v=100
24960 Off ch=1 n=80 v=100
24960 On ch=1 n=76 v=100
25440 Off ch=1 n=76 v=100
25440 On ch=1 n=68 v=100
25920 Off ch=1 n=68 v=100
25920 On ch=1 n=75 v=100
26400 Off ch=1 n=75 v=100
26400 On ch=1 n=66 v=100
26880 Off ch=1 n=66 v=100
26880 On ch=1 n=68 v=100
27360 Off ch=1 n=68 v=100
27360 On ch=1 n=73 v=100
27840 Off ch=1 n=73 v=100
27840 On ch=1 n=76 v=100
28320 Off ch=1 n=76 v=100
28320 On ch=1 n=75 v=100
29280 Off ch=1 n=75 v=100
29280 On ch=1 n=71 v=100
29760 Off ch=1 n=71 v=100
29760 On ch=1 n=66 v=100
30240 Off ch=1 n=66 v=100
30240 On ch=1 n=68 v=100
33120 Off ch=1 n=68 v=100
33120 On ch=1 n=68 v=100
33600 Off ch=1 n=68 v=100
33600 On ch=1 n=71 v=100
34080 Off ch=1 n=71 v=100
34080 On ch=1 n=75 v=100
34560 Off ch=1 n=75 v=100
34560 On ch=1 n=73 v=100
35040 Off ch=1 n=73 v=100
35040 On ch=1 n=76 v=100
35520 Off ch=1 n=76 v=100
35520 On ch=1 n=80 v=100
36000 Off ch=1 n=80 v=100
36000 On ch=1 n=75 v=100
36960 Off ch=1 n=75 v=100
36960 On ch=1 n=78 v=100
37440 Off ch=1 n=78 v=100
37440 On ch=1 n=83 v=100
37920 Off ch=1 n=83 v=100
37920 On ch=1 n=80 v=100
38880 Off ch=1 n=80 v=100
38880 On ch=1 n=78 v=100
39360 Off ch=1 n=78 v=100
39360 On ch=1 n=76 v=100
39840 Off ch=1 n=76 v=100
39840 On ch=1 n=75 v=100
40800 Off ch=1 n=75 v=100
40800 On ch=1 n=76 v=100
41280 Off ch=1 n=76 v=100
41280 On ch=1 n=75 v=100
41760 Off ch=1 n=75 v=100
41760 On ch=1 n=71 v=100
42240 Off ch=1 n=71 v=100
42240 On ch=1 n=68 v=100
42720 Off ch=1 n=68 v=100
42720 On ch=1 n=73 v=100
43200 Off ch=1 n=73 v=100
43200 On ch=1 n=76 v=100
43680 Off ch=1 n=76 v=100
43680 On ch=1 n=72 v=100
44640 Off ch=1 n=72 v=100
44640 On ch=1 n=75 v=100
45120 Off ch=1 n=75 v=100
45120 On ch=1 n=80 v=100
45600 Off ch=1 n=80 v=100
45600 On ch=1 n=76 v=100
46560 Off ch=1 n=76 v=100
46560 On ch=1 n=73 v=100
47040 Off ch=1 n=73 v=100
47040 On ch=1 n=69 v=100
47520 Off ch=1 n=69 v=100
47520 On ch=1 n=76 v=100
48000 Off ch=1 n=76 v=100
48000 On ch=1 n=75 v=100
48240 Off ch=1 n=75 v=100
48240 On ch=1 n=76 v=100
48360 Off ch=1 n=76 v=100
48360 On ch=1 n=75 v=100
48480 Off ch=1 n=75 v=100
48480 On ch=1 n=75 v=100
48960 Off ch=1 n=75 v=100
48960 On ch=1 n=73 v=100
49440 Off ch=1 n=73 v=100
49440 On ch=1 n=75 v=100
49920 Off ch=1 n=75 v=100
49920 On ch=1 n=76 v=100
50400 Off ch=1 n=76 v=100
50400 On ch=1 n=78 v=100
50880 Off ch=1 n=78 v=100
50880 On ch=1 n=80 v=100
51360 Off ch=1 n=80 v=100
51360 On ch=1 n=78 v=100
52320 Off ch=1 n=78 v=100
52320 On ch=1 n=83 v=100
52800 Off ch=1 n=83 v=100
52800 On ch=1 n=85 v=100
53280 Off ch=1 n=85 v=100
53280 On ch=1 n=80 v=100
54240 Off ch=1 n=80 v=100
54240 On ch=1 n=83 v=100
54720 Off ch=1 n=83 v=100
54720 On ch=1 n=78 v=100
55200 Off ch=1 n=78 v=100
55200 On ch=1 n=80 v=100
55680 Off ch=1 n=80 v=100
55680 On ch=1 n=76 v=100
56160 Off ch=1 n=76 v=100
56160 On ch=1 n=68 v=100
56640 Off ch=1 n=68 v=100
56640 On ch=1 n=75 v=100
57120 Off ch=1 n=75 v=100
57120 On ch=1 n=66 v=100
57600 Off ch=1 n=66 v=100
57600 On ch=1 n=68 v=100
58080 Off ch=1 n=68 v=100
58080 On ch=1 n=73 v=100
58560 Off ch=1 n=73 v=100
58560 On ch=1 n=76 v=100
59040 Off ch=1 n=76 v=100
59040 On ch=1 n=75 v=100
59040 On ch=1 n=72 v=100
60000 Off ch=1 n=75 v=100
60000 Off ch=1 n=72 v=100
60000 On ch=1 n=71 v=100
60480 Off ch=1 n=71 v=100
60480 On ch=1 n=66 v=100
60960 Off ch=1 n=66 v=100
60960 On ch=1 n=64 v=100
60960 On ch=1 n=68 v=100
65280 Off ch=1 n=64 v=100
65280 Off ch=1 n=68 v=100
65280 On ch=1 n=65 v=100
65280 On ch=1 n=58 v=100
65280 Tempo 394736
66720 Off ch=1 n=58 v=100
66720 On ch=1 n=60 v=100
69120 Off ch=1 n=65 v=100
69120 Off ch=1 n=60 v=100
69120 On ch=1 n=65 v=100
69120 On ch=1 n=61 v=100
70560 Off ch=1 n=61 v=100
70560 On ch=1 n=63 v=100
72000 Off ch=1 n=65 v=100
72000 Off ch=1 n=63 v=100
72000 On ch=1 n=68 v=100
72000 On ch=1 n=63 v=100
72960 Off ch=1 n=68 v=100
72960 Off ch=1 n=63 v=100
72960 On ch=1 n=70 v=100
72960 On ch=1 n=63 v=100
74400 Off ch=1 n=70 v=100
74400 On ch=1 n=69 v=100
76800 Off ch=1 n=69 v=100
76800 Off ch=1 n=63 v=100
76800 On ch=1 n=73 v=100
76800 On ch=1 n=65 v=100
78240 Off ch=1 n=73 v=100
78240 On ch=1 n=72 v=100
79680 Off ch=1 n=72 v=100
79680 On ch=1 n=70 v=100
80640 Off ch=1 n=70 v=100
80640 Off ch=1 n=65 v=100
80640 On ch=1 n=70 v=100
80640 On ch=1 n=61 v=100
82080 Off ch=1 n=70 v=100
82080 On ch=1 n=68 v=100
83520 Off ch=1 n=68 v=100
83520 On ch=1 n=70 v=100
84480 Off ch=1 n=70 v=100
84480 Off ch=1 n=61 v=100
84480 On ch=1 n=65 v=100
84480 On ch=1 n=60 v=100
85440 Off ch=1 n=65 v=100
85440 On ch=1 n=68 v=100
86400 Off ch=1 n=68 v=100
86400 On ch=1 n=63 v=100
87360 Off ch=1 n=63 v=100
87360 Off ch=1 n=60 v=100
87360 On ch=1 n=60 v=100
87360 On ch=1 n=57 v=100
88320 Off ch=1 n=60 v=100
88320 Off ch=1 n=57 v=100
88320 On ch=1 n=61 v=100
88320 On ch=1 n=58 v=100
89760 Off ch=1 n=61 v=100
89760 Off ch=1 n=58 v=100
89760 On ch=1 n=60 v=100
89760 On ch=1 n=57 v=100
92160 Off ch=1 n=60 v=100
92160 Off ch=1 n=57 v=100
92160 On ch=1 n=65 v=100
92160 On ch=1 n=61 v=100
93600 Off ch=1 n=61 v=100
93600 On ch=1 n=63 v=100
93600 On ch=1 n=60 v=100
96000 Off ch=1 n=65 v=100
96000 Off ch=1 n=63 v=100
96000 Off ch=1 n=60 v=100
96000 On ch=1 n=77 v=100
96000 On ch=1 n=70 v=100
97440 Off ch=1 n=70 v=100
97440 On ch=1 n=72 v=100
99840 Off ch=1 n=77 v=100
99840 Off ch=1 n=72 v=100
99840 On ch=1 n=77 v=100
99840 On ch=1 n=73 v=100
101280 Off ch=1 n=73 v=100
101280 On ch=1 n=75 v=100
102720 Off ch=1 n=77 v=100
102720 Off ch=1 n=75 v=100
102720 On ch=1 n=80 v=100
102720 On ch=1 n=75 v=100
103680 Off ch=1 n=80 v=100
103680 Off ch=1 n=75 v=100
103680 On ch=1 n=82 v=100
103680 On ch=1 n=75 v=100
105120 Off ch=1 n=82 v=100
105120 On ch=1 n=81 v=100
107520 Off ch=1 n=81 v=100
107520 Off ch=1 n=75 v=100
107520 On ch=1 n=85 v=100
107520 On ch=1 n=77 v=100
108960 Off ch=1 n=85 v=100
108960 On ch=1 n=84 v=100
110400 Off ch=1 n=84 v=100
110400 On ch=1 n=82 v=100
111360 Off ch=1 n=82 v=100
111360 Off ch=1 n=77 v=100
111360 On ch=1 n=82 v=100
111360 On ch=1 n=73 v=100
112800 Off ch=1 n=82 v=100
112800 On ch=1 n=80 v=100
114240 Off ch=1 n=80 v=100
114240 On ch=1 n=82 v=100
115200 Off ch=1 n=82 v=100
115200 Off ch=1 n=73 v=100
115200 On ch=1 n=77 v=100
115200 On ch=1 n=72 v=100
116160 Off ch=1 n=77 v=100
116160 On ch=1 n=80 v=100
117120 Off ch=1 n=80 v=100
117120 On ch=1 n=75 v=100
118080 Off ch=1 n=75 v=100
118080 Off ch=1 n=72 v=100
118080 On ch=1 n=72 v=100
118080 On ch=1 n=68 v=100
119040 Off ch=1 n=72 v=100
119040 Off ch=1 n=68 v=100
119040 On ch=1 n=73 v=100
119040 On ch=1 n=70 v=100
120480 Off ch=1 n=73 v=100
120480 Off ch=1 n=70 v=100
120480 On ch=1 n=72 v=100
120480 On ch=1 n=69 v=100
122880 Off ch=1 n=72 v=100
122880 Off ch=1 n=69 v=100
122880 On ch=1 n=77 v=100
122880 On ch=1 n=73 v=100
126720 Off ch=1 n=77 v=100
126720 Off ch=1 n=73 v=100
126720 On ch=1 n=74 v=100
126720 On ch=1 n=71 v=100
126720 Tempo 375000
127680 Off ch=1 n=74 v=100
127680 Off ch=1 n=71 v=100
127680 On ch=1 n=74 v=100
127680 On ch=1 n=71 v=100
128160 Off ch=1 n=74 v=100
128160 Off ch=1 n=71 v=100
128160 On ch=1 n=74 v=100
128160 On ch=1 n=71 v=100
129120 Off ch=1 n=74 v=100
129120 Off ch=1 n=71 v=100
129120 On ch=1 n=74 v=100
129120 On ch=1 n=71 v=100
129600 Off ch=1 n=74 v=100
129600 Off ch=1 n=71 v=100
129600 On ch=1 n=74 v=100
129600 On ch=1 n=71 v=100
130560 Off ch=1 n=74 v=100
130560 Off ch=1 n=71 v=100
130560 On ch=1 n=73 v=100
130560 On ch=1 n=69 v=100
131520 Off ch=1 n=73 v=100
131520 Off ch=1 n=69 v=100
131520 On ch=1 n=73 v=100
131520 On ch=1 n=69 v=100
132000 Off ch=1 n=73 v=100
132000 Off ch=1 n=69 v=100
132000 On ch=1 n=76 v=100
132000 On ch=1 n=73 v=100
132960 Off ch=1 n=76 v=100
132960 Off ch=1 n=73 v=100
132960 On ch=1 n=76 v=100
132960 On ch=1 n=73 v=100
133440 Off ch=1 n=76 v=100
133440 Off ch=1 n=73 v=100
133440 On ch=1 n=78 v=100
133440 On ch=1 n=73 v=100
134400 Off ch=1 n=78 v=100
134400 Off ch=1 n=73 v=100
134400 On ch=1 n=74 v=100
134400 On ch=1 n=71 v=100
135840 Off ch=1 n=74 v=100
135840 Off ch=1 n=71 v=100
135840 On ch=1 n=73 v=100
135840 On ch=1 n=69 v=100
137280 Off ch=1 n=73 v=100
137280 Off ch=1 n=69 v=100
137280 On ch=1 n=74 v=100
137280 On ch=1 n=68 v=100
142080 Off ch=1 n=74 v=100
142080 Off ch=1 n=68 v=100
142080 On ch=1 n=71 v=100
142080 On ch=1 n=67 v=100
143040 Off ch=1 n=71 v=100
143040 Off ch=1 n=67 v=100
143040 On ch=1 n=71 v=100
143040 On ch=1 n=67 v=100
143520 Off ch=1 n=71 v=100
143520 Off ch=1 n=67 v=100
143520 On ch=1 n=71 v=100
143520 On ch=1 n=67 v=100
144480 Off ch=1 n=71 v=100
144480 Off ch=1 n=67 v=100
144480 On ch=1 n=71 v=100
144480 On ch=1 n=67 v=100
144960 Off ch=1 n=71 v=100
144960 Off ch=1 n=67 v=100
144960 On ch=1 n=71 v=100
144960 On ch=1 n=67 v=100
145920 Off ch=1 n=71 v=100
145920 Off ch=1 n=67 v=100
145920 On ch=1 n=73 v=100
145920 On ch=1 n=69 v=100
146880 Off ch=1 n=73 v=100
146880 Off ch=1 n=69 v=100
146880 On ch=1 n=73 v=100
146880 On ch=1 n=69 v=100
147360 Off ch=1 n=73 v=100
147360 Off ch=1 n=69 v=100
147360 On ch=1 n=73 v=100
147360 On ch=1 n=69 v=100
148320 Off ch=1 n=73 v=100
148320 Off ch=1 n=69 v=100
148320 On ch=1 n=73 v=100
148320 On ch=1 n=69 v=100
148800 Off ch=1 n=73 v=100
148800 Off ch=1 n=69 v=100
148800 On ch=1 n=73 v=100
148800 On ch=1 n=69 v=100
149760 Off ch=1 n=73 v=100
149760 Off ch=1 n=69 v=100
149760 On ch=1 n=73 v=100
149760 On ch=1 n=70 v=100
150720 Off ch=1 n=73 v=100
150720 Off ch=1 n=70 v=100
150720 On ch=1 n=73 v=100
150720 On ch=1 n=70 v=100
151200 Off ch=1 n=73 v=100
151200 Off ch=1 n=70 v=100
151200 On ch=1 n=73 v=100
151200 On ch=1 n=70 v=100
152160 Off ch=1 n=73 v=100
152160 Off ch=1 n=70 v=100
152160 On ch=1 n=73 v=100
152160 On ch=1 n=70 v=100
152640 Off ch=1 n=73 v=100
152640 Off ch=1 n=70 v=100
152640 On ch=1 n=73 v=100
152640 On ch=1 n=70 v=100
153600 Off ch=1 n=73 v=100
153600 Off ch=1 n=70 v=100
153600 On ch=1 n=78 v=100
153600 On ch=1 n=70 v=100
155040 Off ch=1 n=78 v=100
155040 Off ch=1 n=70 v=100
155040 On ch=1 n=78 v=100
155040 On ch=1 n=70 v=100
156480 Off ch=1 n=78 v=100
156480 Off ch=1 n=70 v=100
156480 On ch=1 n=78 v=100
156480 On ch=1 n=70 v=100
157440 Off ch=1 n=78 v=100
157440 Off ch=1 n=70 v=100
157440 On ch=1 n=74 v=100
157440 On ch=1 n=71 v=100
158400 Off ch=1 n=74 v=100
158400 Off ch=1 n=71 v=100
158400 On ch=1 n=74 v=100
158400 On ch=1 n=71 v=100
158880 Off ch=1 n=74 v=100
158880 Off ch=1 n=71 v=100
158880 On ch=1 n=74 v=100
158880 On ch=1 n=71 v=100
159840 Off ch=1 n=74 v=100
159840 Off ch=1 n=71 v=100
159840 On ch=1 n=74 v=100
159840 On ch=1 n=71 v=100
160320 Off ch=1 n=74 v=100
160320 Off ch=1 n=71 v=100
160320 On ch=1 n=74 v=100
160320 On ch=1 n=71 v=100
161280 Off ch=1 n=74 v=100
161280 Off ch=1 n=71 v=100
161280 On ch=1 n=73 v=100
161280 On ch=1 n=69 v=100
162240 Off ch=1 n=73 v=100
162240 Off ch=1 n=69 v=100
162240 On ch=1 n=73 v=100
162240 On ch=1 n=69 v=100
162720 Off ch=1 n=73 v=100
162720 Off ch=1 n=69 v=100
162720 On ch=1 n=76 v=100
162720 On ch=1 n=73 v=100
163680 Off ch=1 n=76 v=100
163680 Off ch=1 n=73 v=100
163680 On ch=1 n=76 v=100
163680 On ch=1 n=73 v=100
164160 Off ch=1 n=76 v=100
164160 Off ch=1 n=73 v=100
164160 On ch=1 n=78 v=100
164160 On ch=1 n=73 v=100
165120 Off ch=1 n=78 v=100
165120 Off ch=1 n=73 v=100
165120 On ch=1 n=74 v=100
165120 On ch=1 n=71 v=100
166560 Off ch=1 n=74 v=100
166560 Off ch=1 n=71 v=100
166560 On ch=1 n=73 v=100
166560 On ch=1 n=69 v=100
168000 Off ch=1 n=73 v=100
168000 Off ch=1 n=69 v=100
168000 On ch=1 n=74 v=100
168000 On ch=1 n=68 v=100
172800 Off ch=1 n=74 v=100
172800 Off ch=1 n=68 v=100
172800 On ch=1 n=71 v=100
172800 On ch=1 n=62 v=100
172800 On ch=1 n=67 v=100
173760 Off ch=1 n=71 v=100
173760 Off ch=1 n=62 v=100
173760 Off ch=1 n=67 v=100
173760 On ch=1 n=71 v=100
173760 On ch=1 n=62 v=100
173760 On ch=1 n=67 v=100
174240 Off ch=1 n=71 v=100
174240 Off ch=1 n=62 v=100
174240 Off ch=1 n=67 v=100
174240 On ch=1 n=71 v=100
174240 On ch=1 n=62 v=100
174240 On ch=1 n=67 v=100
175200 Off ch=1 n=71 v=100
175200 Off ch=1 n=62 v=100
175200 Off ch=1 n=67 v=100
175200 On ch=1 n=71 v=100
175200 On ch=1 n=62 v=100
175200 On ch=1 n=67 v=100
175680 Off ch=1 n=71 v=100
175680 Off ch=1 n=62 v=100
175680 Off ch=1 n=67 v=100
175680 On ch=1 n=71 v=100
175680 On ch=1 n=62 v=100
175680 On ch=1 n=67 v=100
176640 Off ch=1 n=71 v=100
176640 Off ch=1 n=62 v=100
176640 Off ch=1 n=67 v=100
176640 On ch=1 n=73 v=100
176640 On ch=1 n=69 v=100
176640 On ch=1 n=64 v=100
177600 Off ch=1 n=73 v=100
177600 Off ch=1 n=69 v=100
177600 Off ch=1 n=64 v=100
177600 On ch=1 n=73 v=100
177600 On ch=1 n=69 v=100
177600 On ch=1 n=64 v=100
178080 Off ch=1 n=73 v=100
178080 Off ch=1 n=69 v=100
178080 Off ch=1 n=64 v=100
178080 On ch=1 n=73 v=100
178080 On ch=1 n=69 v=100
178080 On ch=1 n=64 v=100
179040 Off ch=1 n=73 v=100
179040 Off ch=1 n=69 v=100
179040 Off ch=1 n=64 v=100
179040 On ch=1 n=73 v=100
179040 On ch=1 n=69 v=100
179040 On ch=1 n=64 v=100
179520 Off ch=1 n=73 v=100
179520 Off ch=1 n=69 v=100
179520 Off ch=1 n=64 v=100
179520 On ch=1 n=73 v=100
179520 On ch=1 n=69 v=100
179520 On ch=1 n=64 v=100
180480 Off ch=1 n=73 v=100
180480 Off ch=1 n=69 v=100
180480 Off ch=1 n=64 v=100
180480 On ch=1 n=73 v=100
180480 On ch=1 n=70 v=100
180480 On ch=1 n=64 v=100
181440 Off ch=1 n=73 v=100
181440 Off ch=1 n=70 v=100
181440 Off ch=1 n=64 v=100
181440 On ch=1 n=73 v=100
181440 On ch=1 n=70 v=100
181440 On ch=1 n=64 v=100
181920 Off ch=1 n=73 v=100
181920 Off ch=1 n=70 v=100
181920 Off ch=1 n=64 v=100
181920 On ch=1 n=73 v=100
181920 On ch=1 n=70 v=100
181920 On ch=1 n=64 v=100
182880 Off ch=1 n=73 v=100
182880 Off ch=1 n=70 v=100
182880 Off ch=1 n=64 v=100
182880 On ch=1 n=73 v=100
182880 On ch=1 n=70 v=100
182880 On ch=1 n=64 v=100
183360 Off ch=1 n=73 v=100
183360 Off ch=1 n=70 v=100
183360 Off ch=1 n=64 v=100
183360 On ch=1 n=73 v=100
183360 On ch=1 n=70 v=100
183360 On ch=1 n=64 v=100
184320 Off ch=1 n=73 v=100
184320 Off ch=1 n=70 v=100
184320 Off ch=1 n=64 v=100
184320 On ch=1 n=78 v=100
184320 On ch=1 n=70 v=100
184320 On ch=1 n=66 v=100
185760 Off ch=1 n=78 v=100
185760 Off ch=1 n=70 v=100
185760 Off ch=1 n=66 v=100
185760 On ch=1 n=78 v=100
185760 On ch=1 n=70 v=100
185760 On ch=1 n=66 v=100
187200 Off ch=1 n=78 v=100
187200 Off ch=1 n=70 v=100
187200 Off ch=1 n=66 v=100
187200 On ch=1 n=78 v=100
187200 On ch=1 n=70 v=100
187200 On ch=1 n=66 v=100
188160 Off ch=1 n=78 v=100
188160 Off ch=1 n=70 v=100
188160 Off ch=1 n=66 v=100
188160 Tempo 394736
188160 KeySig 0 major
192000 On ch=1 n=76 v=100
192960 Off ch=1 n=76 v=100
192960 On ch=1 n=84 v=100
193920 Off ch=1 n=84 v=100
193920 On ch=1 n=83 v=100
194880 Off ch=1 n=83 v=100
194880 On ch=1 n=74 v=100
195360 Off ch=1 n=74 v=100
195360 On ch=1 n=76 v=100
196800 On ch=1 n=71 v=100
197760 Off ch=1 n=71 v=100
197760 On ch=1 n=72 v=100
198720 Off ch=1 n=72 v=100
198720 On ch=1 n=74 v=100
199200 Off ch=1 n=76 v=100
199200 Off ch=1 n=74 v=100
199200 On ch=1 n=76 v=100
200640 Off ch=1 n=76 v=100
200640 On ch=1 n=86 v=100
201600 Off ch=1 n=86 v=100
201600 On ch=1 n=84 v=100
202560 Off ch=1 n=84 v=100
202560 On ch=1 n=83 v=100
203040 Off ch=1 n=83 v=100
203040 On ch=1 n=84 v=100
204480 Off ch=1 n=84 v=100
204480 On ch=1 n=83 v=100
205440 Off ch=1 n=83 v=100
205440 On ch=1 n=81 v=100
206400 Off ch=1 n=81 v=100
206400 On ch=1 n=79 v=100
206880 Off ch=1 n=79 v=100
206880 On ch=1 n=81 v=100
206880 On ch=1 n=72 v=100
208320 Off ch=1 n=81 v=100
208320 Off ch=1 n=72 v=100
208320 On ch=1 n=79 v=100
208320 On ch=1 n=71 v=100
209280 Off ch=1 n=79 v=100
209280 Off ch=1 n=71 v=100
209280 On ch=1 n=76 v=100
209280 On ch=1 n=69 v=100
210240 Off ch=1 n=76 v=100
210240 Off ch=1 n=69 v=100
210240 On ch=1 n=79 v=100
210240 On ch=1 n=71 v=100
210720 Off ch=1 n=79 v=100
210720 Off ch=1 n=71 v=100
210720 On ch=1 n=81 v=100
210720 On ch=1 n=72 v=100
212160 Off ch=1 n=81 v=100
212160 Off ch=1 n=72 v=100
212160 On ch=1 n=79 v=100
212160 On ch=1 n=71 v=100
213120 Off ch=1 n=79 v=100
213120 Off ch=1 n=71 v=100
213120 On ch=1 n=76 v=100
213120 On ch=1 n=69 v=100
214080 Off ch=1 n=76 v=100
214080 Off ch=1 n=69 v=100
214080 On ch=1 n=79 v=100
214080 On ch=1 n=71 v=100
214560 Off ch=1 n=79 v=100
214560 Off ch=1 n=71 v=100
214560 On ch=1 n=76 v=100
214560 On ch=1 n=72 v=100
216000 Off ch=1 n=76 v=100
216000 Off ch=1 n=72 v=100
216000 On ch=1 n=74 v=100
216960 Off ch=1 n=74 v=100
216960 On ch=1 n=76 v=100
217920 Off ch=1 n=76 v=100
217920 On ch=1 n=79 v=100
218400 Off ch=1 n=79 v=100
218400 On ch=1 n=76 v=100
222240 Off ch=1 n=76 v=100
222240 On ch=1 n=76 v=100
223680 Off ch=1 n=76 v=100
223680 On ch=1 n=84 v=100
224640 Off ch=1 n=84 v=100
224640 On ch=1 n=83 v=100
225600 Off ch=1 n=83 v=100
225600 On ch=1 n=74 v=100
226080 Off ch=1 n=74 v=100
226080 On ch=1 n=76 v=100
227520 On ch=1 n=71 v=100
228480 Off ch=1 n=71 v=100
228480 On ch=1 n=72 v=100
229440 Off ch=1 n=72 v=100
229440 On ch=1 n=74 v=100
229920 Off ch=1 n=76 v=100
229920 Off ch=1 n=74 v=100
229920 On ch=1 n=76 v=100
231360 Off ch=1 n=76 v=100
231360 On ch=1 n=86 v=100
232320 Off ch=1 n=86 v=100
232320 On ch=1 n=84 v=100
233280 Off ch=1 n=84 v=100
233280 On ch=1 n=83 v=100
233760 Off ch=1 n=83 v=100
233760 On ch=1 n=84 v=100
235200 Off ch=1 n=84 v=100
235200 On ch=1 n=83 v=100
236160 Off ch=1 n=83 v=100
236160 On ch=1 n=81 v=100
237120 Off ch=1 n=81 v=100
237120 On ch=1 n=79 v=100
237600 Off ch=1 n=79 v=100
237600 On ch=1 n=81 v=100
237600 On ch=1 n=72 v=100
239040 Off ch=1 n=81 v=100
239040 Off ch=1 n=72 v=100
239040 On ch=1 n=79 v=100
239040 On ch=1 n=71 v=100
240000 Off ch=1 n=79 v=100
240000 Off ch=1 n=71 v=100
240000 On ch=1 n=76 v=100
240000 On ch=1 n=69 v=100
240960 Off ch=1 n=76 v=100
240960 Off ch=1 n=69 v=100
240960 On ch=1 n=79 v=100
240960 On ch=1 n=71 v=100
241440 Off ch=1 n=79 v=100
241440 Off ch=1 n=71 v=100
241440 On ch=1 n=81 v=100
241440 On ch=1 n=72 v=100
242880 Off ch=1 n=81 v=100
242880 Off ch=1 n=72 v=100
242880 On ch=1 n=79 v=100
242880 On ch=1 n=71 v=100
243840 Off ch=1 n=79 v=100
243840 Off ch=1 n=71 v=100
243840 On ch=1 n=76 v=100
243840 On ch=1 n=69 v=100
244800 Off ch=1 n=76 v=100
244800 Off ch=1 n=69 v=100
244800 On ch=1 n=79 v=100
244800 On ch=1 n=71 v=100
245280 Off ch=1 n=79 v=100
245280 Off ch=1 n=71 v=100
245280 On ch=1 n=81 v=100
245280 On ch=1 n=73 v=100
253440 Off ch=1 n=81 v=100
253440 Off ch=1 n=73 v=100
253440 On ch=1 n=84 v=100
253440 On ch=1 n=76 v=100
254400 Off ch=1 n=84 v=100
254400 Off ch=1 n=76 v=100
254400 On ch=1 n=88 v=100
254400 On ch=1 n=84 v=100
255360 Off ch=1 n=88 v=100
255360 Off ch=1 n=84 v=100
255360 On ch=1 n=86 v=100
255360 On ch=1 n=83 v=100
256320 Off ch=1 n=86 v=100
256320 Off ch=1 n=83 v=100
256320 On ch=1 n=83 v=100
256320 On ch=1 n=74 v=100
256800 Off ch=1 n=83 v=100
256800 Off ch=1 n=74 v=100
256800 On ch=1 n=84 v=100
256800 On ch=1 n=76 v=100
260640 Off ch=1 n=84 v=100
260640 Off ch=1 n=76 v=100
260640 On ch=1 n=84 v=100
260640 On ch=1 n=76 v=100
262080 Off ch=1 n=84 v=100
262080 Off ch=1 n=76 v=100
262080 On ch=1 n=86 v=100
262080 On ch=1 n=91 v=100
263040 Off ch=1 n=86 v=100
263040 Off ch=1 n=91 v=100
263040 On ch=1 n=88 v=100
263040 On ch=1 n=84 v=100
264000 Off ch=1 n=88 v=100
264000 Off ch=1 n=84 v=100
264000 On ch=1 n=86 v=100
264000 On ch=1 n=83 v=100
264480 Off ch=1 n=86 v=100
264480 Off ch=1 n=83 v=100
264480 On ch=1 n=88 v=100
264480 On ch=1 n=84 v=100
265920 Off ch=1 n=88 v=100
265920 Off ch=1 n=84 v=100
265920 On ch=1 n=86 v=100
265920 On ch=1 n=83 v=100
266880 Off ch=1 n=86 v=100
266880 Off ch=1 n=83 v=100
266880 On ch=1 n=84 v=100
266880 On ch=1 n=81 v=100
267840 Off ch=1 n=84 v=100
267840 Off ch=1 n=81 v=100
267840 On ch=1 n=83 v=100
267840 On ch=1 n=79 v=100
268320 Off ch=1 n=83 v=100
268320 Off ch=1 n=79 v=100
268320 On ch=1 n=84 v=100
268320 On ch=1 n=81 v=100
269760 Off ch=1 n=84 v=100
269760 Off ch=1 n=81 v=100
269760 On ch=1 n=83 v=100
269760 On ch=1 n=79 v=100
270720 Off ch=1 n=83 v=100
270720 Off ch=1 n=79 v=100
270720 On ch=1 n=81 v=100
270720 On ch=1 n=76 v=100
271680 Off ch=1 n=81 v=100
271680 Off ch=1 n=76 v=100
271680 On ch=1 n=83 v=100
271680 On ch=1 n=79 v=100
272160 Off ch=1 n=83 v=100
272160 Off ch=1 n=79 v=100
272160 On ch=1 n=84 v=100
272160 On ch=1 n=81 v=100
273600 Off ch=1 n=84 v=100
273600 Off ch=1 n=81 v=100
273600 On ch=1 n=83 v=100
273600 On ch=1 n=79 v=100
274560 Off ch=1 n=83 v=100
274560 Off ch=1 n=79 v=100
274560 On ch=1 n=81 v=100
274560 On ch=1 n=76 v=100
275520 Off ch=1 n=81 v=100
275520 Off ch=1 n=76 v=100
275520 On ch=1 n=83 v=100
275520 On ch=1 n=79 v=100
276000 Off ch=1 n=83 v=100
276000 Off ch=1 n=79 v=100
276000 On ch=1 n=81 v=100
276000 On ch=1 n=76 v=100
277440 Off ch=1 n=81 v=100
277440 Off ch=1 n=76 v=100
277440 On ch=1 n=79 v=100
277440 On ch=1 n=74 v=100
278400 Off ch=1 n=79 v=100
278400 Off ch=1 n=74 v=100
278400 On ch=1 n=76 v=100
279360 Off ch=1 n=76 v=100
279360 On ch=1 n=79 v=100
279840 Off ch=1 n=79 v=100
279840 On ch=1 n=81 v=100
279840 On ch=1 n=76 v=100
283680 Off ch=1 n=81 v=100
283680 Off ch=1 n=76 v=100
283680 On ch=1 n=84 v=100
283680 On ch=1 n=76 v=100
285120 Off ch=1 n=84 v=100
285120 Off ch=1 n=76 v=100
285120 On ch=1 n=88 v=100
285120 On ch=1 n=84 v=100
286080 Off ch=1 n=88 v=100
286080 Off ch=1 n=84 v=100
286080 On ch=1 n=86 v=100
286080 On ch=1 n=83 v=100
287040 Off ch=1 n=86 v=100
287040 Off ch=1 n=83 v=100
287040 On ch=1 n=83 v=100
287040 On ch=1 n=74 v=100
287520 Off ch=1 n=83 v=100
287520 Off ch=1 n=74 v=100
287520 On ch=1 n=84 v=100
287520 On ch=1 n=76 v=100
291360 Off ch=1 n=84 v=100
291360 Off ch=1 n=76 v=100
291360 On ch=1 n=84 v=100
291360 On ch=1 n=76 v=100
292800 Off ch=1 n=84 v=100
292800 Off ch=1 n=76 v=100
292800 On ch=1 n=86 v=100
292800 On ch=1 n=91 v=100
293760 Off ch=1 n=86 v=100
293760 Off ch=1 n=91 v=100
293760 On ch=1 n=88 v=100
293760 On ch=1 n=84 v=100
294720 Off ch=1 n=88 v=100
294720 Off ch=1 n=84 v=100
294720 On ch=1 n=86 v=100
294720 On ch=1 n=83 v=100
295200 Off ch=1 n=86 v=100
295200 Off ch=1 n=83 v=100
295200 On ch=1 n=88 v=100
295200 On ch=1 n=84 v=100
296640 Off ch=1 n=88 v=100
296640 Off ch=1 n=84 v=100
296640 On ch=1 n=86 v=100
296640 On ch=1 n=83 v=100
297600 Off ch=1 n=86 v=100
297600 Off ch=1 n=83 v=100
297600 On ch=1 n=84 v=100
297600 On ch=1 n=81 v=100
298560 Off ch=1 n=84 v=100
298560 Off ch=1 n=81 v=100
298560 On ch=1 n=83 v=100
298560 On ch=1 n=79 v=100
299040 Off ch=1 n=83 v=100
299040 Off ch=1 n=79 v=100
299040 On ch=1 n=84 v=100
299040 On ch=1 n=81 v=100
300480 Off ch=1 n=84 v=100
300480 Off ch=1 n=81 v=100
300480 On ch=1 n=83 v=100
300480 On ch=1 n=79 v=100
301440 Off ch=1 n=83 v=100
301440 Off ch=1 n=79 v=100
301440 On ch=1 n=81 v=100
301440 On ch=1 n=76 v=100
302400 Off ch=1 n=81 v=100
302400 Off ch=1 n=76 v=100
302400 On ch=1 n=83 v=100
302400 On ch=1 n=79 v=100
302880 Off ch=1 n=83 v=100
302880 Off ch=1 n=79 v=100
302880 On ch=1 n=84 v=100
302880 On ch=1 n=81 v=100
304320 Off ch=1 n=84 v=100
304320 Off ch=1 n=81 v=100
304320 On ch=1 n=83 v=100
304320 On ch=1 n=79 v=100
305280 Off ch=1 n=83 v=100
305280 Off ch=1 n=79 v=100
305280 On ch=1 n=81 v=100
305280 On ch=1 n=76 v=100
306240 Off ch=1 n=81 v=100
306240 Off ch=1 n=76 v=100
306240 On ch=1 n=83 v=100
306240 On ch=1 n=79 v=100
306720 Off ch=1 n=83 v=100
306720 Off ch=1 n=79 v=100
306720 On ch=1 n=85 v=100
306720 On ch=1 n=81 v=100
314880 Off ch=1 n=85 v=100
314880 Off ch=1 n=81 v=100
314880 On ch=1 n=68 v=100
314880 On ch=1 n=63 v=100
314880 KeySig 5 major
318240 Off ch=1 n=68 v=100
318240 Off ch=1 n=63 v=100
318240 On ch=1 n=68 v=100
318240 On ch=1 n=63 v=100
319680 Off ch=1 n=68 v=100
319680 Off ch=1 n=63 v=100
319680 On ch=1 n=70 v=100
319680 On ch=1 n=63 v=100
320640 Off ch=1 n=70 v=100
320640 Off ch=1 n=63 v=100
320640 On ch=1 n=71 v=100
320640 On ch=1 n=63 v=100
321600 Off ch=1 n=71 v=100
321600 Off ch=1 n=63 v=100
321600 On ch=1 n=73 v=100
321600 On ch=1 n=63 v=100
322080 Off ch=1 n=73 v=100
322080 Off ch=1 n=63 v=100
322080 On ch=1 n=75 v=100
322080 On ch=1 n=68 v=100
325920 Off ch=1 n=75 v=100
325920 Off ch=1 n=68 v=100
325920 On ch=1 n=75 v=100
325920 On ch=1 n=68 v=100
327360 Off ch=1 n=75 v=100
327360 Off ch=1 n=68 v=100
327360 On ch=1 n=73 v=100
327360 On ch=1 n=68 v=100
328320 Off ch=1 n=73 v=100
328320 Off ch=1 n=68 v=100
328320 On ch=1 n=71 v=100
328320 On ch=1 n=68 v=100
329280 Off ch=1 n=71 v=100
329280 Off ch=1 n=68 v=100
329280 On ch=1 n=73 v=100
329280 On ch=1 n=68 v=100
329760 Off ch=1 n=73 v=100
329760 Off ch=1 n=68 v=100
329760 On ch=1 n=68 v=100
329760 On ch=1 n=71 v=100
331200 Off ch=1 n=68 v=100
331200 Off ch=1 n=71 v=100
331200 On ch=1 n=66 v=100
331200 On ch=1 n=70 v=100
332160 Off ch=1 n=66 v=100
332160 Off ch=1 n=70 v=100
332160 On ch=1 n=68 v=100
333120 Off ch=1 n=68 v=100
333120 On ch=1 n=70 v=100
333600 Off ch=1 n=70 v=100
333600 On ch=1 n=68 v=100
333600 On ch=1 n=71 v=100
335040 Off ch=1 n=68 v=100
335040 Off ch=1 n=71 v=100
335040 On ch=1 n=66 v=100
335040 On ch=1 n=70 v=100
336000 Off ch=1 n=66 v=100
336000 Off ch=1 n=70 v=100
336000 On ch=1 n=68 v=100
336960 Off ch=1 n=68 v=100
336960 On ch=1 n=70 v=100
337440 Off ch=1 n=70 v=100
337440 On ch=1 n=68 v=100
337440 On ch=1 n=71 v=100
338880 Off ch=1 n=68 v=100
338880 Off ch=1 n=71 v=100
338880 On ch=1 n=68 v=100
338880 On ch=1 n=73 v=100
339840 Off ch=1 n=68 v=100
339840 Off ch=1 n=73 v=100
339840 On ch=1 n=68 v=100
339840 On ch=1 n=75 v=100
340800 Off ch=1 n=68 v=100
340800 Off ch=1 n=75 v=100
340800 On ch=1 n=68 v=100
340800 On ch=1 n=73 v=100
341280 Off ch=1 n=68 v=100
341280 Off ch=1 n=73 v=100
341280 On ch=1 n=71 v=100
341280 On ch=1 n=75 v=100
341280 On ch=1 n=68 v=100
345600 Off ch=1 n=71 v=100
345600 Off ch=1 n=75 v=100
345600 Off ch=1 n=68 v=100
345600 On ch=1 n=75 v=100
348960 Off ch=1 n=75 v=100
348960 On ch=1 n=80 v=100
348960 On ch=1 n=75 v=100
350400 Off ch=1 n=80 v=100
350400 Off ch=1 n=75 v=100
350400 On ch=1 n=82 v=100
350400 On ch=1 n=75 v=100
351360 Off ch=1 n=82 v=100
351360 Off ch=1 n=75 v=100
351360 On ch=1 n=83 v=100
351360 On ch=1 n=75 v=100
352320 Off ch=1 n=83 v=100
352320 Off ch=1 n=75 v=100
352320 On ch=1 n=82 v=100
352320 On ch=1 n=75 v=100
352800 Off ch=1 n=82 v=100
352800 Off ch=1 n=75 v=100
352800 On ch=1 n=83 v=100
352800 On ch=1 n=75 v=100
354240 Off ch=1 n=83 v=100
354240 Off ch=1 n=75 v=100
354240 On ch=1 n=82 v=100
354240 On ch=1 n=75 v=100
355200 Off ch=1 n=82 v=100
355200 Off ch=1 n=75 v=100
355200 On ch=1 n=80 v=100
355200 On ch=1 n=75 v=100
356160 Off ch=1 n=80 v=100
356160 Off ch=1 n=75 v=100
356160 On ch=1 n=78 v=100
356160 On ch=1 n=75 v=100
356640 Off ch=1 n=78 v=100
356640 Off ch=1 n=75 v=100
356640 On ch=1 n=80 v=100
356640 On ch=1 n=75 v=100
360480 Off ch=1 n=80 v=100
360480 Off ch=1 n=75 v=100
360480 On ch=1 n=83 v=100
360480 On ch=1 n=75 v=100
361920 Off ch=1 n=83 v=100
361920 Off ch=1 n=75 v=100
361920 On ch=1 n=82 v=100
361920 On ch=1 n=73 v=100
362880 Off ch=1 n=82 v=100
362880 Off ch=1 n=73 v=100
362880 On ch=1 n=80 v=100
362880 On ch=1 n=71 v=100
363840 Off ch=1 n=80 v=100
363840 Off ch=1 n=71 v=100
363840 On ch=1 n=82 v=100
363840 On ch=1 n=73 v=100
364320 Off ch=1 n=82 v=100
364320 Off ch=1 n=73 v=100
364320 On ch=1 n=83 v=100
364320 On ch=1 n=75 v=100
365760 Off ch=1 n=83 v=100
365760 Off ch=1 n=75 v=100
365760 On ch=1 n=82 v=100
365760 On ch=1 n=73 v=100
366720 Off ch=1 n=82 v=100
366720 Off ch=1 n=73 v=100
366720 On ch=1 n=80 v=100
366720 On ch=1 n=71 v=100
367680 Off ch=1 n=80 v=100
367680 Off ch=1 n=71 v=100
367680 On ch=1 n=82 v=100
367680 On ch=1 n=73 v=100
368160 Off ch=1 n=82 v=100
368160 Off ch=1 n=73 v=100
368160 On ch=1 n=84 v=100
368160 On ch=1 n=80 v=100
368160 On ch=1 n=75 v=100
376320 Off ch=1 n=84 v=100
376320 Off ch=1 n=80 v=100
376320 Off ch=1 n=75 v=100
376320 On ch=1 n=68 v=100
376320 On ch=1 n=63 v=100
379680 Off ch=1 n=68 v=100
379680 Off ch=1 n=63 v=100
379680 On ch=1 n=68 v=100
379680 On ch=1 n=63 v=100
381120 Off ch=1 n=68 v=100
381120 Off ch=1 n=63 v=100
381120 On ch=1 n=70 v=100
381120 On ch=1 n=63 v=100
382080 Off ch=1 n=70 v=100
382080 Off ch=1 n=63 v=100
382080 On ch=1 n=71 v=100
382080 On ch=1 n=63 v=100
383040 Off ch=1 n=71 v=100
383040 Off ch=1 n=63 v=100
383040 On ch=1 n=73 v=100
383040 On ch=1 n=63 v=100
383520 Off ch=1 n=73 v=100
383520 Off ch=1 n=63 v=100
383520 On ch=1 n=75 v=100
383520 On ch=1 n=68 v=100
387360 Off ch=1 n=75 v=100
387360 Off ch=1 n=68 v=100
387360 On ch=1 n=75 v=100
387360 On ch=1 n=68 v=100
388800 Off ch=1 n=75 v=100
388800 Off ch=1 n=68 v=100
388800 On ch=1 n=73 v=100
388800 On ch=1 n=68 v=100
389760 Off ch=1 n=73 v=100
389760 Off ch=1 n=68 v=100
389760 On ch=1 n=71 v=100
389760 On ch=1 n=68 v=100
390720 Off ch=1 n=71 v=100
390720 Off ch=1 n=68 v=100
390720 On ch=1 n=73 v=100
390720 On ch=1 n=68 v=100
391200 Off ch=1 n=73 v=100
391200 Off ch=1 n=68 v=100
391200 On ch=1 n=68 v=100
391200 On ch=1 n=71 v=100
392640 Off ch=1 n=68 v=100
392640 Off ch=1 n=71 v=100
392640 On ch=1 n=66 v=100
392640 On ch=1 n=70 v=100
393600 Off ch=1 n=66 v=100
393600 Off ch=1 n=70 v=100
393600 On ch=1 n=68 v=100
394560 Off ch=1 n=68 v=100
394560 On ch=1 n=70 v=100
395040 Off ch=1 n=70 v=100
395040 On ch=1 n=68 v=100
395040 On ch=1 n=71 v=100
396480 Off ch=1 n=68 v=100
396480 Off ch=1 n=71 v=100
396480 On ch=1 n=66 v=100
396480 On ch=1 n=70 v=100
397440 Off ch=1 n=66 v=100
397440 Off ch=1 n=70 v=100
397440 On ch=1 n=68 v=100
398400 Off ch=1 n=68 v=100
398400 On ch=1 n=70 v=100
398880 Off ch=1 n=70 v=100
398880 On ch=1 n=68 v=100
398880 On ch=1 n=71 v=100
400320 Off ch=1 n=68 v=100
400320 Off ch=1 n=71 v=100
400320 On ch=1 n=68 v=100
400320 On ch=1 n=73 v=100
401280 Off ch=1 n=68 v=100
401280 Off ch=1 n=73 v=100
401280 On ch=1 n=68 v=100
401280 On ch=1 n=75 v=100
402240 Off ch=1 n=68 v=100
402240 Off ch=1 n=75 v=100
402240 On ch=1 n=68 v=100
402240 On ch=1 n=73 v=100
402720 Off ch=1 n=68 v=100
402720 Off ch=1 n=73 v=100
402720 On ch=1 n=71 v=100
402720 On ch=1 n=75 v=100
402720 On ch=1 n=68 v=100
407040 Off ch=1 n=71 v=100
407040 Off ch=1 n=75 v=100
407040 Off ch=1 n=68 v=100
407040 On ch=1 n=75 v=100
410400 Off ch=1 n=75 v=100
410400 On ch=1 n=80 v=100
410400 On ch=1 n=75 v=100
411840 Off ch=1 n=80 v=100
411840 Off ch=1 n=75 v=100
411840 On ch=1 n=82 v=100
411840 On ch=1 n=75 v=100
412800 Off ch=1 n=82 v=100
412800 Off ch=1 n=75 v=100
412800 On ch=1 n=83 v=100
412800 On ch=1 n=75 v=100
413760 Off ch=1 n=83 v=100
413760 Off ch=1 n=75 v=100
413760 On ch=1 n=82 v=100
413760 On ch=1 n=75 v=100
414240 Off ch=1 n=82 v=100
414240 Off ch=1 n=75 v=100
414240 On ch=1 n=83 v=100
414240 On ch=1 n=75 v=100
415680 Off ch=1 n=83 v=100
415680 Off ch=1 n=75 v=100
415680 On ch=1 n=82 v=100
415680 On ch=1 n=75 v=100
416640 Off ch=1 n=82 v=100
416640 Off ch=1 n=75 v=100
416640 On ch=1 n=80 v=100
416640 On ch=1 n=75 v=100
417600 Off ch=1 n=80 v=100
417600 Off ch=1 n=75 v=100
417600 On ch=1 n=78 v=100
417600 On ch=1 n=75 v=100
418080 Off ch=1 n=78 v=100
418080 Off ch=1 n=75 v=100
418080 On ch=1 n=80 v=100
418080 On ch=1 n=75 v=100
421920 Off ch=1 n=80 v=100
421920 Off ch=1 n=75 v=100
421920 On ch=1 n=83 v=100
421920 On ch=1 n=75 v=100
423360 Off ch=1 n=83 v=100
423360 Off ch=1 n=75 v=100
423360 On ch=1 n=82 v=100
423360 On ch=1 n=73 v=100
424320 Off ch=1 n=82 v=100
424320 Off ch=1 n=73 v=100
424320 On ch=1 n=80 v=100
424320 On ch=1 n=71 v=100
425280 Off ch=1 n=80 v=100
425280 Off ch=1 n=71 v=100
425280 On ch=1 n=82 v=100
425280 On ch=1 n=73 v=100
425760 Off ch=1 n=82 v=100
425760 Off ch=1 n=73 v=100
425760 On ch=1 n=83 v=100
425760 On ch=1 n=75 v=100
427200 Off ch=1 n=83 v=100
427200 Off ch=1 n=75 v=100
427200 On ch=1 n=82 v=100
427200 On ch=1 n=73 v=100
428160 Off ch=1 n=82 v=100
428160 Off ch=1 n=73 v=100
428160 On ch=1 n=80 v=100
428160 On ch=1 n=71 v=100
429120 Off ch=1 n=80 v=100
429120 Off ch=1 n=71 v=100
429120 On ch=1 n=82 v=100
429120 On ch=1 n=73 v=100
429600 Off ch=1 n=82 v=100
429600 Off ch=1 n=73 v=100
429600 On ch=1 n=84 v=100
429600 On ch=1 n=80 v=100
430560 On ch=1 n=75 v=100
431040 Off ch=1 n=75 v=100
431040 On ch=1 n=76 v=100
431520 Off ch=1 n=76 v=100
431520 On ch=1 n=75 v=100
437760 Off ch=1 n=84 v=100
437760 Off ch=1 n=80 v=100
437760 Off ch=1 n=75 v=100
464640 Meta TrkEnd
TrkEnd
MTrk
3840 On ch=4 n=49 v=100
3840 On ch=4 n=56 v=100
5760 Off ch=4 n=49 v=100
5760 Off ch=4 n=56 v=100
5760 On ch=4 n=47 v=100
5760 On ch=4 n=54 v=100
7680 Off ch=4 n=47 v=100
7680 Off ch=4 n=54 v=100
7680 On ch=4 n=46 v=100
7680 On ch=4 n=54 v=100
9600 Off ch=4 n=46 v=100
9600 Off ch=4 n=54 v=100
9600 On ch=4 n=45 v=100
9600 On ch=4 n=52 v=100
10560 Off ch=4 n=45 v=100
10560 Off ch=4 n=52 v=100
10560 On ch=4 n=47 v=100
10560 On ch=4 n=54 v=100
11520 Off ch=4 n=47 v=100
11520 Off ch=4 n=54 v=100
11520 On ch=4 n=49 v=100
11520 On ch=4 n=42 v=100
13440 Off ch=4 n=49 v=100
13440 Off ch=4 n=42 v=100
13440 On ch=4 n=44 v=100
13440 On ch=4 n=51 v=100
15360 Off ch=4 n=44 v=100
15360 Off ch=4 n=51 v=100
15360 On ch=4 n=45 v=100
15360 On ch=4 n=52 v=100
17280 Off ch=4 n=45 v=100
17280 Off ch=4 n=52 v=100
17280 On ch=4 n=47 v=100
17280 On ch=4 n=54 v=100
19200 Off ch=4 n=47 v=100
19200 Off ch=4 n=54 v=100
19200 On ch=4 n=49 v=100
19200 On ch=4 n=56 v=100
21120 Off ch=4 n=49 v=100
21120 Off ch=4 n=56 v=100
21120 On ch=4 n=47 v=100
21120 On ch=4 n=54 v=100
23040 Off ch=4 n=47 v=100
23040 Off ch=4 n=54 v=100
23040 On ch=4 n=46 v=100
23040 On ch=4 n=54 v=100
24960 Off ch=4 n=46 v=100
24960 Off ch=4 n=54 v=100
24960 On ch=4 n=45 v=100
24960 On ch=4 n=52 v=100
25920 Off ch=4 n=45 v=100
25920 Off ch=4 n=52 v=100
25920 On ch=4 n=47 v=100
25920 On ch=4 n=54 v=100
26880 Off ch=4 n=47 v=100
26880 Off ch=4 n=54 v=100
26880 On ch=4 n=49 v=100
26880 On ch=4 n=42 v=100
28800 Off ch=4 n=49 v=100
28800 Off ch=4 n=42 v=100
28800 On ch=4 n=44 v=100
28800 On ch=4 n=51 v=100
30720 Off ch=4 n=44 v=100
30720 Off ch=4 n=51 v=100
30720 On ch=4 n=45 v=100
30720 On ch=4 n=52 v=100
32640 Off ch=4 n=45 v=100
32640 Off ch=4 n=52 v=100
32640 On ch=4 n=47 v=100
32640 On ch=4 n=54 v=100
34560 Off ch=4 n=47 v=100
34560 Off ch=4 n=54 v=100
34560 On ch=4 n=49 v=100
35040 Off ch=4 n=49 v=100
35040 On ch=4 n=49 v=100
36000 Off ch=4 n=49 v=100
36000 On ch=4 n=49 v=100
36480 Off ch=4 n=49 v=100
36480 On ch=4 n=47 v=100
36960 Off ch=4 n=47 v=100
36960 On ch=4 n=47 v=100
37920 Off ch=4 n=47 v=100
37920 On ch=4 n=47 v=100
38400 Off ch=4 n=47 v=100
38400 On ch=4 n=46 v=100
38880 Off ch=4 n=46 v=100
38880 On ch=4 n=46 v=100
39840 Off ch=4 n=46 v=100
39840 On ch=4 n=46 v=100
40320 Off ch=4 n=46 v=100
40320 On ch=4 n=45 v=100
40800 Off ch=4 n=45 v=100
40800 On ch=4 n=45 v=100
41760 Off ch=4 n=45 v=100
41760 On ch=4 n=45 v=100
42240 Off ch=4 n=45 v=100
42240 On ch=4 n=42 v=100
42720 Off ch=4 n=42 v=100
42720 On ch=4 n=42 v=100
43680 Off ch=4 n=42 v=100
43680 On ch=4 n=42 v=100
44160 Off ch=4 n=42 v=100
44160 On ch=4 n=44 v=100
44640 Off ch=4 n=44 v=100
44640 On ch=4 n=44 v=100
45600 Off ch=4 n=44 v=100
45600 On ch=4 n=44 v=100
46080 Off ch=4 n=44 v=100
46080 On ch=4 n=45 v=100
46560 Off ch=4 n=45 v=100
46560 On ch=4 n=45 v=100
47520 Off ch=4 n=45 v=100
47520 On ch=4 n=45 v=100
48000 Off ch=4 n=45 v=100
48000 On ch=4 n=47 v=100
48480 Off ch=4 n=47 v=100
48480 On ch=4 n=47 v=100
49440 Off ch=4 n=47 v=100
49440 On ch=4 n=47 v=100
49920 Off ch=4 n=47 v=100
49920 On ch=4 n=49 v=100
50400 Off ch=4 n=49 v=100
50400 On ch=4 n=49 v=100
51360 Off ch=4 n=49 v=100
51360 On ch=4 n=49 v=100
51840 Off ch=4 n=49 v=100
51840 On ch=4 n=47 v=100
52320 Off ch=4 n=47 v=100
52320 On ch=4 n=47 v=100
53280 Off ch=4 n=47 v=100
53280 On ch=4 n=47 v=100
53760 Off ch=4 n=47 v=100
53760 On ch=4 n=46 v=100
54240 Off ch=4 n=46 v=100
54240 On ch=4 n=46 v=100
55200 Off ch=4 n=46 v=100
55200 On ch=4 n=46 v=100
55680 Off ch=4 n=46 v=100
55680 On ch=4 n=45 v=100
56160 Off ch=4 n=45 v=100
56160 On ch=4 n=45 v=100
57120 Off ch=4 n=45 v=100
57120 On ch=4 n=45 v=100
57600 Off ch=4 n=45 v=100
57600 On ch=4 n=42 v=100
58080 Off ch=4 n=42 v=100
58080 On ch=4 n=42 v=100
59040 Off ch=4 n=42 v=100
59040 On ch=4 n=42 v=100
59520 Off ch=4 n=42 v=100
59520 On ch=4 n=44 v=100
60000 Off ch=4 n=44 v=100
60000 On ch=4 n=44 v=100
60960 Off ch=4 n=44 v=100
60960 On ch=4 n=44 v=100
61440 Off ch=4 n=44 v=100
61440 On ch=4 n=45 v=100
61920 Off ch=4 n=45 v=100
61920 On ch=4 n=45 v=100
62880 Off ch=4 n=45 v=100
62880 On ch=4 n=45 v=100
63360 Off ch=4 n=45 v=100
63360 On ch=4 n=47 v=100
63840 Off ch=4 n=47 v=100
63840 On ch=4 n=47 v=100
64800 Off ch=4 n=47 v=100
64800 On ch=4 n=47 v=100
65280 Off ch=4 n=47 v=100
65280 On ch=3 n=39 v=100
65280 On ch=3 n=46 v=100
66720 Off ch=3 n=39 v=100
66720 Off ch=3 n=46 v=100
66720 On ch=3 n=41 v=100
66720 On ch=3 n=48 v=100
69120 Off ch=3 n=41 v=100
69120 Off ch=3 n=48 v=100
69120 On ch=3 n=42 v=100
69120 On ch=3 n=49 v=100
70560 Off ch=3 n=42 v=100
70560 Off ch=3 n=49 v=100
70560 On ch=3 n=44 v=100
70560 On ch=3 n=51 v=100
72960 Off ch=3 n=44 v=100
72960 Off ch=3 n=51 v=100
72960 On ch=3 n=39 v=100
72960 On ch=3 n=46 v=100
74400 Off ch=3 n=39 v=100
74400 Off ch=3 n=46 v=100
74400 On ch=3 n=41 v=100
74400 On ch=3 n=48 v=100
76800 Off ch=3 n=41 v=100
76800 Off ch=3 n=48 v=100
76800 On ch=3 n=42 v=100
76800 On ch=3 n=49 v=100
78240 Off ch=3 n=42 v=100
78240 Off ch=3 n=49 v=100
78240 On ch=3 n=44 v=100
78240 On ch=3 n=51 v=100
80640 Off ch=3 n=44 v=100
80640 Off ch=3 n=51 v=100
80640 On ch=3 n=39 v=100
80640 On ch=3 n=46 v=100
82080 Off ch=3 n=39 v=100
82080 Off ch=3 n=46 v=100
82080 On ch=3 n=41 v=100
82080 On ch=3 n=48 v=100
84480 Off ch=3 n=41 v=100
84480 Off ch=3 n=48 v=100
84480 On ch=3 n=42 v=100
84480 On ch=3 n=49 v=100
85920 Off ch=3 n=42 v=100
85920 Off ch=3 n=49 v=100
85920 On ch=3 n=44 v=100
85920 On ch=3 n=51 v=100
88320 Off ch=3 n=44 v=100
88320 Off ch=3 n=51 v=100
88320 On ch=3 n=39 v=100
88320 On ch=3 n=46 v=100
89760 Off ch=3 n=39 v=100
89760 Off ch=3 n=46 v=100
89760 On ch=3 n=41 v=100
89760 On ch=3 n=48 v=100
92160 Off ch=3 n=41 v=100
92160 Off ch=3 n=48 v=100
92160 On ch=3 n=42 v=100
92160 On ch=3 n=49 v=100
93600 Off ch=3 n=42 v=100
93600 Off ch=3 n=49 v=100
93600 On ch=3 n=44 v=100
93600 On ch=3 n=51 v=100
96000 Off ch=3 n=44 v=100
96000 Off ch=3 n=51 v=100
96000 On ch=3 n=39 v=100
96000 On ch=3 n=46 v=100
97440 Off ch=3 n=39 v=100
97440 Off ch=3 n=46 v=100
97440 On ch=3 n=41 v=100
97440 On ch=3 n=48 v=100
99840 Off ch=3 n=41 v=100
99840 Off ch=3 n=48 v=100
99840 On ch=3 n=42 v=100
99840 On ch=3 n=49 v=100
101280 Off ch=3 n=42 v=100
101280 Off ch=3 n=49 v=100
101280 On ch=3 n=44 v=100
101280 On ch=3 n=51 v=100
103680 Off ch=3 n=44 v=100
103680 Off ch=3 n=51 v=100
103680 On ch=3 n=39 v=100
103680 On ch=3 n=46 v=100
105120 Off ch=3 n=39 v=100
105120 Off ch=3 n=46 v=100
105120 On ch=3 n=41 v=100
105120 On ch=3 n=48 v=100
107520 Off ch=3 n=41 v=100
107520 Off ch=3 n=48 v=100
107520 On ch=3 n=42 v=100
107520 On ch=3 n=49 v=100
108960 Off ch=3 n=42 v=100
108960 Off ch=3 n=49 v=100
108960 On ch=3 n=44 v=100
108960 On ch=3 n=51 v=100
111360 Off ch=3 n=44 v=100
111360 Off ch=3 n=51 v=100
111360 On ch=3 n=39 v=100
111360 On ch=3 n=46 v=100
112800 Off ch=3 n=39 v=100
112800 Off ch=3 n=46 v=100
112800 On ch=3 n=41 v=100
112800 On ch=3 n=48 v=100
115200 Off ch=3 n=41 v=100
115200 Off ch=3 n=48 v=100
115200 On ch=3 n=42 v=100
115200 On ch=3 n=49 v=100
116640 Off ch=3 n=42 v=100
116640 Off ch=3 n=49 v=100
116640 On ch=3 n=44 v=100
116640 On ch=3 n=51 v=100
119040 Off ch=3 n=44 v=100
119040 Off ch=3 n=51 v=100
119040 On ch=3 n=39 v=100
119040 On ch=3 n=46 v=100
120480 Off ch=3 n=39 v=100
120480 Off ch=3 n=46 v=100
120480 On ch=3 n=41 v=100
120480 On ch=3 n=48 v=100
122880 Off ch=3 n=41 v=100
122880 Off ch=3 n=48 v=100
122880 On ch=3 n=42 v=100
122880 On ch=3 n=49 v=100
124320 Off ch=3 n=42 v=100
124320 Off ch=3 n=49 v=100
124320 On ch=3 n=44 v=100
124320 On ch=3 n=51 v=100
126720 Off ch=3 n=44 v=100
126720 Off ch=3 n=51 v=100
126720 On ch=3 n=43 v=100
126720 On ch=3 n=50 v=100
130560 Off ch=3 n=43 v=100
130560 Off ch=3 n=50 v=100
130560 On ch=4 n=52 v=100
130560 On ch=4 n=45 v=100
134400 Off ch=4 n=52 v=100
134400 Off ch=4 n=45 v=100
134400 On ch=4 n=54 v=100
134400 On ch=4 n=47 v=100
135840 Off ch=4 n=54 v=100
135840 Off ch=4 n=47 v=100
135840 On ch=4 n=54 v=100
135840 On ch=4 n=45 v=100
137280 Off ch=4 n=54 v=100
137280 Off ch=4 n=45 v=100
137280 On ch=4 n=52 v=100
137280 On ch=4 n=44 v=100
142080 Off ch=4 n=52 v=100
142080 Off ch=4 n=44 v=100
142080 On ch=4 n=43 v=100
142080 On ch=4 n=50 v=100
145920 Off ch=4 n=43 v=100
145920 Off ch=4 n=50 v=100
145920 On ch=4 n=45 v=100
145920 On ch=4 n=52 v=100
149760 Off ch=4 n=45 v=100
149760 Off ch=4 n=52 v=100
149760 On ch=4 n=46 v=100
149760 On ch=4 n=52 v=100
157440 Off ch=4 n=46 v=100
157440 Off ch=4 n=52 v=100
157440 On ch=3 n=43 v=100
157440 On ch=3 n=50 v=100
161280 Off ch=3 n=43 v=100
161280 Off ch=3 n=50 v=100
161280 On ch=4 n=52 v=100
161280 On ch=4 n=45 v=100
165120 Off ch=4 n=52 v=100
165120 Off ch=4 n=45 v=100
165120 On ch=4 n=54 v=100
165120 On ch=4 n=47 v=100
166560 Off ch=4 n=54 v=100
166560 Off ch=4 n=47 v=100
166560 On ch=4 n=54 v=100
166560 On ch=4 n=45 v=100
168000 Off ch=4 n=54 v=100
168000 Off ch=4 n=45 v=100
168000 On ch=4 n=52 v=100
168000 On ch=4 n=44 v=100
172800 Off ch=4 n=52 v=100
172800 Off ch=4 n=44 v=100
172800 On ch=4 n=43 v=100
172800 On ch=4 n=50 v=100
176640 Off ch=4 n=43 v=100
176640 Off ch=4 n=50 v=100
176640 On ch=4 n=45 v=100
176640 On ch=4 n=52 v=100
180480 Off ch=4 n=45 v=100
180480 Off ch=4 n=52 v=100
180480 On ch=4 n=46 v=100
180480 On ch=4 n=52 v=100
188160 Off ch=4 n=46 v=100
188160 Off ch=4 n=52 v=100
192000 On ch=4 n=41 v=100
192480 Off ch=4 n=41 v=100
192480 On ch=4 n=48 v=100
192960 Off ch=4 n=48 v=100
192960 On ch=4 n=41 v=100
193440 Off ch=4 n=41 v=100
193440 On ch=4 n=48 v=100
193920 Off ch=4 n=48 v=100
193920 On ch=4 n=41 v=100
194400 Off ch=4 n=41 v=100
194400 On ch=4 n=48 v=100
194880 Off ch=4 n=48 v=100
194880 On ch=4 n=41 v=100
195360 Off ch=4 n=41 v=100
195360 On ch=4 n=48 v=100
195840 Off ch=4 n=48 v=100
195840 On ch=4 n=43 v=100
196320 Off ch=4 n=43 v=100
196320 On ch=4 n=50 v=100
196800 Off ch=4 n=50 v=100
196800 On ch=4 n=43 v=100
197280 Off ch=4 n=43 v=100
197280 On ch=4 n=50 v=100
197760 Off ch=4 n=50 v=100
197760 On ch=4 n=43 v=100
198240 Off ch=4 n=43 v=100
198240 On ch=4 n=50 v=100
198720 Off ch=4 n=50 v=100
198720 On ch=4 n=43 v=100
199200 Off ch=4 n=43 v=100
199200 On ch=4 n=50 v=100
199680 Off ch=4 n=50 v=100
199680 On ch=4 n=45 v=100
200160 Off ch=4 n=45 v=100
200160 On ch=4 n=52 v=100
200640 Off ch=4 n=52 v=100
200640 On ch=4 n=45 v=100
201120 Off ch=4 n=45 v=100
201120 On ch=4 n=52 v=100
201600 Off ch=4 n=52 v=100
201600 On ch=4 n=45 v=100
202080 Off ch=4 n=45 v=100
202080 On ch=4 n=52 v=100
202560 Off ch=4 n=52 v=100
202560 On ch=4 n=45 v=100
203040 Off ch=4 n=45 v=100
203040 On ch=4 n=52 v=100
203520 Off ch=4 n=52 v=100
203520 On ch=4 n=45 v=100
204000 Off ch=4 n=45 v=100
204000 On ch=4 n=52 v=100
204480 Off ch=4 n=52 v=100
204480 On ch=4 n=45 v=100
204960 Off ch=4 n=45 v=100
204960 On ch=4 n=52 v=100
205440 Off ch=4 n=52 v=100
205440 On ch=4 n=45 v=100
205920 Off ch=4 n=45 v=100
205920 On ch=4 n=52 v=100
206400 Off ch=4 n=52 v=100
206400 On ch=4 n=45 v=100
206880 Off ch=4 n=45 v=100
206880 On ch=4 n=52 v=100
207360 Off ch=4 n=52 v=100
207360 On ch=4 n=41 v=100
207840 Off ch=4 n=41 v=100
207840 On ch=4 n=48 v=100
208320 Off ch=4 n=48 v=100
208320 On ch=4 n=41 v=100
208800 Off ch=4 n=41 v=100
208800 On ch=4 n=48 v=100
209280 Off ch=4 n=48 v=100
209280 On ch=4 n=41 v=100
209760 Off ch=4 n=41 v=100
209760 On ch=4 n=48 v=100
210240 Off ch=4 n=48 v=100
210240 On ch=4 n=41 v=100
210720 Off ch=4 n=41 v=100
210720 On ch=4 n=48 v=100
211200 Off ch=4 n=48 v=100
211200 On ch=4 n=43 v=100
211680 Off ch=4 n=43 v=100
211680 On ch=4 n=50 v=100
212160 Off ch=4 n=50 v=100
212160 On ch=4 n=43 v=100
212640 Off ch=4 n=43 v=100
212640 On ch=4 n=50 v=100
213120 Off ch=4 n=50 v=100
213120 On ch=4 n=43 v=100
213600 Off ch=4 n=43 v=100
213600 On ch=4 n=50 v=100
214080 Off ch=4 n=50 v=100
214080 On ch=4 n=43 v=100
214560 Off ch=4 n=43 v=100
214560 On ch=4 n=50 v=100
215040 Off ch=4 n=50 v=100
215040 On ch=4 n=45 v=100
215520 Off ch=4 n=45 v=100
215520 On ch=4 n=52 v=100
216000 Off ch=4 n=52 v=100
216000 On ch=4 n=45 v=100
216480 Off ch=4 n=45 v=100
216480 On ch=4 n=52 v=100
216960 Off ch=4 n=52 v=100
216960 On ch=4 n=45 v=100
217440 Off ch=4 n=45 v=100
217440 On ch=4 n=52 v=100
217920 Off ch=4 n=52 v=100
217920 On ch=4 n=45 v=100
218400 Off ch=4 n=45 v=100
218400 On ch=4 n=52 v=100
218880 Off ch=4 n=52 v=100
218880 On ch=4 n=45 v=100
219360 Off ch=4 n=45 v=100
219360 On ch=4 n=52 v=100
219840 Off ch=4 n=52 v=100
219840 On ch=4 n=45 v=100
220320 Off ch=4 n=45 v=100
220320 On ch=4 n=52 v=100
220800 Off ch=4 n=52 v=100
220800 On ch=4 n=45 v=100
221280 Off ch=4 n=45 v=100
221280 On ch=4 n=52 v=100
221760 Off ch=4 n=52 v=100
221760 On ch=4 n=45 v=100
222240 Off ch=4 n=45 v=100
222240 On ch=4 n=52 v=100
222720 Off ch=4 n=52 v=100
222720 On ch=4 n=41 v=100
223200 Off ch=4 n=41 v=100
223200 On ch=4 n=48 v=100
223680 Off ch=4 n=48 v=100
223680 On ch=4 n=41 v=100
224160 Off ch=4 n=41 v=100
224160 On ch=4 n=48 v=100
224640 Off ch=4 n=48 v=100
224640 On ch=4 n=41 v=100
225120 Off ch=4 n=41 v=100
225120 On ch=4 n=48 v=100
225600 Off ch=4 n=48 v=100
225600 On ch=4 n=41 v=100
226080 Off ch=4 n=41 v=100
226080 On ch=4 n=48 v=100
226560 Off ch=4 n=48 v=100
226560 On ch=4 n=43 v=100
227040 Off ch=4 n=43 v=100
227040 On ch=4 n=50 v=100
227520 Off ch=4 n=50 v=100
227520 On ch=4 n=43 v=100
228000 Off ch=4 n=43 v=100
228000 On ch=4 n=50 v=100
228480 Off ch=4 n=50 v=100
228480 On ch=4 n=43 v=100
228960 Off ch=4 n=43 v=100
228960 On ch=4 n=50 v=100
229440 Off ch=4 n=50 v=100
229440 On ch=4 n=43 v=100
229920 Off ch=4 n=43 v=100
229920 On ch=4 n=50 v=100
230400 Off ch=4 n=50 v=100
230400 On ch=4 n=45 v=100
230880 Off ch=4 n=45 v=100
230880 On ch=4 n=52 v=100
231360 Off ch=4 n=52 v=100
231360 On ch=4 n=45 v=100
231840 Off ch=4 n=45 v=100
231840 On ch=4 n=52 v=100
232320 Off ch=4 n=52 v=100
232320 On ch=4 n=45 v=100
232800 Off ch=4 n=45 v=100
232800 On ch=4 n=52 v=100
233280 Off ch=4 n=52 v=100
233280 On ch=4 n=45 v=100
233760 Off ch=4 n=45 v=100
233760 On ch=4 n=52 v=100
234240 Off ch=4 n=52 v=100
234240 On ch=4 n=45 v=100
234720 Off ch=4 n=45 v=100
234720 On ch=4 n=52 v=100
235200 Off ch=4 n=52 v=100
235200 On ch=4 n=45 v=100
235680 Off ch=4 n=45 v=100
235680 On ch=4 n=52 v=100
236160 Off ch=4 n=52 v=100
236160 On ch=4 n=45 v=100
236640 Off ch=4 n=45 v=100
236640 On ch=4 n=52 v=100
237120 Off ch=4 n=52 v=100
237120 On ch=4 n=45 v=100
237600 Off ch=4 n=45 v=100
237600 On ch=4 n=52 v=100
238080 Off ch=4 n=52 v=100
238080 On ch=4 n=41 v=100
238560 Off ch=4 n=41 v=100
238560 On ch=4 n=48 v=100
239040 Off ch=4 n=48 v=100
239040 On ch=4 n=41 v=100
239520 Off ch=4 n=41 v=100
239520 On ch=4 n=48 v=100
240000 Off ch=4 n=48 v=100
240000 On ch=4 n=41 v=100
240480 Off ch=4 n=41 v=100
240480 On ch=4 n=48 v=100
240960 Off ch=4 n=48 v=100
240960 On ch=4 n=41 v=100
241440 Off ch=4 n=41 v=100
241440 On ch=4 n=48 v=100
241920 Off ch=4 n=48 v=100
241920 On ch=4 n=43 v=100
242400 Off ch=4 n=43 v=100
242400 On ch=4 n=50 v=100
242880 Off ch=4 n=50 v=100
242880 On ch=4 n=43 v=100
243360 Off ch=4 n=43 v=100
243360 On ch=4 n=50 v=100
243840 Off ch=4 n=50 v=100
243840 On ch=4 n=43 v=100
244320 Off ch=4 n=43 v=100
244320 On ch=4 n=50 v=100
244800 Off ch=4 n=50 v=100
244800 On ch=4 n=43 v=100
245280 Off ch=4 n=43 v=100
245280 On ch=4 n=50 v=100
245760 Off ch=4 n=50 v=100
245760 On ch=4 n=45 v=100
246240 Off ch=4 n=45 v=100
246240 On ch=4 n=52 v=100
246240 On ch=4 n=49 v=100
246720 Off ch=4 n=52 v=100
246720 Off ch=4 n=49 v=100
246720 On ch=4 n=45 v=100
247200 Off ch=4 n=45 v=100
247200 On ch=4 n=52 v=100
247200 On ch=4 n=49 v=100
247680 Off ch=4 n=52 v=100
247680 Off ch=4 n=49 v=100
247680 On ch=4 n=45 v=100
248160 Off ch=4 n=45 v=100
248160 On ch=4 n=52 v=100
248160 On ch=4 n=49 v=100
248640 Off ch=4 n=52 v=100
248640 Off ch=4 n=49 v=100
248640 On ch=4 n=45 v=100
249120 Off ch=4 n=45 v=100
249120 On ch=4 n=52 v=100
249120 On ch=4 n=49 v=100
249600 Off ch=4 n=52 v=100
249600 Off ch=4 n=49 v=100
249600 On ch=4 n=45 v=100
250080 Off ch=4 n=45 v=100
250080 On ch=4 n=52 v=100
250080 On ch=4 n=49 v=100
250560 Off ch=4 n=52 v=100
250560 Off ch=4 n=49 v=100
250560 On ch=4 n=45 v=100
251040 Off ch=4 n=45 v=100
251040 On ch=4 n=52 v=100
251040 On ch=4 n=49 v=100
251520 Off ch=4 n=52 v=100
251520 Off ch=4 n=49 v=100
251520 On ch=4 n=45 v=100
252000 Off ch=4 n=45 v=100
252000 On ch=4 n=52 v=100
252000 On ch=4 n=49 v=100
252480 Off ch=4 n=52 v=100
252480 Off ch=4 n=49 v=100
252480 On ch=4 n=45 v=100
252960 Off ch=4 n=45 v=100
252960 On ch=4 n=52 v=100
252960 On ch=4 n=49 v=100
253440 Off ch=4 n=52 v=100
253440 Off ch=4 n=49 v=100
253440 On ch=4 n=41 v=100
253440 On ch=4 n=48 v=100
257280 Off ch=4 n=41 v=100
257280 Off ch=4 n=48 v=100
257280 On ch=4 n=50 v=100
257280 On ch=4 n=43 v=100
261120 Off ch=4 n=50 v=100
261120 Off ch=4 n=43 v=100
261120 On ch=4 n=45 v=100
261120 On ch=4 n=52 v=100
268800 Off ch=4 n=45 v=100
268800 Off ch=4 n=52 v=100
268800 On ch=4 n=41 v=100
268800 On ch=4 n=48 v=100
272640 Off ch=4 n=41 v=100
272640 Off ch=4 n=48 v=100
272640 On ch=4 n=43 v=100
272640 On ch=4 n=50 v=100
276480 Off ch=4 n=43 v=100
276480 Off ch=4 n=50 v=100
276480 On ch=4 n=45 v=100
276480 On ch=4 n=52 v=100
284160 Off ch=4 n=45 v=100
284160 Off ch=4 n=52 v=100
284160 On ch=4 n=41 v=100
284160 On ch=4 n=48 v=100
288000 Off ch=4 n=41 v=100
288000 Off ch=4 n=48 v=100
288000 On ch=4 n=50 v=100
288000 On ch=4 n=43 v=100
291840 Off ch=4 n=50 v=100
291840 Off ch=4 n=43 v=100
291840 On ch=4 n=45 v=100
291840 On ch=4 n=52 v=100
299520 Off ch=4 n=45 v=100
299520 Off ch=4 n=52 v=100
299520 On ch=4 n=41 v=100
299520 On ch=4 n=48 v=100
303360 Off ch=4 n=41 v=100
303360 Off ch=4 n=48 v=100
303360 On ch=4 n=43 v=100
303360 On ch=4 n=50 v=100
307200 Off ch=4 n=43 v=100
307200 Off ch=4 n=50 v=100
307200 On ch=4 n=45 v=100
307200 On ch=4 n=52 v=100
307200 On ch=4 n=49 v=100
314880 Off ch=4 n=45 v=100
314880 Off ch=4 n=52 v=100
314880 Off ch=4 n=49 v=100
314880 On ch=4 n=40 v=100
315360 Off ch=4 n=40 v=100
315360 On ch=4 n=47 v=100
315840 Off ch=4 n=47 v=100
315840 On ch=4 n=40 v=100
316320 Off ch=4 n=40 v=100
316320 On ch=4 n=47 v=100
316800 Off ch=4 n=47 v=100
316800 On ch=4 n=40 v=100
317280 Off ch=4 n=40 v=100
317280 On ch=4 n=47 v=100
317760 Off ch=4 n=47 v=100
317760 On ch=4 n=40 v=100
318240 Off ch=4 n=40 v=100
318240 On ch=4 n=47 v=100
318720 Off ch=4 n=47 v=100
318720 On ch=4 n=42 v=100
319200 Off ch=4 n=42 v=100
319200 On ch=4 n=49 v=100
319680 Off ch=4 n=49 v=100
319680 On ch=4 n=42 v=100
320160 Off ch=4 n=42 v=100
320160 On ch=4 n=49 v=100
320640 Off ch=4 n=49 v=100
320640 On ch=4 n=42 v=100
321120 Off ch=4 n=42 v=100
321120 On ch=4 n=49 v=100
321600 Off ch=4 n=49 v=100
321600 On ch=4 n=42 v=100
322080 Off ch=4 n=42 v=100
322080 On ch=4 n=49 v=100
322560 Off ch=4 n=49 v=100
322560 On ch=4 n=44 v=100
323040 Off ch=4 n=44 v=100
323040 On ch=4 n=51 v=100
323520 Off ch=4 n=51 v=100
323520 On ch=4 n=44 v=100
324000 Off ch=4 n=44 v=100
324000 On ch=4 n=51 v=100
324480 Off ch=4 n=51 v=100
324480 On ch=4 n=44 v=100
324960 Off ch=4 n=44 v=100
324960 On ch=4 n=51 v=100
325440 Off ch=4 n=51 v=100
325440 On ch=4 n=44 v=100
325920 Off ch=4 n=44 v=100
325920 On ch=4 n=51 v=100
326400 Off ch=4 n=51 v=100
326400 On ch=4 n=44 v=100
326880 Off ch=4 n=44 v=100
326880 On ch=4 n=51 v=100
327360 Off ch=4 n=51 v=100
327360 On ch=4 n=44 v=100
327840 Off ch=4 n=44 v=100
327840 On ch=4 n=51 v=100
328320 Off ch=4 n=51 v=100
328320 On ch=4 n=44 v=100
328800 Off ch=4 n=44 v=100
328800 On ch=4 n=51 v=100
329280 Off ch=4 n=51 v=100
329280 On ch=4 n=44 v=100
329760 Off ch=4 n=44 v=100
329760 On ch=4 n=51 v=100
330240 Off ch=4 n=51 v=100
330240 On ch=4 n=40 v=100
330720 Off ch=4 n=40 v=100
330720 On ch=4 n=47 v=100
331200 Off ch=4 n=47 v=100
331200 On ch=4 n=40 v=100
331680 Off ch=4 n=40 v=100
331680 On ch=4 n=47 v=100
332160 Off ch=4 n=47 v=100
332160 On ch=4 n=40 v=100
332640 Off ch=4 n=40 v=100
332640 On ch=4 n=47 v=100
333120 Off ch=4 n=47 v=100
333120 On ch=4 n=40 v=100
333600 Off ch=4 n=40 v=100
333600 On ch=4 n=47 v=100
334080 Off ch=4 n=47 v=100
334080 On ch=4 n=42 v=100
334560 Off ch=4 n=42 v=100
334560 On ch=4 n=49 v=100
335040 Off ch=4 n=49 v=100
335040 On ch=4 n=42 v=100
335520 Off ch=4 n=42 v=100
335520 On ch=4 n=49 v=100
336000 Off ch=4 n=49 v=100
336000 On ch=4 n=42 v=100
336480 Off ch=4 n=42 v=100
336480 On ch=4 n=49 v=100
336960 Off ch=4 n=49 v=100
336960 On ch=4 n=42 v=100
337440 Off ch=4 n=42 v=100
337440 On ch=4 n=49 v=100
337920 Off ch=4 n=49 v=100
337920 On ch=4 n=44 v=100
338400 Off ch=4 n=44 v=100
338400 On ch=4 n=51 v=100
338880 Off ch=4 n=51 v=100
338880 On ch=4 n=44 v=100
339360 Off ch=4 n=44 v=100
339360 On ch=4 n=51 v=100
339840 Off ch=4 n=51 v=100
339840 On ch=4 n=44 v=100
340320 Off ch=4 n=44 v=100
340320 On ch=4 n=51 v=100
340800 Off ch=4 n=51 v=100
340800 On ch=4 n=44 v=100
341280 Off ch=4 n=44 v=100
341280 On ch=4 n=51 v=100
341760 Off ch=4 n=51 v=100
341760 On ch=4 n=44 v=100
342240 Off ch=4 n=44 v=100
342240 On ch=4 n=51 v=100
342720 Off ch=4 n=51 v=100
342720 On ch=4 n=44 v=100
343200 Off ch=4 n=44 v=100
343200 On ch=4 n=51 v=100
343680 Off ch=4 n=51 v=100
343680 On ch=4 n=44 v=100
344160 Off ch=4 n=44 v=100
344160 On ch=4 n=51 v=100
344640 Off ch=4 n=51 v=100
344640 On ch=4 n=44 v=100
345120 Off ch=4 n=44 v=100
345120 On ch=4 n=51 v=100
345600 Off ch=4 n=51 v=100
345600 On ch=4 n=40 v=100
346080 Off ch=4 n=40 v=100
346080 On ch=4 n=47 v=100
346560 Off ch=4 n=47 v=100
346560 On ch=4 n=40 v=100
347040 Off ch=4 n=40 v=100
347040 On ch=4 n=47 v=100
347520 Off ch=4 n=47 v=100
347520 On ch=4 n=40 v=100
348000 Off ch=4 n=40 v=100
348000 On ch=4 n=47 v=100
348480 Off ch=4 n=47 v=100
348480 On ch=4 n=40 v=100
348960 Off ch=4 n=40 v=100
348960 On ch=4 n=47 v=100
349440 Off ch=4 n=47 v=100
349440 On ch=4 n=42 v=100
349920 Off ch=4 n=42 v=100
349920 On ch=4 n=49 v=100
350400 Off ch=4 n=49 v=100
350400 On ch=4 n=42 v=100
350880 Off ch=4 n=42 v=100
350880 On ch=4 n=49 v=100
351360 Off ch=4 n=49 v=100
351360 On ch=4 n=42 v=100
351840 Off ch=4 n=42 v=100
351840 On ch=4 n=49 v=100
352320 Off ch=4 n=49 v=100
352320 On ch=4 n=42 v=100
352800 Off ch=4 n=42 v=100
352800 On ch=4 n=49 v=100
353280 Off ch=4 n=49 v=100
353280 On ch=4 n=44 v=100
353760 Off ch=4 n=44 v=100
353760 On ch=4 n=51 v=100
354240 Off ch=4 n=51 v=100
354240 On ch=4 n=44 v=100
354720 Off ch=4 n=44 v=100
354720 On ch=4 n=51 v=100
355200 Off ch=4 n=51 v=100
355200 On ch=4 n=44 v=100
355680 Off ch=4 n=44 v=100
355680 On ch=4 n=51 v=100
356160 Off ch=4 n=51 v=100
356160 On ch=4 n=44 v=100
356640 Off ch=4 n=44 v=100
356640 On ch=4 n=51 v=100
357120 Off ch=4 n=51 v=100
357120 On ch=4 n=44 v=100
357600 Off ch=4 n=44 v=100
357600 On ch=4 n=51 v=100
358080 Off ch=4 n=51 v=100
358080 On ch=4 n=44 v=100
358560 Off ch=4 n=44 v=100
358560 On ch=4 n=51 v=100
359040 Off ch=4 n=51 v=100
359040 On ch=4 n=44 v=100
359520 Off ch=4 n=44 v=100
359520 On ch=4 n=51 v=100
360000 Off ch=4 n=51 v=100
360000 On ch=4 n=44 v=100
360480 Off ch=4 n=44 v=100
360480 On ch=4 n=51 v=100
360960 Off ch=4 n=51 v=100
360960 On ch=4 n=40 v=100
361440 Off ch=4 n=40 v=100
361440 On ch=4 n=47 v=100
361920 Off ch=4 n=47 v=100
361920 On ch=4 n=40 v=100
362400 Off ch=4 n=40 v=100
362400 On ch=4 n=47 v=100
362880 Off ch=4 n=47 v=100
362880 On ch=4 n=40 v=100
363360 Off ch=4 n=40 v=100
363360 On ch=4 n=47 v=100
363840 Off ch=4 n=47 v=100
363840 On ch=4 n=40 v=100
364320 Off ch=4 n=40 v=100
364320 On ch=4 n=47 v=100
364800 Off ch=4 n=47 v=100
364800 On ch=4 n=42 v=100
365280 Off ch=4 n=42 v=100
365280 On ch=4 n=49 v=100
365760 Off ch=4 n=49 v=100
365760 On ch=4 n=42 v=100
366240 Off ch=4 n=42 v=100
366240 On ch=4 n=49 v=100
366720 Off ch=4 n=49 v=100
366720 On ch=4 n=42 v=100
367200 Off ch=4 n=42 v=100
367200 On ch=4 n=49 v=100
367680 Off ch=4 n=49 v=100
367680 On ch=4 n=42 v=100
368160 Off ch=4 n=42 v=100
368160 On ch=4 n=49 v=100
368640 Off ch=4 n=49 v=100
368640 On ch=4 n=44 v=100
369120 Off ch=4 n=44 v=100
369120 On ch=4 n=51 v=100
369600 Off ch=4 n=51 v=100
369600 On ch=4 n=44 v=100
370080 Off ch=4 n=44 v=100
370080 On ch=4 n=51 v=100
370560 Off ch=4 n=51 v=100
370560 On ch=4 n=44 v=100
371040 Off ch=4 n=44 v=100
371040 On ch=4 n=51 v=100
371520 Off ch=4 n=51 v=100
371520 On ch=4 n=44 v=100
372000 Off ch=4 n=44 v=100
372000 On ch=4 n=51 v=100
372480 Off ch=4 n=51 v=100
372480 On ch=4 n=44 v=100
372960 Off ch=4 n=44 v=100
372960 On ch=4 n=51 v=100
373440 Off ch=4 n=51 v=100
373440 On ch=4 n=44 v=100
373920 Off ch=4 n=44 v=100
373920 On ch=4 n=51 v=100
374400 Off ch=4 n=51 v=100
374400 On ch=4 n=44 v=100
374880 Off ch=4 n=44 v=100
374880 On ch=4 n=51 v=100
375360 Off ch=4 n=51 v=100
375360 On ch=4 n=44 v=100
375840 Off ch=4 n=44 v=100
375840 On ch=4 n=51 v=100
376320 Off ch=4 n=51 v=100
376320 On ch=4 n=40 v=100
376800 Off ch=4 n=40 v=100
376800 On ch=4 n=47 v=100
377280 Off ch=4 n=47 v=100
377280 On ch=4 n=40 v=100
377760 Off ch=4 n=40 v=100
377760 On ch=4 n=47 v=100
378240 Off ch=4 n=47 v=100
378240 On ch=4 n=40 v=100
378720 Off ch=4 n=40 v=100
378720 On ch=4 n=47 v=100
379200 Off ch=4 n=47 v=100
379200 On ch=4 n=40 v=100
379680 Off ch=4 n=40 v=100
379680 On ch=4 n=47 v=100
380160 Off ch=4 n=47 v=100
380160 On ch=4 n=42 v=100
380640 Off ch=4 n=42 v=100
380640 On ch=4 n=49 v=100
381120 Off ch=4 n=49 v=100
381120 On ch=4 n=42 v=100
381600 Off ch=4 n=42 v=100
381600 On ch=4 n=49 v=100
382080 Off ch=4 n=49 v=100
382080 On ch=4 n=42 v=100
382560 Off ch=4 n=42 v=100
382560 On ch=4 n=49 v=100
383040 Off ch=4 n=49 v=100
383040 On ch=4 n=42 v=100
383520 Off ch=4 n=42 v=100
383520 On ch=4 n=49 v=100
384000 Off ch=4 n=49 v=100
384000 On ch=4 n=44 v=100
384480 Off ch=4 n=44 v=100
384480 On ch=4 n=51 v=100
384960 Off ch=4 n=51 v=100
384960 On ch=4 n=44 v=100
385440 Off ch=4 n=44 v=100
385440 On ch=4 n=51 v=100
385920 Off ch=4 n=51 v=100
385920 On ch=4 n=44 v=100
386400 Off ch=4 n=44 v=100
386400 On ch=4 n=51 v=100
386880 Off ch=4 n=51 v=100
386880 On ch=4 n=44 v=100
387360 Off ch=4 n=44 v=100
387360 On ch=4 n=51 v=100
387840 Off ch=4 n=51 v=100
387840 On ch=4 n=44 v=100
388320 Off ch=4 n=44 v=100
388320 On ch=4 n=51 v=100
388800 Off ch=4 n=51 v=100
388800 On ch=4 n=44 v=100
389280 Off ch=4 n=44 v=100
389280 On ch=4 n=51 v=100
389760 Off ch=4 n=51 v=100
389760 On ch=4 n=44 v=100
390240 Off ch=4 n=44 v=100
390240 On ch=4 n=51 v=100
390720 Off ch=4 n=51 v=100
390720 On ch=4 n=44 v=100
391200 Off ch=4 n=44 v=100
391200 On ch=4 n=51 v=100
391680 Off ch=4 n=51 v=100
391680 On ch=4 n=40 v=100
392160 Off ch=4 n=40 v=100
392160 On ch=4 n=47 v=100
392640 Off ch=4 n=47 v=100
392640 On ch=4 n=40 v=100
393120 Off ch=4 n=40 v=100
393120 On ch=4 n=47 v=100
393600 Off ch=4 n=47 v=100
393600 On ch=4 n=40 v=100
394080 Off ch=4 n=40 v=100
394080 On ch=4 n=47 v=100
394560 Off ch=4 n=47 v=100
394560 On ch=4 n=40 v=100
395040 Off ch=4 n=40 v=100
395040 On ch=4 n=47 v=100
395520 Off ch=4 n=47 v=100
395520 On ch=4 n=42 v=100
396000 Off ch=4 n=42 v=100
396000 On ch=4 n=49 v=100
396480 Off ch=4 n=49 v=100
396480 On ch=4 n=42 v=100
396960 Off ch=4 n=42 v=100
396960 On ch=4 n=49 v=100
397440 Off ch=4 n=49 v=100
397440 On ch=4 n=42 v=100
397920 Off ch=4 n=42 v=100
397920 On ch=4 n=49 v=100
398400 Off ch=4 n=49 v=100
398400 On ch=4 n=42 v=100
398880 Off ch=4 n=42 v=100
398880 On ch=4 n=49 v=100
399360 Off ch=4 n=49 v=100
399360 On ch=4 n=44 v=100
399840 Off ch=4 n=44 v=100
399840 On ch=4 n=51 v=100
400320 Off ch=4 n=51 v=100
400320 On ch=4 n=44 v=100
400800 Off ch=4 n=44 v=100
400800 On ch=4 n=51 v=100
401280 Off ch=4 n=51 v=100
401280 On ch=4 n=44 v=100
401760 Off ch=4 n=44 v=100
401760 On ch=4 n=51 v=100
402240 Off ch=4 n=51 v=100
402240 On ch=4 n=44 v=100
402720 Off ch=4 n=44 v=100
402720 On ch=4 n=51 v=100
403200 Off ch=4 n=51 v=100
403200 On ch=4 n=44 v=100
403680 Off ch=4 n=44 v=100
403680 On ch=4 n=51 v=100
404160 Off ch=4 n=51 v=100
404160 On ch=4 n=44 v=100
404640 Off ch=4 n=44 v=100
404640 On ch=4 n=51 v=100
405120 Off ch=4 n=51 v=100
405120 On ch=4 n=44 v=100
405600 Off ch=4 n=44 v=100
405600 On ch=4 n=51 v=100
406080 Off ch=4 n=51 v=100
406080 On ch=4 n=44 v=100
406560 Off ch=4 n=44 v=100
406560 On ch=4 n=51 v=100
407040 Off ch=4 n=51 v=100
407040 On ch=4 n=40 v=100
407520 Off ch=4 n=40 v=100
407520 On ch=4 n=47 v=100
408000 Off ch=4 n=47 v=100
408000 On ch=4 n=40 v=100
408480 Off ch=4 n=40 v=100
408480 On ch=4 n=47 v=100
408960 Off ch=4 n=47 v=100
408960 On ch=4 n=40 v=100
409440 Off ch=4 n=40 v=100
409440 On ch=4 n=47 v=100
409920 Off ch=4 n=47 v=100
409920 On ch=4 n=40 v=100
410400 Off ch=4 n=40 v=100
410400 On ch=4 n=47 v=100
410880 Off ch=4 n=47 v=100
410880 On ch=4 n=42 v=100
411360 Off ch=4 n=42 v=100
411360 On ch=4 n=49 v=100
411840 Off ch=4 n=49 v=100
411840 On ch=4 n=42 v=100
412320 Off ch=4 n=42 v=100
412320 On ch=4 n=49 v=100
412800 Off ch=4 n=49 v=100
412800 On ch=4 n=42 v=100
413280 Off ch=4 n=42 v=100
413280 On ch=4 n=49 v=100
413760 Off ch=4 n=49 v=100
413760 On ch=4 n=42 v=100
414240 Off ch=4 n=42 v=100
414240 On ch=4 n=49 v=100
414720 Off ch=4 n=49 v=100
414720 On ch=4 n=44 v=100
415200 Off ch=4 n=44 v=100
415200 On ch=4 n=51 v=100
415680 Off ch=4 n=51 v=100
415680 On ch=4 n=44 v=100
416160 Off ch=4 n=44 v=100
416160 On ch=4 n=51 v=100
416640 Off ch=4 n=51 v=100
416640 On ch=4 n=44 v=100
417120 Off ch=4 n=44 v=100
417120 On ch=4 n=51 v=100
417600 Off ch=4 n=51 v=100
417600 On ch=4 n=44 v=100
418080 Off ch=4 n=44 v=100
418080 On ch=4 n=51 v=100
418560 Off ch=4 n=51 v=100
418560 On ch=4 n=44 v=100
419040 Off ch=4 n=44 v=100
419040 On ch=4 n=51 v=100
419520 Off ch=4 n=51 v=100
419520 On ch=4 n=44 v=100
420000 Off ch=4 n=44 v=100
420000 On ch=4 n=51 v=100
420480 Off ch=4 n=51 v=100
420480 On ch=4 n=44 v=100
420960 Off ch=4 n=44 v=100
420960 On ch=4 n=51 v=100
421440 Off ch=4 n=51 v=100
421440 On ch=4 n=44 v=100
421920 Off ch=4 n=44 v=100
421920 On ch=4 n=51 v=100
422400 Off ch=4 n=51 v=100
422400 On ch=4 n=40 v=100
422880 Off ch=4 n=40 v=100
422880 On ch=4 n=47 v=100
423360 Off ch=4 n=47 v=100
423360 On ch=4 n=40 v=100
423840 Off ch=4 n=40 v=100
423840 On ch=4 n=47 v=100
424320 Off ch=4 n=47 v=100
424320 On ch=4 n=40 v=100
424800 Off ch=4 n=40 v=100
424800 On ch=4 n=47 v=100
425280 Off ch=4 n=47 v=100
425280 On ch=4 n=40 v=100
425760 Off ch=4 n=40 v=100
425760 On ch=4 n=47 v=100
426240 Off ch=4 n=47 v=100
426240 On ch=4 n=42 v=100
426720 Off ch=4 n=42 v=100
426720 On ch=4 n=49 v=100
427200 Off ch=4 n=49 v=100
427200 On ch=4 n=42 v=100
427680 Off ch=4 n=42 v=100
427680 On ch=4 n=49 v=100
428160 Off ch=4 n=49 v=100
428160 On ch=4 n=42 v=100
428640 Off ch=4 n=42 v=100
428640 On ch=4 n=49 v=100
429120 Off ch=4 n=49 v=100
429120 On ch=4 n=42 v=100
429600 Off ch=4 n=42 v=100
429600 On ch=4 n=49 v=100
430080 Off ch=4 n=49 v=100
430080 On ch=4 n=44 v=100
430080 On ch=4 n=51 v=100
432480 On ch=4 n=56 v=100
432960 Off ch=4 n=56 v=100
432960 On ch=4 n=54 v=100
433440 Off ch=4 n=54 v=100
433440 On ch=4 n=56 v=100
437760 Off ch=4 n=44 v=100
437760 Off ch=4 n=51 v=100
437760 Off ch=4 n=56 v=100
464640 Meta TrkEnd
TrkEnd
]]

end