PLUGIN.Name = "RFTM_strpattern_c"
PLUGIN.DefaultOn = false
PLUGIN.Description = ""
PLUGIN.Trigger = true

function PLUGIN:Load()
GUNSTRUMENTAL_CH1 = {"1"}
GUNSTRUMENTAL_CH2 = {"2"}
GUNSTRUMENTAL_DELAYBASE = 120
GUNSTRUMENTAL_NODELAYFILTER = true
GUNSTRUMENTAL_TAB =  [[MFile 1 2 960
MTrk
0 Tempo 500000
0 KeySig 4 major
2880 On ch=1 n=61 v=100
3360 Off ch=1 n=61 v=100
3360 On ch=1 n=64 v=100
3840 Off ch=1 n=64 v=100
3840 On ch=1 n=66 v=100
5760 Off ch=1 n=66 v=100
5760 On ch=1 n=68 v=100
6240 Off ch=1 n=68 v=100
6240 On ch=1 n=69 v=100
6720 Off ch=1 n=69 v=100
6720 On ch=1 n=73 v=100
7680 Off ch=1 n=73 v=100
7680 On ch=1 n=66 v=100
10080 Off ch=1 n=66 v=100
10080 On ch=1 n=73 v=100
10560 Off ch=1 n=73 v=100
10560 On ch=1 n=78 v=100
11040 Off ch=1 n=78 v=100
11040 On ch=1 n=80 v=100
11520 Off ch=1 n=80 v=100
11520 On ch=1 n=81 v=100
12480 Off ch=1 n=81 v=100
12480 On ch=1 n=78 v=100
13440 Off ch=1 n=78 v=100
13440 On ch=1 n=80 v=100
14400 Off ch=1 n=80 v=100
14400 On ch=1 n=76 v=100
15360 Off ch=1 n=76 v=100
15360 On ch=1 n=73 v=100
19200 Off ch=1 n=73 v=100
19200 On ch=1 n=66 v=100
21120 Off ch=1 n=66 v=100
21120 On ch=1 n=68 v=100
21600 Off ch=1 n=68 v=100
21600 On ch=1 n=69 v=100
22080 Off ch=1 n=69 v=100
22080 On ch=1 n=73 v=100
23040 Off ch=1 n=73 v=100
23040 On ch=1 n=66 v=100
24960 Off ch=1 n=66 v=100
24960 On ch=1 n=65 v=100
26880 Off ch=1 n=65 v=100
26880 On ch=1 n=66 v=100
27360 Off ch=1 n=66 v=100
27360 On ch=1 n=68 v=100
27840 Off ch=1 n=68 v=100
27840 On ch=1 n=69 v=100
28320 Off ch=1 n=69 v=100
28320 On ch=1 n=73 v=100
28800 Off ch=1 n=73 v=100
28800 On ch=1 n=69 v=100
29280 Off ch=1 n=69 v=100
29280 On ch=1 n=68 v=100
29760 Off ch=1 n=68 v=100
29760 On ch=1 n=66 v=100
30240 Off ch=1 n=66 v=100
30240 On ch=1 n=68 v=100
30720 Off ch=1 n=68 v=100
30720 On ch=1 n=69 v=100
31200 Off ch=1 n=69 v=100
31200 On ch=1 n=71 v=100
31680 Off ch=1 n=71 v=100
31680 On ch=1 n=73 v=100
32160 Off ch=1 n=73 v=100
32160 On ch=1 n=76 v=100
32640 Off ch=1 n=76 v=100
32640 On ch=1 n=78 v=100
34560 Off ch=1 n=78 v=100
35520 On ch=1 n=64 v=100
35760 Off ch=1 n=64 v=100
35760 On ch=1 n=68 v=100
36000 Off ch=1 n=68 v=100
36000 On ch=1 n=64 v=100
36240 Off ch=1 n=64 v=100
36240 On ch=1 n=63 v=100
36480 Off ch=1 n=63 v=100
37440 On ch=1 n=69 v=100
37680 Off ch=1 n=69 v=100
37680 On ch=1 n=64 v=100
37920 Off ch=1 n=64 v=100
37920 On ch=1 n=66 v=100
38160 Off ch=1 n=66 v=100
38160 On ch=1 n=64 v=100
38400 Off ch=1 n=64 v=100
39360 On ch=1 n=60 v=100
39600 Off ch=1 n=60 v=100
39600 On ch=1 n=63 v=100
39840 Off ch=1 n=63 v=100
39840 On ch=1 n=66 v=100
40080 Off ch=1 n=66 v=100
40080 On ch=1 n=63 v=100
40320 Off ch=1 n=63 v=100
41280 On ch=1 n=68 v=100
41520 Off ch=1 n=68 v=100
41520 On ch=1 n=64 v=100
41760 Off ch=1 n=64 v=100
41760 On ch=1 n=61 v=100
42000 Off ch=1 n=61 v=100
42000 On ch=1 n=68 v=100
42240 Off ch=1 n=68 v=100
43200 On ch=1 n=64 v=100
43440 Off ch=1 n=64 v=100
43440 On ch=1 n=68 v=100
43680 Off ch=1 n=68 v=100
43680 On ch=1 n=64 v=100
43920 Off ch=1 n=64 v=100
43920 On ch=1 n=63 v=100
44160 Off ch=1 n=63 v=100
45120 On ch=1 n=69 v=100
45360 Off ch=1 n=69 v=100
45360 On ch=1 n=64 v=100
45600 Off ch=1 n=64 v=100
45600 On ch=1 n=66 v=100
45840 Off ch=1 n=66 v=100
45840 On ch=1 n=64 v=100
46080 Off ch=1 n=64 v=100
47040 On ch=1 n=60 v=100
47280 Off ch=1 n=60 v=100
47280 On ch=1 n=63 v=100
47520 Off ch=1 n=63 v=100
47520 On ch=1 n=66 v=100
47760 Off ch=1 n=66 v=100
47760 On ch=1 n=63 v=100
48000 Off ch=1 n=63 v=100
48960 On ch=1 n=68 v=100
49200 Off ch=1 n=68 v=100
49200 On ch=1 n=64 v=100
49440 Off ch=1 n=64 v=100
49440 On ch=1 n=61 v=100
49680 Off ch=1 n=61 v=100
49680 On ch=1 n=68 v=100
49920 Off ch=1 n=68 v=100
50880 On ch=1 n=64 v=100
51120 Off ch=1 n=64 v=100
51120 On ch=1 n=68 v=100
51360 Off ch=1 n=68 v=100
51360 On ch=1 n=64 v=100
51600 Off ch=1 n=64 v=100
51600 On ch=1 n=63 v=100
51840 Off ch=1 n=63 v=100
52800 On ch=1 n=69 v=100
53040 Off ch=1 n=69 v=100
53040 On ch=1 n=64 v=100
53280 Off ch=1 n=64 v=100
53280 On ch=1 n=66 v=100
53520 Off ch=1 n=66 v=100
53520 On ch=1 n=64 v=100
53760 Off ch=1 n=64 v=100
54720 On ch=1 n=60 v=100
54960 Off ch=1 n=60 v=100
54960 On ch=1 n=63 v=100
55200 Off ch=1 n=63 v=100
55200 On ch=1 n=66 v=100
55440 Off ch=1 n=66 v=100
55440 On ch=1 n=63 v=100
55680 Off ch=1 n=63 v=100
56640 On ch=1 n=68 v=100
56880 Off ch=1 n=68 v=100
56880 On ch=1 n=64 v=100
57120 Off ch=1 n=64 v=100
57120 On ch=1 n=61 v=100
57360 Off ch=1 n=61 v=100
57360 On ch=1 n=68 v=100
57600 Off ch=1 n=68 v=100
58560 On ch=1 n=61 v=100
58800 Off ch=1 n=61 v=100
58800 On ch=1 n=63 v=100
59040 Off ch=1 n=63 v=100
59040 On ch=1 n=64 v=100
59280 Off ch=1 n=64 v=100
59280 On ch=1 n=68 v=100
59520 Off ch=1 n=68 v=100
60480 On ch=1 n=61 v=100
60720 Off ch=1 n=61 v=100
60720 On ch=1 n=63 v=100
60960 Off ch=1 n=63 v=100
60960 On ch=1 n=64 v=100
61200 Off ch=1 n=64 v=100
61200 On ch=1 n=69 v=100
61440 Off ch=1 n=69 v=100
61680 On ch=1 n=78 v=100
61920 Off ch=1 n=78 v=100
61920 On ch=1 n=75 v=100
62160 Off ch=1 n=75 v=100
62160 On ch=1 n=72 v=100
62400 Off ch=1 n=72 v=100
62400 On ch=1 n=68 v=100
62880 Off ch=1 n=68 v=100
62880 On ch=1 n=66 v=100
63360 Off ch=1 n=66 v=100
63600 On ch=1 n=64 v=100
63840 Off ch=1 n=64 v=100
63840 On ch=1 n=66 v=100
64080 Off ch=1 n=66 v=100
64080 On ch=1 n=68 v=100
64320 Off ch=1 n=68 v=100
64320 On ch=1 n=63 v=100
64800 Off ch=1 n=63 v=100
64800 On ch=1 n=66 v=100
65280 Off ch=1 n=66 v=100
65280 On ch=1 n=68 v=100
65280 KeySig 5 major
67200 Off ch=1 n=68 v=100
67200 On ch=1 n=70 v=100
67680 Off ch=1 n=70 v=100
67680 On ch=1 n=71 v=100
68160 Off ch=1 n=71 v=100
68160 On ch=1 n=75 v=100
69120 Off ch=1 n=75 v=100
69120 On ch=1 n=68 v=100
71520 Off ch=1 n=68 v=100
71520 On ch=1 n=75 v=100
72000 Off ch=1 n=75 v=100
72000 On ch=1 n=80 v=100
72480 Off ch=1 n=80 v=100
72480 On ch=1 n=82 v=100
72960 Off ch=1 n=82 v=100
72960 On ch=1 n=83 v=100
73920 Off ch=1 n=83 v=100
73920 On ch=1 n=80 v=100
74880 Off ch=1 n=80 v=100
74880 On ch=1 n=82 v=100
75840 Off ch=1 n=82 v=100
75840 On ch=1 n=78 v=100
76800 Off ch=1 n=78 v=100
76800 On ch=1 n=75 v=100
80640 Off ch=1 n=75 v=100
80640 On ch=1 n=68 v=100
82560 Off ch=1 n=68 v=100
82560 On ch=1 n=70 v=100
83040 Off ch=1 n=70 v=100
83040 On ch=1 n=71 v=100
83520 Off ch=1 n=71 v=100
83520 On ch=1 n=75 v=100
84480 Off ch=1 n=75 v=100
84480 On ch=1 n=68 v=100
86400 Off ch=1 n=68 v=100
86400 On ch=1 n=67 v=100
88320 Off ch=1 n=67 v=100
88320 On ch=1 n=68 v=100
88800 Off ch=1 n=68 v=100
88800 On ch=1 n=70 v=100
89280 Off ch=1 n=70 v=100
89280 On ch=1 n=71 v=100
89760 Off ch=1 n=71 v=100
89760 On ch=1 n=75 v=100
90240 Off ch=1 n=75 v=100
90240 On ch=1 n=71 v=100
90720 Off ch=1 n=71 v=100
90720 On ch=1 n=70 v=100
91200 Off ch=1 n=70 v=100
91200 On ch=1 n=68 v=100
91680 Off ch=1 n=68 v=100
91680 On ch=1 n=70 v=100
92160 Off ch=1 n=70 v=100
92160 On ch=1 n=71 v=100
92640 Off ch=1 n=71 v=100
92640 On ch=1 n=73 v=100
93120 Off ch=1 n=73 v=100
93120 On ch=1 n=75 v=100
93600 Off ch=1 n=75 v=100
93600 On ch=1 n=78 v=100
94080 Off ch=1 n=78 v=100
94080 On ch=1 n=80 v=100
96000 Off ch=1 n=80 v=100
96000 On ch=1 n=68 v=100
97920 Off ch=1 n=68 v=100
97920 On ch=1 n=70 v=100
98400 Off ch=1 n=70 v=100
98400 On ch=1 n=71 v=100
98880 Off ch=1 n=71 v=100
98880 On ch=1 n=75 v=100
99840 Off ch=1 n=75 v=100
99840 On ch=1 n=68 v=100
102240 Off ch=1 n=68 v=100
102240 On ch=1 n=75 v=100
102720 Off ch=1 n=75 v=100
102720 On ch=1 n=80 v=100
103200 Off ch=1 n=80 v=100
103200 On ch=1 n=82 v=100
103680 Off ch=1 n=82 v=100
103680 On ch=1 n=83 v=100
104640 Off ch=1 n=83 v=100
104640 On ch=1 n=80 v=100
105600 Off ch=1 n=80 v=100
105600 On ch=1 n=82 v=100
106560 Off ch=1 n=82 v=100
106560 On ch=1 n=78 v=100
107520 Off ch=1 n=78 v=100
107520 On ch=1 n=75 v=100
111360 Off ch=1 n=75 v=100
111360 On ch=1 n=68 v=100
113280 Off ch=1 n=68 v=100
113280 On ch=1 n=70 v=100
113760 Off ch=1 n=70 v=100
113760 On ch=1 n=71 v=100
114240 Off ch=1 n=71 v=100
114240 On ch=1 n=75 v=100
115200 Off ch=1 n=75 v=100
115200 On ch=1 n=68 v=100
117120 Off ch=1 n=68 v=100
117120 On ch=1 n=67 v=100
119040 Off ch=1 n=67 v=100
119040 On ch=1 n=68 v=100
119520 Off ch=1 n=68 v=100
119520 On ch=1 n=70 v=100
120000 Off ch=1 n=70 v=100
120000 On ch=1 n=71 v=100
120480 Off ch=1 n=71 v=100
120480 On ch=1 n=75 v=100
120960 Off ch=1 n=75 v=100
120960 On ch=1 n=71 v=100
121440 Off ch=1 n=71 v=100
121440 On ch=1 n=70 v=100
121920 Off ch=1 n=70 v=100
121920 On ch=1 n=68 v=100
122400 Off ch=1 n=68 v=100
122400 On ch=1 n=70 v=100
122880 Off ch=1 n=70 v=100
122880 On ch=1 n=71 v=100
123360 Off ch=1 n=71 v=100
123360 On ch=1 n=73 v=100
123840 Off ch=1 n=73 v=100
123840 On ch=1 n=75 v=100
124320 Off ch=1 n=75 v=100
124320 On ch=1 n=78 v=100
124800 Off ch=1 n=78 v=100
124800 On ch=1 n=80 v=100
126720 Off ch=1 n=80 v=100
127680 On ch=1 n=67 v=100
127920 Off ch=1 n=67 v=100
127920 On ch=1 n=71 v=100
128160 Off ch=1 n=71 v=100
128160 On ch=1 n=67 v=100
128400 Off ch=1 n=67 v=100
128400 On ch=1 n=66 v=100
128640 Off ch=1 n=66 v=100
129600 On ch=1 n=72 v=100
129840 Off ch=1 n=72 v=100
129840 On ch=1 n=67 v=100
130080 Off ch=1 n=67 v=100
130080 On ch=1 n=69 v=100
130320 Off ch=1 n=69 v=100
130320 On ch=1 n=67 v=100
130560 Off ch=1 n=67 v=100
131520 On ch=1 n=63 v=100
131760 Off ch=1 n=63 v=100
131760 On ch=1 n=66 v=100
132000 Off ch=1 n=66 v=100
132000 On ch=1 n=69 v=100
132240 Off ch=1 n=69 v=100
132240 On ch=1 n=66 v=100
132480 Off ch=1 n=66 v=100
133440 On ch=1 n=64 v=100
133680 Off ch=1 n=64 v=100
133680 On ch=1 n=66 v=100
133920 Off ch=1 n=66 v=100
133920 On ch=1 n=67 v=100
134160 Off ch=1 n=67 v=100
134160 On ch=1 n=71 v=100
134400 Off ch=1 n=71 v=100
135360 On ch=1 n=67 v=100
135600 Off ch=1 n=67 v=100
135600 On ch=1 n=71 v=100
135840 Off ch=1 n=71 v=100
135840 On ch=1 n=67 v=100
136080 Off ch=1 n=67 v=100
136080 On ch=1 n=66 v=100
136320 Off ch=1 n=66 v=100
137280 On ch=1 n=72 v=100
137520 Off ch=1 n=72 v=100
137520 On ch=1 n=67 v=100
137760 Off ch=1 n=67 v=100
137760 On ch=1 n=69 v=100
138000 Off ch=1 n=69 v=100
138000 On ch=1 n=67 v=100
138240 Off ch=1 n=67 v=100
139200 On ch=1 n=63 v=100
139440 Off ch=1 n=63 v=100
139440 On ch=1 n=66 v=100
139680 Off ch=1 n=66 v=100
139680 On ch=1 n=69 v=100
139920 Off ch=1 n=69 v=100
139920 On ch=1 n=66 v=100
140160 Off ch=1 n=66 v=100
141120 On ch=1 n=64 v=100
141360 Off ch=1 n=64 v=100
141360 On ch=1 n=66 v=100
141600 Off ch=1 n=66 v=100
141600 On ch=1 n=67 v=100
141840 Off ch=1 n=67 v=100
141840 On ch=1 n=71 v=100
142080 Off ch=1 n=71 v=100
143040 On ch=1 n=67 v=100
143280 Off ch=1 n=67 v=100
143280 On ch=1 n=71 v=100
143520 Off ch=1 n=71 v=100
143520 On ch=1 n=67 v=100
143760 Off ch=1 n=67 v=100
143760 On ch=1 n=66 v=100
144000 Off ch=1 n=66 v=100
144960 On ch=1 n=72 v=100
145200 Off ch=1 n=72 v=100
145200 On ch=1 n=67 v=100
145440 Off ch=1 n=67 v=100
145440 On ch=1 n=69 v=100
145680 Off ch=1 n=69 v=100
145680 On ch=1 n=67 v=100
145920 Off ch=1 n=67 v=100
146880 On ch=1 n=63 v=100
147120 Off ch=1 n=63 v=100
147120 On ch=1 n=66 v=100
147360 Off ch=1 n=66 v=100
147360 On ch=1 n=69 v=100
147600 Off ch=1 n=69 v=100
147600 On ch=1 n=66 v=100
147840 Off ch=1 n=66 v=100
148800 On ch=1 n=64 v=100
149040 Off ch=1 n=64 v=100
149040 On ch=1 n=66 v=100
149280 Off ch=1 n=66 v=100
149280 On ch=1 n=67 v=100
149520 Off ch=1 n=67 v=100
149520 On ch=1 n=71 v=100
149760 Off ch=1 n=71 v=100
150720 On ch=1 n=67 v=100
150960 Off ch=1 n=67 v=100
150960 On ch=1 n=71 v=100
151200 Off ch=1 n=71 v=100
151200 On ch=1 n=67 v=100
151440 Off ch=1 n=67 v=100
151440 On ch=1 n=66 v=100
151680 Off ch=1 n=66 v=100
152640 On ch=1 n=72 v=100
152880 Off ch=1 n=72 v=100
152880 On ch=1 n=67 v=100
153120 Off ch=1 n=67 v=100
153120 On ch=1 n=69 v=100
153360 Off ch=1 n=69 v=100
153360 On ch=1 n=67 v=100
153600 Off ch=1 n=67 v=100
154560 On ch=1 n=63 v=100
154800 Off ch=1 n=63 v=100
154800 On ch=1 n=66 v=100
155040 Off ch=1 n=66 v=100
155040 On ch=1 n=69 v=100
155280 Off ch=1 n=69 v=100
155280 On ch=1 n=66 v=100
155520 Off ch=1 n=66 v=100
156480 On ch=1 n=64 v=100
156720 Off ch=1 n=64 v=100
156720 On ch=1 n=66 v=100
156960 Off ch=1 n=66 v=100
156960 On ch=1 n=67 v=100
157200 Off ch=1 n=67 v=100
157200 On ch=1 n=71 v=100
157440 Off ch=1 n=71 v=100
157440 On ch=1 n=71 v=100
158400 Off ch=1 n=71 v=100
158400 On ch=1 n=67 v=100
158640 Off ch=1 n=67 v=100
158640 On ch=1 n=71 v=100
158880 Off ch=1 n=71 v=100
158880 On ch=1 n=67 v=100
159120 Off ch=1 n=67 v=100
159120 On ch=1 n=66 v=100
159360 Off ch=1 n=66 v=100
159360 On ch=1 n=72 v=100
160320 Off ch=1 n=72 v=100
160320 On ch=1 n=72 v=100
160560 Off ch=1 n=72 v=100
160560 On ch=1 n=67 v=100
160800 Off ch=1 n=67 v=100
160800 On ch=1 n=69 v=100
161040 Off ch=1 n=69 v=100
161040 On ch=1 n=67 v=100
161280 Off ch=1 n=67 v=100
161280 On ch=1 n=69 v=100
162240 Off ch=1 n=69 v=100
162240 On ch=1 n=63 v=100
162480 Off ch=1 n=63 v=100
162480 On ch=1 n=66 v=100
162720 Off ch=1 n=66 v=100
162720 On ch=1 n=69 v=100
162960 Off ch=1 n=69 v=100
162960 On ch=1 n=66 v=100
163200 Off ch=1 n=66 v=100
163200 On ch=1 n=71 v=100
164160 Off ch=1 n=71 v=100
164160 On ch=1 n=64 v=100
164400 Off ch=1 n=64 v=100
164400 On ch=1 n=66 v=100
164640 Off ch=1 n=66 v=100
164640 On ch=1 n=67 v=100
164880 Off ch=1 n=67 v=100
164880 On ch=1 n=71 v=100
165120 Off ch=1 n=71 v=100
165120 On ch=1 n=71 v=100
166080 Off ch=1 n=71 v=100
166080 On ch=1 n=67 v=100
166320 Off ch=1 n=67 v=100
166320 On ch=1 n=71 v=100
166560 Off ch=1 n=71 v=100
166560 On ch=1 n=67 v=100
166800 Off ch=1 n=67 v=100
166800 On ch=1 n=66 v=100
167040 Off ch=1 n=66 v=100
167040 On ch=1 n=72 v=100
168000 Off ch=1 n=72 v=100
168000 On ch=1 n=72 v=100
168240 Off ch=1 n=72 v=100
168240 On ch=1 n=67 v=100
168480 Off ch=1 n=67 v=100
168480 On ch=1 n=69 v=100
168720 Off ch=1 n=69 v=100
168720 On ch=1 n=67 v=100
168960 Off ch=1 n=67 v=100
168960 On ch=1 n=69 v=100
169920 Off ch=1 n=69 v=100
169920 On ch=1 n=63 v=100
170160 Off ch=1 n=63 v=100
170160 On ch=1 n=66 v=100
170400 Off ch=1 n=66 v=100
170400 On ch=1 n=69 v=100
170640 Off ch=1 n=69 v=100
170640 On ch=1 n=66 v=100
170880 Off ch=1 n=66 v=100
170880 On ch=1 n=71 v=100
171840 Off ch=1 n=71 v=100
171840 On ch=1 n=64 v=100
172080 Off ch=1 n=64 v=100
172080 On ch=1 n=66 v=100
172320 Off ch=1 n=66 v=100
172320 On ch=1 n=67 v=100
172560 Off ch=1 n=67 v=100
172560 On ch=1 n=71 v=100
172800 Off ch=1 n=71 v=100
173760 On ch=1 n=64 v=100
174000 Off ch=1 n=64 v=100
174000 On ch=1 n=66 v=100
174240 Off ch=1 n=66 v=100
174240 On ch=1 n=67 v=100
174480 Off ch=1 n=67 v=100
174480 On ch=1 n=71 v=100
174720 Off ch=1 n=71 v=100
175680 On ch=1 n=64 v=100
175920 Off ch=1 n=64 v=100
175920 On ch=1 n=66 v=100
176160 Off ch=1 n=66 v=100
176160 On ch=1 n=67 v=100
176400 Off ch=1 n=67 v=100
176400 On ch=1 n=72 v=100
176640 Off ch=1 n=72 v=100
176880 On ch=1 n=72 v=100
177120 Off ch=1 n=72 v=100
177120 On ch=1 n=69 v=100
177360 Off ch=1 n=69 v=100
177360 On ch=1 n=66 v=100
177600 Off ch=1 n=66 v=100
177600 On ch=1 n=63 v=100
178080 Off ch=1 n=63 v=100
178080 On ch=1 n=59 v=100
178560 Off ch=1 n=59 v=100
178560 On ch=1 n=63 v=100
178800 Off ch=1 n=63 v=100
178800 On ch=1 n=66 v=100
179040 Off ch=1 n=66 v=100
179040 On ch=1 n=67 v=100
179280 Off ch=1 n=67 v=100
179280 On ch=1 n=69 v=100
179520 Off ch=1 n=69 v=100
179520 On ch=1 n=71 v=100
180480 Off ch=1 n=71 v=100
181440 On ch=1 n=64 v=100
181680 Off ch=1 n=64 v=100
181680 On ch=1 n=66 v=100
181920 Off ch=1 n=66 v=100
181920 On ch=1 n=67 v=100
182160 Off ch=1 n=67 v=100
182160 On ch=1 n=71 v=100
182400 Off ch=1 n=71 v=100
183360 On ch=1 n=64 v=100
183600 Off ch=1 n=64 v=100
183600 On ch=1 n=66 v=100
183840 Off ch=1 n=66 v=100
183840 On ch=1 n=67 v=100
184080 Off ch=1 n=67 v=100
184080 On ch=1 n=72 v=100
184320 Off ch=1 n=72 v=100
184560 On ch=1 n=72 v=100
184800 Off ch=1 n=72 v=100
184800 On ch=1 n=69 v=100
185040 Off ch=1 n=69 v=100
185040 On ch=1 n=66 v=100
185280 Off ch=1 n=66 v=100
185280 On ch=1 n=63 v=100
185760 Off ch=1 n=63 v=100
185760 On ch=1 n=60 v=100
186240 Off ch=1 n=60 v=100
186240 On ch=1 n=64 v=100
186480 Off ch=1 n=64 v=100
186480 On ch=1 n=66 v=100
186720 Off ch=1 n=66 v=100
186720 On ch=1 n=67 v=100
186960 Off ch=1 n=67 v=100
186960 On ch=1 n=71 v=100
187200 Off ch=1 n=71 v=100
187200 On ch=1 n=76 v=100
188160 Off ch=1 n=76 v=100
188160 KeySig 251 major
192000 On ch=1 n=54 v=100
192480 Off ch=1 n=54 v=100
192480 On ch=1 n=61 v=100
192960 Off ch=1 n=61 v=100
192960 On ch=1 n=66 v=100
193920 Off ch=1 n=66 v=100
193920 On ch=1 n=56 v=100
194400 Off ch=1 n=56 v=100
194400 On ch=1 n=63 v=100
194880 Off ch=1 n=63 v=100
194880 On ch=1 n=68 v=100
195840 Off ch=1 n=68 v=100
195840 On ch=1 n=58 v=100
196320 Off ch=1 n=58 v=100
196320 On ch=1 n=65 v=100
196800 Off ch=1 n=65 v=100
196800 On ch=1 n=70 v=100
199680 Off ch=1 n=70 v=100
199680 On ch=1 n=58 v=100
200160 Off ch=1 n=58 v=100
200160 On ch=1 n=65 v=100
200640 Off ch=1 n=65 v=100
200640 On ch=1 n=70 v=100
201600 Off ch=1 n=70 v=100
201600 On ch=1 n=60 v=100
202080 Off ch=1 n=60 v=100
202080 On ch=1 n=68 v=100
202560 Off ch=1 n=68 v=100
202560 On ch=1 n=72 v=100
203520 Off ch=1 n=72 v=100
203520 On ch=1 n=65 v=100
204000 Off ch=1 n=65 v=100
204000 On ch=1 n=60 v=100
204480 Off ch=1 n=60 v=100
204480 On ch=1 n=65 v=100
204960 Off ch=1 n=65 v=100
204960 On ch=1 n=72 v=100
205440 Off ch=1 n=72 v=100
205440 On ch=1 n=65 v=100
205920 Off ch=1 n=65 v=100
205920 On ch=1 n=60 v=100
206400 Off ch=1 n=60 v=100
206400 On ch=1 n=65 v=100
206880 Off ch=1 n=65 v=100
206880 On ch=1 n=72 v=100
207360 Off ch=1 n=72 v=100
207360 On ch=1 n=70 v=100
207600 Off ch=1 n=70 v=100
207840 On ch=1 n=78 v=100
208080 Off ch=1 n=78 v=100
208320 On ch=1 n=70 v=100
208560 Off ch=1 n=70 v=100
208800 On ch=1 n=78 v=100
209040 Off ch=1 n=78 v=100
209280 On ch=1 n=72 v=100
209520 Off ch=1 n=72 v=100
209760 On ch=1 n=77 v=100
210000 Off ch=1 n=77 v=100
210240 On ch=1 n=72 v=100
210480 Off ch=1 n=72 v=100
210720 On ch=1 n=77 v=100
210960 Off ch=1 n=77 v=100
211200 On ch=1 n=73 v=100
211440 Off ch=1 n=73 v=100
211680 On ch=1 n=78 v=100
211920 Off ch=1 n=78 v=100
212160 On ch=1 n=73 v=100
212400 Off ch=1 n=73 v=100
212640 On ch=1 n=78 v=100
212880 Off ch=1 n=78 v=100
213120 On ch=1 n=72 v=100
213360 Off ch=1 n=72 v=100
213600 On ch=1 n=77 v=100
213840 Off ch=1 n=77 v=100
214080 On ch=1 n=72 v=100
214320 Off ch=1 n=72 v=100
214560 On ch=1 n=77 v=100
214800 Off ch=1 n=77 v=100
215040 On ch=1 n=73 v=100
215280 Off ch=1 n=73 v=100
215520 On ch=1 n=78 v=100
215760 Off ch=1 n=78 v=100
216000 On ch=1 n=73 v=100
216240 Off ch=1 n=73 v=100
216480 On ch=1 n=82 v=100
216720 Off ch=1 n=82 v=100
216720 On ch=1 n=78 v=100
216960 Off ch=1 n=78 v=100
216960 On ch=1 n=75 v=100
217200 Off ch=1 n=75 v=100
217440 On ch=1 n=80 v=100
217680 Off ch=1 n=80 v=100
217920 On ch=1 n=75 v=100
218160 Off ch=1 n=75 v=100
218160 On ch=1 n=80 v=100
218400 Off ch=1 n=80 v=100
218400 On ch=1 n=82 v=100
218640 Off ch=1 n=82 v=100
218640 On ch=1 n=84 v=100
218880 Off ch=1 n=84 v=100
218880 On ch=1 n=73 v=100
219120 Off ch=1 n=73 v=100
219360 On ch=1 n=78 v=100
219600 Off ch=1 n=78 v=100
219840 On ch=1 n=75 v=100
220080 Off ch=1 n=75 v=100
220320 On ch=1 n=80 v=100
220560 Off ch=1 n=80 v=100
220800 On ch=1 n=77 v=100
221040 Off ch=1 n=77 v=100
221280 On ch=1 n=82 v=100
221520 Off ch=1 n=82 v=100
221520 On ch=1 n=86 v=100
222000 Off ch=1 n=86 v=100
222000 On ch=1 n=82 v=100
222240 Off ch=1 n=82 v=100
222240 On ch=1 n=86 v=100
222720 Off ch=1 n=86 v=100
222720 On ch=1 n=67 v=100
222720 KeySig 254 major
224640 Off ch=1 n=67 v=100
224640 On ch=1 n=69 v=100
225120 Off ch=1 n=69 v=100
225120 On ch=1 n=70 v=100
225600 Off ch=1 n=70 v=100
225600 On ch=1 n=74 v=100
226560 Off ch=1 n=74 v=100
226560 On ch=1 n=67 v=100
228960 Off ch=1 n=67 v=100
228960 On ch=1 n=74 v=100
229440 Off ch=1 n=74 v=100
229440 On ch=1 n=79 v=100
229920 Off ch=1 n=79 v=100
229920 On ch=1 n=81 v=100
230400 Off ch=1 n=81 v=100
230400 On ch=1 n=82 v=100
231360 Off ch=1 n=82 v=100
231360 On ch=1 n=79 v=100
232320 Off ch=1 n=79 v=100
232320 On ch=1 n=81 v=100
233280 Off ch=1 n=81 v=100
233280 On ch=1 n=77 v=100
234240 Off ch=1 n=77 v=100
234240 On ch=1 n=74 v=100
234240 On ch=1 n=69 v=100
238080 Off ch=1 n=74 v=100
238080 Off ch=1 n=69 v=100
238080 On ch=1 n=67 v=100
238080 On ch=1 n=63 v=100
240000 Off ch=1 n=67 v=100
240000 Off ch=1 n=63 v=100
240000 On ch=1 n=69 v=100
240000 On ch=1 n=65 v=100
240480 Off ch=1 n=69 v=100
240480 Off ch=1 n=65 v=100
240480 On ch=1 n=70 v=100
240480 On ch=1 n=67 v=100
240960 Off ch=1 n=70 v=100
240960 Off ch=1 n=67 v=100
240960 On ch=1 n=74 v=100
240960 On ch=1 n=70 v=100
241920 Off ch=1 n=74 v=100
241920 Off ch=1 n=70 v=100
241920 On ch=1 n=67 v=100
241920 On ch=1 n=63 v=100
243840 Off ch=1 n=67 v=100
243840 Off ch=1 n=63 v=100
243840 On ch=1 n=66 v=100
243840 On ch=1 n=62 v=100
245760 Off ch=1 n=66 v=100
245760 Off ch=1 n=62 v=100
245760 On ch=1 n=67 v=100
246240 Off ch=1 n=67 v=100
246240 On ch=1 n=69 v=100
246720 Off ch=1 n=69 v=100
246720 On ch=1 n=70 v=100
247200 Off ch=1 n=70 v=100
247200 On ch=1 n=74 v=100
247680 Off ch=1 n=74 v=100
247680 On ch=1 n=70 v=100
248160 Off ch=1 n=70 v=100
248160 On ch=1 n=69 v=100
248640 Off ch=1 n=69 v=100
248640 On ch=1 n=67 v=100
249120 Off ch=1 n=67 v=100
249120 On ch=1 n=69 v=100
249600 Off ch=1 n=69 v=100
249600 On ch=1 n=70 v=100
250080 Off ch=1 n=70 v=100
250080 On ch=1 n=72 v=100
250560 Off ch=1 n=72 v=100
250560 On ch=1 n=74 v=100
251040 Off ch=1 n=74 v=100
251040 On ch=1 n=77 v=100
251520 Off ch=1 n=77 v=100
251520 On ch=1 n=79 v=100
251520 On ch=1 n=74 v=100
253440 Off ch=1 n=79 v=100
253440 Off ch=1 n=74 v=100
253440 On ch=1 n=68 v=100
253440 On ch=1 n=76 v=100
253440 KeySig 5 major
255360 Off ch=1 n=68 v=100
255360 Off ch=1 n=76 v=100
255360 On ch=1 n=70 v=100
255360 On ch=1 n=78 v=100
255840 Off ch=1 n=70 v=100
255840 Off ch=1 n=78 v=100
255840 On ch=1 n=71 v=100
255840 On ch=1 n=80 v=100
256320 Off ch=1 n=71 v=100
256320 Off ch=1 n=80 v=100
256320 On ch=1 n=75 v=100
256320 On ch=1 n=83 v=100
257280 Off ch=1 n=75 v=100
257280 Off ch=1 n=83 v=100
257280 On ch=1 n=68 v=100
257280 On ch=1 n=75 v=100
259680 Off ch=1 n=68 v=100
259680 Off ch=1 n=75 v=100
259680 On ch=1 n=75 v=100
260160 Off ch=1 n=75 v=100
260160 On ch=1 n=80 v=100
260640 Off ch=1 n=80 v=100
260640 On ch=1 n=82 v=100
261120 Off ch=1 n=82 v=100
261120 On ch=1 n=83 v=100
261120 On ch=1 n=87 v=100
262080 Off ch=1 n=83 v=100
262080 Off ch=1 n=87 v=100
262080 On ch=1 n=80 v=100
262080 On ch=1 n=83 v=100
263040 Off ch=1 n=80 v=100
263040 Off ch=1 n=83 v=100
263040 On ch=1 n=82 v=100
263040 On ch=1 n=85 v=100
264000 Off ch=1 n=82 v=100
264000 Off ch=1 n=85 v=100
264000 On ch=1 n=78 v=100
264000 On ch=1 n=82 v=100
264960 Off ch=1 n=78 v=100
264960 Off ch=1 n=82 v=100
264960 On ch=1 n=75 v=100
264960 On ch=1 n=79 v=100
268800 Off ch=1 n=75 v=100
268800 Off ch=1 n=79 v=100
268800 On ch=1 n=68 v=100
268800 On ch=1 n=76 v=100
270720 Off ch=1 n=68 v=100
270720 Off ch=1 n=76 v=100
270720 On ch=1 n=70 v=100
270720 On ch=1 n=78 v=100
271200 Off ch=1 n=70 v=100
271200 Off ch=1 n=78 v=100
271200 On ch=1 n=71 v=100
271200 On ch=1 n=80 v=100
271680 Off ch=1 n=71 v=100
271680 Off ch=1 n=80 v=100
271680 On ch=1 n=75 v=100
271680 On ch=1 n=83 v=100
272640 Off ch=1 n=75 v=100
272640 Off ch=1 n=83 v=100
272640 On ch=1 n=68 v=100
272640 On ch=1 n=71 v=100
274560 Off ch=1 n=68 v=100
274560 Off ch=1 n=71 v=100
274560 On ch=1 n=67 v=100
274560 On ch=1 n=70 v=100
276480 Off ch=1 n=67 v=100
276480 Off ch=1 n=70 v=100
276480 On ch=1 n=68 v=100
276960 Off ch=1 n=68 v=100
276960 On ch=1 n=70 v=100
277440 Off ch=1 n=70 v=100
277440 On ch=1 n=71 v=100
277920 Off ch=1 n=71 v=100
277920 On ch=1 n=75 v=100
278400 Off ch=1 n=75 v=100
278400 On ch=1 n=71 v=100
278880 Off ch=1 n=71 v=100
278880 On ch=1 n=70 v=100
279360 Off ch=1 n=70 v=100
279360 On ch=1 n=68 v=100
279840 Off ch=1 n=68 v=100
279840 On ch=1 n=70 v=100
280320 Off ch=1 n=70 v=100
280320 On ch=1 n=71 v=100
280800 Off ch=1 n=71 v=100
280800 On ch=1 n=73 v=100
281280 Off ch=1 n=73 v=100
281280 On ch=1 n=75 v=100
281760 Off ch=1 n=75 v=100
281760 On ch=1 n=78 v=100
282240 Off ch=1 n=78 v=100
282240 On ch=1 n=80 v=100
282240 On ch=1 n=75 v=100
288000 Off ch=1 n=80 v=100
288000 Off ch=1 n=75 v=100
326400 Meta TrkEnd
TrkEnd
MTrk
3840 On ch=1 n=50 v=100
4320 Off ch=1 n=50 v=100
4320 On ch=2 n=57 v=100
4800 Off ch=2 n=57 v=100
4800 On ch=2 n=62 v=100
5760 Off ch=2 n=62 v=100
5760 On ch=2 n=52 v=100
6240 Off ch=2 n=52 v=100
6240 On ch=2 n=59 v=100
6720 Off ch=2 n=59 v=100
6720 On ch=2 n=64 v=100
7680 Off ch=2 n=64 v=100
7680 On ch=2 n=54 v=100
8160 Off ch=2 n=54 v=100
8160 On ch=2 n=57 v=100
8640 Off ch=2 n=57 v=100
8640 On ch=2 n=61 v=100
9120 Off ch=2 n=61 v=100
9120 On ch=2 n=57 v=100
9600 Off ch=2 n=57 v=100
9600 On ch=2 n=54 v=100
11520 Off ch=2 n=54 v=100
11520 On ch=2 n=50 v=100
12000 Off ch=2 n=50 v=100
12000 On ch=2 n=57 v=100
12480 Off ch=2 n=57 v=100
12480 On ch=2 n=62 v=100
13440 Off ch=2 n=62 v=100
13440 On ch=2 n=52 v=100
13920 Off ch=2 n=52 v=100
13920 On ch=2 n=59 v=100
14400 Off ch=2 n=59 v=100
14400 On ch=2 n=64 v=100
15360 Off ch=2 n=64 v=100
15360 On ch=2 n=49 v=100
15840 Off ch=2 n=49 v=100
15840 On ch=2 n=56 v=100
16320 Off ch=2 n=56 v=100
16320 On ch=2 n=61 v=100
16800 Off ch=2 n=61 v=100
16800 On ch=2 n=56 v=100
17280 Off ch=2 n=56 v=100
17280 On ch=2 n=49 v=100
17760 Off ch=2 n=49 v=100
17760 On ch=2 n=56 v=100
18240 Off ch=2 n=56 v=100
18240 On ch=2 n=61 v=100
18720 Off ch=2 n=61 v=100
18720 On ch=2 n=56 v=100
19200 Off ch=2 n=56 v=100
19200 On ch=2 n=47 v=100
19680 Off ch=2 n=47 v=100
19680 On ch=2 n=54 v=100
20160 Off ch=2 n=54 v=100
20160 On ch=2 n=59 v=100
21120 Off ch=2 n=59 v=100
21120 On ch=2 n=49 v=100
21600 Off ch=2 n=49 v=100
21600 On ch=2 n=56 v=100
22080 Off ch=2 n=56 v=100
22080 On ch=2 n=61 v=100
23040 Off ch=2 n=61 v=100
23040 On ch=2 n=50 v=100
23520 Off ch=2 n=50 v=100
23520 On ch=2 n=57 v=100
24000 Off ch=2 n=57 v=100
24000 On ch=2 n=62 v=100
24960 Off ch=2 n=62 v=100
24960 On ch=2 n=49 v=100
25440 Off ch=2 n=49 v=100
25440 On ch=2 n=56 v=100
25920 Off ch=2 n=56 v=100
25920 On ch=2 n=61 v=100
26880 Off ch=2 n=61 v=100
26880 On ch=2 n=50 v=100
27360 Off ch=2 n=50 v=100
27360 On ch=2 n=54 v=100
27840 Off ch=2 n=54 v=100
27840 On ch=2 n=57 v=100
28320 Off ch=2 n=57 v=100
28320 On ch=2 n=54 v=100
28800 Off ch=2 n=54 v=100
28800 On ch=2 n=52 v=100
29280 Off ch=2 n=52 v=100
29280 On ch=2 n=56 v=100
29760 Off ch=2 n=56 v=100
29760 On ch=2 n=59 v=100
30240 Off ch=2 n=59 v=100
30240 On ch=2 n=56 v=100
30720 Off ch=2 n=56 v=100
30720 On ch=2 n=50 v=100
31680 Off ch=2 n=50 v=100
31680 On ch=2 n=52 v=100
32640 Off ch=2 n=52 v=100
32640 On ch=2 n=54 v=100
34560 Off ch=2 n=54 v=100
34560 On ch=1 n=49 v=100
35040 Off ch=1 n=49 v=100
35040 On ch=1 n=52 v=100
35520 Off ch=1 n=52 v=100
35520 On ch=1 n=49 v=100
36000 Off ch=1 n=49 v=100
36000 On ch=1 n=52 v=100
36480 Off ch=1 n=52 v=100
36480 On ch=1 n=49 v=100
36960 Off ch=1 n=49 v=100
36960 On ch=1 n=52 v=100
37440 Off ch=1 n=52 v=100
37440 On ch=1 n=49 v=100
37920 Off ch=1 n=49 v=100
37920 On ch=1 n=52 v=100
38400 Off ch=1 n=52 v=100
38400 On ch=1 n=48 v=100
38880 Off ch=1 n=48 v=100
38880 On ch=1 n=51 v=100
39360 Off ch=1 n=51 v=100
39360 On ch=1 n=48 v=100
39840 Off ch=1 n=48 v=100
39840 On ch=1 n=51 v=100
40320 Off ch=1 n=51 v=100
40320 On ch=1 n=49 v=100
40800 Off ch=1 n=49 v=100
40800 On ch=1 n=52 v=100
41280 Off ch=1 n=52 v=100
41280 On ch=1 n=49 v=100
41760 Off ch=1 n=49 v=100
41760 On ch=1 n=52 v=100
42240 Off ch=1 n=52 v=100
42240 On ch=1 n=49 v=100
42720 Off ch=1 n=49 v=100
42720 On ch=1 n=52 v=100
43200 Off ch=1 n=52 v=100
43200 On ch=1 n=49 v=100
43680 Off ch=1 n=49 v=100
43680 On ch=1 n=52 v=100
44160 Off ch=1 n=52 v=100
44160 On ch=1 n=49 v=100
44640 Off ch=1 n=49 v=100
44640 On ch=1 n=52 v=100
45120 Off ch=1 n=52 v=100
45120 On ch=1 n=49 v=100
45600 Off ch=1 n=49 v=100
45600 On ch=1 n=52 v=100
46080 Off ch=1 n=52 v=100
46080 On ch=1 n=48 v=100
46560 Off ch=1 n=48 v=100
46560 On ch=1 n=51 v=100
47040 Off ch=1 n=51 v=100
47040 On ch=1 n=48 v=100
47520 Off ch=1 n=48 v=100
47520 On ch=1 n=51 v=100
48000 Off ch=1 n=51 v=100
48000 On ch=1 n=49 v=100
48480 Off ch=1 n=49 v=100
48480 On ch=1 n=52 v=100
48960 Off ch=1 n=52 v=100
48960 On ch=1 n=49 v=100
49440 Off ch=1 n=49 v=100
49440 On ch=1 n=52 v=100
49920 Off ch=1 n=52 v=100
49920 On ch=1 n=49 v=100
50400 Off ch=1 n=49 v=100
50400 On ch=1 n=52 v=100
50880 Off ch=1 n=52 v=100
50880 On ch=1 n=49 v=100
51360 Off ch=1 n=49 v=100
51360 On ch=1 n=52 v=100
51840 Off ch=1 n=52 v=100
51840 On ch=1 n=49 v=100
52320 Off ch=1 n=49 v=100
52320 On ch=1 n=52 v=100
52800 Off ch=1 n=52 v=100
52800 On ch=1 n=49 v=100
53280 Off ch=1 n=49 v=100
53280 On ch=1 n=52 v=100
53760 Off ch=1 n=52 v=100
53760 On ch=1 n=48 v=100
54240 Off ch=1 n=48 v=100
54240 On ch=1 n=51 v=100
54720 Off ch=1 n=51 v=100
54720 On ch=1 n=48 v=100
55200 Off ch=1 n=48 v=100
55200 On ch=1 n=51 v=100
55680 Off ch=1 n=51 v=100
55680 On ch=1 n=49 v=100
56160 Off ch=1 n=49 v=100
56160 On ch=1 n=52 v=100
56640 Off ch=1 n=52 v=100
56640 On ch=1 n=49 v=100
57120 Off ch=1 n=49 v=100
57120 On ch=1 n=52 v=100
57600 Off ch=1 n=52 v=100
57600 On ch=1 n=49 v=100
57840 Off ch=1 n=49 v=100
57840 On ch=1 n=51 v=100
58080 Off ch=1 n=51 v=100
58080 On ch=1 n=52 v=100
58320 Off ch=1 n=52 v=100
58320 On ch=1 n=56 v=100
58560 Off ch=1 n=56 v=100
59520 On ch=1 n=49 v=100
59760 Off ch=1 n=49 v=100
59760 On ch=1 n=51 v=100
60000 Off ch=1 n=51 v=100
60000 On ch=1 n=52 v=100
60240 Off ch=1 n=52 v=100
60240 On ch=1 n=57 v=100
60480 Off ch=1 n=57 v=100
61440 On ch=2 n=54 v=100
61440 On ch=2 n=48 v=100
63360 Off ch=2 n=54 v=100
63360 Off ch=2 n=48 v=100
63360 On ch=2 n=56 v=100
63360 On ch=2 n=49 v=100
65280 Off ch=2 n=56 v=100
65280 Off ch=2 n=49 v=100
65280 On ch=2 n=52 v=100
65760 Off ch=2 n=52 v=100
65760 On ch=2 n=59 v=100
66240 Off ch=2 n=59 v=100
66240 On ch=2 n=52 v=100
66720 Off ch=2 n=52 v=100
66720 On ch=2 n=59 v=100
67200 Off ch=2 n=59 v=100
67200 On ch=2 n=54 v=100
67680 Off ch=2 n=54 v=100
67680 On ch=2 n=61 v=100
68160 Off ch=2 n=61 v=100
68160 On ch=2 n=54 v=100
68640 Off ch=2 n=54 v=100
68640 On ch=2 n=61 v=100
69120 Off ch=2 n=61 v=100
69120 On ch=2 n=56 v=100
69600 Off ch=2 n=56 v=100
69600 On ch=2 n=63 v=100
70080 Off ch=2 n=63 v=100
70080 On ch=2 n=56 v=100
70560 Off ch=2 n=56 v=100
70560 On ch=2 n=63 v=100
71040 Off ch=2 n=63 v=100
71040 On ch=2 n=56 v=100
71520 Off ch=2 n=56 v=100
71520 On ch=2 n=63 v=100
72000 Off ch=2 n=63 v=100
72000 On ch=2 n=56 v=100
72480 Off ch=2 n=56 v=100
72480 On ch=2 n=63 v=100
72960 Off ch=2 n=63 v=100
72960 On ch=2 n=52 v=100
73440 Off ch=2 n=52 v=100
73440 On ch=2 n=59 v=100
73920 Off ch=2 n=59 v=100
73920 On ch=2 n=52 v=100
74400 Off ch=2 n=52 v=100
74400 On ch=2 n=59 v=100
74880 Off ch=2 n=59 v=100
74880 On ch=2 n=54 v=100
75360 Off ch=2 n=54 v=100
75360 On ch=2 n=61 v=100
75840 Off ch=2 n=61 v=100
75840 On ch=2 n=54 v=100
76320 Off ch=2 n=54 v=100
76320 On ch=2 n=61 v=100
76800 Off ch=2 n=61 v=100
76800 On ch=2 n=51 v=100
77280 Off ch=2 n=51 v=100
77280 On ch=2 n=58 v=100
77760 Off ch=2 n=58 v=100
77760 On ch=2 n=51 v=100
78240 Off ch=2 n=51 v=100
78240 On ch=2 n=58 v=100
78720 Off ch=2 n=58 v=100
78720 On ch=2 n=51 v=100
79200 Off ch=2 n=51 v=100
79200 On ch=2 n=58 v=100
79680 Off ch=2 n=58 v=100
79680 On ch=2 n=51 v=100
80160 Off ch=2 n=51 v=100
80160 On ch=2 n=58 v=100
80640 Off ch=2 n=58 v=100
80640 On ch=2 n=49 v=100
81120 Off ch=2 n=49 v=100
81120 On ch=2 n=56 v=100
81600 Off ch=2 n=56 v=100
81600 On ch=2 n=49 v=100
82080 Off ch=2 n=49 v=100
82080 On ch=2 n=56 v=100
82560 Off ch=2 n=56 v=100
82560 On ch=2 n=51 v=100
83040 Off ch=2 n=51 v=100
83040 On ch=2 n=58 v=100
83520 Off ch=2 n=58 v=100
83520 On ch=2 n=51 v=100
84000 Off ch=2 n=51 v=100
84000 On ch=2 n=58 v=100
84480 Off ch=2 n=58 v=100
84480 On ch=2 n=52 v=100
84960 Off ch=2 n=52 v=100
84960 On ch=2 n=59 v=100
85440 Off ch=2 n=59 v=100
85440 On ch=2 n=52 v=100
85920 Off ch=2 n=52 v=100
85920 On ch=2 n=59 v=100
86400 Off ch=2 n=59 v=100
86400 On ch=2 n=51 v=100
86880 Off ch=2 n=51 v=100
86880 On ch=2 n=58 v=100
87360 Off ch=2 n=58 v=100
87360 On ch=2 n=51 v=100
87840 Off ch=2 n=51 v=100
87840 On ch=2 n=58 v=100
88320 Off ch=2 n=58 v=100
88320 On ch=2 n=52 v=100
88800 Off ch=2 n=52 v=100
88800 On ch=2 n=59 v=100
89280 Off ch=2 n=59 v=100
89280 On ch=2 n=52 v=100
89760 Off ch=2 n=52 v=100
89760 On ch=2 n=59 v=100
90240 Off ch=2 n=59 v=100
90240 On ch=2 n=54 v=100
90720 Off ch=2 n=54 v=100
90720 On ch=2 n=61 v=100
91200 Off ch=2 n=61 v=100
91200 On ch=2 n=54 v=100
91680 Off ch=2 n=54 v=100
91680 On ch=2 n=61 v=100
92160 Off ch=2 n=61 v=100
92160 On ch=2 n=52 v=100
92640 Off ch=2 n=52 v=100
92640 On ch=2 n=59 v=100
93120 Off ch=2 n=59 v=100
93120 On ch=2 n=54 v=100
93600 Off ch=2 n=54 v=100
93600 On ch=2 n=61 v=100
94080 Off ch=2 n=61 v=100
94080 On ch=2 n=56 v=100
94560 Off ch=2 n=56 v=100
94560 On ch=2 n=63 v=100
95040 Off ch=2 n=63 v=100
95040 On ch=2 n=56 v=100
95520 Off ch=2 n=56 v=100
95520 On ch=2 n=63 v=100
96000 Off ch=2 n=63 v=100
96000 On ch=2 n=52 v=100
96480 Off ch=2 n=52 v=100
96480 On ch=2 n=59 v=100
96960 Off ch=2 n=59 v=100
96960 On ch=2 n=52 v=100
97440 Off ch=2 n=52 v=100
97440 On ch=2 n=59 v=100
97920 Off ch=2 n=59 v=100
97920 On ch=2 n=54 v=100
98400 Off ch=2 n=54 v=100
98400 On ch=2 n=61 v=100
98880 Off ch=2 n=61 v=100
98880 On ch=2 n=54 v=100
99360 Off ch=2 n=54 v=100
99360 On ch=2 n=61 v=100
99840 Off ch=2 n=61 v=100
99840 On ch=2 n=56 v=100
100320 Off ch=2 n=56 v=100
100320 On ch=2 n=63 v=100
100800 Off ch=2 n=63 v=100
100800 On ch=2 n=56 v=100
101280 Off ch=2 n=56 v=100
101280 On ch=2 n=63 v=100
101760 Off ch=2 n=63 v=100
101760 On ch=2 n=56 v=100
102240 Off ch=2 n=56 v=100
102240 On ch=2 n=63 v=100
102720 Off ch=2 n=63 v=100
102720 On ch=2 n=56 v=100
103200 Off ch=2 n=56 v=100
103200 On ch=2 n=63 v=100
103680 Off ch=2 n=63 v=100
103680 On ch=2 n=52 v=100
104160 Off ch=2 n=52 v=100
104160 On ch=2 n=59 v=100
104640 Off ch=2 n=59 v=100
104640 On ch=2 n=52 v=100
105120 Off ch=2 n=52 v=100
105120 On ch=2 n=59 v=100
105600 Off ch=2 n=59 v=100
105600 On ch=2 n=54 v=100
106080 Off ch=2 n=54 v=100
106080 On ch=2 n=61 v=100
106560 Off ch=2 n=61 v=100
106560 On ch=2 n=54 v=100
107040 Off ch=2 n=54 v=100
107040 On ch=2 n=61 v=100
107520 Off ch=2 n=61 v=100
107520 On ch=2 n=51 v=100
108000 Off ch=2 n=51 v=100
108000 On ch=2 n=58 v=100
108480 Off ch=2 n=58 v=100
108480 On ch=2 n=51 v=100
108960 Off ch=2 n=51 v=100
108960 On ch=2 n=58 v=100
109440 Off ch=2 n=58 v=100
109440 On ch=2 n=51 v=100
109920 Off ch=2 n=51 v=100
109920 On ch=2 n=58 v=100
110400 Off ch=2 n=58 v=100
110400 On ch=2 n=51 v=100
110880 Off ch=2 n=51 v=100
110880 On ch=2 n=58 v=100
111360 Off ch=2 n=58 v=100
111360 On ch=2 n=49 v=100
111840 Off ch=2 n=49 v=100
111840 On ch=2 n=56 v=100
112320 Off ch=2 n=56 v=100
112320 On ch=2 n=49 v=100
112800 Off ch=2 n=49 v=100
112800 On ch=2 n=56 v=100
113280 Off ch=2 n=56 v=100
113280 On ch=2 n=51 v=100
113760 Off ch=2 n=51 v=100
113760 On ch=2 n=58 v=100
114240 Off ch=2 n=58 v=100
114240 On ch=2 n=51 v=100
114720 Off ch=2 n=51 v=100
114720 On ch=2 n=58 v=100
115200 Off ch=2 n=58 v=100
115200 On ch=2 n=52 v=100
115680 Off ch=2 n=52 v=100
115680 On ch=2 n=59 v=100
116160 Off ch=2 n=59 v=100
116160 On ch=2 n=52 v=100
116640 Off ch=2 n=52 v=100
116640 On ch=2 n=59 v=100
117120 Off ch=2 n=59 v=100
117120 On ch=2 n=51 v=100
117600 Off ch=2 n=51 v=100
117600 On ch=2 n=58 v=100
118080 Off ch=2 n=58 v=100
118080 On ch=2 n=51 v=100
118560 Off ch=2 n=51 v=100
118560 On ch=2 n=58 v=100
119040 Off ch=2 n=58 v=100
119040 On ch=2 n=52 v=100
119520 Off ch=2 n=52 v=100
119520 On ch=2 n=59 v=100
120000 Off ch=2 n=59 v=100
120000 On ch=2 n=52 v=100
120480 Off ch=2 n=52 v=100
120480 On ch=2 n=59 v=100
120960 Off ch=2 n=59 v=100
120960 On ch=2 n=54 v=100
121440 Off ch=2 n=54 v=100
121440 On ch=2 n=61 v=100
121920 Off ch=2 n=61 v=100
121920 On ch=2 n=54 v=100
122400 Off ch=2 n=54 v=100
122400 On ch=2 n=61 v=100
122880 Off ch=2 n=61 v=100
122880 On ch=2 n=52 v=100
123360 Off ch=2 n=52 v=100
123360 On ch=2 n=59 v=100
123840 Off ch=2 n=59 v=100
123840 On ch=2 n=54 v=100
124320 Off ch=2 n=54 v=100
124320 On ch=2 n=61 v=100
124800 Off ch=2 n=61 v=100
124800 On ch=2 n=56 v=100
125280 Off ch=2 n=56 v=100
125280 On ch=2 n=63 v=100
125760 Off ch=2 n=63 v=100
125760 On ch=2 n=56 v=100
126240 Off ch=2 n=56 v=100
126240 On ch=2 n=63 v=100
126720 Off ch=2 n=63 v=100
126720 On ch=1 n=52 v=100
127200 Off ch=1 n=52 v=100
127200 On ch=1 n=55 v=100
127680 Off ch=1 n=55 v=100
127680 On ch=1 n=52 v=100
128160 Off ch=1 n=52 v=100
128160 On ch=1 n=55 v=100
128640 Off ch=1 n=55 v=100
128640 On ch=1 n=52 v=100
129120 Off ch=1 n=52 v=100
129120 On ch=1 n=55 v=100
129600 Off ch=1 n=55 v=100
129600 On ch=1 n=52 v=100
130080 Off ch=1 n=52 v=100
130080 On ch=1 n=55 v=100
130560 Off ch=1 n=55 v=100
130560 On ch=1 n=51 v=100
131040 Off ch=1 n=51 v=100
131040 On ch=1 n=54 v=100
131520 Off ch=1 n=54 v=100
131520 On ch=1 n=51 v=100
132000 Off ch=1 n=51 v=100
132000 On ch=1 n=54 v=100
132480 Off ch=1 n=54 v=100
132480 On ch=1 n=52 v=100
132960 Off ch=1 n=52 v=100
132960 On ch=1 n=55 v=100
133440 Off ch=1 n=55 v=100
133440 On ch=1 n=52 v=100
133920 Off ch=1 n=52 v=100
133920 On ch=1 n=55 v=100
134400 Off ch=1 n=55 v=100
134400 On ch=1 n=52 v=100
134880 Off ch=1 n=52 v=100
134880 On ch=1 n=55 v=100
135360 Off ch=1 n=55 v=100
135360 On ch=1 n=52 v=100
135840 Off ch=1 n=52 v=100
135840 On ch=1 n=55 v=100
136320 Off ch=1 n=55 v=100
136320 On ch=1 n=52 v=100
136800 Off ch=1 n=52 v=100
136800 On ch=1 n=55 v=100
137280 Off ch=1 n=55 v=100
137280 On ch=1 n=52 v=100
137760 Off ch=1 n=52 v=100
137760 On ch=1 n=55 v=100
138240 Off ch=1 n=55 v=100
138240 On ch=1 n=51 v=100
138720 Off ch=1 n=51 v=100
138720 On ch=1 n=54 v=100
139200 Off ch=1 n=54 v=100
139200 On ch=1 n=51 v=100
139680 Off ch=1 n=51 v=100
139680 On ch=1 n=54 v=100
140160 Off ch=1 n=54 v=100
140160 On ch=1 n=52 v=100
140640 Off ch=1 n=52 v=100
140640 On ch=1 n=55 v=100
141120 Off ch=1 n=55 v=100
141120 On ch=1 n=52 v=100
141600 Off ch=1 n=52 v=100
141600 On ch=1 n=55 v=100
142080 Off ch=1 n=55 v=100
142080 On ch=1 n=52 v=100
142560 Off ch=1 n=52 v=100
142560 On ch=1 n=55 v=100
143040 Off ch=1 n=55 v=100
143040 On ch=1 n=52 v=100
143520 Off ch=1 n=52 v=100
143520 On ch=1 n=55 v=100
144000 Off ch=1 n=55 v=100
144000 On ch=1 n=52 v=100
144480 Off ch=1 n=52 v=100
144480 On ch=1 n=55 v=100
144960 Off ch=1 n=55 v=100
144960 On ch=1 n=52 v=100
145440 Off ch=1 n=52 v=100
145440 On ch=1 n=55 v=100
145920 Off ch=1 n=55 v=100
145920 On ch=1 n=51 v=100
146400 Off ch=1 n=51 v=100
146400 On ch=1 n=54 v=100
146880 Off ch=1 n=54 v=100
146880 On ch=1 n=51 v=100
147360 Off ch=1 n=51 v=100
147360 On ch=1 n=54 v=100
147840 Off ch=1 n=54 v=100
147840 On ch=1 n=52 v=100
148320 Off ch=1 n=52 v=100
148320 On ch=1 n=55 v=100
148800 Off ch=1 n=55 v=100
148800 On ch=1 n=52 v=100
149280 Off ch=1 n=52 v=100
149280 On ch=1 n=55 v=100
149760 Off ch=1 n=55 v=100
149760 On ch=1 n=52 v=100
150240 Off ch=1 n=52 v=100
150240 On ch=1 n=55 v=100
150720 Off ch=1 n=55 v=100
150720 On ch=1 n=52 v=100
151200 Off ch=1 n=52 v=100
151200 On ch=1 n=55 v=100
151680 Off ch=1 n=55 v=100
151680 On ch=1 n=52 v=100
152160 Off ch=1 n=52 v=100
152160 On ch=1 n=55 v=100
152640 Off ch=1 n=55 v=100
152640 On ch=1 n=52 v=100
153120 Off ch=1 n=52 v=100
153120 On ch=1 n=55 v=100
153600 Off ch=1 n=55 v=100
153600 On ch=1 n=51 v=100
154080 Off ch=1 n=51 v=100
154080 On ch=1 n=54 v=100
154560 Off ch=1 n=54 v=100
154560 On ch=1 n=51 v=100
155040 Off ch=1 n=51 v=100
155040 On ch=1 n=54 v=100
155520 Off ch=1 n=54 v=100
155520 On ch=1 n=52 v=100
156000 Off ch=1 n=52 v=100
156000 On ch=1 n=55 v=100
156480 Off ch=1 n=55 v=100
156480 On ch=1 n=52 v=100
156960 Off ch=1 n=52 v=100
156960 On ch=1 n=55 v=100
157440 Off ch=1 n=55 v=100
157440 On ch=1 n=52 v=100
157920 Off ch=1 n=52 v=100
157920 On ch=1 n=55 v=100
158400 Off ch=1 n=55 v=100
158400 On ch=1 n=52 v=100
158880 Off ch=1 n=52 v=100
158880 On ch=1 n=55 v=100
159360 Off ch=1 n=55 v=100
159360 On ch=1 n=52 v=100
159840 Off ch=1 n=52 v=100
159840 On ch=1 n=55 v=100
160320 Off ch=1 n=55 v=100
160320 On ch=1 n=52 v=100
160800 Off ch=1 n=52 v=100
160800 On ch=1 n=55 v=100
161280 Off ch=1 n=55 v=100
161280 On ch=1 n=51 v=100
161760 Off ch=1 n=51 v=100
161760 On ch=1 n=54 v=100
162240 Off ch=1 n=54 v=100
162240 On ch=1 n=51 v=100
162720 Off ch=1 n=51 v=100
162720 On ch=1 n=54 v=100
163200 Off ch=1 n=54 v=100
163200 On ch=1 n=52 v=100
163680 Off ch=1 n=52 v=100
163680 On ch=1 n=55 v=100
164160 Off ch=1 n=55 v=100
164160 On ch=1 n=52 v=100
164640 Off ch=1 n=52 v=100
164640 On ch=1 n=55 v=100
165120 Off ch=1 n=55 v=100
165120 On ch=1 n=52 v=100
165600 Off ch=1 n=52 v=100
165600 On ch=1 n=55 v=100
166080 Off ch=1 n=55 v=100
166080 On ch=1 n=52 v=100
166560 Off ch=1 n=52 v=100
166560 On ch=1 n=55 v=100
167040 Off ch=1 n=55 v=100
167040 On ch=1 n=52 v=100
167520 Off ch=1 n=52 v=100
167520 On ch=1 n=55 v=100
168000 Off ch=1 n=55 v=100
168000 On ch=1 n=52 v=100
168480 Off ch=1 n=52 v=100
168480 On ch=1 n=55 v=100
168960 Off ch=1 n=55 v=100
168960 On ch=1 n=51 v=100
169440 Off ch=1 n=51 v=100
169440 On ch=1 n=54 v=100
169920 Off ch=1 n=54 v=100
169920 On ch=1 n=51 v=100
170400 Off ch=1 n=51 v=100
170400 On ch=1 n=54 v=100
170880 Off ch=1 n=54 v=100
170880 On ch=1 n=52 v=100
171360 Off ch=1 n=52 v=100
171360 On ch=1 n=55 v=100
171840 Off ch=1 n=55 v=100
171840 On ch=1 n=52 v=100
172320 Off ch=1 n=52 v=100
172320 On ch=1 n=55 v=100
172800 Off ch=1 n=55 v=100
172800 On ch=1 n=52 v=100
173040 Off ch=1 n=52 v=100
173040 On ch=1 n=54 v=100
173280 Off ch=1 n=54 v=100
173280 On ch=1 n=55 v=100
173520 Off ch=1 n=55 v=100
173520 On ch=1 n=59 v=100
173760 Off ch=1 n=59 v=100
174720 On ch=1 n=52 v=100
174960 Off ch=1 n=52 v=100
174960 On ch=1 n=54 v=100
175200 Off ch=1 n=54 v=100
175200 On ch=1 n=55 v=100
175440 Off ch=1 n=55 v=100
175440 On ch=1 n=60 v=100
175680 Off ch=1 n=60 v=100
176640 On ch=2 n=51 v=100
176640 On ch=2 n=57 v=100
178560 Off ch=2 n=51 v=100
178560 Off ch=2 n=57 v=100
178560 On ch=2 n=52 v=100
178560 On ch=2 n=59 v=100
180480 Off ch=2 n=52 v=100
180480 Off ch=2 n=59 v=100
180480 On ch=1 n=52 v=100
180720 Off ch=1 n=52 v=100
180720 On ch=1 n=54 v=100
180960 Off ch=1 n=54 v=100
180960 On ch=1 n=55 v=100
181200 Off ch=1 n=55 v=100
181200 On ch=1 n=59 v=100
181440 Off ch=1 n=59 v=100
182400 On ch=1 n=52 v=100
182640 Off ch=1 n=52 v=100
182640 On ch=1 n=54 v=100
182880 Off ch=1 n=54 v=100
182880 On ch=1 n=55 v=100
183120 Off ch=1 n=55 v=100
183120 On ch=1 n=60 v=100
183360 Off ch=1 n=60 v=100
184320 On ch=2 n=57 v=100
184320 On ch=2 n=51 v=100
186240 Off ch=2 n=57 v=100
186240 Off ch=2 n=51 v=100
186240 On ch=2 n=52 v=100
186240 On ch=2 n=59 v=100
188160 Off ch=2 n=52 v=100
188160 Off ch=2 n=59 v=100
192000 On ch=2 n=42 v=100
193920 Off ch=2 n=42 v=100
193920 On ch=2 n=44 v=100
195840 Off ch=2 n=44 v=100
195840 On ch=2 n=46 v=100
199680 Off ch=2 n=46 v=100
199680 On ch=2 n=42 v=100
201600 Off ch=2 n=42 v=100
201600 On ch=2 n=44 v=100
203520 Off ch=2 n=44 v=100
203520 On ch=2 n=41 v=100
207360 Off ch=2 n=41 v=100
207360 On ch=2 n=39 v=100
209280 Off ch=2 n=39 v=100
209280 On ch=2 n=41 v=100
211200 Off ch=2 n=41 v=100
211200 On ch=2 n=42 v=100
213120 Off ch=2 n=42 v=100
213120 On ch=2 n=41 v=100
215040 Off ch=2 n=41 v=100
215040 On ch=2 n=42 v=100
216960 Off ch=2 n=42 v=100
216960 On ch=2 n=44 v=100
218880 Off ch=2 n=44 v=100
218880 On ch=2 n=42 v=100
219840 Off ch=2 n=42 v=100
219840 On ch=2 n=44 v=100
220800 Off ch=2 n=44 v=100
220800 On ch=2 n=46 v=100
222720 Off ch=2 n=46 v=100
222720 On ch=2 n=51 v=100
223200 Off ch=2 n=51 v=100
223200 On ch=2 n=58 v=100
223680 Off ch=2 n=58 v=100
223680 On ch=2 n=51 v=100
224160 Off ch=2 n=51 v=100
224160 On ch=2 n=58 v=100
224640 Off ch=2 n=58 v=100
224640 On ch=2 n=53 v=100
225120 Off ch=2 n=53 v=100
225120 On ch=2 n=60 v=100
225600 Off ch=2 n=60 v=100
225600 On ch=2 n=53 v=100
226080 Off ch=2 n=53 v=100
226080 On ch=2 n=60 v=100
226560 Off ch=2 n=60 v=100
226560 On ch=2 n=55 v=100
227040 Off ch=2 n=55 v=100
227040 On ch=2 n=62 v=100
227520 Off ch=2 n=62 v=100
227520 On ch=2 n=55 v=100
228000 Off ch=2 n=55 v=100
228000 On ch=2 n=62 v=100
228480 Off ch=2 n=62 v=100
228480 On ch=2 n=55 v=100
228960 Off ch=2 n=55 v=100
228960 On ch=2 n=62 v=100
229440 Off ch=2 n=62 v=100
229440 On ch=2 n=55 v=100
229920 Off ch=2 n=55 v=100
229920 On ch=2 n=62 v=100
230400 Off ch=2 n=62 v=100
230400 On ch=2 n=51 v=100
230880 Off ch=2 n=51 v=100
230880 On ch=2 n=58 v=100
231360 Off ch=2 n=58 v=100
231360 On ch=2 n=51 v=100
231840 Off ch=2 n=51 v=100
231840 On ch=2 n=58 v=100
232320 Off ch=2 n=58 v=100
232320 On ch=2 n=53 v=100
232800 Off ch=2 n=53 v=100
232800 On ch=2 n=60 v=100
233280 Off ch=2 n=60 v=100
233280 On ch=2 n=53 v=100
233760 Off ch=2 n=53 v=100
233760 On ch=2 n=60 v=100
234240 Off ch=2 n=60 v=100
234240 On ch=2 n=50 v=100
234720 Off ch=2 n=50 v=100
234720 On ch=2 n=57 v=100
235200 Off ch=2 n=57 v=100
235200 On ch=2 n=50 v=100
235680 Off ch=2 n=50 v=100
235680 On ch=2 n=57 v=100
236160 Off ch=2 n=57 v=100
236160 On ch=2 n=50 v=100
236640 Off ch=2 n=50 v=100
236640 On ch=2 n=57 v=100
237120 Off ch=2 n=57 v=100
237120 On ch=2 n=50 v=100
237600 Off ch=2 n=50 v=100
237600 On ch=2 n=57 v=100
238080 Off ch=2 n=57 v=100
238080 On ch=2 n=48 v=100
238560 Off ch=2 n=48 v=100
238560 On ch=2 n=55 v=100
239040 Off ch=2 n=55 v=100
239040 On ch=2 n=48 v=100
239520 Off ch=2 n=48 v=100
239520 On ch=2 n=55 v=100
240000 Off ch=2 n=55 v=100
240000 On ch=2 n=50 v=100
240480 Off ch=2 n=50 v=100
240480 On ch=2 n=57 v=100
240960 Off ch=2 n=57 v=100
240960 On ch=2 n=50 v=100
241440 Off ch=2 n=50 v=100
241440 On ch=2 n=57 v=100
241920 Off ch=2 n=57 v=100
241920 On ch=2 n=51 v=100
242400 Off ch=2 n=51 v=100
242400 On ch=2 n=58 v=100
242880 Off ch=2 n=58 v=100
242880 On ch=2 n=51 v=100
243360 Off ch=2 n=51 v=100
243360 On ch=2 n=58 v=100
243840 Off ch=2 n=58 v=100
243840 On ch=2 n=50 v=100
244320 Off ch=2 n=50 v=100
244320 On ch=2 n=57 v=100
244800 Off ch=2 n=57 v=100
244800 On ch=2 n=50 v=100
245280 Off ch=2 n=50 v=100
245280 On ch=2 n=57 v=100
245760 Off ch=2 n=57 v=100
245760 On ch=2 n=51 v=100
246240 Off ch=2 n=51 v=100
246240 On ch=2 n=58 v=100
246720 Off ch=2 n=58 v=100
246720 On ch=2 n=51 v=100
247200 Off ch=2 n=51 v=100
247200 On ch=2 n=58 v=100
247680 Off ch=2 n=58 v=100
247680 On ch=2 n=53 v=100
248160 Off ch=2 n=53 v=100
248160 On ch=2 n=60 v=100
248640 Off ch=2 n=60 v=100
248640 On ch=2 n=53 v=100
249120 Off ch=2 n=53 v=100
249120 On ch=2 n=60 v=100
249600 Off ch=2 n=60 v=100
249600 On ch=2 n=51 v=100
250080 Off ch=2 n=51 v=100
250080 On ch=2 n=58 v=100
250560 Off ch=2 n=58 v=100
250560 On ch=2 n=53 v=100
251040 Off ch=2 n=53 v=100
251040 On ch=2 n=60 v=100
251520 Off ch=2 n=60 v=100
251520 On ch=2 n=55 v=100
252000 Off ch=2 n=55 v=100
252000 On ch=2 n=62 v=100
252480 Off ch=2 n=62 v=100
252480 On ch=2 n=55 v=100
252960 Off ch=2 n=55 v=100
252960 On ch=2 n=62 v=100
253440 Off ch=2 n=62 v=100
253440 On ch=2 n=52 v=100
253920 Off ch=2 n=52 v=100
253920 On ch=2 n=59 v=100
254400 Off ch=2 n=59 v=100
254400 On ch=2 n=52 v=100
254880 Off ch=2 n=52 v=100
254880 On ch=2 n=59 v=100
255360 Off ch=2 n=59 v=100
255360 On ch=2 n=54 v=100
255840 Off ch=2 n=54 v=100
255840 On ch=2 n=61 v=100
256320 Off ch=2 n=61 v=100
256320 On ch=2 n=54 v=100
256800 Off ch=2 n=54 v=100
256800 On ch=2 n=61 v=100
257280 Off ch=2 n=61 v=100
257280 On ch=2 n=56 v=100
257760 Off ch=2 n=56 v=100
257760 On ch=2 n=63 v=100
258240 Off ch=2 n=63 v=100
258240 On ch=2 n=56 v=100
258720 Off ch=2 n=56 v=100
258720 On ch=2 n=63 v=100
259200 Off ch=2 n=63 v=100
259200 On ch=2 n=56 v=100
259680 Off ch=2 n=56 v=100
259680 On ch=2 n=63 v=100
260160 Off ch=2 n=63 v=100
260160 On ch=2 n=56 v=100
260640 Off ch=2 n=56 v=100
260640 On ch=2 n=63 v=100
261120 Off ch=2 n=63 v=100
261120 On ch=2 n=52 v=100
261600 Off ch=2 n=52 v=100
261600 On ch=2 n=59 v=100
262080 Off ch=2 n=59 v=100
262080 On ch=2 n=52 v=100
262560 Off ch=2 n=52 v=100
262560 On ch=2 n=59 v=100
263040 Off ch=2 n=59 v=100
263040 On ch=2 n=54 v=100
263520 Off ch=2 n=54 v=100
263520 On ch=2 n=61 v=100
264000 Off ch=2 n=61 v=100
264000 On ch=2 n=54 v=100
264480 Off ch=2 n=54 v=100
264480 On ch=2 n=61 v=100
264960 Off ch=2 n=61 v=100
264960 On ch=2 n=51 v=100
265440 Off ch=2 n=51 v=100
265440 On ch=2 n=58 v=100
265920 Off ch=2 n=58 v=100
265920 On ch=2 n=51 v=100
266400 Off ch=2 n=51 v=100
266400 On ch=2 n=58 v=100
266880 Off ch=2 n=58 v=100
266880 On ch=2 n=51 v=100
267360 Off ch=2 n=51 v=100
267360 On ch=2 n=58 v=100
267840 Off ch=2 n=58 v=100
267840 On ch=2 n=51 v=100
268320 Off ch=2 n=51 v=100
268320 On ch=2 n=58 v=100
268800 Off ch=2 n=58 v=100
268800 On ch=2 n=49 v=100
269280 Off ch=2 n=49 v=100
269280 On ch=2 n=56 v=100
269760 Off ch=2 n=56 v=100
269760 On ch=2 n=49 v=100
270240 Off ch=2 n=49 v=100
270240 On ch=2 n=56 v=100
270720 Off ch=2 n=56 v=100
270720 On ch=2 n=51 v=100
271200 Off ch=2 n=51 v=100
271200 On ch=2 n=58 v=100
271680 Off ch=2 n=58 v=100
271680 On ch=2 n=51 v=100
272160 Off ch=2 n=51 v=100
272160 On ch=2 n=58 v=100
272640 Off ch=2 n=58 v=100
272640 On ch=2 n=52 v=100
273120 Off ch=2 n=52 v=100
273120 On ch=2 n=59 v=100
273600 Off ch=2 n=59 v=100
273600 On ch=2 n=52 v=100
274080 Off ch=2 n=52 v=100
274080 On ch=2 n=59 v=100
274560 Off ch=2 n=59 v=100
274560 On ch=2 n=51 v=100
275040 Off ch=2 n=51 v=100
275040 On ch=2 n=58 v=100
275520 Off ch=2 n=58 v=100
275520 On ch=2 n=51 v=100
276000 Off ch=2 n=51 v=100
276000 On ch=2 n=58 v=100
276480 Off ch=2 n=58 v=100
276480 On ch=2 n=52 v=100
276960 Off ch=2 n=52 v=100
276960 On ch=2 n=59 v=100
277440 Off ch=2 n=59 v=100
277440 On ch=2 n=52 v=100
277920 Off ch=2 n=52 v=100
277920 On ch=2 n=59 v=100
278400 Off ch=2 n=59 v=100
278400 On ch=2 n=54 v=100
278880 Off ch=2 n=54 v=100
278880 On ch=2 n=61 v=100
279360 Off ch=2 n=61 v=100
279360 On ch=2 n=54 v=100
279840 Off ch=2 n=54 v=100
279840 On ch=2 n=61 v=100
280320 Off ch=2 n=61 v=100
280320 On ch=2 n=52 v=100
280800 Off ch=2 n=52 v=100
280800 On ch=2 n=59 v=100
281280 Off ch=2 n=59 v=100
281280 On ch=2 n=54 v=100
281760 Off ch=2 n=54 v=100
281760 On ch=2 n=61 v=100
282240 Off ch=2 n=61 v=100
282240 On ch=2 n=56 v=100
282240 On ch=2 n=63 v=100
288000 Off ch=2 n=56 v=100
288000 Off ch=2 n=63 v=100
326400 Meta TrkEnd
TrkEnd
]]

end