PLUGIN.Name = "GSDIRECT NEW COR"
PLUGIN.DefaultOn = false
PLUGIN.Description = ""
PLUGIN.Trigger = true

function PLUGIN:Load()
GUNSTRUMENTAL_CH1 = "1"
GUNSTRUMENTAL_CH2 = "2"
GUNSTRUMENTAL_DELAYBASE = 120
GUNSTRUMENTAL_NODELAYFILTER = true
GUNSTRUMENTAL_TAB =  [[MFile 1 2 960
MTrk
0 TimeSig 2/4 24 8
0 On ch=1 n=67 v=100
0 KeySig 253 major
480 Off ch=1 n=67 v=100
480 On ch=1 n=70 v=100
960 Off ch=1 n=70 v=100
960 On ch=1 n=72 v=100
1440 Off ch=1 n=72 v=100
1440 On ch=1 n=75 v=100
1920 Off ch=1 n=75 v=100
1920 TimeSig 4/4 24 8
1920 On ch=1 n=77 v=100
2880 Off ch=1 n=77 v=100
2880 On ch=1 n=75 v=100
3360 Off ch=1 n=75 v=100
3360 On ch=1 n=77 v=100
3840 Off ch=1 n=77 v=100
3840 On ch=1 n=79 v=100
4800 Off ch=1 n=79 v=100
4800 On ch=1 n=75 v=100
5280 Off ch=1 n=75 v=100
5280 On ch=1 n=72 v=100
5760 Off ch=1 n=72 v=100
5760 On ch=1 n=70 v=100
6240 Off ch=1 n=70 v=100
6240 On ch=1 n=67 v=100
6720 Off ch=1 n=67 v=100
6720 On ch=1 n=75 v=100
7200 Off ch=1 n=75 v=100
7200 On ch=1 n=77 v=100
7680 Off ch=1 n=77 v=100
7680 On ch=1 n=72 v=100
8640 Off ch=1 n=72 v=100
8640 On ch=1 n=72 v=100
9120 Off ch=1 n=72 v=100
9120 On ch=1 n=75 v=100
9600 Off ch=1 n=75 v=100
9600 On ch=1 n=77 v=100
10560 Off ch=1 n=77 v=100
10560 On ch=1 n=75 v=100
11040 Off ch=1 n=75 v=100
11040 On ch=1 n=77 v=100
11520 Off ch=1 n=77 v=100
11520 On ch=1 n=79 v=100
12480 Off ch=1 n=79 v=100
12480 On ch=1 n=82 v=100
12960 Off ch=1 n=82 v=100
12960 On ch=1 n=84 v=100
13440 Off ch=1 n=84 v=100
13440 On ch=1 n=87 v=100
13920 Off ch=1 n=87 v=100
13920 On ch=1 n=86 v=100
14400 Off ch=1 n=86 v=100
14400 On ch=1 n=84 v=100
14520 Off ch=1 n=84 v=100
14520 On ch=1 n=86 v=100
14640 Off ch=1 n=86 v=100
14640 On ch=1 n=84 v=100
14880 Off ch=1 n=84 v=100
14880 On ch=1 n=82 v=100
15360 Off ch=1 n=82 v=100
15360 On ch=1 n=84 v=100
16320 Off ch=1 n=84 v=100
16320 On ch=1 n=82 v=100
16800 Off ch=1 n=82 v=100
16800 On ch=1 n=79 v=100
17280 Off ch=1 n=79 v=100
17280 On ch=1 n=77 v=100
18240 Off ch=1 n=77 v=100
18240 On ch=1 n=79 v=100
18720 Off ch=1 n=79 v=100
18720 On ch=1 n=75 v=100
19200 Off ch=1 n=75 v=100
19200 On ch=1 n=77 v=100
20160 Off ch=1 n=77 v=100
20160 On ch=1 n=75 v=100
20640 Off ch=1 n=75 v=100
20640 On ch=1 n=77 v=100
21120 Off ch=1 n=77 v=100
21120 On ch=1 n=79 v=100
21840 Off ch=1 n=79 v=100
21840 On ch=1 n=72 v=100
22080 Off ch=1 n=72 v=100
22080 On ch=1 n=75 v=100
22320 Off ch=1 n=75 v=100
22320 On ch=1 n=77 v=100
22560 Off ch=1 n=77 v=100
22560 On ch=1 n=75 v=100
23040 Off ch=1 n=75 v=100
23040 On ch=1 n=72 v=100
24000 Off ch=1 n=72 v=100
24000 On ch=1 n=72 v=100
24480 Off ch=1 n=72 v=100
24480 On ch=1 n=70 v=100
24960 Off ch=1 n=70 v=100
24960 On ch=1 n=72 v=100
25680 Off ch=1 n=72 v=100
25680 On ch=1 n=70 v=100
25800 Off ch=1 n=70 v=100
25800 On ch=1 n=72 v=100
25920 Off ch=1 n=72 v=100
25920 On ch=1 n=75 v=100
26400 Off ch=1 n=75 v=100
26400 On ch=1 n=77 v=100
26880 Off ch=1 n=77 v=100
26880 On ch=1 n=79 v=100
27360 Off ch=1 n=79 v=100
27360 On ch=1 n=77 v=100
27840 Off ch=1 n=77 v=100
27840 On ch=1 n=70 v=100
28800 Off ch=1 n=70 v=100
28800 On ch=1 n=72 v=100
30720 Off ch=1 n=72 v=100
30720 On ch=1 n=67 v=100
31200 Off ch=1 n=67 v=100
31200 On ch=1 n=70 v=100
31680 Off ch=1 n=70 v=100
31680 On ch=1 n=72 v=100
32160 Off ch=1 n=72 v=100
32160 On ch=1 n=75 v=100
32640 Off ch=1 n=75 v=100
32640 On ch=1 n=77 v=100
32640 On ch=1 n=68 v=100
33600 Off ch=1 n=77 v=100
33600 Off ch=1 n=68 v=100
33600 On ch=1 n=75 v=100
33600 On ch=1 n=67 v=100
34080 Off ch=1 n=75 v=100
34080 Off ch=1 n=67 v=100
34080 On ch=1 n=77 v=100
34080 On ch=1 n=68 v=100
34560 Off ch=1 n=77 v=100
34560 Off ch=1 n=68 v=100
34560 On ch=1 n=79 v=100
34560 On ch=1 n=70 v=100
35520 Off ch=1 n=79 v=100
35520 Off ch=1 n=70 v=100
35520 On ch=1 n=75 v=100
36000 Off ch=1 n=75 v=100
36000 On ch=1 n=72 v=100
36480 Off ch=1 n=72 v=100
36480 On ch=1 n=70 v=100
36960 Off ch=1 n=70 v=100
36960 On ch=1 n=67 v=100
37440 Off ch=1 n=67 v=100
37440 On ch=1 n=75 v=100
37920 Off ch=1 n=75 v=100
37920 On ch=1 n=77 v=100
38400 Off ch=1 n=77 v=100
38400 On ch=1 n=72 v=100
39360 Off ch=1 n=72 v=100
39360 On ch=1 n=72 v=100
39840 Off ch=1 n=72 v=100
39840 On ch=1 n=75 v=100
40320 Off ch=1 n=75 v=100
40320 On ch=1 n=77 v=100
40320 On ch=1 n=68 v=100
41280 Off ch=1 n=77 v=100
41280 Off ch=1 n=68 v=100
41280 On ch=1 n=75 v=100
41280 On ch=1 n=67 v=100
41760 Off ch=1 n=75 v=100
41760 Off ch=1 n=67 v=100
41760 On ch=1 n=77 v=100
41760 On ch=1 n=68 v=100
42240 Off ch=1 n=77 v=100
42240 Off ch=1 n=68 v=100
42240 On ch=1 n=79 v=100
42240 On ch=1 n=70 v=100
43200 Off ch=1 n=79 v=100
43200 Off ch=1 n=70 v=100
43200 On ch=1 n=82 v=100
43680 Off ch=1 n=82 v=100
43680 On ch=1 n=84 v=100
44160 Off ch=1 n=84 v=100
44160 On ch=1 n=87 v=100
44640 Off ch=1 n=87 v=100
44640 On ch=1 n=86 v=100
45120 Off ch=1 n=86 v=100
45120 On ch=1 n=84 v=100
45240 Off ch=1 n=84 v=100
45240 On ch=1 n=86 v=100
45360 Off ch=1 n=86 v=100
45360 On ch=1 n=84 v=100
45600 Off ch=1 n=84 v=100
45600 On ch=1 n=82 v=100
46080 Off ch=1 n=82 v=100
46080 On ch=1 n=84 v=100
47040 Off ch=1 n=84 v=100
47040 On ch=1 n=82 v=100
47040 On ch=1 n=72 v=100
47520 Off ch=1 n=82 v=100
47520 Off ch=1 n=72 v=100
47520 On ch=1 n=79 v=100
47520 On ch=1 n=70 v=100
48000 Off ch=1 n=79 v=100
48000 Off ch=1 n=70 v=100
48000 On ch=1 n=77 v=100
48000 On ch=1 n=68 v=100
48960 Off ch=1 n=77 v=100
48960 Off ch=1 n=68 v=100
48960 On ch=1 n=79 v=100
48960 On ch=1 n=70 v=100
49440 Off ch=1 n=79 v=100
49440 Off ch=1 n=70 v=100
49440 On ch=1 n=75 v=100
49440 On ch=1 n=67 v=100
49920 Off ch=1 n=75 v=100
49920 Off ch=1 n=67 v=100
49920 On ch=1 n=77 v=100
49920 On ch=1 n=70 v=100
50880 Off ch=1 n=77 v=100
50880 Off ch=1 n=70 v=100
50880 On ch=1 n=75 v=100
50880 On ch=1 n=67 v=100
51360 Off ch=1 n=75 v=100
51360 Off ch=1 n=67 v=100
51360 On ch=1 n=77 v=100
51360 On ch=1 n=70 v=100
51840 Off ch=1 n=77 v=100
51840 Off ch=1 n=70 v=100
51840 On ch=1 n=79 v=100
51840 On ch=1 n=72 v=100
52560 Off ch=1 n=79 v=100
52560 Off ch=1 n=72 v=100
52560 On ch=1 n=72 v=100
52800 Off ch=1 n=72 v=100
52800 On ch=1 n=75 v=100
53040 Off ch=1 n=75 v=100
53040 On ch=1 n=77 v=100
53280 Off ch=1 n=77 v=100
53280 On ch=1 n=75 v=100
53760 Off ch=1 n=75 v=100
53760 On ch=1 n=72 v=100
54720 Off ch=1 n=72 v=100
54720 On ch=1 n=72 v=100
54720 On ch=1 n=75 v=100
55200 Off ch=1 n=72 v=100
55200 Off ch=1 n=75 v=100
55200 On ch=1 n=70 v=100
55200 On ch=1 n=77 v=100
55680 Off ch=1 n=70 v=100
55680 Off ch=1 n=77 v=100
55680 On ch=1 n=72 v=100
55680 On ch=1 n=75 v=100
56400 Off ch=1 n=72 v=100
56400 Off ch=1 n=75 v=100
56400 On ch=1 n=70 v=100
56520 Off ch=1 n=70 v=100
56520 On ch=1 n=72 v=100
56640 Off ch=1 n=72 v=100
56640 On ch=1 n=75 v=100
57120 Off ch=1 n=75 v=100
57120 On ch=1 n=77 v=100
57600 Off ch=1 n=77 v=100
57600 On ch=1 n=79 v=100
58080 Off ch=1 n=79 v=100
58080 On ch=1 n=77 v=100
58560 Off ch=1 n=77 v=100
58560 On ch=1 n=82 v=100
58560 On ch=1 n=79 v=100
59520 Off ch=1 n=82 v=100
59520 Off ch=1 n=79 v=100
59520 On ch=1 n=84 v=100
59520 On ch=1 n=75 v=100
61440 Off ch=1 n=84 v=100
61440 Off ch=1 n=75 v=100
61440 On ch=1 n=67 v=100
61920 Off ch=1 n=67 v=100
61920 On ch=1 n=70 v=100
62400 Off ch=1 n=70 v=100
62400 On ch=1 n=72 v=100
62880 Off ch=1 n=72 v=100
62880 On ch=1 n=77 v=100
63360 Off ch=1 n=77 v=100
63360 On ch=1 n=82 v=100
63840 Off ch=1 n=82 v=100
63840 On ch=1 n=84 v=100
64320 Off ch=1 n=84 v=100
64320 On ch=1 n=79 v=100
64800 Off ch=1 n=79 v=100
64800 On ch=1 n=77 v=100
65280 Off ch=1 n=77 v=100
65280 On ch=1 n=79 v=100
65280 On ch=1 n=82 v=100
66240 Off ch=1 n=79 v=100
66240 Off ch=1 n=82 v=100
66240 On ch=1 n=75 v=100
66720 Off ch=1 n=75 v=100
66720 On ch=1 n=77 v=100
67200 Off ch=1 n=77 v=100
67200 On ch=1 n=74 v=100
67680 Off ch=1 n=74 v=100
67680 On ch=1 n=75 v=100
68160 Off ch=1 n=75 v=100
68160 On ch=1 n=74 v=100
68280 Off ch=1 n=74 v=100
68280 On ch=1 n=75 v=100
68400 Off ch=1 n=75 v=100
68400 On ch=1 n=74 v=100
68640 Off ch=1 n=74 v=100
68640 On ch=1 n=70 v=100
69120 Off ch=1 n=70 v=100
69120 On ch=1 n=72 v=100
69120 On ch=1 n=63 v=100
70080 Off ch=1 n=72 v=100
70080 Off ch=1 n=63 v=100
70080 On ch=1 n=67 v=100
70560 Off ch=1 n=67 v=100
70560 On ch=1 n=70 v=100
71040 Off ch=1 n=70 v=100
71040 On ch=1 n=72 v=100
71520 Off ch=1 n=72 v=100
71520 On ch=1 n=75 v=100
72000 Off ch=1 n=75 v=100
72000 On ch=1 n=77 v=100
72000 On ch=1 n=68 v=100
72480 Off ch=1 n=77 v=100
72480 Off ch=1 n=68 v=100
72480 On ch=1 n=75 v=100
72480 On ch=1 n=67 v=100
72960 Off ch=1 n=75 v=100
72960 Off ch=1 n=67 v=100
72960 On ch=1 n=77 v=100
72960 On ch=1 n=68 v=100
73680 Off ch=1 n=77 v=100
73680 Off ch=1 n=68 v=100
73680 On ch=1 n=75 v=100
73920 Off ch=1 n=75 v=100
73920 On ch=1 n=77 v=100
74160 Off ch=1 n=77 v=100
74160 On ch=1 n=79 v=100
74400 Off ch=1 n=79 v=100
74400 On ch=1 n=75 v=100
74880 Off ch=1 n=75 v=100
74880 On ch=1 n=77 v=100
74880 On ch=1 n=74 v=100
75600 Off ch=1 n=77 v=100
75600 Off ch=1 n=74 v=100
75600 On ch=1 n=75 v=100
75600 On ch=1 n=72 v=100
75840 Off ch=1 n=75 v=100
75840 Off ch=1 n=72 v=100
75840 On ch=1 n=77 v=100
75840 On ch=1 n=74 v=100
76320 Off ch=1 n=77 v=100
76320 Off ch=1 n=74 v=100
76320 On ch=1 n=82 v=100
76800 Off ch=1 n=82 v=100
76800 On ch=1 n=79 v=100
76800 On ch=1 n=75 v=100
77760 Off ch=1 n=79 v=100
77760 Off ch=1 n=75 v=100
77760 On ch=1 n=79 v=100
78240 Off ch=1 n=79 v=100
78240 On ch=1 n=82 v=100
78720 Off ch=1 n=82 v=100
78720 On ch=1 n=84 v=100
78720 On ch=1 n=80 v=100
79680 Off ch=1 n=84 v=100
79680 Off ch=1 n=80 v=100
79680 On ch=1 n=82 v=100
80160 Off ch=1 n=82 v=100
80160 On ch=1 n=84 v=100
80640 Off ch=1 n=84 v=100
80640 On ch=1 n=79 v=100
82080 Off ch=1 n=79 v=100
82080 On ch=1 n=75 v=100
82560 Off ch=1 n=75 v=100
82560 On ch=1 n=77 v=100
83040 Off ch=1 n=77 v=100
83040 On ch=1 n=79 v=100
83520 Off ch=1 n=79 v=100
83520 On ch=1 n=77 v=100
83640 Off ch=1 n=77 v=100
83640 On ch=1 n=79 v=100
83760 Off ch=1 n=79 v=100
83760 On ch=1 n=77 v=100
84000 Off ch=1 n=77 v=100
84000 On ch=1 n=75 v=100
84480 Off ch=1 n=75 v=100
84480 On ch=1 n=72 v=100
85440 Off ch=1 n=72 v=100
85440 On ch=1 n=72 v=100
85920 Off ch=1 n=72 v=100
85920 On ch=1 n=70 v=100
86400 Off ch=1 n=70 v=100
86400 On ch=1 n=72 v=100
87120 Off ch=1 n=72 v=100
87120 On ch=1 n=70 v=100
87240 Off ch=1 n=70 v=100
87240 On ch=1 n=72 v=100
87360 Off ch=1 n=72 v=100
87360 On ch=1 n=75 v=100
87840 Off ch=1 n=75 v=100
87840 On ch=1 n=77 v=100
88320 Off ch=1 n=77 v=100
88320 On ch=1 n=79 v=100
88800 Off ch=1 n=79 v=100
88800 On ch=1 n=77 v=100
89280 Off ch=1 n=77 v=100
89280 On ch=1 n=82 v=100
90240 Off ch=1 n=82 v=100
90240 On ch=1 n=84 v=100
90240 On ch=1 n=79 v=100
90240 On ch=1 n=75 v=100
92160 Off ch=1 n=84 v=100
92160 Off ch=1 n=79 v=100
92160 Off ch=1 n=75 v=100
92160 On ch=1 n=67 v=100
92640 Off ch=1 n=67 v=100
92640 On ch=1 n=70 v=100
93120 Off ch=1 n=70 v=100
93120 On ch=1 n=72 v=100
93600 Off ch=1 n=72 v=100
93600 On ch=1 n=75 v=100
94080 Off ch=1 n=75 v=100
94080 On ch=1 n=77 v=100
95040 Off ch=1 n=77 v=100
95040 On ch=1 n=75 v=100
95520 Off ch=1 n=75 v=100
95520 On ch=1 n=77 v=100
96000 Off ch=1 n=77 v=100
96000 On ch=1 n=79 v=100
96960 Off ch=1 n=79 v=100
96960 On ch=1 n=75 v=100
97440 Off ch=1 n=75 v=100
97440 On ch=1 n=72 v=100
97920 Off ch=1 n=72 v=100
97920 On ch=1 n=70 v=100
98400 Off ch=1 n=70 v=100
98400 On ch=1 n=67 v=100
98880 Off ch=1 n=67 v=100
98880 On ch=1 n=75 v=100
99360 Off ch=1 n=75 v=100
99360 On ch=1 n=77 v=100
99840 Off ch=1 n=77 v=100
99840 On ch=1 n=72 v=100
100800 Off ch=1 n=72 v=100
100800 On ch=1 n=72 v=100
101280 Off ch=1 n=72 v=100
101280 On ch=1 n=75 v=100
101760 Off ch=1 n=75 v=100
101760 On ch=1 n=77 v=100
102720 Off ch=1 n=77 v=100
102720 On ch=1 n=75 v=100
103200 Off ch=1 n=75 v=100
103200 On ch=1 n=77 v=100
103680 Off ch=1 n=77 v=100
103680 On ch=1 n=79 v=100
104640 Off ch=1 n=79 v=100
104640 On ch=1 n=82 v=100
105120 Off ch=1 n=82 v=100
105120 On ch=1 n=84 v=100
105600 Off ch=1 n=84 v=100
105600 On ch=1 n=87 v=100
106080 Off ch=1 n=87 v=100
106080 On ch=1 n=86 v=100
106560 Off ch=1 n=86 v=100
106560 On ch=1 n=84 v=100
106680 Off ch=1 n=84 v=100
106680 On ch=1 n=86 v=100
106800 Off ch=1 n=86 v=100
106800 On ch=1 n=84 v=100
107040 Off ch=1 n=84 v=100
107040 On ch=1 n=82 v=100
107520 Off ch=1 n=82 v=100
107520 On ch=1 n=84 v=100
108480 Off ch=1 n=84 v=100
108480 On ch=1 n=82 v=100
108960 Off ch=1 n=82 v=100
108960 On ch=1 n=79 v=100
109440 Off ch=1 n=79 v=100
109440 On ch=1 n=77 v=100
110400 Off ch=1 n=77 v=100
110400 On ch=1 n=79 v=100
110880 Off ch=1 n=79 v=100
110880 On ch=1 n=75 v=100
111360 Off ch=1 n=75 v=100
111360 On ch=1 n=77 v=100
112320 Off ch=1 n=77 v=100
112320 On ch=1 n=75 v=100
112800 Off ch=1 n=75 v=100
112800 On ch=1 n=77 v=100
113280 Off ch=1 n=77 v=100
113280 On ch=1 n=79 v=100
114000 Off ch=1 n=79 v=100
114000 On ch=1 n=72 v=100
114240 Off ch=1 n=72 v=100
114240 On ch=1 n=75 v=100
114480 Off ch=1 n=75 v=100
114480 On ch=1 n=77 v=100
114720 Off ch=1 n=77 v=100
114720 On ch=1 n=75 v=100
115200 Off ch=1 n=75 v=100
115200 On ch=1 n=72 v=100
116160 Off ch=1 n=72 v=100
116160 On ch=1 n=72 v=100
116640 Off ch=1 n=72 v=100
116640 On ch=1 n=70 v=100
117120 Off ch=1 n=70 v=100
117120 On ch=1 n=72 v=100
117840 Off ch=1 n=72 v=100
117840 On ch=1 n=70 v=100
117960 Off ch=1 n=70 v=100
117960 On ch=1 n=72 v=100
118080 Off ch=1 n=72 v=100
118080 On ch=1 n=75 v=100
118560 Off ch=1 n=75 v=100
118560 On ch=1 n=77 v=100
119040 Off ch=1 n=77 v=100
119040 On ch=1 n=79 v=100
119520 Off ch=1 n=79 v=100
119520 On ch=1 n=77 v=100
120000 Off ch=1 n=77 v=100
120000 On ch=1 n=70 v=100
120960 Off ch=1 n=70 v=100
120960 On ch=1 n=72 v=100
122880 Off ch=1 n=72 v=100
122880 On ch=1 n=67 v=100
123360 Off ch=1 n=67 v=100
123360 On ch=1 n=70 v=100
123840 Off ch=1 n=70 v=100
123840 On ch=1 n=72 v=100
124320 Off ch=1 n=72 v=100
124320 On ch=1 n=75 v=100
124800 Off ch=1 n=75 v=100
124800 On ch=1 n=77 v=100
124800 On ch=1 n=68 v=100
125760 Off ch=1 n=77 v=100
125760 Off ch=1 n=68 v=100
125760 On ch=1 n=75 v=100
125760 On ch=1 n=67 v=100
126240 Off ch=1 n=75 v=100
126240 Off ch=1 n=67 v=100
126240 On ch=1 n=77 v=100
126240 On ch=1 n=68 v=100
126720 Off ch=1 n=77 v=100
126720 Off ch=1 n=68 v=100
126720 On ch=1 n=79 v=100
126720 On ch=1 n=70 v=100
127680 Off ch=1 n=79 v=100
127680 Off ch=1 n=70 v=100
127680 On ch=1 n=75 v=100
128160 Off ch=1 n=75 v=100
128160 On ch=1 n=72 v=100
128640 Off ch=1 n=72 v=100
128640 On ch=1 n=70 v=100
129120 Off ch=1 n=70 v=100
129120 On ch=1 n=67 v=100
129600 Off ch=1 n=67 v=100
129600 On ch=1 n=75 v=100
130080 Off ch=1 n=75 v=100
130080 On ch=1 n=77 v=100
130560 Off ch=1 n=77 v=100
130560 On ch=1 n=72 v=100
131520 Off ch=1 n=72 v=100
131520 On ch=1 n=72 v=100
132000 Off ch=1 n=72 v=100
132000 On ch=1 n=75 v=100
132480 Off ch=1 n=75 v=100
132480 On ch=1 n=77 v=100
132480 On ch=1 n=68 v=100
133440 Off ch=1 n=77 v=100
133440 Off ch=1 n=68 v=100
133440 On ch=1 n=75 v=100
133440 On ch=1 n=67 v=100
133920 Off ch=1 n=75 v=100
133920 Off ch=1 n=67 v=100
133920 On ch=1 n=77 v=100
133920 On ch=1 n=68 v=100
134400 Off ch=1 n=77 v=100
134400 Off ch=1 n=68 v=100
134400 On ch=1 n=79 v=100
134400 On ch=1 n=70 v=100
135360 Off ch=1 n=79 v=100
135360 Off ch=1 n=70 v=100
135360 On ch=1 n=82 v=100
135840 Off ch=1 n=82 v=100
135840 On ch=1 n=84 v=100
136320 Off ch=1 n=84 v=100
136320 On ch=1 n=87 v=100
136800 Off ch=1 n=87 v=100
136800 On ch=1 n=86 v=100
137280 Off ch=1 n=86 v=100
137280 On ch=1 n=84 v=100
137400 Off ch=1 n=84 v=100
137400 On ch=1 n=86 v=100
137520 Off ch=1 n=86 v=100
137520 On ch=1 n=84 v=100
137760 Off ch=1 n=84 v=100
137760 On ch=1 n=82 v=100
138240 Off ch=1 n=82 v=100
138240 On ch=1 n=84 v=100
139200 Off ch=1 n=84 v=100
139200 On ch=1 n=82 v=100
139200 On ch=1 n=72 v=100
139680 Off ch=1 n=82 v=100
139680 Off ch=1 n=72 v=100
139680 On ch=1 n=79 v=100
139680 On ch=1 n=70 v=100
140160 Off ch=1 n=79 v=100
140160 Off ch=1 n=70 v=100
140160 On ch=1 n=77 v=100
140160 On ch=1 n=68 v=100
141120 Off ch=1 n=77 v=100
141120 Off ch=1 n=68 v=100
141120 On ch=1 n=79 v=100
141120 On ch=1 n=70 v=100
141600 Off ch=1 n=79 v=100
141600 Off ch=1 n=70 v=100
141600 On ch=1 n=75 v=100
141600 On ch=1 n=67 v=100
142080 Off ch=1 n=75 v=100
142080 Off ch=1 n=67 v=100
142080 On ch=1 n=77 v=100
142080 On ch=1 n=70 v=100
143040 Off ch=1 n=77 v=100
143040 Off ch=1 n=70 v=100
143040 On ch=1 n=75 v=100
143040 On ch=1 n=67 v=100
143520 Off ch=1 n=75 v=100
143520 Off ch=1 n=67 v=100
143520 On ch=1 n=77 v=100
143520 On ch=1 n=70 v=100
144000 Off ch=1 n=77 v=100
144000 Off ch=1 n=70 v=100
144000 On ch=1 n=79 v=100
144000 On ch=1 n=72 v=100
144720 Off ch=1 n=79 v=100
144720 Off ch=1 n=72 v=100
144720 On ch=1 n=72 v=100
144960 Off ch=1 n=72 v=100
144960 On ch=1 n=75 v=100
145200 Off ch=1 n=75 v=100
145200 On ch=1 n=77 v=100
145440 Off ch=1 n=77 v=100
145440 On ch=1 n=75 v=100
145920 Off ch=1 n=75 v=100
145920 On ch=1 n=72 v=100
146880 Off ch=1 n=72 v=100
146880 On ch=1 n=72 v=100
146880 On ch=1 n=75 v=100
147360 Off ch=1 n=72 v=100
147360 Off ch=1 n=75 v=100
147360 On ch=1 n=70 v=100
147360 On ch=1 n=77 v=100
147840 Off ch=1 n=70 v=100
147840 Off ch=1 n=77 v=100
147840 On ch=1 n=72 v=100
147840 On ch=1 n=75 v=100
148560 Off ch=1 n=72 v=100
148560 Off ch=1 n=75 v=100
148560 On ch=1 n=70 v=100
148680 Off ch=1 n=70 v=100
148680 On ch=1 n=72 v=100
148800 Off ch=1 n=72 v=100
148800 On ch=1 n=75 v=100
149280 Off ch=1 n=75 v=100
149280 On ch=1 n=77 v=100
149760 Off ch=1 n=77 v=100
149760 On ch=1 n=79 v=100
150240 Off ch=1 n=79 v=100
150240 On ch=1 n=77 v=100
150720 Off ch=1 n=77 v=100
150720 On ch=1 n=82 v=100
150720 On ch=1 n=79 v=100
151680 Off ch=1 n=82 v=100
151680 Off ch=1 n=79 v=100
151680 On ch=1 n=84 v=100
151680 On ch=1 n=75 v=100
153600 Off ch=1 n=84 v=100
153600 Off ch=1 n=75 v=100
153600 On ch=1 n=67 v=100
154080 Off ch=1 n=67 v=100
154080 On ch=1 n=70 v=100
154560 Off ch=1 n=70 v=100
154560 On ch=1 n=72 v=100
155040 Off ch=1 n=72 v=100
155040 On ch=1 n=77 v=100
155520 Off ch=1 n=77 v=100
155520 On ch=1 n=82 v=100
156000 Off ch=1 n=82 v=100
156000 On ch=1 n=84 v=100
156480 Off ch=1 n=84 v=100
156480 On ch=1 n=79 v=100
156960 Off ch=1 n=79 v=100
156960 On ch=1 n=77 v=100
157440 Off ch=1 n=77 v=100
157440 On ch=1 n=79 v=100
157440 On ch=1 n=82 v=100
158400 Off ch=1 n=79 v=100
158400 Off ch=1 n=82 v=100
158400 On ch=1 n=75 v=100
158880 Off ch=1 n=75 v=100
158880 On ch=1 n=77 v=100
159360 Off ch=1 n=77 v=100
159360 On ch=1 n=74 v=100
159840 Off ch=1 n=74 v=100
159840 On ch=1 n=75 v=100
160320 Off ch=1 n=75 v=100
160320 On ch=1 n=74 v=100
160440 Off ch=1 n=74 v=100
160440 On ch=1 n=75 v=100
160560 Off ch=1 n=75 v=100
160560 On ch=1 n=74 v=100
160800 Off ch=1 n=74 v=100
160800 On ch=1 n=70 v=100
161280 Off ch=1 n=70 v=100
161280 On ch=1 n=72 v=100
161280 On ch=1 n=63 v=100
162240 Off ch=1 n=72 v=100
162240 Off ch=1 n=63 v=100
162240 On ch=1 n=67 v=100
162720 Off ch=1 n=67 v=100
162720 On ch=1 n=70 v=100
163200 Off ch=1 n=70 v=100
163200 On ch=1 n=72 v=100
163680 Off ch=1 n=72 v=100
163680 On ch=1 n=75 v=100
164160 Off ch=1 n=75 v=100
164160 On ch=1 n=77 v=100
164160 On ch=1 n=68 v=100
164640 Off ch=1 n=77 v=100
164640 Off ch=1 n=68 v=100
164640 On ch=1 n=75 v=100
164640 On ch=1 n=67 v=100
165120 Off ch=1 n=75 v=100
165120 Off ch=1 n=67 v=100
165120 On ch=1 n=77 v=100
165120 On ch=1 n=68 v=100
165840 Off ch=1 n=77 v=100
165840 Off ch=1 n=68 v=100
165840 On ch=1 n=75 v=100
166080 Off ch=1 n=75 v=100
166080 On ch=1 n=77 v=100
166320 Off ch=1 n=77 v=100
166320 On ch=1 n=79 v=100
166560 Off ch=1 n=79 v=100
166560 On ch=1 n=75 v=100
167040 Off ch=1 n=75 v=100
167040 On ch=1 n=77 v=100
167040 On ch=1 n=74 v=100
167760 Off ch=1 n=77 v=100
167760 Off ch=1 n=74 v=100
167760 On ch=1 n=75 v=100
167760 On ch=1 n=72 v=100
168000 Off ch=1 n=75 v=100
168000 Off ch=1 n=72 v=100
168000 On ch=1 n=77 v=100
168000 On ch=1 n=74 v=100
168480 Off ch=1 n=77 v=100
168480 Off ch=1 n=74 v=100
168480 On ch=1 n=82 v=100
168960 Off ch=1 n=82 v=100
168960 On ch=1 n=79 v=100
168960 On ch=1 n=75 v=100
169920 Off ch=1 n=79 v=100
169920 Off ch=1 n=75 v=100
169920 On ch=1 n=79 v=100
170400 Off ch=1 n=79 v=100
170400 On ch=1 n=82 v=100
170880 Off ch=1 n=82 v=100
170880 On ch=1 n=84 v=100
170880 On ch=1 n=80 v=100
171840 Off ch=1 n=84 v=100
171840 Off ch=1 n=80 v=100
171840 On ch=1 n=82 v=100
172320 Off ch=1 n=82 v=100
172320 On ch=1 n=84 v=100
172800 Off ch=1 n=84 v=100
172800 On ch=1 n=79 v=100
174240 Off ch=1 n=79 v=100
174240 On ch=1 n=75 v=100
174720 Off ch=1 n=75 v=100
174720 On ch=1 n=77 v=100
175200 Off ch=1 n=77 v=100
175200 On ch=1 n=79 v=100
175680 Off ch=1 n=79 v=100
175680 On ch=1 n=77 v=100
175800 Off ch=1 n=77 v=100
175800 On ch=1 n=79 v=100
175920 Off ch=1 n=79 v=100
175920 On ch=1 n=77 v=100
176160 Off ch=1 n=77 v=100
176160 On ch=1 n=75 v=100
176640 Off ch=1 n=75 v=100
176640 On ch=1 n=72 v=100
177600 Off ch=1 n=72 v=100
177600 On ch=1 n=72 v=100
178080 Off ch=1 n=72 v=100
178080 On ch=1 n=70 v=100
178560 Off ch=1 n=70 v=100
178560 On ch=1 n=72 v=100
179280 Off ch=1 n=72 v=100
179280 On ch=1 n=70 v=100
179400 Off ch=1 n=70 v=100
179400 On ch=1 n=72 v=100
179520 Off ch=1 n=72 v=100
179520 On ch=1 n=75 v=100
180000 Off ch=1 n=75 v=100
180000 On ch=1 n=77 v=100
180480 Off ch=1 n=77 v=100
180480 On ch=1 n=79 v=100
180960 Off ch=1 n=79 v=100
180960 On ch=1 n=77 v=100
181440 Off ch=1 n=77 v=100
181440 On ch=1 n=82 v=100
182400 Off ch=1 n=82 v=100
182400 On ch=1 n=84 v=100
182400 On ch=1 n=79 v=100
182400 On ch=1 n=75 v=100
190080 Off ch=1 n=84 v=100
190080 Off ch=1 n=79 v=100
190080 Off ch=1 n=75 v=100
190080 Meta TrkEnd
TrkEnd
MTrk
1920 On ch=1 n=44 v=100
2400 Off ch=1 n=44 v=100
2400 On ch=2 n=44 v=100
2880 Off ch=2 n=44 v=100
2880 On ch=2 n=51 v=100
3360 Off ch=2 n=51 v=100
3360 On ch=2 n=44 v=100
3840 Off ch=2 n=44 v=100
3840 On ch=2 n=46 v=100
4320 Off ch=2 n=46 v=100
4320 On ch=2 n=46 v=100
4800 Off ch=2 n=46 v=100
4800 On ch=2 n=53 v=100
5280 Off ch=2 n=53 v=100
5280 On ch=2 n=46 v=100
5760 Off ch=2 n=46 v=100
5760 On ch=2 n=48 v=100
6240 Off ch=2 n=48 v=100
6240 On ch=1 n=48 v=100
6720 Off ch=1 n=48 v=100
6720 On ch=2 n=55 v=100
7200 Off ch=2 n=55 v=100
7200 On ch=2 n=48 v=100
7680 Off ch=2 n=48 v=100
7680 On ch=2 n=51 v=100
8160 Off ch=2 n=51 v=100
8160 On ch=2 n=50 v=100
8640 Off ch=2 n=50 v=100
8640 On ch=2 n=48 v=100
9120 Off ch=2 n=48 v=100
9120 On ch=2 n=46 v=100
9600 Off ch=2 n=46 v=100
9600 On ch=2 n=44 v=100
10080 Off ch=2 n=44 v=100
10080 On ch=2 n=44 v=100
10560 Off ch=2 n=44 v=100
10560 On ch=2 n=51 v=100
11040 Off ch=2 n=51 v=100
11040 On ch=2 n=44 v=100
11520 Off ch=2 n=44 v=100
11520 On ch=2 n=46 v=100
12000 Off ch=2 n=46 v=100
12000 On ch=2 n=46 v=100
12480 Off ch=2 n=46 v=100
12480 On ch=2 n=53 v=100
12960 Off ch=2 n=53 v=100
12960 On ch=2 n=46 v=100
13440 Off ch=2 n=46 v=100
13440 On ch=2 n=48 v=100
13920 Off ch=2 n=48 v=100
13920 On ch=2 n=48 v=100
14400 Off ch=2 n=48 v=100
14400 On ch=2 n=55 v=100
14880 Off ch=2 n=55 v=100
14880 On ch=2 n=48 v=100
15360 Off ch=2 n=48 v=100
15360 On ch=2 n=48 v=100
15840 Off ch=2 n=48 v=100
15840 On ch=2 n=48 v=100
16320 Off ch=2 n=48 v=100
16320 On ch=2 n=55 v=100
16800 Off ch=2 n=55 v=100
16800 On ch=2 n=48 v=100
17280 Off ch=2 n=48 v=100
17280 On ch=1 n=44 v=100
17760 Off ch=1 n=44 v=100
17760 On ch=2 n=44 v=100
18240 Off ch=2 n=44 v=100
18240 On ch=2 n=51 v=100
18720 Off ch=2 n=51 v=100
18720 On ch=2 n=44 v=100
19200 Off ch=2 n=44 v=100
19200 On ch=2 n=46 v=100
19680 Off ch=2 n=46 v=100
19680 On ch=2 n=46 v=100
20160 Off ch=2 n=46 v=100
20160 On ch=2 n=53 v=100
20640 Off ch=2 n=53 v=100
20640 On ch=2 n=46 v=100
21120 Off ch=2 n=46 v=100
21120 On ch=2 n=48 v=100
21600 Off ch=2 n=48 v=100
21600 On ch=2 n=48 v=100
22080 Off ch=2 n=48 v=100
22080 On ch=2 n=55 v=100
22560 Off ch=2 n=55 v=100
22560 On ch=2 n=48 v=100
23040 Off ch=2 n=48 v=100
23040 On ch=2 n=51 v=100
23520 Off ch=2 n=51 v=100
23520 On ch=2 n=50 v=100
24000 Off ch=2 n=50 v=100
24000 On ch=2 n=48 v=100
24480 Off ch=2 n=48 v=100
24480 On ch=2 n=46 v=100
24960 Off ch=2 n=46 v=100
24960 On ch=2 n=44 v=100
25440 Off ch=2 n=44 v=100
25440 On ch=2 n=44 v=100
25920 Off ch=2 n=44 v=100
25920 On ch=2 n=51 v=100
26400 Off ch=2 n=51 v=100
26400 On ch=2 n=44 v=100
26880 Off ch=2 n=44 v=100
26880 On ch=2 n=46 v=100
27360 Off ch=2 n=46 v=100
27360 On ch=2 n=46 v=100
27840 Off ch=2 n=46 v=100
27840 On ch=2 n=53 v=100
28320 Off ch=2 n=53 v=100
28320 On ch=2 n=46 v=100
28800 Off ch=2 n=46 v=100
28800 On ch=2 n=48 v=100
29280 Off ch=2 n=48 v=100
29280 On ch=2 n=48 v=100
29760 Off ch=2 n=48 v=100
29760 On ch=2 n=55 v=100
30240 Off ch=2 n=55 v=100
30240 On ch=2 n=48 v=100
30720 Off ch=2 n=48 v=100
30720 On ch=2 n=51 v=100
31200 Off ch=2 n=51 v=100
31200 On ch=2 n=50 v=100
31680 Off ch=2 n=50 v=100
31680 On ch=2 n=48 v=100
32160 Off ch=2 n=48 v=100
32160 On ch=2 n=46 v=100
32640 Off ch=2 n=46 v=100
32640 On ch=1 n=44 v=100
33120 Off ch=1 n=44 v=100
33120 On ch=2 n=44 v=100
33600 Off ch=2 n=44 v=100
33600 On ch=2 n=51 v=100
34080 Off ch=2 n=51 v=100
34080 On ch=2 n=44 v=100
34560 Off ch=2 n=44 v=100
34560 On ch=2 n=46 v=100
35040 Off ch=2 n=46 v=100
35040 On ch=2 n=46 v=100
35520 Off ch=2 n=46 v=100
35520 On ch=2 n=53 v=100
36000 Off ch=2 n=53 v=100
36000 On ch=2 n=46 v=100
36480 Off ch=2 n=46 v=100
36480 On ch=2 n=48 v=100
36960 Off ch=2 n=48 v=100
36960 On ch=1 n=48 v=100
37440 Off ch=1 n=48 v=100
37440 On ch=2 n=55 v=100
37920 Off ch=2 n=55 v=100
37920 On ch=2 n=48 v=100
38400 Off ch=2 n=48 v=100
38400 On ch=2 n=51 v=100
38880 Off ch=2 n=51 v=100
38880 On ch=2 n=50 v=100
39360 Off ch=2 n=50 v=100
39360 On ch=2 n=48 v=100
39840 Off ch=2 n=48 v=100
39840 On ch=2 n=46 v=100
40320 Off ch=2 n=46 v=100
40320 On ch=2 n=44 v=100
40800 Off ch=2 n=44 v=100
40800 On ch=2 n=44 v=100
41280 Off ch=2 n=44 v=100
41280 On ch=2 n=51 v=100
41760 Off ch=2 n=51 v=100
41760 On ch=2 n=44 v=100
42240 Off ch=2 n=44 v=100
42240 On ch=2 n=46 v=100
42720 Off ch=2 n=46 v=100
42720 On ch=2 n=46 v=100
43200 Off ch=2 n=46 v=100
43200 On ch=2 n=53 v=100
43680 Off ch=2 n=53 v=100
43680 On ch=2 n=46 v=100
44160 Off ch=2 n=46 v=100
44160 On ch=2 n=48 v=100
44640 Off ch=2 n=48 v=100
44640 On ch=2 n=48 v=100
45120 Off ch=2 n=48 v=100
45120 On ch=2 n=55 v=100
45600 Off ch=2 n=55 v=100
45600 On ch=2 n=48 v=100
46080 Off ch=2 n=48 v=100
46080 On ch=2 n=48 v=100
46560 Off ch=2 n=48 v=100
46560 On ch=2 n=48 v=100
47040 Off ch=2 n=48 v=100
47040 On ch=2 n=55 v=100
47520 Off ch=2 n=55 v=100
47520 On ch=2 n=48 v=100
48000 Off ch=2 n=48 v=100
48000 On ch=1 n=44 v=100
48480 Off ch=1 n=44 v=100
48480 On ch=2 n=44 v=100
48960 Off ch=2 n=44 v=100
48960 On ch=2 n=51 v=100
49440 Off ch=2 n=51 v=100
49440 On ch=2 n=44 v=100
49920 Off ch=2 n=44 v=100
49920 On ch=2 n=46 v=100
50400 Off ch=2 n=46 v=100
50400 On ch=2 n=46 v=100
50880 Off ch=2 n=46 v=100
50880 On ch=2 n=53 v=100
51360 Off ch=2 n=53 v=100
51360 On ch=2 n=46 v=100
51840 Off ch=2 n=46 v=100
51840 On ch=2 n=48 v=100
52320 Off ch=2 n=48 v=100
52320 On ch=2 n=48 v=100
52800 Off ch=2 n=48 v=100
52800 On ch=2 n=55 v=100
53280 Off ch=2 n=55 v=100
53280 On ch=2 n=48 v=100
53760 Off ch=2 n=48 v=100
53760 On ch=2 n=51 v=100
54240 Off ch=2 n=51 v=100
54240 On ch=2 n=50 v=100
54720 Off ch=2 n=50 v=100
54720 On ch=2 n=48 v=100
55200 Off ch=2 n=48 v=100
55200 On ch=2 n=46 v=100
55680 Off ch=2 n=46 v=100
55680 On ch=2 n=44 v=100
56160 Off ch=2 n=44 v=100
56160 On ch=2 n=44 v=100
56640 Off ch=2 n=44 v=100
56640 On ch=2 n=51 v=100
57120 Off ch=2 n=51 v=100
57120 On ch=2 n=44 v=100
57600 Off ch=2 n=44 v=100
57600 On ch=2 n=46 v=100
58080 Off ch=2 n=46 v=100
58080 On ch=2 n=46 v=100
58560 Off ch=2 n=46 v=100
58560 On ch=2 n=53 v=100
59040 Off ch=2 n=53 v=100
59040 On ch=2 n=46 v=100
59520 Off ch=2 n=46 v=100
59520 On ch=2 n=48 v=100
60000 Off ch=2 n=48 v=100
60000 On ch=2 n=48 v=100
60480 Off ch=2 n=48 v=100
60480 On ch=2 n=55 v=100
60960 Off ch=2 n=55 v=100
60960 On ch=2 n=48 v=100
61440 Off ch=2 n=48 v=100
61440 On ch=2 n=48 v=100
61920 Off ch=2 n=48 v=100
61920 On ch=2 n=48 v=100
62400 Off ch=2 n=48 v=100
62400 On ch=2 n=55 v=100
62880 Off ch=2 n=55 v=100
62880 On ch=2 n=48 v=100
63360 Off ch=2 n=48 v=100
63360 On ch=1 n=44 v=100
63840 Off ch=1 n=44 v=100
63840 On ch=2 n=44 v=100
64320 Off ch=2 n=44 v=100
64320 On ch=2 n=51 v=100
64800 Off ch=2 n=51 v=100
64800 On ch=2 n=44 v=100
65280 Off ch=2 n=44 v=100
65280 On ch=2 n=46 v=100
65760 Off ch=2 n=46 v=100
65760 On ch=2 n=46 v=100
66240 Off ch=2 n=46 v=100
66240 On ch=2 n=53 v=100
66720 Off ch=2 n=53 v=100
66720 On ch=2 n=46 v=100
67200 Off ch=2 n=46 v=100
67200 On ch=2 n=48 v=100
67680 Off ch=2 n=48 v=100
67680 On ch=1 n=48 v=100
68160 Off ch=1 n=48 v=100
68160 On ch=2 n=55 v=100
68640 Off ch=2 n=55 v=100
68640 On ch=2 n=48 v=100
69120 Off ch=2 n=48 v=100
69120 On ch=2 n=51 v=100
69600 Off ch=2 n=51 v=100
69600 On ch=2 n=50 v=100
70080 Off ch=2 n=50 v=100
70080 On ch=2 n=48 v=100
70560 Off ch=2 n=48 v=100
70560 On ch=2 n=46 v=100
71040 Off ch=2 n=46 v=100
71040 On ch=2 n=44 v=100
71520 Off ch=2 n=44 v=100
71520 On ch=2 n=44 v=100
72000 Off ch=2 n=44 v=100
72000 On ch=2 n=51 v=100
72480 Off ch=2 n=51 v=100
72480 On ch=2 n=44 v=100
72960 Off ch=2 n=44 v=100
72960 On ch=2 n=46 v=100
73440 Off ch=2 n=46 v=100
73440 On ch=2 n=46 v=100
73920 Off ch=2 n=46 v=100
73920 On ch=2 n=53 v=100
74400 Off ch=2 n=53 v=100
74400 On ch=2 n=46 v=100
74880 Off ch=2 n=46 v=100
74880 On ch=2 n=48 v=100
75360 Off ch=2 n=48 v=100
75360 On ch=2 n=48 v=100
75840 Off ch=2 n=48 v=100
75840 On ch=2 n=55 v=100
76320 Off ch=2 n=55 v=100
76320 On ch=2 n=48 v=100
76800 Off ch=2 n=48 v=100
76800 On ch=2 n=48 v=100
77280 Off ch=2 n=48 v=100
77280 On ch=2 n=48 v=100
77760 Off ch=2 n=48 v=100
77760 On ch=2 n=55 v=100
78240 Off ch=2 n=55 v=100
78240 On ch=2 n=48 v=100
78720 Off ch=2 n=48 v=100
78720 On ch=1 n=44 v=100
79200 Off ch=1 n=44 v=100
79200 On ch=2 n=44 v=100
79680 Off ch=2 n=44 v=100
79680 On ch=2 n=51 v=100
80160 Off ch=2 n=51 v=100
80160 On ch=2 n=44 v=100
80640 Off ch=2 n=44 v=100
80640 On ch=2 n=46 v=100
81120 Off ch=2 n=46 v=100
81120 On ch=2 n=46 v=100
81600 Off ch=2 n=46 v=100
81600 On ch=2 n=53 v=100
82080 Off ch=2 n=53 v=100
82080 On ch=2 n=46 v=100
82560 Off ch=2 n=46 v=100
82560 On ch=2 n=48 v=100
83040 Off ch=2 n=48 v=100
83040 On ch=2 n=48 v=100
83520 Off ch=2 n=48 v=100
83520 On ch=2 n=55 v=100
84000 Off ch=2 n=55 v=100
84000 On ch=2 n=48 v=100
84480 Off ch=2 n=48 v=100
84480 On ch=2 n=51 v=100
84960 Off ch=2 n=51 v=100
84960 On ch=2 n=50 v=100
85440 Off ch=2 n=50 v=100
85440 On ch=2 n=48 v=100
85920 Off ch=2 n=48 v=100
85920 On ch=2 n=46 v=100
86400 Off ch=2 n=46 v=100
86400 On ch=1 n=44 v=100
86880 Off ch=1 n=44 v=100
86880 On ch=2 n=44 v=100
87360 Off ch=2 n=44 v=100
87360 On ch=2 n=51 v=100
87840 Off ch=2 n=51 v=100
87840 On ch=2 n=44 v=100
88320 Off ch=2 n=44 v=100
88320 On ch=2 n=46 v=100
88800 Off ch=2 n=46 v=100
88800 On ch=2 n=46 v=100
89280 Off ch=2 n=46 v=100
89280 On ch=2 n=53 v=100
89760 Off ch=2 n=53 v=100
89760 On ch=2 n=46 v=100
90240 Off ch=2 n=46 v=100
90240 On ch=2 n=48 v=100
92160 Off ch=2 n=48 v=100
94080 On ch=1 n=44 v=100
94800 Off ch=1 n=44 v=100
94800 On ch=2 n=44 v=100
95040 Off ch=2 n=44 v=100
95040 On ch=2 n=51 v=100
95520 Off ch=2 n=51 v=100
95520 On ch=2 n=44 v=100
96000 Off ch=2 n=44 v=100
96240 On ch=2 n=46 v=100
96480 Off ch=2 n=46 v=100
96480 On ch=2 n=46 v=100
96960 Off ch=2 n=46 v=100
96960 On ch=2 n=53 v=100
97440 Off ch=2 n=53 v=100
97440 On ch=2 n=46 v=100
97920 Off ch=2 n=46 v=100
97920 On ch=2 n=48 v=100
98400 Off ch=2 n=48 v=100
98400 On ch=1 n=48 v=100
98880 Off ch=1 n=48 v=100
98880 On ch=2 n=55 v=100
99360 Off ch=2 n=55 v=100
99360 On ch=2 n=48 v=100
99840 Off ch=2 n=48 v=100
99840 On ch=2 n=51 v=100
100320 Off ch=2 n=51 v=100
100320 On ch=2 n=50 v=100
100800 Off ch=2 n=50 v=100
100800 On ch=2 n=48 v=100
101280 Off ch=2 n=48 v=100
101280 On ch=2 n=46 v=100
101760 Off ch=2 n=46 v=100
101760 On ch=2 n=44 v=100
102480 Off ch=2 n=44 v=100
102480 On ch=2 n=44 v=100
102720 Off ch=2 n=44 v=100
102720 On ch=2 n=51 v=100
103200 Off ch=2 n=51 v=100
103200 On ch=2 n=44 v=100
103680 Off ch=2 n=44 v=100
103920 On ch=2 n=46 v=100
104160 Off ch=2 n=46 v=100
104160 On ch=2 n=46 v=100
104640 Off ch=2 n=46 v=100
104640 On ch=2 n=53 v=100
105120 Off ch=2 n=53 v=100
105120 On ch=2 n=46 v=100
105600 Off ch=2 n=46 v=100
105600 On ch=2 n=48 v=100
106320 Off ch=2 n=48 v=100
106320 On ch=2 n=48 v=100
106560 Off ch=2 n=48 v=100
106560 On ch=2 n=55 v=100
107040 Off ch=2 n=55 v=100
107040 On ch=2 n=48 v=100
107520 Off ch=2 n=48 v=100
107760 On ch=2 n=48 v=100
108000 Off ch=2 n=48 v=100
108000 On ch=2 n=48 v=100
108480 Off ch=2 n=48 v=100
108480 On ch=2 n=55 v=100
108960 Off ch=2 n=55 v=100
108960 On ch=2 n=48 v=100
109440 Off ch=2 n=48 v=100
109440 On ch=1 n=44 v=100
110160 Off ch=1 n=44 v=100
110160 On ch=2 n=44 v=100
110400 Off ch=2 n=44 v=100
110400 On ch=2 n=51 v=100
110880 Off ch=2 n=51 v=100
110880 On ch=2 n=44 v=100
111360 Off ch=2 n=44 v=100
111600 On ch=2 n=46 v=100
111840 Off ch=2 n=46 v=100
111840 On ch=2 n=46 v=100
112320 Off ch=2 n=46 v=100
112320 On ch=2 n=53 v=100
112800 Off ch=2 n=53 v=100
112800 On ch=2 n=46 v=100
113280 Off ch=2 n=46 v=100
113280 On ch=2 n=48 v=100
114000 Off ch=2 n=48 v=100
114000 On ch=2 n=48 v=100
114240 Off ch=2 n=48 v=100
114240 On ch=2 n=55 v=100
114720 Off ch=2 n=55 v=100
114720 On ch=2 n=48 v=100
115200 Off ch=2 n=48 v=100
115200 On ch=2 n=51 v=100
115680 Off ch=2 n=51 v=100
115680 On ch=2 n=50 v=100
116160 Off ch=2 n=50 v=100
116160 On ch=2 n=48 v=100
116640 Off ch=2 n=48 v=100
116640 On ch=2 n=46 v=100
117120 Off ch=2 n=46 v=100
117120 On ch=2 n=44 v=100
117840 Off ch=2 n=44 v=100
117840 On ch=2 n=44 v=100
118080 Off ch=2 n=44 v=100
118080 On ch=2 n=51 v=100
118560 Off ch=2 n=51 v=100
118560 On ch=2 n=44 v=100
119040 Off ch=2 n=44 v=100
119280 On ch=2 n=46 v=100
119520 Off ch=2 n=46 v=100
119520 On ch=2 n=46 v=100
120000 Off ch=2 n=46 v=100
120000 On ch=2 n=53 v=100
120480 Off ch=2 n=53 v=100
120480 On ch=2 n=46 v=100
120960 Off ch=2 n=46 v=100
120960 On ch=2 n=48 v=100
121680 Off ch=2 n=48 v=100
121680 On ch=2 n=48 v=100
121920 Off ch=2 n=48 v=100
121920 On ch=2 n=55 v=100
122400 Off ch=2 n=55 v=100
122400 On ch=2 n=48 v=100
122880 Off ch=2 n=48 v=100
122880 On ch=2 n=51 v=100
123360 Off ch=2 n=51 v=100
123360 On ch=2 n=50 v=100
123840 Off ch=2 n=50 v=100
123840 On ch=2 n=48 v=100
124320 Off ch=2 n=48 v=100
124320 On ch=2 n=46 v=100
124800 Off ch=2 n=46 v=100
124800 On ch=1 n=44 v=100
125520 Off ch=1 n=44 v=100
125520 On ch=2 n=44 v=100
125760 Off ch=2 n=44 v=100
125760 On ch=2 n=51 v=100
126240 Off ch=2 n=51 v=100
126240 On ch=2 n=44 v=100
126720 Off ch=2 n=44 v=100
126960 On ch=2 n=46 v=100
127200 Off ch=2 n=46 v=100
127200 On ch=2 n=46 v=100
127680 Off ch=2 n=46 v=100
127680 On ch=2 n=53 v=100
128160 Off ch=2 n=53 v=100
128160 On ch=2 n=46 v=100
128640 Off ch=2 n=46 v=100
128640 On ch=2 n=48 v=100
129120 Off ch=2 n=48 v=100
129120 On ch=1 n=48 v=100
129600 Off ch=1 n=48 v=100
129600 On ch=2 n=55 v=100
130080 Off ch=2 n=55 v=100
130080 On ch=2 n=48 v=100
130560 Off ch=2 n=48 v=100
130560 On ch=2 n=51 v=100
131040 Off ch=2 n=51 v=100
131040 On ch=2 n=50 v=100
131520 Off ch=2 n=50 v=100
131520 On ch=2 n=48 v=100
132000 Off ch=2 n=48 v=100
132000 On ch=2 n=46 v=100
132480 Off ch=2 n=46 v=100
132480 On ch=2 n=44 v=100
133200 Off ch=2 n=44 v=100
133200 On ch=2 n=44 v=100
133440 Off ch=2 n=44 v=100
133440 On ch=2 n=51 v=100
133920 Off ch=2 n=51 v=100
133920 On ch=2 n=44 v=100
134400 Off ch=2 n=44 v=100
134640 On ch=2 n=46 v=100
134880 Off ch=2 n=46 v=100
134880 On ch=2 n=46 v=100
135360 Off ch=2 n=46 v=100
135360 On ch=2 n=53 v=100
135840 Off ch=2 n=53 v=100
135840 On ch=2 n=46 v=100
136320 Off ch=2 n=46 v=100
136320 On ch=2 n=48 v=100
137040 Off ch=2 n=48 v=100
137040 On ch=2 n=48 v=100
137280 Off ch=2 n=48 v=100
137280 On ch=2 n=55 v=100
137760 Off ch=2 n=55 v=100
137760 On ch=2 n=48 v=100
138240 Off ch=2 n=48 v=100
138480 On ch=2 n=48 v=100
138720 Off ch=2 n=48 v=100
138720 On ch=2 n=48 v=100
139200 Off ch=2 n=48 v=100
139200 On ch=2 n=55 v=100
139680 Off ch=2 n=55 v=100
139680 On ch=2 n=48 v=100
140160 Off ch=2 n=48 v=100
140160 On ch=1 n=44 v=100
140880 Off ch=1 n=44 v=100
140880 On ch=2 n=44 v=100
141120 Off ch=2 n=44 v=100
141120 On ch=2 n=51 v=100
141600 Off ch=2 n=51 v=100
141600 On ch=2 n=44 v=100
142080 Off ch=2 n=44 v=100
142320 On ch=2 n=46 v=100
142560 Off ch=2 n=46 v=100
142560 On ch=2 n=46 v=100
143040 Off ch=2 n=46 v=100
143040 On ch=2 n=53 v=100
143520 Off ch=2 n=53 v=100
143520 On ch=2 n=46 v=100
144000 Off ch=2 n=46 v=100
144000 On ch=2 n=48 v=100
144720 Off ch=2 n=48 v=100
144720 On ch=2 n=48 v=100
144960 Off ch=2 n=48 v=100
144960 On ch=2 n=55 v=100
145440 Off ch=2 n=55 v=100
145440 On ch=2 n=48 v=100
145920 Off ch=2 n=48 v=100
145920 On ch=2 n=51 v=100
146400 Off ch=2 n=51 v=100
146400 On ch=2 n=50 v=100
146880 Off ch=2 n=50 v=100
146880 On ch=2 n=48 v=100
147360 Off ch=2 n=48 v=100
147360 On ch=2 n=46 v=100
147840 Off ch=2 n=46 v=100
147840 On ch=2 n=44 v=100
148560 Off ch=2 n=44 v=100
148560 On ch=2 n=44 v=100
148800 Off ch=2 n=44 v=100
148800 On ch=2 n=51 v=100
149280 Off ch=2 n=51 v=100
149280 On ch=2 n=44 v=100
149760 Off ch=2 n=44 v=100
150000 On ch=2 n=46 v=100
150240 Off ch=2 n=46 v=100
150240 On ch=2 n=46 v=100
150720 Off ch=2 n=46 v=100
150720 On ch=2 n=53 v=100
151200 Off ch=2 n=53 v=100
151200 On ch=2 n=46 v=100
151680 Off ch=2 n=46 v=100
151680 On ch=2 n=48 v=100
152400 Off ch=2 n=48 v=100
152400 On ch=2 n=48 v=100
152640 Off ch=2 n=48 v=100
152640 On ch=2 n=55 v=100
153120 Off ch=2 n=55 v=100
153120 On ch=2 n=48 v=100
153600 Off ch=2 n=48 v=100
153600 On ch=2 n=48 v=100
154320 Off ch=2 n=48 v=100
154320 On ch=2 n=48 v=100
154560 Off ch=2 n=48 v=100
154560 On ch=2 n=55 v=100
155040 Off ch=2 n=55 v=100
155040 On ch=2 n=48 v=100
155520 Off ch=2 n=48 v=100
155520 On ch=1 n=44 v=100
156240 Off ch=1 n=44 v=100
156240 On ch=2 n=44 v=100
156480 Off ch=2 n=44 v=100
156480 On ch=2 n=51 v=100
156960 Off ch=2 n=51 v=100
156960 On ch=2 n=44 v=100
157440 Off ch=2 n=44 v=100
157680 On ch=2 n=46 v=100
157920 Off ch=2 n=46 v=100
157920 On ch=2 n=46 v=100
158400 Off ch=2 n=46 v=100
158400 On ch=2 n=53 v=100
158880 Off ch=2 n=53 v=100
158880 On ch=2 n=46 v=100
159360 Off ch=2 n=46 v=100
159360 On ch=2 n=48 v=100
159840 Off ch=2 n=48 v=100
159840 On ch=1 n=48 v=100
160320 Off ch=1 n=48 v=100
160320 On ch=2 n=55 v=100
160800 Off ch=2 n=55 v=100
160800 On ch=2 n=48 v=100
161280 Off ch=2 n=48 v=100
161280 On ch=2 n=51 v=100
161760 Off ch=2 n=51 v=100
161760 On ch=2 n=50 v=100
162240 Off ch=2 n=50 v=100
162240 On ch=2 n=48 v=100
162720 Off ch=2 n=48 v=100
162720 On ch=2 n=46 v=100
163200 Off ch=2 n=46 v=100
163200 On ch=2 n=44 v=100
163920 Off ch=2 n=44 v=100
163920 On ch=2 n=44 v=100
164160 Off ch=2 n=44 v=100
164160 On ch=2 n=51 v=100
164640 Off ch=2 n=51 v=100
164640 On ch=2 n=44 v=100
165120 Off ch=2 n=44 v=100
165360 On ch=2 n=46 v=100
165600 Off ch=2 n=46 v=100
165600 On ch=2 n=46 v=100
166080 Off ch=2 n=46 v=100
166080 On ch=2 n=53 v=100
166560 Off ch=2 n=53 v=100
166560 On ch=2 n=46 v=100
167040 Off ch=2 n=46 v=100
167040 On ch=2 n=48 v=100
167760 Off ch=2 n=48 v=100
167760 On ch=2 n=48 v=100
168000 Off ch=2 n=48 v=100
168000 On ch=2 n=55 v=100
168480 Off ch=2 n=55 v=100
168480 On ch=2 n=48 v=100
168960 Off ch=2 n=48 v=100
169200 On ch=2 n=48 v=100
169440 Off ch=2 n=48 v=100
169440 On ch=2 n=48 v=100
169920 Off ch=2 n=48 v=100
169920 On ch=2 n=55 v=100
170400 Off ch=2 n=55 v=100
170400 On ch=2 n=48 v=100
170880 Off ch=2 n=48 v=100
170880 On ch=1 n=44 v=100
171600 Off ch=1 n=44 v=100
171600 On ch=2 n=44 v=100
171840 Off ch=2 n=44 v=100
171840 On ch=2 n=51 v=100
172320 Off ch=2 n=51 v=100
172320 On ch=2 n=44 v=100
172800 Off ch=2 n=44 v=100
173040 On ch=2 n=46 v=100
173280 Off ch=2 n=46 v=100
173280 On ch=2 n=46 v=100
173760 Off ch=2 n=46 v=100
173760 On ch=2 n=53 v=100
174240 Off ch=2 n=53 v=100
174240 On ch=2 n=46 v=100
174720 Off ch=2 n=46 v=100
174720 On ch=2 n=48 v=100
175440 Off ch=2 n=48 v=100
175440 On ch=2 n=48 v=100
175680 Off ch=2 n=48 v=100
175680 On ch=2 n=55 v=100
176160 Off ch=2 n=55 v=100
176160 On ch=2 n=48 v=100
176640 Off ch=2 n=48 v=100
176640 On ch=2 n=51 v=100
177120 Off ch=2 n=51 v=100
177120 On ch=2 n=50 v=100
177600 Off ch=2 n=50 v=100
177600 On ch=2 n=48 v=100
178080 Off ch=2 n=48 v=100
178080 On ch=2 n=46 v=100
178560 Off ch=2 n=46 v=100
178560 On ch=1 n=44 v=100
179280 Off ch=1 n=44 v=100
179280 On ch=2 n=44 v=100
179520 Off ch=2 n=44 v=100
179520 On ch=2 n=51 v=100
180000 Off ch=2 n=51 v=100
180000 On ch=2 n=44 v=100
180480 Off ch=2 n=44 v=100
180720 On ch=2 n=46 v=100
180960 Off ch=2 n=46 v=100
180960 On ch=2 n=46 v=100
181440 Off ch=2 n=46 v=100
181440 On ch=2 n=53 v=100
181920 Off ch=2 n=53 v=100
181920 On ch=2 n=46 v=100
182400 Off ch=2 n=46 v=100
182400 On ch=2 n=48 v=100
190080 Off ch=2 n=48 v=100
190080 Meta TrkEnd
TrkEnd
]]

end