PLUGIN.Name = "GSTAB_PATTERN"
PLUGIN.DefaultOn = false
PLUGIN.Description = ""
PLUGIN.Trigger = true

function PLUGIN:Load()
GUNSTRUMENTAL_CH1 = "1"
GUNSTRUMENTAL_CH2 = "2"
GUNSTRUMENTAL_DELAYBASE = 120
GUNSTRUMENTAL_NODELAYFILTER = true
GUNSTRUMENTAL_TAB =  [[MFile 1 2 960
MTrk
0 TimeSig 3/4 24 8
0 On ch=1 n=73 v=100
0 Tempo 405405
0 KeySig 251 major
240 Off ch=1 n=73 v=100
240 On ch=1 n=70 v=100
480 Off ch=1 n=70 v=100
480 On ch=1 n=65 v=100
720 Off ch=1 n=65 v=100
720 On ch=1 n=73 v=100
960 Off ch=1 n=73 v=100
960 On ch=1 n=70 v=100
1200 Off ch=1 n=70 v=100
1200 On ch=1 n=65 v=100
1440 Off ch=1 n=65 v=100
1440 On ch=1 n=73 v=100
1680 Off ch=1 n=73 v=100
1680 On ch=1 n=70 v=100
1920 Off ch=1 n=70 v=100
1920 On ch=1 n=65 v=100
2160 Off ch=1 n=65 v=100
2160 On ch=1 n=73 v=100
2400 Off ch=1 n=73 v=100
2400 On ch=1 n=70 v=100
2640 Off ch=1 n=70 v=100
2640 On ch=1 n=65 v=100
2880 Off ch=1 n=65 v=100
2880 TimeSig 2/4 24 8
2880 On ch=1 n=72 v=100
3520 Off ch=1 n=72 v=100
3520 On ch=1 n=72 v=100
4160 Off ch=1 n=72 v=100
4160 On ch=1 n=72 v=100
4800 Off ch=1 n=72 v=100
4800 On ch=1 n=73 v=100
4800 TimeSig 3/4 24 8
5040 Off ch=1 n=73 v=100
5040 On ch=1 n=70 v=100
5280 Off ch=1 n=70 v=100
5280 On ch=1 n=65 v=100
5520 Off ch=1 n=65 v=100
5520 On ch=1 n=73 v=100
5760 Off ch=1 n=73 v=100
5760 On ch=1 n=70 v=100
6000 Off ch=1 n=70 v=100
6000 On ch=1 n=65 v=100
6240 Off ch=1 n=65 v=100
6240 On ch=1 n=73 v=100
6480 Off ch=1 n=73 v=100
6480 On ch=1 n=70 v=100
6720 Off ch=1 n=70 v=100
6720 On ch=1 n=65 v=100
6960 Off ch=1 n=65 v=100
6960 On ch=1 n=73 v=100
7200 Off ch=1 n=73 v=100
7200 On ch=1 n=70 v=100
7440 Off ch=1 n=70 v=100
7440 On ch=1 n=65 v=100
7680 Off ch=1 n=65 v=100
7680 On ch=1 n=75 v=100
7680 TimeSig 2/4 24 8
8320 Off ch=1 n=75 v=100
8320 On ch=1 n=75 v=100
8960 Off ch=1 n=75 v=100
8960 On ch=1 n=75 v=100
9600 Off ch=1 n=75 v=100
9600 On ch=1 n=73 v=100
9600 TimeSig 3/4 24 8
9840 Off ch=1 n=73 v=100
9840 On ch=1 n=70 v=100
10080 Off ch=1 n=70 v=100
10080 On ch=1 n=65 v=100
10320 Off ch=1 n=65 v=100
10320 On ch=1 n=73 v=100
10560 Off ch=1 n=73 v=100
10560 On ch=1 n=70 v=100
10800 Off ch=1 n=70 v=100
10800 On ch=1 n=65 v=100
11040 Off ch=1 n=65 v=100
11040 On ch=1 n=73 v=100
11280 Off ch=1 n=73 v=100
11280 On ch=1 n=70 v=100
11520 Off ch=1 n=70 v=100
11520 On ch=1 n=65 v=100
11760 Off ch=1 n=65 v=100
11760 On ch=1 n=73 v=100
12000 Off ch=1 n=73 v=100
12000 On ch=1 n=70 v=100
12240 Off ch=1 n=70 v=100
12240 On ch=1 n=65 v=100
12480 Off ch=1 n=65 v=100
12480 On ch=1 n=72 v=100
12480 TimeSig 2/4 24 8
13120 Off ch=1 n=72 v=100
13120 On ch=1 n=72 v=100
13760 Off ch=1 n=72 v=100
13760 On ch=1 n=72 v=100
14400 Off ch=1 n=72 v=100
14400 On ch=1 n=73 v=100
14400 TimeSig 3/4 24 8
14640 Off ch=1 n=73 v=100
14640 On ch=1 n=70 v=100
14880 Off ch=1 n=70 v=100
14880 On ch=1 n=65 v=100
15120 Off ch=1 n=65 v=100
15120 On ch=1 n=73 v=100
15360 Off ch=1 n=73 v=100
15360 On ch=1 n=70 v=100
15600 Off ch=1 n=70 v=100
15600 On ch=1 n=65 v=100
15840 Off ch=1 n=65 v=100
15840 On ch=1 n=73 v=100
16080 Off ch=1 n=73 v=100
16080 On ch=1 n=70 v=100
16320 Off ch=1 n=70 v=100
16320 On ch=1 n=65 v=100
16560 Off ch=1 n=65 v=100
16560 On ch=1 n=73 v=100
16800 Off ch=1 n=73 v=100
16800 On ch=1 n=70 v=100
17040 Off ch=1 n=70 v=100
17040 On ch=1 n=65 v=100
17280 Off ch=1 n=65 v=100
17280 On ch=1 n=75 v=100
17280 TimeSig 2/4 24 8
17920 Off ch=1 n=75 v=100
17920 On ch=1 n=75 v=100
18560 Off ch=1 n=75 v=100
18560 On ch=1 n=75 v=100
19200 Off ch=1 n=75 v=100
19200 On ch=1 n=73 v=100
19200 TimeSig 3/4 24 8
19440 Off ch=1 n=73 v=100
19440 On ch=1 n=70 v=100
19680 Off ch=1 n=70 v=100
19680 On ch=1 n=65 v=100
19920 Off ch=1 n=65 v=100
19920 On ch=1 n=73 v=100
20160 Off ch=1 n=73 v=100
20160 On ch=1 n=70 v=100
20400 Off ch=1 n=70 v=100
20400 On ch=1 n=65 v=100
20640 Off ch=1 n=65 v=100
20640 On ch=1 n=73 v=100
20880 Off ch=1 n=73 v=100
20880 On ch=1 n=70 v=100
21120 Off ch=1 n=70 v=100
21120 On ch=1 n=65 v=100
21360 Off ch=1 n=65 v=100
21360 On ch=1 n=73 v=100
21600 Off ch=1 n=73 v=100
21600 On ch=1 n=70 v=100
21840 Off ch=1 n=70 v=100
21840 On ch=1 n=65 v=100
22080 Off ch=1 n=65 v=100
22080 On ch=1 n=72 v=100
22080 TimeSig 2/4 24 8
22720 Off ch=1 n=72 v=100
22720 On ch=1 n=72 v=100
23360 Off ch=1 n=72 v=100
23360 On ch=1 n=72 v=100
24000 Off ch=1 n=72 v=100
24000 On ch=1 n=73 v=100
24000 TimeSig 3/4 24 8
24240 Off ch=1 n=73 v=100
24240 On ch=1 n=70 v=100
24480 Off ch=1 n=70 v=100
24480 On ch=1 n=65 v=100
24720 Off ch=1 n=65 v=100
24720 On ch=1 n=73 v=100
24960 Off ch=1 n=73 v=100
24960 On ch=1 n=70 v=100
25200 Off ch=1 n=70 v=100
25200 On ch=1 n=65 v=100
25440 Off ch=1 n=65 v=100
25440 On ch=1 n=73 v=100
25680 Off ch=1 n=73 v=100
25680 On ch=1 n=70 v=100
25920 Off ch=1 n=70 v=100
25920 On ch=1 n=65 v=100
26160 Off ch=1 n=65 v=100
26160 On ch=1 n=73 v=100
26400 Off ch=1 n=73 v=100
26400 On ch=1 n=70 v=100
26640 Off ch=1 n=70 v=100
26640 On ch=1 n=65 v=100
26880 Off ch=1 n=65 v=100
26880 TimeSig 2/4 24 8
26880 On ch=1 n=75 v=100
27520 Off ch=1 n=75 v=100
27520 On ch=1 n=75 v=100
28160 Off ch=1 n=75 v=100
28160 On ch=1 n=75 v=100
28800 Off ch=1 n=75 v=100
28800 On ch=1 n=73 v=100
28800 TimeSig 3/4 24 8
29040 Off ch=1 n=73 v=100
29040 On ch=1 n=70 v=100
29280 Off ch=1 n=70 v=100
29280 On ch=1 n=65 v=100
29520 Off ch=1 n=65 v=100
29520 On ch=1 n=73 v=100
29760 Off ch=1 n=73 v=100
29760 On ch=1 n=70 v=100
30000 Off ch=1 n=70 v=100
30000 On ch=1 n=65 v=100
30240 Off ch=1 n=65 v=100
30240 On ch=1 n=73 v=100
30480 Off ch=1 n=73 v=100
30480 On ch=1 n=70 v=100
30720 Off ch=1 n=70 v=100
30720 On ch=1 n=65 v=100
30960 Off ch=1 n=65 v=100
30960 On ch=1 n=73 v=100
31200 Off ch=1 n=73 v=100
31200 On ch=1 n=70 v=100
31440 Off ch=1 n=70 v=100
31440 On ch=1 n=65 v=100
31680 Off ch=1 n=65 v=100
31680 On ch=1 n=72 v=100
31680 TimeSig 2/4 24 8
32320 Off ch=1 n=72 v=100
32320 On ch=1 n=72 v=100
32960 Off ch=1 n=72 v=100
32960 On ch=1 n=72 v=100
33600 Off ch=1 n=72 v=100
33600 On ch=1 n=73 v=100
33600 TimeSig 3/4 24 8
33840 Off ch=1 n=73 v=100
33840 On ch=1 n=70 v=100
34080 Off ch=1 n=70 v=100
34080 On ch=1 n=65 v=100
34320 Off ch=1 n=65 v=100
34320 On ch=1 n=73 v=100
34560 Off ch=1 n=73 v=100
34560 On ch=1 n=70 v=100
34800 Off ch=1 n=70 v=100
34800 On ch=1 n=65 v=100
35040 Off ch=1 n=65 v=100
35040 On ch=1 n=73 v=100
35280 Off ch=1 n=73 v=100
35280 On ch=1 n=70 v=100
35520 Off ch=1 n=70 v=100
35520 On ch=1 n=65 v=100
35760 Off ch=1 n=65 v=100
35760 On ch=1 n=73 v=100
36000 Off ch=1 n=73 v=100
36000 On ch=1 n=70 v=100
36240 Off ch=1 n=70 v=100
36240 On ch=1 n=65 v=100
36480 Off ch=1 n=65 v=100
36480 TimeSig 2/4 24 8
36480 On ch=1 n=75 v=100
37120 Off ch=1 n=75 v=100
37120 On ch=1 n=75 v=100
37760 Off ch=1 n=75 v=100
37760 On ch=1 n=75 v=100
38400 Off ch=1 n=75 v=100
38400 TimeSig 4/4 24 8
38400 On ch=1 n=73 v=100
40320 Off ch=1 n=73 v=100
40320 On ch=1 n=72 v=100
42240 Off ch=1 n=72 v=100
42240 On ch=1 n=76 v=100
44160 Off ch=1 n=76 v=100
44160 On ch=1 n=75 v=100
46080 Off ch=1 n=75 v=100
46560 On ch=1 n=73 v=100
46560 On ch=1 n=77 v=100
47040 Off ch=1 n=73 v=100
47040 Off ch=1 n=77 v=100
47520 On ch=1 n=73 v=100
47520 On ch=1 n=77 v=100
48000 Off ch=1 n=73 v=100
48000 Off ch=1 n=77 v=100
48480 On ch=1 n=72 v=100
48480 On ch=1 n=76 v=100
48960 Off ch=1 n=72 v=100
48960 Off ch=1 n=76 v=100
49440 On ch=1 n=72 v=100
49440 On ch=1 n=76 v=100
49920 Off ch=1 n=72 v=100
49920 Off ch=1 n=76 v=100
50400 On ch=1 n=76 v=100
50400 On ch=1 n=79 v=100
50880 Off ch=1 n=76 v=100
50880 Off ch=1 n=79 v=100
51360 On ch=1 n=76 v=100
51360 On ch=1 n=79 v=100
51840 Off ch=1 n=76 v=100
51840 Off ch=1 n=79 v=100
52320 On ch=1 n=75 v=100
52320 On ch=1 n=78 v=100
52800 Off ch=1 n=75 v=100
52800 Off ch=1 n=78 v=100
53280 On ch=1 n=75 v=100
53280 On ch=1 n=78 v=100
53760 Off ch=1 n=75 v=100
53760 Off ch=1 n=78 v=100
54240 On ch=1 n=73 v=100
54240 On ch=1 n=77 v=100
54720 Off ch=1 n=73 v=100
54720 Off ch=1 n=77 v=100
55200 On ch=1 n=73 v=100
55200 On ch=1 n=77 v=100
55680 Off ch=1 n=73 v=100
55680 Off ch=1 n=77 v=100
56160 On ch=1 n=72 v=100
56160 On ch=1 n=76 v=100
56640 Off ch=1 n=72 v=100
56640 Off ch=1 n=76 v=100
57120 On ch=1 n=72 v=100
57120 On ch=1 n=76 v=100
57600 Off ch=1 n=72 v=100
57600 Off ch=1 n=76 v=100
58080 On ch=1 n=76 v=100
58080 On ch=1 n=79 v=100
58560 Off ch=1 n=76 v=100
58560 Off ch=1 n=79 v=100
59040 On ch=1 n=76 v=100
59040 On ch=1 n=79 v=100
59520 Off ch=1 n=76 v=100
59520 Off ch=1 n=79 v=100
60000 On ch=1 n=75 v=100
60000 On ch=1 n=78 v=100
60480 Off ch=1 n=75 v=100
60480 Off ch=1 n=78 v=100
60960 On ch=1 n=75 v=100
60960 On ch=1 n=78 v=100
61440 Off ch=1 n=75 v=100
61440 Off ch=1 n=78 v=100
61920 On ch=1 n=73 v=100
61920 On ch=1 n=77 v=100
62400 Off ch=1 n=73 v=100
62400 Off ch=1 n=77 v=100
62880 On ch=1 n=73 v=100
62880 On ch=1 n=77 v=100
63360 Off ch=1 n=73 v=100
63360 Off ch=1 n=77 v=100
63840 On ch=1 n=72 v=100
63840 On ch=1 n=76 v=100
64320 Off ch=1 n=72 v=100
64320 Off ch=1 n=76 v=100
64800 On ch=1 n=72 v=100
64800 On ch=1 n=76 v=100
65280 Off ch=1 n=72 v=100
65280 Off ch=1 n=76 v=100
65760 On ch=1 n=76 v=100
65760 On ch=1 n=79 v=100
66240 Off ch=1 n=76 v=100
66240 Off ch=1 n=79 v=100
66720 On ch=1 n=76 v=100
66720 On ch=1 n=79 v=100
67200 Off ch=1 n=76 v=100
67200 Off ch=1 n=79 v=100
67680 On ch=1 n=75 v=100
67680 On ch=1 n=78 v=100
68160 Off ch=1 n=75 v=100
68160 Off ch=1 n=78 v=100
68640 On ch=1 n=75 v=100
68640 On ch=1 n=78 v=100
69120 Off ch=1 n=75 v=100
69120 Off ch=1 n=78 v=100
69120 On ch=1 n=70 v=100
69600 Off ch=1 n=70 v=100
70080 On ch=1 n=77 v=100
70080 On ch=1 n=70 v=100
70560 Off ch=1 n=77 v=100
70560 Off ch=1 n=70 v=100
71040 On ch=1 n=72 v=100
71520 Off ch=1 n=72 v=100
72000 On ch=1 n=77 v=100
72000 On ch=1 n=72 v=100
72480 Off ch=1 n=77 v=100
72480 Off ch=1 n=72 v=100
72960 On ch=1 n=73 v=100
72960 On ch=1 n=70 v=100
73920 Off ch=1 n=73 v=100
73920 Off ch=1 n=70 v=100
73920 On ch=1 n=75 v=100
74400 Off ch=1 n=75 v=100
74400 On ch=1 n=77 v=100
74880 Off ch=1 n=77 v=100
74880 On ch=1 n=75 v=100
74880 On ch=1 n=72 v=100
75840 Off ch=1 n=75 v=100
75840 Off ch=1 n=72 v=100
75840 On ch=1 n=80 v=100
76800 Off ch=1 n=80 v=100
76800 On ch=1 n=82 v=100
77280 Off ch=1 n=82 v=100
77280 On ch=1 n=77 v=100
77760 Off ch=1 n=77 v=100
77760 On ch=1 n=84 v=100
78240 Off ch=1 n=84 v=100
78240 On ch=1 n=85 v=100
78720 Off ch=1 n=85 v=100
78720 On ch=1 n=84 v=100
79200 Off ch=1 n=84 v=100
79200 On ch=1 n=85 v=100
79440 Off ch=1 n=85 v=100
79440 On ch=1 n=84 v=100
79680 Off ch=1 n=84 v=100
79680 On ch=1 n=82 v=100
80160 Off ch=1 n=82 v=100
80160 On ch=1 n=80 v=100
80640 Off ch=1 n=80 v=100
80640 On ch=1 n=77 v=100
80640 On ch=1 n=73 v=100
81120 Off ch=1 n=77 v=100
81120 On ch=1 n=80 v=100
81600 Off ch=1 n=80 v=100
81600 Off ch=1 n=73 v=100
81600 On ch=1 n=75 v=100
81600 On ch=1 n=72 v=100
82080 Off ch=1 n=75 v=100
82080 On ch=1 n=77 v=100
82560 Off ch=1 n=77 v=100
82560 Off ch=1 n=72 v=100
82560 On ch=1 n=73 v=100
82560 On ch=1 n=70 v=100
84480 Off ch=1 n=73 v=100
84480 Off ch=1 n=70 v=100
84480 On ch=1 n=70 v=100
84960 Off ch=1 n=70 v=100
85440 On ch=1 n=77 v=100
85440 On ch=1 n=70 v=100
85920 Off ch=1 n=77 v=100
85920 Off ch=1 n=70 v=100
86400 On ch=1 n=72 v=100
86880 Off ch=1 n=72 v=100
87360 On ch=1 n=77 v=100
87360 On ch=1 n=72 v=100
87840 Off ch=1 n=77 v=100
87840 Off ch=1 n=72 v=100
88320 On ch=1 n=73 v=100
88320 On ch=1 n=70 v=100
89280 Off ch=1 n=73 v=100
89280 Off ch=1 n=70 v=100
89280 On ch=1 n=75 v=100
89760 Off ch=1 n=75 v=100
89760 On ch=1 n=77 v=100
90240 Off ch=1 n=77 v=100
90240 On ch=1 n=75 v=100
90240 On ch=1 n=72 v=100
91200 Off ch=1 n=75 v=100
91200 Off ch=1 n=72 v=100
91200 On ch=1 n=79 v=100
92160 Off ch=1 n=79 v=100
92160 On ch=1 n=82 v=100
92640 Off ch=1 n=82 v=100
92640 On ch=1 n=77 v=100
93120 Off ch=1 n=77 v=100
93120 On ch=1 n=84 v=100
93600 Off ch=1 n=84 v=100
93600 On ch=1 n=85 v=100
94080 Off ch=1 n=85 v=100
94080 On ch=1 n=84 v=100
94560 Off ch=1 n=84 v=100
94560 On ch=1 n=85 v=100
94800 Off ch=1 n=85 v=100
94800 On ch=1 n=84 v=100
95040 Off ch=1 n=84 v=100
95040 On ch=1 n=82 v=100
95040 On ch=1 n=77 v=100
95520 Off ch=1 n=82 v=100
95520 Off ch=1 n=77 v=100
95520 On ch=1 n=80 v=100
95520 On ch=1 n=75 v=100
96000 Off ch=1 n=80 v=100
96000 Off ch=1 n=75 v=100
96000 On ch=1 n=82 v=100
96000 On ch=1 n=77 v=100
99840 Off ch=1 n=82 v=100
99840 Off ch=1 n=77 v=100
99840 On ch=1 n=70 v=100
100320 Off ch=1 n=70 v=100
100800 On ch=1 n=77 v=100
100800 On ch=1 n=70 v=100
101280 Off ch=1 n=77 v=100
101280 Off ch=1 n=70 v=100
101760 On ch=1 n=72 v=100
102240 Off ch=1 n=72 v=100
102720 On ch=1 n=77 v=100
102720 On ch=1 n=72 v=100
103200 Off ch=1 n=77 v=100
103200 Off ch=1 n=72 v=100
103680 On ch=1 n=73 v=100
104640 Off ch=1 n=73 v=100
104640 On ch=1 n=75 v=100
105120 Off ch=1 n=75 v=100
105120 On ch=1 n=77 v=100
105600 Off ch=1 n=77 v=100
105600 On ch=1 n=75 v=100
105600 On ch=1 n=72 v=100
106560 Off ch=1 n=75 v=100
106560 Off ch=1 n=72 v=100
106560 On ch=1 n=80 v=100
107520 Off ch=1 n=80 v=100
107520 On ch=1 n=82 v=100
108000 Off ch=1 n=82 v=100
108000 On ch=1 n=77 v=100
108480 Off ch=1 n=77 v=100
108480 On ch=1 n=84 v=100
108960 Off ch=1 n=84 v=100
108960 On ch=1 n=85 v=100
109440 Off ch=1 n=85 v=100
109440 On ch=1 n=84 v=100
109920 Off ch=1 n=84 v=100
109920 On ch=1 n=85 v=100
110160 Off ch=1 n=85 v=100
110160 On ch=1 n=84 v=100
110400 Off ch=1 n=84 v=100
110400 On ch=1 n=82 v=100
110880 Off ch=1 n=82 v=100
110880 On ch=1 n=80 v=100
111360 Off ch=1 n=80 v=100
111360 On ch=1 n=77 v=100
111360 On ch=1 n=73 v=100
111840 Off ch=1 n=77 v=100
111840 On ch=1 n=80 v=100
112320 Off ch=1 n=80 v=100
112320 Off ch=1 n=73 v=100
112320 On ch=1 n=75 v=100
112320 On ch=1 n=72 v=100
112800 Off ch=1 n=75 v=100
112800 On ch=1 n=77 v=100
113280 Off ch=1 n=77 v=100
113280 Off ch=1 n=72 v=100
113280 On ch=1 n=73 v=100
113280 On ch=1 n=70 v=100
115200 Off ch=1 n=73 v=100
115200 Off ch=1 n=70 v=100
115200 On ch=1 n=70 v=100
115680 Off ch=1 n=70 v=100
116160 On ch=1 n=77 v=100
116160 On ch=1 n=70 v=100
116640 Off ch=1 n=77 v=100
116640 Off ch=1 n=70 v=100
117120 On ch=1 n=72 v=100
117600 Off ch=1 n=72 v=100
118080 On ch=1 n=77 v=100
118080 On ch=1 n=72 v=100
118560 Off ch=1 n=77 v=100
118560 Off ch=1 n=72 v=100
119040 On ch=1 n=73 v=100
119040 On ch=1 n=70 v=100
120000 Off ch=1 n=73 v=100
120000 Off ch=1 n=70 v=100
120000 On ch=1 n=75 v=100
120480 Off ch=1 n=75 v=100
120480 On ch=1 n=77 v=100
120960 Off ch=1 n=77 v=100
120960 On ch=1 n=75 v=100
120960 On ch=1 n=72 v=100
121920 Off ch=1 n=75 v=100
121920 Off ch=1 n=72 v=100
121920 On ch=1 n=79 v=100
122880 Off ch=1 n=79 v=100
122880 On ch=1 n=82 v=100
123360 Off ch=1 n=82 v=100
123360 On ch=1 n=77 v=100
123840 Off ch=1 n=77 v=100
123840 On ch=1 n=84 v=100
124320 Off ch=1 n=84 v=100
124320 On ch=1 n=85 v=100
124800 Off ch=1 n=85 v=100
124800 On ch=1 n=84 v=100
125280 Off ch=1 n=84 v=100
125280 On ch=1 n=85 v=100
125520 Off ch=1 n=85 v=100
125520 On ch=1 n=84 v=100
125760 Off ch=1 n=84 v=100
125760 On ch=1 n=82 v=100
125760 On ch=1 n=77 v=100
126240 Off ch=1 n=82 v=100
126240 Off ch=1 n=77 v=100
126240 On ch=1 n=80 v=100
126240 On ch=1 n=75 v=100
126720 Off ch=1 n=80 v=100
126720 Off ch=1 n=75 v=100
126720 On ch=1 n=82 v=100
126720 On ch=1 n=77 v=100
130560 Off ch=1 n=82 v=100
130560 Off ch=1 n=77 v=100
130560 KeySig 255 major
130560 On ch=1 n=82 v=100
130880 Off ch=1 n=82 v=100
130880 On ch=1 n=77 v=100
131200 Off ch=1 n=77 v=100
131200 On ch=1 n=73 v=100
131520 Off ch=1 n=73 v=100
131520 On ch=1 n=82 v=100
131840 Off ch=1 n=82 v=100
131840 On ch=1 n=77 v=100
132160 Off ch=1 n=77 v=100
132160 On ch=1 n=73 v=100
132480 Off ch=1 n=73 v=100
132480 On ch=1 n=82 v=100
132800 Off ch=1 n=82 v=100
132800 On ch=1 n=77 v=100
133120 Off ch=1 n=77 v=100
133120 On ch=1 n=73 v=100
133440 Off ch=1 n=73 v=100
133440 On ch=1 n=82 v=100
133760 Off ch=1 n=82 v=100
133760 On ch=1 n=77 v=100
134080 Off ch=1 n=77 v=100
134080 On ch=1 n=73 v=100
134400 Off ch=1 n=73 v=100
134400 On ch=1 n=82 v=100
134720 Off ch=1 n=82 v=100
134720 On ch=1 n=77 v=100
135040 Off ch=1 n=77 v=100
135040 On ch=1 n=73 v=100
135360 Off ch=1 n=73 v=100
135360 On ch=1 n=82 v=100
135680 Off ch=1 n=82 v=100
135680 On ch=1 n=77 v=100
136000 Off ch=1 n=77 v=100
136000 On ch=1 n=73 v=100
136320 Off ch=1 n=73 v=100
136320 On ch=1 n=82 v=100
136640 Off ch=1 n=82 v=100
136640 On ch=1 n=77 v=100
136960 Off ch=1 n=77 v=100
136960 On ch=1 n=73 v=100
137280 Off ch=1 n=73 v=100
137280 On ch=1 n=82 v=100
137600 Off ch=1 n=82 v=100
137600 On ch=1 n=77 v=100
137920 Off ch=1 n=77 v=100
137920 On ch=1 n=73 v=100
138240 Off ch=1 n=73 v=100
138240 On ch=1 n=81 v=100
138560 Off ch=1 n=81 v=100
138560 On ch=1 n=77 v=100
138880 Off ch=1 n=77 v=100
138880 On ch=1 n=74 v=100
139200 Off ch=1 n=74 v=100
139200 On ch=1 n=81 v=100
139520 Off ch=1 n=81 v=100
139520 On ch=1 n=77 v=100
139840 Off ch=1 n=77 v=100
139840 On ch=1 n=74 v=100
140160 Off ch=1 n=74 v=100
140160 On ch=1 n=81 v=100
140480 Off ch=1 n=81 v=100
140480 On ch=1 n=77 v=100
140800 Off ch=1 n=77 v=100
140800 On ch=1 n=74 v=100
141120 Off ch=1 n=74 v=100
141120 On ch=1 n=81 v=100
141440 Off ch=1 n=81 v=100
141440 On ch=1 n=77 v=100
141760 Off ch=1 n=77 v=100
141760 On ch=1 n=74 v=100
142080 Off ch=1 n=74 v=100
142080 On ch=1 n=81 v=100
142400 Off ch=1 n=81 v=100
142400 On ch=1 n=77 v=100
142720 Off ch=1 n=77 v=100
142720 On ch=1 n=74 v=100
143040 Off ch=1 n=74 v=100
143040 On ch=1 n=81 v=100
143360 Off ch=1 n=81 v=100
143360 On ch=1 n=77 v=100
143680 Off ch=1 n=77 v=100
143680 On ch=1 n=74 v=100
144000 Off ch=1 n=74 v=100
144000 On ch=1 n=81 v=100
144320 Off ch=1 n=81 v=100
144320 On ch=1 n=77 v=100
144640 Off ch=1 n=77 v=100
144640 On ch=1 n=74 v=100
144960 Off ch=1 n=74 v=100
144960 On ch=1 n=81 v=100
145280 Off ch=1 n=81 v=100
145280 On ch=1 n=77 v=100
145600 Off ch=1 n=77 v=100
145600 On ch=1 n=74 v=100
145920 Off ch=1 n=74 v=100
145920 On ch=1 n=81 v=100
146240 Off ch=1 n=81 v=100
146240 On ch=1 n=77 v=100
146560 Off ch=1 n=77 v=100
146560 On ch=1 n=74 v=100
146880 Off ch=1 n=74 v=100
146880 On ch=1 n=81 v=100
147200 Off ch=1 n=81 v=100
147200 On ch=1 n=77 v=100
147520 Off ch=1 n=77 v=100
147520 On ch=1 n=74 v=100
147840 Off ch=1 n=74 v=100
147840 On ch=1 n=79 v=100
148160 Off ch=1 n=79 v=100
148160 On ch=1 n=76 v=100
148480 Off ch=1 n=76 v=100
148480 On ch=1 n=72 v=100
148800 Off ch=1 n=72 v=100
148800 On ch=1 n=79 v=100
149120 Off ch=1 n=79 v=100
149120 On ch=1 n=76 v=100
149440 Off ch=1 n=76 v=100
149440 On ch=1 n=72 v=100
149760 Off ch=1 n=72 v=100
149760 On ch=1 n=77 v=100
149760 On ch=1 n=74 v=100
150720 Off ch=1 n=77 v=100
150720 Off ch=1 n=74 v=100
150720 On ch=1 n=76 v=100
151040 Off ch=1 n=76 v=100
151040 On ch=1 n=77 v=100
151360 Off ch=1 n=77 v=100
151360 On ch=1 n=79 v=100
151680 Off ch=1 n=79 v=100
151680 On ch=1 n=74 v=100
151680 On ch=1 n=69 v=100
153120 Off ch=1 n=74 v=100
153120 Off ch=1 n=69 v=100
153120 On ch=1 n=69 v=100
153360 Off ch=1 n=69 v=100
153360 On ch=1 n=72 v=100
153600 Off ch=1 n=72 v=100
153600 On ch=1 n=74 v=100
154080 Off ch=1 n=74 v=100
154080 On ch=1 n=69 v=100
154560 Off ch=1 n=69 v=100
154560 On ch=1 n=74 v=100
155040 Off ch=1 n=74 v=100
155040 On ch=1 n=69 v=100
155520 Off ch=1 n=69 v=100
155520 On ch=1 n=76 v=100
156000 Off ch=1 n=76 v=100
156000 On ch=1 n=72 v=100
156480 Off ch=1 n=72 v=100
156480 On ch=1 n=76 v=100
156960 Off ch=1 n=76 v=100
156960 On ch=1 n=72 v=100
157440 Off ch=1 n=72 v=100
157440 On ch=1 n=77 v=100
157440 On ch=1 n=74 v=100
158400 Off ch=1 n=77 v=100
158400 Off ch=1 n=74 v=100
158400 On ch=1 n=76 v=100
158720 Off ch=1 n=76 v=100
158720 On ch=1 n=77 v=100
159040 Off ch=1 n=77 v=100
159040 On ch=1 n=79 v=100
159360 Off ch=1 n=79 v=100
159360 On ch=1 n=81 v=100
159360 On ch=1 n=77 v=100
160800 Off ch=1 n=81 v=100
160800 Off ch=1 n=77 v=100
160800 On ch=1 n=77 v=100
161040 Off ch=1 n=77 v=100
161040 On ch=1 n=79 v=100
161280 Off ch=1 n=79 v=100
161280 On ch=1 n=81 v=100
161600 Off ch=1 n=81 v=100
161600 On ch=1 n=77 v=100
161920 Off ch=1 n=77 v=100
161920 On ch=1 n=74 v=100
162240 Off ch=1 n=74 v=100
162240 On ch=1 n=81 v=100
162560 Off ch=1 n=81 v=100
162560 On ch=1 n=77 v=100
162880 Off ch=1 n=77 v=100
162880 On ch=1 n=74 v=100
163200 Off ch=1 n=74 v=100
163200 On ch=1 n=79 v=100
163520 Off ch=1 n=79 v=100
163520 On ch=1 n=76 v=100
163840 Off ch=1 n=76 v=100
163840 On ch=1 n=72 v=100
164160 Off ch=1 n=72 v=100
164160 On ch=1 n=79 v=100
164480 Off ch=1 n=79 v=100
164480 On ch=1 n=76 v=100
164800 Off ch=1 n=76 v=100
164800 On ch=1 n=72 v=100
165120 Off ch=1 n=72 v=100
165120 On ch=1 n=77 v=100
165120 On ch=1 n=74 v=100
166080 Off ch=1 n=77 v=100
166080 Off ch=1 n=74 v=100
166080 On ch=1 n=76 v=100
166400 Off ch=1 n=76 v=100
166400 On ch=1 n=77 v=100
166720 Off ch=1 n=77 v=100
166720 On ch=1 n=79 v=100
167040 Off ch=1 n=79 v=100
167040 On ch=1 n=74 v=100
167040 On ch=1 n=69 v=100
168480 Off ch=1 n=74 v=100
168480 Off ch=1 n=69 v=100
168480 On ch=1 n=69 v=100
168720 Off ch=1 n=69 v=100
168720 On ch=1 n=72 v=100
168960 Off ch=1 n=72 v=100
168960 On ch=1 n=74 v=100
169440 Off ch=1 n=74 v=100
169440 On ch=1 n=69 v=100
169920 Off ch=1 n=69 v=100
169920 On ch=1 n=74 v=100
170400 Off ch=1 n=74 v=100
170400 On ch=1 n=69 v=100
170880 Off ch=1 n=69 v=100
170880 On ch=1 n=76 v=100
171360 Off ch=1 n=76 v=100
171360 On ch=1 n=72 v=100
171840 Off ch=1 n=72 v=100
171840 On ch=1 n=76 v=100
172320 Off ch=1 n=76 v=100
172320 On ch=1 n=72 v=100
172800 Off ch=1 n=72 v=100
172800 On ch=1 n=77 v=100
173280 Off ch=1 n=77 v=100
173280 On ch=1 n=73 v=100
173760 Off ch=1 n=73 v=100
173760 On ch=1 n=77 v=100
174240 Off ch=1 n=77 v=100
174240 On ch=1 n=73 v=100
174720 Off ch=1 n=73 v=100
174720 On ch=1 n=81 v=100
174720 On ch=1 n=77 v=100
175360 Off ch=1 n=81 v=100
175360 Off ch=1 n=77 v=100
175360 On ch=1 n=81 v=100
175360 On ch=1 n=77 v=100
176000 Off ch=1 n=81 v=100
176000 Off ch=1 n=77 v=100
176000 On ch=1 n=81 v=100
176000 On ch=1 n=77 v=100
176640 Off ch=1 n=81 v=100
176640 Off ch=1 n=77 v=100
176640 On ch=1 n=73 v=100
176640 KeySig 251 major
178560 Off ch=1 n=73 v=100
178560 On ch=1 n=72 v=100
180480 Off ch=1 n=72 v=100
180480 On ch=1 n=76 v=100
182400 Off ch=1 n=76 v=100
182400 On ch=1 n=75 v=100
184320 Off ch=1 n=75 v=100
184800 On ch=1 n=73 v=100
184800 On ch=1 n=77 v=100
185280 Off ch=1 n=73 v=100
185280 Off ch=1 n=77 v=100
185760 On ch=1 n=73 v=100
185760 On ch=1 n=77 v=100
186240 Off ch=1 n=73 v=100
186240 Off ch=1 n=77 v=100
186720 On ch=1 n=72 v=100
186720 On ch=1 n=76 v=100
187200 Off ch=1 n=72 v=100
187200 Off ch=1 n=76 v=100
187680 On ch=1 n=72 v=100
187680 On ch=1 n=76 v=100
188160 Off ch=1 n=72 v=100
188160 Off ch=1 n=76 v=100
188640 On ch=1 n=76 v=100
188640 On ch=1 n=79 v=100
189120 Off ch=1 n=76 v=100
189120 Off ch=1 n=79 v=100
189600 On ch=1 n=76 v=100
189600 On ch=1 n=79 v=100
190080 Off ch=1 n=76 v=100
190080 Off ch=1 n=79 v=100
190560 On ch=1 n=75 v=100
190560 On ch=1 n=78 v=100
191040 Off ch=1 n=75 v=100
191040 Off ch=1 n=78 v=100
191520 On ch=1 n=75 v=100
191520 On ch=1 n=78 v=100
192000 Off ch=1 n=75 v=100
192000 Off ch=1 n=78 v=100
192480 On ch=1 n=73 v=100
192480 On ch=1 n=77 v=100
192960 Off ch=1 n=73 v=100
192960 Off ch=1 n=77 v=100
193440 On ch=1 n=73 v=100
193440 On ch=1 n=77 v=100
193920 Off ch=1 n=73 v=100
193920 Off ch=1 n=77 v=100
194400 On ch=1 n=72 v=100
194400 On ch=1 n=76 v=100
194880 Off ch=1 n=72 v=100
194880 Off ch=1 n=76 v=100
195360 On ch=1 n=72 v=100
195360 On ch=1 n=76 v=100
195840 Off ch=1 n=72 v=100
195840 Off ch=1 n=76 v=100
196320 On ch=1 n=76 v=100
196320 On ch=1 n=79 v=100
196800 Off ch=1 n=76 v=100
196800 Off ch=1 n=79 v=100
197280 On ch=1 n=76 v=100
197280 On ch=1 n=79 v=100
197760 Off ch=1 n=76 v=100
197760 Off ch=1 n=79 v=100
198240 On ch=1 n=75 v=100
198240 On ch=1 n=78 v=100
198720 Off ch=1 n=75 v=100
198720 Off ch=1 n=78 v=100
199200 On ch=1 n=78 v=100
199200 On ch=1 n=75 v=100
199680 Off ch=1 n=78 v=100
199680 Off ch=1 n=75 v=100
200160 On ch=1 n=73 v=100
200160 On ch=1 n=77 v=100
200640 Off ch=1 n=73 v=100
200640 Off ch=1 n=77 v=100
201120 On ch=1 n=73 v=100
201120 On ch=1 n=77 v=100
201600 Off ch=1 n=73 v=100
201600 Off ch=1 n=77 v=100
202080 On ch=1 n=72 v=100
202080 On ch=1 n=76 v=100
202560 Off ch=1 n=72 v=100
202560 Off ch=1 n=76 v=100
203040 On ch=1 n=72 v=100
203040 On ch=1 n=76 v=100
203520 Off ch=1 n=72 v=100
203520 Off ch=1 n=76 v=100
204000 On ch=1 n=76 v=100
204000 On ch=1 n=79 v=100
204480 Off ch=1 n=76 v=100
204480 Off ch=1 n=79 v=100
204960 On ch=1 n=76 v=100
204960 On ch=1 n=79 v=100
205440 Off ch=1 n=76 v=100
205440 Off ch=1 n=79 v=100
205920 On ch=1 n=75 v=100
205920 On ch=1 n=78 v=100
206400 Off ch=1 n=75 v=100
206400 Off ch=1 n=78 v=100
206880 On ch=1 n=75 v=100
206880 On ch=1 n=78 v=100
207360 Off ch=1 n=75 v=100
207360 Off ch=1 n=78 v=100
207360 On ch=1 n=77 v=100
208320 Off ch=1 n=77 v=100
208320 On ch=1 n=73 v=100
209280 Off ch=1 n=73 v=100
209280 On ch=1 n=76 v=100
210240 Off ch=1 n=76 v=100
210240 On ch=1 n=72 v=100
211200 Off ch=1 n=72 v=100
211200 On ch=1 n=79 v=100
212160 Off ch=1 n=79 v=100
212160 On ch=1 n=76 v=100
213120 Off ch=1 n=76 v=100
213120 On ch=1 n=75 v=100
214080 Off ch=1 n=75 v=100
214080 On ch=1 n=78 v=100
215040 Off ch=1 n=78 v=100
215040 On ch=1 n=77 v=100
216000 Off ch=1 n=77 v=100
216000 On ch=1 n=73 v=100
216960 Off ch=1 n=73 v=100
216960 On ch=1 n=76 v=100
217920 Off ch=1 n=76 v=100
217920 On ch=1 n=72 v=100
218880 Off ch=1 n=72 v=100
218880 On ch=1 n=79 v=100
219840 Off ch=1 n=79 v=100
219840 On ch=1 n=76 v=100
220800 Off ch=1 n=76 v=100
220800 On ch=1 n=75 v=100
222720 Off ch=1 n=75 v=100
222720 On ch=1 n=77 v=100
223680 Off ch=1 n=77 v=100
223680 On ch=1 n=73 v=100
224640 Off ch=1 n=73 v=100
224640 On ch=1 n=76 v=100
225600 Off ch=1 n=76 v=100
225600 On ch=1 n=72 v=100
226560 Off ch=1 n=72 v=100
226560 On ch=1 n=79 v=100
227520 Off ch=1 n=79 v=100
227520 On ch=1 n=76 v=100
228480 Off ch=1 n=76 v=100
228480 On ch=1 n=75 v=100
229440 Off ch=1 n=75 v=100
229440 On ch=1 n=78 v=100
230400 Off ch=1 n=78 v=100
230400 On ch=1 n=77 v=100
231360 Off ch=1 n=77 v=100
231360 On ch=1 n=73 v=100
232320 Off ch=1 n=73 v=100
232320 On ch=1 n=76 v=100
233280 Off ch=1 n=76 v=100
233280 On ch=1 n=72 v=100
234240 Off ch=1 n=72 v=100
234240 On ch=1 n=79 v=100
235200 Off ch=1 n=79 v=100
235200 On ch=1 n=76 v=100
236160 Off ch=1 n=76 v=100
236160 On ch=1 n=75 v=100
236160 On ch=1 n=71 v=100
238080 Off ch=1 n=75 v=100
238080 Off ch=1 n=71 v=100
238080 TimeSig 2/4 24 8
240000 On ch=1 n=70 v=100
240000 TimeSig 4/4 24 8
240480 Off ch=1 n=70 v=100
240960 On ch=1 n=77 v=100
240960 On ch=1 n=70 v=100
241440 Off ch=1 n=77 v=100
241440 Off ch=1 n=70 v=100
241920 On ch=1 n=72 v=100
242400 Off ch=1 n=72 v=100
242880 On ch=1 n=77 v=100
242880 On ch=1 n=72 v=100
243360 Off ch=1 n=77 v=100
243360 Off ch=1 n=72 v=100
243840 On ch=1 n=73 v=100
243840 On ch=1 n=70 v=100
244800 Off ch=1 n=73 v=100
244800 Off ch=1 n=70 v=100
244800 On ch=1 n=75 v=100
245280 Off ch=1 n=75 v=100
245280 On ch=1 n=77 v=100
245760 Off ch=1 n=77 v=100
245760 On ch=1 n=75 v=100
245760 On ch=1 n=72 v=100
246720 Off ch=1 n=75 v=100
246720 Off ch=1 n=72 v=100
246720 On ch=1 n=80 v=100
247680 Off ch=1 n=80 v=100
247680 On ch=1 n=82 v=100
248160 Off ch=1 n=82 v=100
248160 On ch=1 n=77 v=100
248640 Off ch=1 n=77 v=100
248640 On ch=1 n=84 v=100
249120 Off ch=1 n=84 v=100
249120 On ch=1 n=85 v=100
249600 Off ch=1 n=85 v=100
249600 On ch=1 n=84 v=100
250080 Off ch=1 n=84 v=100
250080 On ch=1 n=85 v=100
250320 Off ch=1 n=85 v=100
250320 On ch=1 n=84 v=100
250560 Off ch=1 n=84 v=100
250560 On ch=1 n=82 v=100
251040 Off ch=1 n=82 v=100
251040 On ch=1 n=80 v=100
251520 Off ch=1 n=80 v=100
251520 On ch=1 n=77 v=100
251520 On ch=1 n=73 v=100
252000 Off ch=1 n=77 v=100
252000 On ch=1 n=80 v=100
252480 Off ch=1 n=80 v=100
252480 Off ch=1 n=73 v=100
252480 On ch=1 n=75 v=100
252480 On ch=1 n=72 v=100
252960 Off ch=1 n=75 v=100
252960 On ch=1 n=77 v=100
253440 Off ch=1 n=77 v=100
253440 Off ch=1 n=72 v=100
253440 On ch=1 n=73 v=100
253440 On ch=1 n=70 v=100
255360 Off ch=1 n=73 v=100
255360 Off ch=1 n=70 v=100
255360 On ch=1 n=70 v=100
255840 Off ch=1 n=70 v=100
256320 On ch=1 n=77 v=100
256320 On ch=1 n=70 v=100
256800 Off ch=1 n=77 v=100
256800 Off ch=1 n=70 v=100
257280 On ch=1 n=72 v=100
257760 Off ch=1 n=72 v=100
258240 On ch=1 n=77 v=100
258240 On ch=1 n=72 v=100
258720 Off ch=1 n=77 v=100
258720 Off ch=1 n=72 v=100
259200 On ch=1 n=73 v=100
259200 On ch=1 n=70 v=100
260160 Off ch=1 n=73 v=100
260160 Off ch=1 n=70 v=100
260160 On ch=1 n=75 v=100
260640 Off ch=1 n=75 v=100
260640 On ch=1 n=77 v=100
261120 Off ch=1 n=77 v=100
261120 On ch=1 n=75 v=100
261120 On ch=1 n=72 v=100
262080 Off ch=1 n=75 v=100
262080 Off ch=1 n=72 v=100
262080 On ch=1 n=79 v=100
263040 Off ch=1 n=79 v=100
263040 On ch=1 n=82 v=100
263520 Off ch=1 n=82 v=100
263520 On ch=1 n=77 v=100
264000 Off ch=1 n=77 v=100
264000 On ch=1 n=84 v=100
264480 Off ch=1 n=84 v=100
264480 On ch=1 n=85 v=100
264960 Off ch=1 n=85 v=100
264960 On ch=1 n=84 v=100
265440 Off ch=1 n=84 v=100
265440 On ch=1 n=85 v=100
265680 Off ch=1 n=85 v=100
265680 On ch=1 n=84 v=100
265920 Off ch=1 n=84 v=100
265920 On ch=1 n=82 v=100
265920 On ch=1 n=77 v=100
266400 Off ch=1 n=82 v=100
266400 Off ch=1 n=77 v=100
266400 On ch=1 n=80 v=100
266400 On ch=1 n=75 v=100
266880 Off ch=1 n=80 v=100
266880 Off ch=1 n=75 v=100
266880 On ch=1 n=82 v=100
266880 On ch=1 n=77 v=100
270720 Off ch=1 n=82 v=100
270720 Off ch=1 n=77 v=100
270720 On ch=1 n=70 v=100
271200 Off ch=1 n=70 v=100
271680 On ch=1 n=77 v=100
271680 On ch=1 n=70 v=100
272160 Off ch=1 n=77 v=100
272160 Off ch=1 n=70 v=100
272640 On ch=1 n=72 v=100
273120 Off ch=1 n=72 v=100
273600 On ch=1 n=77 v=100
273600 On ch=1 n=72 v=100
274080 Off ch=1 n=77 v=100
274080 Off ch=1 n=72 v=100
274560 On ch=1 n=73 v=100
275520 Off ch=1 n=73 v=100
275520 On ch=1 n=75 v=100
276000 Off ch=1 n=75 v=100
276000 On ch=1 n=77 v=100
276480 Off ch=1 n=77 v=100
276480 On ch=1 n=75 v=100
276480 On ch=1 n=72 v=100
277440 Off ch=1 n=75 v=100
277440 Off ch=1 n=72 v=100
277440 On ch=1 n=80 v=100
278400 Off ch=1 n=80 v=100
278400 On ch=1 n=82 v=100
278880 Off ch=1 n=82 v=100
278880 On ch=1 n=77 v=100
279360 Off ch=1 n=77 v=100
279360 On ch=1 n=84 v=100
279840 Off ch=1 n=84 v=100
279840 On ch=1 n=85 v=100
280320 Off ch=1 n=85 v=100
280320 On ch=1 n=84 v=100
280800 Off ch=1 n=84 v=100
280800 On ch=1 n=85 v=100
281040 Off ch=1 n=85 v=100
281040 On ch=1 n=84 v=100
281280 Off ch=1 n=84 v=100
281280 On ch=1 n=82 v=100
281760 Off ch=1 n=82 v=100
281760 On ch=1 n=80 v=100
282240 Off ch=1 n=80 v=100
282240 On ch=1 n=77 v=100
282240 On ch=1 n=73 v=100
282720 Off ch=1 n=77 v=100
282720 On ch=1 n=80 v=100
283200 Off ch=1 n=80 v=100
283200 Off ch=1 n=73 v=100
283200 On ch=1 n=75 v=100
283200 On ch=1 n=72 v=100
283680 Off ch=1 n=75 v=100
283680 On ch=1 n=77 v=100
284160 Off ch=1 n=77 v=100
284160 Off ch=1 n=72 v=100
284160 On ch=1 n=73 v=100
284160 On ch=1 n=70 v=100
286080 Off ch=1 n=73 v=100
286080 Off ch=1 n=70 v=100
286080 On ch=1 n=70 v=100
286560 Off ch=1 n=70 v=100
287040 On ch=1 n=77 v=100
287040 On ch=1 n=70 v=100
287520 Off ch=1 n=77 v=100
287520 Off ch=1 n=70 v=100
288000 On ch=1 n=72 v=100
288480 Off ch=1 n=72 v=100
288960 On ch=1 n=77 v=100
288960 On ch=1 n=72 v=100
289440 Off ch=1 n=77 v=100
289440 Off ch=1 n=72 v=100
289920 On ch=1 n=73 v=100
289920 On ch=1 n=70 v=100
290880 Off ch=1 n=73 v=100
290880 Off ch=1 n=70 v=100
290880 On ch=1 n=75 v=100
291360 Off ch=1 n=75 v=100
291360 On ch=1 n=77 v=100
291840 Off ch=1 n=77 v=100
291840 On ch=1 n=75 v=100
291840 On ch=1 n=72 v=100
292800 Off ch=1 n=75 v=100
292800 Off ch=1 n=72 v=100
292800 On ch=1 n=79 v=100
293760 Off ch=1 n=79 v=100
293760 On ch=1 n=82 v=100
294240 Off ch=1 n=82 v=100
294240 On ch=1 n=77 v=100
294720 Off ch=1 n=77 v=100
294720 On ch=1 n=84 v=100
295200 Off ch=1 n=84 v=100
295200 On ch=1 n=85 v=100
295680 Off ch=1 n=85 v=100
295680 On ch=1 n=84 v=100
296160 Off ch=1 n=84 v=100
296160 On ch=1 n=85 v=100
296400 Off ch=1 n=85 v=100
296400 On ch=1 n=84 v=100
296640 Off ch=1 n=84 v=100
296640 On ch=1 n=82 v=100
296640 On ch=1 n=77 v=100
297120 Off ch=1 n=82 v=100
297120 Off ch=1 n=77 v=100
297120 On ch=1 n=80 v=100
297120 On ch=1 n=75 v=100
297600 Off ch=1 n=80 v=100
297600 Off ch=1 n=75 v=100
297600 On ch=1 n=82 v=100
297600 On ch=1 n=77 v=100
305280 Off ch=1 n=82 v=100
305280 Off ch=1 n=77 v=100
332160 Meta TrkEnd
TrkEnd
MTrk
0 On ch=2 n=46 v=100
1440 Off ch=2 n=46 v=100
1440 On ch=2 n=53 v=100
2400 Off ch=2 n=53 v=100
2400 On ch=2 n=58 v=100
2880 Off ch=2 n=58 v=100
2880 On ch=2 n=48 v=100
4800 Off ch=2 n=48 v=100
4800 On ch=2 n=46 v=100
6240 Off ch=2 n=46 v=100
6240 On ch=2 n=53 v=100
7200 Off ch=2 n=53 v=100
7200 On ch=2 n=58 v=100
7680 Off ch=2 n=58 v=100
7680 On ch=2 n=51 v=100
9600 Off ch=2 n=51 v=100
9600 On ch=2 n=46 v=100
11040 Off ch=2 n=46 v=100
11040 On ch=2 n=53 v=100
12000 Off ch=2 n=53 v=100
12000 On ch=2 n=58 v=100
12480 Off ch=2 n=58 v=100
12480 On ch=2 n=48 v=100
14400 Off ch=2 n=48 v=100
14400 On ch=2 n=46 v=100
15840 Off ch=2 n=46 v=100
15840 On ch=2 n=53 v=100
16800 Off ch=2 n=53 v=100
16800 On ch=2 n=58 v=100
17280 Off ch=2 n=58 v=100
17280 On ch=2 n=51 v=100
19200 Off ch=2 n=51 v=100
19200 On ch=2 n=42 v=100
20640 Off ch=2 n=42 v=100
20640 On ch=2 n=49 v=100
21600 Off ch=2 n=49 v=100
21600 On ch=2 n=54 v=100
22080 Off ch=2 n=54 v=100
22080 On ch=2 n=51 v=100
24000 Off ch=2 n=51 v=100
24000 On ch=2 n=42 v=100
25440 Off ch=2 n=42 v=100
25440 On ch=2 n=49 v=100
26400 Off ch=2 n=49 v=100
26400 On ch=2 n=54 v=100
26880 Off ch=2 n=54 v=100
26880 On ch=2 n=57 v=100
28800 Off ch=2 n=57 v=100
28800 On ch=2 n=46 v=100
30240 Off ch=2 n=46 v=100
30240 On ch=2 n=53 v=100
31200 Off ch=2 n=53 v=100
31200 On ch=2 n=58 v=100
31680 Off ch=2 n=58 v=100
31680 On ch=2 n=48 v=100
33600 Off ch=2 n=48 v=100
33600 On ch=2 n=46 v=100
35040 Off ch=2 n=46 v=100
35040 On ch=2 n=53 v=100
36000 Off ch=2 n=53 v=100
36000 On ch=2 n=58 v=100
36480 Off ch=2 n=58 v=100
36480 On ch=2 n=51 v=100
38400 Off ch=2 n=51 v=100
38400 On ch=2 n=53 v=100
39360 Off ch=2 n=53 v=100
39360 On ch=2 n=49 v=100
40320 Off ch=2 n=49 v=100
40320 On ch=2 n=52 v=100
41280 Off ch=2 n=52 v=100
41280 On ch=2 n=48 v=100
42240 Off ch=2 n=48 v=100
42240 On ch=2 n=55 v=100
43200 Off ch=2 n=55 v=100
43200 On ch=2 n=52 v=100
44160 Off ch=2 n=52 v=100
44160 On ch=2 n=51 v=100
45120 Off ch=2 n=51 v=100
45120 On ch=2 n=54 v=100
46080 Off ch=2 n=54 v=100
46080 On ch=2 n=53 v=100
47040 Off ch=2 n=53 v=100
47040 On ch=2 n=49 v=100
48000 Off ch=2 n=49 v=100
48000 On ch=2 n=52 v=100
48960 Off ch=2 n=52 v=100
48960 On ch=2 n=48 v=100
49920 Off ch=2 n=48 v=100
49920 On ch=2 n=55 v=100
50880 Off ch=2 n=55 v=100
50880 On ch=2 n=52 v=100
51840 Off ch=2 n=52 v=100
51840 On ch=2 n=51 v=100
53760 Off ch=2 n=51 v=100
53760 On ch=2 n=53 v=100
54720 Off ch=2 n=53 v=100
54720 On ch=2 n=49 v=100
55680 Off ch=2 n=49 v=100
55680 On ch=2 n=52 v=100
56640 Off ch=2 n=52 v=100
56640 On ch=2 n=48 v=100
57600 Off ch=2 n=48 v=100
57600 On ch=2 n=55 v=100
58560 Off ch=2 n=55 v=100
58560 On ch=2 n=52 v=100
59520 Off ch=2 n=52 v=100
59520 On ch=2 n=51 v=100
60480 Off ch=2 n=51 v=100
60480 On ch=2 n=54 v=100
61440 Off ch=2 n=54 v=100
61440 On ch=2 n=53 v=100
62400 Off ch=2 n=53 v=100
62400 On ch=2 n=49 v=100
63360 Off ch=2 n=49 v=100
63360 On ch=2 n=52 v=100
64320 Off ch=2 n=52 v=100
64320 On ch=2 n=48 v=100
65280 Off ch=2 n=48 v=100
65280 On ch=2 n=55 v=100
66240 Off ch=2 n=55 v=100
66240 On ch=2 n=52 v=100
67200 Off ch=2 n=52 v=100
67200 On ch=2 n=51 v=100
69120 Off ch=2 n=51 v=100
69120 On ch=2 n=42 v=100
69120 On ch=2 n=46 v=100
71040 Off ch=2 n=42 v=100
71040 Off ch=2 n=46 v=100
71040 On ch=2 n=44 v=100
71040 On ch=2 n=48 v=100
72960 Off ch=2 n=44 v=100
72960 Off ch=2 n=48 v=100
72960 On ch=2 n=46 v=100
72960 On ch=2 n=49 v=100
74880 Off ch=2 n=46 v=100
74880 Off ch=2 n=49 v=100
74880 On ch=2 n=44 v=100
74880 On ch=2 n=51 v=100
76800 Off ch=2 n=44 v=100
76800 Off ch=2 n=51 v=100
76800 On ch=2 n=42 v=100
76800 On ch=2 n=46 v=100
78720 Off ch=2 n=42 v=100
78720 Off ch=2 n=46 v=100
78720 On ch=2 n=44 v=100
78720 On ch=2 n=48 v=100
80640 Off ch=2 n=44 v=100
80640 Off ch=2 n=48 v=100
80640 On ch=2 n=46 v=100
80640 On ch=2 n=49 v=100
84480 Off ch=2 n=46 v=100
84480 Off ch=2 n=49 v=100
84480 On ch=2 n=42 v=100
84480 On ch=2 n=46 v=100
86400 Off ch=2 n=42 v=100
86400 Off ch=2 n=46 v=100
86400 On ch=2 n=44 v=100
86400 On ch=2 n=48 v=100
88320 Off ch=2 n=44 v=100
88320 Off ch=2 n=48 v=100
88320 On ch=2 n=46 v=100
88320 On ch=2 n=49 v=100
90240 Off ch=2 n=46 v=100
90240 Off ch=2 n=49 v=100
90240 On ch=2 n=48 v=100
90240 On ch=2 n=51 v=100
92160 Off ch=2 n=48 v=100
92160 Off ch=2 n=51 v=100
92160 On ch=2 n=49 v=100
92160 On ch=2 n=46 v=100
94080 Off ch=2 n=49 v=100
94080 Off ch=2 n=46 v=100
94080 On ch=2 n=51 v=100
94080 On ch=2 n=48 v=100
96000 Off ch=2 n=51 v=100
96000 Off ch=2 n=48 v=100
96000 On ch=2 n=53 v=100
96000 On ch=2 n=49 v=100
99840 Off ch=2 n=53 v=100
99840 Off ch=2 n=49 v=100
99840 On ch=2 n=42 v=100
99840 On ch=2 n=46 v=100
101760 Off ch=2 n=42 v=100
101760 Off ch=2 n=46 v=100
101760 On ch=2 n=44 v=100
101760 On ch=2 n=48 v=100
103680 Off ch=2 n=44 v=100
103680 Off ch=2 n=48 v=100
103680 On ch=2 n=46 v=100
103680 On ch=2 n=49 v=100
105600 Off ch=2 n=46 v=100
105600 Off ch=2 n=49 v=100
105600 On ch=2 n=44 v=100
105600 On ch=2 n=51 v=100
107520 Off ch=2 n=44 v=100
107520 Off ch=2 n=51 v=100
107520 On ch=2 n=42 v=100
107520 On ch=2 n=46 v=100
109440 Off ch=2 n=42 v=100
109440 Off ch=2 n=46 v=100
109440 On ch=2 n=44 v=100
109440 On ch=2 n=48 v=100
111360 Off ch=2 n=44 v=100
111360 Off ch=2 n=48 v=100
111360 On ch=2 n=46 v=100
111360 On ch=2 n=49 v=100
115200 Off ch=2 n=46 v=100
115200 Off ch=2 n=49 v=100
115200 On ch=2 n=42 v=100
115200 On ch=2 n=46 v=100
117120 Off ch=2 n=42 v=100
117120 Off ch=2 n=46 v=100
117120 On ch=2 n=44 v=100
117120 On ch=2 n=48 v=100
119040 Off ch=2 n=44 v=100
119040 Off ch=2 n=48 v=100
119040 On ch=2 n=46 v=100
119040 On ch=2 n=49 v=100
120960 Off ch=2 n=46 v=100
120960 Off ch=2 n=49 v=100
120960 On ch=2 n=48 v=100
120960 On ch=2 n=51 v=100
122880 Off ch=2 n=48 v=100
122880 Off ch=2 n=51 v=100
122880 On ch=2 n=49 v=100
122880 On ch=2 n=46 v=100
124800 Off ch=2 n=49 v=100
124800 Off ch=2 n=46 v=100
124800 On ch=2 n=51 v=100
124800 On ch=2 n=48 v=100
126720 Off ch=2 n=51 v=100
126720 Off ch=2 n=48 v=100
126720 On ch=2 n=53 v=100
126720 On ch=2 n=49 v=100
130560 Off ch=2 n=53 v=100
130560 Off ch=2 n=49 v=100
130560 On ch=2 n=49 v=100
130560 On ch=2 n=46 v=100
134400 Off ch=2 n=49 v=100
134400 Off ch=2 n=46 v=100
134400 On ch=2 n=46 v=100
134400 On ch=2 n=49 v=100
138240 Off ch=2 n=46 v=100
138240 Off ch=2 n=49 v=100
138240 On ch=2 n=50 v=100
138240 On ch=2 n=53 v=100
142080 Off ch=2 n=50 v=100
142080 Off ch=2 n=53 v=100
142080 On ch=2 n=50 v=100
142080 On ch=2 n=53 v=100
144960 Off ch=2 n=50 v=100
144960 Off ch=2 n=53 v=100
144960 On ch=2 n=50 v=100
145440 Off ch=2 n=50 v=100
145440 On ch=2 n=48 v=100
145920 Off ch=2 n=48 v=100
145920 On ch=2 n=46 v=100
146880 Off ch=2 n=46 v=100
146880 On ch=2 n=46 v=100
147840 Off ch=2 n=46 v=100
147840 On ch=2 n=48 v=100
148800 Off ch=2 n=48 v=100
148800 On ch=2 n=48 v=100
149760 Off ch=2 n=48 v=100
149760 On ch=2 n=50 v=100
150720 Off ch=2 n=50 v=100
150720 On ch=2 n=50 v=100
151680 Off ch=2 n=50 v=100
151680 On ch=2 n=50 v=100
152640 Off ch=2 n=50 v=100
152640 On ch=2 n=48 v=100
153600 Off ch=2 n=48 v=100
153600 On ch=2 n=46 v=100
154560 Off ch=2 n=46 v=100
154560 On ch=2 n=46 v=100
155520 Off ch=2 n=46 v=100
155520 On ch=2 n=48 v=100
156480 Off ch=2 n=48 v=100
156480 On ch=2 n=48 v=100
157440 Off ch=2 n=48 v=100
157440 On ch=2 n=49 v=100
158400 Off ch=2 n=49 v=100
158400 On ch=2 n=49 v=100
159360 Off ch=2 n=49 v=100
159360 On ch=2 n=50 v=100
161280 Off ch=2 n=50 v=100
161280 On ch=2 n=46 v=100
162240 Off ch=2 n=46 v=100
162240 On ch=2 n=46 v=100
163200 Off ch=2 n=46 v=100
163200 On ch=2 n=48 v=100
164160 Off ch=2 n=48 v=100
164160 On ch=2 n=48 v=100
165120 Off ch=2 n=48 v=100
165120 On ch=2 n=50 v=100
166080 Off ch=2 n=50 v=100
166080 On ch=2 n=50 v=100
167040 Off ch=2 n=50 v=100
167040 On ch=2 n=50 v=100
168000 Off ch=2 n=50 v=100
168000 On ch=2 n=48 v=100
168960 Off ch=2 n=48 v=100
168960 On ch=2 n=46 v=100
169920 Off ch=2 n=46 v=100
169920 On ch=2 n=46 v=100
170880 Off ch=2 n=46 v=100
170880 On ch=2 n=48 v=100
171840 Off ch=2 n=48 v=100
171840 On ch=2 n=48 v=100
172800 Off ch=2 n=48 v=100
172800 On ch=2 n=49 v=100
173760 Off ch=2 n=49 v=100
173760 On ch=2 n=49 v=100
174720 Off ch=2 n=49 v=100
174720 On ch=2 n=52 v=100
174720 On ch=2 n=49 v=100
175360 Off ch=2 n=52 v=100
175360 Off ch=2 n=49 v=100
175360 On ch=2 n=52 v=100
175360 On ch=2 n=49 v=100
176000 Off ch=2 n=52 v=100
176000 Off ch=2 n=49 v=100
176000 On ch=2 n=52 v=100
176000 On ch=2 n=49 v=100
176640 Off ch=2 n=52 v=100
176640 Off ch=2 n=49 v=100
176640 On ch=2 n=46 v=100
177600 Off ch=2 n=46 v=100
177600 On ch=2 n=46 v=100
178560 Off ch=2 n=46 v=100
178560 On ch=2 n=45 v=100
179520 Off ch=2 n=45 v=100
179520 On ch=2 n=45 v=100
180480 Off ch=2 n=45 v=100
180480 On ch=2 n=48 v=100
181440 Off ch=2 n=48 v=100
181440 On ch=2 n=48 v=100
182400 Off ch=2 n=48 v=100
182400 On ch=2 n=47 v=100
183360 Off ch=2 n=47 v=100
183360 On ch=2 n=47 v=100
184320 Off ch=2 n=47 v=100
184320 On ch=2 n=46 v=100
185280 Off ch=2 n=46 v=100
185280 On ch=2 n=46 v=100
186240 Off ch=2 n=46 v=100
186240 On ch=2 n=45 v=100
187200 Off ch=2 n=45 v=100
187200 On ch=2 n=45 v=100
188160 Off ch=2 n=45 v=100
188160 On ch=2 n=48 v=100
189120 Off ch=2 n=48 v=100
189120 On ch=2 n=48 v=100
190080 Off ch=2 n=48 v=100
190080 On ch=2 n=47 v=100
191040 Off ch=2 n=47 v=100
191040 On ch=2 n=47 v=100
192000 Off ch=2 n=47 v=100
192000 On ch=2 n=46 v=100
192960 Off ch=2 n=46 v=100
192960 On ch=2 n=46 v=100
193920 Off ch=2 n=46 v=100
193920 On ch=2 n=45 v=100
194880 Off ch=2 n=45 v=100
194880 On ch=2 n=45 v=100
195840 Off ch=2 n=45 v=100
195840 On ch=2 n=48 v=100
196800 Off ch=2 n=48 v=100
196800 On ch=2 n=48 v=100
197760 Off ch=2 n=48 v=100
197760 On ch=2 n=47 v=100
198720 Off ch=2 n=47 v=100
198720 On ch=2 n=47 v=100
199680 Off ch=2 n=47 v=100
199680 On ch=2 n=46 v=100
200640 Off ch=2 n=46 v=100
200640 On ch=2 n=46 v=100
201600 Off ch=2 n=46 v=100
201600 On ch=2 n=45 v=100
202560 Off ch=2 n=45 v=100
202560 On ch=2 n=45 v=100
203520 Off ch=2 n=45 v=100
203520 On ch=2 n=48 v=100
204480 Off ch=2 n=48 v=100
204480 On ch=2 n=48 v=100
205440 Off ch=2 n=48 v=100
205440 On ch=2 n=47 v=100
206400 Off ch=2 n=47 v=100
206400 On ch=2 n=47 v=100
207360 Off ch=2 n=47 v=100
207360 On ch=2 n=46 v=100
207840 Off ch=2 n=46 v=100
207840 On ch=2 n=49 v=100
207840 On ch=2 n=53 v=100
208320 Off ch=2 n=49 v=100
208320 Off ch=2 n=53 v=100
208320 On ch=2 n=46 v=100
208800 Off ch=2 n=46 v=100
208800 On ch=2 n=49 v=100
208800 On ch=2 n=53 v=100
209280 Off ch=2 n=49 v=100
209280 Off ch=2 n=53 v=100
209280 On ch=2 n=45 v=100
209760 Off ch=2 n=45 v=100
209760 On ch=2 n=48 v=100
209760 On ch=2 n=52 v=100
210240 Off ch=2 n=48 v=100
210240 Off ch=2 n=52 v=100
210240 On ch=2 n=45 v=100
210720 Off ch=2 n=45 v=100
210720 On ch=2 n=48 v=100
210720 On ch=2 n=52 v=100
211200 Off ch=2 n=48 v=100
211200 Off ch=2 n=52 v=100
211200 On ch=2 n=48 v=100
211680 Off ch=2 n=48 v=100
211680 On ch=2 n=52 v=100
211680 On ch=2 n=55 v=100
212160 Off ch=2 n=52 v=100
212160 Off ch=2 n=55 v=100
212160 On ch=2 n=48 v=100
212640 Off ch=2 n=48 v=100
212640 On ch=2 n=52 v=100
212640 On ch=2 n=55 v=100
213120 Off ch=2 n=52 v=100
213120 Off ch=2 n=55 v=100
213120 On ch=2 n=47 v=100
213600 Off ch=2 n=47 v=100
213600 On ch=2 n=51 v=100
213600 On ch=2 n=54 v=100
214080 Off ch=2 n=51 v=100
214080 Off ch=2 n=54 v=100
214080 On ch=2 n=47 v=100
214560 Off ch=2 n=47 v=100
214560 On ch=2 n=54 v=100
214560 On ch=2 n=51 v=100
215040 Off ch=2 n=54 v=100
215040 Off ch=2 n=51 v=100
215040 On ch=2 n=46 v=100
215520 Off ch=2 n=46 v=100
215520 On ch=2 n=49 v=100
215520 On ch=2 n=53 v=100
216000 Off ch=2 n=49 v=100
216000 Off ch=2 n=53 v=100
216000 On ch=2 n=46 v=100
216480 Off ch=2 n=46 v=100
216480 On ch=2 n=49 v=100
216480 On ch=2 n=53 v=100
216960 Off ch=2 n=49 v=100
216960 Off ch=2 n=53 v=100
216960 On ch=2 n=45 v=100
217440 Off ch=2 n=45 v=100
217440 On ch=2 n=48 v=100
217440 On ch=2 n=52 v=100
217920 Off ch=2 n=48 v=100
217920 Off ch=2 n=52 v=100
217920 On ch=2 n=45 v=100
218400 Off ch=2 n=45 v=100
218400 On ch=2 n=48 v=100
218400 On ch=2 n=52 v=100
218880 Off ch=2 n=48 v=100
218880 Off ch=2 n=52 v=100
218880 On ch=2 n=48 v=100
219360 Off ch=2 n=48 v=100
219360 On ch=2 n=52 v=100
219360 On ch=2 n=55 v=100
219840 Off ch=2 n=52 v=100
219840 Off ch=2 n=55 v=100
219840 On ch=2 n=48 v=100
220320 Off ch=2 n=48 v=100
220320 On ch=2 n=52 v=100
220320 On ch=2 n=55 v=100
220800 Off ch=2 n=52 v=100
220800 Off ch=2 n=55 v=100
220800 On ch=2 n=47 v=100
221280 Off ch=2 n=47 v=100
221280 On ch=2 n=51 v=100
221280 On ch=2 n=54 v=100
221760 Off ch=2 n=51 v=100
221760 Off ch=2 n=54 v=100
221760 On ch=2 n=47 v=100
222240 Off ch=2 n=47 v=100
222240 On ch=2 n=51 v=100
222240 On ch=2 n=54 v=100
222720 Off ch=2 n=51 v=100
222720 Off ch=2 n=54 v=100
222720 On ch=2 n=46 v=100
223200 Off ch=2 n=46 v=100
223200 On ch=2 n=49 v=100
223200 On ch=2 n=53 v=100
223680 Off ch=2 n=49 v=100
223680 Off ch=2 n=53 v=100
223680 On ch=2 n=46 v=100
224160 Off ch=2 n=46 v=100
224160 On ch=2 n=49 v=100
224160 On ch=2 n=53 v=100
224640 Off ch=2 n=49 v=100
224640 Off ch=2 n=53 v=100
224640 On ch=2 n=45 v=100
225120 Off ch=2 n=45 v=100
225120 On ch=2 n=48 v=100
225120 On ch=2 n=52 v=100
225600 Off ch=2 n=48 v=100
225600 Off ch=2 n=52 v=100
225600 On ch=2 n=45 v=100
226080 Off ch=2 n=45 v=100
226080 On ch=2 n=52 v=100
226080 On ch=2 n=48 v=100
226560 Off ch=2 n=52 v=100
226560 Off ch=2 n=48 v=100
226560 On ch=2 n=48 v=100
227040 Off ch=2 n=48 v=100
227040 On ch=2 n=55 v=100
227040 On ch=2 n=52 v=100
227520 Off ch=2 n=55 v=100
227520 Off ch=2 n=52 v=100
227520 On ch=2 n=48 v=100
228000 Off ch=2 n=48 v=100
228000 On ch=2 n=55 v=100
228000 On ch=2 n=52 v=100
228480 Off ch=2 n=55 v=100
228480 Off ch=2 n=52 v=100
228480 On ch=2 n=47 v=100
228960 Off ch=2 n=47 v=100
228960 On ch=2 n=54 v=100
228960 On ch=2 n=51 v=100
229440 Off ch=2 n=54 v=100
229440 Off ch=2 n=51 v=100
229440 On ch=2 n=47 v=100
229920 Off ch=2 n=47 v=100
229920 On ch=2 n=54 v=100
229920 On ch=2 n=51 v=100
230400 Off ch=2 n=54 v=100
230400 Off ch=2 n=51 v=100
230400 On ch=2 n=46 v=100
230880 Off ch=2 n=46 v=100
230880 On ch=2 n=53 v=100
230880 On ch=2 n=49 v=100
231360 Off ch=2 n=53 v=100
231360 Off ch=2 n=49 v=100
231360 On ch=2 n=46 v=100
231840 Off ch=2 n=46 v=100
231840 On ch=2 n=53 v=100
231840 On ch=2 n=49 v=100
232320 Off ch=2 n=53 v=100
232320 Off ch=2 n=49 v=100
232320 On ch=2 n=45 v=100
232800 Off ch=2 n=45 v=100
232800 On ch=2 n=52 v=100
232800 On ch=2 n=48 v=100
233280 Off ch=2 n=52 v=100
233280 Off ch=2 n=48 v=100
233280 On ch=2 n=45 v=100
233760 Off ch=2 n=45 v=100
233760 On ch=2 n=52 v=100
233760 On ch=2 n=48 v=100
234240 Off ch=2 n=52 v=100
234240 Off ch=2 n=48 v=100
234240 On ch=2 n=48 v=100
234720 Off ch=2 n=48 v=100
234720 On ch=2 n=55 v=100
235200 Off ch=2 n=55 v=100
235200 On ch=2 n=48 v=100
235680 Off ch=2 n=48 v=100
235680 On ch=2 n=55 v=100
236160 Off ch=2 n=55 v=100
236160 On ch=2 n=47 v=100
236160 On ch=2 n=51 v=100
236160 On ch=2 n=54 v=100
238080 Off ch=2 n=47 v=100
238080 Off ch=2 n=51 v=100
238080 Off ch=2 n=54 v=100
240000 On ch=2 n=42 v=100
240000 On ch=2 n=46 v=100
241920 Off ch=2 n=42 v=100
241920 Off ch=2 n=46 v=100
241920 On ch=2 n=44 v=100
241920 On ch=2 n=48 v=100
243840 Off ch=2 n=44 v=100
243840 Off ch=2 n=48 v=100
243840 On ch=2 n=46 v=100
243840 On ch=2 n=49 v=100
245760 Off ch=2 n=46 v=100
245760 Off ch=2 n=49 v=100
245760 On ch=2 n=44 v=100
245760 On ch=2 n=51 v=100
247680 Off ch=2 n=44 v=100
247680 Off ch=2 n=51 v=100
247680 On ch=2 n=42 v=100
247680 On ch=2 n=46 v=100
249600 Off ch=2 n=42 v=100
249600 Off ch=2 n=46 v=100
249600 On ch=2 n=44 v=100
249600 On ch=2 n=48 v=100
251520 Off ch=2 n=44 v=100
251520 Off ch=2 n=48 v=100
251520 On ch=2 n=46 v=100
251520 On ch=2 n=49 v=100
255360 Off ch=2 n=46 v=100
255360 Off ch=2 n=49 v=100
255360 On ch=2 n=42 v=100
255360 On ch=2 n=46 v=100
257280 Off ch=2 n=42 v=100
257280 Off ch=2 n=46 v=100
257280 On ch=2 n=44 v=100
257280 On ch=2 n=48 v=100
259200 Off ch=2 n=44 v=100
259200 Off ch=2 n=48 v=100
259200 On ch=2 n=46 v=100
259200 On ch=2 n=49 v=100
261120 Off ch=2 n=46 v=100
261120 Off ch=2 n=49 v=100
261120 On ch=2 n=48 v=100
261120 On ch=2 n=51 v=100
263040 Off ch=2 n=48 v=100
263040 Off ch=2 n=51 v=100
263040 On ch=2 n=49 v=100
263040 On ch=2 n=46 v=100
264960 Off ch=2 n=49 v=100
264960 Off ch=2 n=46 v=100
264960 On ch=2 n=51 v=100
264960 On ch=2 n=48 v=100
266880 Off ch=2 n=51 v=100
266880 Off ch=2 n=48 v=100
266880 On ch=2 n=53 v=100
266880 On ch=2 n=49 v=100
270720 Off ch=2 n=53 v=100
270720 Off ch=2 n=49 v=100
270720 On ch=2 n=42 v=100
270720 On ch=2 n=46 v=100
272640 Off ch=2 n=42 v=100
272640 Off ch=2 n=46 v=100
272640 On ch=2 n=44 v=100
272640 On ch=2 n=48 v=100
274560 Off ch=2 n=44 v=100
274560 Off ch=2 n=48 v=100
274560 On ch=2 n=46 v=100
274560 On ch=2 n=49 v=100
276480 Off ch=2 n=46 v=100
276480 Off ch=2 n=49 v=100
276480 On ch=2 n=44 v=100
276480 On ch=2 n=51 v=100
278400 Off ch=2 n=44 v=100
278400 Off ch=2 n=51 v=100
278400 On ch=2 n=42 v=100
278400 On ch=2 n=46 v=100
280320 Off ch=2 n=42 v=100
280320 Off ch=2 n=46 v=100
280320 On ch=2 n=44 v=100
280320 On ch=2 n=48 v=100
282240 Off ch=2 n=44 v=100
282240 Off ch=2 n=48 v=100
282240 On ch=2 n=46 v=100
282240 On ch=2 n=49 v=100
286080 Off ch=2 n=46 v=100
286080 Off ch=2 n=49 v=100
286080 On ch=2 n=42 v=100
286080 On ch=2 n=46 v=100
288000 Off ch=2 n=42 v=100
288000 Off ch=2 n=46 v=100
288000 On ch=2 n=44 v=100
288000 On ch=2 n=48 v=100
289920 Off ch=2 n=44 v=100
289920 Off ch=2 n=48 v=100
289920 On ch=2 n=46 v=100
289920 On ch=2 n=49 v=100
291840 Off ch=2 n=46 v=100
291840 Off ch=2 n=49 v=100
291840 On ch=2 n=48 v=100
291840 On ch=2 n=51 v=100
293760 Off ch=2 n=48 v=100
293760 Off ch=2 n=51 v=100
293760 On ch=2 n=49 v=100
293760 On ch=2 n=46 v=100
295680 Off ch=2 n=49 v=100
295680 Off ch=2 n=46 v=100
295680 On ch=2 n=51 v=100
295680 On ch=2 n=48 v=100
297600 Off ch=2 n=51 v=100
297600 Off ch=2 n=48 v=100
297600 On ch=2 n=53 v=100
297600 On ch=2 n=49 v=100
297600 On ch=2 n=46 v=100
305280 Off ch=2 n=53 v=100
305280 Off ch=2 n=49 v=100
305280 Off ch=2 n=46 v=100
332160 Meta TrkEnd
TrkEnd
]]

end