PLUGIN.Name = "GSDIRECT HiguYou"
PLUGIN.DefaultOn = false
PLUGIN.Description = ""
PLUGIN.Trigger = true

function PLUGIN:Load()
GUNSTRUMENTAL_CH1 = "1"
GUNSTRUMENTAL_CH2 = "2"
GUNSTRUMENTAL_DELAYBASE = 120
GUNSTRUMENTAL_NODELAYFILTER = true
GUNSTRUMENTAL_TAB =  [[MFile 1 3 480
MTrk
0 Meta TrkName "Title"
0 TimeSig 4/4 24 8
0 Tempo 769230
61200 Tempo 759493
76320 Tempo 769230
82320 Tempo 759493
91920 Tempo 750000
95760 Tempo 740740
103680 Tempo 750000
105600 Tempo 759493
122880 Tempo 769230
138240 Tempo 779220
140160 Tempo 789473
142080 Tempo 800000
143040 Tempo 821917
144000 Tempo 845070
144480 Tempo 869565
147840 Meta TrkEnd
TrkEnd
MTrk
0 Meta TrkName "Piano"
0 Meta InstrName "Microsoft GS Wavetable SW 合成"
0 KeySig 251 major
0 PrCh ch=1 p=0
0 Par ch=1 c=10 v=64
7679 Par ch=1 c=64 v=127
7680 On ch=1 n=75 v=80
8112 Off ch=1 n=75 v=64
8160 On ch=1 n=77 v=80
8268 Off ch=1 n=77 v=64
8280 On ch=1 n=75 v=80
8388 Off ch=1 n=75 v=64
8400 On ch=1 n=73 v=80
8592 Par ch=1 c=64 v=127
8616 Off ch=1 n=73 v=64
8640 On ch=1 n=75 v=80
8856 Off ch=1 n=75 v=64
8880 On ch=1 n=68 v=80
9096 Off ch=1 n=68 v=64
9120 On ch=1 n=77 v=80
9228 Off ch=1 n=77 v=64
9240 On ch=1 n=75 v=80
9348 Off ch=1 n=75 v=64
9360 On ch=1 n=73 v=80
9576 Off ch=1 n=73 v=64
9600 On ch=1 n=75 v=80
9615 Par ch=1 c=64 v=127
10032 Off ch=1 n=75 v=64
10080 On ch=1 n=77 v=80
10188 Off ch=1 n=77 v=64
10200 On ch=1 n=75 v=80
10308 Off ch=1 n=75 v=64
10320 On ch=1 n=73 v=80
10348 Par ch=1 c=64 v=127
10536 Off ch=1 n=73 v=64
10560 On ch=1 n=73 v=80
10776 Off ch=1 n=73 v=64
10800 On ch=1 n=80 v=80
11016 Off ch=1 n=80 v=64
11040 On ch=1 n=75 v=80
11472 Off ch=1 n=75 v=64
11520 On ch=1 n=75 v=80
11533 Par ch=1 c=64 v=127
11952 Off ch=1 n=75 v=64
12000 On ch=1 n=77 v=80
12108 Off ch=1 n=77 v=64
12120 On ch=1 n=75 v=80
12228 Off ch=1 n=75 v=64
12240 On ch=1 n=73 v=80
12388 Par ch=1 c=64 v=127
12456 Off ch=1 n=73 v=64
12480 On ch=1 n=75 v=80
12696 Off ch=1 n=75 v=64
12720 On ch=1 n=68 v=80
12936 Off ch=1 n=68 v=64
12960 On ch=1 n=77 v=80
13068 Off ch=1 n=77 v=64
13080 On ch=1 n=75 v=80
13188 Off ch=1 n=75 v=64
13200 On ch=1 n=73 v=80
13369 Par ch=1 c=64 v=127
13416 Off ch=1 n=73 v=64
13440 On ch=1 n=75 v=80
13872 Off ch=1 n=75 v=64
13920 On ch=1 n=77 v=80
14028 Off ch=1 n=77 v=64
14040 On ch=1 n=75 v=80
14148 Off ch=1 n=75 v=64
14160 On ch=1 n=73 v=80
14336 Par ch=1 c=64 v=127
14376 Off ch=1 n=73 v=64
14400 On ch=1 n=73 v=80
15264 Off ch=1 n=73 v=64
23040 On ch=1 n=75 v=80
23040 On ch=1 n=70 v=80
23040 Par ch=1 c=64 v=127
23472 Off ch=1 n=75 v=64
23472 Off ch=1 n=70 v=64
23520 On ch=1 n=77 v=80
23628 Off ch=1 n=77 v=64
23640 On ch=1 n=75 v=80
23748 Off ch=1 n=75 v=64
23760 On ch=1 n=73 v=80
23976 Off ch=1 n=73 v=64
24000 On ch=1 n=75 v=80
24216 Off ch=1 n=75 v=64
24240 On ch=1 n=68 v=80
24456 Off ch=1 n=68 v=64
24480 On ch=1 n=77 v=80
24588 Off ch=1 n=77 v=64
24600 On ch=1 n=75 v=80
24708 Off ch=1 n=75 v=64
24720 On ch=1 n=73 v=80
24720 On ch=1 n=68 v=80
24936 Off ch=1 n=73 v=64
24936 Off ch=1 n=68 v=64
24959 Par ch=1 c=64 v=127
24960 On ch=1 n=75 v=80
24960 On ch=1 n=68 v=80
25392 Off ch=1 n=75 v=64
25392 Off ch=1 n=68 v=64
25440 On ch=1 n=77 v=80
25548 Off ch=1 n=77 v=64
25560 On ch=1 n=75 v=80
25668 Off ch=1 n=75 v=64
25680 On ch=1 n=73 v=80
25896 Off ch=1 n=73 v=64
25920 On ch=1 n=73 v=80
25920 On ch=1 n=68 v=80
26136 Off ch=1 n=73 v=64
26160 On ch=1 n=80 v=80
26352 Off ch=1 n=68 v=64
26376 Off ch=1 n=80 v=64
26400 On ch=1 n=75 v=80
26832 Off ch=1 n=75 v=64
26879 Par ch=1 c=64 v=127
26880 On ch=1 n=75 v=80
26880 On ch=1 n=70 v=80
27312 Off ch=1 n=75 v=64
27312 Off ch=1 n=70 v=64
27360 On ch=1 n=77 v=80
27468 Off ch=1 n=77 v=64
27480 On ch=1 n=75 v=80
27588 Off ch=1 n=75 v=64
27600 On ch=1 n=73 v=80
27816 Off ch=1 n=73 v=64
27840 On ch=1 n=75 v=80
28056 Off ch=1 n=75 v=64
28080 On ch=1 n=68 v=80
28296 Off ch=1 n=68 v=64
28320 On ch=1 n=77 v=80
28428 Off ch=1 n=77 v=64
28440 On ch=1 n=75 v=80
28548 Off ch=1 n=75 v=64
28560 On ch=1 n=73 v=80
28560 On ch=1 n=68 v=80
28776 Off ch=1 n=73 v=64
28776 Off ch=1 n=68 v=64
28800 On ch=1 n=75 v=80
28800 On ch=1 n=68 v=80
29232 Off ch=1 n=75 v=64
29232 Off ch=1 n=68 v=64
29280 On ch=1 n=77 v=80
29388 Off ch=1 n=77 v=64
29400 On ch=1 n=75 v=80
29508 Off ch=1 n=75 v=64
29520 On ch=1 n=73 v=80
29736 Off ch=1 n=73 v=64
29760 On ch=1 n=73 v=80
29760 On ch=1 n=68 v=80
30624 Off ch=1 n=73 v=64
30624 Off ch=1 n=68 v=64
30719 Par ch=1 c=64 v=127
30720 On ch=1 n=75 v=80
30720 On ch=1 n=70 v=80
31152 Off ch=1 n=75 v=64
31152 Off ch=1 n=70 v=64
31200 On ch=1 n=77 v=80
31308 Off ch=1 n=77 v=64
31320 On ch=1 n=75 v=80
31428 Off ch=1 n=75 v=64
31440 On ch=1 n=73 v=80
31656 Off ch=1 n=73 v=64
31680 On ch=1 n=75 v=80
31896 Off ch=1 n=75 v=64
31920 On ch=1 n=68 v=80
32136 Off ch=1 n=68 v=64
32160 On ch=1 n=77 v=80
32268 Off ch=1 n=77 v=64
32280 On ch=1 n=75 v=80
32388 Off ch=1 n=75 v=64
32400 On ch=1 n=73 v=80
32400 On ch=1 n=68 v=80
32616 Off ch=1 n=73 v=64
32616 Off ch=1 n=68 v=64
32639 Par ch=1 c=64 v=127
32640 On ch=1 n=75 v=80
32640 On ch=1 n=68 v=80
33072 Off ch=1 n=75 v=64
33072 Off ch=1 n=68 v=64
33120 On ch=1 n=77 v=80
33228 Off ch=1 n=77 v=64
33240 On ch=1 n=75 v=80
33348 Off ch=1 n=75 v=64
33360 On ch=1 n=73 v=80
33576 Off ch=1 n=73 v=64
33600 On ch=1 n=73 v=80
33600 On ch=1 n=68 v=80
33816 Off ch=1 n=73 v=64
33840 On ch=1 n=80 v=80
34032 Off ch=1 n=68 v=64
34056 Off ch=1 n=80 v=64
34080 On ch=1 n=75 v=80
34493 Par ch=1 c=64 v=127
34512 Off ch=1 n=75 v=64
34560 On ch=1 n=75 v=80
34560 On ch=1 n=70 v=80
34992 Off ch=1 n=75 v=64
34992 Off ch=1 n=70 v=64
35040 On ch=1 n=77 v=80
35148 Off ch=1 n=77 v=64
35160 On ch=1 n=75 v=80
35268 Off ch=1 n=75 v=64
35280 On ch=1 n=73 v=80
35496 Off ch=1 n=73 v=64
35520 On ch=1 n=75 v=80
35736 Off ch=1 n=75 v=64
35760 On ch=1 n=68 v=80
35976 Off ch=1 n=68 v=64
36000 On ch=1 n=77 v=80
36108 Off ch=1 n=77 v=64
36120 On ch=1 n=75 v=80
36228 Off ch=1 n=75 v=64
36240 On ch=1 n=73 v=80
36240 On ch=1 n=68 v=80
36456 Off ch=1 n=73 v=64
36456 Off ch=1 n=68 v=64
36480 On ch=1 n=75 v=80
36480 On ch=1 n=68 v=80
36912 Off ch=1 n=75 v=64
36912 Off ch=1 n=68 v=64
36960 On ch=1 n=77 v=80
37068 Off ch=1 n=77 v=64
37080 On ch=1 n=75 v=80
37188 Off ch=1 n=75 v=64
37200 On ch=1 n=73 v=80
37416 Off ch=1 n=73 v=64
37440 On ch=1 n=73 v=80
37440 On ch=1 n=68 v=80
37872 Off ch=1 n=73 v=64
37872 Off ch=1 n=68 v=64
38160 On ch=1 n=68 v=80
38376 Off ch=1 n=68 v=64
38400 On ch=1 n=68 v=80
38616 Off ch=1 n=68 v=64
38640 On ch=1 n=65 v=80
39072 Off ch=1 n=65 v=64
39120 On ch=1 n=68 v=80
39336 Off ch=1 n=68 v=64
39360 On ch=1 n=73 v=80
39792 Off ch=1 n=73 v=64
40080 On ch=1 n=73 v=80
40296 Off ch=1 n=73 v=64
40320 On ch=1 n=75 v=80
40536 Off ch=1 n=75 v=64
40560 On ch=1 n=75 v=80
40776 Off ch=1 n=75 v=64
40800 On ch=1 n=75 v=80
41016 Off ch=1 n=75 v=64
41040 On ch=1 n=77 v=80
41256 Off ch=1 n=77 v=64
41280 On ch=1 n=77 v=80
41712 Off ch=1 n=77 v=64
42000 On ch=1 n=68 v=80
42216 Off ch=1 n=68 v=64
42240 On ch=1 n=68 v=80
42456 Off ch=1 n=68 v=64
42480 On ch=1 n=65 v=80
42912 Off ch=1 n=65 v=64
42960 On ch=1 n=68 v=80
43176 Off ch=1 n=68 v=64
43440 On ch=1 n=73 v=80
43656 Off ch=1 n=73 v=64
43680 On ch=1 n=73 v=80
43896 Off ch=1 n=73 v=64
43920 On ch=1 n=75 v=80
44136 Off ch=1 n=75 v=64
44160 On ch=1 n=75 v=80
44376 Off ch=1 n=75 v=64
44400 On ch=1 n=75 v=80
44616 Off ch=1 n=75 v=64
44640 On ch=1 n=75 v=80
44856 Off ch=1 n=75 v=64
44880 On ch=1 n=80 v=80
45096 Off ch=1 n=80 v=64
45120 On ch=1 n=77 v=80
45984 Off ch=1 n=77 v=64
46080 On ch=1 n=68 v=80
46296 Off ch=1 n=68 v=64
46320 On ch=1 n=65 v=80
46752 Off ch=1 n=65 v=64
46800 On ch=1 n=68 v=80
47016 Off ch=1 n=68 v=64
47040 On ch=1 n=73 v=80
47256 Off ch=1 n=73 v=64
47280 On ch=1 n=73 v=80
47496 Off ch=1 n=73 v=64
47520 On ch=1 n=73 v=80
47736 Off ch=1 n=73 v=64
47760 On ch=1 n=73 v=80
47976 Off ch=1 n=73 v=64
48000 On ch=1 n=75 v=80
48216 Off ch=1 n=75 v=64
48240 On ch=1 n=75 v=80
48456 Off ch=1 n=75 v=64
48480 On ch=1 n=75 v=80
48696 Off ch=1 n=75 v=64
48720 On ch=1 n=77 v=80
48936 Off ch=1 n=77 v=64
48960 On ch=1 n=77 v=80
49392 Off ch=1 n=77 v=64
49680 On ch=1 n=68 v=80
49896 Off ch=1 n=68 v=64
49920 On ch=1 n=68 v=80
50136 Off ch=1 n=68 v=64
50160 On ch=1 n=65 v=80
50376 Off ch=1 n=65 v=64
50400 On ch=1 n=68 v=80
50832 Off ch=1 n=68 v=64
51120 On ch=1 n=73 v=80
51336 Off ch=1 n=73 v=64
51360 On ch=1 n=73 v=80
51576 Off ch=1 n=73 v=64
51600 On ch=1 n=75 v=80
51816 Off ch=1 n=75 v=64
51840 On ch=1 n=75 v=80
52056 Off ch=1 n=75 v=64
52080 On ch=1 n=72 v=80
52188 Off ch=1 n=72 v=64
52200 On ch=1 n=73 v=80
52308 Off ch=1 n=73 v=64
52320 On ch=1 n=75 v=80
52536 Off ch=1 n=75 v=64
52560 On ch=1 n=80 v=80
52776 Off ch=1 n=80 v=64
52800 On ch=1 n=77 v=80
53232 Off ch=1 n=77 v=64
53520 On ch=1 n=92 v=80
53520 On ch=1 n=80 v=80
53728 Par ch=1 c=64 v=127
53736 Off ch=1 n=92 v=64
53736 Off ch=1 n=80 v=64
53760 On ch=1 n=92 v=80
53760 On ch=1 n=80 v=80
53976 Off ch=1 n=92 v=64
53976 Off ch=1 n=80 v=64
54000 On ch=1 n=89 v=80
54000 On ch=1 n=77 v=80
54216 Off ch=1 n=77 v=64
54432 Off ch=1 n=89 v=64
54480 On ch=1 n=92 v=80
54480 On ch=1 n=80 v=80
54696 Off ch=1 n=92 v=64
54696 Off ch=1 n=80 v=64
54720 On ch=1 n=92 v=80
54720 On ch=1 n=80 v=80
54936 Off ch=1 n=92 v=64
54936 Off ch=1 n=80 v=64
54960 On ch=1 n=85 v=80
54960 On ch=1 n=73 v=80
55176 Off ch=1 n=73 v=64
55392 Off ch=1 n=85 v=64
55440 On ch=1 n=87 v=80
55440 On ch=1 n=75 v=80
55656 Off ch=1 n=87 v=64
55656 Off ch=1 n=75 v=64
55680 On ch=1 n=75 v=80
55680 On ch=1 n=87 v=80
55896 Off ch=1 n=75 v=64
55896 Off ch=1 n=87 v=64
55920 On ch=1 n=73 v=80
55920 On ch=1 n=85 v=80
56136 Off ch=1 n=73 v=64
56136 Off ch=1 n=85 v=64
56160 On ch=1 n=87 v=80
56160 On ch=1 n=75 v=80
56592 Off ch=1 n=87 v=64
56592 Off ch=1 n=75 v=64
56640 On ch=1 n=89 v=80
56640 On ch=1 n=77 v=80
56856 Off ch=1 n=89 v=64
56856 Off ch=1 n=77 v=64
56880 On ch=1 n=87 v=80
56880 On ch=1 n=75 v=80
57096 Off ch=1 n=87 v=64
57096 Off ch=1 n=75 v=64
57120 On ch=1 n=89 v=80
57120 On ch=1 n=77 v=80
57336 Off ch=1 n=89 v=64
57336 Off ch=1 n=77 v=64
57360 On ch=1 n=92 v=80
57360 On ch=1 n=80 v=80
57576 Off ch=1 n=92 v=64
57576 Off ch=1 n=80 v=64
57600 On ch=1 n=92 v=80
57600 On ch=1 n=80 v=80
57816 Off ch=1 n=92 v=64
57816 Off ch=1 n=80 v=64
57840 On ch=1 n=89 v=80
57840 On ch=1 n=77 v=80
58272 Off ch=1 n=89 v=64
58272 Off ch=1 n=77 v=64
58320 On ch=1 n=92 v=80
58320 On ch=1 n=80 v=80
58536 Off ch=1 n=92 v=64
58536 Off ch=1 n=80 v=64
58560 On ch=1 n=92 v=80
58560 On ch=1 n=80 v=80
58776 Off ch=1 n=92 v=64
58776 Off ch=1 n=80 v=64
58800 On ch=1 n=85 v=80
58800 On ch=1 n=73 v=80
59016 Off ch=1 n=73 v=64
59232 Off ch=1 n=85 v=64
59280 On ch=1 n=87 v=80
59280 On ch=1 n=75 v=80
59496 Off ch=1 n=87 v=64
59496 Off ch=1 n=75 v=64
59520 On ch=1 n=87 v=80
59520 On ch=1 n=75 v=80
59736 Off ch=1 n=87 v=64
59736 Off ch=1 n=75 v=64
59760 On ch=1 n=85 v=80
59760 On ch=1 n=73 v=80
60192 Off ch=1 n=85 v=64
60192 Off ch=1 n=73 v=64
60240 On ch=1 n=87 v=80
60240 On ch=1 n=75 v=80
60456 Off ch=1 n=87 v=64
60456 Off ch=1 n=75 v=64
60480 On ch=1 n=85 v=80
60480 On ch=1 n=73 v=80
61128 Off ch=1 n=85 v=64
61128 Off ch=1 n=73 v=64
61200 On ch=1 n=73 v=80
61200 On ch=1 n=68 v=80
61416 Off ch=1 n=73 v=64
61416 Off ch=1 n=68 v=64
61439 Par ch=1 c=64 v=127
61440 On ch=1 n=75 v=80
61440 On ch=1 n=70 v=80
61872 Off ch=1 n=75 v=64
61872 Off ch=1 n=70 v=64
61920 On ch=1 n=77 v=80
62028 Off ch=1 n=77 v=64
62040 On ch=1 n=75 v=80
62148 Off ch=1 n=75 v=64
62160 On ch=1 n=73 v=80
62376 Off ch=1 n=73 v=64
62400 On ch=1 n=75 v=80
62616 Off ch=1 n=75 v=64
62640 On ch=1 n=68 v=80
62856 Off ch=1 n=68 v=64
62880 On ch=1 n=77 v=80
62988 Off ch=1 n=77 v=64
63000 On ch=1 n=75 v=80
63108 Off ch=1 n=75 v=64
63120 On ch=1 n=73 v=80
63120 On ch=1 n=68 v=80
63336 Off ch=1 n=73 v=64
63336 Off ch=1 n=68 v=64
63360 On ch=1 n=75 v=80
63360 On ch=1 n=68 v=80
63792 Off ch=1 n=75 v=64
63792 Off ch=1 n=68 v=64
63840 On ch=1 n=77 v=80
63948 Off ch=1 n=77 v=64
63960 On ch=1 n=75 v=80
64068 Off ch=1 n=75 v=64
64080 On ch=1 n=73 v=80
64296 Off ch=1 n=73 v=64
64320 On ch=1 n=73 v=80
64320 On ch=1 n=68 v=80
64536 Off ch=1 n=73 v=64
64560 On ch=1 n=80 v=80
64752 Off ch=1 n=68 v=64
64776 Off ch=1 n=80 v=64
64800 On ch=1 n=75 v=80
65232 Off ch=1 n=75 v=64
65280 On ch=1 n=75 v=80
65280 On ch=1 n=70 v=80
65712 Off ch=1 n=75 v=64
65712 Off ch=1 n=70 v=64
65760 On ch=1 n=77 v=80
65868 Off ch=1 n=77 v=64
65880 On ch=1 n=75 v=80
65988 Off ch=1 n=75 v=64
66000 On ch=1 n=73 v=80
66216 Off ch=1 n=73 v=64
66240 On ch=1 n=75 v=80
66456 Off ch=1 n=75 v=64
66480 On ch=1 n=68 v=80
66696 Off ch=1 n=68 v=64
66720 On ch=1 n=77 v=80
66828 Off ch=1 n=77 v=64
66840 On ch=1 n=75 v=80
66948 Off ch=1 n=75 v=64
66960 On ch=1 n=73 v=80
66960 On ch=1 n=68 v=80
67176 Off ch=1 n=73 v=64
67176 Off ch=1 n=68 v=64
67200 On ch=1 n=75 v=80
67200 On ch=1 n=68 v=80
67632 Off ch=1 n=75 v=64
67632 Off ch=1 n=68 v=64
67680 On ch=1 n=77 v=80
67788 Off ch=1 n=77 v=64
67800 On ch=1 n=75 v=80
67908 Off ch=1 n=75 v=64
67920 On ch=1 n=73 v=80
68136 Off ch=1 n=73 v=64
68160 On ch=1 n=73 v=80
68160 On ch=1 n=68 v=80
69024 Off ch=1 n=73 v=64
69024 Off ch=1 n=68 v=64
69119 Par ch=1 c=64 v=127
69120 On ch=1 n=75 v=80
69120 On ch=1 n=70 v=80
69125 Par ch=1 c=64 v=127
69552 Off ch=1 n=75 v=64
69552 Off ch=1 n=70 v=64
69600 On ch=1 n=77 v=80
69708 Off ch=1 n=77 v=64
69720 On ch=1 n=75 v=80
69828 Off ch=1 n=75 v=64
69840 On ch=1 n=73 v=80
70056 Off ch=1 n=73 v=64
70080 On ch=1 n=75 v=80
70296 Off ch=1 n=75 v=64
70320 On ch=1 n=68 v=80
70536 Off ch=1 n=68 v=64
70560 On ch=1 n=77 v=80
70668 Off ch=1 n=77 v=64
70680 On ch=1 n=75 v=80
70788 Off ch=1 n=75 v=64
70800 On ch=1 n=73 v=80
70800 On ch=1 n=68 v=80
71016 Off ch=1 n=73 v=64
71016 Off ch=1 n=68 v=64
71040 On ch=1 n=75 v=80
71040 On ch=1 n=68 v=80
71472 Off ch=1 n=75 v=64
71472 Off ch=1 n=68 v=64
71520 On ch=1 n=77 v=80
71628 Off ch=1 n=77 v=64
71640 On ch=1 n=75 v=80
71748 Off ch=1 n=75 v=64
71760 On ch=1 n=73 v=80
71976 Off ch=1 n=73 v=64
72000 On ch=1 n=73 v=80
72000 On ch=1 n=68 v=80
72216 Off ch=1 n=73 v=64
72240 On ch=1 n=80 v=80
72432 Off ch=1 n=68 v=64
72456 Off ch=1 n=80 v=64
72480 On ch=1 n=75 v=80
72912 Off ch=1 n=75 v=64
72959 Par ch=1 c=64 v=127
72959 Par ch=1 c=64 v=127
72960 On ch=1 n=75 v=80
72960 On ch=1 n=70 v=80
73392 Off ch=1 n=75 v=64
73392 Off ch=1 n=70 v=64
73440 On ch=1 n=77 v=80
73548 Off ch=1 n=77 v=64
73560 On ch=1 n=75 v=80
73668 Off ch=1 n=75 v=64
73680 On ch=1 n=73 v=80
73896 Off ch=1 n=73 v=64
73920 On ch=1 n=75 v=80
74136 Off ch=1 n=75 v=64
74160 On ch=1 n=68 v=80
74376 Off ch=1 n=68 v=64
74400 On ch=1 n=77 v=80
74508 Off ch=1 n=77 v=64
74520 On ch=1 n=75 v=80
74628 Off ch=1 n=75 v=64
74640 On ch=1 n=73 v=80
74640 On ch=1 n=68 v=80
74856 Off ch=1 n=73 v=64
74856 Off ch=1 n=68 v=64
74867 Par ch=1 c=64 v=127
74880 On ch=1 n=75 v=80
74880 On ch=1 n=68 v=80
75312 Off ch=1 n=75 v=64
75312 Off ch=1 n=68 v=64
75360 On ch=1 n=77 v=80
75468 Off ch=1 n=77 v=64
75480 On ch=1 n=75 v=80
75588 Off ch=1 n=75 v=64
75600 On ch=1 n=73 v=80
75816 Off ch=1 n=73 v=64
75840 On ch=1 n=73 v=80
75840 On ch=1 n=68 v=80
75895 Par ch=1 c=64 v=127
76272 Off ch=1 n=73 v=64
76272 Off ch=1 n=68 v=64
76320 On ch=1 n=73 v=80
76428 Off ch=1 n=73 v=64
76440 On ch=1 n=75 v=80
76548 Off ch=1 n=75 v=64
76560 On ch=1 n=77 v=80
76668 Off ch=1 n=77 v=64
76680 On ch=1 n=78 v=80
76788 Off ch=1 n=78 v=64
76800 On ch=1 n=80 v=80
76800 Par ch=1 c=64 v=127
77016 Off ch=1 n=80 v=64
77040 On ch=1 n=85 v=80
77256 Off ch=1 n=85 v=64
77280 On ch=1 n=85 v=80
77496 Off ch=1 n=85 v=64
77760 On ch=1 n=87 v=80
77976 Off ch=1 n=87 v=64
78000 On ch=1 n=85 v=80
78000 Par ch=1 c=64 v=127
78216 Off ch=1 n=85 v=64
78480 On ch=1 n=82 v=80
78696 Off ch=1 n=82 v=64
78720 On ch=1 n=77 v=80
78720 Par ch=1 c=64 v=127
78828 Off ch=1 n=77 v=64
78840 On ch=1 n=78 v=80
78948 Off ch=1 n=78 v=64
78960 On ch=1 n=72 v=80
79068 Off ch=1 n=72 v=64
79080 On ch=1 n=73 v=80
79080 On ch=1 n=70 v=80
79188 Off ch=1 n=73 v=64
79188 Off ch=1 n=70 v=64
79200 On ch=1 n=75 v=80
79200 On ch=1 n=72 v=80
79416 Off ch=1 n=75 v=64
79416 Off ch=1 n=72 v=64
79440 On ch=1 n=77 v=80
79440 On ch=1 n=73 v=80
79656 Off ch=1 n=77 v=64
79656 Off ch=1 n=73 v=64
79680 On ch=1 n=77 v=80
79680 On ch=1 n=73 v=80
80112 Off ch=1 n=77 v=64
80112 Off ch=1 n=73 v=64
80160 On ch=1 n=85 v=80
80376 Off ch=1 n=85 v=64
80400 On ch=1 n=84 v=80
80400 Par ch=1 c=64 v=127
80616 Off ch=1 n=84 v=64
80640 On ch=1 n=85 v=80
80640 Par ch=1 c=64 v=127
80856 Off ch=1 n=85 v=64
80880 On ch=1 n=82 v=80
81096 Off ch=1 n=82 v=64
81360 On ch=1 n=85 v=80
81576 Off ch=1 n=85 v=64
81600 On ch=1 n=85 v=80
81816 Off ch=1 n=85 v=64
81840 On ch=1 n=80 v=80
82056 Off ch=1 n=80 v=64
82320 On ch=1 n=85 v=80
82536 Off ch=1 n=85 v=64
82560 On ch=1 n=84 v=80
82560 Par ch=1 c=64 v=127
82668 Off ch=1 n=84 v=64
82680 On ch=1 n=85 v=80
82788 Off ch=1 n=85 v=64
82800 On ch=1 n=87 v=80
83016 Off ch=1 n=87 v=64
83040 On ch=1 n=87 v=80
83040 On ch=1 n=75 v=80
83256 Off ch=1 n=87 v=64
83256 Off ch=1 n=75 v=64
83280 On ch=1 n=80 v=80
83496 Off ch=1 n=80 v=64
83520 On ch=1 n=89 v=80
83628 Off ch=1 n=89 v=64
83640 On ch=1 n=90 v=80
83640 On ch=1 n=85 v=80
83748 Off ch=1 n=90 v=64
83760 On ch=1 n=92 v=80
83760 On ch=1 n=87 v=80
83760 On ch=1 n=80 v=80
83856 Off ch=1 n=85 v=64
83976 Off ch=1 n=92 v=64
83976 Off ch=1 n=87 v=64
83976 Off ch=1 n=80 v=64
84000 On ch=1 n=92 v=80
84000 On ch=1 n=87 v=80
84000 On ch=1 n=80 v=80
84216 Off ch=1 n=92 v=64
84216 Off ch=1 n=87 v=64
84216 Off ch=1 n=80 v=64
84240 On ch=1 n=89 v=80
84456 Off ch=1 n=89 v=64
84480 On ch=1 n=92 v=80
84480 On ch=1 n=80 v=80
84696 Off ch=1 n=92 v=64
84696 Off ch=1 n=80 v=64
84720 On ch=1 n=89 v=80
84720 On ch=1 n=77 v=80
84720 Par ch=1 c=64 v=127
84936 Off ch=1 n=77 v=64
85152 Off ch=1 n=89 v=64
85200 On ch=1 n=87 v=80
85416 Off ch=1 n=87 v=64
85440 On ch=1 n=87 v=80
85656 Off ch=1 n=87 v=64
85680 On ch=1 n=82 v=80
85680 On ch=1 n=70 v=80
86112 Off ch=1 n=82 v=64
86112 Off ch=1 n=70 v=64
86160 On ch=1 n=85 v=80
86376 Off ch=1 n=85 v=64
86399 Par ch=1 c=64 v=127
86400 On ch=1 n=84 v=80
86508 Off ch=1 n=84 v=64
86520 On ch=1 n=85 v=80
86628 Off ch=1 n=85 v=64
86640 On ch=1 n=87 v=80
86856 Off ch=1 n=87 v=64
86880 On ch=1 n=87 v=80
87096 Off ch=1 n=87 v=64
87120 On ch=1 n=90 v=80
87336 Off ch=1 n=90 v=64
87360 On ch=1 n=89 v=80
87360 On ch=1 n=77 v=80
87576 Off ch=1 n=89 v=64
87576 Off ch=1 n=77 v=64
87600 On ch=1 n=88 v=80
87600 On ch=1 n=76 v=80
87816 Off ch=1 n=88 v=64
87816 Off ch=1 n=76 v=64
87840 On ch=1 n=89 v=80
87840 On ch=1 n=77 v=80
88056 Off ch=1 n=89 v=64
88056 Off ch=1 n=77 v=64
88080 On ch=1 n=87 v=80
88296 Off ch=1 n=87 v=64
88320 On ch=1 n=89 v=80
88320 Par ch=1 c=64 v=127
88536 Off ch=1 n=89 v=64
88560 On ch=1 n=94 v=80
88560 On ch=1 n=89 v=80
88560 On ch=1 n=82 v=80
88992 Off ch=1 n=94 v=64
88992 Off ch=1 n=89 v=64
88992 Off ch=1 n=82 v=64
89040 On ch=1 n=89 v=80
89256 Off ch=1 n=89 v=64
89280 On ch=1 n=87 v=80
89496 Off ch=1 n=87 v=64
89520 On ch=1 n=82 v=80
89520 On ch=1 n=77 v=80
89952 Off ch=1 n=82 v=64
89952 Off ch=1 n=77 v=64
90000 On ch=1 n=85 v=80
90000 On ch=1 n=82 v=80
90216 Off ch=1 n=85 v=64
90216 Off ch=1 n=82 v=64
90240 On ch=1 n=87 v=80
90240 On ch=1 n=84 v=80
90240 Par ch=1 c=64 v=127
90456 Off ch=1 n=87 v=64
90480 On ch=1 n=85 v=80
90480 On ch=1 n=82 v=80
90672 Off ch=1 n=84 v=64
90912 Off ch=1 n=85 v=64
90912 Off ch=1 n=82 v=64
90960 On ch=1 n=87 v=80
91176 Off ch=1 n=87 v=64
91200 On ch=1 n=85 v=80
91200 On ch=1 n=80 v=80
91632 Off ch=1 n=80 v=64
91848 Off ch=1 n=85 v=64
91920 On ch=1 n=80 v=80
91920 On ch=1 n=68 v=80
92136 Off ch=1 n=80 v=64
92160 On ch=1 n=80 v=80
92160 On ch=1 n=68 v=80
92352 Off ch=1 n=68 v=64
92376 Off ch=1 n=80 v=64
92376 Off ch=1 n=68 v=64
92400 On ch=1 n=77 v=80
92400 On ch=1 n=65 v=80
92616 Off ch=1 n=77 v=64
92616 Off ch=1 n=65 v=64
92880 On ch=1 n=80 v=80
92880 On ch=1 n=68 v=80
93096 Off ch=1 n=80 v=64
93096 Off ch=1 n=68 v=64
93120 On ch=1 n=85 v=80
93120 On ch=1 n=73 v=80
93336 Off ch=1 n=73 v=64
93552 Off ch=1 n=85 v=64
93600 On ch=1 n=85 v=80
93600 On ch=1 n=73 v=80
93816 Off ch=1 n=85 v=64
93816 Off ch=1 n=73 v=64
93840 On ch=1 n=87 v=80
93840 On ch=1 n=75 v=80
94056 Off ch=1 n=87 v=64
94056 Off ch=1 n=75 v=64
94080 On ch=1 n=87 v=80
94080 On ch=1 n=75 v=80
94296 Off ch=1 n=87 v=64
94296 Off ch=1 n=75 v=64
94320 On ch=1 n=87 v=80
94320 On ch=1 n=75 v=80
94536 Off ch=1 n=87 v=64
94536 Off ch=1 n=75 v=64
94560 On ch=1 n=87 v=80
94560 On ch=1 n=75 v=80
94776 Off ch=1 n=87 v=64
94776 Off ch=1 n=75 v=64
94800 On ch=1 n=89 v=80
94800 On ch=1 n=77 v=80
95016 Off ch=1 n=89 v=64
95016 Off ch=1 n=77 v=64
95040 On ch=1 n=89 v=80
95040 On ch=1 n=77 v=80
95688 Off ch=1 n=89 v=64
95688 Off ch=1 n=77 v=64
95760 On ch=1 n=80 v=80
95760 On ch=1 n=68 v=80
95976 Off ch=1 n=80 v=64
95976 Off ch=1 n=68 v=64
96000 On ch=1 n=68 v=80
96000 On ch=1 n=80 v=80
96216 Off ch=1 n=68 v=64
96216 Off ch=1 n=80 v=64
96240 On ch=1 n=65 v=80
96240 On ch=1 n=77 v=80
96348 Off ch=1 n=65 v=64
96360 On ch=1 n=66 v=80
96468 Off ch=1 n=66 v=64
96480 On ch=1 n=80 v=80
96480 On ch=1 n=68 v=80
96672 Off ch=1 n=77 v=64
97128 Off ch=1 n=80 v=64
97128 Off ch=1 n=68 v=64
97200 On ch=1 n=85 v=80
97200 On ch=1 n=73 v=80
97416 Off ch=1 n=85 v=64
97416 Off ch=1 n=73 v=64
97440 On ch=1 n=85 v=80
97440 On ch=1 n=73 v=80
97656 Off ch=1 n=85 v=64
97656 Off ch=1 n=73 v=64
97680 On ch=1 n=87 v=80
97680 On ch=1 n=75 v=80
97896 Off ch=1 n=87 v=64
97896 Off ch=1 n=75 v=64
97920 On ch=1 n=87 v=80
97920 On ch=1 n=75 v=80
98136 Off ch=1 n=87 v=64
98136 Off ch=1 n=75 v=64
98160 On ch=1 n=84 v=80
98160 On ch=1 n=72 v=80
98268 Off ch=1 n=84 v=64
98280 On ch=1 n=85 v=80
98280 On ch=1 n=73 v=80
98376 Off ch=1 n=72 v=64
98388 Off ch=1 n=85 v=64
98400 On ch=1 n=87 v=80
98400 On ch=1 n=75 v=80
98496 Off ch=1 n=73 v=64
98616 Off ch=1 n=87 v=64
98616 Off ch=1 n=75 v=64
98640 On ch=1 n=92 v=80
98640 On ch=1 n=80 v=80
98856 Off ch=1 n=92 v=64
98856 Off ch=1 n=80 v=64
98880 On ch=1 n=89 v=80
98880 On ch=1 n=77 v=80
99528 Off ch=1 n=89 v=64
99528 Off ch=1 n=77 v=64
99600 On ch=1 n=80 v=80
99600 On ch=1 n=68 v=80
99816 Off ch=1 n=80 v=64
99816 Off ch=1 n=68 v=64
99840 On ch=1 n=80 v=80
99840 On ch=1 n=68 v=80
100056 Off ch=1 n=80 v=64
100056 Off ch=1 n=68 v=64
100080 On ch=1 n=77 v=80
100080 On ch=1 n=65 v=80
100188 Off ch=1 n=77 v=64
100188 Off ch=1 n=65 v=64
100200 On ch=1 n=78 v=80
100200 On ch=1 n=66 v=80
100308 Off ch=1 n=78 v=64
100308 Off ch=1 n=66 v=64
100320 On ch=1 n=80 v=80
100320 On ch=1 n=68 v=80
100536 Off ch=1 n=80 v=64
100536 Off ch=1 n=68 v=64
100560 On ch=1 n=85 v=80
100560 On ch=1 n=73 v=80
100776 Off ch=1 n=85 v=64
100776 Off ch=1 n=73 v=64
100800 On ch=1 n=85 v=80
100800 On ch=1 n=73 v=80
100908 Off ch=1 n=85 v=64
100908 Off ch=1 n=73 v=64
100920 On ch=1 n=87 v=80
100920 On ch=1 n=75 v=80
101028 Off ch=1 n=87 v=64
101028 Off ch=1 n=75 v=64
101040 On ch=1 n=90 v=80
101040 On ch=1 n=78 v=80
101256 Off ch=1 n=90 v=64
101256 Off ch=1 n=78 v=64
101280 On ch=1 n=89 v=80
101280 On ch=1 n=77 v=80
101496 Off ch=1 n=89 v=64
101496 Off ch=1 n=77 v=64
101520 On ch=1 n=85 v=80
101520 On ch=1 n=73 v=80
101736 Off ch=1 n=85 v=64
101736 Off ch=1 n=73 v=64
101760 On ch=1 n=87 v=80
101760 On ch=1 n=75 v=80
101976 Off ch=1 n=87 v=64
101976 Off ch=1 n=75 v=64
102000 On ch=1 n=85 v=80
102000 On ch=1 n=73 v=80
102216 Off ch=1 n=85 v=64
102216 Off ch=1 n=73 v=64
102240 On ch=1 n=87 v=80
102240 On ch=1 n=75 v=80
102456 Off ch=1 n=87 v=64
102456 Off ch=1 n=75 v=64
102480 On ch=1 n=90 v=80
102480 On ch=1 n=78 v=80
102696 Off ch=1 n=90 v=64
102696 Off ch=1 n=78 v=64
102720 On ch=1 n=89 v=80
102720 On ch=1 n=77 v=80
103152 Off ch=1 n=89 v=64
103152 Off ch=1 n=77 v=64
103200 On ch=1 n=92 v=80
103200 On ch=1 n=80 v=80
103632 Off ch=1 n=92 v=64
103632 Off ch=1 n=80 v=64
103680 On ch=1 n=92 v=80
103680 On ch=1 n=80 v=80
103896 Off ch=1 n=92 v=64
103896 Off ch=1 n=80 v=64
103920 On ch=1 n=89 v=80
103920 On ch=1 n=77 v=80
104352 Off ch=1 n=89 v=64
104352 Off ch=1 n=77 v=64
104400 On ch=1 n=92 v=80
104400 On ch=1 n=80 v=80
104616 Off ch=1 n=92 v=64
104616 Off ch=1 n=80 v=64
104640 On ch=1 n=92 v=80
104640 On ch=1 n=80 v=80
104856 Off ch=1 n=92 v=64
104856 Off ch=1 n=80 v=64
104880 On ch=1 n=85 v=80
104880 On ch=1 n=73 v=80
105312 Off ch=1 n=85 v=64
105312 Off ch=1 n=73 v=64
105360 On ch=1 n=87 v=80
105360 On ch=1 n=75 v=80
105576 Off ch=1 n=87 v=64
105576 Off ch=1 n=75 v=64
105600 On ch=1 n=87 v=80
105600 On ch=1 n=75 v=80
105816 Off ch=1 n=87 v=64
105816 Off ch=1 n=75 v=64
105840 On ch=1 n=85 v=80
105840 On ch=1 n=73 v=80
106272 Off ch=1 n=85 v=64
106272 Off ch=1 n=73 v=64
106320 On ch=1 n=87 v=80
106320 On ch=1 n=75 v=80
106536 Off ch=1 n=87 v=64
106536 Off ch=1 n=75 v=64
106560 On ch=1 n=85 v=80
106560 On ch=1 n=73 v=80
107424 Off ch=1 n=85 v=64
107424 Off ch=1 n=73 v=64
107520 On ch=1 n=75 v=80
107520 On ch=1 n=70 v=80
107952 Off ch=1 n=75 v=64
107952 Off ch=1 n=70 v=64
108000 On ch=1 n=77 v=80
108108 Off ch=1 n=77 v=64
108120 On ch=1 n=75 v=80
108228 Off ch=1 n=75 v=64
108240 On ch=1 n=73 v=80
108456 Off ch=1 n=73 v=64
108480 On ch=1 n=75 v=80
108696 Off ch=1 n=75 v=64
108720 On ch=1 n=68 v=80
108936 Off ch=1 n=68 v=64
108960 On ch=1 n=77 v=80
109068 Off ch=1 n=77 v=64
109080 On ch=1 n=75 v=80
109188 Off ch=1 n=75 v=64
109200 On ch=1 n=73 v=80
109200 On ch=1 n=68 v=80
109416 Off ch=1 n=73 v=64
109416 Off ch=1 n=68 v=64
109440 On ch=1 n=75 v=80
109440 On ch=1 n=68 v=80
109872 Off ch=1 n=75 v=64
109872 Off ch=1 n=68 v=64
109920 On ch=1 n=77 v=80
110028 Off ch=1 n=77 v=64
110040 On ch=1 n=75 v=80
110148 Off ch=1 n=75 v=64
110160 On ch=1 n=73 v=80
110376 Off ch=1 n=73 v=64
110400 On ch=1 n=73 v=80
110400 On ch=1 n=68 v=80
110616 Off ch=1 n=73 v=64
110640 On ch=1 n=80 v=80
110832 Off ch=1 n=68 v=64
110856 Off ch=1 n=80 v=64
110880 On ch=1 n=75 v=80
111312 Off ch=1 n=75 v=64
111360 On ch=1 n=75 v=80
111360 On ch=1 n=70 v=80
111792 Off ch=1 n=75 v=64
111792 Off ch=1 n=70 v=64
111840 On ch=1 n=77 v=80
111948 Off ch=1 n=77 v=64
111960 On ch=1 n=75 v=80
112068 Off ch=1 n=75 v=64
112080 On ch=1 n=73 v=80
112296 Off ch=1 n=73 v=64
112320 On ch=1 n=75 v=80
112536 Off ch=1 n=75 v=64
112560 On ch=1 n=68 v=80
112776 Off ch=1 n=68 v=64
112800 On ch=1 n=77 v=80
112908 Off ch=1 n=77 v=64
112920 On ch=1 n=75 v=80
113028 Off ch=1 n=75 v=64
113040 On ch=1 n=73 v=80
113040 On ch=1 n=68 v=80
113256 Off ch=1 n=73 v=64
113256 Off ch=1 n=68 v=64
113280 On ch=1 n=75 v=80
113280 On ch=1 n=68 v=80
113712 Off ch=1 n=75 v=64
113712 Off ch=1 n=68 v=64
113760 On ch=1 n=77 v=80
113868 Off ch=1 n=77 v=64
113880 On ch=1 n=75 v=80
113988 Off ch=1 n=75 v=64
114000 On ch=1 n=73 v=80
114216 Off ch=1 n=73 v=64
114240 On ch=1 n=73 v=80
114240 On ch=1 n=68 v=80
115104 Off ch=1 n=73 v=64
115104 Off ch=1 n=68 v=64
115200 On ch=1 n=75 v=80
115200 On ch=1 n=70 v=80
115632 Off ch=1 n=75 v=64
115632 Off ch=1 n=70 v=64
115680 On ch=1 n=77 v=80
115788 Off ch=1 n=77 v=64
115800 On ch=1 n=75 v=80
115908 Off ch=1 n=75 v=64
115920 On ch=1 n=73 v=80
116136 Off ch=1 n=73 v=64
116160 On ch=1 n=75 v=80
116376 Off ch=1 n=75 v=64
116400 On ch=1 n=68 v=80
116616 Off ch=1 n=68 v=64
116640 On ch=1 n=77 v=80
116748 Off ch=1 n=77 v=64
116760 On ch=1 n=75 v=80
116868 Off ch=1 n=75 v=64
116880 On ch=1 n=73 v=80
116880 On ch=1 n=68 v=80
117096 Off ch=1 n=73 v=64
117096 Off ch=1 n=68 v=64
117120 On ch=1 n=75 v=80
117120 On ch=1 n=68 v=80
117552 Off ch=1 n=75 v=64
117552 Off ch=1 n=68 v=64
117600 On ch=1 n=77 v=80
117708 Off ch=1 n=77 v=64
117720 On ch=1 n=75 v=80
117828 Off ch=1 n=75 v=64
117840 On ch=1 n=73 v=80
118056 Off ch=1 n=73 v=64
118080 On ch=1 n=73 v=80
118080 On ch=1 n=68 v=80
118296 Off ch=1 n=73 v=64
118320 On ch=1 n=80 v=80
118512 Off ch=1 n=68 v=64
118536 Off ch=1 n=80 v=64
118560 On ch=1 n=75 v=80
118992 Off ch=1 n=75 v=64
119040 On ch=1 n=75 v=80
119040 On ch=1 n=70 v=80
119472 Off ch=1 n=75 v=64
119472 Off ch=1 n=70 v=64
119520 On ch=1 n=77 v=80
119628 Off ch=1 n=77 v=64
119640 On ch=1 n=75 v=80
119748 Off ch=1 n=75 v=64
119760 On ch=1 n=73 v=80
119976 Off ch=1 n=73 v=64
120000 On ch=1 n=75 v=80
120216 Off ch=1 n=75 v=64
120240 On ch=1 n=68 v=80
120456 Off ch=1 n=68 v=64
120480 On ch=1 n=77 v=80
120588 Off ch=1 n=77 v=64
120600 On ch=1 n=75 v=80
120708 Off ch=1 n=75 v=64
120720 On ch=1 n=73 v=80
120720 On ch=1 n=68 v=80
120936 Off ch=1 n=73 v=64
120936 Off ch=1 n=68 v=64
120960 On ch=1 n=75 v=80
120960 On ch=1 n=68 v=80
121392 Off ch=1 n=75 v=64
121392 Off ch=1 n=68 v=64
121440 On ch=1 n=77 v=80
121548 Off ch=1 n=77 v=64
121560 On ch=1 n=75 v=80
121668 Off ch=1 n=75 v=64
121680 On ch=1 n=73 v=80
121896 Off ch=1 n=73 v=64
121920 On ch=1 n=73 v=80
121920 On ch=1 n=68 v=80
122784 Off ch=1 n=73 v=64
122784 Off ch=1 n=68 v=64
122880 On ch=1 n=87 v=80
123096 Off ch=1 n=87 v=64
123120 On ch=1 n=89 v=80
123336 Off ch=1 n=89 v=64
123360 On ch=1 n=87 v=80
123576 Off ch=1 n=87 v=64
123600 On ch=1 n=89 v=80
123816 Off ch=1 n=89 v=64
123840 On ch=1 n=94 v=80
123948 Off ch=1 n=94 v=64
123960 On ch=1 n=89 v=80
124068 Off ch=1 n=89 v=64
124080 On ch=1 n=87 v=80
124188 Off ch=1 n=87 v=64
124200 On ch=1 n=89 v=80
124308 Off ch=1 n=89 v=64
124320 On ch=1 n=87 v=80
124752 Off ch=1 n=87 v=64
124800 On ch=1 n=89 v=80
125016 Off ch=1 n=89 v=64
125040 On ch=1 n=87 v=80
125256 Off ch=1 n=87 v=64
125280 On ch=1 n=89 v=80
125496 Off ch=1 n=89 v=64
125520 On ch=1 n=92 v=80
125736 Off ch=1 n=92 v=64
125760 On ch=1 n=89 v=80
126624 Off ch=1 n=89 v=64
126720 On ch=1 n=87 v=80
126936 Off ch=1 n=87 v=64
126960 On ch=1 n=89 v=80
127176 Off ch=1 n=89 v=64
127200 On ch=1 n=87 v=80
127416 Off ch=1 n=87 v=64
127440 On ch=1 n=89 v=80
127656 Off ch=1 n=89 v=64
127680 On ch=1 n=94 v=80
127788 Off ch=1 n=94 v=64
127800 On ch=1 n=89 v=80
127908 Off ch=1 n=89 v=64
127920 On ch=1 n=87 v=80
128028 Off ch=1 n=87 v=64
128040 On ch=1 n=89 v=80
128148 Off ch=1 n=89 v=64
128160 On ch=1 n=87 v=80
128592 Off ch=1 n=87 v=64
128640 On ch=1 n=87 v=80
128856 Off ch=1 n=87 v=64
128880 On ch=1 n=85 v=80
129312 Off ch=1 n=85 v=64
129360 On ch=1 n=87 v=80
129576 Off ch=1 n=87 v=64
129600 On ch=1 n=85 v=80
130464 Off ch=1 n=85 v=64
130560 On ch=1 n=75 v=80
130776 Off ch=1 n=75 v=64
130800 On ch=1 n=77 v=80
131016 Off ch=1 n=77 v=64
131040 On ch=1 n=75 v=80
131256 Off ch=1 n=75 v=64
131280 On ch=1 n=77 v=80
131496 Off ch=1 n=77 v=64
131520 On ch=1 n=82 v=80
131628 Off ch=1 n=82 v=64
131640 On ch=1 n=77 v=80
131748 Off ch=1 n=77 v=64
131760 On ch=1 n=75 v=80
131868 Off ch=1 n=75 v=64
131880 On ch=1 n=77 v=80
131988 Off ch=1 n=77 v=64
132000 On ch=1 n=75 v=80
132432 Off ch=1 n=75 v=64
132480 On ch=1 n=77 v=80
132696 Off ch=1 n=77 v=64
132720 On ch=1 n=75 v=80
132936 Off ch=1 n=75 v=64
132960 On ch=1 n=77 v=80
133176 Off ch=1 n=77 v=64
133200 On ch=1 n=80 v=80
133416 Off ch=1 n=80 v=64
133440 On ch=1 n=77 v=80
134304 Off ch=1 n=77 v=64
134400 On ch=1 n=75 v=80
134616 Off ch=1 n=75 v=64
134640 On ch=1 n=77 v=80
134856 Off ch=1 n=77 v=64
134880 On ch=1 n=75 v=80
135096 Off ch=1 n=75 v=64
135120 On ch=1 n=77 v=80
135336 Off ch=1 n=77 v=64
135360 On ch=1 n=82 v=80
135468 Off ch=1 n=82 v=64
135480 On ch=1 n=77 v=80
135588 Off ch=1 n=77 v=64
135600 On ch=1 n=75 v=80
135708 Off ch=1 n=75 v=64
135720 On ch=1 n=77 v=80
135828 Off ch=1 n=77 v=64
135840 On ch=1 n=75 v=80
136272 Off ch=1 n=75 v=64
136320 On ch=1 n=75 v=80
136536 Off ch=1 n=75 v=64
136560 On ch=1 n=73 v=80
136992 Off ch=1 n=73 v=64
137040 On ch=1 n=75 v=80
137256 Off ch=1 n=75 v=64
137280 On ch=1 n=73 v=80
138144 Off ch=1 n=73 v=64
142080 On ch=1 n=87 v=80
142080 On ch=1 n=75 v=80
142944 Off ch=1 n=87 v=64
142944 Off ch=1 n=75 v=64
143040 On ch=1 n=85 v=80
143040 On ch=1 n=73 v=80
143904 Off ch=1 n=85 v=64
143904 Off ch=1 n=73 v=64
144000 On ch=1 n=84 v=80
144000 On ch=1 n=72 v=80
144648 Off ch=1 n=84 v=64
144648 Off ch=1 n=72 v=64
144720 On ch=1 n=85 v=80
144720 On ch=1 n=73 v=80
144936 Off ch=1 n=85 v=64
144936 Off ch=1 n=73 v=64
145320 On ch=1 n=85 v=80
145320 On ch=1 n=73 v=80
147048 Off ch=1 n=85 v=64
147048 Off ch=1 n=73 v=64
147840 Meta TrkEnd
TrkEnd
MTrk
0 Meta TrkName "Track 2"
0 Meta InstrName "Microsoft GS Wavetable SW 合成"
0 KeySig 251 major
0 PrCh ch=2 p=0
0 Par ch=2 c=10 v=64
0 On ch=2 n=46 v=80
0 Par ch=2 c=64 v=127
216 Off ch=2 n=46 v=64
240 On ch=2 n=53 v=80
456 Off ch=2 n=53 v=64
480 On ch=2 n=56 v=80
912 Off ch=2 n=56 v=64
960 On ch=2 n=42 v=80
1176 Off ch=2 n=42 v=64
1200 On ch=2 n=49 v=80
1416 Off ch=2 n=49 v=64
1440 On ch=2 n=53 v=80
1872 Off ch=2 n=53 v=64
1920 On ch=2 n=44 v=80
2136 Off ch=2 n=44 v=64
2160 On ch=2 n=51 v=80
2160 Par ch=2 c=64 v=127
2376 Off ch=2 n=51 v=64
2400 On ch=2 n=54 v=80
2832 Off ch=2 n=54 v=64
2880 On ch=2 n=49 v=80
3096 Off ch=2 n=49 v=64
3120 On ch=2 n=56 v=80
3336 Off ch=2 n=56 v=64
3360 On ch=2 n=60 v=80
3792 Off ch=2 n=60 v=64
3808 Par ch=2 c=64 v=127
3840 On ch=2 n=46 v=80
4056 Off ch=2 n=46 v=64
4080 On ch=2 n=53 v=80
4296 Off ch=2 n=53 v=64
4320 On ch=2 n=56 v=80
4752 Off ch=2 n=56 v=64
4800 On ch=2 n=42 v=80
5016 Off ch=2 n=42 v=64
5040 On ch=2 n=49 v=80
5256 Off ch=2 n=49 v=64
5280 On ch=2 n=53 v=80
5712 Off ch=2 n=53 v=64
5760 On ch=2 n=44 v=80
5844 Par ch=2 c=64 v=127
5976 Off ch=2 n=44 v=64
6000 On ch=2 n=51 v=80
6216 Off ch=2 n=51 v=64
6240 On ch=2 n=54 v=80
6672 Off ch=2 n=54 v=64
6720 On ch=2 n=49 v=80
6936 Off ch=2 n=49 v=64
6960 On ch=2 n=56 v=80
7176 Off ch=2 n=56 v=64
7200 On ch=2 n=60 v=80
7632 Off ch=2 n=60 v=64
7650 Par ch=2 c=64 v=127
7680 On ch=2 n=46 v=80
7896 Off ch=2 n=46 v=64
7920 On ch=2 n=53 v=80
8136 Off ch=2 n=53 v=64
8160 On ch=2 n=56 v=80
8592 Off ch=2 n=56 v=64
8640 On ch=2 n=42 v=80
8856 Off ch=2 n=42 v=64
8880 On ch=2 n=49 v=80
9096 Off ch=2 n=49 v=64
9120 On ch=2 n=53 v=80
9552 Off ch=2 n=53 v=64
9600 On ch=2 n=44 v=80
9684 Par ch=2 c=64 v=127
9816 Off ch=2 n=44 v=64
9840 On ch=2 n=51 v=80
10056 Off ch=2 n=51 v=64
10080 On ch=2 n=54 v=80
10512 Off ch=2 n=54 v=64
10560 On ch=2 n=49 v=80
10776 Off ch=2 n=49 v=64
10800 On ch=2 n=56 v=80
11016 Off ch=2 n=56 v=64
11040 On ch=2 n=60 v=80
11472 Off ch=2 n=60 v=64
11520 On ch=2 n=46 v=80
11548 Par ch=2 c=64 v=127
11736 Off ch=2 n=46 v=64
11760 On ch=2 n=53 v=80
11976 Off ch=2 n=53 v=64
12000 On ch=2 n=56 v=80
12432 Off ch=2 n=56 v=64
12480 On ch=2 n=42 v=80
12696 Off ch=2 n=42 v=64
12720 On ch=2 n=49 v=80
12936 Off ch=2 n=49 v=64
12960 On ch=2 n=53 v=80
13392 Off ch=2 n=53 v=64
13439 Par ch=2 c=64 v=127
13440 On ch=2 n=44 v=80
13656 Off ch=2 n=44 v=64
13680 On ch=2 n=51 v=80
13896 Off ch=2 n=51 v=64
13920 On ch=2 n=54 v=80
14352 Off ch=2 n=54 v=64
14400 On ch=2 n=49 v=80
14593 Par ch=2 c=64 v=127
14616 Off ch=2 n=49 v=64
14640 On ch=2 n=56 v=80
14856 Off ch=2 n=56 v=64
14880 On ch=2 n=60 v=80
15312 Off ch=2 n=60 v=64
15330 Par ch=2 c=64 v=127
15360 On ch=2 n=46 v=80
15576 Off ch=2 n=46 v=64
15600 On ch=2 n=53 v=80
15816 Off ch=2 n=53 v=64
15840 On ch=2 n=56 v=80
16272 Off ch=2 n=56 v=64
16320 On ch=2 n=42 v=80
16536 Off ch=2 n=42 v=64
16560 On ch=2 n=49 v=80
16776 Off ch=2 n=49 v=64
16800 On ch=2 n=53 v=80
17232 Off ch=2 n=53 v=64
17280 On ch=2 n=44 v=80
17364 Par ch=2 c=64 v=127
17496 Off ch=2 n=44 v=64
17520 On ch=2 n=51 v=80
17736 Off ch=2 n=51 v=64
17760 On ch=2 n=54 v=80
18192 Off ch=2 n=54 v=64
18240 On ch=2 n=49 v=80
18456 Off ch=2 n=49 v=64
18480 On ch=2 n=56 v=80
18696 Off ch=2 n=56 v=64
18720 On ch=2 n=60 v=80
19152 Off ch=2 n=60 v=64
19170 Par ch=2 c=64 v=127
19200 On ch=2 n=46 v=80
19416 Off ch=2 n=46 v=64
19440 On ch=2 n=53 v=80
19656 Off ch=2 n=53 v=64
19680 On ch=2 n=56 v=80
20112 Off ch=2 n=56 v=64
20160 On ch=2 n=42 v=80
20376 Off ch=2 n=42 v=64
20400 On ch=2 n=49 v=80
20616 Off ch=2 n=49 v=64
20640 On ch=2 n=53 v=80
21072 Off ch=2 n=53 v=64
21120 On ch=2 n=44 v=80
21204 Par ch=2 c=64 v=127
21336 Off ch=2 n=44 v=64
21360 On ch=2 n=51 v=80
21576 Off ch=2 n=51 v=64
21600 On ch=2 n=54 v=80
22032 Off ch=2 n=54 v=64
22080 On ch=2 n=49 v=80
22296 Off ch=2 n=49 v=64
22320 On ch=2 n=56 v=80
22536 Off ch=2 n=56 v=64
22560 On ch=2 n=60 v=80
22992 Off ch=2 n=60 v=64
23010 Par ch=2 c=64 v=127
23040 On ch=2 n=46 v=80
23256 Off ch=2 n=46 v=64
23280 On ch=2 n=53 v=80
23496 Off ch=2 n=53 v=64
23520 On ch=2 n=56 v=80
23952 Off ch=2 n=56 v=64
24000 On ch=2 n=42 v=80
24216 Off ch=2 n=42 v=64
24240 On ch=2 n=49 v=80
24456 Off ch=2 n=49 v=64
24480 On ch=2 n=53 v=80
24912 Off ch=2 n=53 v=64
24960 On ch=2 n=44 v=80
25086 Par ch=2 c=64 v=127
25176 Off ch=2 n=44 v=64
25200 On ch=2 n=51 v=80
25416 Off ch=2 n=51 v=64
25440 On ch=2 n=54 v=80
25872 Off ch=2 n=54 v=64
25920 On ch=2 n=49 v=80
26136 Off ch=2 n=49 v=64
26160 On ch=2 n=56 v=80
26376 Off ch=2 n=56 v=64
26400 On ch=2 n=60 v=80
26832 Off ch=2 n=60 v=64
26858 Par ch=2 c=64 v=127
26880 On ch=2 n=46 v=80
27096 Off ch=2 n=46 v=64
27120 On ch=2 n=53 v=80
27336 Off ch=2 n=53 v=64
27360 On ch=2 n=56 v=80
27792 Off ch=2 n=56 v=64
27840 On ch=2 n=42 v=80
28056 Off ch=2 n=42 v=64
28080 On ch=2 n=49 v=80
28296 Off ch=2 n=49 v=64
28320 On ch=2 n=53 v=80
28752 Off ch=2 n=53 v=64
28800 On ch=2 n=44 v=80
28899 Par ch=2 c=64 v=127
29016 Off ch=2 n=44 v=64
29040 On ch=2 n=51 v=80
29256 Off ch=2 n=51 v=64
29280 On ch=2 n=54 v=80
29712 Off ch=2 n=54 v=64
29760 On ch=2 n=49 v=80
29976 Off ch=2 n=49 v=64
30000 On ch=2 n=56 v=80
30216 Off ch=2 n=56 v=64
30240 On ch=2 n=60 v=80
30672 Off ch=2 n=60 v=64
30719 Par ch=2 c=64 v=127
30720 On ch=2 n=46 v=80
30936 Off ch=2 n=46 v=64
30960 On ch=2 n=53 v=80
31176 Off ch=2 n=53 v=64
31200 On ch=2 n=56 v=80
31632 Off ch=2 n=56 v=64
31680 On ch=2 n=42 v=80
31896 Off ch=2 n=42 v=64
31920 On ch=2 n=49 v=80
32136 Off ch=2 n=49 v=64
32160 On ch=2 n=53 v=80
32592 Off ch=2 n=53 v=64
32640 On ch=2 n=44 v=80
32657 Par ch=2 c=64 v=127
32856 Off ch=2 n=44 v=64
32880 On ch=2 n=51 v=80
33096 Off ch=2 n=51 v=64
33120 On ch=2 n=54 v=80
33552 Off ch=2 n=54 v=64
33600 On ch=2 n=49 v=80
33816 Off ch=2 n=49 v=64
33840 On ch=2 n=56 v=80
34056 Off ch=2 n=56 v=64
34080 On ch=2 n=60 v=80
34512 Off ch=2 n=60 v=64
34530 Par ch=2 c=64 v=127
34560 On ch=2 n=46 v=80
34776 Off ch=2 n=46 v=64
34800 On ch=2 n=53 v=80
35016 Off ch=2 n=53 v=64
35040 On ch=2 n=56 v=80
35472 Off ch=2 n=56 v=64
35520 On ch=2 n=42 v=80
35736 Off ch=2 n=42 v=64
35760 On ch=2 n=49 v=80
35976 Off ch=2 n=49 v=64
36000 On ch=2 n=53 v=80
36432 Off ch=2 n=53 v=64
36480 On ch=2 n=44 v=80
36494 Par ch=2 c=64 v=127
36696 Off ch=2 n=44 v=64
36720 On ch=2 n=51 v=80
36936 Off ch=2 n=51 v=64
36960 On ch=2 n=54 v=80
37392 Off ch=2 n=54 v=64
37440 On ch=2 n=49 v=80
37656 Off ch=2 n=49 v=64
37680 On ch=2 n=56 v=80
37896 Off ch=2 n=56 v=64
37920 On ch=2 n=60 v=80
38352 Off ch=2 n=60 v=64
38399 Par ch=2 c=64 v=127
38400 On ch=2 n=46 v=80
38616 Off ch=2 n=46 v=64
38640 On ch=2 n=53 v=80
38856 Off ch=2 n=53 v=64
38880 On ch=2 n=56 v=80
39312 Off ch=2 n=56 v=64
39360 On ch=2 n=42 v=80
39576 Off ch=2 n=42 v=64
39600 On ch=2 n=49 v=80
39816 Off ch=2 n=49 v=64
39840 On ch=2 n=53 v=80
40272 Off ch=2 n=53 v=64
40320 On ch=2 n=44 v=80
40337 Par ch=2 c=64 v=127
40536 Off ch=2 n=44 v=64
40560 On ch=2 n=51 v=80
40776 Off ch=2 n=51 v=64
40800 On ch=2 n=54 v=80
41232 Off ch=2 n=54 v=64
41280 On ch=2 n=49 v=80
41496 Off ch=2 n=49 v=64
41520 On ch=2 n=56 v=80
41736 Off ch=2 n=56 v=64
41760 On ch=2 n=60 v=80
42192 Off ch=2 n=60 v=64
42239 Par ch=2 c=64 v=127
42240 On ch=2 n=46 v=80
42456 Off ch=2 n=46 v=64
42480 On ch=2 n=53 v=80
42696 Off ch=2 n=53 v=64
42720 On ch=2 n=56 v=80
43152 Off ch=2 n=56 v=64
43200 On ch=2 n=42 v=80
43416 Off ch=2 n=42 v=64
43440 On ch=2 n=49 v=80
43656 Off ch=2 n=49 v=64
43680 On ch=2 n=53 v=80
44112 Off ch=2 n=53 v=64
44160 On ch=2 n=44 v=80
44240 Par ch=2 c=64 v=127
44376 Off ch=2 n=44 v=64
44400 On ch=2 n=51 v=80
44616 Off ch=2 n=51 v=64
44640 On ch=2 n=54 v=80
45072 Off ch=2 n=54 v=64
45120 On ch=2 n=49 v=80
45336 Off ch=2 n=49 v=64
45360 On ch=2 n=56 v=80
45576 Off ch=2 n=56 v=64
45600 On ch=2 n=60 v=80
46032 Off ch=2 n=60 v=64
46079 Par ch=2 c=64 v=127
46080 On ch=2 n=46 v=80
46296 Off ch=2 n=46 v=64
46320 On ch=2 n=53 v=80
46536 Off ch=2 n=53 v=64
46560 On ch=2 n=56 v=80
46992 Off ch=2 n=56 v=64
47040 On ch=2 n=42 v=80
47256 Off ch=2 n=42 v=64
47280 On ch=2 n=49 v=80
47496 Off ch=2 n=49 v=64
47520 On ch=2 n=53 v=80
47952 Off ch=2 n=53 v=64
47956 Par ch=2 c=64 v=127
48000 On ch=2 n=44 v=80
48216 Off ch=2 n=44 v=64
48240 On ch=2 n=51 v=80
48456 Off ch=2 n=51 v=64
48480 On ch=2 n=54 v=80
48912 Off ch=2 n=54 v=64
48960 On ch=2 n=49 v=80
49176 Off ch=2 n=49 v=64
49200 On ch=2 n=56 v=80
49416 Off ch=2 n=56 v=64
49440 On ch=2 n=60 v=80
49872 Off ch=2 n=60 v=64
49919 Par ch=2 c=64 v=127
49920 On ch=2 n=46 v=80
50136 Off ch=2 n=46 v=64
50160 On ch=2 n=53 v=80
50376 Off ch=2 n=53 v=64
50400 On ch=2 n=56 v=80
50832 Off ch=2 n=56 v=64
50880 On ch=2 n=42 v=80
51096 Off ch=2 n=42 v=64
51120 On ch=2 n=49 v=80
51336 Off ch=2 n=49 v=64
51360 On ch=2 n=53 v=80
51792 Off ch=2 n=53 v=64
51807 Par ch=2 c=64 v=127
51840 On ch=2 n=44 v=80
52056 Off ch=2 n=44 v=64
52080 On ch=2 n=51 v=80
52296 Off ch=2 n=51 v=64
52320 On ch=2 n=54 v=80
52752 Off ch=2 n=54 v=64
52800 On ch=2 n=49 v=80
53016 Off ch=2 n=49 v=64
53040 On ch=2 n=56 v=80
53256 Off ch=2 n=56 v=64
53280 On ch=2 n=60 v=80
53712 Off ch=2 n=60 v=64
53759 Par ch=2 c=64 v=127
53760 On ch=2 n=46 v=80
53976 Off ch=2 n=46 v=64
54000 On ch=2 n=53 v=80
54216 Off ch=2 n=53 v=64
54240 On ch=2 n=56 v=80
54672 Off ch=2 n=56 v=64
54720 On ch=2 n=42 v=80
54936 Off ch=2 n=42 v=64
54960 On ch=2 n=49 v=80
55176 Off ch=2 n=49 v=64
55200 On ch=2 n=53 v=80
55632 Off ch=2 n=53 v=64
55633 Par ch=2 c=64 v=127
55680 On ch=2 n=44 v=80
55896 Off ch=2 n=44 v=64
55920 On ch=2 n=51 v=80
56136 Off ch=2 n=51 v=64
56160 On ch=2 n=54 v=80
56592 Off ch=2 n=54 v=64
56640 On ch=2 n=49 v=80
56856 Off ch=2 n=49 v=64
56880 On ch=2 n=56 v=80
57096 Off ch=2 n=56 v=64
57120 On ch=2 n=60 v=80
57552 Off ch=2 n=60 v=64
57599 Par ch=2 c=64 v=127
57600 On ch=2 n=46 v=80
57816 Off ch=2 n=46 v=64
57840 On ch=2 n=53 v=80
58056 Off ch=2 n=53 v=64
58080 On ch=2 n=56 v=80
58512 Off ch=2 n=56 v=64
58560 On ch=2 n=42 v=80
58776 Off ch=2 n=42 v=64
58800 On ch=2 n=49 v=80
59016 Off ch=2 n=49 v=64
59040 On ch=2 n=53 v=80
59471 Par ch=2 c=64 v=127
59472 Off ch=2 n=53 v=64
59520 On ch=2 n=44 v=80
59736 Off ch=2 n=44 v=64
59760 On ch=2 n=51 v=80
59976 Off ch=2 n=51 v=64
60000 On ch=2 n=54 v=80
60432 Off ch=2 n=54 v=64
60480 On ch=2 n=49 v=80
60696 Off ch=2 n=49 v=64
60720 On ch=2 n=56 v=80
60936 Off ch=2 n=56 v=64
60960 On ch=2 n=60 v=80
61392 Off ch=2 n=60 v=64
61439 Par ch=2 c=64 v=127
61440 On ch=2 n=46 v=80
61656 Off ch=2 n=46 v=64
61680 On ch=2 n=53 v=80
61896 Off ch=2 n=53 v=64
61920 On ch=2 n=56 v=80
62136 Off ch=2 n=56 v=64
62160 On ch=2 n=53 v=80
62376 Off ch=2 n=53 v=64
62400 On ch=2 n=42 v=80
62616 Off ch=2 n=42 v=64
62640 On ch=2 n=49 v=80
62856 Off ch=2 n=49 v=64
62880 On ch=2 n=53 v=80
63096 Off ch=2 n=53 v=64
63120 On ch=2 n=49 v=80
63336 Off ch=2 n=49 v=64
63355 Par ch=2 c=64 v=127
63360 On ch=2 n=44 v=80
63576 Off ch=2 n=44 v=64
63600 On ch=2 n=51 v=80
63816 Off ch=2 n=51 v=64
63840 On ch=2 n=54 v=80
64056 Off ch=2 n=54 v=64
64080 On ch=2 n=51 v=80
64296 Off ch=2 n=51 v=64
64320 On ch=2 n=49 v=80
64536 Off ch=2 n=49 v=64
64560 On ch=2 n=56 v=80
64776 Off ch=2 n=56 v=64
64800 On ch=2 n=60 v=80
65016 Off ch=2 n=60 v=64
65040 On ch=2 n=56 v=80
65256 Off ch=2 n=56 v=64
65279 Par ch=2 c=64 v=127
65280 On ch=2 n=46 v=80
65280 Par ch=2 c=64 v=127
65496 Off ch=2 n=46 v=64
65520 On ch=2 n=53 v=80
65736 Off ch=2 n=53 v=64
65760 On ch=2 n=56 v=80
65976 Off ch=2 n=56 v=64
66000 On ch=2 n=53 v=80
66216 Off ch=2 n=53 v=64
66240 On ch=2 n=42 v=80
66456 Off ch=2 n=42 v=64
66480 On ch=2 n=49 v=80
66696 Off ch=2 n=49 v=64
66720 On ch=2 n=53 v=80
66936 Off ch=2 n=53 v=64
66960 On ch=2 n=49 v=80
67176 Off ch=2 n=49 v=64
67199 Par ch=2 c=64 v=127
67200 On ch=2 n=44 v=80
67416 Off ch=2 n=44 v=64
67440 On ch=2 n=51 v=80
67656 Off ch=2 n=51 v=64
67680 On ch=2 n=54 v=80
67896 Off ch=2 n=54 v=64
67920 On ch=2 n=51 v=80
68136 Off ch=2 n=51 v=64
68160 On ch=2 n=49 v=80
68376 Off ch=2 n=49 v=64
68400 On ch=2 n=56 v=80
68616 Off ch=2 n=56 v=64
68640 On ch=2 n=60 v=80
68856 Off ch=2 n=60 v=64
68880 On ch=2 n=56 v=80
69096 Off ch=2 n=56 v=64
69119 Par ch=2 c=64 v=127
69120 On ch=2 n=46 v=80
69336 Off ch=2 n=46 v=64
69360 On ch=2 n=53 v=80
69576 Off ch=2 n=53 v=64
69600 On ch=2 n=56 v=80
69816 Off ch=2 n=56 v=64
69840 On ch=2 n=53 v=80
70056 Off ch=2 n=53 v=64
70080 On ch=2 n=42 v=80
70296 Off ch=2 n=42 v=64
70320 On ch=2 n=49 v=80
70536 Off ch=2 n=49 v=64
70560 On ch=2 n=53 v=80
70776 Off ch=2 n=53 v=64
70800 On ch=2 n=49 v=80
71016 Off ch=2 n=49 v=64
71039 Par ch=2 c=64 v=127
71040 On ch=2 n=44 v=80
71256 Off ch=2 n=44 v=64
71280 On ch=2 n=51 v=80
71496 Off ch=2 n=51 v=64
71520 On ch=2 n=54 v=80
71736 Off ch=2 n=54 v=64
71760 On ch=2 n=51 v=80
71976 Off ch=2 n=51 v=64
72000 On ch=2 n=49 v=80
72216 Off ch=2 n=49 v=64
72240 On ch=2 n=56 v=80
72456 Off ch=2 n=56 v=64
72480 On ch=2 n=60 v=80
72696 Off ch=2 n=60 v=64
72720 On ch=2 n=56 v=80
72936 Off ch=2 n=56 v=64
72959 Par ch=2 c=64 v=127
72960 On ch=2 n=46 v=80
73176 Off ch=2 n=46 v=64
73200 On ch=2 n=53 v=80
73416 Off ch=2 n=53 v=64
73440 On ch=2 n=56 v=80
73656 Off ch=2 n=56 v=64
73680 On ch=2 n=53 v=80
73896 Off ch=2 n=53 v=64
73920 On ch=2 n=42 v=80
74136 Off ch=2 n=42 v=64
74160 On ch=2 n=49 v=80
74376 Off ch=2 n=49 v=64
74400 On ch=2 n=53 v=80
74616 Off ch=2 n=53 v=64
74640 On ch=2 n=49 v=80
74856 Off ch=2 n=49 v=64
74879 Par ch=2 c=64 v=127
74880 On ch=2 n=44 v=80
75096 Off ch=2 n=44 v=64
75120 On ch=2 n=51 v=80
75336 Off ch=2 n=51 v=64
75360 On ch=2 n=54 v=80
75576 Off ch=2 n=54 v=64
75600 On ch=2 n=51 v=80
75816 Off ch=2 n=51 v=64
75840 On ch=2 n=49 v=80
76056 Off ch=2 n=49 v=64
76080 On ch=2 n=56 v=80
76296 Off ch=2 n=56 v=64
76320 On ch=2 n=60 v=80
76536 Off ch=2 n=60 v=64
76560 On ch=2 n=56 v=80
76776 Off ch=2 n=56 v=64
76800 On ch=2 n=46 v=80
77016 Off ch=2 n=46 v=64
77040 On ch=2 n=53 v=80
77256 Off ch=2 n=53 v=64
77280 On ch=2 n=56 v=80
77496 Off ch=2 n=56 v=64
77520 On ch=2 n=53 v=80
77736 Off ch=2 n=53 v=64
77760 On ch=2 n=42 v=80
77976 Off ch=2 n=42 v=64
78000 On ch=2 n=49 v=80
78216 Off ch=2 n=49 v=64
78240 On ch=2 n=53 v=80
78456 Off ch=2 n=53 v=64
78480 On ch=2 n=49 v=80
78696 Off ch=2 n=49 v=64
78720 On ch=2 n=44 v=80
78720 Par ch=2 c=64 v=127
78936 Off ch=2 n=44 v=64
78960 On ch=2 n=51 v=80
79176 Off ch=2 n=51 v=64
79200 On ch=2 n=54 v=80
79416 Off ch=2 n=54 v=64
79440 On ch=2 n=51 v=80
79656 Off ch=2 n=51 v=64
79680 On ch=2 n=49 v=80
79896 Off ch=2 n=49 v=64
79920 On ch=2 n=56 v=80
80136 Off ch=2 n=56 v=64
80160 On ch=2 n=60 v=80
80376 Off ch=2 n=60 v=64
80400 On ch=2 n=56 v=80
80616 Off ch=2 n=56 v=64
80640 On ch=2 n=46 v=80
80856 Off ch=2 n=46 v=64
80880 On ch=2 n=53 v=80
80880 Par ch=2 c=64 v=127
81096 Off ch=2 n=53 v=64
81120 On ch=2 n=56 v=80
81336 Off ch=2 n=56 v=64
81360 On ch=2 n=53 v=80
81576 Off ch=2 n=53 v=64
81600 On ch=2 n=42 v=80
81816 Off ch=2 n=42 v=64
81840 On ch=2 n=49 v=80
81840 Par ch=2 c=64 v=127
82056 Off ch=2 n=49 v=64
82080 On ch=2 n=53 v=80
82296 Off ch=2 n=53 v=64
82320 On ch=2 n=49 v=80
82536 Off ch=2 n=49 v=64
82560 On ch=2 n=44 v=80
82560 Par ch=2 c=64 v=127
82776 Off ch=2 n=44 v=64
82800 On ch=2 n=51 v=80
83016 Off ch=2 n=51 v=64
83040 On ch=2 n=54 v=80
83256 Off ch=2 n=54 v=64
83280 On ch=2 n=51 v=80
83496 Off ch=2 n=51 v=64
83520 On ch=2 n=49 v=80
83736 Off ch=2 n=49 v=64
83760 On ch=2 n=56 v=80
83976 Off ch=2 n=56 v=64
84000 On ch=2 n=60 v=80
84216 Off ch=2 n=60 v=64
84240 On ch=2 n=56 v=80
84456 Off ch=2 n=56 v=64
84480 On ch=2 n=46 v=80
84480 Par ch=2 c=64 v=127
84696 Off ch=2 n=46 v=64
84720 On ch=2 n=53 v=80
84936 Off ch=2 n=53 v=64
84960 On ch=2 n=56 v=80
85176 Off ch=2 n=56 v=64
85200 On ch=2 n=53 v=80
85416 Off ch=2 n=53 v=64
85440 On ch=2 n=42 v=80
85656 Off ch=2 n=42 v=64
85680 On ch=2 n=49 v=80
85896 Off ch=2 n=49 v=64
85920 On ch=2 n=53 v=80
86136 Off ch=2 n=53 v=64
86160 On ch=2 n=49 v=80
86376 Off ch=2 n=49 v=64
86400 On ch=2 n=44 v=80
86454 Par ch=2 c=64 v=127
86616 Off ch=2 n=44 v=64
86640 On ch=2 n=51 v=80
86856 Off ch=2 n=51 v=64
86880 On ch=2 n=54 v=80
87096 Off ch=2 n=54 v=64
87120 On ch=2 n=51 v=80
87336 Off ch=2 n=51 v=64
87360 On ch=2 n=49 v=80
87576 Off ch=2 n=49 v=64
87600 On ch=2 n=56 v=80
87816 Off ch=2 n=56 v=64
87840 On ch=2 n=60 v=80
88056 Off ch=2 n=60 v=64
88080 On ch=2 n=56 v=80
88296 Off ch=2 n=56 v=64
88320 On ch=2 n=46 v=80
88536 Off ch=2 n=46 v=64
88560 On ch=2 n=53 v=80
88560 Par ch=2 c=64 v=127
88776 Off ch=2 n=53 v=64
88800 On ch=2 n=56 v=80
89016 Off ch=2 n=56 v=64
89040 On ch=2 n=53 v=80
89256 Off ch=2 n=53 v=64
89280 On ch=2 n=42 v=80
89496 Off ch=2 n=42 v=64
89520 On ch=2 n=49 v=80
89736 Off ch=2 n=49 v=64
89760 On ch=2 n=53 v=80
89976 Off ch=2 n=53 v=64
90000 On ch=2 n=49 v=80
90216 Off ch=2 n=49 v=64
90240 On ch=2 n=44 v=80
90456 Off ch=2 n=44 v=64
90480 On ch=2 n=51 v=80
90480 Par ch=2 c=64 v=127
90696 Off ch=2 n=51 v=64
90720 On ch=2 n=54 v=80
90936 Off ch=2 n=54 v=64
90960 On ch=2 n=51 v=80
91176 Off ch=2 n=51 v=64
91200 On ch=2 n=49 v=80
91416 Off ch=2 n=49 v=64
91440 On ch=2 n=56 v=80
91656 Off ch=2 n=56 v=64
91680 On ch=2 n=60 v=80
91896 Off ch=2 n=60 v=64
91920 On ch=2 n=56 v=80
92136 Off ch=2 n=56 v=64
92160 On ch=2 n=46 v=80
92376 Off ch=2 n=46 v=64
92400 On ch=2 n=53 v=80
92616 Off ch=2 n=53 v=64
92640 On ch=2 n=56 v=80
92856 Off ch=2 n=56 v=64
92880 On ch=2 n=53 v=80
93096 Off ch=2 n=53 v=64
93120 On ch=2 n=42 v=80
93336 Off ch=2 n=42 v=64
93360 On ch=2 n=49 v=80
93576 Off ch=2 n=49 v=64
93600 On ch=2 n=53 v=80
93816 Off ch=2 n=53 v=64
93840 On ch=2 n=49 v=80
94056 Off ch=2 n=49 v=64
94080 On ch=2 n=44 v=80
94296 Off ch=2 n=44 v=64
94320 On ch=2 n=51 v=80
94536 Off ch=2 n=51 v=64
94560 On ch=2 n=54 v=80
94776 Off ch=2 n=54 v=64
94800 On ch=2 n=51 v=80
95016 Off ch=2 n=51 v=64
95040 On ch=2 n=49 v=80
95256 Off ch=2 n=49 v=64
95280 On ch=2 n=56 v=80
95496 Off ch=2 n=56 v=64
95520 On ch=2 n=60 v=80
95736 Off ch=2 n=60 v=64
95760 On ch=2 n=56 v=80
95976 Off ch=2 n=56 v=64
96000 On ch=2 n=46 v=80
96216 Off ch=2 n=46 v=64
96240 On ch=2 n=53 v=80
96456 Off ch=2 n=53 v=64
96480 On ch=2 n=56 v=80
96696 Off ch=2 n=56 v=64
96720 On ch=2 n=53 v=80
96936 Off ch=2 n=53 v=64
96960 On ch=2 n=42 v=80
97176 Off ch=2 n=42 v=64
97200 On ch=2 n=49 v=80
97416 Off ch=2 n=49 v=64
97440 On ch=2 n=53 v=80
97656 Off ch=2 n=53 v=64
97680 On ch=2 n=49 v=80
97896 Off ch=2 n=49 v=64
97920 On ch=2 n=44 v=80
98136 Off ch=2 n=44 v=64
98160 On ch=2 n=51 v=80
98376 Off ch=2 n=51 v=64
98400 On ch=2 n=54 v=80
98616 Off ch=2 n=54 v=64
98640 On ch=2 n=51 v=80
98856 Off ch=2 n=51 v=64
98880 On ch=2 n=49 v=80
99096 Off ch=2 n=49 v=64
99120 On ch=2 n=56 v=80
99336 Off ch=2 n=56 v=64
99360 On ch=2 n=60 v=80
99576 Off ch=2 n=60 v=64
99600 On ch=2 n=56 v=80
99816 Off ch=2 n=56 v=64
99840 On ch=2 n=46 v=80
100056 Off ch=2 n=46 v=64
100080 On ch=2 n=53 v=80
100296 Off ch=2 n=53 v=64
100320 On ch=2 n=56 v=80
100536 Off ch=2 n=56 v=64
100560 On ch=2 n=53 v=80
100776 Off ch=2 n=53 v=64
100800 On ch=2 n=42 v=80
101016 Off ch=2 n=42 v=64
101040 On ch=2 n=49 v=80
101256 Off ch=2 n=49 v=64
101280 On ch=2 n=53 v=80
101496 Off ch=2 n=53 v=64
101520 On ch=2 n=49 v=80
101736 Off ch=2 n=49 v=64
101760 On ch=2 n=44 v=80
101976 Off ch=2 n=44 v=64
102000 On ch=2 n=51 v=80
102216 Off ch=2 n=51 v=64
102240 On ch=2 n=54 v=80
102456 Off ch=2 n=54 v=64
102480 On ch=2 n=51 v=80
102696 Off ch=2 n=51 v=64
102720 On ch=2 n=49 v=80
102936 Off ch=2 n=49 v=64
102960 On ch=2 n=56 v=80
103176 Off ch=2 n=56 v=64
103200 On ch=2 n=60 v=80
103416 Off ch=2 n=60 v=64
103440 On ch=2 n=56 v=80
103656 Off ch=2 n=56 v=64
103680 On ch=2 n=46 v=80
103896 Off ch=2 n=46 v=64
103920 On ch=2 n=53 v=80
104136 Off ch=2 n=53 v=64
104160 On ch=2 n=56 v=80
104376 Off ch=2 n=56 v=64
104400 On ch=2 n=53 v=80
104616 Off ch=2 n=53 v=64
104640 On ch=2 n=42 v=80
104856 Off ch=2 n=42 v=64
104880 On ch=2 n=49 v=80
105096 Off ch=2 n=49 v=64
105120 On ch=2 n=53 v=80
105336 Off ch=2 n=53 v=64
105360 On ch=2 n=49 v=80
105576 Off ch=2 n=49 v=64
105600 On ch=2 n=44 v=80
105816 Off ch=2 n=44 v=64
105840 On ch=2 n=51 v=80
106056 Off ch=2 n=51 v=64
106080 On ch=2 n=54 v=80
106296 Off ch=2 n=54 v=64
106320 On ch=2 n=51 v=80
106536 Off ch=2 n=51 v=64
106560 On ch=2 n=49 v=80
106776 Off ch=2 n=49 v=64
106800 On ch=2 n=56 v=80
107016 Off ch=2 n=56 v=64
107040 On ch=2 n=60 v=80
107256 Off ch=2 n=60 v=64
107280 On ch=2 n=56 v=80
107496 Off ch=2 n=56 v=64
107520 On ch=2 n=46 v=80
107736 Off ch=2 n=46 v=64
107760 On ch=2 n=53 v=80
107976 Off ch=2 n=53 v=64
108000 On ch=2 n=56 v=80
108216 Off ch=2 n=56 v=64
108240 On ch=2 n=53 v=80
108456 Off ch=2 n=53 v=64
108480 On ch=2 n=42 v=80
108696 Off ch=2 n=42 v=64
108720 On ch=2 n=49 v=80
108936 Off ch=2 n=49 v=64
108960 On ch=2 n=53 v=80
109176 Off ch=2 n=53 v=64
109200 On ch=2 n=49 v=80
109416 Off ch=2 n=49 v=64
109440 On ch=2 n=44 v=80
109656 Off ch=2 n=44 v=64
109680 On ch=2 n=51 v=80
109896 Off ch=2 n=51 v=64
109920 On ch=2 n=54 v=80
110136 Off ch=2 n=54 v=64
110160 On ch=2 n=51 v=80
110376 Off ch=2 n=51 v=64
110400 On ch=2 n=49 v=80
110616 Off ch=2 n=49 v=64
110640 On ch=2 n=56 v=80
110856 Off ch=2 n=56 v=64
110880 On ch=2 n=60 v=80
111096 Off ch=2 n=60 v=64
111120 On ch=2 n=56 v=80
111336 Off ch=2 n=56 v=64
111360 On ch=2 n=46 v=80
111576 Off ch=2 n=46 v=64
111600 On ch=2 n=53 v=80
111816 Off ch=2 n=53 v=64
111840 On ch=2 n=56 v=80
112056 Off ch=2 n=56 v=64
112080 On ch=2 n=53 v=80
112296 Off ch=2 n=53 v=64
112320 On ch=2 n=42 v=80
112536 Off ch=2 n=42 v=64
112560 On ch=2 n=49 v=80
112776 Off ch=2 n=49 v=64
112800 On ch=2 n=53 v=80
113016 Off ch=2 n=53 v=64
113040 On ch=2 n=49 v=80
113256 Off ch=2 n=49 v=64
113280 On ch=2 n=44 v=80
113496 Off ch=2 n=44 v=64
113520 On ch=2 n=51 v=80
113736 Off ch=2 n=51 v=64
113760 On ch=2 n=54 v=80
113976 Off ch=2 n=54 v=64
114000 On ch=2 n=51 v=80
114216 Off ch=2 n=51 v=64
114240 On ch=2 n=49 v=80
114456 Off ch=2 n=49 v=64
114480 On ch=2 n=56 v=80
114696 Off ch=2 n=56 v=64
114720 On ch=2 n=60 v=80
114936 Off ch=2 n=60 v=64
114960 On ch=2 n=56 v=80
115176 Off ch=2 n=56 v=64
115200 On ch=2 n=46 v=80
115416 Off ch=2 n=46 v=64
115440 On ch=2 n=53 v=80
115656 Off ch=2 n=53 v=64
115680 On ch=2 n=56 v=80
115896 Off ch=2 n=56 v=64
115920 On ch=2 n=53 v=80
116136 Off ch=2 n=53 v=64
116160 On ch=2 n=42 v=80
116376 Off ch=2 n=42 v=64
116400 On ch=2 n=49 v=80
116616 Off ch=2 n=49 v=64
116640 On ch=2 n=53 v=80
116856 Off ch=2 n=53 v=64
116880 On ch=2 n=49 v=80
117096 Off ch=2 n=49 v=64
117120 On ch=2 n=44 v=80
117336 Off ch=2 n=44 v=64
117360 On ch=2 n=51 v=80
117576 Off ch=2 n=51 v=64
117600 On ch=2 n=54 v=80
117816 Off ch=2 n=54 v=64
117840 On ch=2 n=51 v=80
118056 Off ch=2 n=51 v=64
118080 On ch=2 n=49 v=80
118296 Off ch=2 n=49 v=64
118320 On ch=2 n=56 v=80
118536 Off ch=2 n=56 v=64
118560 On ch=2 n=60 v=80
118776 Off ch=2 n=60 v=64
118800 On ch=2 n=56 v=80
119016 Off ch=2 n=56 v=64
119040 On ch=2 n=46 v=80
119256 Off ch=2 n=46 v=64
119280 On ch=2 n=53 v=80
119496 Off ch=2 n=53 v=64
119520 On ch=2 n=56 v=80
119736 Off ch=2 n=56 v=64
119760 On ch=2 n=53 v=80
119976 Off ch=2 n=53 v=64
120000 On ch=2 n=42 v=80
120216 Off ch=2 n=42 v=64
120240 On ch=2 n=49 v=80
120456 Off ch=2 n=49 v=64
120480 On ch=2 n=53 v=80
120696 Off ch=2 n=53 v=64
120720 On ch=2 n=49 v=80
120936 Off ch=2 n=49 v=64
120960 On ch=2 n=44 v=80
121176 Off ch=2 n=44 v=64
121200 On ch=2 n=51 v=80
121416 Off ch=2 n=51 v=64
121440 On ch=2 n=54 v=80
121656 Off ch=2 n=54 v=64
121680 On ch=2 n=51 v=80
121896 Off ch=2 n=51 v=64
121920 On ch=2 n=49 v=80
122136 Off ch=2 n=49 v=64
122160 On ch=2 n=56 v=80
122376 Off ch=2 n=56 v=64
122400 On ch=2 n=60 v=80
122616 Off ch=2 n=60 v=64
122640 On ch=2 n=56 v=80
122856 Off ch=2 n=56 v=64
122880 On ch=2 n=46 v=80
123096 Off ch=2 n=46 v=64
123120 On ch=2 n=53 v=80
123336 Off ch=2 n=53 v=64
123360 On ch=2 n=56 v=80
123576 Off ch=2 n=56 v=64
123600 On ch=2 n=53 v=80
123816 Off ch=2 n=53 v=64
123840 On ch=2 n=42 v=80
124056 Off ch=2 n=42 v=64
124080 On ch=2 n=49 v=80
124296 Off ch=2 n=49 v=64
124320 On ch=2 n=53 v=80
124536 Off ch=2 n=53 v=64
124560 On ch=2 n=49 v=80
124776 Off ch=2 n=49 v=64
124800 On ch=2 n=44 v=80
125016 Off ch=2 n=44 v=64
125040 On ch=2 n=51 v=80
125256 Off ch=2 n=51 v=64
125280 On ch=2 n=54 v=80
125496 Off ch=2 n=54 v=64
125520 On ch=2 n=51 v=80
125736 Off ch=2 n=51 v=64
125760 On ch=2 n=49 v=80
125976 Off ch=2 n=49 v=64
126000 On ch=2 n=56 v=80
126216 Off ch=2 n=56 v=64
126240 On ch=2 n=60 v=80
126456 Off ch=2 n=60 v=64
126480 On ch=2 n=56 v=80
126696 Off ch=2 n=56 v=64
126720 On ch=2 n=46 v=80
126936 Off ch=2 n=46 v=64
126960 On ch=2 n=53 v=80
127176 Off ch=2 n=53 v=64
127200 On ch=2 n=56 v=80
127416 Off ch=2 n=56 v=64
127440 On ch=2 n=53 v=80
127656 Off ch=2 n=53 v=64
127680 On ch=2 n=42 v=80
127896 Off ch=2 n=42 v=64
127920 On ch=2 n=49 v=80
128136 Off ch=2 n=49 v=64
128160 On ch=2 n=53 v=80
128376 Off ch=2 n=53 v=64
128400 On ch=2 n=49 v=80
128616 Off ch=2 n=49 v=64
128640 On ch=2 n=44 v=80
128856 Off ch=2 n=44 v=64
128880 On ch=2 n=51 v=80
129096 Off ch=2 n=51 v=64
129120 On ch=2 n=54 v=80
129336 Off ch=2 n=54 v=64
129360 On ch=2 n=51 v=80
129576 Off ch=2 n=51 v=64
129600 On ch=2 n=49 v=80
129816 Off ch=2 n=49 v=64
129840 On ch=2 n=56 v=80
130056 Off ch=2 n=56 v=64
130080 On ch=2 n=60 v=80
130296 Off ch=2 n=60 v=64
130320 On ch=2 n=56 v=80
130536 Off ch=2 n=56 v=64
130560 On ch=2 n=46 v=80
130776 Off ch=2 n=46 v=64
130800 On ch=2 n=53 v=80
131016 Off ch=2 n=53 v=64
131040 On ch=2 n=56 v=80
131256 Off ch=2 n=56 v=64
131280 On ch=2 n=53 v=80
131496 Off ch=2 n=53 v=64
131520 On ch=2 n=42 v=80
131736 Off ch=2 n=42 v=64
131760 On ch=2 n=49 v=80
131976 Off ch=2 n=49 v=64
132000 On ch=2 n=53 v=80
132216 Off ch=2 n=53 v=64
132240 On ch=2 n=49 v=80
132456 Off ch=2 n=49 v=64
132480 On ch=2 n=44 v=80
132696 Off ch=2 n=44 v=64
132720 On ch=2 n=51 v=80
132936 Off ch=2 n=51 v=64
132960 On ch=2 n=54 v=80
133176 Off ch=2 n=54 v=64
133200 On ch=2 n=51 v=80
133416 Off ch=2 n=51 v=64
133440 On ch=2 n=49 v=80
133656 Off ch=2 n=49 v=64
133680 On ch=2 n=56 v=80
133896 Off ch=2 n=56 v=64
133920 On ch=2 n=60 v=80
134136 Off ch=2 n=60 v=64
134160 On ch=2 n=56 v=80
134376 Off ch=2 n=56 v=64
134400 On ch=2 n=46 v=80
134616 Off ch=2 n=46 v=64
134640 On ch=2 n=53 v=80
134856 Off ch=2 n=53 v=64
134880 On ch=2 n=56 v=80
135096 Off ch=2 n=56 v=64
135120 On ch=2 n=53 v=80
135336 Off ch=2 n=53 v=64
135360 On ch=2 n=42 v=80
135576 Off ch=2 n=42 v=64
135600 On ch=2 n=49 v=80
135816 Off ch=2 n=49 v=64
135840 On ch=2 n=53 v=80
136056 Off ch=2 n=53 v=64
136080 On ch=2 n=49 v=80
136296 Off ch=2 n=49 v=64
136320 On ch=2 n=44 v=80
136536 Off ch=2 n=44 v=64
136560 On ch=2 n=51 v=80
136776 Off ch=2 n=51 v=64
136800 On ch=2 n=54 v=80
137016 Off ch=2 n=54 v=64
137040 On ch=2 n=51 v=80
137256 Off ch=2 n=51 v=64
137280 On ch=2 n=49 v=80
137496 Off ch=2 n=49 v=64
137520 On ch=2 n=56 v=80
137736 Off ch=2 n=56 v=64
137760 On ch=2 n=60 v=80
137976 Off ch=2 n=60 v=64
138000 On ch=2 n=56 v=80
138216 Off ch=2 n=56 v=64
138240 On ch=2 n=46 v=80
138456 Off ch=2 n=46 v=64
138480 On ch=2 n=53 v=80
138696 Off ch=2 n=53 v=64
138720 On ch=2 n=56 v=80
138936 Off ch=2 n=56 v=64
138960 On ch=2 n=53 v=80
139176 Off ch=2 n=53 v=64
139200 On ch=2 n=42 v=80
139416 Off ch=2 n=42 v=64
139440 On ch=2 n=49 v=80
139656 Off ch=2 n=49 v=64
139680 On ch=2 n=53 v=80
139896 Off ch=2 n=53 v=64
139920 On ch=2 n=49 v=80
140136 Off ch=2 n=49 v=64
140160 On ch=2 n=44 v=80
140376 Off ch=2 n=44 v=64
140400 On ch=2 n=51 v=80
140616 Off ch=2 n=51 v=64
140640 On ch=2 n=54 v=80
140856 Off ch=2 n=54 v=64
140880 On ch=2 n=51 v=80
141096 Off ch=2 n=51 v=64
141120 On ch=2 n=49 v=80
141336 Off ch=2 n=49 v=64
141360 On ch=2 n=56 v=80
141576 Off ch=2 n=56 v=64
141600 On ch=2 n=60 v=80
141816 Off ch=2 n=60 v=64
141840 On ch=2 n=56 v=80
142056 Off ch=2 n=56 v=64
142080 On ch=2 n=46 v=80
142296 Off ch=2 n=46 v=64
142320 On ch=2 n=53 v=80
142536 Off ch=2 n=53 v=64
142560 On ch=2 n=56 v=80
142776 Off ch=2 n=56 v=64
142800 On ch=2 n=53 v=80
143016 Off ch=2 n=53 v=64
143040 On ch=2 n=42 v=80
143256 Off ch=2 n=42 v=64
143280 On ch=2 n=49 v=80
143496 Off ch=2 n=49 v=64
143520 On ch=2 n=53 v=80
143736 Off ch=2 n=53 v=64
143760 On ch=2 n=49 v=80
143976 Off ch=2 n=49 v=64
144000 On ch=2 n=44 v=80
144216 Off ch=2 n=44 v=64
144240 On ch=2 n=51 v=80
144456 Off ch=2 n=51 v=64
144480 On ch=2 n=54 v=80
144696 Off ch=2 n=54 v=64
144720 On ch=2 n=51 v=80
144936 Off ch=2 n=51 v=64
144960 On ch=2 n=49 v=80
145068 Off ch=2 n=49 v=64
145080 On ch=2 n=56 v=80
145188 Off ch=2 n=56 v=64
145200 On ch=2 n=61 v=80
145308 Off ch=2 n=61 v=64
147840 Meta TrkEnd
TrkEnd
]]

end