PLUGIN.Name = "UMINEKO PATTERN"
PLUGIN.DefaultOn = false
PLUGIN.Description = ""
PLUGIN.Trigger = true

function PLUGIN:Load()
//GUNSTRUMENTAL_CH1 = {"7", "8"} 
//GUNSTRUMENTAL_CH2 = {"12", "13", "11", "5"} 
GUNSTRUMENTAL_CH1 = "1"
GUNSTRUMENTAL_CH2 = "2"
GUNSTRUMENTAL_DELAYBASE = 96
GUNSTRUMENTAL_NODELAYFILTER = true
GUNSTRUMENTAL_TAB = [[MFile 0 1 480
MTrk
0 Meta TrkName ""
0 TimeSig 3/4 24 8
0 KeySig 3 major
0 Tempo 272603
0 Par ch=1 c=11 v=127
0 Par ch=1 c=7 v=100
0 Par ch=1 c=93 v=0
0 Par ch=1 c=91 v=40
0 Par ch=1 c=10 v=64
0 Par ch=1 c=0 v=0
0 Par ch=1 c=32 v=3
0 PrCh ch=1 p=1
0 On ch=1 n=74 v=120
0 Par ch=2 c=11 v=127
0 Par ch=2 c=7 v=100
0 Par ch=2 c=93 v=10
0 Par ch=2 c=91 v=40
0 Par ch=2 c=10 v=64
0 Par ch=2 c=0 v=8
0 Par ch=2 c=32 v=3
0 PrCh ch=2 p=0
0 On ch=2 n=47 v=90
0 On ch=2 n=35 v=90
0 On ch=2 n=71 v=90
0 On ch=2 n=66 v=90
0 On ch=2 n=62 v=90
0 Par ch=3 c=11 v=127
0 Par ch=3 c=7 v=100
0 Par ch=3 c=93 v=0
0 Par ch=3 c=91 v=40
0 Par ch=3 c=10 v=64
0 Par ch=4 c=11 v=127
0 Par ch=4 c=7 v=100
0 Par ch=4 c=93 v=0
0 Par ch=4 c=91 v=40
0 Par ch=4 c=10 v=64
0 Par ch=5 c=11 v=127
0 Par ch=5 c=7 v=100
0 Par ch=5 c=93 v=0
0 Par ch=5 c=91 v=40
0 Par ch=5 c=10 v=64
0 Par ch=6 c=11 v=127
0 Par ch=6 c=7 v=100
0 Par ch=6 c=93 v=0
0 Par ch=6 c=91 v=40
0 Par ch=6 c=10 v=64
0 Par ch=7 c=11 v=127
0 Par ch=7 c=7 v=100
0 Par ch=7 c=93 v=0
0 Par ch=7 c=91 v=40
0 Par ch=7 c=10 v=64
0 Par ch=8 c=11 v=127
0 Par ch=8 c=7 v=100
0 Par ch=8 c=93 v=0
0 Par ch=8 c=91 v=40
0 Par ch=8 c=10 v=64
0 Par ch=9 c=11 v=127
0 Par ch=9 c=7 v=100
0 Par ch=9 c=93 v=0
0 Par ch=9 c=91 v=40
0 Par ch=9 c=10 v=64
0 Par ch=10 c=11 v=127
0 Par ch=10 c=7 v=100
0 Par ch=10 c=93 v=0
0 Par ch=10 c=91 v=40
0 Par ch=10 c=10 v=64
0 Par ch=11 c=11 v=127
0 Par ch=11 c=7 v=100
0 Par ch=11 c=93 v=0
0 Par ch=11 c=91 v=40
0 Par ch=11 c=10 v=64
0 Par ch=12 c=11 v=127
0 Par ch=12 c=7 v=100
0 Par ch=12 c=93 v=0
0 Par ch=12 c=91 v=40
0 Par ch=12 c=10 v=64
0 Par ch=13 c=11 v=127
0 Par ch=13 c=7 v=100
0 Par ch=13 c=93 v=0
0 Par ch=13 c=91 v=40
0 Par ch=13 c=10 v=64
0 Par ch=14 c=11 v=127
0 Par ch=14 c=7 v=100
0 Par ch=14 c=93 v=0
0 Par ch=14 c=91 v=40
0 Par ch=14 c=10 v=64
0 Par ch=15 c=11 v=127
0 Par ch=15 c=7 v=100
0 Par ch=15 c=93 v=0
0 Par ch=15 c=91 v=40
0 Par ch=15 c=10 v=64
0 Par ch=16 c=11 v=127
0 Par ch=16 c=7 v=100
0 Par ch=16 c=93 v=0
0 Par ch=16 c=91 v=40
0 Par ch=16 c=10 v=64
432 On ch=1 n=74 v=0
432 On ch=2 n=47 v=0
432 On ch=2 n=35 v=0
432 On ch=2 n=71 v=0
432 On ch=2 n=66 v=0
432 On ch=2 n=62 v=0
720 On ch=1 n=74 v=120
720 On ch=2 n=47 v=90
720 On ch=2 n=35 v=90
720 On ch=2 n=71 v=90
720 On ch=2 n=66 v=90
720 On ch=2 n=62 v=90
1152 On ch=1 n=74 v=0
1152 On ch=2 n=47 v=0
1152 On ch=2 n=35 v=0
1152 On ch=2 n=71 v=0
1152 On ch=2 n=66 v=0
1152 On ch=2 n=62 v=0
1440 On ch=1 n=71 v=110
1440 On ch=2 n=47 v=90
1440 On ch=2 n=35 v=90
1440 On ch=2 n=66 v=90
1440 On ch=2 n=62 v=90
1440 On ch=2 n=59 v=90
1872 On ch=1 n=71 v=0
1872 On ch=2 n=47 v=0
1872 On ch=2 n=35 v=0
1872 On ch=2 n=66 v=0
1872 On ch=2 n=62 v=0
1872 On ch=2 n=59 v=0
1920 On ch=1 n=73 v=110
1920 On ch=2 n=47 v=90
1920 On ch=2 n=35 v=90
1920 On ch=2 n=69 v=90
1920 On ch=2 n=64 v=90
1920 On ch=2 n=61 v=90
2352 On ch=1 n=73 v=0
2352 On ch=2 n=47 v=0
2352 On ch=2 n=35 v=0
2352 On ch=2 n=69 v=0
2352 On ch=2 n=64 v=0
2352 On ch=2 n=61 v=0
2400 On ch=1 n=74 v=110
2400 On ch=2 n=47 v=90
2400 On ch=2 n=35 v=90
2400 On ch=2 n=71 v=90
2400 On ch=2 n=66 v=90
2400 On ch=2 n=62 v=90
2832 On ch=1 n=74 v=0
2832 On ch=2 n=47 v=0
2832 On ch=2 n=35 v=0
2832 On ch=2 n=71 v=0
2832 On ch=2 n=66 v=0
2832 On ch=2 n=62 v=0
2880 On ch=1 n=73 v=120
2880 On ch=2 n=42 v=90
2880 On ch=2 n=30 v=90
2880 On ch=2 n=69 v=90
2880 On ch=2 n=64 v=90
2880 On ch=2 n=61 v=90
3312 On ch=1 n=73 v=0
3312 On ch=2 n=42 v=0
3312 On ch=2 n=30 v=0
3312 On ch=2 n=69 v=0
3312 On ch=2 n=64 v=0
3312 On ch=2 n=61 v=0
3600 On ch=1 n=73 v=120
3600 On ch=2 n=42 v=90
3600 On ch=2 n=30 v=90
3600 On ch=2 n=69 v=90
3600 On ch=2 n=64 v=90
3600 On ch=2 n=61 v=90
4032 On ch=1 n=73 v=0
4032 On ch=2 n=42 v=0
4032 On ch=2 n=30 v=0
4032 On ch=2 n=69 v=0
4032 On ch=2 n=64 v=0
4032 On ch=2 n=61 v=0
4320 On ch=1 n=69 v=110
4320 On ch=2 n=42 v=90
4320 On ch=2 n=30 v=90
4320 On ch=2 n=66 v=90
4320 On ch=2 n=61 v=90
4320 On ch=2 n=57 v=90
4752 On ch=1 n=69 v=0
4752 On ch=2 n=42 v=0
4752 On ch=2 n=30 v=0
4752 On ch=2 n=66 v=0
4752 On ch=2 n=61 v=0
4752 On ch=2 n=57 v=0
4800 On ch=1 n=71 v=110
4800 On ch=2 n=42 v=90
4800 On ch=2 n=30 v=90
4800 On ch=2 n=68 v=90
4800 On ch=2 n=64 v=90
4800 On ch=2 n=59 v=90
5232 On ch=1 n=71 v=0
5232 On ch=2 n=42 v=0
5232 On ch=2 n=30 v=0
5232 On ch=2 n=68 v=0
5232 On ch=2 n=64 v=0
5232 On ch=2 n=59 v=0
5280 On ch=1 n=73 v=110
5280 On ch=2 n=42 v=90
5280 On ch=2 n=30 v=90
5280 On ch=2 n=69 v=90
5280 On ch=2 n=66 v=90
5280 On ch=2 n=61 v=90
5712 On ch=1 n=73 v=0
5712 On ch=2 n=42 v=0
5712 On ch=2 n=30 v=0
5712 On ch=2 n=69 v=0
5712 On ch=2 n=66 v=0
5712 On ch=2 n=61 v=0
5760 On ch=1 n=74 v=120
5760 On ch=2 n=47 v=90
5760 On ch=2 n=35 v=90
5760 On ch=2 n=71 v=90
5760 On ch=2 n=66 v=90
5760 On ch=2 n=62 v=90
6192 On ch=1 n=74 v=0
6192 On ch=2 n=47 v=0
6192 On ch=2 n=35 v=0
6192 On ch=2 n=71 v=0
6192 On ch=2 n=66 v=0
6192 On ch=2 n=62 v=0
6480 On ch=1 n=74 v=120
6480 On ch=2 n=47 v=90
6480 On ch=2 n=35 v=90
6480 On ch=2 n=71 v=90
6480 On ch=2 n=66 v=90
6480 On ch=2 n=62 v=90
6912 On ch=1 n=74 v=0
6912 On ch=2 n=47 v=0
6912 On ch=2 n=35 v=0
6912 On ch=2 n=71 v=0
6912 On ch=2 n=66 v=0
6912 On ch=2 n=62 v=0
7200 On ch=1 n=71 v=110
7200 On ch=2 n=47 v=90
7200 On ch=2 n=35 v=90
7200 On ch=2 n=66 v=90
7200 On ch=2 n=62 v=90
7200 On ch=2 n=59 v=90
7632 On ch=1 n=71 v=0
7632 On ch=2 n=47 v=0
7632 On ch=2 n=35 v=0
7632 On ch=2 n=66 v=0
7632 On ch=2 n=62 v=0
7632 On ch=2 n=59 v=0
7680 On ch=1 n=73 v=110
7680 On ch=2 n=47 v=90
7680 On ch=2 n=35 v=90
7680 On ch=2 n=69 v=90
7680 On ch=2 n=64 v=90
7680 On ch=2 n=61 v=90
8112 On ch=1 n=73 v=0
8112 On ch=2 n=47 v=0
8112 On ch=2 n=35 v=0
8112 On ch=2 n=69 v=0
8112 On ch=2 n=64 v=0
8112 On ch=2 n=61 v=0
8160 On ch=1 n=74 v=110
8160 On ch=2 n=47 v=90
8160 On ch=2 n=35 v=90
8160 On ch=2 n=71 v=90
8160 On ch=2 n=66 v=90
8160 On ch=2 n=62 v=90
8592 On ch=1 n=74 v=0
8592 On ch=2 n=47 v=0
8592 On ch=2 n=35 v=0
8592 On ch=2 n=71 v=0
8592 On ch=2 n=66 v=0
8592 On ch=2 n=62 v=0
8640 On ch=1 n=76 v=110
8640 On ch=2 n=45 v=90
8640 On ch=2 n=33 v=90
8640 On ch=2 n=73 v=90
8640 On ch=2 n=69 v=90
8640 On ch=2 n=64 v=90
9072 On ch=1 n=76 v=0
9072 On ch=2 n=45 v=0
9072 On ch=2 n=33 v=0
9072 On ch=2 n=73 v=0
9072 On ch=2 n=69 v=0
9072 On ch=2 n=64 v=0
9120 On ch=1 n=74 v=110
9120 On ch=2 n=33 v=90
9120 On ch=2 n=71 v=90
9120 On ch=2 n=66 v=90
9120 On ch=2 n=62 v=90
9336 On ch=2 n=33 v=0
9360 On ch=2 n=40 v=90
9552 On ch=1 n=74 v=0
9552 On ch=2 n=71 v=0
9552 On ch=2 n=66 v=0
9552 On ch=2 n=62 v=0
9576 On ch=2 n=40 v=0
9600 On ch=1 n=73 v=110
9600 On ch=2 n=45 v=90
9600 On ch=2 n=69 v=90
9600 On ch=2 n=64 v=90
9600 On ch=2 n=61 v=90
10032 On ch=1 n=73 v=0
10032 On ch=2 n=45 v=0
10032 On ch=2 n=69 v=0
10032 On ch=2 n=64 v=0
10032 On ch=2 n=61 v=0
10080 On ch=1 n=73 v=120
10080 On ch=2 n=40 v=90
10080 On ch=2 n=69 v=90
10080 On ch=2 n=64 v=90
10080 On ch=2 n=61 v=90
10512 On ch=2 n=40 v=0
10560 On ch=2 n=38 v=90
10728 On ch=1 n=73 v=0
10728 On ch=2 n=69 v=0
10728 On ch=2 n=64 v=0
10728 On ch=2 n=61 v=0
10992 On ch=2 n=38 v=0
11040 On ch=2 n=37 v=90
11472 On ch=2 n=37 v=0
11520 On ch=1 n=74 v=120
11520 On ch=2 n=47 v=90
11520 On ch=2 n=35 v=90
11520 On ch=2 n=71 v=90
11520 On ch=2 n=66 v=90
11520 On ch=2 n=62 v=90
11952 On ch=1 n=74 v=0
11952 On ch=2 n=47 v=0
11952 On ch=2 n=35 v=0
11952 On ch=2 n=71 v=0
11952 On ch=2 n=66 v=0
11952 On ch=2 n=62 v=0
12240 On ch=1 n=74 v=120
12240 On ch=2 n=47 v=90
12240 On ch=2 n=35 v=90
12240 On ch=2 n=71 v=90
12240 On ch=2 n=66 v=90
12240 On ch=2 n=62 v=90
12672 On ch=1 n=74 v=0
12672 On ch=2 n=47 v=0
12672 On ch=2 n=35 v=0
12672 On ch=2 n=71 v=0
12672 On ch=2 n=66 v=0
12672 On ch=2 n=62 v=0
12960 On ch=1 n=71 v=110
12960 On ch=2 n=47 v=90
12960 On ch=2 n=35 v=90
12960 On ch=2 n=66 v=90
12960 On ch=2 n=62 v=90
12960 On ch=2 n=59 v=90
13392 On ch=1 n=71 v=0
13392 On ch=2 n=47 v=0
13392 On ch=2 n=35 v=0
13392 On ch=2 n=66 v=0
13392 On ch=2 n=62 v=0
13392 On ch=2 n=59 v=0
13440 On ch=1 n=73 v=110
13440 On ch=2 n=47 v=90
13440 On ch=2 n=35 v=90
13440 On ch=2 n=69 v=90
13440 On ch=2 n=64 v=90
13440 On ch=2 n=61 v=90
13872 On ch=1 n=73 v=0
13872 On ch=2 n=47 v=0
13872 On ch=2 n=35 v=0
13872 On ch=2 n=69 v=0
13872 On ch=2 n=64 v=0
13872 On ch=2 n=61 v=0
13920 On ch=1 n=74 v=110
13920 On ch=2 n=47 v=90
13920 On ch=2 n=35 v=90
13920 On ch=2 n=71 v=90
13920 On ch=2 n=66 v=90
13920 On ch=2 n=62 v=90
14352 On ch=1 n=74 v=0
14352 On ch=2 n=47 v=0
14352 On ch=2 n=35 v=0
14352 On ch=2 n=71 v=0
14352 On ch=2 n=66 v=0
14352 On ch=2 n=62 v=0
14400 On ch=1 n=73 v=120
14400 On ch=2 n=42 v=90
14400 On ch=2 n=30 v=90
14400 On ch=2 n=69 v=90
14400 On ch=2 n=64 v=90
14400 On ch=2 n=61 v=90
14832 On ch=1 n=73 v=0
14832 On ch=2 n=42 v=0
14832 On ch=2 n=30 v=0
14832 On ch=2 n=69 v=0
14832 On ch=2 n=64 v=0
14832 On ch=2 n=61 v=0
15120 On ch=1 n=73 v=120
15120 On ch=2 n=42 v=90
15120 On ch=2 n=30 v=90
15120 On ch=2 n=69 v=90
15120 On ch=2 n=64 v=90
15120 On ch=2 n=61 v=90
15552 On ch=1 n=73 v=0
15552 On ch=2 n=42 v=0
15552 On ch=2 n=30 v=0
15552 On ch=2 n=69 v=0
15552 On ch=2 n=64 v=0
15552 On ch=2 n=61 v=0
15840 On ch=1 n=69 v=110
15840 On ch=2 n=42 v=90
15840 On ch=2 n=30 v=90
15840 On ch=2 n=66 v=90
15840 On ch=2 n=61 v=90
15840 On ch=2 n=57 v=90
16272 On ch=1 n=69 v=0
16272 On ch=2 n=42 v=0
16272 On ch=2 n=30 v=0
16272 On ch=2 n=66 v=0
16272 On ch=2 n=61 v=0
16272 On ch=2 n=57 v=0
16320 On ch=1 n=71 v=110
16320 On ch=2 n=42 v=90
16320 On ch=2 n=30 v=90
16320 On ch=2 n=68 v=90
16320 On ch=2 n=64 v=90
16320 On ch=2 n=59 v=90
16752 On ch=1 n=71 v=0
16752 On ch=2 n=42 v=0
16752 On ch=2 n=30 v=0
16752 On ch=2 n=68 v=0
16752 On ch=2 n=64 v=0
16752 On ch=2 n=59 v=0
16800 On ch=1 n=73 v=110
16800 On ch=2 n=42 v=90
16800 On ch=2 n=30 v=90
16800 On ch=2 n=69 v=90
16800 On ch=2 n=66 v=90
16800 On ch=2 n=61 v=90
17232 On ch=1 n=73 v=0
17232 On ch=2 n=42 v=0
17232 On ch=2 n=30 v=0
17232 On ch=2 n=69 v=0
17232 On ch=2 n=66 v=0
17232 On ch=2 n=61 v=0
17280 On ch=1 n=74 v=120
17280 On ch=2 n=47 v=90
17280 On ch=2 n=35 v=90
17280 On ch=2 n=71 v=90
17280 On ch=2 n=66 v=90
17280 On ch=2 n=62 v=90
17712 On ch=1 n=74 v=0
17712 On ch=2 n=47 v=0
17712 On ch=2 n=35 v=0
17712 On ch=2 n=71 v=0
17712 On ch=2 n=66 v=0
17712 On ch=2 n=62 v=0
18000 On ch=1 n=74 v=120
18000 On ch=2 n=47 v=90
18000 On ch=2 n=35 v=90
18000 On ch=2 n=71 v=90
18000 On ch=2 n=66 v=90
18000 On ch=2 n=62 v=90
18432 On ch=1 n=74 v=0
18432 On ch=2 n=47 v=0
18432 On ch=2 n=35 v=0
18432 On ch=2 n=71 v=0
18432 On ch=2 n=66 v=0
18432 On ch=2 n=62 v=0
18720 On ch=1 n=74 v=110
18720 On ch=2 n=47 v=90
18720 On ch=2 n=35 v=90
18720 On ch=2 n=71 v=90
18720 On ch=2 n=66 v=90
18720 On ch=2 n=62 v=90
19152 On ch=1 n=74 v=0
19152 On ch=2 n=47 v=0
19152 On ch=2 n=35 v=0
19152 On ch=2 n=71 v=0
19152 On ch=2 n=66 v=0
19152 On ch=2 n=62 v=0
19200 On ch=1 n=76 v=110
19200 On ch=2 n=47 v=90
19200 On ch=2 n=35 v=90
19200 On ch=2 n=73 v=90
19200 On ch=2 n=69 v=90
19200 On ch=2 n=64 v=90
19632 On ch=1 n=76 v=0
19632 On ch=2 n=47 v=0
19632 On ch=2 n=35 v=0
19632 On ch=2 n=73 v=0
19632 On ch=2 n=69 v=0
19632 On ch=2 n=64 v=0
19680 On ch=1 n=78 v=110
19680 On ch=2 n=47 v=90
19680 On ch=2 n=35 v=90
19680 On ch=2 n=74 v=90
19680 On ch=2 n=71 v=90
19680 On ch=2 n=66 v=90
20112 On ch=1 n=78 v=0
20112 On ch=2 n=47 v=0
20112 On ch=2 n=35 v=0
20112 On ch=2 n=74 v=0
20112 On ch=2 n=71 v=0
20112 On ch=2 n=66 v=0
20160 On ch=1 n=76 v=110
20160 On ch=2 n=45 v=90
20160 On ch=2 n=33 v=90
20160 On ch=2 n=73 v=90
20160 On ch=2 n=69 v=90
20160 On ch=2 n=64 v=90
20592 On ch=1 n=76 v=0
20592 On ch=2 n=45 v=0
20592 On ch=2 n=33 v=0
20592 On ch=2 n=73 v=0
20592 On ch=2 n=69 v=0
20592 On ch=2 n=64 v=0
20640 On ch=1 n=74 v=110
20640 On ch=2 n=33 v=90
20640 On ch=2 n=71 v=90
20640 On ch=2 n=66 v=90
20640 On ch=2 n=62 v=90
20856 On ch=2 n=33 v=0
20880 On ch=2 n=40 v=90
21072 On ch=1 n=74 v=0
21072 On ch=2 n=71 v=0
21072 On ch=2 n=66 v=0
21072 On ch=2 n=62 v=0
21096 On ch=2 n=40 v=0
21120 On ch=1 n=73 v=110
21120 On ch=2 n=45 v=90
21120 On ch=2 n=69 v=90
21120 On ch=2 n=64 v=90
21120 On ch=2 n=61 v=90
21552 On ch=1 n=73 v=0
21552 On ch=2 n=45 v=0
21552 On ch=2 n=69 v=0
21552 On ch=2 n=64 v=0
21552 On ch=2 n=61 v=0
21600 On ch=1 n=73 v=110
21600 On ch=2 n=33 v=90
21600 On ch=2 n=69 v=90
21600 On ch=2 n=64 v=90
21600 On ch=2 n=61 v=90
22032 On ch=2 n=33 v=0
22080 On ch=2 n=37 v=90
22296 On ch=2 n=37 v=0
22320 On ch=2 n=38 v=90
22536 On ch=2 n=38 v=0
22560 On ch=2 n=40 v=90
22896 On ch=1 n=73 v=0
22896 On ch=2 n=69 v=0
22896 On ch=2 n=64 v=0
22896 On ch=2 n=61 v=0
22992 On ch=2 n=40 v=0
23040 On ch=1 n=69 v=110
23040 On ch=2 n=59 v=90
23904 On ch=1 n=69 v=0
24000 On ch=1 n=71 v=110
24432 On ch=1 n=71 v=0
24480 On ch=2 n=59 v=0
24480 On ch=1 n=68 v=110
24480 On ch=2 n=61 v=90
24912 On ch=1 n=68 v=0
24960 On ch=1 n=66 v=110
24960 On ch=2 n=69 v=90
25392 On ch=1 n=66 v=0
25392 On ch=2 n=69 v=0
25440 On ch=1 n=64 v=110
25440 On ch=2 n=69 v=90
25776 On ch=2 n=61 v=0
25872 On ch=1 n=64 v=0
25872 On ch=2 n=69 v=0
25920 On ch=1 n=66 v=110
25920 On ch=2 n=59 v=90
26400 On ch=2 n=73 v=90
26568 On ch=1 n=66 v=0
26616 On ch=2 n=73 v=0
26640 On ch=1 n=68 v=110
26640 On ch=2 n=71 v=90
26856 On ch=1 n=68 v=0
26856 On ch=2 n=71 v=0
26880 On ch=1 n=64 v=110
26880 On ch=2 n=66 v=90
27312 On ch=1 n=64 v=0
27312 On ch=2 n=66 v=0
27360 On ch=1 n=66 v=110
27360 On ch=2 n=66 v=90
27360 On ch=2 n=62 v=90
27792 On ch=1 n=66 v=0
28320 On ch=1 n=66 v=110
28320 On ch=2 n=74 v=90
28536 On ch=1 n=66 v=0
28536 On ch=2 n=74 v=0
28560 On ch=1 n=68 v=110
28560 On ch=2 n=76 v=90
28656 On ch=2 n=59 v=0
28776 On ch=1 n=68 v=0
28776 On ch=2 n=76 v=0
28800 On ch=2 n=66 v=0
28800 On ch=2 n=62 v=0
28800 On ch=1 n=69 v=110
28800 On ch=2 n=66 v=90
28800 On ch=2 n=62 v=90
28800 On ch=2 n=78 v=90
29448 On ch=1 n=69 v=0
29448 On ch=2 n=78 v=0
29520 On ch=1 n=66 v=110
29520 On ch=2 n=74 v=90
29736 On ch=1 n=66 v=0
29736 On ch=2 n=74 v=0
29760 On ch=1 n=69 v=110
29760 On ch=2 n=78 v=90
30096 On ch=2 n=66 v=0
30096 On ch=2 n=62 v=0
30192 On ch=1 n=69 v=0
30192 On ch=2 n=78 v=0
30240 On ch=1 n=71 v=110
30240 On ch=2 n=68 v=90
30240 On ch=2 n=64 v=90
30240 On ch=2 n=76 v=90
30672 On ch=1 n=71 v=0
30720 On ch=1 n=73 v=110
31152 On ch=1 n=73 v=0
31200 On ch=1 n=69 v=110
31536 On ch=2 n=68 v=0
31536 On ch=2 n=64 v=0
31536 On ch=2 n=76 v=0
31632 On ch=1 n=69 v=0
31680 On ch=1 n=68 v=110
31680 On ch=2 n=69 v=90
31680 On ch=2 n=66 v=90
32544 On ch=1 n=68 v=0
32640 On ch=1 n=64 v=110
32640 On ch=2 n=78 v=90
32856 On ch=2 n=78 v=0
32880 On ch=2 n=85 v=90
33072 On ch=1 n=64 v=0
33096 On ch=2 n=85 v=0
33120 On ch=1 n=66 v=110
33120 On ch=2 n=83 v=90
33120 On ch=2 n=81 v=90
33336 On ch=2 n=81 v=0
33360 On ch=2 n=80 v=90
33552 On ch=1 n=66 v=0
33552 On ch=2 n=83 v=0
33576 On ch=2 n=80 v=0
33600 On ch=2 n=78 v=90
33816 On ch=2 n=78 v=0
33984 On ch=2 n=69 v=0
33984 On ch=2 n=66 v=0
34080 On ch=2 n=64 v=90
34080 On ch=2 n=78 v=90
34296 On ch=2 n=78 v=0
34320 On ch=2 n=76 v=90
34512 On ch=2 n=64 v=0
34536 On ch=2 n=76 v=0
34560 On ch=1 n=66 v=110
34560 On ch=2 n=66 v=90
34560 On ch=2 n=59 v=90
34560 On ch=2 n=62 v=90
34560 On ch=2 n=74 v=90
35208 On ch=1 n=66 v=0
35280 On ch=1 n=64 v=110
35496 On ch=1 n=64 v=0
35520 On ch=1 n=66 v=110
35856 On ch=2 n=66 v=0
35856 On ch=2 n=59 v=0
35856 On ch=2 n=62 v=0
35856 On ch=2 n=74 v=0
35952 On ch=1 n=66 v=0
36000 On ch=1 n=68 v=110
36000 On ch=2 n=68 v=90
36000 On ch=2 n=61 v=90
36000 On ch=2 n=64 v=90
36864 On ch=1 n=68 v=0
37296 On ch=2 n=68 v=0
37296 On ch=2 n=61 v=0
37296 On ch=2 n=64 v=0
37440 On ch=1 n=69 v=110
37440 On ch=2 n=69 v=90
37440 On ch=2 n=62 v=90
37440 On ch=2 n=66 v=90
38088 On ch=1 n=69 v=0
38160 On ch=1 n=71 v=110
38376 On ch=1 n=71 v=0
38400 On ch=1 n=73 v=110
38736 On ch=2 n=69 v=0
38736 On ch=2 n=62 v=0
38736 On ch=2 n=66 v=0
38832 On ch=1 n=73 v=0
38880 On ch=1 n=71 v=110
38880 On ch=2 n=71 v=90
38880 On ch=2 n=64 v=90
38880 On ch=2 n=68 v=90
39312 On ch=1 n=71 v=0
39360 On ch=1 n=69 v=110
39792 On ch=1 n=69 v=0
39840 On ch=1 n=68 v=110
40176 On ch=2 n=71 v=0
40176 On ch=2 n=64 v=0
40176 On ch=2 n=68 v=0
40272 On ch=1 n=68 v=0
40320 On ch=1 n=69 v=110
40320 On ch=2 n=73 v=90
40320 On ch=2 n=66 v=90
40320 On ch=2 n=69 v=90
41184 On ch=1 n=69 v=0
41280 On ch=1 n=68 v=110
41712 On ch=1 n=68 v=0
41760 On ch=1 n=64 v=110
42192 On ch=1 n=64 v=0
42240 On ch=1 n=66 v=110
43056 On ch=2 n=73 v=0
43200 On ch=2 n=69 v=0
43200 On ch=2 n=71 v=90
43200 On ch=2 n=69 v=90
44496 On ch=1 n=66 v=0
44496 On ch=2 n=66 v=0
44496 On ch=2 n=69 v=0
44640 On ch=2 n=64 v=90
44640 On ch=2 n=68 v=90
45504 On ch=2 n=71 v=0
45504 On ch=2 n=64 v=0
45504 On ch=2 n=68 v=0
45600 On ch=1 n=69 v=110
45600 On ch=1 n=66 v=110
46032 On ch=1 n=69 v=0
46032 On ch=1 n=66 v=0
46080 On ch=1 n=69 v=110
46080 On ch=1 n=66 v=110
46080 On ch=2 n=38 v=90
46944 On ch=1 n=69 v=0
46944 On ch=1 n=66 v=0
46944 On ch=2 n=38 v=0
47040 On ch=1 n=71 v=110
47040 On ch=1 n=68 v=110
47040 On ch=2 n=38 v=90
47472 On ch=1 n=71 v=0
47472 On ch=1 n=68 v=0
47472 On ch=2 n=38 v=0
47520 On ch=1 n=68 v=110
47520 On ch=1 n=64 v=110
47520 On ch=2 n=40 v=90
47952 On ch=1 n=68 v=0
47952 On ch=1 n=64 v=0
48000 On ch=1 n=66 v=110
48000 On ch=1 n=62 v=110
48000 On ch=2 n=83 v=90
48216 On ch=2 n=83 v=0
48240 On ch=2 n=90 v=90
48384 On ch=2 n=40 v=0
48432 On ch=1 n=66 v=0
48432 On ch=1 n=62 v=0
48456 On ch=2 n=90 v=0
48480 On ch=1 n=64 v=110
48480 On ch=1 n=61 v=110
48480 On ch=2 n=40 v=90
48480 On ch=2 n=93 v=90
48696 On ch=2 n=93 v=0
48720 On ch=2 n=90 v=90
48912 On ch=1 n=64 v=0
48912 On ch=1 n=61 v=0
48912 On ch=2 n=40 v=0
48936 On ch=2 n=90 v=0
48960 On ch=1 n=66 v=110
48960 On ch=1 n=62 v=110
48960 On ch=2 n=35 v=90
49608 On ch=1 n=66 v=0
49608 On ch=1 n=62 v=0
49608 On ch=2 n=35 v=0
49680 On ch=1 n=68 v=110
49680 On ch=1 n=64 v=110
49680 On ch=2 n=35 v=90
49896 On ch=1 n=68 v=0
49896 On ch=1 n=64 v=0
49896 On ch=2 n=35 v=0
49920 On ch=1 n=64 v=110
49920 On ch=1 n=61 v=110
49920 On ch=2 n=35 v=90
50352 On ch=1 n=64 v=0
50352 On ch=1 n=61 v=0
50352 On ch=2 n=35 v=0
50400 On ch=1 n=66 v=110
50400 On ch=1 n=62 v=110
50400 On ch=2 n=35 v=90
50400 On ch=2 n=78 v=90
50832 On ch=1 n=66 v=0
50832 On ch=1 n=62 v=0
50832 On ch=2 n=35 v=0
50880 On ch=2 n=35 v=90
51048 On ch=2 n=78 v=0
51120 On ch=2 n=80 v=90
51312 On ch=2 n=35 v=0
51336 On ch=2 n=80 v=0
51360 On ch=1 n=66 v=110
51360 On ch=2 n=35 v=90
51360 On ch=2 n=76 v=90
51576 On ch=1 n=66 v=0
51600 On ch=1 n=68 v=110
51792 On ch=2 n=35 v=0
51792 On ch=2 n=76 v=0
51816 On ch=1 n=68 v=0
51840 On ch=1 n=69 v=110
51840 On ch=2 n=38 v=90
51840 On ch=2 n=78 v=90
52272 On ch=2 n=38 v=0
52320 On ch=2 n=38 v=90
52488 On ch=1 n=69 v=0
52560 On ch=1 n=66 v=110
52752 On ch=2 n=38 v=0
52776 On ch=1 n=66 v=0
52800 On ch=1 n=69 v=110
52800 On ch=2 n=38 v=90
53136 On ch=2 n=78 v=0
53232 On ch=1 n=69 v=0
53232 On ch=2 n=38 v=0
53280 On ch=1 n=71 v=110
53280 On ch=2 n=40 v=90
53280 On ch=2 n=76 v=90
53712 On ch=1 n=71 v=0
53712 On ch=2 n=40 v=0
53760 On ch=1 n=73 v=110
53760 On ch=2 n=40 v=90
54192 On ch=1 n=73 v=0
54192 On ch=2 n=40 v=0
54240 On ch=1 n=69 v=110
54240 On ch=2 n=40 v=90
54576 On ch=2 n=76 v=0
54672 On ch=1 n=69 v=0
54672 On ch=2 n=40 v=0
54720 On ch=1 n=68 v=110
54720 On ch=2 n=42 v=90
54720 On ch=2 n=73 v=90
54720 On ch=2 n=85 v=90
55152 On ch=2 n=42 v=0
55200 On ch=2 n=42 v=90
55416 On ch=2 n=42 v=0
55440 On ch=2 n=37 v=90
55584 On ch=1 n=68 v=0
55656 On ch=2 n=37 v=0
55680 On ch=1 n=64 v=110
55680 On ch=2 n=33 v=90
56112 On ch=1 n=64 v=0
56112 On ch=2 n=33 v=0
56160 On ch=1 n=66 v=110
56160 On ch=2 n=30 v=90
56592 On ch=1 n=66 v=0
56592 On ch=2 n=30 v=0
56640 On ch=2 n=32 v=90
57072 On ch=2 n=32 v=0
57120 On ch=2 n=33 v=90
57456 On ch=2 n=73 v=0
57456 On ch=2 n=85 v=0
57552 On ch=2 n=33 v=0
57600 On ch=1 n=66 v=110
57600 On ch=1 n=62 v=110
57600 On ch=2 n=35 v=90
57600 On ch=2 n=74 v=90
58248 On ch=1 n=66 v=0
58248 On ch=1 n=62 v=0
58248 On ch=2 n=35 v=0
58248 On ch=2 n=74 v=0
58320 On ch=1 n=64 v=110
58320 On ch=1 n=61 v=110
58320 On ch=2 n=37 v=90
58320 On ch=2 n=73 v=90
58536 On ch=1 n=64 v=0
58536 On ch=1 n=61 v=0
58536 On ch=2 n=37 v=0
58536 On ch=2 n=73 v=0
58560 On ch=1 n=66 v=110
58560 On ch=1 n=62 v=110
58560 On ch=2 n=38 v=90
58560 On ch=2 n=74 v=90
58992 On ch=1 n=66 v=0
58992 On ch=1 n=62 v=0
58992 On ch=2 n=38 v=0
58992 On ch=2 n=74 v=0
59040 On ch=1 n=68 v=110
59040 On ch=1 n=64 v=110
59040 On ch=2 n=40 v=90
59040 On ch=2 n=76 v=90
59472 On ch=2 n=40 v=0
59520 On ch=2 n=42 v=90
59904 On ch=1 n=68 v=0
59904 On ch=1 n=64 v=0
59952 On ch=2 n=42 v=0
60000 On ch=2 n=44 v=90
60336 On ch=2 n=76 v=0
60432 On ch=2 n=44 v=0
60480 On ch=1 n=69 v=110
60480 On ch=1 n=66 v=110
60480 On ch=2 n=38 v=90
60480 On ch=2 n=78 v=90
61128 On ch=1 n=69 v=0
61128 On ch=1 n=66 v=0
61128 On ch=2 n=38 v=0
61200 On ch=1 n=68 v=110
61200 On ch=1 n=64 v=110
61200 On ch=2 n=37 v=90
61416 On ch=1 n=68 v=0
61416 On ch=1 n=64 v=0
61416 On ch=2 n=37 v=0
61440 On ch=1 n=69 v=110
61440 On ch=1 n=66 v=110
61440 On ch=2 n=33 v=90
61872 On ch=1 n=69 v=0
61872 On ch=1 n=66 v=0
61872 On ch=2 n=33 v=0
61920 KeySig 2 major
61920 On ch=1 n=71 v=110
61920 On ch=1 n=67 v=110
61920 On ch=2 n=26 v=90
62352 On ch=1 n=71 v=0
62352 On ch=1 n=67 v=0
62352 On ch=2 n=26 v=0
62400 On ch=1 n=69 v=110
62400 On ch=1 n=66 v=110
62400 On ch=2 n=28 v=90
62832 On ch=1 n=69 v=0
62832 On ch=1 n=66 v=0
62832 On ch=2 n=28 v=0
62880 On ch=1 n=71 v=110
62880 On ch=1 n=67 v=110
62880 On ch=2 n=30 v=90
63216 On ch=2 n=78 v=0
63312 On ch=1 n=71 v=0
63312 On ch=1 n=67 v=0
63312 On ch=2 n=30 v=0
63360 On ch=1 n=74 v=110
63360 On ch=1 n=67 v=110
63360 On ch=2 n=31 v=90
63360 On ch=2 n=79 v=90
64224 On ch=1 n=74 v=0
64224 On ch=1 n=67 v=0
64224 On ch=2 n=31 v=0
64320 On ch=1 n=73 v=110
64320 On ch=1 n=67 v=110
64320 On ch=2 n=38 v=90
64752 On ch=1 n=73 v=0
64752 On ch=1 n=67 v=0
64752 On ch=2 n=38 v=0
64800 On ch=1 n=69 v=110
64800 On ch=1 n=67 v=110
64800 On ch=2 n=43 v=90
65232 On ch=2 n=43 v=0
65280 On ch=2 n=38 v=90
65664 On ch=1 n=69 v=0
65664 On ch=1 n=67 v=0
65712 On ch=2 n=38 v=0
65760 On ch=1 n=71 v=110
65760 On ch=1 n=67 v=110
65760 On ch=2 n=31 v=90
66096 On ch=2 n=79 v=0
66192 On ch=1 n=71 v=0
66192 On ch=1 n=67 v=0
66192 On ch=2 n=31 v=0
66240 On ch=1 n=71 v=110
66240 On ch=1 n=64 v=110
66240 On ch=2 n=40 v=90
66240 On ch=2 n=83 v=90
66672 On ch=2 n=40 v=0
66720 On ch=2 n=40 v=90
66936 On ch=2 n=40 v=0
66960 On ch=2 n=35 v=90
67176 On ch=2 n=35 v=0
67200 On ch=2 n=28 v=90
67536 On ch=1 n=71 v=0
67536 On ch=1 n=64 v=0
67536 On ch=2 n=83 v=0
67632 On ch=2 n=28 v=0
67680 On ch=1 n=76 v=110
67680 On ch=1 n=64 v=110
67680 On ch=2 n=40 v=90
67680 On ch=2 n=88 v=90
68112 On ch=2 n=40 v=0
68160 On ch=2 n=42 v=90
68592 On ch=2 n=42 v=0
68640 On ch=2 n=43 v=90
68976 On ch=1 n=76 v=0
68976 On ch=1 n=64 v=0
68976 On ch=2 n=88 v=0
69072 On ch=2 n=43 v=0
69120 KeySig 254 major
69120 Tempo 272727
69120 On ch=1 n=79 v=120
69120 On ch=1 n=72 v=110
69120 On ch=2 n=36 v=90
69120 On ch=2 n=48 v=90
69120 On ch=2 n=72 v=90
69120 On ch=2 n=75 v=90
69120 On ch=2 n=67 v=90
69552 On ch=1 n=79 v=0
69552 On ch=2 n=36 v=0
69552 On ch=2 n=48 v=0
69552 On ch=2 n=72 v=0
69552 On ch=2 n=75 v=0
69552 On ch=2 n=67 v=0
69840 On ch=1 n=79 v=120
69840 On ch=2 n=36 v=90
69840 On ch=2 n=48 v=90
69840 On ch=2 n=75 v=90
69840 On ch=2 n=72 v=90
69840 On ch=2 n=67 v=90
70272 On ch=1 n=79 v=0
70272 On ch=2 n=36 v=0
70272 On ch=2 n=48 v=0
70272 On ch=2 n=75 v=0
70272 On ch=2 n=72 v=0
70272 On ch=2 n=67 v=0
70560 On ch=1 n=77 v=120
70560 On ch=2 n=34 v=90
70560 On ch=2 n=46 v=90
70560 On ch=2 n=74 v=90
70560 On ch=2 n=70 v=90
70560 On ch=2 n=65 v=90
70992 On ch=1 n=77 v=0
70992 On ch=2 n=34 v=0
70992 On ch=2 n=46 v=0
70992 On ch=2 n=74 v=0
70992 On ch=2 n=70 v=0
70992 On ch=2 n=65 v=0
71040 On ch=1 n=79 v=120
71040 On ch=2 n=36 v=90
71040 On ch=2 n=48 v=90
71040 On ch=2 n=75 v=90
71040 On ch=2 n=72 v=90
71040 On ch=2 n=67 v=90
71424 On ch=1 n=72 v=0
71472 On ch=1 n=79 v=0
71472 On ch=2 n=36 v=0
71472 On ch=2 n=48 v=0
71472 On ch=2 n=75 v=0
71472 On ch=2 n=72 v=0
71472 On ch=2 n=67 v=0
71520 On ch=1 n=74 v=110
71952 On ch=1 n=74 v=0
72000 On ch=1 n=75 v=110
72000 On ch=2 n=39 v=90
72000 On ch=2 n=55 v=90
72000 On ch=2 n=63 v=90
72000 On ch=2 n=51 v=90
72432 On ch=1 n=75 v=0
72480 On ch=1 n=72 v=110
72912 On ch=1 n=72 v=0
72960 On ch=1 n=70 v=110
73296 On ch=2 n=39 v=0
73296 On ch=2 n=55 v=0
73296 On ch=2 n=63 v=0
73296 On ch=2 n=51 v=0
73392 On ch=1 n=70 v=0
73440 On ch=1 n=69 v=110
73440 On ch=2 n=41 v=90
73440 On ch=2 n=65 v=90
73440 On ch=2 n=57 v=90
73440 On ch=2 n=53 v=90
73872 On ch=1 n=69 v=0
73920 On ch=1 n=67 v=110
74352 On ch=1 n=67 v=0
74400 On ch=1 n=65 v=110
74736 On ch=2 n=41 v=0
74736 On ch=2 n=65 v=0
74736 On ch=2 n=57 v=0
74736 On ch=2 n=53 v=0
74832 On ch=1 n=65 v=0
74880 On ch=1 n=67 v=110
74880 On ch=1 n=79 v=120
74880 On ch=2 n=36 v=90
74880 On ch=2 n=48 v=90
74880 On ch=2 n=75 v=90
74880 On ch=2 n=72 v=90
74880 On ch=2 n=67 v=90
75312 On ch=1 n=79 v=0
75312 On ch=2 n=36 v=0
75312 On ch=2 n=48 v=0
75312 On ch=2 n=75 v=0
75312 On ch=2 n=72 v=0
75312 On ch=2 n=67 v=0
75600 On ch=1 n=79 v=120
75600 On ch=2 n=36 v=90
75600 On ch=2 n=48 v=90
75600 On ch=2 n=75 v=90
75600 On ch=2 n=72 v=90
75600 On ch=2 n=67 v=90
76032 On ch=1 n=79 v=0
76032 On ch=2 n=36 v=0
76032 On ch=2 n=48 v=0
76032 On ch=2 n=75 v=0
76032 On ch=2 n=72 v=0
76032 On ch=2 n=67 v=0
76176 On ch=1 n=67 v=0
76320 On ch=1 n=77 v=120
76320 On ch=2 n=34 v=90
76320 On ch=2 n=46 v=90
76320 On ch=2 n=74 v=90
76320 On ch=2 n=70 v=90
76320 On ch=2 n=65 v=90
76752 On ch=1 n=77 v=0
76752 On ch=2 n=34 v=0
76752 On ch=2 n=46 v=0
76752 On ch=2 n=74 v=0
76752 On ch=2 n=70 v=0
76752 On ch=2 n=65 v=0
76800 On ch=1 n=79 v=120
76800 On ch=2 n=36 v=90
76800 On ch=2 n=48 v=90
76800 On ch=2 n=75 v=90
76800 On ch=2 n=72 v=90
76800 On ch=2 n=67 v=90
77232 On ch=1 n=79 v=0
77232 On ch=2 n=36 v=0
77232 On ch=2 n=48 v=0
77232 On ch=2 n=75 v=0
77232 On ch=2 n=72 v=0
77232 On ch=2 n=67 v=0
77280 On ch=1 n=74 v=110
77712 On ch=1 n=74 v=0
77760 On ch=1 n=74 v=110
77760 On ch=2 n=39 v=90
77760 On ch=2 n=63 v=90
77760 On ch=2 n=55 v=90
77760 On ch=2 n=51 v=90
78192 On ch=1 n=74 v=0
78240 On ch=1 n=72 v=110
78672 On ch=1 n=72 v=0
78720 On ch=1 n=77 v=110
79056 On ch=2 n=39 v=0
79056 On ch=2 n=63 v=0
79056 On ch=2 n=55 v=0
79056 On ch=2 n=51 v=0
79152 On ch=1 n=77 v=0
79200 On ch=1 n=75 v=110
79200 On ch=2 n=41 v=90
79200 On ch=2 n=65 v=90
79200 On ch=2 n=57 v=90
79200 On ch=2 n=53 v=90
79632 On ch=1 n=75 v=0
79680 On ch=1 n=74 v=110
80112 On ch=1 n=74 v=0
80160 On ch=1 n=72 v=110
80496 On ch=2 n=41 v=0
80496 On ch=2 n=65 v=0
80496 On ch=2 n=57 v=0
80496 On ch=2 n=53 v=0
80592 On ch=1 n=72 v=0
80640 On ch=1 n=74 v=110
80640 On ch=2 n=43 v=90
80640 On ch=2 n=70 v=90
80640 On ch=2 n=67 v=90
81072 On ch=2 n=70 v=0
81072 On ch=2 n=67 v=0
81120 On ch=2 n=91 v=90
81504 On ch=1 n=74 v=0
81552 On ch=2 n=91 v=0
81600 On ch=2 n=70 v=90
81600 On ch=2 n=67 v=90
81936 On ch=2 n=43 v=0
82032 On ch=2 n=70 v=0
82032 On ch=2 n=67 v=0
82080 On ch=1 n=72 v=110
82080 On ch=1 n=69 v=110
82080 On ch=2 n=41 v=90
82080 On ch=2 n=69 v=90
82080 On ch=2 n=65 v=90
82512 On ch=1 n=72 v=0
82512 On ch=1 n=69 v=0
82560 On ch=1 n=70 v=110
82560 On ch=1 n=67 v=110
82944 On ch=2 n=69 v=0
82944 On ch=2 n=65 v=0
82992 On ch=1 n=70 v=0
82992 On ch=1 n=67 v=0
83040 On ch=1 n=69 v=110
83040 On ch=1 n=65 v=110
83040 On ch=2 n=69 v=90
83040 On ch=2 n=65 v=90
83376 On ch=2 n=41 v=0
83472 On ch=1 n=69 v=0
83472 On ch=1 n=65 v=0
83472 On ch=2 n=69 v=0
83472 On ch=2 n=65 v=0
83520 On ch=1 n=70 v=110
83520 On ch=1 n=67 v=110
83520 On ch=2 n=39 v=90
83520 On ch=2 n=67 v=90
83520 On ch=2 n=63 v=90
83952 On ch=2 n=67 v=0
83952 On ch=2 n=63 v=0
84000 On ch=2 n=86 v=90
84384 On ch=1 n=70 v=0
84384 On ch=1 n=67 v=0
84432 On ch=2 n=86 v=0
84480 On ch=2 n=67 v=90
84480 On ch=2 n=63 v=90
84816 On ch=2 n=39 v=0
84912 On ch=2 n=67 v=0
84912 On ch=2 n=63 v=0
84960 On ch=1 n=69 v=110
84960 On ch=2 n=38 v=90
84960 On ch=2 n=65 v=90
84960 On ch=2 n=62 v=90
85392 On ch=1 n=69 v=0
85392 On ch=2 n=65 v=0
85392 On ch=2 n=62 v=0
85440 On ch=1 n=67 v=110
85440 On ch=2 n=57 v=90
85872 On ch=1 n=67 v=0
85872 On ch=2 n=57 v=0
85920 On ch=1 n=65 v=110
85920 On ch=2 n=62 v=90
86256 On ch=2 n=38 v=0
86352 On ch=1 n=65 v=0
86352 On ch=2 n=62 v=0
86400 KeySig 0 major
86400 On ch=1 n=67 v=110
86400 On ch=1 n=64 v=110
86400 On ch=2 n=36 v=90
86400 On ch=2 n=64 v=90
86400 On ch=2 n=60 v=90
86832 On ch=2 n=64 v=0
86832 On ch=2 n=60 v=0
86880 On ch=2 n=55 v=90
87048 On ch=1 n=67 v=0
87048 On ch=1 n=64 v=0
87120 On ch=1 n=69 v=110
87120 On ch=1 n=65 v=110
87312 On ch=2 n=55 v=0
87336 On ch=1 n=69 v=0
87336 On ch=1 n=65 v=0
87360 On ch=1 n=65 v=110
87360 On ch=1 n=62 v=110
87360 On ch=2 n=62 v=90
87792 On ch=1 n=65 v=0
87792 On ch=1 n=62 v=0
87792 On ch=2 n=62 v=0
87840 On ch=1 n=67 v=110
87840 On ch=1 n=64 v=110
87840 On ch=2 n=64 v=90
88272 On ch=2 n=64 v=0
88320 On ch=2 n=60 v=90
88488 On ch=1 n=67 v=0
88488 On ch=1 n=64 v=0
88560 On ch=1 n=69 v=110
88560 On ch=1 n=65 v=110
88704 On ch=2 n=36 v=0
88752 On ch=2 n=60 v=0
88776 On ch=1 n=69 v=0
88776 On ch=1 n=65 v=0
88800 On ch=1 n=65 v=110
88800 On ch=1 n=62 v=110
88800 On ch=2 n=31 v=90
88800 On ch=2 n=55 v=90
89232 On ch=1 n=65 v=0
89232 On ch=1 n=62 v=0
89232 On ch=2 n=31 v=0
89232 On ch=2 n=55 v=0
89280 On ch=1 n=67 v=110
89280 On ch=1 n=64 v=110
89280 On ch=2 n=36 v=90
89280 On ch=2 n=64 v=90
89712 On ch=2 n=64 v=0
89760 On ch=2 n=62 v=90
90144 On ch=1 n=67 v=0
90144 On ch=1 n=64 v=0
90192 On ch=2 n=62 v=0
90240 On ch=2 n=64 v=90
90672 On ch=2 n=64 v=0
90720 KeySig 1 major
90720 On ch=1 n=67 v=110
90720 On ch=1 n=64 v=110
90720 On ch=2 n=64 v=90
91152 On ch=2 n=64 v=0
91200 On ch=2 n=60 v=90
91584 On ch=1 n=67 v=0
91584 On ch=1 n=64 v=0
91632 On ch=2 n=60 v=0
91680 On ch=1 n=69 v=110
91680 On ch=1 n=66 v=110
91680 On ch=2 n=55 v=90
92016 On ch=2 n=36 v=0
92112 On ch=1 n=69 v=0
92112 On ch=1 n=66 v=0
92112 On ch=2 n=55 v=0
92160 On ch=1 n=69 v=110
92160 On ch=1 n=66 v=110
92160 On ch=2 n=38 v=90
92160 On ch=2 n=62 v=90
92592 On ch=2 n=62 v=0
92640 On ch=2 n=57 v=90
93072 On ch=2 n=57 v=0
93120 On ch=2 n=62 v=90
93552 On ch=2 n=62 v=0
93600 On ch=2 n=66 v=90
94032 On ch=2 n=66 v=0
94080 On ch=2 n=62 v=90
94512 On ch=2 n=62 v=0
94560 On ch=2 n=74 v=90
94776 On ch=2 n=74 v=0
94800 On ch=2 n=76 v=90
95016 On ch=2 n=76 v=0
95040 On ch=2 n=78 v=90
95040 On ch=2 n=74 v=90
95040 On ch=2 n=66 v=90
95472 On ch=2 n=78 v=0
95472 On ch=2 n=74 v=0
95472 On ch=2 n=66 v=0
95520 On ch=2 n=74 v=90
95520 On ch=2 n=69 v=90
95952 On ch=2 n=74 v=0
95952 On ch=2 n=69 v=0
96000 On ch=2 n=69 v=90
96000 On ch=2 n=66 v=90
96432 On ch=2 n=69 v=0
96432 On ch=2 n=66 v=0
96480 On ch=2 n=66 v=90
96480 On ch=2 n=62 v=90
97344 On ch=1 n=69 v=0
97344 On ch=1 n=66 v=0
97776 On ch=2 n=38 v=0
98880 Tempo 272479
98880 On ch=1 n=67 v=110
99312 On ch=1 n=67 v=0
99360 KeySig 254 major
99360 On ch=1 n=70 v=110
99792 On ch=1 n=70 v=0
99840 On ch=1 n=69 v=110
100272 On ch=1 n=69 v=0
100320 On ch=1 n=70 v=110
100656 On ch=2 n=66 v=0
100656 On ch=2 n=62 v=0
100752 On ch=1 n=70 v=0
100800 On ch=1 n=74 v=110
100800 On ch=2 n=39 v=90
100800 On ch=2 n=63 v=90
100800 On ch=2 n=74 v=90
100800 On ch=2 n=70 v=90
101232 On ch=2 n=39 v=0
101280 On ch=2 n=27 v=90
101496 On ch=2 n=27 v=0
101520 On ch=2 n=39 v=90
101736 On ch=2 n=39 v=0
101760 On ch=2 n=27 v=90
102192 On ch=2 n=27 v=0
102240 On ch=2 n=39 v=90
102528 On ch=1 n=74 v=0
102672 On ch=2 n=39 v=0
102720 On ch=1 n=67 v=110
102720 On ch=1 n=62 v=110
102720 On ch=2 n=27 v=90
103152 On ch=1 n=67 v=0
103152 On ch=1 n=62 v=0
103152 On ch=2 n=27 v=0
103200 On ch=1 n=70 v=110
103200 On ch=1 n=67 v=110
103200 On ch=2 n=31 v=90
103536 On ch=2 n=74 v=0
103536 On ch=2 n=70 v=0
103536 On ch=2 n=63 v=0
103632 On ch=1 n=70 v=0
103632 On ch=1 n=67 v=0
103632 On ch=2 n=31 v=0
103680 On ch=1 n=69 v=110
103680 On ch=1 n=65 v=110
103680 On ch=2 n=41 v=90
103680 On ch=2 n=65 v=90
103680 On ch=2 n=72 v=90
103680 On ch=2 n=74 v=90
104112 On ch=1 n=69 v=0
104112 On ch=1 n=65 v=0
104112 On ch=2 n=41 v=0
104160 On ch=1 n=70 v=110
104160 On ch=1 n=67 v=110
104160 On ch=2 n=41 v=90
104376 On ch=2 n=41 v=0
104400 On ch=2 n=36 v=90
104592 On ch=1 n=70 v=0
104592 On ch=1 n=67 v=0
104616 On ch=2 n=36 v=0
104640 On ch=1 n=74 v=110
104640 On ch=1 n=69 v=110
104640 On ch=2 n=29 v=90
105072 On ch=2 n=29 v=0
105120 On ch=2 n=41 v=90
105504 On ch=1 n=74 v=0
105504 On ch=1 n=69 v=0
105552 On ch=2 n=41 v=0
105600 On ch=1 n=67 v=110
105600 On ch=1 n=62 v=110
105600 On ch=2 n=36 v=90
106032 On ch=1 n=67 v=0
106032 On ch=1 n=62 v=0
106032 On ch=2 n=36 v=0
106080 On ch=1 n=70 v=110
106080 On ch=1 n=67 v=110
106080 On ch=2 n=29 v=90
106416 On ch=2 n=74 v=0
106416 On ch=2 n=72 v=0
106416 On ch=2 n=65 v=0
106512 On ch=1 n=70 v=0
106512 On ch=1 n=67 v=0
106512 On ch=2 n=29 v=0
106560 On ch=1 n=69 v=110
106560 On ch=1 n=65 v=110
106560 On ch=2 n=31 v=90
106560 On ch=2 n=74 v=90
106560 On ch=2 n=70 v=90
106560 On ch=2 n=67 v=90
106560 On ch=2 n=62 v=90
106992 On ch=1 n=69 v=0
106992 On ch=1 n=65 v=0
107040 On ch=1 n=70 v=110
107040 On ch=1 n=67 v=110
107208 On ch=2 n=31 v=0
107280 On ch=2 n=31 v=90
107472 On ch=1 n=70 v=0
107472 On ch=1 n=67 v=0
107520 On ch=1 n=74 v=110
107520 On ch=1 n=70 v=110
107712 On ch=2 n=31 v=0
107760 On ch=2 n=29 v=90
107976 On ch=2 n=29 v=0
108000 On ch=2 n=31 v=90
108384 On ch=1 n=74 v=0
108384 On ch=1 n=70 v=0
108432 On ch=2 n=31 v=0
108480 On ch=2 n=33 v=90
108912 On ch=2 n=33 v=0
108960 On ch=1 n=77 v=110
108960 On ch=1 n=65 v=110
108960 On ch=2 n=34 v=90
109296 On ch=2 n=74 v=0
109296 On ch=2 n=70 v=0
109296 On ch=2 n=67 v=0
109296 On ch=2 n=62 v=0
109392 On ch=1 n=77 v=0
109392 On ch=1 n=65 v=0
109392 On ch=2 n=34 v=0
109440 On ch=1 n=69 v=110
109440 On ch=1 n=57 v=110
109440 On ch=2 n=31 v=90
109440 On ch=2 n=74 v=90
109440 On ch=2 n=70 v=90
109440 On ch=2 n=67 v=90
109872 On ch=2 n=31 v=0
109920 On ch=2 n=43 v=90
110136 On ch=2 n=43 v=0
110160 On ch=2 n=38 v=90
110376 On ch=2 n=38 v=0
110400 On ch=2 n=31 v=90
110736 On ch=1 n=69 v=0
110736 On ch=1 n=57 v=0
110736 On ch=2 n=74 v=0
110736 On ch=2 n=70 v=0
110736 On ch=2 n=67 v=0
110832 On ch=2 n=31 v=0
110880 On ch=1 n=70 v=110
110880 On ch=1 n=58 v=110
110880 On ch=2 n=31 v=90
110880 On ch=2 n=72 v=90
110880 On ch=2 n=65 v=90
110880 On ch=2 n=70 v=90
111312 On ch=2 n=31 v=0
111360 On ch=2 n=41 v=90
111744 On ch=1 n=70 v=0
111744 On ch=1 n=58 v=0
111792 On ch=2 n=41 v=0
111840 On ch=2 n=38 v=90
112176 On ch=2 n=72 v=0
112176 On ch=2 n=65 v=0
112176 On ch=2 n=70 v=0
112272 On ch=2 n=38 v=0
112320 On ch=1 n=70 v=110
112320 On ch=1 n=67 v=110
112320 On ch=2 n=39 v=90
112320 On ch=2 n=74 v=90
112320 On ch=2 n=70 v=90
112320 On ch=2 n=63 v=90
112752 On ch=1 n=70 v=0
112752 On ch=1 n=67 v=0
112752 On ch=2 n=39 v=0
112800 On ch=1 n=69 v=110
112800 On ch=1 n=65 v=110
112800 On ch=2 n=39 v=90
113016 On ch=2 n=39 v=0
113040 On ch=2 n=34 v=90
113232 On ch=1 n=69 v=0
113232 On ch=1 n=65 v=0
113256 On ch=2 n=34 v=0
113280 On ch=1 n=65 v=110
113280 On ch=1 n=62 v=110
113280 On ch=2 n=27 v=90
113712 On ch=1 n=65 v=0
113712 On ch=1 n=62 v=0
113712 On ch=2 n=27 v=0
113760 On ch=1 n=70 v=110
113760 On ch=1 n=67 v=110
113760 On ch=2 n=39 v=90
114192 On ch=1 n=70 v=0
114192 On ch=1 n=67 v=0
114192 On ch=2 n=39 v=0
114240 On ch=1 n=69 v=110
114240 On ch=1 n=65 v=110
114240 On ch=2 n=34 v=90
114672 On ch=1 n=69 v=0
114672 On ch=1 n=65 v=0
114672 On ch=2 n=34 v=0
114720 On ch=1 n=65 v=110
114720 On ch=1 n=62 v=110
114720 On ch=2 n=27 v=90
115056 On ch=2 n=74 v=0
115056 On ch=2 n=70 v=0
115056 On ch=2 n=63 v=0
115152 On ch=1 n=65 v=0
115152 On ch=1 n=62 v=0
115152 On ch=2 n=27 v=0
115200 On ch=1 n=70 v=110
115200 On ch=1 n=67 v=110
115200 On ch=2 n=41 v=90
115200 On ch=2 n=72 v=90
115200 On ch=2 n=69 v=90
115200 On ch=2 n=62 v=90
115632 On ch=1 n=70 v=0
115632 On ch=1 n=67 v=0
115632 On ch=2 n=41 v=0
115680 On ch=1 n=72 v=110
115680 On ch=1 n=69 v=110
115680 On ch=2 n=39 v=90
115896 On ch=2 n=39 v=0
115920 On ch=2 n=41 v=90
116112 On ch=1 n=72 v=0
116112 On ch=1 n=69 v=0
116136 On ch=2 n=41 v=0
116160 On ch=1 n=70 v=110
116160 On ch=1 n=67 v=110
116160 On ch=2 n=38 v=90
116496 On ch=2 n=72 v=0
116496 On ch=2 n=69 v=0
116496 On ch=2 n=62 v=0
116592 On ch=1 n=70 v=0
116592 On ch=1 n=67 v=0
116592 On ch=2 n=38 v=0
116640 On ch=1 n=69 v=110
116640 On ch=1 n=65 v=110
116640 On ch=2 n=38 v=90
116640 On ch=2 n=72 v=90
117072 On ch=1 n=69 v=0
117072 On ch=1 n=65 v=0
117072 On ch=2 n=38 v=0
117072 On ch=2 n=72 v=0
117120 On ch=1 n=62 v=110
117120 On ch=1 n=67 v=110
117120 On ch=2 n=41 v=90
117120 On ch=2 n=70 v=90
117552 On ch=1 n=62 v=0
117552 On ch=1 n=67 v=0
117552 On ch=2 n=41 v=0
117552 On ch=2 n=70 v=0
117600 On ch=1 n=69 v=110
117600 On ch=1 n=65 v=110
117600 On ch=2 n=29 v=90
117600 On ch=2 n=72 v=90
118032 On ch=1 n=69 v=0
118032 On ch=1 n=65 v=0
118032 On ch=2 n=29 v=0
118032 On ch=2 n=72 v=0
118080 On ch=1 n=69 v=110
118080 On ch=1 n=65 v=110
118080 On ch=2 n=41 v=90
118080 On ch=2 n=74 v=90
118512 On ch=2 n=41 v=0
118512 On ch=2 n=74 v=0
118560 On ch=2 n=39 v=90
118560 On ch=2 n=72 v=90
118776 On ch=2 n=39 v=0
118800 On ch=2 n=41 v=90
118944 On ch=1 n=69 v=0
118944 On ch=1 n=65 v=0
118992 On ch=2 n=72 v=0
119016 On ch=2 n=41 v=0
119040 On ch=1 n=67 v=110
119040 On ch=1 n=62 v=110
119040 On ch=2 n=38 v=90
119040 On ch=2 n=69 v=90
119472 On ch=1 n=67 v=0
119472 On ch=1 n=62 v=0
119472 On ch=2 n=38 v=0
119472 On ch=2 n=69 v=0
119520 On ch=1 n=74 v=110
119520 On ch=1 n=70 v=110
119520 On ch=2 n=31 v=90
119520 On ch=2 n=65 v=90
119520 On ch=2 n=53 v=90
119952 On ch=2 n=31 v=0
119952 On ch=2 n=65 v=0
119952 On ch=2 n=53 v=0
120000 On ch=2 n=36 v=90
120000 On ch=2 n=60 v=90
120216 On ch=2 n=36 v=0
120216 On ch=2 n=60 v=0
120240 On ch=2 n=38 v=90
120240 On ch=2 n=62 v=90
120456 On ch=2 n=38 v=0
120456 On ch=2 n=62 v=0
120480 On ch=2 n=41 v=90
120480 On ch=2 n=65 v=90
120480 On ch=2 n=70 v=90
120912 On ch=2 n=41 v=0
120912 On ch=2 n=65 v=0
120912 On ch=2 n=70 v=0
120960 On ch=2 n=32 v=90
120960 On ch=2 n=68 v=90
120960 On ch=2 n=63 v=90
120960 On ch=2 n=72 v=90
121248 On ch=1 n=74 v=0
121248 On ch=1 n=70 v=0
121920 On ch=1 n=70 v=110
122256 On ch=2 n=32 v=0
122256 On ch=2 n=68 v=0
122256 On ch=2 n=63 v=0
122256 On ch=2 n=72 v=0
122352 On ch=1 n=70 v=0
122400 On ch=1 n=70 v=110
122400 On ch=2 n=34 v=90
122400 On ch=2 n=70 v=90
122400 On ch=2 n=65 v=90
122400 On ch=2 n=74 v=90
122832 On ch=1 n=70 v=0
122832 On ch=2 n=34 v=0
122880 On ch=1 n=69 v=110
122880 On ch=2 n=36 v=90
123312 On ch=1 n=69 v=0
123312 On ch=2 n=36 v=0
123360 On ch=1 n=70 v=110
123360 On ch=2 n=38 v=90
123696 On ch=2 n=70 v=0
123696 On ch=2 n=65 v=0
123696 On ch=2 n=74 v=0
123792 On ch=1 n=70 v=0
123792 On ch=2 n=38 v=0
123840 On ch=1 n=74 v=110
123840 On ch=2 n=39 v=90
123840 On ch=2 n=74 v=90
123840 On ch=2 n=70 v=90
123840 On ch=2 n=63 v=90
124272 On ch=2 n=39 v=0
124320 On ch=2 n=38 v=90
124536 On ch=2 n=38 v=0
124560 On ch=2 n=39 v=90
124776 On ch=2 n=39 v=0
124800 On ch=2 n=27 v=90
125232 On ch=2 n=27 v=0
125280 On ch=2 n=39 v=90
125568 On ch=1 n=74 v=0
125712 On ch=2 n=39 v=0
125760 On ch=1 n=67 v=110
125760 On ch=2 n=27 v=90
126192 On ch=1 n=67 v=0
126192 On ch=2 n=27 v=0
126240 On ch=1 n=70 v=110
126240 On ch=2 n=31 v=90
126576 On ch=2 n=63 v=0
126576 On ch=2 n=70 v=0
126576 On ch=2 n=74 v=0
126672 On ch=1 n=70 v=0
126672 On ch=2 n=31 v=0
126720 On ch=1 n=69 v=110
126720 On ch=2 n=41 v=90
126720 On ch=2 n=65 v=90
126720 On ch=2 n=69 v=90
126720 On ch=2 n=72 v=90
127152 On ch=1 n=69 v=0
127152 On ch=2 n=41 v=0
127200 On ch=1 n=70 v=110
127200 On ch=2 n=39 v=90
127416 On ch=2 n=39 v=0
127440 On ch=2 n=41 v=90
127632 On ch=1 n=70 v=0
127656 On ch=2 n=41 v=0
127680 On ch=1 n=74 v=110
127680 On ch=2 n=38 v=90
128112 On ch=2 n=38 v=0
128160 On ch=2 n=41 v=90
128544 On ch=1 n=74 v=0
128592 On ch=2 n=41 v=0
128640 On ch=1 n=67 v=110
128640 On ch=2 n=38 v=90
129072 On ch=1 n=67 v=0
129072 On ch=2 n=38 v=0
129120 On ch=1 n=70 v=110
129120 On ch=2 n=41 v=90
129456 On ch=2 n=69 v=0
129456 On ch=2 n=65 v=0
129456 On ch=2 n=72 v=0
129552 On ch=1 n=70 v=0
129552 On ch=2 n=41 v=0
129600 On ch=1 n=69 v=110
129600 On ch=2 n=31 v=90
129600 On ch=2 n=65 v=90
129600 On ch=2 n=69 v=90
129600 On ch=2 n=60 v=90
130032 On ch=1 n=69 v=0
130032 On ch=2 n=31 v=0
130080 On ch=1 n=70 v=110
130080 On ch=2 n=29 v=90
130296 On ch=2 n=29 v=0
130320 On ch=2 n=31 v=90
130512 On ch=1 n=70 v=0
130536 On ch=2 n=31 v=0
130560 On ch=1 n=74 v=110
130560 On ch=2 n=29 v=90
130896 On ch=2 n=65 v=0
130896 On ch=2 n=69 v=0
130896 On ch=2 n=60 v=0
130992 On ch=2 n=29 v=0
131040 On ch=2 n=31 v=90
131040 On ch=2 n=70 v=90
131040 On ch=2 n=67 v=90
131040 On ch=2 n=62 v=90
131424 On ch=1 n=74 v=0
131472 On ch=2 n=31 v=0
131520 On ch=2 n=33 v=90
131952 On ch=2 n=33 v=0
132000 On ch=1 n=77 v=110
132000 On ch=1 n=65 v=110
132000 On ch=2 n=34 v=90
132336 On ch=2 n=70 v=0
132336 On ch=2 n=67 v=0
132336 On ch=2 n=62 v=0
132432 On ch=1 n=77 v=0
132432 On ch=1 n=65 v=0
132432 On ch=2 n=34 v=0
132480 On ch=1 n=69 v=110
132480 On ch=1 n=57 v=110
132480 On ch=2 n=43 v=90
132480 On ch=2 n=72 v=90
132480 On ch=2 n=69 v=90
132480 On ch=2 n=65 v=90
132912 On ch=2 n=43 v=0
132960 On ch=2 n=41 v=90
133176 On ch=2 n=41 v=0
133200 On ch=2 n=43 v=90
133416 On ch=2 n=43 v=0
133440 On ch=2 n=38 v=90
133776 On ch=1 n=69 v=0
133776 On ch=1 n=57 v=0
133776 On ch=2 n=72 v=0
133776 On ch=2 n=69 v=0
133776 On ch=2 n=65 v=0
133872 On ch=2 n=38 v=0
133920 On ch=1 n=70 v=110
133920 On ch=1 n=58 v=110
133920 On ch=2 n=43 v=90
133920 On ch=2 n=74 v=90
133920 On ch=2 n=70 v=90
133920 On ch=2 n=67 v=90
134352 On ch=2 n=43 v=0
134400 On ch=2 n=38 v=90
134784 On ch=1 n=70 v=0
134784 On ch=1 n=58 v=0
134832 On ch=2 n=38 v=0
134880 On ch=1 n=72 v=110
134880 On ch=1 n=60 v=110
134880 On ch=2 n=41 v=90
135216 On ch=2 n=74 v=0
135216 On ch=2 n=70 v=0
135216 On ch=2 n=67 v=0
135312 On ch=1 n=72 v=0
135312 On ch=1 n=60 v=0
135312 On ch=2 n=41 v=0
135360 On ch=1 n=74 v=110
135360 On ch=1 n=62 v=110
135360 On ch=2 n=27 v=90
135360 On ch=2 n=75 v=90
135360 On ch=2 n=63 v=90
135360 On ch=2 n=70 v=90
135792 On ch=2 n=27 v=0
135840 On ch=2 n=39 v=90
136224 On ch=1 n=74 v=0
136224 On ch=1 n=62 v=0
136272 On ch=2 n=39 v=0
136320 On ch=2 n=27 v=90
136656 On ch=2 n=75 v=0
136656 On ch=2 n=63 v=0
136656 On ch=2 n=70 v=0
136752 On ch=2 n=27 v=0
136800 On ch=1 n=72 v=110
136800 On ch=1 n=60 v=110
136800 On ch=2 n=38 v=90
136800 On ch=2 n=62 v=90
136800 On ch=2 n=74 v=90
136800 On ch=2 n=69 v=90
137232 On ch=1 n=72 v=0
137232 On ch=1 n=60 v=0
137280 On ch=1 n=70 v=110
137280 On ch=1 n=58 v=110
137712 On ch=1 n=70 v=0
137712 On ch=1 n=58 v=0
137760 On ch=1 n=69 v=110
137760 On ch=1 n=57 v=110
138096 On ch=2 n=38 v=0
138096 On ch=2 n=62 v=0
138096 On ch=2 n=74 v=0
138096 On ch=2 n=69 v=0
138192 On ch=1 n=69 v=0
138192 On ch=1 n=57 v=0
138240 On ch=1 n=72 v=110
138240 On ch=1 n=60 v=110
138240 On ch=2 n=36 v=90
138240 On ch=2 n=60 v=90
138240 On ch=2 n=72 v=90
138240 On ch=2 n=67 v=90
138672 On ch=1 n=72 v=0
138672 On ch=1 n=60 v=0
138672 On ch=2 n=36 v=0
138720 On ch=1 n=70 v=110
138720 On ch=1 n=58 v=110
138720 On ch=2 n=38 v=90
138936 On ch=2 n=38 v=0
138960 On ch=2 n=39 v=90
139152 On ch=1 n=70 v=0
139152 On ch=1 n=58 v=0
139176 On ch=2 n=39 v=0
139200 On ch=1 n=69 v=110
139200 On ch=1 n=57 v=110
139200 On ch=2 n=41 v=90
139632 On ch=1 n=69 v=0
139632 On ch=1 n=57 v=0
139632 On ch=2 n=41 v=0
139680 On ch=2 n=60 v=0
139680 On ch=2 n=72 v=0
139680 On ch=2 n=67 v=0
139680 On ch=1 n=67 v=110
139680 On ch=1 n=55 v=110
139680 On ch=2 n=44 v=90
139680 On ch=2 n=70 v=90
139680 On ch=2 n=65 v=90
139680 On ch=2 n=58 v=90
140112 On ch=2 n=44 v=0
140160 On ch=2 n=38 v=90
140544 On ch=1 n=67 v=0
140544 On ch=1 n=55 v=0
140592 On ch=2 n=38 v=0
140640 On ch=1 n=69 v=110
140640 On ch=1 n=57 v=110
140640 On ch=2 n=41 v=90
140976 On ch=2 n=70 v=0
140976 On ch=2 n=65 v=0
140976 On ch=2 n=58 v=0
141072 On ch=1 n=69 v=0
141072 On ch=1 n=57 v=0
141072 On ch=2 n=41 v=0
141120 On ch=1 n=67 v=110
141120 On ch=1 n=55 v=110
141120 On ch=2 n=32 v=90
141120 On ch=2 n=70 v=90
141120 On ch=2 n=65 v=90
141120 On ch=2 n=58 v=90
141552 On ch=2 n=32 v=0
141600 On ch=2 n=32 v=90
141816 On ch=2 n=32 v=0
141840 On ch=2 n=32 v=90
141984 On ch=1 n=67 v=0
141984 On ch=1 n=55 v=0
142056 On ch=2 n=32 v=0
142080 On ch=1 n=65 v=110
142080 On ch=1 n=53 v=110
142080 On ch=2 n=32 v=90
142416 On ch=2 n=70 v=0
142416 On ch=2 n=65 v=0
142416 On ch=2 n=58 v=0
142512 On ch=1 n=65 v=0
142512 On ch=1 n=53 v=0
142512 On ch=2 n=32 v=0
142560 On ch=1 n=65 v=110
142560 On ch=1 n=53 v=110
142560 On ch=2 n=32 v=90
142560 On ch=2 n=72 v=90
142560 On ch=2 n=60 v=90
142560 On ch=2 n=68 v=90
142992 On ch=2 n=32 v=0
143040 On ch=2 n=32 v=90
143472 On ch=2 n=32 v=0
143520 On ch=2 n=32 v=90
143856 On ch=2 n=72 v=0
143856 On ch=2 n=60 v=0
143856 On ch=2 n=68 v=0
143952 On ch=2 n=32 v=0
144000 On ch=2 n=32 v=90
144000 On ch=2 n=74 v=90
144000 On ch=2 n=62 v=90
144000 On ch=2 n=68 v=90
144432 On ch=2 n=32 v=0
144480 On ch=2 n=39 v=90
144696 On ch=2 n=39 v=0
144720 On ch=2 n=44 v=90
144864 On ch=1 n=65 v=0
144864 On ch=1 n=53 v=0
145152 On ch=2 n=44 v=0
145200 On ch=2 n=32 v=90
145416 On ch=2 n=32 v=0
145440 On ch=2 n=74 v=0
145440 On ch=2 n=62 v=0
145440 On ch=2 n=68 v=0
145440 On ch=1 n=74 v=110
145440 On ch=2 n=44 v=90
145440 On ch=2 n=74 v=90
145440 On ch=2 n=68 v=90
145440 On ch=2 n=62 v=90
145872 On ch=2 n=44 v=0
145920 On ch=2 n=38 v=90
146304 On ch=2 n=74 v=0
146304 On ch=2 n=68 v=0
146304 On ch=2 n=62 v=0
146352 On ch=2 n=38 v=0
146400 On ch=2 n=33 v=90
146400 On ch=2 n=75 v=90
146400 On ch=2 n=70 v=90
146400 On ch=2 n=63 v=90
146520 On ch=1 n=72 v=110
146628 On ch=1 n=72 v=0
146640 On ch=1 n=70 v=110
146736 On ch=1 n=74 v=0
146748 On ch=1 n=70 v=0
146760 On ch=1 n=69 v=110
146832 On ch=2 n=33 v=0
146832 On ch=2 n=75 v=0
146832 On ch=2 n=70 v=0
146832 On ch=2 n=63 v=0
146868 On ch=1 n=69 v=0
146880 KeySig 255 major
146880 On ch=1 n=69 v=110
146880 On ch=2 n=31 v=90
146880 On ch=2 n=74 v=90
147312 On ch=2 n=31 v=0
147312 On ch=2 n=74 v=0
147360 On ch=1 n=74 v=110
147360 On ch=2 n=31 v=90
147360 On ch=2 n=70 v=90
147360 On ch=2 n=67 v=90
147360 On ch=2 n=62 v=90
147792 On ch=1 n=74 v=0
147792 On ch=2 n=31 v=0
147792 On ch=2 n=70 v=0
147792 On ch=2 n=67 v=0
147792 On ch=2 n=62 v=0
147840 On ch=1 n=74 v=110
147840 On ch=2 n=31 v=90
147840 On ch=2 n=70 v=90
147840 On ch=2 n=67 v=90
147840 On ch=2 n=62 v=90
148272 On ch=1 n=74 v=0
148272 On ch=2 n=31 v=0
148272 On ch=2 n=70 v=0
148272 On ch=2 n=67 v=0
148272 On ch=2 n=62 v=0
148320 On ch=1 n=76 v=110
148320 On ch=2 n=31 v=90
148320 On ch=2 n=72 v=90
148320 On ch=2 n=69 v=90
148320 On ch=2 n=64 v=90
148752 On ch=1 n=76 v=0
148752 On ch=2 n=31 v=0
148752 On ch=2 n=72 v=0
148752 On ch=2 n=69 v=0
148752 On ch=2 n=64 v=0
148800 On ch=1 n=77 v=110
148800 On ch=2 n=31 v=90
148800 On ch=2 n=74 v=90
148800 On ch=2 n=70 v=90
148800 On ch=2 n=65 v=90
149232 On ch=1 n=77 v=0
149232 On ch=2 n=31 v=0
149232 On ch=2 n=74 v=0
149232 On ch=2 n=70 v=0
149232 On ch=2 n=65 v=0
149280 On ch=1 n=74 v=110
149280 On ch=2 n=31 v=90
149280 On ch=2 n=70 v=90
149280 On ch=2 n=67 v=90
149280 On ch=2 n=62 v=90
149712 On ch=1 n=74 v=0
149712 On ch=2 n=31 v=0
149712 On ch=2 n=70 v=0
149712 On ch=2 n=67 v=0
149712 On ch=2 n=62 v=0
149760 On ch=1 n=76 v=110
149760 On ch=2 n=31 v=90
149760 On ch=2 n=67 v=90
149760 On ch=2 n=64 v=90
149760 On ch=2 n=72 v=90
150192 On ch=1 n=76 v=0
150192 On ch=2 n=31 v=0
150192 On ch=2 n=67 v=0
150192 On ch=2 n=64 v=0
150192 On ch=2 n=72 v=0
150240 On ch=1 n=72 v=110
150240 On ch=2 n=31 v=90
150240 On ch=2 n=67 v=90
150240 On ch=2 n=64 v=90
150240 On ch=2 n=60 v=90
150456 On ch=1 n=72 v=0
150456 On ch=2 n=31 v=0
150456 On ch=2 n=67 v=0
150456 On ch=2 n=64 v=0
150456 On ch=2 n=60 v=0
150480 On ch=1 n=74 v=110
150480 On ch=2 n=31 v=90
150480 On ch=2 n=67 v=90
150480 On ch=2 n=65 v=90
150480 On ch=2 n=62 v=90
150912 On ch=1 n=74 v=0
150912 On ch=2 n=31 v=0
150912 On ch=2 n=67 v=0
150912 On ch=2 n=65 v=0
150912 On ch=2 n=62 v=0
150960 On ch=1 n=70 v=110
150960 On ch=2 n=31 v=90
150960 On ch=2 n=67 v=90
150960 On ch=2 n=58 v=90
150960 On ch=2 n=62 v=90
151176 On ch=1 n=70 v=0
151176 On ch=2 n=31 v=0
151176 On ch=2 n=67 v=0
151176 On ch=2 n=58 v=0
151176 On ch=2 n=62 v=0
151200 On ch=1 n=70 v=110
151200 On ch=2 n=31 v=90
151200 On ch=2 n=67 v=90
151200 On ch=2 n=62 v=90
151200 On ch=2 n=58 v=90
151201 On ch=1 n=69 v=0
151632 On ch=1 n=70 v=0
151632 On ch=2 n=31 v=0
151632 On ch=2 n=67 v=0
151632 On ch=2 n=62 v=0
151632 On ch=2 n=58 v=0
151680 On ch=1 n=72 v=110
151680 On ch=2 n=31 v=90
151680 On ch=2 n=69 v=90
151680 On ch=2 n=64 v=90
151680 On ch=2 n=60 v=90
152112 On ch=1 n=72 v=0
152112 On ch=2 n=31 v=0
152112 On ch=2 n=69 v=0
152112 On ch=2 n=64 v=0
152112 On ch=2 n=60 v=0
152160 On ch=1 n=69 v=110
152160 On ch=2 n=31 v=90
152160 On ch=2 n=65 v=90
152160 On ch=2 n=60 v=90
152160 On ch=2 n=57 v=90
152592 On ch=1 n=69 v=0
152592 On ch=2 n=31 v=0
152592 On ch=2 n=65 v=0
152592 On ch=2 n=60 v=0
152592 On ch=2 n=57 v=0
152640 On ch=1 n=70 v=110
152640 On ch=2 n=31 v=90
152640 On ch=2 n=58 v=90
152640 On ch=2 n=67 v=90
152640 On ch=2 n=62 v=90
153072 On ch=1 n=70 v=0
153072 On ch=2 n=31 v=0
153072 On ch=2 n=58 v=0
153072 On ch=2 n=67 v=0
153072 On ch=2 n=62 v=0
153120 On ch=1 n=67 v=110
153120 On ch=2 n=31 v=90
153120 On ch=2 n=55 v=90
153120 On ch=2 n=62 v=90
153120 On ch=2 n=58 v=90
153552 On ch=1 n=67 v=0
153552 On ch=2 n=31 v=0
153552 On ch=2 n=55 v=0
153552 On ch=2 n=62 v=0
153552 On ch=2 n=58 v=0
153600 On ch=1 n=69 v=110
153600 On ch=2 n=31 v=90
153600 On ch=2 n=57 v=90
153600 On ch=2 n=65 v=90
153600 On ch=2 n=60 v=90
154032 On ch=1 n=69 v=0
154032 On ch=2 n=31 v=0
154032 On ch=2 n=57 v=0
154032 On ch=2 n=65 v=0
154032 On ch=2 n=60 v=0
154080 On ch=1 n=65 v=110
154080 On ch=2 n=31 v=90
154080 On ch=2 n=53 v=90
154080 On ch=2 n=60 v=90
154080 On ch=2 n=57 v=90
154512 On ch=1 n=65 v=0
154512 On ch=2 n=31 v=0
154512 On ch=2 n=53 v=0
154512 On ch=2 n=60 v=0
154512 On ch=2 n=57 v=0
154560 On ch=1 n=67 v=110
154560 On ch=2 n=31 v=90
154560 On ch=2 n=55 v=90
154560 On ch=2 n=62 v=90
154560 On ch=2 n=58 v=90
154992 On ch=1 n=67 v=0
154992 On ch=2 n=31 v=0
154992 On ch=2 n=55 v=0
154992 On ch=2 n=62 v=0
154992 On ch=2 n=58 v=0
155040 On ch=1 n=64 v=110
155040 On ch=2 n=31 v=90
155040 On ch=2 n=52 v=90
155040 On ch=2 n=57 v=90
155040 On ch=2 n=55 v=90
155472 On ch=1 n=64 v=0
155472 On ch=2 n=31 v=0
155472 On ch=2 n=52 v=0
155472 On ch=2 n=57 v=0
155472 On ch=2 n=55 v=0
155520 On ch=1 n=62 v=110
155520 On ch=2 n=31 v=100
155520 On ch=2 n=50 v=100
155520 On ch=2 n=55 v=100
156384 On ch=1 n=62 v=0
156384 On ch=2 n=31 v=0
156384 On ch=2 n=50 v=0
156384 On ch=2 n=55 v=0
156384 Meta TrkEnd
TrkEnd

]]
print( GUNSTRUMENTAL_TAB )
end