PLUGIN.Name = "GSDIRECT"
PLUGIN.DefaultOn = false
PLUGIN.Description = ""
PLUGIN.Trigger = true

function PLUGIN:Load()
GUNSTRUMENTAL_TAB =  [[MFile 1 2 960
MTrk
3840 Tempo 750000
3840 On ch=1 n=69 v=80
4061 Off ch=1 n=69 v=100
4320 On ch=1 n=69 v=80
4541 Off ch=1 n=69 v=100
4560 On ch=1 n=72 v=80
4781 Off ch=1 n=72 v=100
4800 On ch=1 n=76 v=80
5242 Off ch=1 n=76 v=100
5280 On ch=1 n=69 v=80
5722 Off ch=1 n=69 v=100
5760 On ch=1 n=77 v=80
6202 Off ch=1 n=77 v=100
6240 On ch=1 n=74 v=80
6682 Off ch=1 n=74 v=100
6720 On ch=1 n=69 v=80
7162 Off ch=1 n=69 v=100
7200 On ch=1 n=77 v=80
7642 Off ch=1 n=77 v=100
7680 On ch=1 n=76 v=80
8122 Off ch=1 n=76 v=100
8160 On ch=1 n=69 v=80
8602 Off ch=1 n=69 v=100
8640 On ch=1 n=72 v=80
9082 Off ch=1 n=72 v=100
9120 On ch=1 n=76 v=80
9562 Off ch=1 n=76 v=100
9600 On ch=1 n=74 v=80
10042 Off ch=1 n=74 v=100
10080 On ch=1 n=68 v=80
10522 Off ch=1 n=68 v=100
10560 On ch=1 n=71 v=80
11002 Off ch=1 n=71 v=100
11040 On ch=1 n=74 v=80
11482 Off ch=1 n=74 v=100
11520 On ch=1 n=72 v=80
11741 Off ch=1 n=72 v=100
12000 On ch=1 n=72 v=80
12221 Off ch=1 n=72 v=100
12240 On ch=1 n=76 v=80
12461 Off ch=1 n=76 v=100
12480 On ch=1 n=79 v=80
12922 Off ch=1 n=79 v=100
12960 On ch=1 n=72 v=80
13402 Off ch=1 n=72 v=100
13440 On ch=1 n=81 v=80
13882 Off ch=1 n=81 v=100
13920 On ch=1 n=77 v=80
14362 Off ch=1 n=77 v=100
14400 On ch=1 n=74 v=80
14842 Off ch=1 n=74 v=100
14880 On ch=1 n=71 v=80
15212 Off ch=1 n=71 v=100
15240 On ch=1 n=75 v=80
15351 Off ch=1 n=75 v=100
15360 On ch=1 n=76 v=80
15802 Off ch=1 n=76 v=100
15840 On ch=1 n=72 v=80
16282 Off ch=1 n=72 v=100
16320 On ch=1 n=69 v=80
16762 Off ch=1 n=69 v=100
16800 On ch=1 n=64 v=80
17242 Off ch=1 n=64 v=100
17280 On ch=1 n=74 v=80
17722 Off ch=1 n=74 v=100
17760 On ch=1 n=71 v=80
18202 Off ch=1 n=71 v=100
18240 On ch=1 n=68 v=80
18682 Off ch=1 n=68 v=100
18720 On ch=1 n=64 v=80
19162 Off ch=1 n=64 v=100
19200 On ch=1 n=69 v=80
19421 Off ch=1 n=69 v=100
19680 On ch=1 n=69 v=80
19901 Off ch=1 n=69 v=100
19920 On ch=1 n=72 v=80
20141 Off ch=1 n=72 v=100
20160 On ch=1 n=76 v=80
20602 Off ch=1 n=76 v=100
20640 On ch=1 n=69 v=80
21082 Off ch=1 n=69 v=100
21120 On ch=1 n=77 v=80
21562 Off ch=1 n=77 v=100
21600 On ch=1 n=74 v=80
22042 Off ch=1 n=74 v=100
22080 On ch=1 n=69 v=80
22522 Off ch=1 n=69 v=100
22560 On ch=1 n=77 v=80
23002 Off ch=1 n=77 v=100
23040 On ch=1 n=76 v=80
23482 Off ch=1 n=76 v=100
23520 On ch=1 n=69 v=80
23962 Off ch=1 n=69 v=100
24000 On ch=1 n=72 v=80
24442 Off ch=1 n=72 v=100
24480 On ch=1 n=76 v=80
24922 Off ch=1 n=76 v=100
24960 On ch=1 n=74 v=80
25402 Off ch=1 n=74 v=100
25440 On ch=1 n=68 v=80
25882 Off ch=1 n=68 v=100
25920 On ch=1 n=71 v=80
26362 Off ch=1 n=71 v=100
26400 On ch=1 n=74 v=80
26842 Off ch=1 n=74 v=100
26880 On ch=1 n=72 v=80
27101 Off ch=1 n=72 v=100
27360 On ch=1 n=72 v=80
27581 Off ch=1 n=72 v=100
27600 On ch=1 n=76 v=80
27821 Off ch=1 n=76 v=100
27840 On ch=1 n=79 v=80
28282 Off ch=1 n=79 v=100
28320 On ch=1 n=72 v=80
28762 Off ch=1 n=72 v=100
28800 On ch=1 n=81 v=80
29242 Off ch=1 n=81 v=100
29280 On ch=1 n=77 v=80
29722 Off ch=1 n=77 v=100
29760 On ch=1 n=74 v=80
30202 Off ch=1 n=74 v=100
30240 On ch=1 n=71 v=80
30682 Off ch=1 n=71 v=100
30720 On ch=1 n=76 v=80
30941 Off ch=1 n=76 v=100
30960 On ch=1 n=77 v=80
31181 Off ch=1 n=77 v=100
31200 On ch=1 n=76 v=80
31421 Off ch=1 n=76 v=100
31440 On ch=1 n=74 v=80
31661 Off ch=1 n=74 v=100
31680 On ch=1 n=72 v=80
31901 Off ch=1 n=72 v=100
31920 On ch=1 n=74 v=80
32141 Off ch=1 n=74 v=100
32160 On ch=1 n=72 v=80
32381 Off ch=1 n=72 v=100
32400 On ch=1 n=71 v=80
32621 Off ch=1 n=71 v=100
32640 On ch=1 n=69 v=80
32861 Off ch=1 n=69 v=100
32880 On ch=1 n=71 v=80
33101 Off ch=1 n=71 v=100
33120 On ch=1 n=69 v=80
33341 Off ch=1 n=69 v=100
33360 On ch=1 n=68 v=80
33581 Off ch=1 n=68 v=100
33600 On ch=1 n=66 v=80
33821 Off ch=1 n=66 v=100
33840 On ch=1 n=68 v=80
34061 Off ch=1 n=68 v=100
34080 On ch=1 n=66 v=80
34301 Off ch=1 n=66 v=100
34320 On ch=1 n=64 v=80
34541 Off ch=1 n=64 v=100
34560 On ch=1 n=72 v=80
34781 Off ch=1 n=72 v=100
35040 On ch=1 n=69 v=80
35261 Off ch=1 n=69 v=100
35520 On ch=1 n=76 v=80
35741 Off ch=1 n=76 v=100
36000 On ch=1 n=69 v=80
36221 Off ch=1 n=69 v=100
36480 On ch=1 n=77 v=80
36701 Off ch=1 n=77 v=100
36960 On ch=1 n=76 v=80
37181 Off ch=1 n=76 v=100
37440 On ch=1 n=74 v=80
37661 Off ch=1 n=74 v=100
37920 On ch=1 n=72 v=80
38141 Off ch=1 n=72 v=100
38400 On ch=1 n=71 v=80
38621 Off ch=1 n=71 v=100
38880 On ch=1 n=77 v=80
39101 Off ch=1 n=77 v=100
39360 On ch=1 n=76 v=80
39581 Off ch=1 n=76 v=100
39600 On ch=1 n=74 v=80
39821 Off ch=1 n=74 v=100
39840 On ch=1 n=72 v=80
40061 Off ch=1 n=72 v=100
40080 On ch=1 n=71 v=80
40301 Off ch=1 n=71 v=100
40320 On ch=1 n=72 v=80
40541 Off ch=1 n=72 v=100
40800 On ch=1 n=74 v=80
41021 Off ch=1 n=74 v=100
41280 On ch=1 n=76 v=80
42384 Off ch=1 n=76 v=100
42720 On ch=1 n=69 v=80
42941 Off ch=1 n=69 v=100
43200 On ch=1 n=72 v=80
43421 Off ch=1 n=72 v=100
43680 On ch=1 n=76 v=80
43901 Off ch=1 n=76 v=100
44160 On ch=1 n=77 v=80
44381 Off ch=1 n=77 v=100
44640 On ch=1 n=76 v=80
44861 Off ch=1 n=76 v=100
45120 On ch=1 n=74 v=80
45341 Off ch=1 n=74 v=100
45360 On ch=1 n=72 v=80
45581 Off ch=1 n=72 v=100
45600 On ch=1 n=71 v=80
45821 Off ch=1 n=71 v=100
45840 On ch=1 n=69 v=80
46061 Off ch=1 n=69 v=100
46080 On ch=1 n=68 v=80
46743 Off ch=1 n=68 v=100
46800 On ch=1 n=69 v=80
47463 Off ch=1 n=69 v=100
47520 On ch=1 n=71 v=80
47962 Off ch=1 n=71 v=100
48000 On ch=1 n=69 v=80
48442 Off ch=1 n=69 v=100
48480 On ch=1 n=71 v=80
48922 Off ch=1 n=71 v=100
48960 On ch=1 n=72 v=80
49402 Off ch=1 n=72 v=100
49440 On ch=1 n=76 v=80
49882 Off ch=1 n=76 v=100
49920 On ch=1 n=84 v=80
50141 Off ch=1 n=84 v=100
50400 On ch=1 n=81 v=80
50621 Off ch=1 n=81 v=100
50880 On ch=1 n=88 v=80
51101 Off ch=1 n=88 v=100
51360 On ch=1 n=81 v=80
51581 Off ch=1 n=81 v=100
51840 On ch=1 n=89 v=80
52061 Off ch=1 n=89 v=100
52320 On ch=1 n=88 v=80
52541 Off ch=1 n=88 v=100
52800 On ch=1 n=86 v=80
53021 Off ch=1 n=86 v=100
53280 On ch=1 n=84 v=80
53501 Off ch=1 n=84 v=100
53760 On ch=1 n=83 v=80
53981 Off ch=1 n=83 v=100
54240 On ch=1 n=89 v=80
54461 Off ch=1 n=89 v=100
54720 On ch=1 n=88 v=80
54941 Off ch=1 n=88 v=100
54960 On ch=1 n=86 v=80
55181 Off ch=1 n=86 v=100
55200 On ch=1 n=84 v=80
55421 Off ch=1 n=84 v=100
55440 On ch=1 n=83 v=80
55661 Off ch=1 n=83 v=100
55680 On ch=1 n=84 v=80
55901 Off ch=1 n=84 v=100
56160 On ch=1 n=86 v=80
56381 Off ch=1 n=86 v=100
56640 On ch=1 n=88 v=80
57744 Off ch=1 n=88 v=100
58080 On ch=1 n=81 v=80
58301 Off ch=1 n=81 v=100
58560 On ch=1 n=84 v=80
58781 Off ch=1 n=84 v=100
59040 On ch=1 n=88 v=80
59261 Off ch=1 n=88 v=100
59520 On ch=1 n=89 v=80
59741 Off ch=1 n=89 v=100
60000 On ch=1 n=88 v=80
60221 Off ch=1 n=88 v=100
60480 On ch=1 n=86 v=80
60701 Off ch=1 n=86 v=100
60720 On ch=1 n=84 v=80
60941 Off ch=1 n=84 v=100
60960 On ch=1 n=83 v=80
61181 Off ch=1 n=83 v=100
61200 On ch=1 n=81 v=80
61421 Off ch=1 n=81 v=100
61440 On ch=1 n=80 v=80
62103 Off ch=1 n=80 v=100
62160 On ch=1 n=81 v=80
62823 Off ch=1 n=81 v=100
62880 On ch=1 n=83 v=80
63322 Off ch=1 n=83 v=100
63360 On ch=1 n=81 v=80
63581 Off ch=1 n=81 v=100
64080 On ch=1 n=76 v=80
64301 Off ch=1 n=76 v=100
64320 On ch=1 n=74 v=80
64541 Off ch=1 n=74 v=100
64560 On ch=1 n=72 v=80
64781 Off ch=1 n=72 v=100
64800 On ch=1 n=71 v=80
65242 Off ch=1 n=71 v=100
65280 On ch=1 n=72 v=80
65501 Off ch=1 n=72 v=100
65760 On ch=1 n=69 v=80
65981 Off ch=1 n=69 v=100
66240 On ch=1 n=72 v=80
66461 Off ch=1 n=72 v=100
66720 On ch=1 n=74 v=80
66941 Off ch=1 n=74 v=100
67200 On ch=1 n=76 v=80
67421 Off ch=1 n=76 v=100
67680 On ch=1 n=74 v=80
67901 Off ch=1 n=74 v=100
68160 On ch=1 n=77 v=80
68381 Off ch=1 n=77 v=100
68640 On ch=1 n=76 v=80
68861 Off ch=1 n=76 v=100
69120 On ch=1 n=74 v=80
69341 Off ch=1 n=74 v=100
69600 On ch=1 n=72 v=80
69821 Off ch=1 n=72 v=100
70080 On ch=1 n=71 v=80
70301 Off ch=1 n=71 v=100
70320 On ch=1 n=72 v=80
70541 Off ch=1 n=72 v=100
70560 On ch=1 n=71 v=80
70781 Off ch=1 n=71 v=100
70800 On ch=1 n=68 v=80
71021 Off ch=1 n=68 v=100
71040 On ch=1 n=69 v=80
71261 Off ch=1 n=69 v=100
71520 On ch=1 n=71 v=80
71741 Off ch=1 n=71 v=100
72000 On ch=1 n=72 v=80
73104 Off ch=1 n=72 v=100
73440 On ch=1 n=71 v=80
73661 Off ch=1 n=71 v=100
73920 On ch=1 n=69 v=80
74141 Off ch=1 n=69 v=100
74400 On ch=1 n=72 v=80
74621 Off ch=1 n=72 v=100
74880 On ch=1 n=74 v=80
75101 Off ch=1 n=74 v=100
75360 On ch=1 n=76 v=80
75581 Off ch=1 n=76 v=100
75840 On ch=1 n=77 v=80
76061 Off ch=1 n=77 v=100
76080 On ch=1 n=76 v=80
76301 Off ch=1 n=76 v=100
76320 On ch=1 n=74 v=80
76541 Off ch=1 n=74 v=100
76560 On ch=1 n=72 v=80
76781 Off ch=1 n=72 v=100
76800 On ch=1 n=71 v=80
77463 Off ch=1 n=71 v=100
77520 On ch=1 n=72 v=80
78183 Off ch=1 n=72 v=100
78240 On ch=1 n=74 v=80
78682 Off ch=1 n=74 v=100
78720 On ch=1 n=72 v=80
79162 Off ch=1 n=72 v=100
79200 On ch=1 n=71 v=80
79642 Off ch=1 n=71 v=100
79680 On ch=1 n=80 v=80
80122 Off ch=1 n=80 v=100
80160 On ch=1 n=83 v=80
80602 Off ch=1 n=83 v=100
80640 On ch=1 n=84 v=80
80861 Off ch=1 n=84 v=100
81120 On ch=1 n=81 v=80
81341 Off ch=1 n=81 v=100
81600 On ch=1 n=88 v=80
81821 Off ch=1 n=88 v=100
82080 On ch=1 n=81 v=80
82301 Off ch=1 n=81 v=100
82560 On ch=1 n=89 v=80
82781 Off ch=1 n=89 v=100
83040 On ch=1 n=88 v=80
83151 Off ch=1 n=88 v=100
83160 On ch=1 n=89 v=80
83271 Off ch=1 n=89 v=100
83280 On ch=1 n=88 v=80
83391 Off ch=1 n=88 v=100
83520 On ch=1 n=86 v=80
83741 Off ch=1 n=86 v=100
84000 On ch=1 n=84 v=80
84221 Off ch=1 n=84 v=100
84480 On ch=1 n=83 v=80
84701 Off ch=1 n=83 v=100
84960 On ch=1 n=89 v=80
85181 Off ch=1 n=89 v=100
85440 On ch=1 n=88 v=80
85661 Off ch=1 n=88 v=100
85680 On ch=1 n=86 v=80
85901 Off ch=1 n=86 v=100
85920 On ch=1 n=84 v=80
86141 Off ch=1 n=84 v=100
86160 On ch=1 n=83 v=80
86381 Off ch=1 n=83 v=100
86400 On ch=1 n=84 v=80
86621 Off ch=1 n=84 v=100
86880 On ch=1 n=86 v=80
87101 Off ch=1 n=86 v=100
87360 On ch=1 n=88 v=80
88464 Off ch=1 n=88 v=100
88800 On ch=1 n=81 v=80
89021 Off ch=1 n=81 v=100
89280 On ch=1 n=84 v=80
89501 Off ch=1 n=84 v=100
89760 On ch=1 n=88 v=80
89981 Off ch=1 n=88 v=100
90240 On ch=1 n=89 v=80
90461 Off ch=1 n=89 v=100
90720 On ch=1 n=88 v=80
90941 Off ch=1 n=88 v=100
91200 On ch=1 n=86 v=80
91421 Off ch=1 n=86 v=100
91440 On ch=1 n=84 v=80
91661 Off ch=1 n=84 v=100
91680 On ch=1 n=83 v=80
91901 Off ch=1 n=83 v=100
91920 On ch=1 n=81 v=80
92141 Off ch=1 n=81 v=100
92160 On ch=1 n=80 v=80
92823 Off ch=1 n=80 v=100
92880 On ch=1 n=81 v=80
93543 Off ch=1 n=81 v=100
93600 On ch=1 n=83 v=80
94042 Off ch=1 n=83 v=100
94080 On ch=1 n=81 v=80
94301 Off ch=1 n=81 v=100
94800 On ch=1 n=76 v=80
95021 Off ch=1 n=76 v=100
95040 On ch=1 n=74 v=80
95482 Off ch=1 n=74 v=100
95520 On ch=1 n=71 v=80
95741 Off ch=1 n=71 v=100
95760 On ch=1 n=74 v=80
95981 Off ch=1 n=74 v=100
96000 On ch=1 n=72 v=80
96442 Off ch=1 n=72 v=100
96480 On ch=3 n=76 v=80
96922 Off ch=3 n=76 v=100
96960 On ch=3 n=81 v=80
97402 Off ch=3 n=81 v=100
97440 On ch=3 n=76 v=80
97882 Off ch=3 n=76 v=100
97920 On ch=3 n=74 v=80
98362 Off ch=3 n=74 v=100
98400 On ch=3 n=79 v=80
98842 Off ch=3 n=79 v=100
98880 On ch=3 n=83 v=80
99322 Off ch=3 n=83 v=100
99360 On ch=3 n=79 v=80
99802 Off ch=3 n=79 v=100
99840 On ch=3 n=76 v=80
100282 Off ch=3 n=76 v=100
100320 On ch=3 n=74 v=80
100762 Off ch=3 n=74 v=100
100800 On ch=3 n=76 v=80
101242 Off ch=3 n=76 v=100
101280 On ch=3 n=71 v=80
101722 Off ch=3 n=71 v=100
101760 On ch=3 n=72 v=80
102202 Off ch=3 n=72 v=100
102240 On ch=3 n=71 v=80
102682 Off ch=3 n=71 v=100
102720 On ch=3 n=72 v=80
103162 Off ch=3 n=72 v=100
103200 On ch=3 n=74 v=80
103642 Off ch=3 n=74 v=100
103680 On ch=3 n=72 v=80
104122 Off ch=3 n=72 v=100
104160 On ch=3 n=76 v=80
104602 Off ch=3 n=76 v=100
104640 On ch=3 n=81 v=80
105082 Off ch=3 n=81 v=100
105120 On ch=3 n=76 v=80
105562 Off ch=3 n=76 v=100
105600 On ch=3 n=74 v=80
106042 Off ch=3 n=74 v=100
106080 On ch=3 n=79 v=80
106522 Off ch=3 n=79 v=100
106560 On ch=3 n=83 v=80
107002 Off ch=3 n=83 v=100
107040 On ch=3 n=81 v=80
108365 Off ch=3 n=81 v=100
108480 On ch=3 n=81 v=80
108922 Off ch=3 n=81 v=100
108960 On ch=3 n=93 v=80
109402 Off ch=3 n=93 v=100
109440 On ch=3 n=79 v=80
109882 Off ch=3 n=79 v=100
109920 On ch=3 n=86 v=80
110362 Off ch=3 n=86 v=100
110400 On ch=3 n=76 v=80
110842 Off ch=3 n=76 v=100
110880 On ch=3 n=83 v=80
111322 Off ch=3 n=83 v=100
111360 On ch=3 n=72 v=80
111802 Off ch=3 n=72 v=100
111840 On ch=3 n=76 v=80
112282 Off ch=3 n=76 v=100
112320 On ch=3 n=81 v=80
112762 Off ch=3 n=81 v=100
112800 On ch=3 n=76 v=80
113242 Off ch=3 n=76 v=100
113280 On ch=3 n=74 v=80
113722 Off ch=3 n=74 v=100
113760 On ch=3 n=79 v=80
114202 Off ch=3 n=79 v=100
114240 On ch=3 n=83 v=80
114682 Off ch=3 n=83 v=100
114720 On ch=3 n=79 v=80
115162 Off ch=3 n=79 v=100
115200 On ch=3 n=76 v=80
115642 Off ch=3 n=76 v=100
115680 On ch=3 n=74 v=80
116122 Off ch=3 n=74 v=100
116160 On ch=3 n=76 v=80
116602 Off ch=3 n=76 v=100
116640 On ch=3 n=71 v=80
117082 Off ch=3 n=71 v=100
117120 On ch=3 n=72 v=80
117562 Off ch=3 n=72 v=100
117600 On ch=3 n=71 v=80
118042 Off ch=3 n=71 v=100
118080 On ch=3 n=72 v=80
118522 Off ch=3 n=72 v=100
118560 On ch=3 n=74 v=80
119002 Off ch=3 n=74 v=100
119040 On ch=3 n=72 v=80
119482 Off ch=3 n=72 v=100
119520 On ch=3 n=76 v=80
119962 Off ch=3 n=76 v=100
120000 On ch=3 n=81 v=80
120442 Off ch=3 n=81 v=100
120480 On ch=3 n=76 v=80
120922 Off ch=3 n=76 v=100
120960 On ch=3 n=74 v=80
121402 Off ch=3 n=74 v=100
121440 On ch=3 n=79 v=80
121882 Off ch=3 n=79 v=100
121920 On ch=3 n=80 v=80
122362 Off ch=3 n=80 v=100
122400 On ch=3 n=84 v=80
123725 Off ch=3 n=84 v=100
123840 On ch=3 n=81 v=80
124282 Off ch=3 n=81 v=100
124320 On ch=3 n=86 v=80
124762 Off ch=3 n=86 v=100
124800 On ch=3 n=88 v=80
125242 Off ch=3 n=88 v=100
125280 On ch=3 n=89 v=80
125722 Off ch=3 n=89 v=100
125760 On ch=3 n=76 v=80
126202 Off ch=3 n=76 v=100
126240 On ch=3 n=75 v=80
126682 Off ch=3 n=75 v=100
126720 On ch=1 n=76 v=80
127162 Off ch=1 n=76 v=100
127200 On ch=1 n=72 v=80
127421 Off ch=1 n=72 v=100
127680 On ch=1 n=74 v=80
127901 Off ch=1 n=74 v=100
128160 On ch=1 n=76 v=80
128381 Off ch=1 n=76 v=100
128640 On ch=1 n=77 v=80
129082 Off ch=1 n=77 v=100
129120 On ch=1 n=76 v=80
129231 Off ch=1 n=76 v=100
129240 On ch=1 n=77 v=80
129351 Off ch=1 n=77 v=100
129360 On ch=1 n=76 v=80
129471 Off ch=1 n=76 v=100
129600 On ch=1 n=74 v=80
129821 Off ch=1 n=74 v=100
130080 On ch=1 n=72 v=80
130301 Off ch=1 n=72 v=100
130560 On ch=1 n=74 v=80
131444 Off ch=1 n=74 v=100
131520 On ch=1 n=79 v=80
132404 Off ch=1 n=79 v=100
132480 On ch=1 n=76 v=80
133805 Off ch=1 n=76 v=100
133920 On ch=1 n=71 v=80
134141 Off ch=1 n=71 v=100
134400 On ch=1 n=72 v=80
135725 Off ch=1 n=72 v=100
135840 On ch=1 n=69 v=80
136061 Off ch=1 n=69 v=100
136320 On ch=1 n=74 v=80
136541 Off ch=1 n=74 v=100
136560 On ch=1 n=76 v=80
136781 Off ch=1 n=76 v=100
136800 On ch=1 n=74 v=80
137021 Off ch=1 n=74 v=100
137280 On ch=1 n=72 v=80
137501 Off ch=1 n=72 v=100
137760 On ch=1 n=74 v=80
137981 Off ch=1 n=74 v=100
138240 On ch=1 n=71 v=80
139124 Off ch=1 n=71 v=100
139200 On ch=1 n=75 v=80
140084 Off ch=1 n=75 v=100
140160 On ch=1 n=76 v=80
140381 Off ch=1 n=76 v=100
140400 On ch=1 n=77 v=80
140621 Off ch=1 n=77 v=100
140640 On ch=1 n=76 v=80
140861 Off ch=1 n=76 v=100
140880 On ch=1 n=77 v=80
141101 Off ch=1 n=77 v=100
141120 On ch=1 n=76 v=80
141562 Off ch=1 n=76 v=100
141600 On ch=1 n=71 v=80
141821 Off ch=1 n=71 v=100
142080 On ch=1 n=72 v=80
142522 Off ch=1 n=72 v=100
142560 On ch=1 n=69 v=80
142781 Off ch=1 n=69 v=100
143040 On ch=1 n=72 v=80
143261 Off ch=1 n=72 v=100
143520 On ch=1 n=74 v=80
143741 Off ch=1 n=74 v=100
144000 On ch=1 n=76 v=80
144221 Off ch=1 n=76 v=100
144240 On ch=1 n=77 v=80
144461 Off ch=1 n=77 v=100
144480 On ch=1 n=76 v=80
144701 Off ch=1 n=76 v=100
144960 On ch=1 n=74 v=80
145181 Off ch=1 n=74 v=100
145440 On ch=1 n=72 v=80
145661 Off ch=1 n=72 v=100
145920 On ch=1 n=74 v=80
146804 Off ch=1 n=74 v=100
146880 On ch=1 n=67 v=80
147764 Off ch=1 n=67 v=100
147840 On ch=1 n=76 v=80
149165 Off ch=1 n=76 v=100
149280 On ch=1 n=74 v=80
149501 Off ch=1 n=74 v=100
149760 On ch=1 n=72 v=80
149981 Off ch=1 n=72 v=100
150240 On ch=1 n=64 v=80
150461 Off ch=1 n=64 v=100
150720 On ch=1 n=69 v=80
150941 Off ch=1 n=69 v=100
151200 On ch=1 n=72 v=80
151421 Off ch=1 n=72 v=100
151680 On ch=1 n=74 v=80
151901 Off ch=1 n=74 v=100
151920 On ch=1 n=76 v=80
152141 Off ch=1 n=76 v=100
152160 On ch=1 n=77 v=80
152381 Off ch=1 n=77 v=100
152400 On ch=1 n=76 v=80
152621 Off ch=1 n=76 v=100
152640 On ch=1 n=74 v=80
153082 Off ch=1 n=74 v=100
153120 On ch=1 n=71 v=80
153341 Off ch=1 n=71 v=100
153360 On ch=1 n=74 v=80
153581 Off ch=1 n=74 v=100
153600 On ch=1 n=72 v=80
154484 Off ch=1 n=72 v=100
154560 On ch=1 n=71 v=80
155444 Off ch=1 n=71 v=100
155520 On ch=1 n=69 v=80
156480 Tempo 3000000
157287 Off ch=1 n=69 v=100
161280 Meta TrkEnd
TrkEnd
MTrk
3840 On ch=2 n=45 v=75
4282 Off ch=2 n=45 v=100
5280 On ch=2 n=45 v=75
5722 Off ch=2 n=45 v=100
5760 On ch=2 n=50 v=75
6644 Off ch=2 n=50 v=100
6720 On ch=2 n=50 v=75
7604 Off ch=2 n=50 v=100
7680 On ch=2 n=48 v=75
8564 Off ch=2 n=48 v=100
8640 On ch=2 n=45 v=75
9524 Off ch=2 n=45 v=100
9600 On ch=2 n=47 v=75
10484 Off ch=2 n=47 v=100
10560 On ch=2 n=44 v=75
11444 Off ch=2 n=44 v=100
11520 On ch=2 n=48 v=75
11962 Off ch=2 n=48 v=100
12960 On ch=2 n=48 v=75
13402 Off ch=2 n=48 v=100
13440 On ch=2 n=50 v=75
14324 Off ch=2 n=50 v=100
14400 On ch=2 n=50 v=75
15284 Off ch=2 n=50 v=100
15360 On ch=2 n=52 v=75
16244 Off ch=2 n=52 v=100
16320 On ch=2 n=48 v=75
17204 Off ch=2 n=48 v=100
17280 On ch=2 n=50 v=75
18164 Off ch=2 n=50 v=100
18240 On ch=2 n=47 v=75
19124 Off ch=2 n=47 v=100
19200 On ch=2 n=45 v=75
19642 Off ch=2 n=45 v=100
20640 On ch=2 n=45 v=75
21082 Off ch=2 n=45 v=100
21120 On ch=2 n=50 v=75
22004 Off ch=2 n=50 v=100
22080 On ch=2 n=50 v=75
22964 Off ch=2 n=50 v=100
23040 On ch=2 n=48 v=75
23924 Off ch=2 n=48 v=100
24000 On ch=2 n=45 v=75
24884 Off ch=2 n=45 v=100
24960 On ch=2 n=47 v=75
25844 Off ch=2 n=47 v=100
25920 On ch=2 n=44 v=75
26804 Off ch=2 n=44 v=100
26880 On ch=2 n=48 v=75
27322 Off ch=2 n=48 v=100
28320 On ch=2 n=48 v=75
28762 Off ch=2 n=48 v=100
28800 On ch=2 n=50 v=75
29684 Off ch=2 n=50 v=100
29760 On ch=2 n=50 v=75
30644 Off ch=2 n=50 v=100
30720 On ch=2 n=52 v=75
31162 Off ch=2 n=52 v=100
33600 On ch=2 n=40 v=75
34484 Off ch=2 n=40 v=100
34560 On ch=2 n=45 v=75
35002 Off ch=2 n=45 v=100
36000 On ch=2 n=45 v=75
36442 Off ch=2 n=45 v=100
36480 On ch=2 n=41 v=75
37364 Off ch=2 n=41 v=100
37440 On ch=2 n=41 v=75
38324 Off ch=2 n=41 v=100
38400 On ch=2 n=38 v=75
39284 Off ch=2 n=38 v=100
39360 On ch=2 n=50 v=75
40244 Off ch=2 n=50 v=100
40320 On ch=2 n=48 v=75
41204 Off ch=2 n=48 v=100
41280 On ch=2 n=52 v=75
42164 Off ch=2 n=52 v=100
42240 On ch=2 n=45 v=75
42682 Off ch=2 n=45 v=100
43680 On ch=2 n=45 v=75
44122 Off ch=2 n=45 v=100
44160 On ch=2 n=53 v=75
45044 Off ch=2 n=53 v=100
45120 On ch=2 n=53 v=75
46004 Off ch=2 n=53 v=100
46080 On ch=2 n=52 v=75
46743 Off ch=2 n=52 v=100
46800 On ch=2 n=53 v=75
47463 Off ch=2 n=53 v=100
47520 On ch=2 n=56 v=75
47962 Off ch=2 n=56 v=100
48000 On ch=2 n=57 v=75
48442 Off ch=2 n=57 v=100
48960 On ch=2 n=40 v=75
49844 Off ch=2 n=40 v=100
49920 On ch=2 n=45 v=75
50362 Off ch=2 n=45 v=100
51360 On ch=2 n=45 v=75
51802 Off ch=2 n=45 v=100
51840 On ch=2 n=41 v=75
52724 Off ch=2 n=41 v=100
52800 On ch=2 n=41 v=75
53684 Off ch=2 n=41 v=100
53760 On ch=2 n=38 v=75
54644 Off ch=2 n=38 v=100
54720 On ch=2 n=50 v=75
55604 Off ch=2 n=50 v=100
55680 On ch=2 n=48 v=75
56564 Off ch=2 n=48 v=100
56640 On ch=2 n=52 v=75
57524 Off ch=2 n=52 v=100
57600 On ch=2 n=45 v=75
58042 Off ch=2 n=45 v=100
59040 On ch=2 n=45 v=75
59482 Off ch=2 n=45 v=100
59520 On ch=2 n=53 v=75
60404 Off ch=2 n=53 v=100
60480 On ch=2 n=53 v=75
61364 Off ch=2 n=53 v=100
61440 On ch=2 n=52 v=75
62103 Off ch=2 n=52 v=100
62160 On ch=2 n=53 v=75
62823 Off ch=2 n=53 v=100
62880 On ch=2 n=56 v=75
63322 Off ch=2 n=56 v=100
63360 On ch=2 n=57 v=75
63802 Off ch=2 n=57 v=100
64320 On ch=2 n=40 v=75
65204 Off ch=2 n=40 v=100
65280 On ch=2 n=45 v=75
65722 Off ch=2 n=45 v=100
66720 On ch=2 n=45 v=75
67162 Off ch=2 n=45 v=100
67200 On ch=2 n=41 v=75
68084 Off ch=2 n=41 v=100
68160 On ch=2 n=41 v=75
69044 Off ch=2 n=41 v=100
69120 On ch=2 n=38 v=75
70004 Off ch=2 n=38 v=100
70080 On ch=2 n=50 v=75
70964 Off ch=2 n=50 v=100
71040 On ch=2 n=48 v=75
71924 Off ch=2 n=48 v=100
72000 On ch=2 n=52 v=75
72884 Off ch=2 n=52 v=100
72960 On ch=2 n=45 v=75
73402 Off ch=2 n=45 v=100
74400 On ch=2 n=45 v=75
74842 Off ch=2 n=45 v=100
74880 On ch=2 n=53 v=75
75764 Off ch=2 n=53 v=100
75840 On ch=2 n=53 v=75
76724 Off ch=2 n=53 v=100
76800 On ch=2 n=52 v=75
77463 Off ch=2 n=52 v=100
77520 On ch=2 n=53 v=75
78183 Off ch=2 n=53 v=100
78240 On ch=2 n=56 v=75
78682 Off ch=2 n=56 v=100
78720 On ch=2 n=57 v=75
79162 Off ch=2 n=57 v=100
79680 On ch=2 n=40 v=75
80564 Off ch=2 n=40 v=100
80640 On ch=2 n=45 v=75
81082 Off ch=2 n=45 v=100
82080 On ch=2 n=45 v=75
82522 Off ch=2 n=45 v=100
82560 On ch=2 n=41 v=75
83444 Off ch=2 n=41 v=100
83520 On ch=2 n=41 v=75
84404 Off ch=2 n=41 v=100
84480 On ch=2 n=38 v=75
85364 Off ch=2 n=38 v=100
85440 On ch=2 n=50 v=75
86324 Off ch=2 n=50 v=100
86400 On ch=2 n=48 v=75
87284 Off ch=2 n=48 v=100
87360 On ch=2 n=52 v=75
88244 Off ch=2 n=52 v=100
88320 On ch=2 n=45 v=75
88762 Off ch=2 n=45 v=100
89760 On ch=2 n=45 v=75
90202 Off ch=2 n=45 v=100
90240 On ch=2 n=53 v=75
91124 Off ch=2 n=53 v=100
91200 On ch=2 n=53 v=75
92084 Off ch=2 n=53 v=100
92160 On ch=2 n=52 v=75
92823 Off ch=2 n=52 v=100
92880 On ch=2 n=53 v=75
93543 Off ch=2 n=53 v=100
93600 On ch=2 n=56 v=75
94042 Off ch=2 n=56 v=100
94080 On ch=2 n=57 v=75
94522 Off ch=2 n=57 v=100
95040 On ch=2 n=40 v=75
95924 Off ch=2 n=40 v=100
96000 On ch=2 n=41 v=75
96000 On ch=2 n=45 v=75
96442 Off ch=2 n=41 v=100
96442 Off ch=2 n=45 v=100
96960 On ch=2 n=41 v=75
96960 On ch=2 n=45 v=75
97402 Off ch=2 n=41 v=100
97402 Off ch=2 n=45 v=100
97920 On ch=2 n=43 v=75
97920 On ch=2 n=47 v=75
98362 Off ch=2 n=43 v=100
98362 Off ch=2 n=47 v=100
98880 On ch=2 n=43 v=75
98880 On ch=2 n=47 v=75
99322 Off ch=2 n=43 v=100
99322 Off ch=2 n=47 v=100
99840 On ch=2 n=45 v=75
99840 On ch=2 n=48 v=75
100282 Off ch=2 n=45 v=100
100282 Off ch=2 n=48 v=100
100800 On ch=2 n=48 v=75
100800 On ch=2 n=45 v=75
101242 Off ch=2 n=48 v=100
101242 Off ch=2 n=45 v=100
101760 On ch=2 n=48 v=75
101760 On ch=2 n=45 v=75
102202 Off ch=2 n=48 v=100
102202 Off ch=2 n=45 v=100
102720 On ch=2 n=48 v=75
102720 On ch=2 n=45 v=75
103162 Off ch=2 n=48 v=100
103162 Off ch=2 n=45 v=100
103680 On ch=2 n=45 v=75
103680 On ch=2 n=41 v=75
104122 Off ch=2 n=45 v=100
104122 Off ch=2 n=41 v=100
104640 On ch=2 n=45 v=75
104640 On ch=2 n=41 v=75
105082 Off ch=2 n=45 v=100
105082 Off ch=2 n=41 v=100
105600 On ch=2 n=47 v=75
105600 On ch=2 n=43 v=75
106042 Off ch=2 n=47 v=100
106042 Off ch=2 n=43 v=100
106560 On ch=2 n=47 v=75
106560 On ch=2 n=43 v=75
107002 Off ch=2 n=47 v=100
107002 Off ch=2 n=43 v=100
107040 On ch=2 n=45 v=75
107040 On ch=2 n=48 v=75
108365 Off ch=2 n=45 v=100
108365 Off ch=2 n=48 v=100
108480 On ch=2 n=40 v=75
108922 Off ch=2 n=40 v=100
109440 On ch=2 n=45 v=75
109882 Off ch=2 n=45 v=100
110400 On ch=2 n=43 v=75
110842 Off ch=2 n=43 v=100
111360 On ch=2 n=41 v=75
111360 On ch=2 n=45 v=75
111802 Off ch=2 n=41 v=100
111802 Off ch=2 n=45 v=100
112320 On ch=2 n=41 v=75
112320 On ch=2 n=45 v=75
112762 Off ch=2 n=41 v=100
112762 Off ch=2 n=45 v=100
113280 On ch=2 n=43 v=75
113280 On ch=2 n=47 v=75
113722 Off ch=2 n=43 v=100
113722 Off ch=2 n=47 v=100
114240 On ch=2 n=43 v=75
114240 On ch=2 n=47 v=75
114682 Off ch=2 n=43 v=100
114682 Off ch=2 n=47 v=100
115200 On ch=2 n=45 v=75
115200 On ch=2 n=48 v=75
115642 Off ch=2 n=45 v=100
115642 Off ch=2 n=48 v=100
116160 On ch=2 n=48 v=75
116160 On ch=2 n=45 v=75
116602 Off ch=2 n=48 v=100
116602 Off ch=2 n=45 v=100
117120 On ch=2 n=48 v=75
117120 On ch=2 n=45 v=75
117562 Off ch=2 n=48 v=100
117562 Off ch=2 n=45 v=100
118080 On ch=2 n=48 v=75
118080 On ch=2 n=45 v=75
118522 Off ch=2 n=48 v=100
118522 Off ch=2 n=45 v=100
119040 On ch=2 n=45 v=75
119040 On ch=2 n=41 v=75
119482 Off ch=2 n=45 v=100
119482 Off ch=2 n=41 v=100
120000 On ch=2 n=45 v=75
120000 On ch=2 n=41 v=75
120442 Off ch=2 n=45 v=100
120442 Off ch=2 n=41 v=100
120960 On ch=2 n=47 v=75
120960 On ch=2 n=43 v=75
121402 Off ch=2 n=47 v=100
121402 Off ch=2 n=43 v=100
121920 On ch=2 n=47 v=75
121920 On ch=2 n=43 v=75
122362 Off ch=2 n=47 v=100
122362 Off ch=2 n=43 v=100
122400 On ch=2 n=44 v=75
122400 On ch=2 n=48 v=75
123725 Off ch=2 n=44 v=100
123725 Off ch=2 n=48 v=100
123840 On ch=2 n=40 v=75
124282 Off ch=2 n=40 v=100
126720 On ch=2 n=45 v=75
127162 Off ch=2 n=45 v=100
127200 On ch=2 n=52 v=75
127421 Off ch=2 n=52 v=100
127680 On ch=2 n=48 v=75
127901 Off ch=2 n=48 v=100
128160 On ch=2 n=52 v=75
128602 Off ch=2 n=52 v=100
128640 On ch=2 n=53 v=75
129524 Off ch=2 n=53 v=100
129600 On ch=2 n=53 v=75
130484 Off ch=2 n=53 v=100
130560 On ch=2 n=50 v=75
131002 Off ch=2 n=50 v=100
131040 On ch=2 n=43 v=75
131261 Off ch=2 n=43 v=100
131520 On ch=2 n=50 v=75
131741 Off ch=2 n=50 v=100
132000 On ch=2 n=55 v=75
132221 Off ch=2 n=55 v=100
132480 On ch=2 n=48 v=75
132922 Off ch=2 n=48 v=100
132960 On ch=2 n=47 v=75
133181 Off ch=2 n=47 v=100
133440 On ch=2 n=45 v=75
134324 Off ch=2 n=45 v=100
134400 On ch=2 n=45 v=75
134842 Off ch=2 n=45 v=100
134880 On ch=2 n=52 v=75
135101 Off ch=2 n=52 v=100
135360 On ch=2 n=48 v=75
135581 Off ch=2 n=48 v=100
135840 On ch=2 n=52 v=75
136282 Off ch=2 n=52 v=100
136320 On ch=2 n=50 v=75
136762 Off ch=2 n=50 v=100
136800 On ch=2 n=57 v=75
137021 Off ch=2 n=57 v=100
137280 On ch=2 n=53 v=75
137722 Off ch=2 n=53 v=100
137760 On ch=2 n=57 v=75
137981 Off ch=2 n=57 v=100
138240 On ch=2 n=51 v=75
138682 Off ch=2 n=51 v=100
138720 On ch=2 n=54 v=75
138941 Off ch=2 n=54 v=100
139200 On ch=2 n=51 v=75
139642 Off ch=2 n=51 v=100
139680 On ch=2 n=59 v=75
139901 Off ch=2 n=59 v=100
140160 On ch=2 n=56 v=75
140602 Off ch=2 n=56 v=100
141120 On ch=2 n=52 v=75
142004 Off ch=2 n=52 v=100
142080 On ch=2 n=45 v=75
142522 Off ch=2 n=45 v=100
142560 On ch=2 n=52 v=75
142781 Off ch=2 n=52 v=100
143040 On ch=2 n=48 v=75
143261 Off ch=2 n=48 v=100
143520 On ch=2 n=52 v=75
143962 Off ch=2 n=52 v=100
144000 On ch=2 n=53 v=75
144884 Off ch=2 n=53 v=100
144960 On ch=2 n=53 v=75
145844 Off ch=2 n=53 v=100
145920 On ch=2 n=50 v=75
146362 Off ch=2 n=50 v=100
146400 On ch=2 n=43 v=75
146621 Off ch=2 n=43 v=100
146880 On ch=2 n=50 v=75
147101 Off ch=2 n=50 v=100
147360 On ch=2 n=55 v=75
147581 Off ch=2 n=55 v=100
147840 On ch=2 n=48 v=75
148282 Off ch=2 n=48 v=100
148320 On ch=2 n=47 v=75
148541 Off ch=2 n=47 v=100
148800 On ch=2 n=45 v=75
149684 Off ch=2 n=45 v=100
149760 On ch=2 n=45 v=75
150202 Off ch=2 n=45 v=100
150240 On ch=2 n=48 v=75
150461 Off ch=2 n=48 v=100
150720 On ch=2 n=50 v=75
150941 Off ch=2 n=50 v=100
151200 On ch=2 n=52 v=75
151642 Off ch=2 n=52 v=100
151680 On ch=2 n=50 v=75
152564 Off ch=2 n=50 v=100
152640 On ch=2 n=57 v=75
153524 Off ch=2 n=57 v=100
153600 On ch=2 n=52 v=75
154042 Off ch=2 n=52 v=100
154080 On ch=2 n=60 v=75
154522 Off ch=2 n=60 v=100
154560 On ch=2 n=56 v=75
155002 Off ch=2 n=56 v=100
155040 On ch=2 n=57 v=75
155261 Off ch=2 n=57 v=100
155280 On ch=2 n=59 v=75
155501 Off ch=2 n=59 v=100
155520 On ch=2 n=57 v=75
157287 Off ch=2 n=57 v=100
161280 Meta TrkEnd
TrkEnd
]]

end